<?xml version="1.0" standalone="no"?>
<!DOCTYPE svg PUBLIC "-//W3C//DTD SVG 1.1//EN"
  "http://www.w3.org/Graphics/SVG/1.1/DTD/svg11.dtd">
<svg width="425.19px" height="425.19px" version="1.1"
    xmlns="http://www.w3.org/2000/svg"
    xmlns:xlink="http://www.w3.org/1999/xlink">
<desc>Veusz output document</desc>
<defs>
<clipPath id="c0">
<path d="m0,0l425.19,0l0,425.19l-425.19,0l0,-425.19"/>
</clipPath>
<clipPath id="c1">
<path d="m60.23,7.08l357.87,0l0,357.87l-357.87,0l0,-357.87"/>
</clipPath>
</defs>
<g stroke-linejoin="bevel" stroke-linecap="square" stroke="#000000" fill-rule="evenodd">
<g clip-path="url(#c0)">
<g fill="#ffffff" stroke-width="0.62">
<path d="m60.23,7.08l357.87,0l0,357.87l-357.87,0l0,-357.87"/>
</g>
</g>
<g clip-path="url(#c1)">
<g fill="none" stroke="#d3d3d3" stroke-width="0.62">
<path d="M60.23,275.49l357.87,0M60.23,238.43l357.87,0M60.23,209.99l357.87,0M60.23,186.02l357.87,0M60.23,164.9l357.87,0M60.23,145.8l357.87,0M60.23,128.25l357.87,0M60.23,111.9l357.87,0M60.23,96.55l357.87,0M60.23,82.03l357.87,0M60.23,68.22l357.87,0M60.23,55.03l357.87,0M60.23,42.37l357.87,0M60.23,30.2l357.87,0M60.23,18.45l357.87,0M60.23,7.08l357.87,0"/>
</g>
<g fill="none" stroke="#808080" stroke-width="0.62">
<path d="M60.23,186.02l357.87,0M60.23,111.9l357.87,0M60.23,55.03l357.87,0M60.23,7.08l357.87,0"/>
</g>
</g>
<g clip-path="url(#c0)">
<g fill="none" stroke="#008000" stroke-width="1">
<g stroke="none" fill="#008000" fill-opacity="1" font-family="DejaVu Sans" font-size="25.0" font-style="italic">
<text x="381.83" y="221.81" textLength="14.8">x</text>
</g>
<g stroke="none" fill="#008000" fill-opacity="1" font-family="DejaVu Sans" font-size="15.0">
<text x="396.63" y="210.13" textLength="9.5">1</text>
</g>
</g>
<g fill="none" stroke="#ff00ff" stroke-width="1">
<g stroke="none" fill="#ff00ff" fill-opacity="1" font-family="DejaVu Sans" font-size="25.0" font-style="italic">
<text x="381.83" y="78.66" textLength="14.8">x</text>
</g>
<g stroke="none" fill="#ff00ff" fill-opacity="1" font-family="DejaVu Sans" font-size="15.0">
<text x="396.63" y="66.98" textLength="9.5">3</text>
</g>
</g>
<g fill="none" stroke="#0000ff" stroke-width="1">
<g stroke="none" fill="#0000ff" fill-opacity="1" font-family="DejaVu Sans" font-size="25.0" font-style="italic">
<text x="381.83" y="158.5" textLength="14.8">x</text>
</g>
<g stroke="none" fill="#0000ff" fill-opacity="1" font-family="DejaVu Sans" font-size="15.0">
<text x="396.63" y="146.82" textLength="9.5">2</text>
</g>
</g>
</g>
<g clip-path="url(#c1)">
<g fill="none" stroke="#ff00ff" stroke-width="2.5">
<polyline fill="none" points="60.23,364.96 63.85,364.73 67.46,364.15 71.08,363.36 74.69,362.13 78.31,361 81.92,359.7 85.54,358.24 89.15,356.77 92.77,355.2 96.38,353.51 100,351.73 103.61,349.88 107.22,347.95 110.84,345.94 114.45,343.87 118.07,341.72 121.68,339.51 125.3,337.23 128.91,334.88 132.53,332.46 136.14,330 139.76,327.48 143.37,324.89 146.99,322.24 150.6,319.55 154.22,316.8 157.83,313.99 161.45,311.14 165.06,308.22 168.68,305.27 172.29,302.25 175.91,299.2 179.52,296.08 183.14,292.93 186.75,289.73 190.37,286.48 193.98,283.19 197.6,279.85 201.21,276.47 204.83,273.05 208.44,269.58 212.06,266.07 215.67,262.52 219.29,258.92 222.9,255.29 226.52,251.61 230.13,247.89 233.75,244.14 237.36,240.34 240.98,236.51 244.59,232.64 248.21,228.73 251.82,224.78 255.44,220.79 259.05,216.77 262.67,212.71 266.28,208.61 269.89,204.48 273.51,200.31 277.12,196.1 280.74,191.87 284.35,187.59 287.97,183.29 291.58,178.94 295.2,174.57 298.81,170.15 302.43,165.71 306.04,161.23 309.66,156.72 313.27,152.18 316.89,147.6 320.5,143 324.12,138.36 327.73,133.68 331.35,128.98 334.96,124.24 338.58,119.48 342.19,114.68 345.81,109.85 349.42,104.99 353.04,100.1 356.65,95.18 360.27,90.23 363.88,85.25 367.5,80.24 371.11,75.21 374.73,70.14 378.34,65.04 381.96,59.91 385.57,54.76 389.19,49.57 392.8,44.36 396.42,39.12 400.03,33.85 403.65,28.55 407.26,23.23 410.88,17.87 414.49,12.49 418.11,7.08"/>
</g>
<g fill="none" stroke="#008000" stroke-width="2.5">
<polyline fill="none" points="60.23,364.96 63.85,347 67.46,339.54 71.08,333.82 74.69,329 78.31,324.75 81.92,320.91 85.54,317.39 89.15,314.09 92.77,311.01 96.38,308.09 100,305.32 103.61,302.66 107.22,300.12 110.84,297.67 114.45,295.31 118.07,293.03 121.68,290.81 125.3,288.66 128.91,286.57 132.53,284.53 136.14,282.55 139.76,280.61 143.37,278.71 146.99,276.86 150.6,275.04 154.22,273.26 157.83,271.51 161.45,269.8 165.06,268.11 168.68,266.46 172.29,264.83 175.91,263.23 179.52,261.65 183.14,260.09 186.75,258.56 190.37,257.06 193.98,255.57 197.6,254.1 201.21,252.65 204.83,251.22 208.44,249.81 212.06,248.41 215.67,247.03 219.29,245.67 222.9,244.32 226.52,242.99 230.13,241.67 233.75,240.36 237.36,239.07 240.98,237.79 244.59,236.53 248.21,235.28 251.82,234.03 255.44,232.81 259.05,231.59 262.67,230.38 266.28,229.18 269.89,228 273.51,226.82 277.12,225.66 280.74,224.5 284.35,223.35 287.97,222.21 291.58,221.09 295.2,219.97 298.81,218.86 302.43,217.75 306.04,216.66 309.66,215.57 313.27,214.49 316.89,213.42 320.5,212.36 324.12,211.3 327.73,210.25 331.35,209.21 334.96,208.18 338.58,207.15 342.19,206.13 345.81,205.11 349.42,204.1 353.04,203.1 356.65,202.11 360.27,201.12 363.88,200.13 367.5,199.16 371.11,198.18 374.73,197.22 378.34,196.25 381.96,195.3 385.57,194.35 389.19,193.4 392.8,192.46 396.42,191.53 400.03,190.6 403.65,189.67 407.26,188.75 410.88,187.84 414.49,186.93 418.11,186.02"/>
</g>
<g fill="none" stroke="#0000ff" stroke-width="2.5">
<polyline fill="none" points="60.23,364.96 63.85,362.41 67.46,359.91 71.08,357.35 74.69,354.76 78.31,352.19 81.92,349.65 85.54,347.09 89.15,344.51 92.77,341.96 96.38,339.41 100,336.85 103.61,334.28 107.22,331.74 110.84,329.18 114.45,326.62 118.07,324.06 121.68,321.51 125.3,318.96 128.91,316.39 132.53,313.84 136.14,311.29 139.76,308.73 143.37,306.17 146.99,303.62 150.6,301.06 154.22,298.5 157.83,295.94 161.45,293.39 165.06,290.83 168.68,288.27 172.29,285.72 175.91,283.17 179.52,280.61 183.14,278.05 186.75,275.5 190.37,272.94 193.98,270.38 197.6,267.83 201.21,265.27 204.83,262.71 208.44,260.16 212.06,257.6 215.67,255.05 219.29,252.49 222.9,249.93 226.52,247.38 230.13,244.82 233.75,242.26 237.36,239.71 240.98,237.15 244.59,234.6 248.21,232.04 251.82,229.48 255.44,226.93 259.05,224.37 262.67,221.81 266.28,219.26 269.89,216.7 273.51,214.15 277.12,211.59 280.74,209.04 284.35,206.48 287.97,203.92 291.58,201.37 295.2,198.81 298.81,196.25 302.43,193.7 306.04,191.14 309.66,188.59 313.27,186.03 316.89,183.47 320.5,180.92 324.12,178.36 327.73,175.8 331.35,173.25 334.96,170.69 338.58,168.14 342.19,165.58 345.81,163.03 349.42,160.47 353.04,157.91 356.65,155.36 360.27,152.8 363.88,150.24 367.5,147.69 371.11,145.13 374.73,142.58 378.34,140.02 381.96,137.46 385.57,134.91 389.19,132.35 392.8,129.79 396.42,127.24 400.03,124.68 403.65,122.13 407.26,119.57 410.88,117.01 414.49,114.46 418.11,111.9"/>
</g>
</g>
<g clip-path="url(#c0)">
<g fill="none" stroke-linecap="butt" stroke-width="0.62">
<path d="M60.23,364.96l0,-357.87"/>
<path d="M60.23,364.96l3.75,0M60.23,275.49l3.75,0M60.23,238.43l3.75,0M60.23,209.99l3.75,0M60.23,186.02l3.75,0M60.23,164.9l3.75,0M60.23,145.8l3.75,0M60.23,128.25l3.75,0M60.23,111.9l3.75,0M60.23,96.55l3.75,0M60.23,82.03l3.75,0M60.23,68.22l3.75,0M60.23,55.03l3.75,0M60.23,42.37l3.75,0M60.23,30.2l3.75,0M60.23,18.45l3.75,0M60.23,7.08l3.75,0"/>
<path d="M60.23,364.96l7.5,0M60.23,186.02l7.5,0M60.23,111.9l7.5,0M60.23,55.03l7.5,0M60.23,7.08l7.5,0"/>
<path d="M418.11,364.96l0,-357.87"/>
<path d="M418.11,364.96l-3.75,0M418.11,275.49l-3.75,0M418.11,238.43l-3.75,0M418.11,209.99l-3.75,0M418.11,186.02l-3.75,0M418.11,164.9l-3.75,0M418.11,145.8l-3.75,0M418.11,128.25l-3.75,0M418.11,111.9l-3.75,0M418.11,96.55l-3.75,0M418.11,82.03l-3.75,0M418.11,68.22l-3.75,0M418.11,55.03l-3.75,0M418.11,42.37l-3.75,0M418.11,30.2l-3.75,0M418.11,18.45l-3.75,0M418.11,7.08l-3.75,0"/>
<path d="M418.11,364.96l-7.5,0M418.11,186.02l-7.5,0M418.11,111.9l-7.5,0M418.11,55.03l-7.5,0M418.11,7.08l-7.5,0"/>
</g>
<g fill="none" stroke-width="1">
<g transform="matrix(0 -1 1 0 22 250.87)">
<g stroke="none" fill="#000000" fill-opacity="1" font-family="DejaVu Sans" font-size="20.0">
<text x="0" y="0" textLength="129.7">Squared axis</text>
</g>
</g>
</g>
<g fill="none" stroke="#a9a9a9" stroke-width="1">
<g transform="matrix(0.7071 -0.7071 0.7071 0.7071 46.65 374.82)">
<g stroke="none" fill="#a9a9a9" fill-opacity="1" font-family="DejaVu Sans" font-size="20.0">
<text x="0" y="0" textLength="12.7">0</text>
</g>
</g>
<g transform="matrix(0.7071 -0.7071 0.7071 0.7071 46.65 195.88)">
<g stroke="none" fill="#a9a9a9" fill-opacity="1" font-family="DejaVu Sans" font-size="20.0">
<text x="0" y="0" textLength="12.7">2</text>
</g>
</g>
<g transform="matrix(0.7071 -0.7071 0.7071 0.7071 46.65 121.76)">
<g stroke="none" fill="#a9a9a9" fill-opacity="1" font-family="DejaVu Sans" font-size="20.0">
<text x="0" y="0" textLength="12.7">4</text>
</g>
</g>
<g transform="matrix(0.7071 -0.7071 0.7071 0.7071 46.65 64.89)">
<g stroke="none" fill="#a9a9a9" fill-opacity="1" font-family="DejaVu Sans" font-size="20.0">
<text x="0" y="0" textLength="12.7">6</text>
</g>
</g>
<g transform="matrix(0.7071 -0.7071 0.7071 0.7071 46.65 24.4)">
<g stroke="none" fill="#a9a9a9" fill-opacity="1" font-family="DejaVu Sans" font-size="20.0">
<text x="0" y="0" textLength="12.7">8</text>
</g>
</g>
</g>
<g fill="none" stroke-linecap="butt" stroke-width="0.62">
<path d="M60.23,364.96l357.87,0"/>
<path d="M60.23,364.96l0,-3.75M78.12,364.96l0,-3.75M96.02,364.96l0,-3.75M113.91,364.96l0,-3.75M131.81,364.96l0,-3.75M149.7,364.96l0,-3.75M167.59,364.96l0,-3.75M185.49,364.96l0,-3.75M203.38,364.96l0,-3.75M221.27,364.96l0,-3.75M239.17,364.96l0,-3.75M257.06,364.96l0,-3.75M274.96,364.96l0,-3.75M292.85,364.96l0,-3.75M310.74,364.96l0,-3.75M328.64,364.96l0,-3.75M346.53,364.96l0,-3.75M364.42,364.96l0,-3.75M382.32,364.96l0,-3.75M400.21,364.96l0,-3.75M418.11,364.96l0,-3.75"/>
<path d="M60.23,364.96l0,-7.5M149.7,364.96l0,-7.5M239.17,364.96l0,-7.5M328.64,364.96l0,-7.5M418.11,364.96l0,-7.5"/>
<path d="M60.23,7.08l357.87,0"/>
<path d="M60.23,7.08l0,3.75M78.12,7.08l0,3.75M96.02,7.08l0,3.75M113.91,7.08l0,3.75M131.81,7.08l0,3.75M149.7,7.08l0,3.75M167.59,7.08l0,3.75M185.49,7.08l0,3.75M203.38,7.08l0,3.75M221.27,7.08l0,3.75M239.17,7.08l0,3.75M257.06,7.08l0,3.75M274.96,7.08l0,3.75M292.85,7.08l0,3.75M310.74,7.08l0,3.75M328.64,7.08l0,3.75M346.53,7.08l0,3.75M364.42,7.08l0,3.75M382.32,7.08l0,3.75M400.21,7.08l0,3.75M418.11,7.08l0,3.75"/>
<path d="M60.23,7.08l0,7.5M149.7,7.08l0,7.5M239.17,7.08l0,7.5M328.64,7.08l0,7.5M418.11,7.08l0,7.5"/>
</g>
<g fill="none" stroke-width="1">
<g stroke="none" fill="#000000" fill-opacity="1" font-family="DejaVu Sans" font-size="20.0">
<text x="184.82" y="415.96" textLength="108.7">Linear axis</text>
</g>
</g>
<g fill="none" stroke="#a9a9a9" stroke-width="1">
<g stroke="none" fill="#a9a9a9" fill-opacity="1" font-family="DejaVu Sans" font-size="20.0">
<text x="53.88" y="388.16" textLength="12.7">0</text>
<text x="133.8" y="388.16" textLength="31.8">0.5</text>
<text x="232.82" y="388.16" textLength="12.7">1</text>
<text x="312.74" y="388.16" textLength="31.8">1.5</text>
<text x="411.75" y="388.16" textLength="12.7">2</text>
</g>
</g>
</g>
</g>
</svg>
