<?xml version="1.0" standalone="no"?>
<!DOCTYPE svg PUBLIC "-//W3C//DTD SVG 1.1//EN" 
  "http://www.w3.org/Graphics/SVG/1.1/DTD/svg11.dtd">
<svg width="373.44px" height="576.17px" version="1.1"
     xmlns="http://www.w3.org/2000/svg"
     xmlns:xlink="http://www.w3.org/1999/xlink">
<desc>Veusz output document</desc>
<g stroke-linejoin="bevel" stroke-linecap="square" stroke="#000000" fill-rule="evenodd">
<g clip-path="url(#c0)">
<g stroke-width="0.62" fill="#ffffff">
<path d="m60.46,7.11l252.52,0l0,252.52l-252.52,0l0,-252.52"/>
</g>
<g stroke="none" stroke-width="1" fill="#ffffff">
<path d="m80.46,27.11l122.57,0l0,40l-122.57,0l0,-40"/>
</g>
<g stroke-width="0.62" fill="#aaffff">
<path d="m80.46,29.11l35.57,0l0,14l-35.57,0l0,-14"/>
</g>
<g stroke-width="1" fill="none">
<path d="m136.8,39.08l1.56,-0.12c0.08,0.62,0.26,1.14,0.52,1.54c0.27,0.4,0.68,0.73,1.26,0.98c0.57,0.25,1.21,0.37,1.92,0.37c0.64,0,1.2,-0.1,1.68,-0.29c0.48,-0.19,0.84,-0.45,1.08,-0.77c0.23,-0.32,0.35,-0.68,0.35,-1.08c0,-0.39,-0.11,-0.73,-0.34,-1.02c-0.22,-0.3,-0.6,-0.54,-1.13,-0.74c-0.33,-0.12,-1.08,-0.33,-2.23,-0.6c-1.15,-0.28,-1.96,-0.54,-2.41,-0.79c-0.6,-0.31,-1.05,-0.7,-1.34,-1.16c-0.29,-0.46,-0.44,-0.98,-0.44,-1.55c0,-0.64,0.18,-1.23,0.54,-1.78c0.36,-0.55,0.88,-0.97,1.57,-1.25c0.69,-0.28,1.45,-0.42,2.3,-0.42c0.93,0,1.74,0.15,2.45,0.45c0.71,0.3,1.26,0.74,1.64,1.32c0.39,0.58,0.59,1.24,0.61,1.97l-1.58,0.12c-0.08,-0.79,-0.37,-1.39,-0.87,-1.8c-0.49,-0.41,-1.22,-0.61,-2.18,-0.61c-1.01,0,-1.74,0.18,-2.2,0.55c-0.46,0.37,-0.69,0.81,-0.69,1.32c0,0.46,0.16,0.83,0.48,1.12c0.32,0.28,1.16,0.58,2.51,0.88c1.35,0.31,2.27,0.58,2.77,0.8c0.73,0.33,1.27,0.76,1.62,1.27c0.35,0.52,0.52,1.11,0.52,1.79c0,0.67,-0.19,1.29,-0.58,1.88c-0.39,0.59,-0.93,1.05,-1.65,1.37c-0.71,0.33,-1.52,0.49,-2.41,0.49c-1.14,0,-2.09,-0.17,-2.85,-0.5c-0.77,-0.33,-1.36,-0.83,-1.8,-1.49c-0.43,-0.66,-0.66,-1.41,-0.7,-2.26m12.37,7.52l0,-12.56l1.41,0l0,1.19c0.32,-0.47,0.69,-0.82,1.11,-1.05c0.42,-0.23,0.92,-0.34,1.52,-0.34c0.77,0,1.45,0.2,2.05,0.6c0.59,0.4,1.04,0.96,1.34,1.69c0.3,0.72,0.45,1.52,0.45,2.38c0,0.93,-0.17,1.76,-0.5,2.51c-0.33,0.74,-0.82,1.32,-1.45,1.71c-0.64,0.4,-1.3,0.59,-2,0.59c-0.51,0,-0.97,-0.11,-1.38,-0.32c-0.41,-0.21,-0.75,-0.49,-1.01,-0.82l0,4.42l-1.53,0m1.39,-7.97c0,1.17,0.24,2.03,0.71,2.59c0.47,0.56,1.04,0.84,1.71,0.84c0.69,0,1.27,-0.29,1.76,-0.87c0.48,-0.58,0.73,-1.47,0.73,-2.68c0,-1.16,-0.24,-2.02,-0.71,-2.6c-0.47,-0.58,-1.04,-0.87,-1.7,-0.87c-0.66,0,-1.24,0.31,-1.74,0.92c-0.51,0.61,-0.76,1.51,-0.76,2.67m8.59,4.48l0,-9.08l1.37,0l0,1.37c0.35,-0.65,0.68,-1.07,0.98,-1.27c0.3,-0.2,0.63,-0.3,0.98,-0.3c0.52,0,1.05,0.17,1.58,0.5l-0.53,1.42c-0.37,-0.22,-0.75,-0.33,-1.12,-0.33c-0.33,0,-0.63,0.1,-0.9,0.3c-0.27,0.2,-0.46,0.48,-0.57,0.84c-0.18,0.55,-0.27,1.15,-0.27,1.8l0,4.75l-1.53,0m6.02,-10.77l0,-1.77l1.55,0l0,1.77l-1.55,0m0,10.77l0,-9.08l1.55,0l0,9.08l-1.55,0m4,0l0,-9.08l1.37,0l0,1.3c0.67,-1,1.63,-1.5,2.89,-1.5c0.55,0,1.06,0.1,1.52,0.3c0.46,0.2,0.8,0.46,1.03,0.77c0.23,0.32,0.39,0.7,0.47,1.13c0.06,0.29,0.09,0.79,0.09,1.5l0,5.58l-1.55,0l0,-5.52c0,-0.62,-0.06,-1.09,-0.18,-1.41c-0.12,-0.31,-0.33,-0.56,-0.63,-0.75c-0.3,-0.19,-0.66,-0.28,-1.08,-0.28c-0.65,0,-1.21,0.21,-1.69,0.62c-0.48,0.42,-0.72,1.21,-0.72,2.37l0,4.95l-1.53,0m9.72,0.75l1.48,0.22c0.07,0.47,0.25,0.81,0.53,1.02c0.37,0.28,0.9,0.42,1.56,0.42c0.71,0,1.26,-0.14,1.65,-0.42c0.39,-0.28,0.65,-0.68,0.79,-1.2c0.07,-0.31,0.11,-0.97,0.11,-1.97c-0.68,0.79,-1.52,1.19,-2.52,1.19c-1.25,0,-2.22,-0.45,-2.9,-1.35c-0.68,-0.9,-1.02,-1.98,-1.02,-3.24c0,-0.86,0.16,-1.66,0.47,-2.39c0.31,-0.73,0.77,-1.29,1.37,-1.7c0.6,-0.4,1.3,-0.6,2.1,-0.6c1.06,0,1.94,0.43,2.64,1.3l0,-1.09l1.42,0l0,7.84c0,1.42,-0.14,2.42,-0.43,3.01c-0.29,0.59,-0.74,1.05,-1.37,1.4c-0.62,0.34,-1.4,0.52,-2.31,0.52c-1.07,0,-1.94,-0.24,-2.61,-0.73c-0.67,-0.49,-0.99,-1.22,-0.97,-2.2m1.27,-5.45c0,1.2,0.24,2.07,0.71,2.62c0.47,0.55,1.07,0.82,1.77,0.82c0.71,0,1.3,-0.27,1.78,-0.82c0.48,-0.55,0.72,-1.4,0.72,-2.57c0,-1.1,-0.25,-1.94,-0.74,-2.5c-0.49,-0.56,-1.09,-0.84,-1.77,-0.84c-0.69,0,-1.27,0.28,-1.75,0.83c-0.48,0.55,-0.72,1.37,-0.72,2.47" fill="#000000" stroke="none" fill-opacity="1"/>
</g>
<g stroke-width="0.62" fill="#00aaff">
<path d="m80.46,49.11l35.57,0l0,14l-35.57,0l0,-14"/>
</g>
<g stroke-width="1" fill="none">
<path d="m136.8,59.08l1.56,-0.12c0.08,0.62,0.26,1.14,0.52,1.54c0.27,0.4,0.68,0.73,1.26,0.98c0.57,0.25,1.21,0.37,1.92,0.37c0.64,0,1.2,-0.1,1.68,-0.29c0.48,-0.19,0.84,-0.45,1.08,-0.77c0.23,-0.32,0.35,-0.68,0.35,-1.08c0,-0.39,-0.11,-0.73,-0.34,-1.02c-0.22,-0.3,-0.6,-0.54,-1.13,-0.74c-0.33,-0.12,-1.08,-0.33,-2.23,-0.6c-1.15,-0.28,-1.96,-0.54,-2.41,-0.79c-0.6,-0.31,-1.05,-0.7,-1.34,-1.16c-0.29,-0.46,-0.44,-0.98,-0.44,-1.55c0,-0.64,0.18,-1.23,0.54,-1.78c0.36,-0.55,0.88,-0.97,1.57,-1.25c0.69,-0.28,1.45,-0.42,2.3,-0.42c0.93,0,1.74,0.15,2.45,0.45c0.71,0.3,1.26,0.74,1.64,1.32c0.39,0.58,0.59,1.24,0.61,1.97l-1.58,0.12c-0.08,-0.79,-0.37,-1.39,-0.87,-1.8c-0.49,-0.41,-1.22,-0.61,-2.18,-0.61c-1.01,0,-1.74,0.18,-2.2,0.55c-0.46,0.37,-0.69,0.81,-0.69,1.32c0,0.46,0.16,0.83,0.48,1.12c0.32,0.28,1.16,0.58,2.51,0.88c1.35,0.31,2.27,0.58,2.77,0.8c0.73,0.33,1.27,0.76,1.62,1.27c0.35,0.52,0.52,1.11,0.52,1.79c0,0.67,-0.19,1.29,-0.58,1.88c-0.39,0.59,-0.93,1.05,-1.65,1.37c-0.71,0.33,-1.52,0.49,-2.41,0.49c-1.14,0,-2.09,-0.17,-2.85,-0.5c-0.77,-0.33,-1.36,-0.83,-1.8,-1.49c-0.43,-0.66,-0.66,-1.41,-0.7,-2.26m18.31,4.03l0,-1.33c-0.7,1.02,-1.66,1.53,-2.87,1.53c-0.53,0,-1.03,-0.1,-1.49,-0.3c-0.46,-0.2,-0.81,-0.46,-1.04,-0.77c-0.23,-0.31,-0.39,-0.69,-0.47,-1.14c-0.06,-0.3,-0.09,-0.78,-0.09,-1.44l0,-5.62l1.53,0l0,5.03c0,0.8,0.03,1.34,0.09,1.62c0.09,0.41,0.3,0.72,0.62,0.95c0.32,0.23,0.71,0.34,1.16,0.34c0.46,0,0.89,-0.12,1.3,-0.35c0.41,-0.23,0.69,-0.55,0.86,-0.96c0.17,-0.41,0.25,-1,0.25,-1.78l0,-4.86l1.55,0l0,9.08l-1.39,0m4.06,0l0,-9.08l1.37,0l0,1.28c0.28,-0.45,0.66,-0.81,1.13,-1.08c0.47,-0.27,1.01,-0.41,1.62,-0.41c0.68,0,1.23,0.14,1.66,0.42c0.43,0.28,0.73,0.67,0.91,1.17c0.72,-1.06,1.65,-1.59,2.8,-1.59c0.91,0,1.6,0.25,2.09,0.75c0.48,0.5,0.73,1.27,0.73,2.3l0,6.23l-1.53,0l0,-5.72c0,-0.61,-0.05,-1.06,-0.15,-1.33c-0.1,-0.27,-0.28,-0.49,-0.55,-0.66c-0.27,-0.17,-0.57,-0.25,-0.91,-0.25c-0.65,0,-1.18,0.21,-1.6,0.64c-0.42,0.43,-0.63,1.11,-0.63,2.05l0,5.27l-1.53,0l0,-5.89c0,-0.69,-0.12,-1.2,-0.37,-1.55c-0.25,-0.34,-0.66,-0.52,-1.23,-0.52c-0.43,0,-0.83,0.11,-1.2,0.34c-0.37,0.23,-0.64,0.56,-0.8,1c-0.17,0.44,-0.25,1.07,-0.25,1.91l0,4.7l-1.53,0m14,0l0,-9.08l1.37,0l0,1.28c0.28,-0.45,0.66,-0.81,1.13,-1.08c0.47,-0.27,1.01,-0.41,1.62,-0.41c0.68,0,1.23,0.14,1.66,0.42c0.43,0.28,0.73,0.67,0.91,1.17c0.72,-1.06,1.65,-1.59,2.8,-1.59c0.91,0,1.6,0.25,2.09,0.75c0.48,0.5,0.73,1.27,0.73,2.3l0,6.23l-1.53,0l0,-5.72c0,-0.61,-0.05,-1.06,-0.15,-1.33c-0.1,-0.27,-0.28,-0.49,-0.55,-0.66c-0.27,-0.17,-0.57,-0.25,-0.91,-0.25c-0.65,0,-1.18,0.21,-1.6,0.64c-0.42,0.43,-0.63,1.11,-0.63,2.05l0,5.27l-1.53,0l0,-5.89c0,-0.69,-0.12,-1.2,-0.37,-1.55c-0.25,-0.34,-0.66,-0.52,-1.23,-0.52c-0.43,0,-0.83,0.11,-1.2,0.34c-0.37,0.23,-0.64,0.56,-0.8,1c-0.17,0.44,-0.25,1.07,-0.25,1.91l0,4.7l-1.53,0m20.2,-2.92l1.59,0.2c-0.25,0.93,-0.71,1.65,-1.39,2.16c-0.68,0.51,-1.54,0.77,-2.59,0.77c-1.33,0,-2.39,-0.41,-3.16,-1.23c-0.78,-0.82,-1.16,-1.96,-1.16,-3.43c0,-1.53,0.39,-2.72,1.18,-3.56c0.79,-0.84,1.8,-1.27,3.05,-1.27c1.22,0,2.21,0.41,2.98,1.24c0.77,0.83,1.15,1.99,1.15,3.49c0,0.08,0,0.22,0,0.41l-6.77,0c0.05,0.99,0.33,1.75,0.84,2.28c0.51,0.53,1.14,0.8,1.89,0.8c0.56,0,1.04,-0.15,1.45,-0.45c0.4,-0.3,0.72,-0.77,0.95,-1.41m-5.05,-2.48l5.08,0c-0.07,-0.76,-0.27,-1.33,-0.59,-1.72c-0.49,-0.59,-1.12,-0.89,-1.91,-0.89c-0.7,0,-1.29,0.24,-1.77,0.71c-0.48,0.47,-0.75,1.11,-0.8,1.9m8.83,5.41l0,-9.08l1.37,0l0,1.37c0.35,-0.65,0.68,-1.07,0.98,-1.27c0.3,-0.2,0.63,-0.3,0.98,-0.3c0.52,0,1.05,0.17,1.58,0.5l-0.53,1.42c-0.37,-0.22,-0.75,-0.33,-1.12,-0.33c-0.33,0,-0.63,0.1,-0.9,0.3c-0.27,0.2,-0.46,0.48,-0.57,0.84c-0.18,0.55,-0.27,1.15,-0.27,1.8l0,4.75l-1.53,0" fill="#000000" stroke="none" fill-opacity="1"/>
</g>
</g>
<g clip-path="url(#c1)">
<g stroke-width="0.62" fill="#aaffff">
<path d="m69.41,175.46l28.41,0l0,84.17l-28.41,0l0,-84.17"/>
<path d="m153.58,133.37l28.41,0l0,126.26l-28.41,0l0,-126.26"/>
<path d="m237.75,49.2l28.41,0l0,210.43l-28.41,0l0,-210.43"/>
</g>
<g stroke-width="2.5" fill="#aaffff">
<path d="M83.61,183.88l0,-16.83M167.78,137.58l0,-8.42M251.96,57.62l0,-21.04"/>
<path d="M76.51,183.88l14.2,0M160.68,137.58l14.2,0M244.85,57.62l14.2,0"/>
<path d="M76.51,167.04l14.2,0M160.68,129.16l14.2,0M244.85,36.57l14.2,0"/>
</g>
<g stroke-width="0.62" fill="#00aaff">
<path d="m107.28,91.29l28.41,0l0,168.35l-28.41,0l0,-168.35"/>
<path d="m191.46,154.42l28.41,0l0,105.22l-28.41,0l0,-105.22"/>
<path d="m275.63,133.37l28.41,0l0,126.26l-28.41,0l0,-126.26"/>
</g>
<g stroke-width="2.5" fill="#00aaff">
<path d="M121.49,103.91l0,-25.25M205.66,158.62l0,-8.42M289.83,141.79l0,-16.83"/>
<path d="M114.39,103.91l14.2,0M198.56,158.62l14.2,0M282.73,141.79l14.2,0"/>
<path d="M114.39,78.66l14.2,0M198.56,150.21l14.2,0M282.73,124.96l14.2,0"/>
</g>
</g>
<g clip-path="url(#c0)">
<g stroke-width="0.62" stroke-linecap="butt" fill="none">
<path d="M60.46,259.63l0,-252.52"/>
<path d="M60.46,259.63l3.75,0M60.46,238.59l3.75,0M60.46,217.55l3.75,0M60.46,196.5l3.75,0M60.46,175.46l3.75,0M60.46,154.42l3.75,0M60.46,133.37l3.75,0M60.46,112.33l3.75,0M60.46,91.29l3.75,0M60.46,70.24l3.75,0M60.46,49.2l3.75,0M60.46,28.16l3.75,0M60.46,7.11l3.75,0"/>
<path d="M60.46,259.63l7.5,0M60.46,217.55l7.5,0M60.46,175.46l7.5,0M60.46,133.37l7.5,0M60.46,91.29l7.5,0M60.46,49.2l7.5,0M60.46,7.11l7.5,0"/>
<path d="M312.98,259.63l0,-252.52"/>
<path d="M312.98,259.63l-3.75,0M312.98,238.59l-3.75,0M312.98,217.55l-3.75,0M312.98,196.5l-3.75,0M312.98,175.46l-3.75,0M312.98,154.42l-3.75,0M312.98,133.37l-3.75,0M312.98,112.33l-3.75,0M312.98,91.29l-3.75,0M312.98,70.24l-3.75,0M312.98,49.2l-3.75,0M312.98,28.16l-3.75,0M312.98,7.11l-3.75,0"/>
<path d="M312.98,259.63l-7.5,0M312.98,217.55l-7.5,0M312.98,175.46l-7.5,0M312.98,133.37l-7.5,0M312.98,91.29l-7.5,0M312.98,49.2l-7.5,0M312.98,7.11l-7.5,0"/>
</g>
<g stroke-width="1" transform="matrix(0 -1 1 0 16 218.87)" fill="none">
<path d="m1.3,0l0,-12.53l2.47,0l5.12,8.37l0,-8.37l2.34,0l0,12.53l-2.53,0l-5.05,-8.17l0,8.17l-2.36,0m18.94,0l0,-1.36c-0.33,0.49,-0.77,0.87,-1.3,1.15c-0.54,0.28,-1.11,0.41,-1.71,0.41c-0.6,0,-1.15,-0.13,-1.63,-0.4c-0.48,-0.27,-0.84,-0.64,-1.05,-1.12c-0.22,-0.48,-0.33,-1.15,-0.33,-2.01l0,-5.75l2.41,0l0,4.17c0,1.28,0.04,2.07,0.13,2.35c0.09,0.29,0.25,0.51,0.48,0.68c0.23,0.17,0.53,0.25,0.88,0.25c0.41,0,0.77,-0.11,1.1,-0.34c0.33,-0.22,0.55,-0.5,0.67,-0.84c0.12,-0.33,0.18,-1.15,0.18,-2.45l0,-3.83l2.39,0l0,9.08l-2.22,0m4.84,-9.08l2.22,0l0,1.25c0.79,-0.97,1.73,-1.45,2.83,-1.45c0.57,0,1.07,0.12,1.5,0.36c0.43,0.24,0.78,0.6,1.06,1.09c0.4,-0.49,0.83,-0.85,1.29,-1.09c0.46,-0.24,0.96,-0.36,1.48,-0.36c0.67,0,1.23,0.14,1.69,0.41c0.46,0.27,0.8,0.67,1.03,1.19c0.17,0.4,0.25,1.03,0.25,1.89l0,5.8l-2.41,0l0,-5.19c0,-0.9,-0.08,-1.48,-0.23,-1.75c-0.23,-0.33,-0.57,-0.5,-1.03,-0.5c-0.33,0,-0.65,0.1,-0.95,0.3c-0.3,0.2,-0.51,0.5,-0.64,0.9c-0.13,0.4,-0.2,1.02,-0.2,1.87l0,4.36l-2.41,0l0,-4.97c0,-0.89,-0.04,-1.46,-0.12,-1.71c-0.08,-0.26,-0.22,-0.45,-0.4,-0.57c-0.18,-0.12,-0.42,-0.19,-0.73,-0.19c-0.37,0,-0.71,0.1,-1.01,0.3c-0.3,0.2,-0.51,0.48,-0.63,0.86c-0.12,0.37,-0.19,1,-0.19,1.87l0,4.41l-2.41,0l0,-9.08m17.08,9.08l0,-12.53l2.41,0l0,4.52c0.74,-0.84,1.61,-1.27,2.62,-1.27c1.1,0,2.02,0.4,2.74,1.2c0.72,0.8,1.09,1.95,1.09,3.45c0,1.54,-0.37,2.73,-1.11,3.57c-0.74,0.84,-1.64,1.26,-2.69,1.26c-0.52,0,-1.03,-0.13,-1.53,-0.39c-0.5,-0.26,-0.93,-0.64,-1.3,-1.14l0,1.33l-2.23,0m2.37,-4.73c0,0.94,0.15,1.63,0.45,2.08c0.42,0.65,0.97,0.97,1.66,0.97c0.53,0,0.98,-0.23,1.35,-0.68c0.37,-0.45,0.55,-1.17,0.55,-2.15c0,-1.03,-0.19,-1.78,-0.56,-2.23c-0.37,-0.46,-0.85,-0.69,-1.44,-0.69c-0.57,0,-1.05,0.22,-1.44,0.67c-0.39,0.45,-0.58,1.12,-0.58,2.03m13.98,1.84l2.39,0.41c-0.31,0.87,-0.8,1.54,-1.46,2c-0.66,0.46,-1.49,0.69,-2.49,0.69c-1.57,0,-2.74,-0.52,-3.5,-1.55c-0.59,-0.82,-0.89,-1.86,-0.89,-3.12c0,-1.5,0.39,-2.68,1.17,-3.53c0.78,-0.85,1.78,-1.28,2.98,-1.28c1.34,0,2.41,0.45,3.19,1.34c0.78,0.89,1.16,2.26,1.12,4.1l-6.02,0c0.02,0.71,0.22,1.26,0.59,1.66c0.37,0.4,0.83,0.59,1.38,0.59c0.37,0,0.69,-0.1,0.95,-0.3c0.26,-0.2,0.45,-0.53,0.59,-0.99m0.12,-2.42c-0.01,-0.7,-0.19,-1.23,-0.53,-1.59c-0.34,-0.36,-0.76,-0.54,-1.25,-0.54c-0.52,0,-0.95,0.19,-1.3,0.56c-0.34,0.39,-0.51,0.91,-0.5,1.56l3.58,0m7.92,5.31l-2.41,0l0,-9.08l2.23,0l0,1.3c0.37,-0.61,0.72,-1.02,1.02,-1.21c0.31,-0.19,0.65,-0.29,1.04,-0.29c0.54,0,1.07,0.15,1.58,0.45l-0.73,2.09c-0.41,-0.26,-0.79,-0.39,-1.14,-0.39c-0.33,0,-0.62,0.09,-0.85,0.27c-0.23,0.18,-0.42,0.52,-0.55,1c-0.13,0.48,-0.2,1.5,-0.2,3.05l0,2.8m9.14,-4.67c0,-0.79,0.2,-1.56,0.59,-2.3c0.39,-0.74,0.95,-1.32,1.67,-1.71c0.72,-0.4,1.53,-0.59,2.41,-0.59c1.37,0,2.5,0.45,3.37,1.34c0.87,0.89,1.31,2.02,1.31,3.38c0,1.37,-0.44,2.51,-1.33,3.41c-0.89,0.9,-2,1.35,-3.34,1.35c-0.83,0,-1.63,-0.19,-2.38,-0.56c-0.76,-0.37,-1.33,-0.93,-1.72,-1.66c-0.39,-0.73,-0.59,-1.61,-0.59,-2.66m2.45,0.14c0,0.9,0.21,1.58,0.64,2.06c0.43,0.48,0.96,0.72,1.59,0.72c0.62,0,1.15,-0.24,1.57,-0.72c0.42,-0.48,0.63,-1.17,0.63,-2.08c0,-0.9,-0.21,-1.58,-0.63,-2.06c-0.42,-0.48,-0.95,-0.72,-1.57,-0.72c-0.64,0,-1.17,0.24,-1.59,0.72c-0.43,0.48,-0.64,1.17,-0.64,2.08m8.05,-4.55l1.33,0l0,-0.69c0,-0.76,0.08,-1.33,0.25,-1.7c0.17,-0.37,0.47,-0.68,0.9,-0.91c0.43,-0.23,0.98,-0.35,1.65,-0.35c0.69,0,1.36,0.1,2.02,0.3l-0.33,1.67c-0.39,-0.08,-0.76,-0.12,-1.11,-0.12c-0.34,0,-0.59,0.08,-0.74,0.24c-0.15,0.16,-0.23,0.47,-0.23,0.93l0,0.64l1.8,0l0,1.89l-1.8,0l0,7.19l-2.41,0l0,-7.19l-1.33,0l0,-1.89m11.95,9.08l0,-12.53l2.41,0l0,4.52c0.74,-0.84,1.61,-1.27,2.62,-1.27c1.1,0,2.02,0.4,2.74,1.2c0.72,0.8,1.09,1.95,1.09,3.45c0,1.54,-0.37,2.73,-1.11,3.57c-0.74,0.84,-1.64,1.26,-2.69,1.26c-0.52,0,-1.03,-0.13,-1.53,-0.39c-0.5,-0.26,-0.93,-0.64,-1.3,-1.14l0,1.33l-2.23,0m2.37,-4.73c0,0.94,0.15,1.63,0.45,2.08c0.42,0.65,0.97,0.97,1.66,0.97c0.53,0,0.98,-0.23,1.35,-0.68c0.37,-0.45,0.55,-1.17,0.55,-2.15c0,-1.03,-0.19,-1.78,-0.56,-2.23c-0.37,-0.46,-0.85,-0.69,-1.44,-0.69c-0.57,0,-1.05,0.22,-1.44,0.67c-0.39,0.45,-0.58,1.12,-0.58,2.03m10.52,-1.58l-2.17,-0.39c0.24,-0.87,0.66,-1.52,1.26,-1.95c0.6,-0.42,1.49,-0.63,2.66,-0.63c1.07,0,1.87,0.13,2.4,0.38c0.53,0.26,0.9,0.58,1.11,0.97c0.21,0.39,0.32,1.11,0.32,2.15l-0.03,2.8c0,0.8,0.04,1.39,0.12,1.77c0.08,0.37,0.22,0.78,0.43,1.22l-2.37,0c-0.06,-0.16,-0.14,-0.39,-0.23,-0.7c-0.03,-0.15,-0.06,-0.24,-0.08,-0.28c-0.41,0.4,-0.84,0.69,-1.31,0.89c-0.47,0.2,-0.97,0.3,-1.5,0.3c-0.94,0,-1.67,-0.25,-2.21,-0.76c-0.54,-0.51,-0.8,-1.15,-0.8,-1.93c0,-0.51,0.12,-0.97,0.37,-1.37c0.24,-0.4,0.59,-0.71,1.03,-0.92c0.44,-0.21,1.08,-0.4,1.91,-0.55c1.11,-0.21,1.89,-0.41,2.33,-0.59l0,-0.23c0,-0.47,-0.11,-0.8,-0.34,-0.99c-0.23,-0.19,-0.66,-0.29,-1.3,-0.29c-0.43,0,-0.76,0.08,-1,0.25c-0.24,0.17,-0.43,0.46,-0.58,0.87m3.22,1.95c-0.31,0.1,-0.8,0.23,-1.47,0.37c-0.67,0.14,-1.1,0.28,-1.3,0.41c-0.31,0.23,-0.47,0.52,-0.47,0.86c0,0.33,0.12,0.62,0.37,0.87c0.25,0.24,0.57,0.37,0.95,0.37c0.43,0,0.84,-0.15,1.23,-0.44c0.29,-0.21,0.48,-0.47,0.58,-0.78c0.06,-0.21,0.09,-0.6,0.09,-1.17l0,-0.48m4.98,4.36l0,-12.53l2.41,0l0,12.53l-2.41,0m5,0l0,-12.53l2.41,0l0,12.53l-2.41,0m4.45,-4.67c0,-0.79,0.2,-1.56,0.59,-2.3c0.39,-0.74,0.95,-1.32,1.67,-1.71c0.72,-0.4,1.53,-0.59,2.41,-0.59c1.37,0,2.5,0.45,3.37,1.34c0.87,0.89,1.31,2.02,1.31,3.38c0,1.37,-0.44,2.51,-1.33,3.41c-0.89,0.9,-2,1.35,-3.34,1.35c-0.83,0,-1.63,-0.19,-2.38,-0.56c-0.76,-0.37,-1.33,-0.93,-1.72,-1.66c-0.39,-0.73,-0.59,-1.61,-0.59,-2.66m2.45,0.14c0,0.9,0.21,1.58,0.64,2.06c0.43,0.48,0.96,0.72,1.59,0.72c0.62,0,1.15,-0.24,1.57,-0.72c0.42,-0.48,0.63,-1.17,0.63,-2.08c0,-0.9,-0.21,-1.58,-0.63,-2.06c-0.42,-0.48,-0.95,-0.72,-1.57,-0.72c-0.64,0,-1.17,0.24,-1.59,0.72c-0.43,0.48,-0.64,1.17,-0.64,2.08m8.55,-0.14c0,-0.79,0.2,-1.56,0.59,-2.3c0.39,-0.74,0.95,-1.32,1.67,-1.71c0.72,-0.4,1.53,-0.59,2.41,-0.59c1.37,0,2.5,0.45,3.37,1.34c0.87,0.89,1.31,2.02,1.31,3.38c0,1.37,-0.44,2.51,-1.33,3.41c-0.89,0.9,-2,1.35,-3.34,1.35c-0.83,0,-1.63,-0.19,-2.38,-0.56c-0.76,-0.37,-1.33,-0.93,-1.72,-1.66c-0.39,-0.73,-0.59,-1.61,-0.59,-2.66m2.45,0.14c0,0.9,0.21,1.58,0.64,2.06c0.43,0.48,0.96,0.72,1.59,0.72c0.62,0,1.15,-0.24,1.57,-0.72c0.42,-0.48,0.63,-1.17,0.63,-2.08c0,-0.9,-0.21,-1.58,-0.63,-2.06c-0.42,-0.48,-0.95,-0.72,-1.57,-0.72c-0.64,0,-1.17,0.24,-1.59,0.72c-0.43,0.48,-0.64,1.17,-0.64,2.08m17.36,4.53l-2.41,0l0,-4.62c0,-0.98,-0.05,-1.61,-0.16,-1.91c-0.1,-0.29,-0.27,-0.52,-0.5,-0.67c-0.23,-0.16,-0.51,-0.23,-0.83,-0.23c-0.42,0,-0.79,0.11,-1.12,0.34c-0.33,0.22,-0.56,0.53,-0.68,0.91c-0.12,0.38,-0.18,1.08,-0.18,2.09l0,4.11l-2.41,0l0,-9.08l2.23,0l0,1.34c0.79,-1.03,1.79,-1.55,2.98,-1.55c0.53,0,1.02,0.1,1.46,0.29c0.44,0.19,0.78,0.44,1,0.73c0.22,0.3,0.38,0.63,0.47,1.01c0.09,0.37,0.13,0.91,0.13,1.61l0,5.64m1.89,-2.59l2.41,-0.36c0.1,0.47,0.31,0.82,0.62,1.06c0.31,0.24,0.76,0.36,1.33,0.36c0.61,0,1.08,-0.11,1.39,-0.34c0.22,-0.16,0.33,-0.37,0.33,-0.64c0,-0.18,-0.06,-0.33,-0.17,-0.45c-0.12,-0.11,-0.4,-0.22,-0.81,-0.31c-1.94,-0.43,-3.17,-0.82,-3.69,-1.17c-0.71,-0.49,-1.06,-1.17,-1.06,-2.05c0,-0.78,0.31,-1.44,0.93,-1.98c0.62,-0.54,1.58,-0.8,2.88,-0.8c1.24,0,2.16,0.2,2.77,0.61c0.6,0.41,1.02,1.01,1.25,1.8l-2.27,0.42c-0.09,-0.35,-0.28,-0.62,-0.55,-0.81c-0.27,-0.19,-0.66,-0.28,-1.16,-0.28c-0.64,0,-1.09,0.09,-1.36,0.27c-0.19,0.12,-0.28,0.29,-0.28,0.48c0,0.17,0.08,0.31,0.25,0.44c0.21,0.16,0.95,0.38,2.23,0.67c1.28,0.29,2.18,0.65,2.69,1.06c0.5,0.43,0.75,1.02,0.75,1.78c0,0.83,-0.35,1.55,-1.05,2.15c-0.7,0.6,-1.72,0.9,-3.08,0.9c-1.24,0,-2.22,-0.25,-2.94,-0.75c-0.72,-0.5,-1.19,-1.18,-1.42,-2.05" fill="#000000" stroke="none" fill-opacity="1"/>
</g>
<g stroke-width="1" fill="none">
<path d="m48.17,259.95c0,-1.49,0.15,-2.68,0.46,-3.59c0.31,-0.9,0.76,-1.6,1.36,-2.09c0.6,-0.49,1.36,-0.73,2.27,-0.73c0.67,0,1.26,0.14,1.77,0.41c0.51,0.27,0.93,0.66,1.26,1.17c0.33,0.51,0.59,1.13,0.77,1.86c0.19,0.73,0.28,1.72,0.28,2.97c0,1.47,-0.15,2.65,-0.45,3.55c-0.3,0.9,-0.75,1.6,-1.35,2.09c-0.6,0.49,-1.36,0.74,-2.27,0.74c-1.21,0,-2.16,-0.43,-2.84,-1.3c-0.83,-1.05,-1.25,-2.75,-1.25,-5.09m1.59,0c0,2.05,0.24,3.42,0.72,4.1c0.48,0.68,1.07,1.02,1.78,1.02c0.71,0,1.3,-0.34,1.78,-1.03c0.48,-0.69,0.72,-2.05,0.72,-4.09c0,-2.06,-0.24,-3.43,-0.72,-4.12c-0.48,-0.68,-1.08,-1.02,-1.8,-1.02c-0.71,0,-1.27,0.3,-1.69,0.91c-0.53,0.76,-0.8,2.17,-0.8,4.23" fill="#000000" stroke="none" fill-opacity="1"/>
<path d="m53.97,224.03l-1.53,0l0,-9.8c-0.37,0.35,-0.86,0.71,-1.46,1.05c-0.6,0.35,-1.14,0.61,-1.62,0.79l0,-1.48c0.86,-0.41,1.62,-0.9,2.26,-1.47c0.64,-0.57,1.1,-1.13,1.37,-1.67l0.98,0l0,12.58" fill="#000000" stroke="none" fill-opacity="1"/>
<path d="m56.27,180.47l0,1.48l-8.28,0c-0.01,-0.37,0.05,-0.73,0.17,-1.06c0.22,-0.57,0.56,-1.13,1.02,-1.68c0.46,-0.55,1.13,-1.17,2.01,-1.88c1.36,-1.12,2.29,-2.01,2.77,-2.66c0.48,-0.65,0.72,-1.27,0.72,-1.85c0,-0.6,-0.22,-1.12,-0.66,-1.54c-0.44,-0.42,-1.01,-0.63,-1.7,-0.63c-0.74,0,-1.33,0.22,-1.78,0.67c-0.45,0.45,-0.67,1.06,-0.67,1.84l-1.58,-0.16c0.1,-1.18,0.51,-2.08,1.22,-2.7c0.71,-0.62,1.66,-0.93,2.84,-0.93c1.2,0,2.15,0.33,2.85,1c0.7,0.67,1.05,1.49,1.05,2.48c0,0.5,-0.1,0.99,-0.31,1.48c-0.21,0.48,-0.55,0.99,-1.02,1.52c-0.47,0.53,-1.26,1.27,-2.37,2.2c-0.93,0.78,-1.52,1.31,-1.78,1.59c-0.26,0.28,-0.47,0.55,-0.64,0.82l6.14,0" fill="#000000" stroke="none" fill-opacity="1"/>
<path d="m48.19,136.55l1.53,-0.2c0.18,0.87,0.48,1.51,0.91,1.89c0.43,0.39,0.94,0.58,1.55,0.58c0.73,0,1.34,-0.25,1.84,-0.76c0.5,-0.51,0.75,-1.13,0.75,-1.87c0,-0.7,-0.23,-1.28,-0.7,-1.73c-0.46,-0.46,-1.05,-0.69,-1.76,-0.69c-0.29,0,-0.66,0.05,-1.09,0.16l0.17,-1.34c0.1,0.01,0.19,0.02,0.25,0.02c0.66,0,1.24,-0.17,1.77,-0.51c0.52,-0.34,0.78,-0.87,0.78,-1.59c0,-0.56,-0.19,-1.03,-0.57,-1.4c-0.38,-0.37,-0.87,-0.55,-1.48,-0.55c-0.59,0,-1.09,0.19,-1.49,0.56c-0.4,0.37,-0.66,0.94,-0.77,1.69l-1.53,-0.27c0.19,-1.03,0.61,-1.83,1.28,-2.4c0.67,-0.57,1.49,-0.85,2.48,-0.85c0.69,0,1.32,0.15,1.89,0.44c0.57,0.29,1.01,0.69,1.32,1.2c0.31,0.51,0.46,1.05,0.46,1.61c0,0.54,-0.15,1.04,-0.44,1.48c-0.29,0.45,-0.72,0.8,-1.3,1.06c0.74,0.17,1.32,0.52,1.73,1.06c0.41,0.54,0.62,1.21,0.62,2.02c0,1.09,-0.4,2.02,-1.2,2.78c-0.8,0.76,-1.8,1.14,-3.02,1.14c-1.1,0,-2.02,-0.33,-2.74,-0.98c-0.72,-0.66,-1.14,-1.51,-1.24,-2.55" fill="#000000" stroke="none" fill-opacity="1"/>
<path d="m53.11,97.78l0,-3l-5.44,0l0,-1.41l5.72,-8.12l1.25,0l0,8.12l1.7,0l0,1.41l-1.7,0l0,3l-1.53,0m0,-4.41l0,-5.66l-3.92,5.66l3.92,0" fill="#000000" stroke="none" fill-opacity="1"/>
<path d="m48.17,52.41l1.62,-0.14c0.11,0.79,0.39,1.39,0.83,1.78c0.44,0.4,0.96,0.59,1.58,0.59c0.74,0,1.37,-0.28,1.88,-0.84c0.52,-0.56,0.77,-1.3,0.77,-2.23c0,-0.87,-0.25,-1.57,-0.74,-2.08c-0.49,-0.51,-1.14,-0.77,-1.95,-0.77c-0.49,0,-0.93,0.11,-1.34,0.34c-0.4,0.23,-0.72,0.52,-0.95,0.87l-1.44,-0.19l1.22,-6.44l6.22,0l0,1.47l-5,0l-0.67,3.37c0.75,-0.53,1.54,-0.8,2.37,-0.8c1.09,0,2.02,0.38,2.77,1.14c0.75,0.76,1.12,1.73,1.12,2.92c0,1.14,-0.33,2.11,-0.98,2.94c-0.8,1.02,-1.9,1.53,-3.3,1.53c-1.14,0,-2.07,-0.32,-2.79,-0.96c-0.72,-0.64,-1.14,-1.49,-1.24,-2.54" fill="#000000" stroke="none" fill-opacity="1"/>
<path d="m56.16,7.55l-1.53,0.11c-0.14,-0.6,-0.33,-1.04,-0.58,-1.31c-0.42,-0.44,-0.93,-0.66,-1.53,-0.66c-0.49,0,-0.92,0.14,-1.3,0.41c-0.48,0.35,-0.86,0.87,-1.14,1.55c-0.28,0.68,-0.43,1.65,-0.44,2.91c0.37,-0.57,0.83,-0.99,1.36,-1.27c0.53,-0.27,1.09,-0.41,1.69,-0.41c1.02,0,1.89,0.38,2.61,1.13c0.72,0.76,1.08,1.73,1.08,2.93c0,0.78,-0.17,1.51,-0.51,2.19c-0.34,0.68,-0.8,1.2,-1.39,1.55c-0.59,0.36,-1.26,0.54,-2.02,0.54c-1.28,0,-2.33,-0.47,-3.13,-1.41c-0.81,-0.94,-1.21,-2.5,-1.21,-4.66c0,-2.43,0.45,-4.19,1.34,-5.28c0.78,-0.96,1.83,-1.44,3.16,-1.44c0.98,0,1.78,0.28,2.41,0.83c0.63,0.55,1.01,1.32,1.13,2.3m-6.28,5.39c0,0.53,0.11,1.04,0.34,1.52c0.23,0.48,0.54,0.85,0.95,1.11c0.4,0.26,0.83,0.38,1.27,0.38c0.65,0,1.2,-0.26,1.67,-0.79c0.47,-0.53,0.7,-1.24,0.7,-2.13c0,-0.86,-0.23,-1.55,-0.7,-2.05c-0.46,-0.5,-1.04,-0.75,-1.74,-0.75c-0.7,0,-1.29,0.25,-1.77,0.75c-0.48,0.5,-0.73,1.15,-0.73,1.95" fill="#000000" stroke="none" fill-opacity="1"/>
</g>
<g stroke-width="0.62" stroke-linecap="butt" fill="none">
<path d="M60.46,259.63l252.52,0"/>
<path d="M60.46,259.63l0,-3.75M81.51,259.63l0,-3.75M102.55,259.63l0,-3.75M123.59,259.63l0,-3.75M144.63,259.63l0,-3.75M165.68,259.63l0,-3.75M186.72,259.63l0,-3.75M207.76,259.63l0,-3.75M228.81,259.63l0,-3.75M249.85,259.63l0,-3.75M270.89,259.63l0,-3.75M291.94,259.63l0,-3.75M312.98,259.63l0,-3.75"/>
<path d="M60.46,259.63l0,-7.5M102.55,259.63l0,-7.5M144.63,259.63l0,-7.5M186.72,259.63l0,-7.5M228.81,259.63l0,-7.5M270.89,259.63l0,-7.5M312.98,259.63l0,-7.5"/>
<path d="M60.46,7.11l252.52,0"/>
<path d="M60.46,7.11l0,3.75M81.51,7.11l0,3.75M102.55,7.11l0,3.75M123.59,7.11l0,3.75M144.63,7.11l0,3.75M165.68,7.11l0,3.75M186.72,7.11l0,3.75M207.76,7.11l0,3.75M228.81,7.11l0,3.75M249.85,7.11l0,3.75M270.89,7.11l0,3.75M291.94,7.11l0,3.75M312.98,7.11l0,3.75"/>
<path d="M60.46,7.11l0,7.5M102.55,7.11l0,7.5M144.63,7.11l0,7.5M186.72,7.11l0,7.5M228.81,7.11l0,7.5M270.89,7.11l0,7.5M312.98,7.11l0,7.5"/>
</g>
<g stroke-width="1" fill="none">
<path d="m167,296.02l2.45,0.78c-0.37,1.36,-1,2.38,-1.87,3.05c-0.87,0.67,-1.98,1,-3.33,1c-1.66,0,-3.02,-0.57,-4.09,-1.71c-1.07,-1.14,-1.61,-2.7,-1.61,-4.66c0,-2.08,0.54,-3.7,1.62,-4.85c1.08,-1.15,2.49,-1.73,4.24,-1.73c1.53,0,2.78,0.45,3.73,1.36c0.57,0.53,1,1.3,1.28,2.3l-2.5,0.59c-0.15,-0.65,-0.45,-1.16,-0.92,-1.53c-0.47,-0.37,-1.04,-0.56,-1.72,-0.56c-0.93,0,-1.68,0.33,-2.26,1c-0.58,0.67,-0.87,1.74,-0.87,3.23c0,1.58,0.28,2.71,0.85,3.38c0.57,0.67,1.31,1.01,2.23,1.01c0.67,0,1.24,-0.21,1.73,-0.64c0.48,-0.43,0.83,-1.1,1.04,-2.02m4.42,-0.06c0,-0.79,0.2,-1.56,0.59,-2.3c0.39,-0.74,0.95,-1.32,1.67,-1.71c0.72,-0.4,1.53,-0.59,2.41,-0.59c1.37,0,2.5,0.45,3.37,1.34c0.87,0.89,1.31,2.02,1.31,3.38c0,1.37,-0.44,2.51,-1.33,3.41c-0.89,0.9,-2,1.35,-3.34,1.35c-0.83,0,-1.63,-0.19,-2.38,-0.56c-0.76,-0.37,-1.33,-0.93,-1.72,-1.66c-0.39,-0.73,-0.59,-1.61,-0.59,-2.66m2.45,0.14c0,0.9,0.21,1.58,0.64,2.06c0.43,0.48,0.96,0.72,1.59,0.72c0.62,0,1.15,-0.24,1.57,-0.72c0.42,-0.48,0.63,-1.17,0.63,-2.08c0,-0.9,-0.21,-1.58,-0.63,-2.06c-0.42,-0.48,-0.95,-0.72,-1.57,-0.72c-0.64,0,-1.17,0.24,-1.59,0.72c-0.43,0.48,-0.64,1.17,-0.64,2.08m9.09,4.53l0,-12.53l2.41,0l0,12.53l-2.41,0m4.45,-4.67c0,-0.79,0.2,-1.56,0.59,-2.3c0.39,-0.74,0.95,-1.32,1.67,-1.71c0.72,-0.4,1.53,-0.59,2.41,-0.59c1.37,0,2.5,0.45,3.37,1.34c0.87,0.89,1.31,2.02,1.31,3.38c0,1.37,-0.44,2.51,-1.33,3.41c-0.89,0.9,-2,1.35,-3.34,1.35c-0.83,0,-1.63,-0.19,-2.38,-0.56c-0.76,-0.37,-1.33,-0.93,-1.72,-1.66c-0.39,-0.73,-0.59,-1.61,-0.59,-2.66m2.45,0.14c0,0.9,0.21,1.58,0.64,2.06c0.43,0.48,0.96,0.72,1.59,0.72c0.62,0,1.15,-0.24,1.57,-0.72c0.42,-0.48,0.63,-1.17,0.63,-2.08c0,-0.9,-0.21,-1.58,-0.63,-2.06c-0.42,-0.48,-0.95,-0.72,-1.57,-0.72c-0.64,0,-1.17,0.24,-1.59,0.72c-0.43,0.48,-0.64,1.17,-0.64,2.08m15.08,4.53l0,-1.36c-0.33,0.49,-0.77,0.87,-1.3,1.15c-0.54,0.28,-1.11,0.41,-1.71,0.41c-0.6,0,-1.15,-0.13,-1.63,-0.4c-0.48,-0.27,-0.84,-0.64,-1.05,-1.12c-0.22,-0.48,-0.33,-1.15,-0.33,-2.01l0,-5.75l2.41,0l0,4.17c0,1.28,0.04,2.07,0.13,2.35c0.09,0.29,0.25,0.51,0.48,0.68c0.23,0.17,0.53,0.25,0.88,0.25c0.41,0,0.77,-0.11,1.1,-0.34c0.33,-0.22,0.55,-0.5,0.67,-0.84c0.12,-0.33,0.18,-1.15,0.18,-2.45l0,-3.83l2.39,0l0,9.08l-2.22,0m7.33,0l-2.41,0l0,-9.08l2.23,0l0,1.3c0.37,-0.61,0.72,-1.02,1.02,-1.21c0.31,-0.19,0.65,-0.29,1.04,-0.29c0.54,0,1.07,0.15,1.58,0.45l-0.73,2.09c-0.41,-0.26,-0.79,-0.39,-1.14,-0.39c-0.33,0,-0.62,0.09,-0.85,0.27c-0.23,0.18,-0.42,0.52,-0.55,1c-0.13,0.48,-0.2,1.5,-0.2,3.05l0,2.8" fill="#000000" stroke="none" fill-opacity="1"/>
<path d="m87.42,278.62l0,-12.53l5.56,0c1.11,0,1.96,0.11,2.54,0.34c0.58,0.22,1.04,0.62,1.39,1.2c0.35,0.57,0.52,1.2,0.52,1.89c0,0.89,-0.29,1.63,-0.86,2.24c-0.57,0.61,-1.46,1,-2.67,1.16c0.44,0.21,0.77,0.42,1,0.62c0.49,0.45,0.95,1.01,1.37,1.67l2.19,3.41l-2.09,0l-1.66,-2.61c-0.48,-0.75,-0.88,-1.33,-1.2,-1.73c-0.32,-0.4,-0.6,-0.68,-0.84,-0.84c-0.24,-0.16,-0.5,-0.27,-0.76,-0.33c-0.19,-0.04,-0.49,-0.06,-0.92,-0.06l-1.92,0l0,5.56l-1.66,0m1.66,-7l3.56,0c0.76,0,1.35,-0.08,1.78,-0.23c0.43,-0.16,0.75,-0.41,0.98,-0.75c0.22,-0.34,0.34,-0.72,0.34,-1.12c0,-0.59,-0.22,-1.08,-0.65,-1.46c-0.43,-0.38,-1.11,-0.57,-2.04,-0.57l-3.97,0l0,4.14m17.33,4.08l1.59,0.2c-0.25,0.93,-0.71,1.65,-1.39,2.16c-0.68,0.51,-1.54,0.77,-2.59,0.77c-1.33,0,-2.39,-0.41,-3.16,-1.23c-0.78,-0.82,-1.16,-1.96,-1.16,-3.43c0,-1.53,0.39,-2.72,1.18,-3.56c0.79,-0.84,1.8,-1.27,3.05,-1.27c1.22,0,2.21,0.41,2.98,1.24c0.77,0.83,1.15,1.99,1.15,3.49c0,0.08,0,0.22,0,0.41l-6.77,0c0.05,0.99,0.33,1.75,0.84,2.28c0.51,0.53,1.14,0.8,1.89,0.8c0.56,0,1.04,-0.15,1.45,-0.45c0.4,-0.3,0.72,-0.77,0.95,-1.41m-5.05,-2.48l5.08,0c-0.07,-0.76,-0.27,-1.33,-0.59,-1.72c-0.49,-0.59,-1.12,-0.89,-1.91,-0.89c-0.7,0,-1.29,0.24,-1.77,0.71c-0.48,0.47,-0.75,1.11,-0.8,1.9m14.73,5.41l0,-1.14c-0.58,0.9,-1.43,1.34,-2.55,1.34c-0.72,0,-1.38,-0.2,-1.99,-0.59c-0.61,-0.4,-1.08,-0.95,-1.41,-1.67c-0.33,-0.72,-0.5,-1.54,-0.5,-2.47c0,-0.91,0.15,-1.73,0.45,-2.46c0.3,-0.73,0.76,-1.3,1.36,-1.7c0.6,-0.4,1.28,-0.59,2.03,-0.59c0.54,0,1.03,0.11,1.45,0.34c0.43,0.23,0.78,0.53,1.05,0.91l0,-4.5l1.53,0l0,12.53l-1.42,0m-4.87,-4.53c0,1.17,0.25,2.04,0.74,2.61c0.49,0.57,1.08,0.86,1.74,0.86c0.67,0,1.23,-0.27,1.7,-0.82c0.47,-0.55,0.7,-1.39,0.7,-2.52c0,-1.24,-0.24,-2.15,-0.72,-2.73c-0.48,-0.58,-1.07,-0.87,-1.77,-0.87c-0.68,0,-1.25,0.28,-1.71,0.84c-0.46,0.56,-0.7,1.43,-0.7,2.63" fill="#000000" stroke="none" fill-opacity="1"/>
<path d="m168.94,273.72l0,-1.48l5.3,0l0,4.64c-0.81,0.66,-1.65,1.15,-2.52,1.48c-0.86,0.33,-1.76,0.49,-2.67,0.49c-1.23,0,-2.35,-0.27,-3.35,-0.8c-1.01,-0.53,-1.76,-1.29,-2.27,-2.29c-0.51,-0.99,-0.77,-2.11,-0.77,-3.34c0,-1.22,0.26,-2.36,0.77,-3.41c0.51,-1.06,1.24,-1.84,2.2,-2.35c0.95,-0.51,2.05,-0.77,3.3,-0.77c0.91,0,1.73,0.15,2.46,0.44c0.73,0.29,1.31,0.7,1.72,1.23c0.41,0.53,0.73,1.21,0.95,2.04l-1.5,0.42c-0.19,-0.65,-0.42,-1.15,-0.7,-1.52c-0.28,-0.36,-0.67,-0.66,-1.2,-0.87c-0.52,-0.22,-1.09,-0.33,-1.72,-0.33c-0.76,0,-1.42,0.12,-1.97,0.35c-0.55,0.23,-1,0.54,-1.34,0.91c-0.34,0.37,-0.6,0.79,-0.79,1.23c-0.32,0.77,-0.48,1.61,-0.48,2.52c0,1.12,0.19,2.06,0.58,2.81c0.39,0.75,0.95,1.31,1.68,1.67c0.73,0.36,1.51,0.55,2.34,0.55c0.72,0,1.42,-0.14,2.1,-0.41c0.68,-0.28,1.2,-0.57,1.55,-0.88l0,-2.33l-3.67,0m7.92,4.91l0,-9.08l1.37,0l0,1.37c0.35,-0.65,0.68,-1.07,0.98,-1.27c0.3,-0.2,0.63,-0.3,0.98,-0.3c0.52,0,1.05,0.17,1.58,0.5l-0.53,1.42c-0.37,-0.22,-0.75,-0.33,-1.12,-0.33c-0.33,0,-0.63,0.1,-0.9,0.3c-0.27,0.2,-0.46,0.48,-0.57,0.84c-0.18,0.55,-0.27,1.15,-0.27,1.8l0,4.75l-1.53,0m12.22,-2.92l1.59,0.2c-0.25,0.93,-0.71,1.65,-1.39,2.16c-0.68,0.51,-1.54,0.77,-2.59,0.77c-1.33,0,-2.39,-0.41,-3.16,-1.23c-0.78,-0.82,-1.16,-1.96,-1.16,-3.43c0,-1.53,0.39,-2.72,1.18,-3.56c0.79,-0.84,1.8,-1.27,3.05,-1.27c1.22,0,2.21,0.41,2.98,1.24c0.77,0.83,1.15,1.99,1.15,3.49c0,0.08,0,0.22,0,0.41l-6.77,0c0.05,0.99,0.33,1.75,0.84,2.28c0.51,0.53,1.14,0.8,1.89,0.8c0.56,0,1.04,-0.15,1.45,-0.45c0.4,-0.3,0.72,-0.77,0.95,-1.41m-5.05,-2.48l5.08,0c-0.07,-0.76,-0.27,-1.33,-0.59,-1.72c-0.49,-0.59,-1.12,-0.89,-1.91,-0.89c-0.7,0,-1.29,0.24,-1.77,0.71c-0.48,0.47,-0.75,1.11,-0.8,1.9m15.05,2.48l1.59,0.2c-0.25,0.93,-0.71,1.65,-1.39,2.16c-0.68,0.51,-1.54,0.77,-2.59,0.77c-1.33,0,-2.39,-0.41,-3.16,-1.23c-0.78,-0.82,-1.16,-1.96,-1.16,-3.43c0,-1.53,0.39,-2.72,1.18,-3.56c0.79,-0.84,1.8,-1.27,3.05,-1.27c1.22,0,2.21,0.41,2.98,1.24c0.77,0.83,1.15,1.99,1.15,3.49c0,0.08,0,0.22,0,0.41l-6.77,0c0.05,0.99,0.33,1.75,0.84,2.28c0.51,0.53,1.14,0.8,1.89,0.8c0.56,0,1.04,-0.15,1.45,-0.45c0.4,-0.3,0.72,-0.77,0.95,-1.41m-5.05,-2.48l5.08,0c-0.07,-0.76,-0.27,-1.33,-0.59,-1.72c-0.49,-0.59,-1.12,-0.89,-1.91,-0.89c-0.7,0,-1.29,0.24,-1.77,0.71c-0.48,0.47,-0.75,1.11,-0.8,1.9m8.84,5.41l0,-9.08l1.37,0l0,1.3c0.67,-1,1.63,-1.5,2.89,-1.5c0.55,0,1.06,0.1,1.52,0.3c0.46,0.2,0.8,0.46,1.03,0.77c0.23,0.32,0.39,0.7,0.47,1.13c0.06,0.29,0.09,0.79,0.09,1.5l0,5.58l-1.55,0l0,-5.52c0,-0.62,-0.06,-1.09,-0.18,-1.41c-0.12,-0.31,-0.33,-0.56,-0.63,-0.75c-0.3,-0.19,-0.66,-0.28,-1.08,-0.28c-0.65,0,-1.21,0.21,-1.69,0.62c-0.48,0.42,-0.72,1.21,-0.72,2.37l0,4.95l-1.53,0" fill="#000000" stroke="none" fill-opacity="1"/>
<path d="m254.17,278.62l0,-12.53l4.7,0c0.96,0,1.73,0.13,2.3,0.38c0.58,0.26,1.03,0.65,1.36,1.17c0.33,0.53,0.49,1.08,0.49,1.65c0,0.54,-0.15,1.05,-0.44,1.52c-0.29,0.47,-0.73,0.85,-1.33,1.13c0.76,0.23,1.34,0.61,1.75,1.15c0.41,0.54,0.61,1.17,0.61,1.9c0,0.58,-0.12,1.13,-0.37,1.63c-0.24,0.51,-0.55,0.89,-0.91,1.16c-0.36,0.27,-0.82,0.48,-1.37,0.62c-0.55,0.14,-1.22,0.21,-2.02,0.21l-4.78,0m1.66,-7.27l2.7,0c0.74,0,1.27,-0.05,1.59,-0.14c0.42,-0.12,0.73,-0.33,0.95,-0.62c0.21,-0.29,0.32,-0.66,0.32,-1.09c0,-0.42,-0.1,-0.78,-0.3,-1.1c-0.2,-0.32,-0.48,-0.53,-0.85,-0.65c-0.37,-0.11,-1.01,-0.17,-1.91,-0.17l-2.5,0l0,3.78m0,5.78l3.12,0c0.53,0,0.91,-0.02,1.12,-0.05c0.39,-0.07,0.71,-0.19,0.96,-0.35c0.26,-0.16,0.47,-0.39,0.63,-0.7c0.17,-0.3,0.25,-0.65,0.25,-1.05c0,-0.47,-0.12,-0.87,-0.36,-1.22c-0.24,-0.34,-0.57,-0.59,-1,-0.73c-0.43,-0.14,-1.04,-0.21,-1.83,-0.21l-2.91,0l0,4.3m10.19,1.48l0,-12.53l1.53,0l0,12.53l-1.53,0m9.97,0l0,-1.33c-0.7,1.02,-1.66,1.53,-2.87,1.53c-0.53,0,-1.03,-0.1,-1.49,-0.3c-0.46,-0.2,-0.81,-0.46,-1.04,-0.77c-0.23,-0.31,-0.39,-0.69,-0.47,-1.14c-0.06,-0.3,-0.09,-0.78,-0.09,-1.44l0,-5.62l1.53,0l0,5.03c0,0.8,0.03,1.34,0.09,1.62c0.09,0.41,0.3,0.72,0.62,0.95c0.32,0.23,0.71,0.34,1.16,0.34c0.46,0,0.89,-0.12,1.3,-0.35c0.41,-0.23,0.69,-0.55,0.86,-0.96c0.17,-0.41,0.25,-1,0.25,-1.78l0,-4.86l1.55,0l0,9.08l-1.39,0m10.27,-2.92l1.59,0.2c-0.25,0.93,-0.71,1.65,-1.39,2.16c-0.68,0.51,-1.54,0.77,-2.59,0.77c-1.33,0,-2.39,-0.41,-3.16,-1.23c-0.78,-0.82,-1.16,-1.96,-1.16,-3.43c0,-1.53,0.39,-2.72,1.18,-3.56c0.79,-0.84,1.8,-1.27,3.05,-1.27c1.22,0,2.21,0.41,2.98,1.24c0.77,0.83,1.15,1.99,1.15,3.49c0,0.08,0,0.22,0,0.41l-6.77,0c0.05,0.99,0.33,1.75,0.84,2.28c0.51,0.53,1.14,0.8,1.89,0.8c0.56,0,1.04,-0.15,1.45,-0.45c0.4,-0.3,0.72,-0.77,0.95,-1.41m-5.05,-2.48l5.08,0c-0.07,-0.76,-0.27,-1.33,-0.59,-1.72c-0.49,-0.59,-1.12,-0.89,-1.91,-0.89c-0.7,0,-1.29,0.24,-1.77,0.71c-0.48,0.47,-0.75,1.11,-0.8,1.9" fill="#000000" stroke="none" fill-opacity="1"/>
</g>
<g stroke-width="0.62" fill="#ffffff">
<path d="m60.46,334.32l252.52,0l0,181.39l-252.52,0l0,-181.39"/>
</g>
<g stroke-width="0.62" stroke-linecap="butt" fill="none">
<path d="M312.98,515.71l0,-181.39"/>
<path d="M312.98,515.71l-3.75,0M312.98,507.07l-3.75,0M312.98,498.43l-3.75,0M312.98,489.79l-3.75,0M312.98,481.16l-3.75,0M312.98,472.52l-3.75,0M312.98,463.88l-3.75,0M312.98,455.24l-3.75,0M312.98,446.61l-3.75,0M312.98,437.97l-3.75,0M312.98,429.33l-3.75,0M312.98,420.69l-3.75,0M312.98,412.06l-3.75,0M312.98,403.42l-3.75,0M312.98,394.78l-3.75,0M312.98,386.14l-3.75,0M312.98,377.51l-3.75,0M312.98,368.87l-3.75,0M312.98,360.23l-3.75,0M312.98,351.59l-3.75,0M312.98,342.96l-3.75,0M312.98,334.32l-3.75,0"/>
<path d="M312.98,507.07l-7.5,0M312.98,463.88l-7.5,0M312.98,420.69l-7.5,0M312.98,377.51l-7.5,0M312.98,334.32l-7.5,0"/>
</g>
<g stroke-width="1" fill="none">
<path d="m317.34,384l0,-12.53l5.56,0c1.11,0,1.96,0.11,2.54,0.34c0.58,0.22,1.04,0.62,1.39,1.2c0.35,0.57,0.52,1.2,0.52,1.89c0,0.89,-0.29,1.63,-0.86,2.24c-0.57,0.61,-1.46,1,-2.67,1.16c0.44,0.21,0.77,0.42,1,0.62c0.49,0.45,0.95,1.01,1.37,1.67l2.19,3.41l-2.09,0l-1.66,-2.61c-0.48,-0.75,-0.88,-1.33,-1.2,-1.73c-0.32,-0.4,-0.6,-0.68,-0.84,-0.84c-0.24,-0.16,-0.5,-0.27,-0.76,-0.33c-0.19,-0.04,-0.49,-0.06,-0.92,-0.06l-1.92,0l0,5.56l-1.66,0m1.66,-7l3.56,0c0.76,0,1.35,-0.08,1.78,-0.23c0.43,-0.16,0.75,-0.41,0.98,-0.75c0.22,-0.34,0.34,-0.72,0.34,-1.12c0,-0.59,-0.22,-1.08,-0.65,-1.46c-0.43,-0.38,-1.11,-0.57,-2.04,-0.57l-3.97,0l0,4.14m17.33,4.08l1.59,0.2c-0.25,0.93,-0.71,1.65,-1.39,2.16c-0.68,0.51,-1.54,0.77,-2.59,0.77c-1.33,0,-2.39,-0.41,-3.16,-1.23c-0.78,-0.82,-1.16,-1.96,-1.16,-3.43c0,-1.53,0.39,-2.72,1.18,-3.56c0.79,-0.84,1.8,-1.27,3.05,-1.27c1.22,0,2.21,0.41,2.98,1.24c0.77,0.83,1.15,1.99,1.15,3.49c0,0.08,0,0.22,0,0.41l-6.77,0c0.05,0.99,0.33,1.75,0.84,2.28c0.51,0.53,1.14,0.8,1.89,0.8c0.56,0,1.04,-0.15,1.45,-0.45c0.4,-0.3,0.72,-0.77,0.95,-1.41m-5.05,-2.48l5.08,0c-0.07,-0.76,-0.27,-1.33,-0.59,-1.72c-0.49,-0.59,-1.12,-0.89,-1.91,-0.89c-0.7,0,-1.29,0.24,-1.77,0.71c-0.48,0.47,-0.75,1.11,-0.8,1.9m14.73,5.41l0,-1.14c-0.58,0.9,-1.43,1.34,-2.55,1.34c-0.72,0,-1.38,-0.2,-1.99,-0.59c-0.61,-0.4,-1.08,-0.95,-1.41,-1.67c-0.33,-0.72,-0.5,-1.54,-0.5,-2.47c0,-0.91,0.15,-1.73,0.45,-2.46c0.3,-0.73,0.76,-1.3,1.36,-1.7c0.6,-0.4,1.28,-0.59,2.03,-0.59c0.54,0,1.03,0.11,1.45,0.34c0.43,0.23,0.78,0.53,1.05,0.91l0,-4.5l1.53,0l0,12.53l-1.42,0m-4.87,-4.53c0,1.17,0.25,2.04,0.74,2.61c0.49,0.57,1.08,0.86,1.74,0.86c0.67,0,1.23,-0.27,1.7,-0.82c0.47,-0.55,0.7,-1.39,0.7,-2.52c0,-1.24,-0.24,-2.15,-0.72,-2.73c-0.48,-0.58,-1.07,-0.87,-1.77,-0.87c-0.68,0,-1.25,0.28,-1.71,0.84c-0.46,0.56,-0.7,1.43,-0.7,2.63" fill="#000000" stroke="none" fill-opacity="1"/>
<path d="m323.19,508.66l0,-1.48l5.3,0l0,4.64c-0.81,0.66,-1.65,1.15,-2.52,1.48c-0.86,0.33,-1.76,0.49,-2.67,0.49c-1.23,0,-2.35,-0.27,-3.35,-0.8c-1.01,-0.53,-1.76,-1.29,-2.27,-2.29c-0.51,-0.99,-0.77,-2.11,-0.77,-3.34c0,-1.22,0.26,-2.36,0.77,-3.41c0.51,-1.06,1.24,-1.84,2.2,-2.35c0.95,-0.51,2.05,-0.77,3.3,-0.77c0.91,0,1.73,0.15,2.46,0.44c0.73,0.29,1.31,0.7,1.72,1.23c0.41,0.53,0.73,1.21,0.95,2.04l-1.5,0.42c-0.19,-0.65,-0.42,-1.15,-0.7,-1.52c-0.28,-0.36,-0.67,-0.66,-1.2,-0.87c-0.52,-0.22,-1.09,-0.33,-1.72,-0.33c-0.76,0,-1.42,0.12,-1.97,0.35c-0.55,0.23,-1,0.54,-1.34,0.91c-0.34,0.37,-0.6,0.79,-0.79,1.23c-0.32,0.77,-0.48,1.61,-0.48,2.52c0,1.12,0.19,2.06,0.58,2.81c0.39,0.75,0.95,1.31,1.68,1.67c0.73,0.36,1.51,0.55,2.34,0.55c0.72,0,1.42,-0.14,2.1,-0.41c0.68,-0.28,1.2,-0.57,1.55,-0.88l0,-2.33l-3.67,0m7.92,4.91l0,-9.08l1.37,0l0,1.37c0.35,-0.65,0.68,-1.07,0.98,-1.27c0.3,-0.2,0.63,-0.3,0.98,-0.3c0.52,0,1.05,0.17,1.58,0.5l-0.53,1.42c-0.37,-0.22,-0.75,-0.33,-1.12,-0.33c-0.33,0,-0.63,0.1,-0.9,0.3c-0.27,0.2,-0.46,0.48,-0.57,0.84c-0.18,0.55,-0.27,1.15,-0.27,1.8l0,4.75l-1.53,0m12.22,-2.92l1.59,0.2c-0.25,0.93,-0.71,1.65,-1.39,2.16c-0.68,0.51,-1.54,0.77,-2.59,0.77c-1.33,0,-2.39,-0.41,-3.16,-1.23c-0.78,-0.82,-1.16,-1.96,-1.16,-3.43c0,-1.53,0.39,-2.72,1.18,-3.56c0.79,-0.84,1.8,-1.27,3.05,-1.27c1.22,0,2.21,0.41,2.98,1.24c0.77,0.83,1.15,1.99,1.15,3.49c0,0.08,0,0.22,0,0.41l-6.77,0c0.05,0.99,0.33,1.75,0.84,2.28c0.51,0.53,1.14,0.8,1.89,0.8c0.56,0,1.04,-0.15,1.45,-0.45c0.4,-0.3,0.72,-0.77,0.95,-1.41m-5.05,-2.48l5.08,0c-0.07,-0.76,-0.27,-1.33,-0.59,-1.72c-0.49,-0.59,-1.12,-0.89,-1.91,-0.89c-0.7,0,-1.29,0.24,-1.77,0.71c-0.48,0.47,-0.75,1.11,-0.8,1.9m15.05,2.48l1.59,0.2c-0.25,0.93,-0.71,1.65,-1.39,2.16c-0.68,0.51,-1.54,0.77,-2.59,0.77c-1.33,0,-2.39,-0.41,-3.16,-1.23c-0.78,-0.82,-1.16,-1.96,-1.16,-3.43c0,-1.53,0.39,-2.72,1.18,-3.56c0.79,-0.84,1.8,-1.27,3.05,-1.27c1.22,0,2.21,0.41,2.98,1.24c0.77,0.83,1.15,1.99,1.15,3.49c0,0.08,0,0.22,0,0.41l-6.77,0c0.05,0.99,0.33,1.75,0.84,2.28c0.51,0.53,1.14,0.8,1.89,0.8c0.56,0,1.04,-0.15,1.45,-0.45c0.4,-0.3,0.72,-0.77,0.95,-1.41m-5.05,-2.48l5.08,0c-0.07,-0.76,-0.27,-1.33,-0.59,-1.72c-0.49,-0.59,-1.12,-0.89,-1.91,-0.89c-0.7,0,-1.29,0.24,-1.77,0.71c-0.48,0.47,-0.75,1.11,-0.8,1.9m8.84,5.41l0,-9.08l1.37,0l0,1.3c0.67,-1,1.63,-1.5,2.89,-1.5c0.55,0,1.06,0.1,1.52,0.3c0.46,0.2,0.8,0.46,1.03,0.77c0.23,0.32,0.39,0.7,0.47,1.13c0.06,0.29,0.09,0.79,0.09,1.5l0,5.58l-1.55,0l0,-5.52c0,-0.62,-0.06,-1.09,-0.18,-1.41c-0.12,-0.31,-0.33,-0.56,-0.63,-0.75c-0.3,-0.19,-0.66,-0.28,-1.08,-0.28c-0.65,0,-1.21,0.21,-1.69,0.62c-0.48,0.42,-0.72,1.21,-0.72,2.37l0,4.95l-1.53,0" fill="#000000" stroke="none" fill-opacity="1"/>
<path d="m317.25,470.37l0,-12.53l4.7,0c0.96,0,1.73,0.13,2.3,0.38c0.58,0.26,1.03,0.65,1.36,1.17c0.33,0.53,0.49,1.08,0.49,1.65c0,0.54,-0.15,1.05,-0.44,1.52c-0.29,0.47,-0.73,0.85,-1.33,1.13c0.76,0.23,1.34,0.61,1.75,1.15c0.41,0.54,0.61,1.17,0.61,1.9c0,0.58,-0.12,1.13,-0.37,1.63c-0.24,0.51,-0.55,0.89,-0.91,1.16c-0.36,0.27,-0.82,0.48,-1.37,0.62c-0.55,0.14,-1.22,0.21,-2.02,0.21l-4.78,0m1.66,-7.27l2.7,0c0.74,0,1.27,-0.05,1.59,-0.14c0.42,-0.12,0.73,-0.33,0.95,-0.62c0.21,-0.29,0.32,-0.66,0.32,-1.09c0,-0.42,-0.1,-0.78,-0.3,-1.1c-0.2,-0.32,-0.48,-0.53,-0.85,-0.65c-0.37,-0.11,-1.01,-0.17,-1.91,-0.17l-2.5,0l0,3.78m0,5.78l3.12,0c0.53,0,0.91,-0.02,1.12,-0.05c0.39,-0.07,0.71,-0.19,0.96,-0.35c0.26,-0.16,0.47,-0.39,0.63,-0.7c0.17,-0.3,0.25,-0.65,0.25,-1.05c0,-0.47,-0.12,-0.87,-0.36,-1.22c-0.24,-0.34,-0.57,-0.59,-1,-0.73c-0.43,-0.14,-1.04,-0.21,-1.83,-0.21l-2.91,0l0,4.3m10.19,1.48l0,-12.53l1.53,0l0,12.53l-1.53,0m9.97,0l0,-1.33c-0.7,1.02,-1.66,1.53,-2.87,1.53c-0.53,0,-1.03,-0.1,-1.49,-0.3c-0.46,-0.2,-0.81,-0.46,-1.04,-0.77c-0.23,-0.31,-0.39,-0.69,-0.47,-1.14c-0.06,-0.3,-0.09,-0.78,-0.09,-1.44l0,-5.62l1.53,0l0,5.03c0,0.8,0.03,1.34,0.09,1.62c0.09,0.41,0.3,0.72,0.62,0.95c0.32,0.23,0.71,0.34,1.16,0.34c0.46,0,0.89,-0.12,1.3,-0.35c0.41,-0.23,0.69,-0.55,0.86,-0.96c0.17,-0.41,0.25,-1,0.25,-1.78l0,-4.86l1.55,0l0,9.08l-1.39,0m10.27,-2.92l1.59,0.2c-0.25,0.93,-0.71,1.65,-1.39,2.16c-0.68,0.51,-1.54,0.77,-2.59,0.77c-1.33,0,-2.39,-0.41,-3.16,-1.23c-0.78,-0.82,-1.16,-1.96,-1.16,-3.43c0,-1.53,0.39,-2.72,1.18,-3.56c0.79,-0.84,1.8,-1.27,3.05,-1.27c1.22,0,2.21,0.41,2.98,1.24c0.77,0.83,1.15,1.99,1.15,3.49c0,0.08,0,0.22,0,0.41l-6.77,0c0.05,0.99,0.33,1.75,0.84,2.28c0.51,0.53,1.14,0.8,1.89,0.8c0.56,0,1.04,-0.15,1.45,-0.45c0.4,-0.3,0.72,-0.77,0.95,-1.41m-5.05,-2.48l5.08,0c-0.07,-0.76,-0.27,-1.33,-0.59,-1.72c-0.49,-0.59,-1.12,-0.89,-1.91,-0.89c-0.7,0,-1.29,0.24,-1.77,0.71c-0.48,0.47,-0.75,1.11,-0.8,1.9" fill="#000000" stroke="none" fill-opacity="1"/>
</g>
<g stroke-width="0.62" stroke-linecap="butt" fill="none">
<path d="M60.46,334.32l252.52,0"/>
<path d="M60.46,334.32l0,3.75M74.89,334.32l0,3.75M89.32,334.32l0,3.75M103.75,334.32l0,3.75M118.18,334.32l0,3.75M132.61,334.32l0,3.75M147.04,334.32l0,3.75M161.47,334.32l0,3.75M175.9,334.32l0,3.75M190.33,334.32l0,3.75M204.76,334.32l0,3.75M219.19,334.32l0,3.75M233.62,334.32l0,3.75M248.05,334.32l0,3.75M262.48,334.32l0,3.75M276.91,334.32l0,3.75M291.34,334.32l0,3.75M305.77,334.32l0,3.75"/>
<path d="M74.89,334.32l0,7.5M147.04,334.32l0,7.5M219.19,334.32l0,7.5M291.34,334.32l0,7.5"/>
</g>
</g>
<g clip-path="url(#c2)">
<g stroke-width="0.62" stroke-linecap="butt" fill="none">
<path d="M74.89,403.42l0,-51.82M147.04,515.71l0,-17.27M291.34,481.16l0,-34.55"/>
<path d="M60.46,377.51l28.86,0M139.82,507.07l14.43,0M276.91,463.88l36.07,0"/>
</g>
<g stroke-linejoin="miter" stroke-width="0.62" transform="translate(74.89, 377.51)" fill="#55aaff">
<path d="m6.25,0c0,3.45,-2.8,6.25,-6.25,6.25c-3.45,0,-6.25,-2.8,-6.25,-6.25c0,-3.45,2.8,-6.25,6.25,-6.25c3.45,0,6.25,2.8,6.25,6.25"/>
</g>
<g stroke-linejoin="miter" stroke-width="0.62" transform="translate(147.04, 507.07)" fill="#55aaff">
<path d="m6.25,0c0,3.45,-2.8,6.25,-6.25,6.25c-3.45,0,-6.25,-2.8,-6.25,-6.25c0,-3.45,2.8,-6.25,6.25,-6.25c3.45,0,6.25,2.8,6.25,6.25"/>
</g>
<g stroke-linejoin="miter" stroke-width="0.62" transform="translate(291.34, 463.88)" fill="#55aaff">
<path d="m6.25,0c0,3.45,-2.8,6.25,-6.25,6.25c-3.45,0,-6.25,-2.8,-6.25,-6.25c0,-3.45,2.8,-6.25,6.25,-6.25c3.45,0,6.25,2.8,6.25,6.25"/>
</g>
<g stroke-width="1" stroke="none" stroke-linecap="butt" fill="none">
<path d="M74.89,403.42l0,-51.82M147.04,515.71l0,-17.27M291.34,481.16l0,-34.55"/>
<path d="M60.46,377.51l28.86,0M139.82,507.07l14.43,0M276.91,463.88l36.07,0"/>
</g>
</g>
<g clip-path="url(#c0)">
<g stroke-width="0.62" stroke-linecap="butt" fill="none">
<path d="M60.46,515.71l0,-181.39"/>
<path d="M60.46,515.71l3.75,0M60.46,507.07l3.75,0M60.46,498.43l3.75,0M60.46,489.79l3.75,0M60.46,481.16l3.75,0M60.46,472.52l3.75,0M60.46,463.88l3.75,0M60.46,455.24l3.75,0M60.46,446.61l3.75,0M60.46,437.97l3.75,0M60.46,429.33l3.75,0M60.46,420.69l3.75,0M60.46,412.06l3.75,0M60.46,403.42l3.75,0M60.46,394.78l3.75,0M60.46,386.14l3.75,0M60.46,377.51l3.75,0M60.46,368.87l3.75,0M60.46,360.23l3.75,0M60.46,351.59l3.75,0M60.46,342.96l3.75,0M60.46,334.32l3.75,0"/>
<path d="M60.46,507.07l7.5,0M60.46,463.88l7.5,0M60.46,420.69l7.5,0M60.46,377.51l7.5,0M60.46,334.32l7.5,0"/>
</g>
<g stroke-width="1" transform="matrix(0 -1 1 0 16 462.51)" fill="none">
<path d="m0.62,-4.08l2.47,-0.23c0.15,0.82,0.45,1.43,0.9,1.81c0.45,0.39,1.07,0.58,1.84,0.58c0.81,0,1.42,-0.17,1.84,-0.52c0.41,-0.34,0.62,-0.74,0.62,-1.2c0,-0.29,-0.09,-0.54,-0.26,-0.75c-0.17,-0.21,-0.47,-0.39,-0.9,-0.55c-0.3,-0.1,-0.98,-0.29,-2.03,-0.55c-1.35,-0.33,-2.31,-0.74,-2.86,-1.23c-0.77,-0.7,-1.16,-1.54,-1.16,-2.53c0,-0.64,0.18,-1.23,0.55,-1.79c0.36,-0.56,0.89,-0.98,1.57,-1.27c0.68,-0.29,1.5,-0.43,2.46,-0.43c1.57,0,2.76,0.34,3.55,1.03c0.8,0.69,1.21,1.6,1.24,2.75l-2.52,0.12c-0.11,-0.65,-0.35,-1.11,-0.7,-1.39c-0.35,-0.28,-0.89,-0.42,-1.61,-0.42c-0.73,0,-1.3,0.15,-1.72,0.45c-0.27,0.19,-0.41,0.44,-0.41,0.77c0,0.3,0.12,0.56,0.37,0.77c0.32,0.27,1.1,0.55,2.33,0.84c1.23,0.29,2.14,0.59,2.73,0.9c0.59,0.31,1.05,0.74,1.38,1.27c0.33,0.54,0.5,1.2,0.5,1.99c0,0.72,-0.2,1.39,-0.59,2.02c-0.4,0.63,-0.96,1.1,-1.69,1.4c-0.73,0.3,-1.64,0.45,-2.73,0.45c-1.58,0,-2.8,-0.36,-3.65,-1.09c-0.85,-0.73,-1.36,-1.8,-1.52,-3.2m18.61,4.08l0,-1.36c-0.33,0.49,-0.77,0.87,-1.3,1.15c-0.54,0.28,-1.11,0.41,-1.71,0.41c-0.6,0,-1.15,-0.13,-1.63,-0.4c-0.48,-0.27,-0.84,-0.64,-1.05,-1.12c-0.22,-0.48,-0.33,-1.15,-0.33,-2.01l0,-5.75l2.41,0l0,4.17c0,1.28,0.04,2.07,0.13,2.35c0.09,0.29,0.25,0.51,0.48,0.68c0.23,0.17,0.53,0.25,0.88,0.25c0.41,0,0.77,-0.11,1.1,-0.34c0.33,-0.22,0.55,-0.5,0.67,-0.84c0.12,-0.33,0.18,-1.15,0.18,-2.45l0,-3.83l2.39,0l0,9.08l-2.22,0m4.84,-9.08l2.22,0l0,1.25c0.79,-0.97,1.73,-1.45,2.83,-1.45c0.57,0,1.07,0.12,1.5,0.36c0.43,0.24,0.78,0.6,1.06,1.09c0.4,-0.49,0.83,-0.85,1.29,-1.09c0.46,-0.24,0.96,-0.36,1.48,-0.36c0.67,0,1.23,0.14,1.69,0.41c0.46,0.27,0.8,0.67,1.03,1.19c0.17,0.4,0.25,1.03,0.25,1.89l0,5.8l-2.41,0l0,-5.19c0,-0.9,-0.08,-1.48,-0.23,-1.75c-0.23,-0.33,-0.57,-0.5,-1.03,-0.5c-0.33,0,-0.65,0.1,-0.95,0.3c-0.3,0.2,-0.51,0.5,-0.64,0.9c-0.13,0.4,-0.2,1.02,-0.2,1.87l0,4.36l-2.41,0l0,-4.97c0,-0.89,-0.04,-1.46,-0.12,-1.71c-0.08,-0.26,-0.22,-0.45,-0.4,-0.57c-0.18,-0.12,-0.42,-0.19,-0.73,-0.19c-0.37,0,-0.71,0.1,-1.01,0.3c-0.3,0.2,-0.51,0.48,-0.63,0.86c-0.12,0.37,-0.19,1,-0.19,1.87l0,4.41l-2.41,0l0,-9.08m17,0l2.22,0l0,1.25c0.79,-0.97,1.73,-1.45,2.83,-1.45c0.57,0,1.07,0.12,1.5,0.36c0.43,0.24,0.78,0.6,1.06,1.09c0.4,-0.49,0.83,-0.85,1.29,-1.09c0.46,-0.24,0.96,-0.36,1.48,-0.36c0.67,0,1.23,0.14,1.69,0.41c0.46,0.27,0.8,0.67,1.03,1.19c0.17,0.4,0.25,1.03,0.25,1.89l0,5.8l-2.41,0l0,-5.19c0,-0.9,-0.08,-1.48,-0.23,-1.75c-0.23,-0.33,-0.57,-0.5,-1.03,-0.5c-0.33,0,-0.65,0.1,-0.95,0.3c-0.3,0.2,-0.51,0.5,-0.64,0.9c-0.13,0.4,-0.2,1.02,-0.2,1.87l0,4.36l-2.41,0l0,-4.97c0,-0.89,-0.04,-1.46,-0.12,-1.71c-0.08,-0.26,-0.22,-0.45,-0.4,-0.57c-0.18,-0.12,-0.42,-0.19,-0.73,-0.19c-0.37,0,-0.71,0.1,-1.01,0.3c-0.3,0.2,-0.51,0.48,-0.63,0.86c-0.12,0.37,-0.19,1,-0.19,1.87l0,4.41l-2.41,0l0,-9.08m22.44,6.19l2.39,0.41c-0.31,0.87,-0.8,1.54,-1.46,2c-0.66,0.46,-1.49,0.69,-2.49,0.69c-1.57,0,-2.74,-0.52,-3.5,-1.55c-0.59,-0.82,-0.89,-1.86,-0.89,-3.12c0,-1.5,0.39,-2.68,1.17,-3.53c0.78,-0.85,1.78,-1.28,2.98,-1.28c1.34,0,2.41,0.45,3.19,1.34c0.78,0.89,1.16,2.26,1.12,4.1l-6.02,0c0.02,0.71,0.22,1.26,0.59,1.66c0.37,0.4,0.83,0.59,1.38,0.59c0.37,0,0.69,-0.1,0.95,-0.3c0.26,-0.2,0.45,-0.53,0.59,-0.99m0.12,-2.42c-0.01,-0.7,-0.19,-1.23,-0.53,-1.59c-0.34,-0.36,-0.76,-0.54,-1.25,-0.54c-0.52,0,-0.95,0.19,-1.3,0.56c-0.34,0.39,-0.51,0.91,-0.5,1.56l3.58,0m7.92,5.31l-2.41,0l0,-9.08l2.23,0l0,1.3c0.37,-0.61,0.72,-1.02,1.02,-1.21c0.31,-0.19,0.65,-0.29,1.04,-0.29c0.54,0,1.07,0.15,1.58,0.45l-0.73,2.09c-0.41,-0.26,-0.79,-0.39,-1.14,-0.39c-0.33,0,-0.62,0.09,-0.85,0.27c-0.23,0.18,-0.42,0.52,-0.55,1c-0.13,0.48,-0.2,1.5,-0.2,3.05l0,2.8" fill="#000000" stroke="none" fill-opacity="1"/>
</g>
<g stroke-width="1" fill="none">
<path d="m41.27,512.08l0,1.48l-8.28,0c-0.01,-0.37,0.05,-0.73,0.17,-1.06c0.22,-0.57,0.56,-1.13,1.02,-1.68c0.46,-0.55,1.13,-1.17,2.01,-1.88c1.36,-1.12,2.29,-2.01,2.77,-2.66c0.48,-0.65,0.72,-1.27,0.72,-1.85c0,-0.6,-0.22,-1.12,-0.66,-1.54c-0.44,-0.42,-1.01,-0.63,-1.7,-0.63c-0.74,0,-1.33,0.22,-1.78,0.67c-0.45,0.45,-0.67,1.06,-0.67,1.84l-1.58,-0.16c0.1,-1.18,0.51,-2.08,1.22,-2.7c0.71,-0.62,1.66,-0.93,2.84,-0.93c1.2,0,2.15,0.33,2.85,1c0.7,0.67,1.05,1.49,1.05,2.48c0,0.5,-0.1,0.99,-0.31,1.48c-0.21,0.48,-0.55,0.99,-1.02,1.52c-0.47,0.53,-1.26,1.27,-2.37,2.2c-0.93,0.78,-1.52,1.31,-1.78,1.59c-0.26,0.28,-0.47,0.55,-0.64,0.82l6.14,0m2.78,1.48l0,-1.75l1.75,0l0,1.75l-1.75,0m4.12,-3.28l1.62,-0.14c0.11,0.79,0.39,1.39,0.83,1.78c0.44,0.4,0.96,0.59,1.58,0.59c0.74,0,1.37,-0.28,1.88,-0.84c0.52,-0.56,0.77,-1.3,0.77,-2.23c0,-0.87,-0.25,-1.57,-0.74,-2.08c-0.49,-0.51,-1.14,-0.77,-1.95,-0.77c-0.49,0,-0.93,0.11,-1.34,0.34c-0.4,0.23,-0.72,0.52,-0.95,0.87l-1.44,-0.19l1.22,-6.44l6.22,0l0,1.47l-5,0l-0.67,3.37c0.75,-0.53,1.54,-0.8,2.37,-0.8c1.09,0,2.02,0.38,2.77,1.14c0.75,0.76,1.12,1.73,1.12,2.92c0,1.14,-0.33,2.11,-0.98,2.94c-0.8,1.02,-1.9,1.53,-3.3,1.53c-1.14,0,-2.07,-0.32,-2.79,-0.96c-0.72,-0.64,-1.14,-1.49,-1.24,-2.54" fill="#000000" stroke="none" fill-opacity="1"/>
<path d="m48.19,467.06l1.53,-0.2c0.18,0.87,0.48,1.51,0.91,1.89c0.43,0.39,0.94,0.58,1.55,0.58c0.73,0,1.34,-0.25,1.84,-0.76c0.5,-0.51,0.75,-1.13,0.75,-1.87c0,-0.7,-0.23,-1.28,-0.7,-1.73c-0.46,-0.46,-1.05,-0.69,-1.76,-0.69c-0.29,0,-0.66,0.05,-1.09,0.16l0.17,-1.34c0.1,0.01,0.19,0.02,0.25,0.02c0.66,0,1.24,-0.17,1.77,-0.51c0.52,-0.34,0.78,-0.87,0.78,-1.59c0,-0.56,-0.19,-1.03,-0.57,-1.4c-0.38,-0.37,-0.87,-0.55,-1.48,-0.55c-0.59,0,-1.09,0.19,-1.49,0.56c-0.4,0.37,-0.66,0.94,-0.77,1.69l-1.53,-0.27c0.19,-1.03,0.61,-1.83,1.28,-2.4c0.67,-0.57,1.49,-0.85,2.48,-0.85c0.69,0,1.32,0.15,1.89,0.44c0.57,0.29,1.01,0.69,1.32,1.2c0.31,0.51,0.46,1.05,0.46,1.61c0,0.54,-0.15,1.04,-0.44,1.48c-0.29,0.45,-0.72,0.8,-1.3,1.06c0.74,0.17,1.32,0.52,1.73,1.06c0.41,0.54,0.62,1.21,0.62,2.02c0,1.09,-0.4,2.02,-1.2,2.78c-0.8,0.76,-1.8,1.14,-3.02,1.14c-1.1,0,-2.02,-0.33,-2.74,-0.98c-0.72,-0.66,-1.14,-1.51,-1.24,-2.55" fill="#000000" stroke="none" fill-opacity="1"/>
<path d="m33.19,423.87l1.53,-0.2c0.18,0.87,0.48,1.51,0.91,1.89c0.43,0.39,0.94,0.58,1.55,0.58c0.73,0,1.34,-0.25,1.84,-0.76c0.5,-0.51,0.75,-1.13,0.75,-1.87c0,-0.7,-0.23,-1.28,-0.7,-1.73c-0.46,-0.46,-1.05,-0.69,-1.76,-0.69c-0.29,0,-0.66,0.05,-1.09,0.16l0.17,-1.34c0.1,0.01,0.19,0.02,0.25,0.02c0.66,0,1.24,-0.17,1.77,-0.51c0.52,-0.34,0.78,-0.87,0.78,-1.59c0,-0.56,-0.19,-1.03,-0.57,-1.4c-0.38,-0.37,-0.87,-0.55,-1.48,-0.55c-0.59,0,-1.09,0.19,-1.49,0.56c-0.4,0.37,-0.66,0.94,-0.77,1.69l-1.53,-0.27c0.19,-1.03,0.61,-1.83,1.28,-2.4c0.67,-0.57,1.49,-0.85,2.48,-0.85c0.69,0,1.32,0.15,1.89,0.44c0.57,0.29,1.01,0.69,1.32,1.2c0.31,0.51,0.46,1.05,0.46,1.61c0,0.54,-0.15,1.04,-0.44,1.48c-0.29,0.45,-0.72,0.8,-1.3,1.06c0.74,0.17,1.32,0.52,1.73,1.06c0.41,0.54,0.62,1.21,0.62,2.02c0,1.09,-0.4,2.02,-1.2,2.78c-0.8,0.76,-1.8,1.14,-3.02,1.14c-1.1,0,-2.02,-0.33,-2.74,-0.98c-0.72,-0.66,-1.14,-1.51,-1.24,-2.55m10.86,3.31l0,-1.75l1.75,0l0,1.75l-1.75,0m4.12,-3.28l1.62,-0.14c0.11,0.79,0.39,1.39,0.83,1.78c0.44,0.4,0.96,0.59,1.58,0.59c0.74,0,1.37,-0.28,1.88,-0.84c0.52,-0.56,0.77,-1.3,0.77,-2.23c0,-0.87,-0.25,-1.57,-0.74,-2.08c-0.49,-0.51,-1.14,-0.77,-1.95,-0.77c-0.49,0,-0.93,0.11,-1.34,0.34c-0.4,0.23,-0.72,0.52,-0.95,0.87l-1.44,-0.19l1.22,-6.44l6.22,0l0,1.47l-5,0l-0.67,3.37c0.75,-0.53,1.54,-0.8,2.37,-0.8c1.09,0,2.02,0.38,2.77,1.14c0.75,0.76,1.12,1.73,1.12,2.92c0,1.14,-0.33,2.11,-0.98,2.94c-0.8,1.02,-1.9,1.53,-3.3,1.53c-1.14,0,-2.07,-0.32,-2.79,-0.96c-0.72,-0.64,-1.14,-1.49,-1.24,-2.54" fill="#000000" stroke="none" fill-opacity="1"/>
<path d="m53.11,384l0,-3l-5.44,0l0,-1.41l5.72,-8.12l1.25,0l0,8.12l1.7,0l0,1.41l-1.7,0l0,3l-1.53,0m0,-4.41l0,-5.66l-3.92,5.66l3.92,0" fill="#000000" stroke="none" fill-opacity="1"/>
<path d="m38.11,340.81l0,-3l-5.44,0l0,-1.41l5.72,-8.12l1.25,0l0,8.12l1.7,0l0,1.41l-1.7,0l0,3l-1.53,0m0,-4.41l0,-5.66l-3.92,5.66l3.92,0m5.94,4.41l0,-1.75l1.75,0l0,1.75l-1.75,0m4.12,-3.28l1.62,-0.14c0.11,0.79,0.39,1.39,0.83,1.78c0.44,0.4,0.96,0.59,1.58,0.59c0.74,0,1.37,-0.28,1.88,-0.84c0.52,-0.56,0.77,-1.3,0.77,-2.23c0,-0.87,-0.25,-1.57,-0.74,-2.08c-0.49,-0.51,-1.14,-0.77,-1.95,-0.77c-0.49,0,-0.93,0.11,-1.34,0.34c-0.4,0.23,-0.72,0.52,-0.95,0.87l-1.44,-0.19l1.22,-6.44l6.22,0l0,1.47l-5,0l-0.67,3.37c0.75,-0.53,1.54,-0.8,2.37,-0.8c1.09,0,2.02,0.38,2.77,1.14c0.75,0.76,1.12,1.73,1.12,2.92c0,1.14,-0.33,2.11,-0.98,2.94c-0.8,1.02,-1.9,1.53,-3.3,1.53c-1.14,0,-2.07,-0.32,-2.79,-0.96c-0.72,-0.64,-1.14,-1.49,-1.24,-2.54" fill="#000000" stroke="none" fill-opacity="1"/>
</g>
<g stroke-width="0.62" stroke-linecap="butt" fill="none">
<path d="M60.46,515.71l252.52,0"/>
<path d="M60.46,515.71l0,-3.75M74.89,515.71l0,-3.75M89.32,515.71l0,-3.75M103.75,515.71l0,-3.75M118.18,515.71l0,-3.75M132.61,515.71l0,-3.75M147.04,515.71l0,-3.75M161.47,515.71l0,-3.75M175.9,515.71l0,-3.75M190.33,515.71l0,-3.75M204.76,515.71l0,-3.75M219.19,515.71l0,-3.75M233.62,515.71l0,-3.75M248.05,515.71l0,-3.75M262.48,515.71l0,-3.75M276.91,515.71l0,-3.75M291.34,515.71l0,-3.75M305.77,515.71l0,-3.75"/>
<path d="M74.89,515.71l0,-7.5M147.04,515.71l0,-7.5M219.19,515.71l0,-7.5M291.34,515.71l0,-7.5"/>
</g>
<g stroke-width="1" fill="none">
<path d="m158.84,552.62l2.47,-0.23c0.15,0.82,0.45,1.43,0.9,1.81c0.45,0.39,1.07,0.58,1.84,0.58c0.81,0,1.42,-0.17,1.84,-0.52c0.41,-0.34,0.62,-0.74,0.62,-1.2c0,-0.29,-0.09,-0.54,-0.26,-0.75c-0.17,-0.21,-0.47,-0.39,-0.9,-0.55c-0.3,-0.1,-0.98,-0.29,-2.03,-0.55c-1.35,-0.33,-2.31,-0.74,-2.86,-1.23c-0.77,-0.7,-1.16,-1.54,-1.16,-2.53c0,-0.64,0.18,-1.23,0.55,-1.79c0.36,-0.56,0.89,-0.98,1.57,-1.27c0.68,-0.29,1.5,-0.43,2.46,-0.43c1.57,0,2.76,0.34,3.55,1.03c0.8,0.69,1.21,1.6,1.24,2.75l-2.52,0.12c-0.11,-0.65,-0.35,-1.11,-0.7,-1.39c-0.35,-0.28,-0.89,-0.42,-1.61,-0.42c-0.73,0,-1.3,0.15,-1.72,0.45c-0.27,0.19,-0.41,0.44,-0.41,0.77c0,0.3,0.12,0.56,0.37,0.77c0.32,0.27,1.1,0.55,2.33,0.84c1.23,0.29,2.14,0.59,2.73,0.9c0.59,0.31,1.05,0.74,1.38,1.27c0.33,0.54,0.5,1.2,0.5,1.99c0,0.72,-0.2,1.39,-0.59,2.02c-0.4,0.63,-0.96,1.1,-1.69,1.4c-0.73,0.3,-1.64,0.45,-2.73,0.45c-1.58,0,-2.8,-0.36,-3.65,-1.09c-0.85,-0.73,-1.36,-1.8,-1.52,-3.2m12.56,-5l2.23,0l0,1.34c0.29,-0.46,0.68,-0.83,1.18,-1.12c0.49,-0.29,1.04,-0.43,1.65,-0.43c1.05,0,1.95,0.41,2.69,1.24c0.74,0.83,1.11,1.98,1.11,3.45c0,1.52,-0.37,2.7,-1.12,3.54c-0.74,0.84,-1.64,1.26,-2.7,1.26c-0.5,0,-0.95,-0.1,-1.36,-0.3c-0.41,-0.2,-0.83,-0.54,-1.28,-1.03l0,4.58l-2.41,0l0,-12.53m2.37,4.39c0,1.02,0.2,1.77,0.61,2.26c0.41,0.48,0.9,0.73,1.47,0.73c0.56,0,1.03,-0.22,1.4,-0.67c0.37,-0.45,0.55,-1.18,0.55,-2.2c0,-0.95,-0.19,-1.65,-0.57,-2.12c-0.38,-0.46,-0.85,-0.7,-1.41,-0.7c-0.59,0,-1.08,0.23,-1.47,0.68c-0.39,0.45,-0.58,1.13,-0.58,2.02m11,4.69l-2.41,0l0,-9.08l2.23,0l0,1.3c0.37,-0.61,0.72,-1.02,1.02,-1.21c0.31,-0.19,0.65,-0.29,1.04,-0.29c0.54,0,1.07,0.15,1.58,0.45l-0.73,2.09c-0.41,-0.26,-0.79,-0.39,-1.14,-0.39c-0.33,0,-0.62,0.09,-0.85,0.27c-0.23,0.18,-0.42,0.52,-0.55,1c-0.13,0.48,-0.2,1.5,-0.2,3.05l0,2.8m4.69,-10.31l0,-2.22l2.41,0l0,2.22l-2.41,0m0,10.31l0,-9.08l2.41,0l0,9.08l-2.41,0m13.27,0l-2.41,0l0,-4.62c0,-0.98,-0.05,-1.61,-0.16,-1.91c-0.1,-0.29,-0.27,-0.52,-0.5,-0.67c-0.23,-0.16,-0.51,-0.23,-0.83,-0.23c-0.42,0,-0.79,0.11,-1.12,0.34c-0.33,0.22,-0.56,0.53,-0.68,0.91c-0.12,0.38,-0.18,1.08,-0.18,2.09l0,4.11l-2.41,0l0,-9.08l2.23,0l0,1.34c0.79,-1.03,1.79,-1.55,2.98,-1.55c0.53,0,1.02,0.1,1.46,0.29c0.44,0.19,0.78,0.44,1,0.73c0.22,0.3,0.38,0.63,0.47,1.01c0.09,0.37,0.13,0.91,0.13,1.61l0,5.64m2.52,0.59l2.75,0.34c0.04,0.31,0.15,0.53,0.31,0.66c0.23,0.17,0.59,0.25,1.08,0.25c0.62,0,1.09,-0.09,1.41,-0.28c0.21,-0.12,0.37,-0.33,0.48,-0.61c0.07,-0.2,0.11,-0.56,0.11,-1.09l0,-1.33c-0.72,0.98,-1.62,1.47,-2.72,1.47c-1.22,0,-2.18,-0.52,-2.89,-1.55c-0.56,-0.81,-0.84,-1.83,-0.84,-3.05c0,-1.52,0.36,-2.68,1.09,-3.48c0.73,-0.8,1.64,-1.2,2.73,-1.2c1.12,0,2.05,0.49,2.78,1.48l0,-1.28l2.25,0l0,8.14c0,1.07,-0.09,1.87,-0.27,2.41c-0.18,0.53,-0.43,0.95,-0.75,1.25c-0.32,0.3,-0.75,0.54,-1.28,0.71c-0.53,0.17,-1.2,0.26,-2.02,0.26c-1.54,0,-2.63,-0.26,-3.27,-0.79c-0.64,-0.53,-0.96,-1.2,-0.96,-2.01c0,-0.08,0,-0.18,0,-0.3m2.14,-5.31c0,0.96,0.19,1.66,0.56,2.11c0.37,0.45,0.84,0.67,1.39,0.67c0.58,0,1.08,-0.23,1.48,-0.69c0.41,-0.46,0.61,-1.14,0.61,-2.05c0,-0.94,-0.2,-1.63,-0.59,-2.09c-0.39,-0.45,-0.88,-0.68,-1.48,-0.68c-0.57,0,-1.05,0.22,-1.42,0.67c-0.37,0.45,-0.56,1.13,-0.56,2.05" fill="#000000" stroke="none" fill-opacity="1"/>
<path d="m78.7,533.22l0,1.48l-8.28,0c-0.01,-0.37,0.05,-0.73,0.17,-1.06c0.22,-0.57,0.56,-1.13,1.02,-1.68c0.46,-0.55,1.13,-1.17,2.01,-1.88c1.36,-1.12,2.29,-2.01,2.77,-2.66c0.48,-0.65,0.72,-1.27,0.72,-1.85c0,-0.6,-0.22,-1.12,-0.66,-1.54c-0.44,-0.42,-1.01,-0.63,-1.7,-0.63c-0.74,0,-1.33,0.22,-1.78,0.67c-0.45,0.45,-0.67,1.06,-0.67,1.84l-1.58,-0.16c0.1,-1.18,0.51,-2.08,1.22,-2.7c0.71,-0.62,1.66,-0.93,2.84,-0.93c1.2,0,2.15,0.33,2.85,1c0.7,0.67,1.05,1.49,1.05,2.48c0,0.5,-0.1,0.99,-0.31,1.48c-0.21,0.48,-0.55,0.99,-1.02,1.52c-0.47,0.53,-1.26,1.27,-2.37,2.2c-0.93,0.78,-1.52,1.31,-1.78,1.59c-0.26,0.28,-0.47,0.55,-0.64,0.82l6.14,0" fill="#000000" stroke="none" fill-opacity="1"/>
<path d="m142.77,531.39l1.53,-0.2c0.18,0.87,0.48,1.51,0.91,1.89c0.43,0.39,0.94,0.58,1.55,0.58c0.73,0,1.34,-0.25,1.84,-0.76c0.5,-0.51,0.75,-1.13,0.75,-1.87c0,-0.7,-0.23,-1.28,-0.7,-1.73c-0.46,-0.46,-1.05,-0.69,-1.76,-0.69c-0.29,0,-0.66,0.05,-1.09,0.16l0.17,-1.34c0.1,0.01,0.19,0.02,0.25,0.02c0.66,0,1.24,-0.17,1.77,-0.51c0.52,-0.34,0.78,-0.87,0.78,-1.59c0,-0.56,-0.19,-1.03,-0.57,-1.4c-0.38,-0.37,-0.87,-0.55,-1.48,-0.55c-0.59,0,-1.09,0.19,-1.49,0.56c-0.4,0.37,-0.66,0.94,-0.77,1.69l-1.53,-0.27c0.19,-1.03,0.61,-1.83,1.28,-2.4c0.67,-0.57,1.49,-0.85,2.48,-0.85c0.69,0,1.32,0.15,1.89,0.44c0.57,0.29,1.01,0.69,1.32,1.2c0.31,0.51,0.46,1.05,0.46,1.61c0,0.54,-0.15,1.04,-0.44,1.48c-0.29,0.45,-0.72,0.8,-1.3,1.06c0.74,0.17,1.32,0.52,1.73,1.06c0.41,0.54,0.62,1.21,0.62,2.02c0,1.09,-0.4,2.02,-1.2,2.78c-0.8,0.76,-1.8,1.14,-3.02,1.14c-1.1,0,-2.02,-0.33,-2.74,-0.98c-0.72,-0.66,-1.14,-1.51,-1.24,-2.55" fill="#000000" stroke="none" fill-opacity="1"/>
<path d="m219.84,534.7l0,-3l-5.44,0l0,-1.41l5.72,-8.12l1.25,0l0,8.12l1.7,0l0,1.41l-1.7,0l0,3l-1.53,0m0,-4.41l0,-5.66l-3.92,5.66l3.92,0" fill="#000000" stroke="none" fill-opacity="1"/>
<path d="m287.05,531.42l1.62,-0.14c0.11,0.79,0.39,1.39,0.83,1.78c0.44,0.4,0.96,0.59,1.58,0.59c0.74,0,1.37,-0.28,1.88,-0.84c0.52,-0.56,0.77,-1.3,0.77,-2.23c0,-0.87,-0.25,-1.57,-0.74,-2.08c-0.49,-0.51,-1.14,-0.77,-1.95,-0.77c-0.49,0,-0.93,0.11,-1.34,0.34c-0.4,0.23,-0.72,0.52,-0.95,0.87l-1.44,-0.19l1.22,-6.44l6.22,0l0,1.47l-5,0l-0.67,3.37c0.75,-0.53,1.54,-0.8,2.37,-0.8c1.09,0,2.02,0.38,2.77,1.14c0.75,0.76,1.12,1.73,1.12,2.92c0,1.14,-0.33,2.11,-0.98,2.94c-0.8,1.02,-1.9,1.53,-3.3,1.53c-1.14,0,-2.07,-0.32,-2.79,-0.96c-0.72,-0.64,-1.14,-1.49,-1.24,-2.54" fill="#000000" stroke="none" fill-opacity="1"/>
</g>
</g>
</g>
<defs>
<clipPath id="c0"><path d="m0,0l373.44,0l0,576.17l-373.44,0l0,-576.17"/></clipPath>
<clipPath id="c1"><path d="m60.46,7.11l252.52,0l0,252.52l-252.52,0l0,-252.52"/></clipPath>
<clipPath id="c2"><path d="m60.46,334.32l252.52,0l0,181.39l-252.52,0l0,-181.39"/></clipPath>
</defs>
</svg>
