<?xml version="1.0" standalone="no"?>
<!DOCTYPE svg PUBLIC "-//W3C//DTD SVG 1.1//EN" 
  "http://www.w3.org/Graphics/SVG/1.1/DTD/svg11.dtd">
<svg width="533.49px" height="533.49px" version="1.1"
     xmlns="http://www.w3.org/2000/svg"
     xmlns:xlink="http://www.w3.org/1999/xlink">
<desc>Veusz output document</desc>
<g stroke-linejoin="bevel" stroke-linecap="square" stroke="#000000" fill-rule="evenodd">
<g clip-path="url(#c0)">
<g stroke-width="0.62" fill="#ffffff">
<path d="m39.12,14.23l218.73,0l0,218.73l-218.73,0l0,-218.73"/>
</g>
<g stroke-width="0.62" fill="#0055ff">
<path d="m194.08,187.44l17.78,0l0,14l-17.78,0l0,-14"/>
</g>
<g stroke-width="1" fill="none">
<path d="m238.94,200.3c-0.57,0.49,-1.12,0.83,-1.65,1.03c-0.53,0.2,-1.09,0.3,-1.7,0.3c-1,0,-1.77,-0.24,-2.3,-0.73c-0.54,-0.48,-0.8,-1.11,-0.8,-1.87c0,-0.45,0.1,-0.85,0.3,-1.22c0.2,-0.36,0.47,-0.66,0.8,-0.88c0.33,-0.22,0.7,-0.39,1.12,-0.51c0.3,-0.08,0.76,-0.16,1.36,-0.23c1.24,-0.15,2.16,-0.32,2.75,-0.53c0,-0.21,0,-0.34,0,-0.39c0,-0.62,-0.15,-1.07,-0.44,-1.33c-0.39,-0.34,-0.97,-0.52,-1.75,-0.52c-0.72,0,-1.25,0.12,-1.59,0.37c-0.34,0.25,-0.6,0.7,-0.77,1.34l-1.52,-0.2c0.15,-0.65,0.37,-1.17,0.69,-1.56c0.31,-0.4,0.76,-0.7,1.35,-0.91c0.59,-0.21,1.27,-0.32,2.05,-0.32c0.78,0,1.41,0.09,1.9,0.27c0.48,0.18,0.84,0.41,1.06,0.69c0.22,0.28,0.38,0.63,0.48,1.05c0.05,0.26,0.08,0.73,0.08,1.41l0,2.06c0,1.43,0.03,2.33,0.1,2.71c0.07,0.38,0.2,0.74,0.38,1.09l-1.59,0c-0.17,-0.32,-0.27,-0.7,-0.31,-1.12m-0.12,-3.42c-0.56,0.22,-1.4,0.41,-2.52,0.58c-0.64,0.08,-1.08,0.18,-1.34,0.3c-0.26,0.11,-0.46,0.28,-0.61,0.5c-0.15,0.22,-0.22,0.46,-0.22,0.73c0,0.42,0.16,0.76,0.47,1.03c0.31,0.27,0.77,0.41,1.37,0.41c0.58,0,1.11,-0.13,1.57,-0.39c0.46,-0.26,0.8,-0.61,1.02,-1.06c0.17,-0.34,0.25,-0.85,0.25,-1.53l0,-0.56" fill="#000000" stroke="none" fill-opacity="1"/>
</g>
<g stroke-width="0.62" fill="#ff557f">
<path d="m194.08,207.44l17.78,0l0,14l-17.78,0l0,-14"/>
</g>
<g stroke-width="1" fill="none">
<path d="m234.44,221.42l-1.44,0l0,-12.53l1.55,0l0,4.47c0.65,-0.81,1.47,-1.22,2.48,-1.22c0.55,0,1.08,0.11,1.58,0.34c0.5,0.22,0.91,0.54,1.23,0.95c0.32,0.41,0.58,0.9,0.76,1.48c0.18,0.58,0.27,1.2,0.27,1.85c0,1.55,-0.39,2.75,-1.16,3.6c-0.77,0.85,-1.69,1.27,-2.77,1.27c-1.07,0,-1.91,-0.45,-2.52,-1.34l0,1.14m-0.02,-4.61c0,1.09,0.15,1.88,0.44,2.36c0.48,0.79,1.14,1.19,1.97,1.19c0.67,0,1.24,-0.29,1.73,-0.87c0.49,-0.58,0.73,-1.45,0.73,-2.61c0,-1.19,-0.23,-2.06,-0.7,-2.62c-0.47,-0.56,-1.04,-0.84,-1.7,-0.84c-0.67,0,-1.24,0.29,-1.73,0.87c-0.49,0.58,-0.73,1.43,-0.73,2.53" fill="#000000" stroke="none" fill-opacity="1"/>
<path d="m118.02,40.72l1.53,-0.25c0.08,0.61,0.32,1.08,0.71,1.41c0.39,0.32,0.93,0.48,1.63,0.48c0.71,0,1.23,-0.14,1.58,-0.43c0.34,-0.29,0.52,-0.62,0.52,-1.01c0,-0.35,-0.15,-0.63,-0.45,-0.83c-0.22,-0.14,-0.74,-0.31,-1.58,-0.52c-1.12,-0.28,-1.91,-0.53,-2.34,-0.73c-0.44,-0.21,-0.77,-0.5,-0.99,-0.87c-0.22,-0.37,-0.34,-0.78,-0.34,-1.23c0,-0.4,0.09,-0.77,0.27,-1.12c0.18,-0.35,0.43,-0.63,0.76,-0.85c0.24,-0.18,0.57,-0.33,0.98,-0.45c0.41,-0.12,0.86,-0.19,1.34,-0.19c0.71,0,1.33,0.1,1.87,0.3c0.54,0.2,0.93,0.48,1.2,0.84c0.26,0.35,0.44,0.82,0.53,1.41l-1.5,0.2c-0.07,-0.47,-0.27,-0.83,-0.6,-1.09c-0.33,-0.26,-0.79,-0.39,-1.38,-0.39c-0.71,0,-1.21,0.12,-1.52,0.35c-0.3,0.23,-0.45,0.51,-0.45,0.82c0,0.2,0.06,0.37,0.19,0.53c0.12,0.17,0.32,0.31,0.59,0.42c0.16,0.05,0.61,0.18,1.36,0.39c1.08,0.29,1.84,0.53,2.27,0.71c0.43,0.18,0.77,0.45,1.02,0.8c0.24,0.35,0.37,0.79,0.37,1.31c0,0.52,-0.15,1.01,-0.45,1.46c-0.3,0.45,-0.73,0.8,-1.3,1.05c-0.56,0.24,-1.2,0.37,-1.91,0.37c-1.18,0,-2.08,-0.24,-2.7,-0.73c-0.62,-0.49,-1.02,-1.21,-1.2,-2.17m12.98,1.33l0.22,1.36c-0.44,0.09,-0.82,0.14,-1.16,0.14c-0.56,0,-1,-0.09,-1.3,-0.27c-0.31,-0.18,-0.52,-0.41,-0.65,-0.7c-0.12,-0.29,-0.19,-0.89,-0.19,-1.82l0,-5.22l-1.12,0l0,-1.2l1.12,0l0,-2.25l1.53,-0.92l0,3.17l1.55,0l0,1.2l-1.55,0l0,5.3c0,0.44,0.03,0.72,0.08,0.85c0.05,0.13,0.14,0.23,0.27,0.3c0.12,0.07,0.3,0.11,0.53,0.11c0.17,0,0.39,-0.02,0.67,-0.06m7.56,0.25c-0.57,0.49,-1.12,0.83,-1.65,1.03c-0.53,0.2,-1.09,0.3,-1.7,0.3c-1,0,-1.77,-0.24,-2.3,-0.73c-0.54,-0.48,-0.8,-1.11,-0.8,-1.87c0,-0.45,0.1,-0.85,0.3,-1.22c0.2,-0.36,0.47,-0.66,0.8,-0.88c0.33,-0.22,0.7,-0.39,1.12,-0.51c0.3,-0.08,0.76,-0.16,1.36,-0.23c1.24,-0.15,2.16,-0.32,2.75,-0.53c0,-0.21,0,-0.34,0,-0.39c0,-0.62,-0.15,-1.07,-0.44,-1.33c-0.39,-0.34,-0.97,-0.52,-1.75,-0.52c-0.72,0,-1.25,0.12,-1.59,0.37c-0.34,0.25,-0.6,0.7,-0.77,1.34l-1.52,-0.2c0.15,-0.65,0.37,-1.17,0.69,-1.56c0.31,-0.4,0.76,-0.7,1.35,-0.91c0.59,-0.21,1.27,-0.32,2.05,-0.32c0.78,0,1.41,0.09,1.9,0.27c0.48,0.18,0.84,0.41,1.06,0.69c0.22,0.28,0.38,0.63,0.48,1.05c0.05,0.26,0.08,0.73,0.08,1.41l0,2.06c0,1.43,0.03,2.33,0.1,2.71c0.07,0.38,0.2,0.74,0.38,1.09l-1.59,0c-0.17,-0.32,-0.27,-0.7,-0.31,-1.12m-0.12,-3.42c-0.56,0.22,-1.4,0.41,-2.52,0.58c-0.64,0.08,-1.08,0.18,-1.34,0.3c-0.26,0.11,-0.46,0.28,-0.61,0.5c-0.15,0.22,-0.22,0.46,-0.22,0.73c0,0.42,0.16,0.76,0.47,1.03c0.31,0.27,0.77,0.41,1.37,0.41c0.58,0,1.11,-0.13,1.57,-0.39c0.46,-0.26,0.8,-0.61,1.02,-1.06c0.17,-0.34,0.25,-0.85,0.25,-1.53l0,-0.56m10.12,1.22l1.52,0.2c-0.17,1.04,-0.59,1.86,-1.27,2.45c-0.68,0.59,-1.52,0.88,-2.51,0.88c-1.24,0,-2.24,-0.41,-2.99,-1.22c-0.76,-0.81,-1.13,-1.97,-1.13,-3.48c0,-0.98,0.16,-1.84,0.48,-2.57c0.32,-0.73,0.82,-1.29,1.48,-1.66c0.67,-0.37,1.39,-0.55,2.16,-0.55c0.99,0,1.8,0.25,2.42,0.75c0.62,0.5,1.03,1.21,1.2,2.12l-1.48,0.23c-0.15,-0.61,-0.4,-1.08,-0.77,-1.38c-0.36,-0.31,-0.8,-0.46,-1.31,-0.46c-0.77,0,-1.4,0.28,-1.88,0.84c-0.48,0.56,-0.73,1.43,-0.73,2.63c0,1.22,0.23,2.1,0.7,2.66c0.47,0.55,1.08,0.83,1.83,0.83c0.6,0,1.11,-0.18,1.51,-0.55c0.4,-0.37,0.66,-0.94,0.77,-1.71m3.08,3.33l0,-12.53l1.55,0l0,7.14l3.64,-3.69l1.98,0l-3.47,3.37l3.83,5.7l-1.91,0l-3,-4.64l-1.08,1.05l0,3.59l-1.55,0m15.2,-2.92l1.59,0.2c-0.25,0.93,-0.71,1.65,-1.39,2.16c-0.68,0.51,-1.54,0.77,-2.59,0.77c-1.33,0,-2.39,-0.41,-3.16,-1.23c-0.78,-0.82,-1.16,-1.96,-1.16,-3.43c0,-1.53,0.39,-2.72,1.18,-3.56c0.79,-0.84,1.8,-1.27,3.05,-1.27c1.22,0,2.21,0.41,2.98,1.24c0.77,0.83,1.15,1.99,1.15,3.49c0,0.08,0,0.22,0,0.41l-6.77,0c0.05,0.99,0.33,1.75,0.84,2.28c0.51,0.53,1.14,0.8,1.89,0.8c0.56,0,1.04,-0.15,1.45,-0.45c0.4,-0.3,0.72,-0.77,0.95,-1.41m-5.05,-2.48l5.08,0c-0.07,-0.76,-0.27,-1.33,-0.59,-1.72c-0.49,-0.59,-1.12,-0.89,-1.91,-0.89c-0.7,0,-1.29,0.24,-1.77,0.71c-0.48,0.47,-0.75,1.11,-0.8,1.9m14.73,5.41l0,-1.14c-0.58,0.9,-1.43,1.34,-2.55,1.34c-0.72,0,-1.38,-0.2,-1.99,-0.59c-0.61,-0.4,-1.08,-0.95,-1.41,-1.67c-0.33,-0.72,-0.5,-1.54,-0.5,-2.47c0,-0.91,0.15,-1.73,0.45,-2.46c0.3,-0.73,0.76,-1.3,1.36,-1.7c0.6,-0.4,1.28,-0.59,2.03,-0.59c0.54,0,1.03,0.11,1.45,0.34c0.43,0.23,0.78,0.53,1.05,0.91l0,-4.5l1.53,0l0,12.53l-1.42,0m-4.87,-4.53c0,1.17,0.25,2.04,0.74,2.61c0.49,0.57,1.08,0.86,1.74,0.86c0.67,0,1.23,-0.27,1.7,-0.82c0.47,-0.55,0.7,-1.39,0.7,-2.52c0,-1.24,-0.24,-2.15,-0.72,-2.73c-0.48,-0.58,-1.07,-0.87,-1.77,-0.87c-0.68,0,-1.25,0.28,-1.71,0.84c-0.46,0.56,-0.7,1.43,-0.7,2.63" fill="#000000" stroke="none" fill-opacity="1"/>
<path d="m127.64,63.42l0,-9.08l1.37,0l0,1.28c0.28,-0.45,0.66,-0.81,1.13,-1.08c0.47,-0.27,1.01,-0.41,1.62,-0.41c0.68,0,1.23,0.14,1.66,0.42c0.43,0.28,0.73,0.67,0.91,1.17c0.72,-1.06,1.65,-1.59,2.8,-1.59c0.91,0,1.6,0.25,2.09,0.75c0.48,0.5,0.73,1.27,0.73,2.3l0,6.23l-1.53,0l0,-5.72c0,-0.61,-0.05,-1.06,-0.15,-1.33c-0.1,-0.27,-0.28,-0.49,-0.55,-0.66c-0.27,-0.17,-0.57,-0.25,-0.91,-0.25c-0.65,0,-1.18,0.21,-1.6,0.64c-0.42,0.43,-0.63,1.11,-0.63,2.05l0,5.27l-1.53,0l0,-5.89c0,-0.69,-0.12,-1.2,-0.37,-1.55c-0.25,-0.34,-0.66,-0.52,-1.23,-0.52c-0.43,0,-0.83,0.11,-1.2,0.34c-0.37,0.23,-0.64,0.56,-0.8,1c-0.17,0.44,-0.25,1.07,-0.25,1.91l0,4.7l-1.53,0m13.42,-4.53c0,-1.69,0.47,-2.93,1.41,-3.73c0.78,-0.68,1.73,-1.02,2.86,-1.02c1.24,0,2.26,0.41,3.05,1.23c0.79,0.82,1.19,1.95,1.19,3.38c0,1.18,-0.17,2.1,-0.52,2.77c-0.35,0.67,-0.86,1.18,-1.52,1.55c-0.67,0.37,-1.4,0.55,-2.19,0.55c-1.27,0,-2.3,-0.41,-3.09,-1.22c-0.79,-0.81,-1.18,-1.98,-1.18,-3.52m1.58,0c0,1.16,0.26,2.02,0.77,2.6c0.51,0.58,1.15,0.87,1.92,0.87c0.76,0,1.39,-0.29,1.9,-0.87c0.51,-0.58,0.76,-1.47,0.76,-2.66c0,-1.11,-0.26,-1.96,-0.77,-2.54c-0.51,-0.58,-1.14,-0.87,-1.89,-0.87c-0.77,0,-1.41,0.29,-1.92,0.86c-0.51,0.57,-0.77,1.44,-0.77,2.61m14.89,4.53l0,-1.14c-0.58,0.9,-1.43,1.34,-2.55,1.34c-0.72,0,-1.38,-0.2,-1.99,-0.59c-0.61,-0.4,-1.08,-0.95,-1.41,-1.67c-0.33,-0.72,-0.5,-1.54,-0.5,-2.47c0,-0.91,0.15,-1.73,0.45,-2.46c0.3,-0.73,0.76,-1.3,1.36,-1.7c0.6,-0.4,1.28,-0.59,2.03,-0.59c0.54,0,1.03,0.11,1.45,0.34c0.43,0.23,0.78,0.53,1.05,0.91l0,-4.5l1.53,0l0,12.53l-1.42,0m-4.87,-4.53c0,1.17,0.25,2.04,0.74,2.61c0.49,0.57,1.08,0.86,1.74,0.86c0.67,0,1.23,-0.27,1.7,-0.82c0.47,-0.55,0.7,-1.39,0.7,-2.52c0,-1.24,-0.24,-2.15,-0.72,-2.73c-0.48,-0.58,-1.07,-0.87,-1.77,-0.87c-0.68,0,-1.25,0.28,-1.71,0.84c-0.46,0.56,-0.7,1.43,-0.7,2.63m15.19,1.61l1.59,0.2c-0.25,0.93,-0.71,1.65,-1.39,2.16c-0.68,0.51,-1.54,0.77,-2.59,0.77c-1.33,0,-2.39,-0.41,-3.16,-1.23c-0.78,-0.82,-1.16,-1.96,-1.16,-3.43c0,-1.53,0.39,-2.72,1.18,-3.56c0.79,-0.84,1.8,-1.27,3.05,-1.27c1.22,0,2.21,0.41,2.98,1.24c0.77,0.83,1.15,1.99,1.15,3.49c0,0.08,0,0.22,0,0.41l-6.77,0c0.05,0.99,0.33,1.75,0.84,2.28c0.51,0.53,1.14,0.8,1.89,0.8c0.56,0,1.04,-0.15,1.45,-0.45c0.4,-0.3,0.72,-0.77,0.95,-1.41m-5.05,-2.48l5.08,0c-0.07,-0.76,-0.27,-1.33,-0.59,-1.72c-0.49,-0.59,-1.12,-0.89,-1.91,-0.89c-0.7,0,-1.29,0.24,-1.77,0.71c-0.48,0.47,-0.75,1.11,-0.8,1.9" fill="#000000" stroke="none" fill-opacity="1"/>
</g>
</g>
<g clip-path="url(#c1)">
<g stroke-width="0.62" fill="#0055ff">
<path d="m55.65,95.2l7.63,0l0,28.39l-7.63,0l0,-28.39"/>
<path d="m65.83,71.29l7.63,0l0,52.3l-7.63,0l0,-52.3"/>
<path d="m76,55.64l7.63,0l0,67.96l-7.63,0l0,-67.96"/>
<path d="m86.18,50.71l7.63,0l0,72.88l-7.63,0l0,-72.88"/>
<path d="m96.35,57.29l7.63,0l0,66.3l-7.63,0l0,-66.3"/>
<path d="m106.52,74.34l7.63,0l0,49.25l-7.63,0l0,-49.25"/>
<path d="m116.7,99.17l7.63,0l0,24.42l-7.63,0l0,-24.42"/>
<path d="m126.87,123.59l7.63,0l0,4.26l-7.63,0l0,-4.26"/>
<path d="m137.04,123.59l7.63,0l0,32.26l-7.63,0l0,-32.26"/>
<path d="m147.22,123.59l7.63,0l0,55.18l-7.63,0l0,-55.18"/>
<path d="m157.39,123.59l7.63,0l0,69.38l-7.63,0l0,-69.38"/>
<path d="m167.56,123.59l7.63,0l0,72.63l-7.63,0l0,-72.63"/>
<path d="m177.74,123.59l7.63,0l0,64.41l-7.63,0l0,-64.41"/>
<path d="m187.91,123.59l7.63,0l0,46.03l-7.63,0l0,-46.03"/>
<path d="m198.08,123.59l7.63,0l0,20.37l-7.63,0l0,-20.37"/>
<path d="m208.26,115.09l7.63,0l0,8.5l-7.63,0l0,-8.5"/>
<path d="m218.43,87.57l7.63,0l0,36.03l-7.63,0l0,-36.03"/>
<path d="m228.6,65.73l7.63,0l0,57.87l-7.63,0l0,-57.87"/>
<path d="m238.78,53.02l7.63,0l0,70.57l-7.63,0l0,-70.57"/>
<path d="m248.95,51.46l7.63,0l0,72.13l-7.63,0l0,-72.13"/>
</g>
<g stroke-width="0.62" fill="#ff557f">
<path d="m45.48,50.68l7.63,0l0,72.91l-7.63,0l0,-72.91"/>
<path d="m55.65,28.04l7.63,0l0,67.15l-7.63,0l0,-67.15"/>
<path d="m65.83,20.49l7.63,0l0,50.8l-7.63,0l0,-50.8"/>
<path d="m76,29.22l7.63,0l0,26.42l-7.63,0l0,-26.42"/>
<path d="m86.18,123.59l7.63,0l0,2.13l-7.63,0l0,-2.13"/>
<path d="m96.35,123.59l7.63,0l0,30.34l-7.63,0l0,-30.34"/>
<path d="m106.52,123.59l7.63,0l0,53.76l-7.63,0l0,-53.76"/>
<path d="m116.7,123.59l7.63,0l0,68.7l-7.63,0l0,-68.7"/>
<path d="m126.87,127.85l7.63,0l0,72.79l-7.63,0l0,-72.79"/>
<path d="m137.04,155.86l7.63,0l0,65.38l-7.63,0l0,-65.38"/>
<path d="m147.22,178.77l7.63,0l0,47.66l-7.63,0l0,-47.66"/>
<path d="m157.39,192.97l7.63,0l0,22.41l-7.63,0l0,-22.41"/>
<path d="m167.56,117.21l7.63,0l0,6.38l-7.63,0l0,-6.38"/>
<path d="m177.74,89.43l7.63,0l0,34.16l-7.63,0l0,-34.16"/>
<path d="m187.91,67.05l7.63,0l0,56.55l-7.63,0l0,-56.55"/>
<path d="m198.08,53.59l7.63,0l0,70.01l-7.63,0l0,-70.01"/>
<path d="m208.26,42.68l7.63,0l0,72.41l-7.63,0l0,-72.41"/>
<path d="m218.43,24.18l7.63,0l0,63.39l-7.63,0l0,-63.39"/>
<path d="m228.6,21.37l7.63,0l0,44.36l-7.63,0l0,-44.36"/>
<path d="m238.78,34.7l7.63,0l0,18.32l-7.63,0l0,-18.32"/>
<path d="m248.95,123.59l7.63,0l0,10.61l-7.63,0l0,-10.61"/>
</g>
</g>
<g clip-path="url(#c0)">
<g stroke="#808080" stroke-width="0.62" stroke-dasharray="1.25,2.5" fill="none">
<path d="M39.12,232.96l218.73,0M39.12,196.5l218.73,0M39.12,160.05l218.73,0M39.12,123.59l218.73,0M39.12,87.14l218.73,0M39.12,50.68l218.73,0M39.12,14.23l218.73,0"/>
</g>
<g stroke-width="0.62" stroke-linecap="butt" fill="none">
<path d="M39.12,232.96l0,-218.73"/>
<path d="M39.12,232.96l3.75,0M39.12,214.73l3.75,0M39.12,196.5l3.75,0M39.12,178.27l3.75,0M39.12,160.05l3.75,0M39.12,141.82l3.75,0M39.12,123.59l3.75,0M39.12,105.36l3.75,0M39.12,87.14l3.75,0M39.12,68.91l3.75,0M39.12,50.68l3.75,0M39.12,32.45l3.75,0M39.12,14.23l3.75,0"/>
<path d="M39.12,232.96l7.5,0M39.12,196.5l7.5,0M39.12,160.05l7.5,0M39.12,123.59l7.5,0M39.12,87.14l7.5,0M39.12,50.68l7.5,0M39.12,14.23l7.5,0"/>
<path d="M257.85,232.96l0,-218.73"/>
<path d="M257.85,232.96l-3.75,0M257.85,214.73l-3.75,0M257.85,196.5l-3.75,0M257.85,178.27l-3.75,0M257.85,160.05l-3.75,0M257.85,141.82l-3.75,0M257.85,123.59l-3.75,0M257.85,105.36l-3.75,0M257.85,87.14l-3.75,0M257.85,68.91l-3.75,0M257.85,50.68l-3.75,0M257.85,32.45l-3.75,0M257.85,14.23l-3.75,0"/>
<path d="M257.85,232.96l-7.5,0M257.85,196.5l-7.5,0M257.85,160.05l-7.5,0M257.85,123.59l-7.5,0M257.85,87.14l-7.5,0M257.85,50.68l-7.5,0M257.85,14.23l-7.5,0"/>
</g>
<g stroke-width="1" fill="none">
<path d="m9.36,234l-8.28,0l0,-1.44l8.28,0l0,1.44m8.27,5.45l-1.53,0l0,-9.8c-0.37,0.35,-0.86,0.71,-1.46,1.05c-0.6,0.35,-1.14,0.61,-1.62,0.79l0,-1.48c0.86,-0.41,1.62,-0.9,2.26,-1.47c0.64,-0.57,1.1,-1.13,1.37,-1.67l0.98,0l0,12.58m5.08,0l0,-1.75l1.75,0l0,1.75l-1.75,0m4.12,-3.28l1.62,-0.14c0.11,0.79,0.39,1.39,0.83,1.78c0.44,0.4,0.96,0.59,1.58,0.59c0.74,0,1.37,-0.28,1.88,-0.84c0.52,-0.56,0.77,-1.3,0.77,-2.23c0,-0.87,-0.25,-1.57,-0.74,-2.08c-0.49,-0.51,-1.14,-0.77,-1.95,-0.77c-0.49,0,-0.93,0.11,-1.34,0.34c-0.4,0.23,-0.72,0.52,-0.95,0.87l-1.44,-0.19l1.22,-6.44l6.22,0l0,1.47l-5,0l-0.67,3.37c0.75,-0.53,1.54,-0.8,2.37,-0.8c1.09,0,2.02,0.38,2.77,1.14c0.75,0.76,1.12,1.73,1.12,2.92c0,1.14,-0.33,2.11,-0.98,2.94c-0.8,1.02,-1.9,1.53,-3.3,1.53c-1.14,0,-2.07,-0.32,-2.79,-0.96c-0.72,-0.64,-1.14,-1.49,-1.24,-2.54" fill="#000000" stroke="none" fill-opacity="1"/>
<path d="m24.36,197.55l-8.28,0l0,-1.44l8.28,0l0,1.44m8.27,5.45l-1.53,0l0,-9.8c-0.37,0.35,-0.86,0.71,-1.46,1.05c-0.6,0.35,-1.14,0.61,-1.62,0.79l0,-1.48c0.86,-0.41,1.62,-0.9,2.26,-1.47c0.64,-0.57,1.1,-1.13,1.37,-1.67l0.98,0l0,12.58" fill="#000000" stroke="none" fill-opacity="1"/>
<path d="m9.36,161.08l-8.28,0l0,-1.44l8.28,0l0,1.44m2.47,-0.72c0,-1.49,0.15,-2.68,0.46,-3.59c0.31,-0.9,0.76,-1.6,1.36,-2.09c0.6,-0.49,1.36,-0.73,2.27,-0.73c0.67,0,1.26,0.14,1.77,0.41c0.51,0.27,0.93,0.66,1.26,1.17c0.33,0.51,0.59,1.13,0.77,1.86c0.19,0.73,0.28,1.72,0.28,2.97c0,1.47,-0.15,2.65,-0.45,3.55c-0.3,0.9,-0.75,1.6,-1.35,2.09c-0.6,0.49,-1.36,0.74,-2.27,0.74c-1.21,0,-2.16,-0.43,-2.84,-1.3c-0.83,-1.05,-1.25,-2.75,-1.25,-5.09m1.59,0c0,2.05,0.24,3.42,0.72,4.1c0.48,0.68,1.07,1.02,1.78,1.02c0.71,0,1.3,-0.34,1.78,-1.03c0.48,-0.69,0.72,-2.05,0.72,-4.09c0,-2.06,-0.24,-3.43,-0.72,-4.12c-0.48,-0.68,-1.08,-1.02,-1.8,-1.02c-0.71,0,-1.27,0.3,-1.69,0.91c-0.53,0.76,-0.8,2.17,-0.8,4.23m9.28,6.17l0,-1.75l1.75,0l0,1.75l-1.75,0m4.12,-3.28l1.62,-0.14c0.11,0.79,0.39,1.39,0.83,1.78c0.44,0.4,0.96,0.59,1.58,0.59c0.74,0,1.37,-0.28,1.88,-0.84c0.52,-0.56,0.77,-1.3,0.77,-2.23c0,-0.87,-0.25,-1.57,-0.74,-2.08c-0.49,-0.51,-1.14,-0.77,-1.95,-0.77c-0.49,0,-0.93,0.11,-1.34,0.34c-0.4,0.23,-0.72,0.52,-0.95,0.87l-1.44,-0.19l1.22,-6.44l6.22,0l0,1.47l-5,0l-0.67,3.37c0.75,-0.53,1.54,-0.8,2.37,-0.8c1.09,0,2.02,0.38,2.77,1.14c0.75,0.76,1.12,1.73,1.12,2.92c0,1.14,-0.33,2.11,-0.98,2.94c-0.8,1.02,-1.9,1.53,-3.3,1.53c-1.14,0,-2.07,-0.32,-2.79,-0.96c-0.72,-0.64,-1.14,-1.49,-1.24,-2.54" fill="#000000" stroke="none" fill-opacity="1"/>
<path d="m26.83,123.91c0,-1.49,0.15,-2.68,0.46,-3.59c0.31,-0.9,0.76,-1.6,1.36,-2.09c0.6,-0.49,1.36,-0.73,2.27,-0.73c0.67,0,1.26,0.14,1.77,0.41c0.51,0.27,0.93,0.66,1.26,1.17c0.33,0.51,0.59,1.13,0.77,1.86c0.19,0.73,0.28,1.72,0.28,2.97c0,1.47,-0.15,2.65,-0.45,3.55c-0.3,0.9,-0.75,1.6,-1.35,2.09c-0.6,0.49,-1.36,0.74,-2.27,0.74c-1.21,0,-2.16,-0.43,-2.84,-1.3c-0.83,-1.05,-1.25,-2.75,-1.25,-5.09m1.59,0c0,2.05,0.24,3.42,0.72,4.1c0.48,0.68,1.07,1.02,1.78,1.02c0.71,0,1.3,-0.34,1.78,-1.03c0.48,-0.69,0.72,-2.05,0.72,-4.09c0,-2.06,-0.24,-3.43,-0.72,-4.12c-0.48,-0.68,-1.08,-1.02,-1.8,-1.02c-0.71,0,-1.27,0.3,-1.69,0.91c-0.53,0.76,-0.8,2.17,-0.8,4.23" fill="#000000" stroke="none" fill-opacity="1"/>
<path d="m11.83,87.45c0,-1.49,0.15,-2.68,0.46,-3.59c0.31,-0.9,0.76,-1.6,1.36,-2.09c0.6,-0.49,1.36,-0.73,2.27,-0.73c0.67,0,1.26,0.14,1.77,0.41c0.51,0.27,0.93,0.66,1.26,1.17c0.33,0.51,0.59,1.13,0.77,1.86c0.19,0.73,0.28,1.72,0.28,2.97c0,1.47,-0.15,2.65,-0.45,3.55c-0.3,0.9,-0.75,1.6,-1.35,2.09c-0.6,0.49,-1.36,0.74,-2.27,0.74c-1.21,0,-2.16,-0.43,-2.84,-1.3c-0.83,-1.05,-1.25,-2.75,-1.25,-5.09m1.59,0c0,2.05,0.24,3.42,0.72,4.1c0.48,0.68,1.07,1.02,1.78,1.02c0.71,0,1.3,-0.34,1.78,-1.03c0.48,-0.69,0.72,-2.05,0.72,-4.09c0,-2.06,-0.24,-3.43,-0.72,-4.12c-0.48,-0.68,-1.08,-1.02,-1.8,-1.02c-0.71,0,-1.27,0.3,-1.69,0.91c-0.53,0.76,-0.8,2.17,-0.8,4.23m9.28,6.17l0,-1.75l1.75,0l0,1.75l-1.75,0m4.12,-3.28l1.62,-0.14c0.11,0.79,0.39,1.39,0.83,1.78c0.44,0.4,0.96,0.59,1.58,0.59c0.74,0,1.37,-0.28,1.88,-0.84c0.52,-0.56,0.77,-1.3,0.77,-2.23c0,-0.87,-0.25,-1.57,-0.74,-2.08c-0.49,-0.51,-1.14,-0.77,-1.95,-0.77c-0.49,0,-0.93,0.11,-1.34,0.34c-0.4,0.23,-0.72,0.52,-0.95,0.87l-1.44,-0.19l1.22,-6.44l6.22,0l0,1.47l-5,0l-0.67,3.37c0.75,-0.53,1.54,-0.8,2.37,-0.8c1.09,0,2.02,0.38,2.77,1.14c0.75,0.76,1.12,1.73,1.12,2.92c0,1.14,-0.33,2.11,-0.98,2.94c-0.8,1.02,-1.9,1.53,-3.3,1.53c-1.14,0,-2.07,-0.32,-2.79,-0.96c-0.72,-0.64,-1.14,-1.49,-1.24,-2.54" fill="#000000" stroke="none" fill-opacity="1"/>
<path d="m32.62,57.17l-1.53,0l0,-9.8c-0.37,0.35,-0.86,0.71,-1.46,1.05c-0.6,0.35,-1.14,0.61,-1.62,0.79l0,-1.48c0.86,-0.41,1.62,-0.9,2.26,-1.47c0.64,-0.57,1.1,-1.13,1.37,-1.67l0.98,0l0,12.58" fill="#000000" stroke="none" fill-opacity="1"/>
<path d="m17.62,20.72l-1.53,0l0,-9.8c-0.37,0.35,-0.86,0.71,-1.46,1.05c-0.6,0.35,-1.14,0.61,-1.62,0.79l0,-1.48c0.86,-0.41,1.62,-0.9,2.26,-1.47c0.64,-0.57,1.1,-1.13,1.37,-1.67l0.98,0l0,12.58m5.08,0l0,-1.75l1.75,0l0,1.75l-1.75,0m4.12,-3.28l1.62,-0.14c0.11,0.79,0.39,1.39,0.83,1.78c0.44,0.4,0.96,0.59,1.58,0.59c0.74,0,1.37,-0.28,1.88,-0.84c0.52,-0.56,0.77,-1.3,0.77,-2.23c0,-0.87,-0.25,-1.57,-0.74,-2.08c-0.49,-0.51,-1.14,-0.77,-1.95,-0.77c-0.49,0,-0.93,0.11,-1.34,0.34c-0.4,0.23,-0.72,0.52,-0.95,0.87l-1.44,-0.19l1.22,-6.44l6.22,0l0,1.47l-5,0l-0.67,3.37c0.75,-0.53,1.54,-0.8,2.37,-0.8c1.09,0,2.02,0.38,2.77,1.14c0.75,0.76,1.12,1.73,1.12,2.92c0,1.14,-0.33,2.11,-0.98,2.94c-0.8,1.02,-1.9,1.53,-3.3,1.53c-1.14,0,-2.07,-0.32,-2.79,-0.96c-0.72,-0.64,-1.14,-1.49,-1.24,-2.54" fill="#000000" stroke="none" fill-opacity="1"/>
</g>
<g stroke-width="0.62" stroke-linecap="butt" fill="none">
<path d="M39.12,232.96l218.73,0"/>
<path d="M39.12,232.96l0,-3.75M49.3,232.96l0,-3.75M59.47,232.96l0,-3.75M69.64,232.96l0,-3.75M79.82,232.96l0,-3.75M89.99,232.96l0,-3.75M100.16,232.96l0,-3.75M110.34,232.96l0,-3.75M120.51,232.96l0,-3.75M130.68,232.96l0,-3.75M140.86,232.96l0,-3.75M151.03,232.96l0,-3.75M161.2,232.96l0,-3.75M171.38,232.96l0,-3.75M181.55,232.96l0,-3.75M191.73,232.96l0,-3.75M201.9,232.96l0,-3.75M212.07,232.96l0,-3.75M222.25,232.96l0,-3.75M232.42,232.96l0,-3.75M242.59,232.96l0,-3.75M252.77,232.96l0,-3.75"/>
<path d="M39.12,232.96l0,-7.5M89.99,232.96l0,-7.5M140.86,232.96l0,-7.5M191.73,232.96l0,-7.5M242.59,232.96l0,-7.5"/>
<path d="M39.12,14.23l218.73,0"/>
<path d="M39.12,14.23l0,3.75M49.3,14.23l0,3.75M59.47,14.23l0,3.75M69.64,14.23l0,3.75M79.82,14.23l0,3.75M89.99,14.23l0,3.75M100.16,14.23l0,3.75M110.34,14.23l0,3.75M120.51,14.23l0,3.75M130.68,14.23l0,3.75M140.86,14.23l0,3.75M151.03,14.23l0,3.75M161.2,14.23l0,3.75M171.38,14.23l0,3.75M181.55,14.23l0,3.75M191.73,14.23l0,3.75M201.9,14.23l0,3.75M212.07,14.23l0,3.75M222.25,14.23l0,3.75M232.42,14.23l0,3.75M242.59,14.23l0,3.75M252.77,14.23l0,3.75"/>
<path d="M39.12,14.23l0,7.5M89.99,14.23l0,7.5M140.86,14.23l0,7.5M191.73,14.23l0,7.5M242.59,14.23l0,7.5"/>
</g>
<g stroke-width="1" fill="none">
<path d="m34.83,245.78c0,-1.49,0.15,-2.68,0.46,-3.59c0.31,-0.9,0.76,-1.6,1.36,-2.09c0.6,-0.49,1.36,-0.73,2.27,-0.73c0.67,0,1.26,0.14,1.77,0.41c0.51,0.27,0.93,0.66,1.26,1.17c0.33,0.51,0.59,1.13,0.77,1.86c0.19,0.73,0.28,1.72,0.28,2.97c0,1.47,-0.15,2.65,-0.45,3.55c-0.3,0.9,-0.75,1.6,-1.35,2.09c-0.6,0.49,-1.36,0.74,-2.27,0.74c-1.21,0,-2.16,-0.43,-2.84,-1.3c-0.83,-1.05,-1.25,-2.75,-1.25,-5.09m1.59,0c0,2.05,0.24,3.42,0.72,4.1c0.48,0.68,1.07,1.02,1.78,1.02c0.71,0,1.3,-0.34,1.78,-1.03c0.48,-0.69,0.72,-2.05,0.72,-4.09c0,-2.06,-0.24,-3.43,-0.72,-4.12c-0.48,-0.68,-1.08,-1.02,-1.8,-1.02c-0.71,0,-1.27,0.3,-1.69,0.91c-0.53,0.76,-0.8,2.17,-0.8,4.23" fill="#000000" stroke="none" fill-opacity="1"/>
<path d="m85.7,248.67l1.62,-0.14c0.11,0.79,0.39,1.39,0.83,1.78c0.44,0.4,0.96,0.59,1.58,0.59c0.74,0,1.37,-0.28,1.88,-0.84c0.52,-0.56,0.77,-1.3,0.77,-2.23c0,-0.87,-0.25,-1.57,-0.74,-2.08c-0.49,-0.51,-1.14,-0.77,-1.95,-0.77c-0.49,0,-0.93,0.11,-1.34,0.34c-0.4,0.23,-0.72,0.52,-0.95,0.87l-1.44,-0.19l1.22,-6.44l6.22,0l0,1.47l-5,0l-0.67,3.37c0.75,-0.53,1.54,-0.8,2.37,-0.8c1.09,0,2.02,0.38,2.77,1.14c0.75,0.76,1.12,1.73,1.12,2.92c0,1.14,-0.33,2.11,-0.98,2.94c-0.8,1.02,-1.9,1.53,-3.3,1.53c-1.14,0,-2.07,-0.32,-2.79,-0.96c-0.72,-0.64,-1.14,-1.49,-1.24,-2.54" fill="#000000" stroke="none" fill-opacity="1"/>
<path d="m137.36,251.95l-1.53,0l0,-9.8c-0.37,0.35,-0.86,0.71,-1.46,1.05c-0.6,0.35,-1.14,0.61,-1.62,0.79l0,-1.48c0.86,-0.41,1.62,-0.9,2.26,-1.47c0.64,-0.57,1.1,-1.13,1.37,-1.67l0.98,0l0,12.58m4.2,-6.17c0,-1.49,0.15,-2.68,0.46,-3.59c0.31,-0.9,0.76,-1.6,1.36,-2.09c0.6,-0.49,1.36,-0.73,2.27,-0.73c0.67,0,1.26,0.14,1.77,0.41c0.51,0.27,0.93,0.66,1.26,1.17c0.33,0.51,0.59,1.13,0.77,1.86c0.19,0.73,0.28,1.72,0.28,2.97c0,1.47,-0.15,2.65,-0.45,3.55c-0.3,0.9,-0.75,1.6,-1.35,2.09c-0.6,0.49,-1.36,0.74,-2.27,0.74c-1.21,0,-2.16,-0.43,-2.84,-1.3c-0.83,-1.05,-1.25,-2.75,-1.25,-5.09m1.59,0c0,2.05,0.24,3.42,0.72,4.1c0.48,0.68,1.07,1.02,1.78,1.02c0.71,0,1.3,-0.34,1.78,-1.03c0.48,-0.69,0.72,-2.05,0.72,-4.09c0,-2.06,-0.24,-3.43,-0.72,-4.12c-0.48,-0.68,-1.08,-1.02,-1.8,-1.02c-0.71,0,-1.27,0.3,-1.69,0.91c-0.53,0.76,-0.8,2.17,-0.8,4.23" fill="#000000" stroke="none" fill-opacity="1"/>
<path d="m188.23,251.95l-1.53,0l0,-9.8c-0.37,0.35,-0.86,0.71,-1.46,1.05c-0.6,0.35,-1.14,0.61,-1.62,0.79l0,-1.48c0.86,-0.41,1.62,-0.9,2.26,-1.47c0.64,-0.57,1.1,-1.13,1.37,-1.67l0.98,0l0,12.58m4.2,-3.28l1.62,-0.14c0.11,0.79,0.39,1.39,0.83,1.78c0.44,0.4,0.96,0.59,1.58,0.59c0.74,0,1.37,-0.28,1.88,-0.84c0.52,-0.56,0.77,-1.3,0.77,-2.23c0,-0.87,-0.25,-1.57,-0.74,-2.08c-0.49,-0.51,-1.14,-0.77,-1.95,-0.77c-0.49,0,-0.93,0.11,-1.34,0.34c-0.4,0.23,-0.72,0.52,-0.95,0.87l-1.44,-0.19l1.22,-6.44l6.22,0l0,1.47l-5,0l-0.67,3.37c0.75,-0.53,1.54,-0.8,2.37,-0.8c1.09,0,2.02,0.38,2.77,1.14c0.75,0.76,1.12,1.73,1.12,2.92c0,1.14,-0.33,2.11,-0.98,2.94c-0.8,1.02,-1.9,1.53,-3.3,1.53c-1.14,0,-2.07,-0.32,-2.79,-0.96c-0.72,-0.64,-1.14,-1.49,-1.24,-2.54" fill="#000000" stroke="none" fill-opacity="1"/>
<path d="m241.39,250.47l0,1.48l-8.28,0c-0.01,-0.37,0.05,-0.73,0.17,-1.06c0.22,-0.57,0.56,-1.13,1.02,-1.68c0.46,-0.55,1.13,-1.17,2.01,-1.88c1.36,-1.12,2.29,-2.01,2.77,-2.66c0.48,-0.65,0.72,-1.27,0.72,-1.85c0,-0.6,-0.22,-1.12,-0.66,-1.54c-0.44,-0.42,-1.01,-0.63,-1.7,-0.63c-0.74,0,-1.33,0.22,-1.78,0.67c-0.45,0.45,-0.67,1.06,-0.67,1.84l-1.58,-0.16c0.1,-1.18,0.51,-2.08,1.22,-2.7c0.71,-0.62,1.66,-0.93,2.84,-0.93c1.2,0,2.15,0.33,2.85,1c0.7,0.67,1.05,1.49,1.05,2.48c0,0.5,-0.1,0.99,-0.31,1.48c-0.21,0.48,-0.55,0.99,-1.02,1.52c-0.47,0.53,-1.26,1.27,-2.37,2.2c-0.93,0.78,-1.52,1.31,-1.78,1.59c-0.26,0.28,-0.47,0.55,-0.64,0.82l6.14,0m1.91,-4.69c0,-1.49,0.15,-2.68,0.46,-3.59c0.31,-0.9,0.76,-1.6,1.36,-2.09c0.6,-0.49,1.36,-0.73,2.27,-0.73c0.67,0,1.26,0.14,1.77,0.41c0.51,0.27,0.93,0.66,1.26,1.17c0.33,0.51,0.59,1.13,0.77,1.86c0.19,0.73,0.28,1.72,0.28,2.97c0,1.47,-0.15,2.65,-0.45,3.55c-0.3,0.9,-0.75,1.6,-1.35,2.09c-0.6,0.49,-1.36,0.74,-2.27,0.74c-1.21,0,-2.16,-0.43,-2.84,-1.3c-0.83,-1.05,-1.25,-2.75,-1.25,-5.09m1.59,0c0,2.05,0.24,3.42,0.72,4.1c0.48,0.68,1.07,1.02,1.78,1.02c0.71,0,1.3,-0.34,1.78,-1.03c0.48,-0.69,0.72,-2.05,0.72,-4.09c0,-2.06,-0.24,-3.43,-0.72,-4.12c-0.48,-0.68,-1.08,-1.02,-1.8,-1.02c-0.71,0,-1.27,0.3,-1.69,0.91c-0.53,0.76,-0.8,2.17,-0.8,4.23" fill="#000000" stroke="none" fill-opacity="1"/>
</g>
<g stroke-width="0.62" fill="#ffffff">
<path d="m300.53,14.23l218.73,0l0,218.73l-218.73,0l0,-218.73"/>
</g>
<g stroke-width="1" fill="none">
<path d="m377.77,44.17l1.48,0.22c0.07,0.47,0.25,0.81,0.53,1.02c0.37,0.28,0.9,0.42,1.56,0.42c0.71,0,1.26,-0.14,1.65,-0.42c0.39,-0.28,0.65,-0.68,0.79,-1.2c0.07,-0.31,0.11,-0.97,0.11,-1.97c-0.68,0.79,-1.52,1.19,-2.52,1.19c-1.25,0,-2.22,-0.45,-2.9,-1.35c-0.68,-0.9,-1.02,-1.98,-1.02,-3.24c0,-0.86,0.16,-1.66,0.47,-2.39c0.31,-0.73,0.77,-1.29,1.37,-1.7c0.6,-0.4,1.3,-0.6,2.1,-0.6c1.06,0,1.94,0.43,2.64,1.3l0,-1.09l1.42,0l0,7.84c0,1.42,-0.14,2.42,-0.43,3.01c-0.29,0.59,-0.74,1.05,-1.37,1.4c-0.62,0.34,-1.4,0.52,-2.31,0.52c-1.07,0,-1.94,-0.24,-2.61,-0.73c-0.67,-0.49,-0.99,-1.22,-0.97,-2.2m1.27,-5.45c0,1.2,0.24,2.07,0.71,2.62c0.47,0.55,1.07,0.82,1.77,0.82c0.71,0,1.3,-0.27,1.78,-0.82c0.48,-0.55,0.72,-1.4,0.72,-2.57c0,-1.1,-0.25,-1.94,-0.74,-2.5c-0.49,-0.56,-1.09,-0.84,-1.77,-0.84c-0.69,0,-1.27,0.28,-1.75,0.83c-0.48,0.55,-0.72,1.37,-0.72,2.47m9,4.7l0,-9.08l1.37,0l0,1.37c0.35,-0.65,0.68,-1.07,0.98,-1.27c0.3,-0.2,0.63,-0.3,0.98,-0.3c0.52,0,1.05,0.17,1.58,0.5l-0.53,1.42c-0.37,-0.22,-0.75,-0.33,-1.12,-0.33c-0.33,0,-0.63,0.1,-0.9,0.3c-0.27,0.2,-0.46,0.48,-0.57,0.84c-0.18,0.55,-0.27,1.15,-0.27,1.8l0,4.75l-1.53,0m5.44,-4.53c0,-1.69,0.47,-2.93,1.41,-3.73c0.78,-0.68,1.73,-1.02,2.86,-1.02c1.24,0,2.26,0.41,3.05,1.23c0.79,0.82,1.19,1.95,1.19,3.38c0,1.18,-0.17,2.1,-0.52,2.77c-0.35,0.67,-0.86,1.18,-1.52,1.55c-0.67,0.37,-1.4,0.55,-2.19,0.55c-1.27,0,-2.3,-0.41,-3.09,-1.22c-0.79,-0.81,-1.18,-1.98,-1.18,-3.52m1.58,0c0,1.16,0.26,2.02,0.77,2.6c0.51,0.58,1.15,0.87,1.92,0.87c0.76,0,1.39,-0.29,1.9,-0.87c0.51,-0.58,0.76,-1.47,0.76,-2.66c0,-1.11,-0.26,-1.96,-0.77,-2.54c-0.51,-0.58,-1.14,-0.87,-1.89,-0.87c-0.77,0,-1.41,0.29,-1.92,0.86c-0.51,0.57,-0.77,1.44,-0.77,2.61m14.94,4.53l0,-1.33c-0.7,1.02,-1.66,1.53,-2.87,1.53c-0.53,0,-1.03,-0.1,-1.49,-0.3c-0.46,-0.2,-0.81,-0.46,-1.04,-0.77c-0.23,-0.31,-0.39,-0.69,-0.47,-1.14c-0.06,-0.3,-0.09,-0.78,-0.09,-1.44l0,-5.62l1.53,0l0,5.03c0,0.8,0.03,1.34,0.09,1.62c0.09,0.41,0.3,0.72,0.62,0.95c0.32,0.23,0.71,0.34,1.16,0.34c0.46,0,0.89,-0.12,1.3,-0.35c0.41,-0.23,0.69,-0.55,0.86,-0.96c0.17,-0.41,0.25,-1,0.25,-1.78l0,-4.86l1.55,0l0,9.08l-1.39,0m4.06,3.48l0,-12.56l1.41,0l0,1.19c0.32,-0.47,0.69,-0.82,1.11,-1.05c0.42,-0.23,0.92,-0.34,1.52,-0.34c0.77,0,1.45,0.2,2.05,0.6c0.59,0.4,1.04,0.96,1.34,1.69c0.3,0.72,0.45,1.52,0.45,2.38c0,0.93,-0.17,1.76,-0.5,2.51c-0.33,0.74,-0.82,1.32,-1.45,1.71c-0.64,0.4,-1.3,0.59,-2,0.59c-0.51,0,-0.97,-0.11,-1.38,-0.32c-0.41,-0.21,-0.75,-0.49,-1.01,-0.82l0,4.42l-1.53,0m1.39,-7.97c0,1.17,0.24,2.03,0.71,2.59c0.47,0.56,1.04,0.84,1.71,0.84c0.69,0,1.27,-0.29,1.76,-0.87c0.48,-0.58,0.73,-1.47,0.73,-2.68c0,-1.16,-0.24,-2.02,-0.71,-2.6c-0.47,-0.58,-1.04,-0.87,-1.7,-0.87c-0.66,0,-1.24,0.31,-1.74,0.92c-0.51,0.61,-0.76,1.51,-0.76,2.67m14.81,1.56l1.59,0.2c-0.25,0.93,-0.71,1.65,-1.39,2.16c-0.68,0.51,-1.54,0.77,-2.59,0.77c-1.33,0,-2.39,-0.41,-3.16,-1.23c-0.78,-0.82,-1.16,-1.96,-1.16,-3.43c0,-1.53,0.39,-2.72,1.18,-3.56c0.79,-0.84,1.8,-1.27,3.05,-1.27c1.22,0,2.21,0.41,2.98,1.24c0.77,0.83,1.15,1.99,1.15,3.49c0,0.08,0,0.22,0,0.41l-6.77,0c0.05,0.99,0.33,1.75,0.84,2.28c0.51,0.53,1.14,0.8,1.89,0.8c0.56,0,1.04,-0.15,1.45,-0.45c0.4,-0.3,0.72,-0.77,0.95,-1.41m-5.05,-2.48l5.08,0c-0.07,-0.76,-0.27,-1.33,-0.59,-1.72c-0.49,-0.59,-1.12,-0.89,-1.91,-0.89c-0.7,0,-1.29,0.24,-1.77,0.71c-0.48,0.47,-0.75,1.11,-0.8,1.9m14.73,5.41l0,-1.14c-0.58,0.9,-1.43,1.34,-2.55,1.34c-0.72,0,-1.38,-0.2,-1.99,-0.59c-0.61,-0.4,-1.08,-0.95,-1.41,-1.67c-0.33,-0.72,-0.5,-1.54,-0.5,-2.47c0,-0.91,0.15,-1.73,0.45,-2.46c0.3,-0.73,0.76,-1.3,1.36,-1.7c0.6,-0.4,1.28,-0.59,2.03,-0.59c0.54,0,1.03,0.11,1.45,0.34c0.43,0.23,0.78,0.53,1.05,0.91l0,-4.5l1.53,0l0,12.53l-1.42,0m-4.87,-4.53c0,1.17,0.25,2.04,0.74,2.61c0.49,0.57,1.08,0.86,1.74,0.86c0.67,0,1.23,-0.27,1.7,-0.82c0.47,-0.55,0.7,-1.39,0.7,-2.52c0,-1.24,-0.24,-2.15,-0.72,-2.73c-0.48,-0.58,-1.07,-0.87,-1.77,-0.87c-0.68,0,-1.25,0.28,-1.71,0.84c-0.46,0.56,-0.7,1.43,-0.7,2.63" fill="#000000" stroke="none" fill-opacity="1"/>
<path d="m389.05,63.42l0,-9.08l1.37,0l0,1.28c0.28,-0.45,0.66,-0.81,1.13,-1.08c0.47,-0.27,1.01,-0.41,1.62,-0.41c0.68,0,1.23,0.14,1.66,0.42c0.43,0.28,0.73,0.67,0.91,1.17c0.72,-1.06,1.65,-1.59,2.8,-1.59c0.91,0,1.6,0.25,2.09,0.75c0.48,0.5,0.73,1.27,0.73,2.3l0,6.23l-1.53,0l0,-5.72c0,-0.61,-0.05,-1.06,-0.15,-1.33c-0.1,-0.27,-0.28,-0.49,-0.55,-0.66c-0.27,-0.17,-0.57,-0.25,-0.91,-0.25c-0.65,0,-1.18,0.21,-1.6,0.64c-0.42,0.43,-0.63,1.11,-0.63,2.05l0,5.27l-1.53,0l0,-5.89c0,-0.69,-0.12,-1.2,-0.37,-1.55c-0.25,-0.34,-0.66,-0.52,-1.23,-0.52c-0.43,0,-0.83,0.11,-1.2,0.34c-0.37,0.23,-0.64,0.56,-0.8,1c-0.17,0.44,-0.25,1.07,-0.25,1.91l0,4.7l-1.53,0m13.42,-4.53c0,-1.69,0.47,-2.93,1.41,-3.73c0.78,-0.68,1.73,-1.02,2.86,-1.02c1.24,0,2.26,0.41,3.05,1.23c0.79,0.82,1.19,1.95,1.19,3.38c0,1.18,-0.17,2.1,-0.52,2.77c-0.35,0.67,-0.86,1.18,-1.52,1.55c-0.67,0.37,-1.4,0.55,-2.19,0.55c-1.27,0,-2.3,-0.41,-3.09,-1.22c-0.79,-0.81,-1.18,-1.98,-1.18,-3.52m1.58,0c0,1.16,0.26,2.02,0.77,2.6c0.51,0.58,1.15,0.87,1.92,0.87c0.76,0,1.39,-0.29,1.9,-0.87c0.51,-0.58,0.76,-1.47,0.76,-2.66c0,-1.11,-0.26,-1.96,-0.77,-2.54c-0.51,-0.58,-1.14,-0.87,-1.89,-0.87c-0.77,0,-1.41,0.29,-1.92,0.86c-0.51,0.57,-0.77,1.44,-0.77,2.61m14.89,4.53l0,-1.14c-0.58,0.9,-1.43,1.34,-2.55,1.34c-0.72,0,-1.38,-0.2,-1.99,-0.59c-0.61,-0.4,-1.08,-0.95,-1.41,-1.67c-0.33,-0.72,-0.5,-1.54,-0.5,-2.47c0,-0.91,0.15,-1.73,0.45,-2.46c0.3,-0.73,0.76,-1.3,1.36,-1.7c0.6,-0.4,1.28,-0.59,2.03,-0.59c0.54,0,1.03,0.11,1.45,0.34c0.43,0.23,0.78,0.53,1.05,0.91l0,-4.5l1.53,0l0,12.53l-1.42,0m-4.87,-4.53c0,1.17,0.25,2.04,0.74,2.61c0.49,0.57,1.08,0.86,1.74,0.86c0.67,0,1.23,-0.27,1.7,-0.82c0.47,-0.55,0.7,-1.39,0.7,-2.52c0,-1.24,-0.24,-2.15,-0.72,-2.73c-0.48,-0.58,-1.07,-0.87,-1.77,-0.87c-0.68,0,-1.25,0.28,-1.71,0.84c-0.46,0.56,-0.7,1.43,-0.7,2.63m15.19,1.61l1.59,0.2c-0.25,0.93,-0.71,1.65,-1.39,2.16c-0.68,0.51,-1.54,0.77,-2.59,0.77c-1.33,0,-2.39,-0.41,-3.16,-1.23c-0.78,-0.82,-1.16,-1.96,-1.16,-3.43c0,-1.53,0.39,-2.72,1.18,-3.56c0.79,-0.84,1.8,-1.27,3.05,-1.27c1.22,0,2.21,0.41,2.98,1.24c0.77,0.83,1.15,1.99,1.15,3.49c0,0.08,0,0.22,0,0.41l-6.77,0c0.05,0.99,0.33,1.75,0.84,2.28c0.51,0.53,1.14,0.8,1.89,0.8c0.56,0,1.04,-0.15,1.45,-0.45c0.4,-0.3,0.72,-0.77,0.95,-1.41m-5.05,-2.48l5.08,0c-0.07,-0.76,-0.27,-1.33,-0.59,-1.72c-0.49,-0.59,-1.12,-0.89,-1.91,-0.89c-0.7,0,-1.29,0.24,-1.77,0.71c-0.48,0.47,-0.75,1.11,-0.8,1.9" fill="#000000" stroke="none" fill-opacity="1"/>
</g>
</g>
<g clip-path="url(#c2)">
<g stroke-width="0.62" fill="#0055ff">
<path d="m316.87,81l3.43,0l0,42.59l-3.43,0l0,-42.59"/>
<path d="m327.05,45.14l3.43,0l0,78.45l-3.43,0l0,-78.45"/>
<path d="m337.22,21.66l3.43,0l0,101.93l-3.43,0l0,-101.93"/>
<path d="m347.39,14.27l3.43,0l0,109.32l-3.43,0l0,-109.32"/>
<path d="m357.57,24.15l3.43,0l0,99.45l-3.43,0l0,-99.45"/>
<path d="m367.74,49.72l3.43,0l0,73.87l-3.43,0l0,-73.87"/>
<path d="m377.91,86.96l3.43,0l0,36.64l-3.43,0l0,-36.64"/>
<path d="m388.09,123.59l3.43,0l0,6.38l-3.43,0l0,-6.38"/>
<path d="m398.26,123.59l3.43,0l0,48.4l-3.43,0l0,-48.4"/>
<path d="m408.44,123.59l3.43,0l0,82.77l-3.43,0l0,-82.77"/>
<path d="m418.61,123.59l3.43,0l0,104.07l-3.43,0l0,-104.07"/>
<path d="m428.78,123.59l3.43,0l0,108.95l-3.43,0l0,-108.95"/>
<path d="m438.96,123.59l3.43,0l0,96.62l-3.43,0l0,-96.62"/>
<path d="m449.13,123.59l3.43,0l0,69.04l-3.43,0l0,-69.04"/>
<path d="m459.3,123.59l3.43,0l0,30.56l-3.43,0l0,-30.56"/>
<path d="m469.48,110.85l3.43,0l0,12.75l-3.43,0l0,-12.75"/>
<path d="m479.65,69.55l3.43,0l0,54.04l-3.43,0l0,-54.04"/>
<path d="m489.82,36.79l3.43,0l0,86.8l-3.43,0l0,-86.8"/>
<path d="m500,17.73l3.43,0l0,105.86l-3.43,0l0,-105.86"/>
<path d="m510.17,15.39l3.43,0l0,108.2l-3.43,0l0,-108.2"/>
</g>
<g stroke-width="0.62" fill="#ff557f">
<path d="m311.28,14.23l3.43,0l0,109.37l-3.43,0l0,-109.37"/>
<path d="m321.45,22.86l3.43,0l0,100.73l-3.43,0l0,-100.73"/>
<path d="m331.63,47.4l3.43,0l0,76.2l-3.43,0l0,-76.2"/>
<path d="m341.8,83.96l3.43,0l0,39.63l-3.43,0l0,-39.63"/>
<path d="m351.97,123.59l3.43,0l0,3.19l-3.43,0l0,-3.19"/>
<path d="m362.15,123.59l3.43,0l0,45.51l-3.43,0l0,-45.51"/>
<path d="m372.32,123.59l3.43,0l0,80.65l-3.43,0l0,-80.65"/>
<path d="m382.49,123.59l3.43,0l0,103.05l-3.43,0l0,-103.05"/>
<path d="m392.67,123.59l3.43,0l0,109.18l-3.43,0l0,-109.18"/>
<path d="m402.84,123.59l3.43,0l0,98.07l-3.43,0l0,-98.07"/>
<path d="m413.01,123.59l3.43,0l0,71.49l-3.43,0l0,-71.49"/>
<path d="m423.19,123.59l3.43,0l0,33.61l-3.43,0l0,-33.61"/>
<path d="m433.36,114.02l3.43,0l0,9.57l-3.43,0l0,-9.57"/>
<path d="m443.53,72.35l3.43,0l0,51.24l-3.43,0l0,-51.24"/>
<path d="m453.71,38.77l3.43,0l0,84.82l-3.43,0l0,-84.82"/>
<path d="m463.88,18.58l3.43,0l0,105.01l-3.43,0l0,-105.01"/>
<path d="m474.05,14.97l3.43,0l0,108.62l-3.43,0l0,-108.62"/>
<path d="m484.23,28.51l3.43,0l0,95.08l-3.43,0l0,-95.08"/>
<path d="m494.4,57.06l3.43,0l0,66.53l-3.43,0l0,-66.53"/>
<path d="m504.57,96.11l3.43,0l0,27.48l-3.43,0l0,-27.48"/>
<path d="m514.75,123.59l3.43,0l0,15.91l-3.43,0l0,-15.91"/>
</g>
</g>
<g clip-path="url(#c0)">
<g stroke-width="0.62" stroke-linecap="butt" fill="none">
<path d="M300.53,232.96l0,-218.73"/>
<path d="M300.53,232.96l3.75,0M300.53,222.02l3.75,0M300.53,211.08l3.75,0M300.53,200.15l3.75,0M300.53,189.21l3.75,0M300.53,178.27l3.75,0M300.53,167.34l3.75,0M300.53,156.4l3.75,0M300.53,145.46l3.75,0M300.53,134.53l3.75,0M300.53,123.59l3.75,0M300.53,112.66l3.75,0M300.53,101.72l3.75,0M300.53,90.78l3.75,0M300.53,79.85l3.75,0M300.53,68.91l3.75,0M300.53,57.97l3.75,0M300.53,47.04l3.75,0M300.53,36.1l3.75,0M300.53,25.16l3.75,0M300.53,14.23l3.75,0"/>
<path d="M300.53,232.96l7.5,0M300.53,178.27l7.5,0M300.53,123.59l7.5,0M300.53,68.91l7.5,0M300.53,14.23l7.5,0"/>
<path d="M519.26,232.96l0,-218.73"/>
<path d="M519.26,232.96l-3.75,0M519.26,222.02l-3.75,0M519.26,211.08l-3.75,0M519.26,200.15l-3.75,0M519.26,189.21l-3.75,0M519.26,178.27l-3.75,0M519.26,167.34l-3.75,0M519.26,156.4l-3.75,0M519.26,145.46l-3.75,0M519.26,134.53l-3.75,0M519.26,123.59l-3.75,0M519.26,112.66l-3.75,0M519.26,101.72l-3.75,0M519.26,90.78l-3.75,0M519.26,79.85l-3.75,0M519.26,68.91l-3.75,0M519.26,57.97l-3.75,0M519.26,47.04l-3.75,0M519.26,36.1l-3.75,0M519.26,25.16l-3.75,0M519.26,14.23l-3.75,0"/>
<path d="M519.26,232.96l-7.5,0M519.26,178.27l-7.5,0M519.26,123.59l-7.5,0M519.26,68.91l-7.5,0M519.26,14.23l-7.5,0"/>
</g>
<g stroke-width="1" fill="none">
<path d="m285.78,234l-8.28,0l0,-1.44l8.28,0l0,1.44m8.27,5.45l-1.53,0l0,-9.8c-0.37,0.35,-0.86,0.71,-1.46,1.05c-0.6,0.35,-1.14,0.61,-1.62,0.79l0,-1.48c0.86,-0.41,1.62,-0.9,2.26,-1.47c0.64,-0.57,1.1,-1.13,1.37,-1.67l0.98,0l0,12.58" fill="#000000" stroke="none" fill-opacity="1"/>
<path d="m270.78,179.31l-8.28,0l0,-1.44l8.28,0l0,1.44m2.47,-0.72c0,-1.49,0.15,-2.68,0.46,-3.59c0.31,-0.9,0.76,-1.6,1.36,-2.09c0.6,-0.49,1.36,-0.73,2.27,-0.73c0.67,0,1.26,0.14,1.77,0.41c0.51,0.27,0.93,0.66,1.26,1.17c0.33,0.51,0.59,1.13,0.77,1.86c0.19,0.73,0.28,1.72,0.28,2.97c0,1.47,-0.15,2.65,-0.45,3.55c-0.3,0.9,-0.75,1.6,-1.35,2.09c-0.6,0.49,-1.36,0.74,-2.27,0.74c-1.21,0,-2.16,-0.43,-2.84,-1.3c-0.83,-1.05,-1.25,-2.75,-1.25,-5.09m1.59,0c0,2.05,0.24,3.42,0.72,4.1c0.48,0.68,1.07,1.02,1.78,1.02c0.71,0,1.3,-0.34,1.78,-1.03c0.48,-0.69,0.72,-2.05,0.72,-4.09c0,-2.06,-0.24,-3.43,-0.72,-4.12c-0.48,-0.68,-1.08,-1.02,-1.8,-1.02c-0.71,0,-1.27,0.3,-1.69,0.91c-0.53,0.76,-0.8,2.17,-0.8,4.23m9.28,6.17l0,-1.75l1.75,0l0,1.75l-1.75,0m4.12,-3.28l1.62,-0.14c0.11,0.79,0.39,1.39,0.83,1.78c0.44,0.4,0.96,0.59,1.58,0.59c0.74,0,1.37,-0.28,1.88,-0.84c0.52,-0.56,0.77,-1.3,0.77,-2.23c0,-0.87,-0.25,-1.57,-0.74,-2.08c-0.49,-0.51,-1.14,-0.77,-1.95,-0.77c-0.49,0,-0.93,0.11,-1.34,0.34c-0.4,0.23,-0.72,0.52,-0.95,0.87l-1.44,-0.19l1.22,-6.44l6.22,0l0,1.47l-5,0l-0.67,3.37c0.75,-0.53,1.54,-0.8,2.37,-0.8c1.09,0,2.02,0.38,2.77,1.14c0.75,0.76,1.12,1.73,1.12,2.92c0,1.14,-0.33,2.11,-0.98,2.94c-0.8,1.02,-1.9,1.53,-3.3,1.53c-1.14,0,-2.07,-0.32,-2.79,-0.96c-0.72,-0.64,-1.14,-1.49,-1.24,-2.54" fill="#000000" stroke="none" fill-opacity="1"/>
<path d="m288.25,123.91c0,-1.49,0.15,-2.68,0.46,-3.59c0.31,-0.9,0.76,-1.6,1.36,-2.09c0.6,-0.49,1.36,-0.73,2.27,-0.73c0.67,0,1.26,0.14,1.77,0.41c0.51,0.27,0.93,0.66,1.26,1.17c0.33,0.51,0.59,1.13,0.77,1.86c0.19,0.73,0.28,1.72,0.28,2.97c0,1.47,-0.15,2.65,-0.45,3.55c-0.3,0.9,-0.75,1.6,-1.35,2.09c-0.6,0.49,-1.36,0.74,-2.27,0.74c-1.21,0,-2.16,-0.43,-2.84,-1.3c-0.83,-1.05,-1.25,-2.75,-1.25,-5.09m1.59,0c0,2.05,0.24,3.42,0.72,4.1c0.48,0.68,1.07,1.02,1.78,1.02c0.71,0,1.3,-0.34,1.78,-1.03c0.48,-0.69,0.72,-2.05,0.72,-4.09c0,-2.06,-0.24,-3.43,-0.72,-4.12c-0.48,-0.68,-1.08,-1.02,-1.8,-1.02c-0.71,0,-1.27,0.3,-1.69,0.91c-0.53,0.76,-0.8,2.17,-0.8,4.23" fill="#000000" stroke="none" fill-opacity="1"/>
<path d="m273.25,69.23c0,-1.49,0.15,-2.68,0.46,-3.59c0.31,-0.9,0.76,-1.6,1.36,-2.09c0.6,-0.49,1.36,-0.73,2.27,-0.73c0.67,0,1.26,0.14,1.77,0.41c0.51,0.27,0.93,0.66,1.26,1.17c0.33,0.51,0.59,1.13,0.77,1.86c0.19,0.73,0.28,1.72,0.28,2.97c0,1.47,-0.15,2.65,-0.45,3.55c-0.3,0.9,-0.75,1.6,-1.35,2.09c-0.6,0.49,-1.36,0.74,-2.27,0.74c-1.21,0,-2.16,-0.43,-2.84,-1.3c-0.83,-1.05,-1.25,-2.75,-1.25,-5.09m1.59,0c0,2.05,0.24,3.42,0.72,4.1c0.48,0.68,1.07,1.02,1.78,1.02c0.71,0,1.3,-0.34,1.78,-1.03c0.48,-0.69,0.72,-2.05,0.72,-4.09c0,-2.06,-0.24,-3.43,-0.72,-4.12c-0.48,-0.68,-1.08,-1.02,-1.8,-1.02c-0.71,0,-1.27,0.3,-1.69,0.91c-0.53,0.76,-0.8,2.17,-0.8,4.23m9.28,6.17l0,-1.75l1.75,0l0,1.75l-1.75,0m4.12,-3.28l1.62,-0.14c0.11,0.79,0.39,1.39,0.83,1.78c0.44,0.4,0.96,0.59,1.58,0.59c0.74,0,1.37,-0.28,1.88,-0.84c0.52,-0.56,0.77,-1.3,0.77,-2.23c0,-0.87,-0.25,-1.57,-0.74,-2.08c-0.49,-0.51,-1.14,-0.77,-1.95,-0.77c-0.49,0,-0.93,0.11,-1.34,0.34c-0.4,0.23,-0.72,0.52,-0.95,0.87l-1.44,-0.19l1.22,-6.44l6.22,0l0,1.47l-5,0l-0.67,3.37c0.75,-0.53,1.54,-0.8,2.37,-0.8c1.09,0,2.02,0.38,2.77,1.14c0.75,0.76,1.12,1.73,1.12,2.92c0,1.14,-0.33,2.11,-0.98,2.94c-0.8,1.02,-1.9,1.53,-3.3,1.53c-1.14,0,-2.07,-0.32,-2.79,-0.96c-0.72,-0.64,-1.14,-1.49,-1.24,-2.54" fill="#000000" stroke="none" fill-opacity="1"/>
<path d="m294.05,20.72l-1.53,0l0,-9.8c-0.37,0.35,-0.86,0.71,-1.46,1.05c-0.6,0.35,-1.14,0.61,-1.62,0.79l0,-1.48c0.86,-0.41,1.62,-0.9,2.26,-1.47c0.64,-0.57,1.1,-1.13,1.37,-1.67l0.98,0l0,12.58" fill="#000000" stroke="none" fill-opacity="1"/>
</g>
<g stroke-width="0.62" stroke-linecap="butt" fill="none">
<path d="M300.53,232.96l218.73,0"/>
<path d="M300.53,232.96l0,-3.75M310.71,232.96l0,-3.75M320.88,232.96l0,-3.75M331.05,232.96l0,-3.75M341.23,232.96l0,-3.75M351.4,232.96l0,-3.75M361.57,232.96l0,-3.75M371.75,232.96l0,-3.75M381.92,232.96l0,-3.75M392.09,232.96l0,-3.75M402.27,232.96l0,-3.75M412.44,232.96l0,-3.75M422.61,232.96l0,-3.75M432.79,232.96l0,-3.75M442.96,232.96l0,-3.75M453.13,232.96l0,-3.75M463.31,232.96l0,-3.75M473.48,232.96l0,-3.75M483.66,232.96l0,-3.75M493.83,232.96l0,-3.75M504,232.96l0,-3.75M514.18,232.96l0,-3.75"/>
<path d="M300.53,232.96l0,-7.5M351.4,232.96l0,-7.5M402.27,232.96l0,-7.5M453.13,232.96l0,-7.5M504,232.96l0,-7.5"/>
<path d="M300.53,14.23l218.73,0"/>
<path d="M300.53,14.23l0,3.75M310.71,14.23l0,3.75M320.88,14.23l0,3.75M331.05,14.23l0,3.75M341.23,14.23l0,3.75M351.4,14.23l0,3.75M361.57,14.23l0,3.75M371.75,14.23l0,3.75M381.92,14.23l0,3.75M392.09,14.23l0,3.75M402.27,14.23l0,3.75M412.44,14.23l0,3.75M422.61,14.23l0,3.75M432.79,14.23l0,3.75M442.96,14.23l0,3.75M453.13,14.23l0,3.75M463.31,14.23l0,3.75M473.48,14.23l0,3.75M483.66,14.23l0,3.75M493.83,14.23l0,3.75M504,14.23l0,3.75M514.18,14.23l0,3.75"/>
<path d="M300.53,14.23l0,7.5M351.4,14.23l0,7.5M402.27,14.23l0,7.5M453.13,14.23l0,7.5M504,14.23l0,7.5"/>
</g>
<g stroke-width="1" fill="none">
<path d="m296.25,245.78c0,-1.49,0.15,-2.68,0.46,-3.59c0.31,-0.9,0.76,-1.6,1.36,-2.09c0.6,-0.49,1.36,-0.73,2.27,-0.73c0.67,0,1.26,0.14,1.77,0.41c0.51,0.27,0.93,0.66,1.26,1.17c0.33,0.51,0.59,1.13,0.77,1.86c0.19,0.73,0.28,1.72,0.28,2.97c0,1.47,-0.15,2.65,-0.45,3.55c-0.3,0.9,-0.75,1.6,-1.35,2.09c-0.6,0.49,-1.36,0.74,-2.27,0.74c-1.21,0,-2.16,-0.43,-2.84,-1.3c-0.83,-1.05,-1.25,-2.75,-1.25,-5.09m1.59,0c0,2.05,0.24,3.42,0.72,4.1c0.48,0.68,1.07,1.02,1.78,1.02c0.71,0,1.3,-0.34,1.78,-1.03c0.48,-0.69,0.72,-2.05,0.72,-4.09c0,-2.06,-0.24,-3.43,-0.72,-4.12c-0.48,-0.68,-1.08,-1.02,-1.8,-1.02c-0.71,0,-1.27,0.3,-1.69,0.91c-0.53,0.76,-0.8,2.17,-0.8,4.23" fill="#000000" stroke="none" fill-opacity="1"/>
<path d="m347.11,248.67l1.62,-0.14c0.11,0.79,0.39,1.39,0.83,1.78c0.44,0.4,0.96,0.59,1.58,0.59c0.74,0,1.37,-0.28,1.88,-0.84c0.52,-0.56,0.77,-1.3,0.77,-2.23c0,-0.87,-0.25,-1.57,-0.74,-2.08c-0.49,-0.51,-1.14,-0.77,-1.95,-0.77c-0.49,0,-0.93,0.11,-1.34,0.34c-0.4,0.23,-0.72,0.52,-0.95,0.87l-1.44,-0.19l1.22,-6.44l6.22,0l0,1.47l-5,0l-0.67,3.37c0.75,-0.53,1.54,-0.8,2.37,-0.8c1.09,0,2.02,0.38,2.77,1.14c0.75,0.76,1.12,1.73,1.12,2.92c0,1.14,-0.33,2.11,-0.98,2.94c-0.8,1.02,-1.9,1.53,-3.3,1.53c-1.14,0,-2.07,-0.32,-2.79,-0.96c-0.72,-0.64,-1.14,-1.49,-1.24,-2.54" fill="#000000" stroke="none" fill-opacity="1"/>
<path d="m398.78,251.95l-1.53,0l0,-9.8c-0.37,0.35,-0.86,0.71,-1.46,1.05c-0.6,0.35,-1.14,0.61,-1.62,0.79l0,-1.48c0.86,-0.41,1.62,-0.9,2.26,-1.47c0.64,-0.57,1.1,-1.13,1.37,-1.67l0.98,0l0,12.58m4.2,-6.17c0,-1.49,0.15,-2.68,0.46,-3.59c0.31,-0.9,0.76,-1.6,1.36,-2.09c0.6,-0.49,1.36,-0.73,2.27,-0.73c0.67,0,1.26,0.14,1.77,0.41c0.51,0.27,0.93,0.66,1.26,1.17c0.33,0.51,0.59,1.13,0.77,1.86c0.19,0.73,0.28,1.72,0.28,2.97c0,1.47,-0.15,2.65,-0.45,3.55c-0.3,0.9,-0.75,1.6,-1.35,2.09c-0.6,0.49,-1.36,0.74,-2.27,0.74c-1.21,0,-2.16,-0.43,-2.84,-1.3c-0.83,-1.05,-1.25,-2.75,-1.25,-5.09m1.59,0c0,2.05,0.24,3.42,0.72,4.1c0.48,0.68,1.07,1.02,1.78,1.02c0.71,0,1.3,-0.34,1.78,-1.03c0.48,-0.69,0.72,-2.05,0.72,-4.09c0,-2.06,-0.24,-3.43,-0.72,-4.12c-0.48,-0.68,-1.08,-1.02,-1.8,-1.02c-0.71,0,-1.27,0.3,-1.69,0.91c-0.53,0.76,-0.8,2.17,-0.8,4.23" fill="#000000" stroke="none" fill-opacity="1"/>
<path d="m449.64,251.95l-1.53,0l0,-9.8c-0.37,0.35,-0.86,0.71,-1.46,1.05c-0.6,0.35,-1.14,0.61,-1.62,0.79l0,-1.48c0.86,-0.41,1.62,-0.9,2.26,-1.47c0.64,-0.57,1.1,-1.13,1.37,-1.67l0.98,0l0,12.58m4.2,-3.28l1.62,-0.14c0.11,0.79,0.39,1.39,0.83,1.78c0.44,0.4,0.96,0.59,1.58,0.59c0.74,0,1.37,-0.28,1.88,-0.84c0.52,-0.56,0.77,-1.3,0.77,-2.23c0,-0.87,-0.25,-1.57,-0.74,-2.08c-0.49,-0.51,-1.14,-0.77,-1.95,-0.77c-0.49,0,-0.93,0.11,-1.34,0.34c-0.4,0.23,-0.72,0.52,-0.95,0.87l-1.44,-0.19l1.22,-6.44l6.22,0l0,1.47l-5,0l-0.67,3.37c0.75,-0.53,1.54,-0.8,2.37,-0.8c1.09,0,2.02,0.38,2.77,1.14c0.75,0.76,1.12,1.73,1.12,2.92c0,1.14,-0.33,2.11,-0.98,2.94c-0.8,1.02,-1.9,1.53,-3.3,1.53c-1.14,0,-2.07,-0.32,-2.79,-0.96c-0.72,-0.64,-1.14,-1.49,-1.24,-2.54" fill="#000000" stroke="none" fill-opacity="1"/>
<path d="m502.81,250.47l0,1.48l-8.28,0c-0.01,-0.37,0.05,-0.73,0.17,-1.06c0.22,-0.57,0.56,-1.13,1.02,-1.68c0.46,-0.55,1.13,-1.17,2.01,-1.88c1.36,-1.12,2.29,-2.01,2.77,-2.66c0.48,-0.65,0.72,-1.27,0.72,-1.85c0,-0.6,-0.22,-1.12,-0.66,-1.54c-0.44,-0.42,-1.01,-0.63,-1.7,-0.63c-0.74,0,-1.33,0.22,-1.78,0.67c-0.45,0.45,-0.67,1.06,-0.67,1.84l-1.58,-0.16c0.1,-1.18,0.51,-2.08,1.22,-2.7c0.71,-0.62,1.66,-0.93,2.84,-0.93c1.2,0,2.15,0.33,2.85,1c0.7,0.67,1.05,1.49,1.05,2.48c0,0.5,-0.1,0.99,-0.31,1.48c-0.21,0.48,-0.55,0.99,-1.02,1.52c-0.47,0.53,-1.26,1.27,-2.37,2.2c-0.93,0.78,-1.52,1.31,-1.78,1.59c-0.26,0.28,-0.47,0.55,-0.64,0.82l6.14,0m1.91,-4.69c0,-1.49,0.15,-2.68,0.46,-3.59c0.31,-0.9,0.76,-1.6,1.36,-2.09c0.6,-0.49,1.36,-0.73,2.27,-0.73c0.67,0,1.26,0.14,1.77,0.41c0.51,0.27,0.93,0.66,1.26,1.17c0.33,0.51,0.59,1.13,0.77,1.86c0.19,0.73,0.28,1.72,0.28,2.97c0,1.47,-0.15,2.65,-0.45,3.55c-0.3,0.9,-0.75,1.6,-1.35,2.09c-0.6,0.49,-1.36,0.74,-2.27,0.74c-1.21,0,-2.16,-0.43,-2.84,-1.3c-0.83,-1.05,-1.25,-2.75,-1.25,-5.09m1.59,0c0,2.05,0.24,3.42,0.72,4.1c0.48,0.68,1.07,1.02,1.78,1.02c0.71,0,1.3,-0.34,1.78,-1.03c0.48,-0.69,0.72,-2.05,0.72,-4.09c0,-2.06,-0.24,-3.43,-0.72,-4.12c-0.48,-0.68,-1.08,-1.02,-1.8,-1.02c-0.71,0,-1.27,0.3,-1.69,0.91c-0.53,0.76,-0.8,2.17,-0.8,4.23" fill="#000000" stroke="none" fill-opacity="1"/>
</g>
<g stroke-width="0.62" fill="#ffffff">
<path d="m39.12,275.64l218.73,0l0,218.73l-218.73,0l0,-218.73"/>
</g>
<g stroke-width="1" fill="none">
<path d="m116.84,294.58l1.59,0.2c-0.25,0.93,-0.71,1.65,-1.39,2.16c-0.68,0.51,-1.54,0.77,-2.59,0.77c-1.33,0,-2.39,-0.41,-3.16,-1.23c-0.78,-0.82,-1.16,-1.96,-1.16,-3.43c0,-1.53,0.39,-2.72,1.18,-3.56c0.79,-0.84,1.8,-1.27,3.05,-1.27c1.22,0,2.21,0.41,2.98,1.24c0.77,0.83,1.15,1.99,1.15,3.49c0,0.08,0,0.22,0,0.41l-6.77,0c0.05,0.99,0.33,1.75,0.84,2.28c0.51,0.53,1.14,0.8,1.89,0.8c0.56,0,1.04,-0.15,1.45,-0.45c0.4,-0.3,0.72,-0.77,0.95,-1.41m-5.05,-2.48l5.08,0c-0.07,-0.76,-0.27,-1.33,-0.59,-1.72c-0.49,-0.59,-1.12,-0.89,-1.91,-0.89c-0.7,0,-1.29,0.24,-1.77,0.71c-0.48,0.47,-0.75,1.11,-0.8,1.9m8.83,5.41l0,-9.08l1.37,0l0,1.37c0.35,-0.65,0.68,-1.07,0.98,-1.27c0.3,-0.2,0.63,-0.3,0.98,-0.3c0.52,0,1.05,0.17,1.58,0.5l-0.53,1.42c-0.37,-0.22,-0.75,-0.33,-1.12,-0.33c-0.33,0,-0.63,0.1,-0.9,0.3c-0.27,0.2,-0.46,0.48,-0.57,0.84c-0.18,0.55,-0.27,1.15,-0.27,1.8l0,4.75l-1.53,0m6,0l0,-9.08l1.37,0l0,1.37c0.35,-0.65,0.68,-1.07,0.98,-1.27c0.3,-0.2,0.63,-0.3,0.98,-0.3c0.52,0,1.05,0.17,1.58,0.5l-0.53,1.42c-0.37,-0.22,-0.75,-0.33,-1.12,-0.33c-0.33,0,-0.63,0.1,-0.9,0.3c-0.27,0.2,-0.46,0.48,-0.57,0.84c-0.18,0.55,-0.27,1.15,-0.27,1.8l0,4.75l-1.53,0m5.44,-4.53c0,-1.69,0.47,-2.93,1.41,-3.73c0.78,-0.68,1.73,-1.02,2.86,-1.02c1.24,0,2.26,0.41,3.05,1.23c0.79,0.82,1.19,1.95,1.19,3.38c0,1.18,-0.17,2.1,-0.52,2.77c-0.35,0.67,-0.86,1.18,-1.52,1.55c-0.67,0.37,-1.4,0.55,-2.19,0.55c-1.27,0,-2.3,-0.41,-3.09,-1.22c-0.79,-0.81,-1.18,-1.98,-1.18,-3.52m1.58,0c0,1.16,0.26,2.02,0.77,2.6c0.51,0.58,1.15,0.87,1.92,0.87c0.76,0,1.39,-0.29,1.9,-0.87c0.51,-0.58,0.76,-1.47,0.76,-2.66c0,-1.11,-0.26,-1.96,-0.77,-2.54c-0.51,-0.58,-1.14,-0.87,-1.89,-0.87c-0.77,0,-1.41,0.29,-1.92,0.86c-0.51,0.57,-0.77,1.44,-0.77,2.61m8.98,4.53l0,-9.08l1.37,0l0,1.37c0.35,-0.65,0.68,-1.07,0.98,-1.27c0.3,-0.2,0.63,-0.3,0.98,-0.3c0.52,0,1.05,0.17,1.58,0.5l-0.53,1.42c-0.37,-0.22,-0.75,-0.33,-1.12,-0.33c-0.33,0,-0.63,0.1,-0.9,0.3c-0.27,0.2,-0.46,0.48,-0.57,0.84c-0.18,0.55,-0.27,1.15,-0.27,1.8l0,4.75l-1.53,0m12.44,0l-1.44,0l0,-12.53l1.55,0l0,4.47c0.65,-0.81,1.47,-1.22,2.48,-1.22c0.55,0,1.08,0.11,1.58,0.34c0.5,0.22,0.91,0.54,1.23,0.95c0.32,0.41,0.58,0.9,0.76,1.48c0.18,0.58,0.27,1.2,0.27,1.85c0,1.55,-0.39,2.75,-1.16,3.6c-0.77,0.85,-1.69,1.27,-2.77,1.27c-1.07,0,-1.91,-0.45,-2.52,-1.34l0,1.14m-0.02,-4.61c0,1.09,0.15,1.88,0.44,2.36c0.48,0.79,1.14,1.19,1.97,1.19c0.67,0,1.24,-0.29,1.73,-0.87c0.49,-0.58,0.73,-1.45,0.73,-2.61c0,-1.19,-0.23,-2.06,-0.7,-2.62c-0.47,-0.56,-1.04,-0.84,-1.7,-0.84c-0.67,0,-1.24,0.29,-1.73,0.87c-0.49,0.58,-0.73,1.43,-0.73,2.53m14.52,3.48c-0.57,0.49,-1.12,0.83,-1.65,1.03c-0.53,0.2,-1.09,0.3,-1.7,0.3c-1,0,-1.77,-0.24,-2.3,-0.73c-0.54,-0.48,-0.8,-1.11,-0.8,-1.87c0,-0.45,0.1,-0.85,0.3,-1.22c0.2,-0.36,0.47,-0.66,0.8,-0.88c0.33,-0.22,0.7,-0.39,1.12,-0.51c0.3,-0.08,0.76,-0.16,1.36,-0.23c1.24,-0.15,2.16,-0.32,2.75,-0.53c0,-0.21,0,-0.34,0,-0.39c0,-0.62,-0.15,-1.07,-0.44,-1.33c-0.39,-0.34,-0.97,-0.52,-1.75,-0.52c-0.72,0,-1.25,0.12,-1.59,0.37c-0.34,0.25,-0.6,0.7,-0.77,1.34l-1.52,-0.2c0.15,-0.65,0.37,-1.17,0.69,-1.56c0.31,-0.4,0.76,-0.7,1.35,-0.91c0.59,-0.21,1.27,-0.32,2.05,-0.32c0.78,0,1.41,0.09,1.9,0.27c0.48,0.18,0.84,0.41,1.06,0.69c0.22,0.28,0.38,0.63,0.48,1.05c0.05,0.26,0.08,0.73,0.08,1.41l0,2.06c0,1.43,0.03,2.33,0.1,2.71c0.07,0.38,0.2,0.74,0.38,1.09l-1.59,0c-0.17,-0.32,-0.27,-0.7,-0.31,-1.12m-0.12,-3.42c-0.56,0.22,-1.4,0.41,-2.52,0.58c-0.64,0.08,-1.08,0.18,-1.34,0.3c-0.26,0.11,-0.46,0.28,-0.61,0.5c-0.15,0.22,-0.22,0.46,-0.22,0.73c0,0.42,0.16,0.76,0.47,1.03c0.31,0.27,0.77,0.41,1.37,0.41c0.58,0,1.11,-0.13,1.57,-0.39c0.46,-0.26,0.8,-0.61,1.02,-1.06c0.17,-0.34,0.25,-0.85,0.25,-1.53l0,-0.56m4.19,4.55l0,-9.08l1.37,0l0,1.37c0.35,-0.65,0.68,-1.07,0.98,-1.27c0.3,-0.2,0.63,-0.3,0.98,-0.3c0.52,0,1.05,0.17,1.58,0.5l-0.53,1.42c-0.37,-0.22,-0.75,-0.33,-1.12,-0.33c-0.33,0,-0.63,0.1,-0.9,0.3c-0.27,0.2,-0.46,0.48,-0.57,0.84c-0.18,0.55,-0.27,1.15,-0.27,1.8l0,4.75l-1.53,0m5.39,-2.7l1.53,-0.25c0.08,0.61,0.32,1.08,0.71,1.41c0.39,0.32,0.93,0.48,1.63,0.48c0.71,0,1.23,-0.14,1.58,-0.43c0.34,-0.29,0.52,-0.62,0.52,-1.01c0,-0.35,-0.15,-0.63,-0.45,-0.83c-0.22,-0.14,-0.74,-0.31,-1.58,-0.52c-1.12,-0.28,-1.91,-0.53,-2.34,-0.73c-0.44,-0.21,-0.77,-0.5,-0.99,-0.87c-0.22,-0.37,-0.34,-0.78,-0.34,-1.23c0,-0.4,0.09,-0.77,0.27,-1.12c0.18,-0.35,0.43,-0.63,0.76,-0.85c0.24,-0.18,0.57,-0.33,0.98,-0.45c0.41,-0.12,0.86,-0.19,1.34,-0.19c0.71,0,1.33,0.1,1.87,0.3c0.54,0.2,0.93,0.48,1.2,0.84c0.26,0.35,0.44,0.82,0.53,1.41l-1.5,0.2c-0.07,-0.47,-0.27,-0.83,-0.6,-1.09c-0.33,-0.26,-0.79,-0.39,-1.38,-0.39c-0.71,0,-1.21,0.12,-1.52,0.35c-0.3,0.23,-0.45,0.51,-0.45,0.82c0,0.2,0.06,0.37,0.19,0.53c0.12,0.17,0.32,0.31,0.59,0.42c0.16,0.05,0.61,0.18,1.36,0.39c1.08,0.29,1.84,0.53,2.27,0.71c0.43,0.18,0.77,0.45,1.02,0.8c0.24,0.35,0.37,0.79,0.37,1.31c0,0.52,-0.15,1.01,-0.45,1.46c-0.3,0.45,-0.73,0.8,-1.3,1.05c-0.56,0.24,-1.2,0.37,-1.91,0.37c-1.18,0,-2.08,-0.24,-2.7,-0.73c-0.62,-0.49,-1.02,-1.21,-1.2,-2.17" fill="#000000" stroke="none" fill-opacity="1"/>
</g>
</g>
<g clip-path="url(#c3)">
<g stroke-width="0.62" fill="#0055ff">
<path d="m45.86,285.59l6.87,0l0,99.5l-6.87,0l0,-99.5"/>
<path d="m56.04,293.44l6.87,0l0,91.65l-6.87,0l0,-91.65"/>
<path d="m66.21,315.76l6.87,0l0,69.32l-6.87,0l0,-69.32"/>
<path d="m76.38,349.03l6.87,0l0,36.05l-6.87,0l0,-36.05"/>
<path d="m86.56,385.09l6.87,0l0,2.91l-6.87,0l0,-2.91"/>
<path d="m96.73,385.09l6.87,0l0,41.41l-6.87,0l0,-41.41"/>
<path d="m106.9,385.09l6.87,0l0,73.37l-6.87,0l0,-73.37"/>
<path d="m117.08,385.09l6.87,0l0,93.75l-6.87,0l0,-93.75"/>
<path d="m127.25,385.09l6.87,0l0,99.33l-6.87,0l0,-99.33"/>
<path d="m137.42,385.09l6.87,0l0,89.23l-6.87,0l0,-89.23"/>
<path d="m147.6,385.09l6.87,0l0,65.04l-6.87,0l0,-65.04"/>
<path d="m157.77,385.09l6.87,0l0,30.58l-6.87,0l0,-30.58"/>
<path d="m167.94,376.38l6.87,0l0,8.71l-6.87,0l0,-8.71"/>
<path d="m178.12,338.47l6.87,0l0,46.62l-6.87,0l0,-46.62"/>
<path d="m188.29,307.92l6.87,0l0,77.17l-6.87,0l0,-77.17"/>
<path d="m198.47,289.55l6.87,0l0,95.54l-6.87,0l0,-95.54"/>
<path d="m208.64,286.26l6.87,0l0,98.82l-6.87,0l0,-98.82"/>
<path d="m218.81,298.58l6.87,0l0,86.51l-6.87,0l0,-86.51"/>
<path d="m228.99,324.56l6.87,0l0,60.53l-6.87,0l0,-60.53"/>
<path d="m239.16,360.09l6.87,0l0,25l-6.87,0l0,-25"/>
<path d="m249.33,385.09l6.87,0l0,14.48l-6.87,0l0,-14.48"/>
<path d="M49.3,295.54l0,-19.9M59.47,303.39l0,-19.9M69.64,325.71l0,-19.9M79.82,358.98l0,-19.9M89.99,397.94l0,-19.9M100.16,436.44l0,-19.9M110.34,468.41l0,-19.9M120.51,488.79l0,-19.9M130.68,494.37l0,-19.9M140.86,484.26l0,-19.9M151.03,460.07l0,-19.9M161.2,425.62l0,-19.9M171.38,386.33l0,-19.9M181.55,348.42l0,-19.9M191.73,317.87l0,-19.9M201.9,299.5l0,-19.9M212.07,296.21l0,-19.9M222.25,308.53l0,-19.9M232.42,334.51l0,-19.9M242.59,370.04l0,-19.9M252.77,409.51l0,-19.9"/>
<path d="M47.58,295.54l3.43,0M57.75,303.39l3.43,0M67.93,325.71l3.43,0M78.1,358.98l3.43,0M88.27,397.94l3.43,0M98.45,436.44l3.43,0M108.62,468.41l3.43,0M118.79,488.79l3.43,0M128.97,494.37l3.43,0M139.14,484.26l3.43,0M149.31,460.07l3.43,0M159.49,425.62l3.43,0M169.66,386.33l3.43,0M179.83,348.42l3.43,0M190.01,317.87l3.43,0M200.18,299.5l3.43,0M210.36,296.21l3.43,0M220.53,308.53l3.43,0M230.7,334.51l3.43,0M240.88,370.04l3.43,0M251.05,409.51l3.43,0"/>
<path d="M47.58,275.64l3.43,0M57.75,283.49l3.43,0M67.93,305.81l3.43,0M78.1,339.08l3.43,0M88.27,378.04l3.43,0M98.45,416.54l3.43,0M108.62,448.51l3.43,0M118.79,468.89l3.43,0M128.97,474.47l3.43,0M139.14,464.36l3.43,0M149.31,440.17l3.43,0M159.49,405.72l3.43,0M169.66,366.43l3.43,0M179.83,328.52l3.43,0M190.01,297.97l3.43,0M200.18,279.6l3.43,0M210.36,276.31l3.43,0M220.53,288.63l3.43,0M230.7,314.61l3.43,0M240.88,350.14l3.43,0M251.05,389.61l3.43,0"/>
</g>
</g>
<g clip-path="url(#c0)">
<g stroke-width="0.62" stroke-linecap="butt" fill="none">
<path d="M39.12,494.37l0,-218.73"/>
<path d="M39.12,484.59l3.75,0M39.12,474.64l3.75,0M39.12,464.69l3.75,0M39.12,454.74l3.75,0M39.12,444.79l3.75,0M39.12,434.84l3.75,0M39.12,424.89l3.75,0M39.12,414.94l3.75,0M39.12,404.99l3.75,0M39.12,395.04l3.75,0M39.12,385.09l3.75,0M39.12,375.14l3.75,0M39.12,365.19l3.75,0M39.12,355.24l3.75,0M39.12,345.29l3.75,0M39.12,335.34l3.75,0M39.12,325.39l3.75,0M39.12,315.44l3.75,0M39.12,305.49l3.75,0M39.12,295.54l3.75,0M39.12,285.59l3.75,0M39.12,275.64l3.75,0"/>
<path d="M39.12,484.59l7.5,0M39.12,434.84l7.5,0M39.12,385.09l7.5,0M39.12,335.34l7.5,0M39.12,285.59l7.5,0"/>
<path d="M257.85,494.37l0,-218.73"/>
<path d="M257.85,484.59l-3.75,0M257.85,474.64l-3.75,0M257.85,464.69l-3.75,0M257.85,454.74l-3.75,0M257.85,444.79l-3.75,0M257.85,434.84l-3.75,0M257.85,424.89l-3.75,0M257.85,414.94l-3.75,0M257.85,404.99l-3.75,0M257.85,395.04l-3.75,0M257.85,385.09l-3.75,0M257.85,375.14l-3.75,0M257.85,365.19l-3.75,0M257.85,355.24l-3.75,0M257.85,345.29l-3.75,0M257.85,335.34l-3.75,0M257.85,325.39l-3.75,0M257.85,315.44l-3.75,0M257.85,305.49l-3.75,0M257.85,295.54l-3.75,0M257.85,285.59l-3.75,0M257.85,275.64l-3.75,0"/>
<path d="M257.85,484.59l-7.5,0M257.85,434.84l-7.5,0M257.85,385.09l-7.5,0M257.85,335.34l-7.5,0M257.85,285.59l-7.5,0"/>
</g>
<g stroke-width="1" fill="none">
<path d="m24.36,485.62l-8.28,0l0,-1.44l8.28,0l0,1.44m8.27,5.45l-1.53,0l0,-9.8c-0.37,0.35,-0.86,0.71,-1.46,1.05c-0.6,0.35,-1.14,0.61,-1.62,0.79l0,-1.48c0.86,-0.41,1.62,-0.9,2.26,-1.47c0.64,-0.57,1.1,-1.13,1.37,-1.67l0.98,0l0,12.58" fill="#000000" stroke="none" fill-opacity="1"/>
<path d="m9.36,435.87l-8.28,0l0,-1.44l8.28,0l0,1.44m2.47,-0.72c0,-1.49,0.15,-2.68,0.46,-3.59c0.31,-0.9,0.76,-1.6,1.36,-2.09c0.6,-0.49,1.36,-0.73,2.27,-0.73c0.67,0,1.26,0.14,1.77,0.41c0.51,0.27,0.93,0.66,1.26,1.17c0.33,0.51,0.59,1.13,0.77,1.86c0.19,0.73,0.28,1.72,0.28,2.97c0,1.47,-0.15,2.65,-0.45,3.55c-0.3,0.9,-0.75,1.6,-1.35,2.09c-0.6,0.49,-1.36,0.74,-2.27,0.74c-1.21,0,-2.16,-0.43,-2.84,-1.3c-0.83,-1.05,-1.25,-2.75,-1.25,-5.09m1.59,0c0,2.05,0.24,3.42,0.72,4.1c0.48,0.68,1.07,1.02,1.78,1.02c0.71,0,1.3,-0.34,1.78,-1.03c0.48,-0.69,0.72,-2.05,0.72,-4.09c0,-2.06,-0.24,-3.43,-0.72,-4.12c-0.48,-0.68,-1.08,-1.02,-1.8,-1.02c-0.71,0,-1.27,0.3,-1.69,0.91c-0.53,0.76,-0.8,2.17,-0.8,4.23m9.28,6.17l0,-1.75l1.75,0l0,1.75l-1.75,0m4.12,-3.28l1.62,-0.14c0.11,0.79,0.39,1.39,0.83,1.78c0.44,0.4,0.96,0.59,1.58,0.59c0.74,0,1.37,-0.28,1.88,-0.84c0.52,-0.56,0.77,-1.3,0.77,-2.23c0,-0.87,-0.25,-1.57,-0.74,-2.08c-0.49,-0.51,-1.14,-0.77,-1.95,-0.77c-0.49,0,-0.93,0.11,-1.34,0.34c-0.4,0.23,-0.72,0.52,-0.95,0.87l-1.44,-0.19l1.22,-6.44l6.22,0l0,1.47l-5,0l-0.67,3.37c0.75,-0.53,1.54,-0.8,2.37,-0.8c1.09,0,2.02,0.38,2.77,1.14c0.75,0.76,1.12,1.73,1.12,2.92c0,1.14,-0.33,2.11,-0.98,2.94c-0.8,1.02,-1.9,1.53,-3.3,1.53c-1.14,0,-2.07,-0.32,-2.79,-0.96c-0.72,-0.64,-1.14,-1.49,-1.24,-2.54" fill="#000000" stroke="none" fill-opacity="1"/>
<path d="m26.83,385.41c0,-1.49,0.15,-2.68,0.46,-3.59c0.31,-0.9,0.76,-1.6,1.36,-2.09c0.6,-0.49,1.36,-0.73,2.27,-0.73c0.67,0,1.26,0.14,1.77,0.41c0.51,0.27,0.93,0.66,1.26,1.17c0.33,0.51,0.59,1.13,0.77,1.86c0.19,0.73,0.28,1.72,0.28,2.97c0,1.47,-0.15,2.65,-0.45,3.55c-0.3,0.9,-0.75,1.6,-1.35,2.09c-0.6,0.49,-1.36,0.74,-2.27,0.74c-1.21,0,-2.16,-0.43,-2.84,-1.3c-0.83,-1.05,-1.25,-2.75,-1.25,-5.09m1.59,0c0,2.05,0.24,3.42,0.72,4.1c0.48,0.68,1.07,1.02,1.78,1.02c0.71,0,1.3,-0.34,1.78,-1.03c0.48,-0.69,0.72,-2.05,0.72,-4.09c0,-2.06,-0.24,-3.43,-0.72,-4.12c-0.48,-0.68,-1.08,-1.02,-1.8,-1.02c-0.71,0,-1.27,0.3,-1.69,0.91c-0.53,0.76,-0.8,2.17,-0.8,4.23" fill="#000000" stroke="none" fill-opacity="1"/>
<path d="m11.83,335.66c0,-1.49,0.15,-2.68,0.46,-3.59c0.31,-0.9,0.76,-1.6,1.36,-2.09c0.6,-0.49,1.36,-0.73,2.27,-0.73c0.67,0,1.26,0.14,1.77,0.41c0.51,0.27,0.93,0.66,1.26,1.17c0.33,0.51,0.59,1.13,0.77,1.86c0.19,0.73,0.28,1.72,0.28,2.97c0,1.47,-0.15,2.65,-0.45,3.55c-0.3,0.9,-0.75,1.6,-1.35,2.09c-0.6,0.49,-1.36,0.74,-2.27,0.74c-1.21,0,-2.16,-0.43,-2.84,-1.3c-0.83,-1.05,-1.25,-2.75,-1.25,-5.09m1.59,0c0,2.05,0.24,3.42,0.72,4.1c0.48,0.68,1.07,1.02,1.78,1.02c0.71,0,1.3,-0.34,1.78,-1.03c0.48,-0.69,0.72,-2.05,0.72,-4.09c0,-2.06,-0.24,-3.43,-0.72,-4.12c-0.48,-0.68,-1.08,-1.02,-1.8,-1.02c-0.71,0,-1.27,0.3,-1.69,0.91c-0.53,0.76,-0.8,2.17,-0.8,4.23m9.28,6.17l0,-1.75l1.75,0l0,1.75l-1.75,0m4.12,-3.28l1.62,-0.14c0.11,0.79,0.39,1.39,0.83,1.78c0.44,0.4,0.96,0.59,1.58,0.59c0.74,0,1.37,-0.28,1.88,-0.84c0.52,-0.56,0.77,-1.3,0.77,-2.23c0,-0.87,-0.25,-1.57,-0.74,-2.08c-0.49,-0.51,-1.14,-0.77,-1.95,-0.77c-0.49,0,-0.93,0.11,-1.34,0.34c-0.4,0.23,-0.72,0.52,-0.95,0.87l-1.44,-0.19l1.22,-6.44l6.22,0l0,1.47l-5,0l-0.67,3.37c0.75,-0.53,1.54,-0.8,2.37,-0.8c1.09,0,2.02,0.38,2.77,1.14c0.75,0.76,1.12,1.73,1.12,2.92c0,1.14,-0.33,2.11,-0.98,2.94c-0.8,1.02,-1.9,1.53,-3.3,1.53c-1.14,0,-2.07,-0.32,-2.79,-0.96c-0.72,-0.64,-1.14,-1.49,-1.24,-2.54" fill="#000000" stroke="none" fill-opacity="1"/>
<path d="m32.62,292.08l-1.53,0l0,-9.8c-0.37,0.35,-0.86,0.71,-1.46,1.05c-0.6,0.35,-1.14,0.61,-1.62,0.79l0,-1.48c0.86,-0.41,1.62,-0.9,2.26,-1.47c0.64,-0.57,1.1,-1.13,1.37,-1.67l0.98,0l0,12.58" fill="#000000" stroke="none" fill-opacity="1"/>
</g>
<g stroke-width="0.62" stroke-linecap="butt" fill="none">
<path d="M39.12,494.37l218.73,0"/>
<path d="M39.12,494.37l0,-3.75M49.3,494.37l0,-3.75M59.47,494.37l0,-3.75M69.64,494.37l0,-3.75M79.82,494.37l0,-3.75M89.99,494.37l0,-3.75M100.16,494.37l0,-3.75M110.34,494.37l0,-3.75M120.51,494.37l0,-3.75M130.68,494.37l0,-3.75M140.86,494.37l0,-3.75M151.03,494.37l0,-3.75M161.2,494.37l0,-3.75M171.38,494.37l0,-3.75M181.55,494.37l0,-3.75M191.73,494.37l0,-3.75M201.9,494.37l0,-3.75M212.07,494.37l0,-3.75M222.25,494.37l0,-3.75M232.42,494.37l0,-3.75M242.59,494.37l0,-3.75M252.77,494.37l0,-3.75"/>
<path d="M39.12,494.37l0,-7.5M89.99,494.37l0,-7.5M140.86,494.37l0,-7.5M191.73,494.37l0,-7.5M242.59,494.37l0,-7.5"/>
<path d="M39.12,275.64l218.73,0"/>
<path d="M39.12,275.64l0,3.75M49.3,275.64l0,3.75M59.47,275.64l0,3.75M69.64,275.64l0,3.75M79.82,275.64l0,3.75M89.99,275.64l0,3.75M100.16,275.64l0,3.75M110.34,275.64l0,3.75M120.51,275.64l0,3.75M130.68,275.64l0,3.75M140.86,275.64l0,3.75M151.03,275.64l0,3.75M161.2,275.64l0,3.75M171.38,275.64l0,3.75M181.55,275.64l0,3.75M191.73,275.64l0,3.75M201.9,275.64l0,3.75M212.07,275.64l0,3.75M222.25,275.64l0,3.75M232.42,275.64l0,3.75M242.59,275.64l0,3.75M252.77,275.64l0,3.75"/>
<path d="M39.12,275.64l0,7.5M89.99,275.64l0,7.5M140.86,275.64l0,7.5M191.73,275.64l0,7.5M242.59,275.64l0,7.5"/>
</g>
<g stroke-width="1" fill="none">
<path d="m34.83,507.19c0,-1.49,0.15,-2.68,0.46,-3.59c0.31,-0.9,0.76,-1.6,1.36,-2.09c0.6,-0.49,1.36,-0.73,2.27,-0.73c0.67,0,1.26,0.14,1.77,0.41c0.51,0.27,0.93,0.66,1.26,1.17c0.33,0.51,0.59,1.13,0.77,1.86c0.19,0.73,0.28,1.72,0.28,2.97c0,1.47,-0.15,2.65,-0.45,3.55c-0.3,0.9,-0.75,1.6,-1.35,2.09c-0.6,0.49,-1.36,0.74,-2.27,0.74c-1.21,0,-2.16,-0.43,-2.84,-1.3c-0.83,-1.05,-1.25,-2.75,-1.25,-5.09m1.59,0c0,2.05,0.24,3.42,0.72,4.1c0.48,0.68,1.07,1.02,1.78,1.02c0.71,0,1.3,-0.34,1.78,-1.03c0.48,-0.69,0.72,-2.05,0.72,-4.09c0,-2.06,-0.24,-3.43,-0.72,-4.12c-0.48,-0.68,-1.08,-1.02,-1.8,-1.02c-0.71,0,-1.27,0.3,-1.69,0.91c-0.53,0.76,-0.8,2.17,-0.8,4.23" fill="#000000" stroke="none" fill-opacity="1"/>
<path d="m85.7,510.08l1.62,-0.14c0.11,0.79,0.39,1.39,0.83,1.78c0.44,0.4,0.96,0.59,1.58,0.59c0.74,0,1.37,-0.28,1.88,-0.84c0.52,-0.56,0.77,-1.3,0.77,-2.23c0,-0.87,-0.25,-1.57,-0.74,-2.08c-0.49,-0.51,-1.14,-0.77,-1.95,-0.77c-0.49,0,-0.93,0.11,-1.34,0.34c-0.4,0.23,-0.72,0.52,-0.95,0.87l-1.44,-0.19l1.22,-6.44l6.22,0l0,1.47l-5,0l-0.67,3.37c0.75,-0.53,1.54,-0.8,2.37,-0.8c1.09,0,2.02,0.38,2.77,1.14c0.75,0.76,1.12,1.73,1.12,2.92c0,1.14,-0.33,2.11,-0.98,2.94c-0.8,1.02,-1.9,1.53,-3.3,1.53c-1.14,0,-2.07,-0.32,-2.79,-0.96c-0.72,-0.64,-1.14,-1.49,-1.24,-2.54" fill="#000000" stroke="none" fill-opacity="1"/>
<path d="m137.36,513.36l-1.53,0l0,-9.8c-0.37,0.35,-0.86,0.71,-1.46,1.05c-0.6,0.35,-1.14,0.61,-1.62,0.79l0,-1.48c0.86,-0.41,1.62,-0.9,2.26,-1.47c0.64,-0.57,1.1,-1.13,1.37,-1.67l0.98,0l0,12.58m4.2,-6.17c0,-1.49,0.15,-2.68,0.46,-3.59c0.31,-0.9,0.76,-1.6,1.36,-2.09c0.6,-0.49,1.36,-0.73,2.27,-0.73c0.67,0,1.26,0.14,1.77,0.41c0.51,0.27,0.93,0.66,1.26,1.17c0.33,0.51,0.59,1.13,0.77,1.86c0.19,0.73,0.28,1.72,0.28,2.97c0,1.47,-0.15,2.65,-0.45,3.55c-0.3,0.9,-0.75,1.6,-1.35,2.09c-0.6,0.49,-1.36,0.74,-2.27,0.74c-1.21,0,-2.16,-0.43,-2.84,-1.3c-0.83,-1.05,-1.25,-2.75,-1.25,-5.09m1.59,0c0,2.05,0.24,3.42,0.72,4.1c0.48,0.68,1.07,1.02,1.78,1.02c0.71,0,1.3,-0.34,1.78,-1.03c0.48,-0.69,0.72,-2.05,0.72,-4.09c0,-2.06,-0.24,-3.43,-0.72,-4.12c-0.48,-0.68,-1.08,-1.02,-1.8,-1.02c-0.71,0,-1.27,0.3,-1.69,0.91c-0.53,0.76,-0.8,2.17,-0.8,4.23" fill="#000000" stroke="none" fill-opacity="1"/>
<path d="m188.23,513.36l-1.53,0l0,-9.8c-0.37,0.35,-0.86,0.71,-1.46,1.05c-0.6,0.35,-1.14,0.61,-1.62,0.79l0,-1.48c0.86,-0.41,1.62,-0.9,2.26,-1.47c0.64,-0.57,1.1,-1.13,1.37,-1.67l0.98,0l0,12.58m4.2,-3.28l1.62,-0.14c0.11,0.79,0.39,1.39,0.83,1.78c0.44,0.4,0.96,0.59,1.58,0.59c0.74,0,1.37,-0.28,1.88,-0.84c0.52,-0.56,0.77,-1.3,0.77,-2.23c0,-0.87,-0.25,-1.57,-0.74,-2.08c-0.49,-0.51,-1.14,-0.77,-1.95,-0.77c-0.49,0,-0.93,0.11,-1.34,0.34c-0.4,0.23,-0.72,0.52,-0.95,0.87l-1.44,-0.19l1.22,-6.44l6.22,0l0,1.47l-5,0l-0.67,3.37c0.75,-0.53,1.54,-0.8,2.37,-0.8c1.09,0,2.02,0.38,2.77,1.14c0.75,0.76,1.12,1.73,1.12,2.92c0,1.14,-0.33,2.11,-0.98,2.94c-0.8,1.02,-1.9,1.53,-3.3,1.53c-1.14,0,-2.07,-0.32,-2.79,-0.96c-0.72,-0.64,-1.14,-1.49,-1.24,-2.54" fill="#000000" stroke="none" fill-opacity="1"/>
<path d="m241.39,511.87l0,1.48l-8.28,0c-0.01,-0.37,0.05,-0.73,0.17,-1.06c0.22,-0.57,0.56,-1.13,1.02,-1.68c0.46,-0.55,1.13,-1.17,2.01,-1.88c1.36,-1.12,2.29,-2.01,2.77,-2.66c0.48,-0.65,0.72,-1.27,0.72,-1.85c0,-0.6,-0.22,-1.12,-0.66,-1.54c-0.44,-0.42,-1.01,-0.63,-1.7,-0.63c-0.74,0,-1.33,0.22,-1.78,0.67c-0.45,0.45,-0.67,1.06,-0.67,1.84l-1.58,-0.16c0.1,-1.18,0.51,-2.08,1.22,-2.7c0.71,-0.62,1.66,-0.93,2.84,-0.93c1.2,0,2.15,0.33,2.85,1c0.7,0.67,1.05,1.49,1.05,2.48c0,0.5,-0.1,0.99,-0.31,1.48c-0.21,0.48,-0.55,0.99,-1.02,1.52c-0.47,0.53,-1.26,1.27,-2.37,2.2c-0.93,0.78,-1.52,1.31,-1.78,1.59c-0.26,0.28,-0.47,0.55,-0.64,0.82l6.14,0m1.91,-4.69c0,-1.49,0.15,-2.68,0.46,-3.59c0.31,-0.9,0.76,-1.6,1.36,-2.09c0.6,-0.49,1.36,-0.73,2.27,-0.73c0.67,0,1.26,0.14,1.77,0.41c0.51,0.27,0.93,0.66,1.26,1.17c0.33,0.51,0.59,1.13,0.77,1.86c0.19,0.73,0.28,1.72,0.28,2.97c0,1.47,-0.15,2.65,-0.45,3.55c-0.3,0.9,-0.75,1.6,-1.35,2.09c-0.6,0.49,-1.36,0.74,-2.27,0.74c-1.21,0,-2.16,-0.43,-2.84,-1.3c-0.83,-1.05,-1.25,-2.75,-1.25,-5.09m1.59,0c0,2.05,0.24,3.42,0.72,4.1c0.48,0.68,1.07,1.02,1.78,1.02c0.71,0,1.3,-0.34,1.78,-1.03c0.48,-0.69,0.72,-2.05,0.72,-4.09c0,-2.06,-0.24,-3.43,-0.72,-4.12c-0.48,-0.68,-1.08,-1.02,-1.8,-1.02c-0.71,0,-1.27,0.3,-1.69,0.91c-0.53,0.76,-0.8,2.17,-0.8,4.23" fill="#000000" stroke="none" fill-opacity="1"/>
</g>
<g stroke-width="0.62" fill="#ffffff">
<path d="m300.53,275.64l218.73,0l0,218.73l-218.73,0l0,-218.73"/>
</g>
<g stroke-width="1" fill="none">
<path d="m312.62,299.37l0,-12.53l1.53,0l0,4.5c0.72,-0.83,1.62,-1.25,2.72,-1.25c0.68,0,1.26,0.13,1.76,0.4c0.49,0.27,0.85,0.63,1.06,1.1c0.21,0.47,0.32,1.15,0.32,2.03l0,5.75l-1.55,0l0,-5.75c0,-0.77,-0.17,-1.33,-0.5,-1.68c-0.33,-0.35,-0.8,-0.52,-1.41,-0.52c-0.46,0,-0.89,0.12,-1.29,0.35c-0.4,0.23,-0.69,0.55,-0.86,0.96c-0.17,0.41,-0.26,0.96,-0.26,1.67l0,4.97l-1.53,0m9.42,-4.53c0,-1.69,0.47,-2.93,1.41,-3.73c0.78,-0.68,1.73,-1.02,2.86,-1.02c1.24,0,2.26,0.41,3.05,1.23c0.79,0.82,1.19,1.95,1.19,3.38c0,1.18,-0.17,2.1,-0.52,2.77c-0.35,0.67,-0.86,1.18,-1.52,1.55c-0.67,0.37,-1.4,0.55,-2.19,0.55c-1.27,0,-2.3,-0.41,-3.09,-1.22c-0.79,-0.81,-1.18,-1.98,-1.18,-3.52m1.58,0c0,1.16,0.26,2.02,0.77,2.6c0.51,0.58,1.15,0.87,1.92,0.87c0.76,0,1.39,-0.29,1.9,-0.87c0.51,-0.58,0.76,-1.47,0.76,-2.66c0,-1.11,-0.26,-1.96,-0.77,-2.54c-0.51,-0.58,-1.14,-0.87,-1.89,-0.87c-0.77,0,-1.41,0.29,-1.92,0.86c-0.51,0.57,-0.77,1.44,-0.77,2.61m8.98,4.53l0,-9.08l1.37,0l0,1.37c0.35,-0.65,0.68,-1.07,0.98,-1.27c0.3,-0.2,0.63,-0.3,0.98,-0.3c0.52,0,1.05,0.17,1.58,0.5l-0.53,1.42c-0.37,-0.22,-0.75,-0.33,-1.12,-0.33c-0.33,0,-0.63,0.1,-0.9,0.3c-0.27,0.2,-0.46,0.48,-0.57,0.84c-0.18,0.55,-0.27,1.15,-0.27,1.8l0,4.75l-1.53,0m6.02,-10.77l0,-1.77l1.55,0l0,1.77l-1.55,0m0,10.77l0,-9.08l1.55,0l0,9.08l-1.55,0m3.19,0l0,-1.25l5.78,-6.62c-0.66,0.03,-1.23,0.05,-1.73,0.05l-3.7,0l0,-1.25l7.41,0l0,1.02l-4.91,5.77l-0.95,1.05c0.69,-0.05,1.33,-0.08,1.94,-0.08l4.2,0l0,1.33l-8.03,0m8.23,-4.53c0,-1.69,0.47,-2.93,1.41,-3.73c0.78,-0.68,1.73,-1.02,2.86,-1.02c1.24,0,2.26,0.41,3.05,1.23c0.79,0.82,1.19,1.95,1.19,3.38c0,1.18,-0.17,2.1,-0.52,2.77c-0.35,0.67,-0.86,1.18,-1.52,1.55c-0.67,0.37,-1.4,0.55,-2.19,0.55c-1.27,0,-2.3,-0.41,-3.09,-1.22c-0.79,-0.81,-1.18,-1.98,-1.18,-3.52m1.58,0c0,1.16,0.26,2.02,0.77,2.6c0.51,0.58,1.15,0.87,1.92,0.87c0.76,0,1.39,-0.29,1.9,-0.87c0.51,-0.58,0.76,-1.47,0.76,-2.66c0,-1.11,-0.26,-1.96,-0.77,-2.54c-0.51,-0.58,-1.14,-0.87,-1.89,-0.87c-0.77,0,-1.41,0.29,-1.92,0.86c-0.51,0.57,-0.77,1.44,-0.77,2.61m9,4.53l0,-9.08l1.37,0l0,1.3c0.67,-1,1.63,-1.5,2.89,-1.5c0.55,0,1.06,0.1,1.52,0.3c0.46,0.2,0.8,0.46,1.03,0.77c0.23,0.32,0.39,0.7,0.47,1.13c0.06,0.29,0.09,0.79,0.09,1.5l0,5.58l-1.55,0l0,-5.52c0,-0.62,-0.06,-1.09,-0.18,-1.41c-0.12,-0.31,-0.33,-0.56,-0.63,-0.75c-0.3,-0.19,-0.66,-0.28,-1.08,-0.28c-0.65,0,-1.21,0.21,-1.69,0.62c-0.48,0.42,-0.72,1.21,-0.72,2.37l0,4.95l-1.53,0m13.36,-1.37l0.22,1.36c-0.44,0.09,-0.82,0.14,-1.16,0.14c-0.56,0,-1,-0.09,-1.3,-0.27c-0.31,-0.18,-0.52,-0.41,-0.65,-0.7c-0.12,-0.29,-0.19,-0.89,-0.19,-1.82l0,-5.22l-1.12,0l0,-1.2l1.12,0l0,-2.25l1.53,-0.92l0,3.17l1.55,0l0,1.2l-1.55,0l0,5.3c0,0.44,0.03,0.72,0.08,0.85c0.05,0.13,0.14,0.23,0.27,0.3c0.12,0.07,0.3,0.11,0.53,0.11c0.17,0,0.39,-0.02,0.67,-0.06m7.56,0.25c-0.57,0.49,-1.12,0.83,-1.65,1.03c-0.53,0.2,-1.09,0.3,-1.7,0.3c-1,0,-1.77,-0.24,-2.3,-0.73c-0.54,-0.48,-0.8,-1.11,-0.8,-1.87c0,-0.45,0.1,-0.85,0.3,-1.22c0.2,-0.36,0.47,-0.66,0.8,-0.88c0.33,-0.22,0.7,-0.39,1.12,-0.51c0.3,-0.08,0.76,-0.16,1.36,-0.23c1.24,-0.15,2.16,-0.32,2.75,-0.53c0,-0.21,0,-0.34,0,-0.39c0,-0.62,-0.15,-1.07,-0.44,-1.33c-0.39,-0.34,-0.97,-0.52,-1.75,-0.52c-0.72,0,-1.25,0.12,-1.59,0.37c-0.34,0.25,-0.6,0.7,-0.77,1.34l-1.52,-0.2c0.15,-0.65,0.37,-1.17,0.69,-1.56c0.31,-0.4,0.76,-0.7,1.35,-0.91c0.59,-0.21,1.27,-0.32,2.05,-0.32c0.78,0,1.41,0.09,1.9,0.27c0.48,0.18,0.84,0.41,1.06,0.69c0.22,0.28,0.38,0.63,0.48,1.05c0.05,0.26,0.08,0.73,0.08,1.41l0,2.06c0,1.43,0.03,2.33,0.1,2.71c0.07,0.38,0.2,0.74,0.38,1.09l-1.59,0c-0.17,-0.32,-0.27,-0.7,-0.31,-1.12m-0.12,-3.42c-0.56,0.22,-1.4,0.41,-2.52,0.58c-0.64,0.08,-1.08,0.18,-1.34,0.3c-0.26,0.11,-0.46,0.28,-0.61,0.5c-0.15,0.22,-0.22,0.46,-0.22,0.73c0,0.42,0.16,0.76,0.47,1.03c0.31,0.27,0.77,0.41,1.37,0.41c0.58,0,1.11,-0.13,1.57,-0.39c0.46,-0.26,0.8,-0.61,1.02,-1.06c0.17,-0.34,0.25,-0.85,0.25,-1.53l0,-0.56m4.17,4.55l0,-12.53l1.53,0l0,12.53l-1.53,0" fill="#000000" stroke="none" fill-opacity="1"/>
<path d="m314.3,319.37l-2.78,-9.08l1.59,0l1.44,5.23l0.55,1.95c0.02,-0.09,0.18,-0.72,0.47,-1.87l1.44,-5.31l1.59,0l1.36,5.27l0.44,1.73l0.53,-1.75l1.55,-5.25l1.5,0l-2.83,9.08l-1.61,0l-1.44,-5.44l-0.36,-1.55l-1.83,6.98l-1.61,0m11.33,-10.77l0,-1.77l1.55,0l0,1.77l-1.55,0m0,10.77l0,-9.08l1.55,0l0,9.08l-1.55,0m7.36,-1.37l0.22,1.36c-0.44,0.09,-0.82,0.14,-1.16,0.14c-0.56,0,-1,-0.09,-1.3,-0.27c-0.31,-0.18,-0.52,-0.41,-0.65,-0.7c-0.12,-0.29,-0.19,-0.89,-0.19,-1.82l0,-5.22l-1.12,0l0,-1.2l1.12,0l0,-2.25l1.53,-0.92l0,3.17l1.55,0l0,1.2l-1.55,0l0,5.3c0,0.44,0.03,0.72,0.08,0.85c0.05,0.13,0.14,0.23,0.27,0.3c0.12,0.07,0.3,0.11,0.53,0.11c0.17,0,0.39,-0.02,0.67,-0.06m1.64,1.37l0,-12.53l1.53,0l0,4.5c0.72,-0.83,1.62,-1.25,2.72,-1.25c0.68,0,1.26,0.13,1.76,0.4c0.49,0.27,0.85,0.63,1.06,1.1c0.21,0.47,0.32,1.15,0.32,2.03l0,5.75l-1.55,0l0,-5.75c0,-0.77,-0.17,-1.33,-0.5,-1.68c-0.33,-0.35,-0.8,-0.52,-1.41,-0.52c-0.46,0,-0.89,0.12,-1.29,0.35c-0.4,0.23,-0.69,0.55,-0.86,0.96c-0.17,0.41,-0.26,0.96,-0.26,1.67l0,4.97l-1.53,0m17.52,0l-3.45,-9.08l1.62,0l1.95,5.44c0.21,0.58,0.4,1.19,0.58,1.83c0.14,-0.48,0.33,-1.05,0.58,-1.72l2.02,-5.55l1.58,0l-3.44,9.08l-1.44,0m12.41,-1.12c-0.57,0.49,-1.12,0.83,-1.65,1.03c-0.53,0.2,-1.09,0.3,-1.7,0.3c-1,0,-1.77,-0.24,-2.3,-0.73c-0.54,-0.48,-0.8,-1.11,-0.8,-1.87c0,-0.45,0.1,-0.85,0.3,-1.22c0.2,-0.36,0.47,-0.66,0.8,-0.88c0.33,-0.22,0.7,-0.39,1.12,-0.51c0.3,-0.08,0.76,-0.16,1.36,-0.23c1.24,-0.15,2.16,-0.32,2.75,-0.53c0,-0.21,0,-0.34,0,-0.39c0,-0.62,-0.15,-1.07,-0.44,-1.33c-0.39,-0.34,-0.97,-0.52,-1.75,-0.52c-0.72,0,-1.25,0.12,-1.59,0.37c-0.34,0.25,-0.6,0.7,-0.77,1.34l-1.52,-0.2c0.15,-0.65,0.37,-1.17,0.69,-1.56c0.31,-0.4,0.76,-0.7,1.35,-0.91c0.59,-0.21,1.27,-0.32,2.05,-0.32c0.78,0,1.41,0.09,1.9,0.27c0.48,0.18,0.84,0.41,1.06,0.69c0.22,0.28,0.38,0.63,0.48,1.05c0.05,0.26,0.08,0.73,0.08,1.41l0,2.06c0,1.43,0.03,2.33,0.1,2.71c0.07,0.38,0.2,0.74,0.38,1.09l-1.59,0c-0.17,-0.32,-0.27,-0.7,-0.31,-1.12m-0.12,-3.42c-0.56,0.22,-1.4,0.41,-2.52,0.58c-0.64,0.08,-1.08,0.18,-1.34,0.3c-0.26,0.11,-0.46,0.28,-0.61,0.5c-0.15,0.22,-0.22,0.46,-0.22,0.73c0,0.42,0.16,0.76,0.47,1.03c0.31,0.27,0.77,0.41,1.37,0.41c0.58,0,1.11,-0.13,1.57,-0.39c0.46,-0.26,0.8,-0.61,1.02,-1.06c0.17,-0.34,0.25,-0.85,0.25,-1.53l0,-0.56m4.17,4.55l0,-12.53l1.53,0l0,12.53l-1.53,0m9.97,0l0,-1.33c-0.7,1.02,-1.66,1.53,-2.87,1.53c-0.53,0,-1.03,-0.1,-1.49,-0.3c-0.46,-0.2,-0.81,-0.46,-1.04,-0.77c-0.23,-0.31,-0.39,-0.69,-0.47,-1.14c-0.06,-0.3,-0.09,-0.78,-0.09,-1.44l0,-5.62l1.53,0l0,5.03c0,0.8,0.03,1.34,0.09,1.62c0.09,0.41,0.3,0.72,0.62,0.95c0.32,0.23,0.71,0.34,1.16,0.34c0.46,0,0.89,-0.12,1.3,-0.35c0.41,-0.23,0.69,-0.55,0.86,-0.96c0.17,-0.41,0.25,-1,0.25,-1.78l0,-4.86l1.55,0l0,9.08l-1.39,0m10.27,-2.92l1.59,0.2c-0.25,0.93,-0.71,1.65,-1.39,2.16c-0.68,0.51,-1.54,0.77,-2.59,0.77c-1.33,0,-2.39,-0.41,-3.16,-1.23c-0.78,-0.82,-1.16,-1.96,-1.16,-3.43c0,-1.53,0.39,-2.72,1.18,-3.56c0.79,-0.84,1.8,-1.27,3.05,-1.27c1.22,0,2.21,0.41,2.98,1.24c0.77,0.83,1.15,1.99,1.15,3.49c0,0.08,0,0.22,0,0.41l-6.77,0c0.05,0.99,0.33,1.75,0.84,2.28c0.51,0.53,1.14,0.8,1.89,0.8c0.56,0,1.04,-0.15,1.45,-0.45c0.4,-0.3,0.72,-0.77,0.95,-1.41m-5.05,-2.48l5.08,0c-0.07,-0.76,-0.27,-1.33,-0.59,-1.72c-0.49,-0.59,-1.12,-0.89,-1.91,-0.89c-0.7,0,-1.29,0.24,-1.77,0.71c-0.48,0.47,-0.75,1.11,-0.8,1.9m8.22,2.7l1.53,-0.25c0.08,0.61,0.32,1.08,0.71,1.41c0.39,0.32,0.93,0.48,1.63,0.48c0.71,0,1.23,-0.14,1.58,-0.43c0.34,-0.29,0.52,-0.62,0.52,-1.01c0,-0.35,-0.15,-0.63,-0.45,-0.83c-0.22,-0.14,-0.74,-0.31,-1.58,-0.52c-1.12,-0.28,-1.91,-0.53,-2.34,-0.73c-0.44,-0.21,-0.77,-0.5,-0.99,-0.87c-0.22,-0.37,-0.34,-0.78,-0.34,-1.23c0,-0.4,0.09,-0.77,0.27,-1.12c0.18,-0.35,0.43,-0.63,0.76,-0.85c0.24,-0.18,0.57,-0.33,0.98,-0.45c0.41,-0.12,0.86,-0.19,1.34,-0.19c0.71,0,1.33,0.1,1.87,0.3c0.54,0.2,0.93,0.48,1.2,0.84c0.26,0.35,0.44,0.82,0.53,1.41l-1.5,0.2c-0.07,-0.47,-0.27,-0.83,-0.6,-1.09c-0.33,-0.26,-0.79,-0.39,-1.38,-0.39c-0.71,0,-1.21,0.12,-1.52,0.35c-0.3,0.23,-0.45,0.51,-0.45,0.82c0,0.2,0.06,0.37,0.19,0.53c0.12,0.17,0.32,0.31,0.59,0.42c0.16,0.05,0.61,0.18,1.36,0.39c1.08,0.29,1.84,0.53,2.27,0.71c0.43,0.18,0.77,0.45,1.02,0.8c0.24,0.35,0.37,0.79,0.37,1.31c0,0.52,-0.15,1.01,-0.45,1.46c-0.3,0.45,-0.73,0.8,-1.3,1.05c-0.56,0.24,-1.2,0.37,-1.91,0.37c-1.18,0,-2.08,-0.24,-2.7,-0.73c-0.62,-0.49,-1.02,-1.21,-1.2,-2.17" fill="#000000" stroke="none" fill-opacity="1"/>
</g>
</g>
<g clip-path="url(#c4)">
<g stroke-width="0.62" fill="#ff557f">
<path d="m409.9,489.09l109.37,0l0,5.9l-109.37,0l0,-5.9"/>
<path d="m409.9,478.53l100.73,0l0,10.55l-100.73,0l0,-10.55"/>
<path d="m409.9,467.98l76.2,0l0,10.55l-76.2,0l0,-10.55"/>
<path d="m409.9,457.42l39.63,0l0,10.55l-39.63,0l0,-10.55"/>
<path d="m406.7,446.87l3.19,0l0,10.55l-3.19,0l0,-10.55"/>
<path d="m364.39,436.32l45.51,0l0,10.55l-45.51,0l0,-10.55"/>
<path d="m329.25,425.76l80.65,0l0,10.55l-80.65,0l0,-10.55"/>
<path d="m306.85,415.21l103.05,0l0,10.55l-103.05,0l0,-10.55"/>
<path d="m300.72,404.65l109.18,0l0,10.55l-109.18,0l0,-10.55"/>
<path d="m311.82,394.1l98.07,0l0,10.55l-98.07,0l0,-10.55"/>
<path d="m338.41,383.54l71.49,0l0,10.55l-71.49,0l0,-10.55"/>
<path d="m376.29,372.99l33.61,0l0,10.55l-33.61,0l0,-10.55"/>
<path d="m409.9,362.43l9.57,0l0,10.55l-9.57,0l0,-10.55"/>
<path d="m409.9,351.88l51.24,0l0,10.55l-51.24,0l0,-10.55"/>
<path d="m409.9,341.32l84.82,0l0,10.55l-84.82,0l0,-10.55"/>
<path d="m409.9,330.77l105.01,0l0,10.55l-105.01,0l0,-10.55"/>
<path d="m409.9,320.21l108.62,0l0,10.55l-108.62,0l0,-10.55"/>
<path d="m409.9,309.66l95.08,0l0,10.55l-95.08,0l0,-10.55"/>
<path d="m409.9,299.1l66.53,0l0,10.55l-66.53,0l0,-10.55"/>
<path d="m409.9,288.55l27.48,0l0,10.55l-27.48,0l0,-10.55"/>
<path d="m393.98,277.99l15.91,0l0,10.55l-15.91,0l0,-10.55"/>
<path d="M508.33,494.37l21.87,0M499.69,483.81l21.87,0M475.16,473.26l21.87,0M438.59,462.7l21.87,0M395.77,452.15l21.87,0M353.45,441.59l21.87,0M318.32,431.04l21.87,0M295.91,420.48l21.87,0M289.78,409.93l21.87,0M300.89,399.37l21.87,0M327.48,388.82l21.87,0M365.35,378.26l21.87,0M408.53,367.71l21.87,0M450.2,357.15l21.87,0M483.78,346.6l21.87,0M503.97,336.04l21.87,0M507.58,325.49l21.87,0M494.04,314.93l21.87,0M465.49,304.38l21.87,0M426.44,293.82l21.87,0M383.05,283.27l21.87,0"/>
<path d="M508.33,491.73l0,5.28M499.69,481.17l0,5.28M475.16,470.62l0,5.28M438.59,460.06l0,5.28M395.77,449.51l0,5.28M353.45,438.95l0,5.28M318.32,428.4l0,5.28M295.91,417.84l0,5.28M289.78,407.29l0,5.28M300.89,396.73l0,5.28M327.48,386.18l0,5.28M365.35,375.62l0,5.28M408.53,365.07l0,5.28M450.2,354.52l0,5.28M483.78,343.96l0,5.28M503.97,333.41l0,5.28M507.58,322.85l0,5.28M494.04,312.3l0,5.28M465.49,301.74l0,5.28M426.44,291.19l0,5.28M383.05,280.63l0,5.28"/>
<path d="M530.2,491.73l0,5.28M521.57,481.17l0,5.28M497.03,470.62l0,5.28M460.46,460.06l0,5.28M417.64,449.51l0,5.28M375.32,438.95l0,5.28M340.19,428.4l0,5.28M317.79,417.84l0,5.28M311.66,407.29l0,5.28M322.76,396.73l0,5.28M349.35,386.18l0,5.28M387.22,375.62l0,5.28M430.4,365.07l0,5.28M472.07,354.52l0,5.28M505.65,343.96l0,5.28M525.84,333.41l0,5.28M529.45,322.85l0,5.28M515.92,312.3l0,5.28M487.37,301.74l0,5.28M448.31,291.19l0,5.28M404.92,280.63l0,5.28"/>
</g>
</g>
<g clip-path="url(#c0)">
<g stroke="#808080" stroke-width="0.62" stroke-dasharray="1.25,2.5" fill="none">
<path d="M300.53,494.37l218.73,0M300.53,421.46l218.73,0M300.53,348.55l218.73,0M300.53,275.64l218.73,0"/>
</g>
<g stroke-width="0.62" stroke-linecap="butt" fill="none">
<path d="M300.53,494.37l0,-218.73"/>
<path d="M300.53,494.37l3.75,0M300.53,470.06l3.75,0M300.53,445.76l3.75,0M300.53,421.46l3.75,0M300.53,397.15l3.75,0M300.53,372.85l3.75,0M300.53,348.55l3.75,0M300.53,324.24l3.75,0M300.53,299.94l3.75,0M300.53,275.64l3.75,0"/>
<path d="M300.53,494.37l7.5,0M300.53,421.46l7.5,0M300.53,348.55l7.5,0M300.53,275.64l7.5,0"/>
<path d="M519.26,494.37l0,-218.73"/>
<path d="M519.26,494.37l-3.75,0M519.26,470.06l-3.75,0M519.26,445.76l-3.75,0M519.26,421.46l-3.75,0M519.26,397.15l-3.75,0M519.26,372.85l-3.75,0M519.26,348.55l-3.75,0M519.26,324.24l-3.75,0M519.26,299.94l-3.75,0M519.26,275.64l-3.75,0"/>
<path d="M519.26,494.37l-7.5,0M519.26,421.46l-7.5,0M519.26,348.55l-7.5,0M519.26,275.64l-7.5,0"/>
</g>
<g stroke-width="1" fill="none">
<path d="m294.05,500.86l-1.53,0l0,-9.8c-0.37,0.35,-0.86,0.71,-1.46,1.05c-0.6,0.35,-1.14,0.61,-1.62,0.79l0,-1.48c0.86,-0.41,1.62,-0.9,2.26,-1.47c0.64,-0.57,1.1,-1.13,1.37,-1.67l0.98,0l0,12.58" fill="#000000" stroke="none" fill-opacity="1"/>
<path d="m264.05,427.95l-1.53,0l0,-9.8c-0.37,0.35,-0.86,0.71,-1.46,1.05c-0.6,0.35,-1.14,0.61,-1.62,0.79l0,-1.48c0.86,-0.41,1.62,-0.9,2.26,-1.47c0.64,-0.57,1.1,-1.13,1.37,-1.67l0.98,0l0,12.58m4.2,-6.17c0,-1.49,0.15,-2.68,0.46,-3.59c0.31,-0.9,0.76,-1.6,1.36,-2.09c0.6,-0.49,1.36,-0.73,2.27,-0.73c0.67,0,1.26,0.14,1.77,0.41c0.51,0.27,0.93,0.66,1.26,1.17c0.33,0.51,0.59,1.13,0.77,1.86c0.19,0.73,0.28,1.72,0.28,2.97c0,1.47,-0.15,2.65,-0.45,3.55c-0.3,0.9,-0.75,1.6,-1.35,2.09c-0.6,0.49,-1.36,0.74,-2.27,0.74c-1.21,0,-2.16,-0.43,-2.84,-1.3c-0.83,-1.05,-1.25,-2.75,-1.25,-5.09m1.59,0c0,2.05,0.24,3.42,0.72,4.1c0.48,0.68,1.07,1.02,1.78,1.02c0.71,0,1.3,-0.34,1.78,-1.03c0.48,-0.69,0.72,-2.05,0.72,-4.09c0,-2.06,-0.24,-3.43,-0.72,-4.12c-0.48,-0.68,-1.08,-1.02,-1.8,-1.02c-0.71,0,-1.27,0.3,-1.69,0.91c-0.53,0.76,-0.8,2.17,-0.8,4.23m8.41,0c0,-1.49,0.15,-2.68,0.46,-3.59c0.31,-0.9,0.76,-1.6,1.36,-2.09c0.6,-0.49,1.36,-0.73,2.27,-0.73c0.67,0,1.26,0.14,1.77,0.41c0.51,0.27,0.93,0.66,1.26,1.17c0.33,0.51,0.59,1.13,0.77,1.86c0.19,0.73,0.28,1.72,0.28,2.97c0,1.47,-0.15,2.65,-0.45,3.55c-0.3,0.9,-0.75,1.6,-1.35,2.09c-0.6,0.49,-1.36,0.74,-2.27,0.74c-1.21,0,-2.16,-0.43,-2.84,-1.3c-0.83,-1.05,-1.25,-2.75,-1.25,-5.09m1.59,0c0,2.05,0.24,3.42,0.72,4.1c0.48,0.68,1.07,1.02,1.78,1.02c0.71,0,1.3,-0.34,1.78,-1.03c0.48,-0.69,0.72,-2.05,0.72,-4.09c0,-2.06,-0.24,-3.43,-0.72,-4.12c-0.48,-0.68,-1.08,-1.02,-1.8,-1.02c-0.71,0,-1.27,0.3,-1.69,0.91c-0.53,0.76,-0.8,2.17,-0.8,4.23m8.41,0c0,-1.49,0.15,-2.68,0.46,-3.59c0.31,-0.9,0.76,-1.6,1.36,-2.09c0.6,-0.49,1.36,-0.73,2.27,-0.73c0.67,0,1.26,0.14,1.77,0.41c0.51,0.27,0.93,0.66,1.26,1.17c0.33,0.51,0.59,1.13,0.77,1.86c0.19,0.73,0.28,1.72,0.28,2.97c0,1.47,-0.15,2.65,-0.45,3.55c-0.3,0.9,-0.75,1.6,-1.35,2.09c-0.6,0.49,-1.36,0.74,-2.27,0.74c-1.21,0,-2.16,-0.43,-2.84,-1.3c-0.83,-1.05,-1.25,-2.75,-1.25,-5.09m1.59,0c0,2.05,0.24,3.42,0.72,4.1c0.48,0.68,1.07,1.02,1.78,1.02c0.71,0,1.3,-0.34,1.78,-1.03c0.48,-0.69,0.72,-2.05,0.72,-4.09c0,-2.06,-0.24,-3.43,-0.72,-4.12c-0.48,-0.68,-1.08,-1.02,-1.8,-1.02c-0.71,0,-1.27,0.3,-1.69,0.91c-0.53,0.76,-0.8,2.17,-0.8,4.23" fill="#000000" stroke="none" fill-opacity="1"/>
<path d="m278.05,355.03l-1.53,0l0,-9.8c-0.37,0.35,-0.86,0.71,-1.46,1.05c-0.6,0.35,-1.14,0.61,-1.62,0.79l0,-1.48c0.86,-0.41,1.62,-0.9,2.26,-1.47c0.64,-0.57,1.1,-1.13,1.37,-1.67l0.98,0l0,12.58m4.2,-6.17c0,-1.49,0.15,-2.68,0.46,-3.59c0.31,-0.9,0.76,-1.6,1.36,-2.09c0.6,-0.49,1.36,-0.73,2.27,-0.73c0.67,0,1.26,0.14,1.77,0.41c0.51,0.27,0.93,0.66,1.26,1.17c0.33,0.51,0.59,1.13,0.77,1.86c0.19,0.73,0.28,1.72,0.28,2.97c0,1.47,-0.15,2.65,-0.45,3.55c-0.3,0.9,-0.75,1.6,-1.35,2.09c-0.6,0.49,-1.36,0.74,-2.27,0.74c-1.21,0,-2.16,-0.43,-2.84,-1.3c-0.83,-1.05,-1.25,-2.75,-1.25,-5.09m1.59,0c0,2.05,0.24,3.42,0.72,4.1c0.48,0.68,1.07,1.02,1.78,1.02c0.71,0,1.3,-0.34,1.78,-1.03c0.48,-0.69,0.72,-2.05,0.72,-4.09c0,-2.06,-0.24,-3.43,-0.72,-4.12c-0.48,-0.68,-1.08,-1.02,-1.8,-1.02c-0.71,0,-1.27,0.3,-1.69,0.91c-0.53,0.76,-0.8,2.17,-0.8,4.23" fill="#000000" stroke="none" fill-opacity="1"/>
<path d="m296.75,341.36l-0.91,0.06c-0.08,-0.35,-0.2,-0.61,-0.36,-0.78c-0.25,-0.26,-0.56,-0.39,-0.92,-0.39c-0.29,0,-0.55,0.08,-0.77,0.23c-0.29,0.22,-0.52,0.53,-0.69,0.94c-0.17,0.41,-0.26,0.98,-0.27,1.73c0.22,-0.34,0.49,-0.6,0.81,-0.76c0.32,-0.16,0.66,-0.24,1.02,-0.24c0.61,0,1.14,0.23,1.57,0.68c0.43,0.45,0.65,1.04,0.65,1.76c0,0.47,-0.1,0.91,-0.3,1.31c-0.2,0.41,-0.48,0.72,-0.84,0.93c-0.35,0.21,-0.76,0.32,-1.22,0.32c-0.77,0,-1.4,-0.28,-1.88,-0.84c-0.48,-0.56,-0.73,-1.49,-0.73,-2.8c0,-1.46,0.27,-2.52,0.81,-3.17c0.47,-0.57,1.1,-0.86,1.89,-0.86c0.59,0,1.08,0.17,1.45,0.5c0.37,0.33,0.6,0.79,0.67,1.37m-3.77,3.23c0,0.32,0.07,0.63,0.2,0.91c0.14,0.29,0.33,0.51,0.57,0.66c0.24,0.16,0.5,0.23,0.76,0.23c0.4,0,0.73,-0.16,1.02,-0.48c0.28,-0.32,0.42,-0.75,0.42,-1.29c0,-0.51,-0.14,-0.92,-0.42,-1.22c-0.28,-0.3,-0.63,-0.45,-1.05,-0.45c-0.42,0,-0.77,0.15,-1.06,0.45c-0.29,0.3,-0.44,0.69,-0.44,1.17" fill="#000000" stroke="none" fill-opacity="1"/>
<path d="m278.05,285.52l-1.53,0l0,-9.8c-0.37,0.35,-0.86,0.71,-1.46,1.05c-0.6,0.35,-1.14,0.61,-1.62,0.79l0,-1.48c0.86,-0.41,1.62,-0.9,2.26,-1.47c0.64,-0.57,1.1,-1.13,1.37,-1.67l0.98,0l0,12.58m4.2,-6.17c0,-1.49,0.15,-2.68,0.46,-3.59c0.31,-0.9,0.76,-1.6,1.36,-2.09c0.6,-0.49,1.36,-0.73,2.27,-0.73c0.67,0,1.26,0.14,1.77,0.41c0.51,0.27,0.93,0.66,1.26,1.17c0.33,0.51,0.59,1.13,0.77,1.86c0.19,0.73,0.28,1.72,0.28,2.97c0,1.47,-0.15,2.65,-0.45,3.55c-0.3,0.9,-0.75,1.6,-1.35,2.09c-0.6,0.49,-1.36,0.74,-2.27,0.74c-1.21,0,-2.16,-0.43,-2.84,-1.3c-0.83,-1.05,-1.25,-2.75,-1.25,-5.09m1.59,0c0,2.05,0.24,3.42,0.72,4.1c0.48,0.68,1.07,1.02,1.78,1.02c0.71,0,1.3,-0.34,1.78,-1.03c0.48,-0.69,0.72,-2.05,0.72,-4.09c0,-2.06,-0.24,-3.43,-0.72,-4.12c-0.48,-0.68,-1.08,-1.02,-1.8,-1.02c-0.71,0,-1.27,0.3,-1.69,0.91c-0.53,0.76,-0.8,2.17,-0.8,4.23" fill="#000000" stroke="none" fill-opacity="1"/>
<path d="m292.11,275.78l0.89,-0.08c0.07,0.42,0.21,0.72,0.42,0.91c0.21,0.19,0.48,0.28,0.81,0.28c0.28,0,0.53,-0.07,0.75,-0.2c0.22,-0.13,0.4,-0.3,0.53,-0.52c0.14,-0.22,0.25,-0.51,0.34,-0.88c0.09,-0.37,0.13,-0.75,0.13,-1.13c0,-0.04,0,-0.1,0,-0.17c-0.19,0.29,-0.44,0.53,-0.76,0.71c-0.32,0.18,-0.66,0.27,-1.04,0.27c-0.61,0,-1.14,-0.23,-1.57,-0.68c-0.43,-0.45,-0.65,-1.05,-0.65,-1.79c0,-0.76,0.22,-1.37,0.67,-1.84c0.45,-0.46,1.01,-0.7,1.69,-0.7c0.49,0,0.94,0.13,1.34,0.4c0.41,0.27,0.71,0.64,0.92,1.12c0.21,0.48,0.31,1.19,0.31,2.12c0,0.96,-0.1,1.72,-0.31,2.29c-0.21,0.57,-0.52,1,-0.93,1.3c-0.41,0.3,-0.89,0.45,-1.45,0.45c-0.58,0,-1.06,-0.16,-1.44,-0.48c-0.37,-0.32,-0.6,-0.78,-0.67,-1.37m3.78,-3.33c0,-0.52,-0.14,-0.94,-0.43,-1.25c-0.29,-0.31,-0.63,-0.47,-1.02,-0.47c-0.41,0,-0.76,0.17,-1.06,0.5c-0.3,0.33,-0.45,0.77,-0.45,1.3c0,0.48,0.14,0.87,0.43,1.17c0.29,0.3,0.64,0.45,1.07,0.45c0.43,0,0.78,-0.15,1.05,-0.45c0.28,-0.3,0.41,-0.72,0.41,-1.25" fill="#000000" stroke="none" fill-opacity="1"/>
</g>
<g stroke="#808080" stroke-width="0.62" stroke-dasharray="1.25,2.5" fill="none">
<path d="M300.53,494.37l0,-218.73M355.21,494.37l0,-218.73M409.9,494.37l0,-218.73M464.58,494.37l0,-218.73M519.26,494.37l0,-218.73"/>
</g>
<g stroke-width="0.62" stroke-linecap="butt" fill="none">
<path d="M300.53,494.37l218.73,0"/>
<path d="M300.53,494.37l0,-3.75M311.47,494.37l0,-3.75M322.41,494.37l0,-3.75M333.34,494.37l0,-3.75M344.28,494.37l0,-3.75M355.21,494.37l0,-3.75M366.15,494.37l0,-3.75M377.09,494.37l0,-3.75M388.02,494.37l0,-3.75M398.96,494.37l0,-3.75M409.9,494.37l0,-3.75M420.83,494.37l0,-3.75M431.77,494.37l0,-3.75M442.71,494.37l0,-3.75M453.64,494.37l0,-3.75M464.58,494.37l0,-3.75M475.52,494.37l0,-3.75M486.45,494.37l0,-3.75M497.39,494.37l0,-3.75M508.33,494.37l0,-3.75M519.26,494.37l0,-3.75"/>
<path d="M300.53,494.37l0,-7.5M355.21,494.37l0,-7.5M409.9,494.37l0,-7.5M464.58,494.37l0,-7.5M519.26,494.37l0,-7.5"/>
<path d="M300.53,275.64l218.73,0"/>
<path d="M300.53,275.64l0,3.75M311.47,275.64l0,3.75M322.41,275.64l0,3.75M333.34,275.64l0,3.75M344.28,275.64l0,3.75M355.21,275.64l0,3.75M366.15,275.64l0,3.75M377.09,275.64l0,3.75M388.02,275.64l0,3.75M398.96,275.64l0,3.75M409.9,275.64l0,3.75M420.83,275.64l0,3.75M431.77,275.64l0,3.75M442.71,275.64l0,3.75M453.64,275.64l0,3.75M464.58,275.64l0,3.75M475.52,275.64l0,3.75M486.45,275.64l0,3.75M497.39,275.64l0,3.75M508.33,275.64l0,3.75M519.26,275.64l0,3.75"/>
<path d="M300.53,275.64l0,7.5M355.21,275.64l0,7.5M409.9,275.64l0,7.5M464.58,275.64l0,7.5M519.26,275.64l0,7.5"/>
</g>
<g stroke-width="1" fill="none">
<path d="m299.28,507.91l-8.28,0l0,-1.44l8.28,0l0,1.44m8.27,5.45l-1.53,0l0,-9.8c-0.37,0.35,-0.86,0.71,-1.46,1.05c-0.6,0.35,-1.14,0.61,-1.62,0.79l0,-1.48c0.86,-0.41,1.62,-0.9,2.26,-1.47c0.64,-0.57,1.1,-1.13,1.37,-1.67l0.98,0l0,12.58" fill="#000000" stroke="none" fill-opacity="1"/>
<path d="m346.45,507.91l-8.28,0l0,-1.44l8.28,0l0,1.44m2.47,-0.72c0,-1.49,0.15,-2.68,0.46,-3.59c0.31,-0.9,0.76,-1.6,1.36,-2.09c0.6,-0.49,1.36,-0.73,2.27,-0.73c0.67,0,1.26,0.14,1.77,0.41c0.51,0.27,0.93,0.66,1.26,1.17c0.33,0.51,0.59,1.13,0.77,1.86c0.19,0.73,0.28,1.72,0.28,2.97c0,1.47,-0.15,2.65,-0.45,3.55c-0.3,0.9,-0.75,1.6,-1.35,2.09c-0.6,0.49,-1.36,0.74,-2.27,0.74c-1.21,0,-2.16,-0.43,-2.84,-1.3c-0.83,-1.05,-1.25,-2.75,-1.25,-5.09m1.59,0c0,2.05,0.24,3.42,0.72,4.1c0.48,0.68,1.07,1.02,1.78,1.02c0.71,0,1.3,-0.34,1.78,-1.03c0.48,-0.69,0.72,-2.05,0.72,-4.09c0,-2.06,-0.24,-3.43,-0.72,-4.12c-0.48,-0.68,-1.08,-1.02,-1.8,-1.02c-0.71,0,-1.27,0.3,-1.69,0.91c-0.53,0.76,-0.8,2.17,-0.8,4.23m9.28,6.17l0,-1.75l1.75,0l0,1.75l-1.75,0m4.12,-3.28l1.62,-0.14c0.11,0.79,0.39,1.39,0.83,1.78c0.44,0.4,0.96,0.59,1.58,0.59c0.74,0,1.37,-0.28,1.88,-0.84c0.52,-0.56,0.77,-1.3,0.77,-2.23c0,-0.87,-0.25,-1.57,-0.74,-2.08c-0.49,-0.51,-1.14,-0.77,-1.95,-0.77c-0.49,0,-0.93,0.11,-1.34,0.34c-0.4,0.23,-0.72,0.52,-0.95,0.87l-1.44,-0.19l1.22,-6.44l6.22,0l0,1.47l-5,0l-0.67,3.37c0.75,-0.53,1.54,-0.8,2.37,-0.8c1.09,0,2.02,0.38,2.77,1.14c0.75,0.76,1.12,1.73,1.12,2.92c0,1.14,-0.33,2.11,-0.98,2.94c-0.8,1.02,-1.9,1.53,-3.3,1.53c-1.14,0,-2.07,-0.32,-2.79,-0.96c-0.72,-0.64,-1.14,-1.49,-1.24,-2.54" fill="#000000" stroke="none" fill-opacity="1"/>
<path d="m405.61,507.19c0,-1.49,0.15,-2.68,0.46,-3.59c0.31,-0.9,0.76,-1.6,1.36,-2.09c0.6,-0.49,1.36,-0.73,2.27,-0.73c0.67,0,1.26,0.14,1.77,0.41c0.51,0.27,0.93,0.66,1.26,1.17c0.33,0.51,0.59,1.13,0.77,1.86c0.19,0.73,0.28,1.72,0.28,2.97c0,1.47,-0.15,2.65,-0.45,3.55c-0.3,0.9,-0.75,1.6,-1.35,2.09c-0.6,0.49,-1.36,0.74,-2.27,0.74c-1.21,0,-2.16,-0.43,-2.84,-1.3c-0.83,-1.05,-1.25,-2.75,-1.25,-5.09m1.59,0c0,2.05,0.24,3.42,0.72,4.1c0.48,0.68,1.07,1.02,1.78,1.02c0.71,0,1.3,-0.34,1.78,-1.03c0.48,-0.69,0.72,-2.05,0.72,-4.09c0,-2.06,-0.24,-3.43,-0.72,-4.12c-0.48,-0.68,-1.08,-1.02,-1.8,-1.02c-0.71,0,-1.27,0.3,-1.69,0.91c-0.53,0.76,-0.8,2.17,-0.8,4.23" fill="#000000" stroke="none" fill-opacity="1"/>
<path d="m452.8,507.19c0,-1.49,0.15,-2.68,0.46,-3.59c0.31,-0.9,0.76,-1.6,1.36,-2.09c0.6,-0.49,1.36,-0.73,2.27,-0.73c0.67,0,1.26,0.14,1.77,0.41c0.51,0.27,0.93,0.66,1.26,1.17c0.33,0.51,0.59,1.13,0.77,1.86c0.19,0.73,0.28,1.72,0.28,2.97c0,1.47,-0.15,2.65,-0.45,3.55c-0.3,0.9,-0.75,1.6,-1.35,2.09c-0.6,0.49,-1.36,0.74,-2.27,0.74c-1.21,0,-2.16,-0.43,-2.84,-1.3c-0.83,-1.05,-1.25,-2.75,-1.25,-5.09m1.59,0c0,2.05,0.24,3.42,0.72,4.1c0.48,0.68,1.07,1.02,1.78,1.02c0.71,0,1.3,-0.34,1.78,-1.03c0.48,-0.69,0.72,-2.05,0.72,-4.09c0,-2.06,-0.24,-3.43,-0.72,-4.12c-0.48,-0.68,-1.08,-1.02,-1.8,-1.02c-0.71,0,-1.27,0.3,-1.69,0.91c-0.53,0.76,-0.8,2.17,-0.8,4.23m9.28,6.17l0,-1.75l1.75,0l0,1.75l-1.75,0m4.12,-3.28l1.62,-0.14c0.11,0.79,0.39,1.39,0.83,1.78c0.44,0.4,0.96,0.59,1.58,0.59c0.74,0,1.37,-0.28,1.88,-0.84c0.52,-0.56,0.77,-1.3,0.77,-2.23c0,-0.87,-0.25,-1.57,-0.74,-2.08c-0.49,-0.51,-1.14,-0.77,-1.95,-0.77c-0.49,0,-0.93,0.11,-1.34,0.34c-0.4,0.23,-0.72,0.52,-0.95,0.87l-1.44,-0.19l1.22,-6.44l6.22,0l0,1.47l-5,0l-0.67,3.37c0.75,-0.53,1.54,-0.8,2.37,-0.8c1.09,0,2.02,0.38,2.77,1.14c0.75,0.76,1.12,1.73,1.12,2.92c0,1.14,-0.33,2.11,-0.98,2.94c-0.8,1.02,-1.9,1.53,-3.3,1.53c-1.14,0,-2.07,-0.32,-2.79,-0.96c-0.72,-0.64,-1.14,-1.49,-1.24,-2.54" fill="#000000" stroke="none" fill-opacity="1"/>
<path d="m520.77,513.36l-1.53,0l0,-9.8c-0.37,0.35,-0.86,0.71,-1.46,1.05c-0.6,0.35,-1.14,0.61,-1.62,0.79l0,-1.48c0.86,-0.41,1.62,-0.9,2.26,-1.47c0.64,-0.57,1.1,-1.13,1.37,-1.67l0.98,0l0,12.58" fill="#000000" stroke="none" fill-opacity="1"/>
</g>
</g>
</g>
<defs>
<clipPath id="c0"><path d="m0,0l533.49,0l0,533.49l-533.49,0l0,-533.49"/></clipPath>
<clipPath id="c1"><path d="m39.12,14.23l218.73,0l0,218.73l-218.73,0l0,-218.73"/></clipPath>
<clipPath id="c2"><path d="m300.53,14.23l218.73,0l0,218.73l-218.73,0l0,-218.73"/></clipPath>
<clipPath id="c3"><path d="m39.12,275.64l218.73,0l0,218.73l-218.73,0l0,-218.73"/></clipPath>
<clipPath id="c4"><path d="m300.53,275.64l218.73,0l0,218.73l-218.73,0l0,-218.73"/></clipPath>
</defs>
</svg>
