<?xml version="1.0" standalone="no"?>
<!DOCTYPE svg PUBLIC "-//W3C//DTD SVG 1.1//EN" 
  "http://www.w3.org/Graphics/SVG/1.1/DTD/svg11.dtd">
<svg width="515.71px" height="426.79px" version="1.1"
     xmlns="http://www.w3.org/2000/svg"
     xmlns:xlink="http://www.w3.org/1999/xlink">
<desc>Veusz output document</desc>
<g stroke-linejoin="bevel" stroke-linecap="square" stroke="#000000" fill-rule="evenodd">
<g clip-path="url(#c0)">
<g stroke-width="0.62" fill="#fffeea">
<path d="m46.24,7.11l462.36,0l0,373.44l-462.36,0l0,-373.44"/>
</g>
</g>
<g clip-path="url(#c1)">
<g stroke-linejoin="miter" stroke="none" stroke-width="1" transform="translate(69.35, 99.84)" fill="#ff00ff">
<path d="m3.75,0c0,2.07,-1.68,3.75,-3.75,3.75c-2.07,0,-3.75,-1.68,-3.75,-3.75c0,-2.07,1.68,-3.75,3.75,-3.75c2.07,0,3.75,1.68,3.75,3.75"/>
</g>
<g stroke-linejoin="miter" stroke="none" stroke-width="1" transform="translate(69.35, 49.69)" fill="#ff00ff">
<path d="m3.75,0c0,2.07,-1.68,3.75,-3.75,3.75c-2.07,0,-3.75,-1.68,-3.75,-3.75c0,-2.07,1.68,-3.75,3.75,-3.75c2.07,0,3.75,1.68,3.75,3.75"/>
</g>
<g stroke-linejoin="miter" stroke="none" stroke-width="1" transform="translate(69.35, 81.13)" fill="#ff00ff">
<path d="m3.75,0c0,2.07,-1.68,3.75,-3.75,3.75c-2.07,0,-3.75,-1.68,-3.75,-3.75c0,-2.07,1.68,-3.75,3.75,-3.75c2.07,0,3.75,1.68,3.75,3.75"/>
</g>
<g stroke-linejoin="miter" stroke="none" stroke-width="1" transform="translate(69.35, 63.66)" fill="#ff00ff">
<path d="m3.75,0c0,2.07,-1.68,3.75,-3.75,3.75c-2.07,0,-3.75,-1.68,-3.75,-3.75c0,-2.07,1.68,-3.75,3.75,-3.75c2.07,0,3.75,1.68,3.75,3.75"/>
</g>
<g stroke-linejoin="miter" stroke="none" stroke-width="1" transform="translate(69.35, 117.57)" fill="#ff00ff">
<path d="m3.75,0c0,2.07,-1.68,3.75,-3.75,3.75c-2.07,0,-3.75,-1.68,-3.75,-3.75c0,-2.07,1.68,-3.75,3.75,-3.75c2.07,0,3.75,1.68,3.75,3.75"/>
</g>
<g stroke-linejoin="miter" stroke="none" stroke-width="1" transform="translate(69.35, 123.79)" fill="#ff00ff">
<path d="m3.75,0c0,2.07,-1.68,3.75,-3.75,3.75c-2.07,0,-3.75,-1.68,-3.75,-3.75c0,-2.07,1.68,-3.75,3.75,-3.75c2.07,0,3.75,1.68,3.75,3.75"/>
</g>
<g stroke-linejoin="miter" stroke="none" stroke-width="1" transform="translate(69.35, 139.58)" fill="#ff00ff">
<path d="m3.75,0c0,2.07,-1.68,3.75,-3.75,3.75c-2.07,0,-3.75,-1.68,-3.75,-3.75c0,-2.07,1.68,-3.75,3.75,-3.75c2.07,0,3.75,1.68,3.75,3.75"/>
</g>
<g stroke-linejoin="miter" stroke="none" stroke-width="1" transform="translate(69.35, 105.3)" fill="#ff00ff">
<path d="m3.75,0c0,2.07,-1.68,3.75,-3.75,3.75c-2.07,0,-3.75,-1.68,-3.75,-3.75c0,-2.07,1.68,-3.75,3.75,-3.75c2.07,0,3.75,1.68,3.75,3.75"/>
</g>
<g stroke-linejoin="miter" stroke="none" stroke-width="1" transform="translate(69.35, 122.16)" fill="#ff00ff">
<path d="m3.75,0c0,2.07,-1.68,3.75,-3.75,3.75c-2.07,0,-3.75,-1.68,-3.75,-3.75c0,-2.07,1.68,-3.75,3.75,-3.75c2.07,0,3.75,1.68,3.75,3.75"/>
</g>
<g stroke-linejoin="miter" stroke="none" stroke-width="1" transform="translate(69.35, 124.61)" fill="#ff00ff">
<path d="m3.75,0c0,2.07,-1.68,3.75,-3.75,3.75c-2.07,0,-3.75,-1.68,-3.75,-3.75c0,-2.07,1.68,-3.75,3.75,-3.75c2.07,0,3.75,1.68,3.75,3.75"/>
</g>
<g stroke-linejoin="miter" stroke="none" stroke-width="1" transform="translate(485.48, 138.04)" fill="#0000ff">
<path d="m-2.23,4.14l2.23,-2.23l2.23,2.23l1.91,-1.91l-2.23,-2.23l2.23,-2.23l-1.91,-1.91l-2.23,2.23l-2.23,-2.23l-1.91,1.91l2.23,2.23l-2.23,2.23l1.91,1.91"/>
</g>
<g stroke-linejoin="miter" stroke="none" stroke-width="1" transform="translate(485.48, 303.59)" fill="#0000ff">
<path d="m-2.23,4.14l2.23,-2.23l2.23,2.23l1.91,-1.91l-2.23,-2.23l2.23,-2.23l-1.91,-1.91l-2.23,2.23l-2.23,-2.23l-1.91,1.91l2.23,2.23l-2.23,2.23l1.91,1.91"/>
</g>
<g stroke-linejoin="miter" stroke="none" stroke-width="1" transform="translate(485.48, 293.43)" fill="#0000ff">
<path d="m-2.23,4.14l2.23,-2.23l2.23,2.23l1.91,-1.91l-2.23,-2.23l2.23,-2.23l-1.91,-1.91l-2.23,2.23l-2.23,-2.23l-1.91,1.91l2.23,2.23l-2.23,2.23l1.91,1.91"/>
</g>
<g stroke-linejoin="miter" stroke="none" stroke-width="1" transform="translate(485.48, 244.37)" fill="#0000ff">
<path d="m-2.23,4.14l2.23,-2.23l2.23,2.23l1.91,-1.91l-2.23,-2.23l2.23,-2.23l-1.91,-1.91l-2.23,2.23l-2.23,-2.23l-1.91,1.91l2.23,2.23l-2.23,2.23l1.91,1.91"/>
</g>
<g stroke-linejoin="miter" stroke="none" stroke-width="1" transform="translate(485.48, 349.14)" fill="#0000ff">
<path d="m-2.23,4.14l2.23,-2.23l2.23,2.23l1.91,-1.91l-2.23,-2.23l2.23,-2.23l-1.91,-1.91l-2.23,2.23l-2.23,-2.23l-1.91,1.91l2.23,2.23l-2.23,2.23l1.91,1.91"/>
</g>
<g stroke-linejoin="miter" stroke="none" stroke-width="1" transform="translate(485.48, 79.74)" fill="#0000ff">
<path d="m-2.23,4.14l2.23,-2.23l2.23,2.23l1.91,-1.91l-2.23,-2.23l2.23,-2.23l-1.91,-1.91l-2.23,2.23l-2.23,-2.23l-1.91,1.91l2.23,2.23l-2.23,2.23l1.91,1.91"/>
</g>
<g stroke-linejoin="miter" stroke="none" stroke-width="1" transform="translate(485.48, 38.09)" fill="#0000ff">
<path d="m-2.23,4.14l2.23,-2.23l2.23,2.23l1.91,-1.91l-2.23,-2.23l2.23,-2.23l-1.91,-1.91l-2.23,2.23l-2.23,-2.23l-1.91,1.91l2.23,2.23l-2.23,2.23l1.91,1.91"/>
</g>
<g stroke-linejoin="miter" stroke="none" stroke-width="1" transform="translate(485.48, 121.94)" fill="#0000ff">
<path d="m-2.23,4.14l2.23,-2.23l2.23,2.23l1.91,-1.91l-2.23,-2.23l2.23,-2.23l-1.91,-1.91l-2.23,2.23l-2.23,-2.23l-1.91,1.91l2.23,2.23l-2.23,2.23l1.91,1.91"/>
</g>
<g stroke-linejoin="miter" stroke="none" stroke-width="1" transform="translate(485.48, 251.28)" fill="#0000ff">
<path d="m-2.23,4.14l2.23,-2.23l2.23,2.23l1.91,-1.91l-2.23,-2.23l2.23,-2.23l-1.91,-1.91l-2.23,2.23l-2.23,-2.23l-1.91,1.91l2.23,2.23l-2.23,2.23l1.91,1.91"/>
</g>
<g stroke-linejoin="miter" stroke="none" stroke-width="1" transform="translate(485.48, 33.42)" fill="#0000ff">
<path d="m-2.23,4.14l2.23,-2.23l2.23,2.23l1.91,-1.91l-2.23,-2.23l2.23,-2.23l-1.91,-1.91l-2.23,2.23l-2.23,-2.23l-1.91,1.91l2.23,2.23l-2.23,2.23l1.91,1.91"/>
</g>
<g stroke-width="1.25" stroke-linecap="butt" fill="none">
<path d="M161.83,61l0,66.46"/>
<path d="M132.93,61l57.79,0"/>
<path d="M132.93,127.46l57.79,0"/>
</g>
<g stroke="none" stroke-width="1" fill="#ffffff">
<path d="m104.03,123.38l115.59,0l0,-37.58l-115.59,0l0,37.58"/>
</g>
<g stroke-width="1.25" stroke-linecap="butt" fill="#ffffff">
<path d="M104.03,111.44l115.59,0"/>
</g>
<g stroke-width="1.25" fill="none">
<path d="m104.03,123.38l115.59,0l0,-37.58l-115.59,0l0,37.58"/>
</g>
<g stroke-linejoin="miter" stroke-width="1.25" transform="translate(161.83, 139.58)" fill="#ffffff">
<path d="m3.75,0c0,2.07,-1.68,3.75,-3.75,3.75c-2.07,0,-3.75,-1.68,-3.75,-3.75c0,-2.07,1.68,-3.75,3.75,-3.75c2.07,0,3.75,1.68,3.75,3.75"/>
</g>
<g stroke-linejoin="miter" stroke-width="1.25" transform="translate(161.83, 49.69)" fill="#ffffff">
<path d="m3.75,0c0,2.07,-1.68,3.75,-3.75,3.75c-2.07,0,-3.75,-1.68,-3.75,-3.75c0,-2.07,1.68,-3.75,3.75,-3.75c2.07,0,3.75,1.68,3.75,3.75"/>
</g>
<g stroke-linejoin="miter" stroke-width="1.25" transform="translate(161.83, 102.73)" fill="none">
<path d="m-2.65,-2.65l5.3,5.3m-5.3,0l5.3,-5.3"/>
</g>
<g stroke-width="1.25" stroke-linecap="butt" fill="#ffffff">
<path d="M393,37.2l0,275.04"/>
<path d="M364.11,37.2l57.79,0"/>
<path d="M364.11,312.24l57.79,0"/>
</g>
<g stroke="none" stroke-width="1" fill="#ffffff">
<path d="m335.21,282.89l115.59,0l0,-192.6l-115.59,0l0,192.6"/>
</g>
<g stroke-width="1.25" stroke-linecap="butt" fill="#ffffff">
<path d="M335.21,191.2l115.59,0"/>
</g>
<g stroke-width="1.25" fill="none">
<path d="m335.21,282.89l115.59,0l0,-192.6l-115.59,0l0,192.6"/>
</g>
<g stroke-linejoin="miter" stroke-width="1.25" transform="translate(393, 349.14)" fill="#ffffff">
<path d="m3.75,0c0,2.07,-1.68,3.75,-3.75,3.75c-2.07,0,-3.75,-1.68,-3.75,-3.75c0,-2.07,1.68,-3.75,3.75,-3.75c2.07,0,3.75,1.68,3.75,3.75"/>
</g>
<g stroke-linejoin="miter" stroke-width="1.25" transform="translate(393, 33.42)" fill="#ffffff">
<path d="m3.75,0c0,2.07,-1.68,3.75,-3.75,3.75c-2.07,0,-3.75,-1.68,-3.75,-3.75c0,-2.07,1.68,-3.75,3.75,-3.75c2.07,0,3.75,1.68,3.75,3.75"/>
</g>
<g stroke-linejoin="miter" stroke-width="1.25" transform="translate(393, 185.3)" fill="none">
<path d="m-2.65,-2.65l5.3,5.3m-5.3,0l5.3,-5.3"/>
</g>
</g>
<g clip-path="url(#c0)">
<g stroke-width="0.62" stroke-linecap="butt" fill="none">
<path d="M46.24,380.56l0,-373.44"/>
<path d="M46.24,380.56l3.75,0M46.24,361.88l3.75,0M46.24,343.21l3.75,0M46.24,324.54l3.75,0M46.24,305.87l3.75,0M46.24,287.2l3.75,0M46.24,268.52l3.75,0M46.24,249.85l3.75,0M46.24,231.18l3.75,0M46.24,212.51l3.75,0M46.24,193.83l3.75,0M46.24,175.16l3.75,0M46.24,156.49l3.75,0M46.24,137.82l3.75,0M46.24,119.15l3.75,0M46.24,100.47l3.75,0M46.24,81.8l3.75,0M46.24,63.13l3.75,0M46.24,44.46l3.75,0M46.24,25.79l3.75,0M46.24,7.11l3.75,0"/>
<path d="M46.24,380.56l7.5,0M46.24,287.2l7.5,0M46.24,193.83l7.5,0M46.24,100.47l7.5,0M46.24,7.11l7.5,0"/>
<path d="M508.59,380.56l0,-373.44"/>
<path d="M508.59,380.56l-3.75,0M508.59,361.88l-3.75,0M508.59,343.21l-3.75,0M508.59,324.54l-3.75,0M508.59,305.87l-3.75,0M508.59,287.2l-3.75,0M508.59,268.52l-3.75,0M508.59,249.85l-3.75,0M508.59,231.18l-3.75,0M508.59,212.51l-3.75,0M508.59,193.83l-3.75,0M508.59,175.16l-3.75,0M508.59,156.49l-3.75,0M508.59,137.82l-3.75,0M508.59,119.15l-3.75,0M508.59,100.47l-3.75,0M508.59,81.8l-3.75,0M508.59,63.13l-3.75,0M508.59,44.46l-3.75,0M508.59,25.79l-3.75,0M508.59,7.11l-3.75,0"/>
<path d="M508.59,380.56l-7.5,0M508.59,287.2l-7.5,0M508.59,193.83l-7.5,0M508.59,100.47l-7.5,0M508.59,7.11l-7.5,0"/>
</g>
<g stroke-width="1" transform="matrix(0 -1 1 0 16 265.83)" fill="none">
<path d="m1.33,0l0,-12.53l1.7,0l6.58,9.84l0,-9.84l1.59,0l0,12.53l-1.7,0l-6.58,-9.84l0,9.84l-1.59,0m18.77,0l0,-1.33c-0.7,1.02,-1.66,1.53,-2.87,1.53c-0.53,0,-1.03,-0.1,-1.49,-0.3c-0.46,-0.2,-0.81,-0.46,-1.04,-0.77c-0.23,-0.31,-0.39,-0.69,-0.47,-1.14c-0.06,-0.3,-0.09,-0.78,-0.09,-1.44l0,-5.62l1.53,0l0,5.03c0,0.8,0.03,1.34,0.09,1.62c0.09,0.41,0.3,0.72,0.62,0.95c0.32,0.23,0.71,0.34,1.16,0.34c0.46,0,0.89,-0.12,1.3,-0.35c0.41,-0.23,0.69,-0.55,0.86,-0.96c0.17,-0.41,0.25,-1,0.25,-1.78l0,-4.86l1.55,0l0,9.08l-1.39,0m4.06,0l0,-9.08l1.37,0l0,1.28c0.28,-0.45,0.66,-0.81,1.13,-1.08c0.47,-0.27,1.01,-0.41,1.62,-0.41c0.68,0,1.23,0.14,1.66,0.42c0.43,0.28,0.73,0.67,0.91,1.17c0.72,-1.06,1.65,-1.59,2.8,-1.59c0.91,0,1.6,0.25,2.09,0.75c0.48,0.5,0.73,1.27,0.73,2.3l0,6.23l-1.53,0l0,-5.72c0,-0.61,-0.05,-1.06,-0.15,-1.33c-0.1,-0.27,-0.28,-0.49,-0.55,-0.66c-0.27,-0.17,-0.57,-0.25,-0.91,-0.25c-0.65,0,-1.18,0.21,-1.6,0.64c-0.42,0.43,-0.63,1.11,-0.63,2.05l0,5.27l-1.53,0l0,-5.89c0,-0.69,-0.12,-1.2,-0.37,-1.55c-0.25,-0.34,-0.66,-0.52,-1.23,-0.52c-0.43,0,-0.83,0.11,-1.2,0.34c-0.37,0.23,-0.64,0.56,-0.8,1c-0.17,0.44,-0.25,1.07,-0.25,1.91l0,4.7l-1.53,0m15.42,0l-1.44,0l0,-12.53l1.55,0l0,4.47c0.65,-0.81,1.47,-1.22,2.48,-1.22c0.55,0,1.08,0.11,1.58,0.34c0.5,0.22,0.91,0.54,1.23,0.95c0.32,0.41,0.58,0.9,0.76,1.48c0.18,0.58,0.27,1.2,0.27,1.85c0,1.55,-0.39,2.75,-1.16,3.6c-0.77,0.85,-1.69,1.27,-2.77,1.27c-1.07,0,-1.91,-0.45,-2.52,-1.34l0,1.14m-0.02,-4.61c0,1.09,0.15,1.88,0.44,2.36c0.48,0.79,1.14,1.19,1.97,1.19c0.67,0,1.24,-0.29,1.73,-0.87c0.49,-0.58,0.73,-1.45,0.73,-2.61c0,-1.19,-0.23,-2.06,-0.7,-2.62c-0.47,-0.56,-1.04,-0.84,-1.7,-0.84c-0.67,0,-1.24,0.29,-1.73,0.87c-0.49,0.58,-0.73,1.43,-0.73,2.53m14.8,1.69l1.59,0.2c-0.25,0.93,-0.71,1.65,-1.39,2.16c-0.68,0.51,-1.54,0.77,-2.59,0.77c-1.33,0,-2.39,-0.41,-3.16,-1.23c-0.78,-0.82,-1.16,-1.96,-1.16,-3.43c0,-1.53,0.39,-2.72,1.18,-3.56c0.79,-0.84,1.8,-1.27,3.05,-1.27c1.22,0,2.21,0.41,2.98,1.24c0.77,0.83,1.15,1.99,1.15,3.49c0,0.08,0,0.22,0,0.41l-6.77,0c0.05,0.99,0.33,1.75,0.84,2.28c0.51,0.53,1.14,0.8,1.89,0.8c0.56,0,1.04,-0.15,1.45,-0.45c0.4,-0.3,0.72,-0.77,0.95,-1.41m-5.05,-2.48l5.08,0c-0.07,-0.76,-0.27,-1.33,-0.59,-1.72c-0.49,-0.59,-1.12,-0.89,-1.91,-0.89c-0.7,0,-1.29,0.24,-1.77,0.71c-0.48,0.47,-0.75,1.11,-0.8,1.9m8.83,5.41l0,-9.08l1.37,0l0,1.37c0.35,-0.65,0.68,-1.07,0.98,-1.27c0.3,-0.2,0.63,-0.3,0.98,-0.3c0.52,0,1.05,0.17,1.58,0.5l-0.53,1.42c-0.37,-0.22,-0.75,-0.33,-1.12,-0.33c-0.33,0,-0.63,0.1,-0.9,0.3c-0.27,0.2,-0.46,0.48,-0.57,0.84c-0.18,0.55,-0.27,1.15,-0.27,1.8l0,4.75l-1.53,0m10.44,-4.53c0,-1.69,0.47,-2.93,1.41,-3.73c0.78,-0.68,1.73,-1.02,2.86,-1.02c1.24,0,2.26,0.41,3.05,1.23c0.79,0.82,1.19,1.95,1.19,3.38c0,1.18,-0.17,2.1,-0.52,2.77c-0.35,0.67,-0.86,1.18,-1.52,1.55c-0.67,0.37,-1.4,0.55,-2.19,0.55c-1.27,0,-2.3,-0.41,-3.09,-1.22c-0.79,-0.81,-1.18,-1.98,-1.18,-3.52m1.58,0c0,1.16,0.26,2.02,0.77,2.6c0.51,0.58,1.15,0.87,1.92,0.87c0.76,0,1.39,-0.29,1.9,-0.87c0.51,-0.58,0.76,-1.47,0.76,-2.66c0,-1.11,-0.26,-1.96,-0.77,-2.54c-0.51,-0.58,-1.14,-0.87,-1.89,-0.87c-0.77,0,-1.41,0.29,-1.92,0.86c-0.51,0.57,-0.77,1.44,-0.77,2.61m9.36,4.53l0,-7.87l-1.36,0l0,-1.2l1.36,0l0,-0.97c0,-0.6,0.06,-1.06,0.17,-1.36c0.15,-0.4,0.41,-0.72,0.78,-0.96c0.37,-0.24,0.9,-0.37,1.56,-0.37c0.44,0,0.92,0.05,1.44,0.14l-0.23,1.34c-0.31,-0.05,-0.61,-0.08,-0.91,-0.08c-0.47,0,-0.8,0.1,-0.99,0.3c-0.19,0.2,-0.29,0.57,-0.29,1.12l0,0.83l1.77,0l0,1.2l-1.77,0l0,7.87l-1.53,0m9.64,-10.77l0,-1.77l1.55,0l0,1.77l-1.55,0m0,10.77l0,-9.08l1.55,0l0,9.08l-1.55,0m4,0l0,-9.08l1.37,0l0,1.3c0.67,-1,1.63,-1.5,2.89,-1.5c0.55,0,1.06,0.1,1.52,0.3c0.46,0.2,0.8,0.46,1.03,0.77c0.23,0.32,0.39,0.7,0.47,1.13c0.06,0.29,0.09,0.79,0.09,1.5l0,5.58l-1.55,0l0,-5.52c0,-0.62,-0.06,-1.09,-0.18,-1.41c-0.12,-0.31,-0.33,-0.56,-0.63,-0.75c-0.3,-0.19,-0.66,-0.28,-1.08,-0.28c-0.65,0,-1.21,0.21,-1.69,0.62c-0.48,0.42,-0.72,1.21,-0.72,2.37l0,4.95l-1.53,0m9.37,-2.7l1.53,-0.25c0.08,0.61,0.32,1.08,0.71,1.41c0.39,0.32,0.93,0.48,1.63,0.48c0.71,0,1.23,-0.14,1.58,-0.43c0.34,-0.29,0.52,-0.62,0.52,-1.01c0,-0.35,-0.15,-0.63,-0.45,-0.83c-0.22,-0.14,-0.74,-0.31,-1.58,-0.52c-1.12,-0.28,-1.91,-0.53,-2.34,-0.73c-0.44,-0.21,-0.77,-0.5,-0.99,-0.87c-0.22,-0.37,-0.34,-0.78,-0.34,-1.23c0,-0.4,0.09,-0.77,0.27,-1.12c0.18,-0.35,0.43,-0.63,0.76,-0.85c0.24,-0.18,0.57,-0.33,0.98,-0.45c0.41,-0.12,0.86,-0.19,1.34,-0.19c0.71,0,1.33,0.1,1.87,0.3c0.54,0.2,0.93,0.48,1.2,0.84c0.26,0.35,0.44,0.82,0.53,1.41l-1.5,0.2c-0.07,-0.47,-0.27,-0.83,-0.6,-1.09c-0.33,-0.26,-0.79,-0.39,-1.38,-0.39c-0.71,0,-1.21,0.12,-1.52,0.35c-0.3,0.23,-0.45,0.51,-0.45,0.82c0,0.2,0.06,0.37,0.19,0.53c0.12,0.17,0.32,0.31,0.59,0.42c0.16,0.05,0.61,0.18,1.36,0.39c1.08,0.29,1.84,0.53,2.27,0.71c0.43,0.18,0.77,0.45,1.02,0.8c0.24,0.35,0.37,0.79,0.37,1.31c0,0.52,-0.15,1.01,-0.45,1.46c-0.3,0.45,-0.73,0.8,-1.3,1.05c-0.56,0.24,-1.2,0.37,-1.91,0.37c-1.18,0,-2.08,-0.24,-2.7,-0.73c-0.62,-0.49,-1.02,-1.21,-1.2,-2.17m15.83,-0.22l1.59,0.2c-0.25,0.93,-0.71,1.65,-1.39,2.16c-0.68,0.51,-1.54,0.77,-2.59,0.77c-1.33,0,-2.39,-0.41,-3.16,-1.23c-0.78,-0.82,-1.16,-1.96,-1.16,-3.43c0,-1.53,0.39,-2.72,1.18,-3.56c0.79,-0.84,1.8,-1.27,3.05,-1.27c1.22,0,2.21,0.41,2.98,1.24c0.77,0.83,1.15,1.99,1.15,3.49c0,0.08,0,0.22,0,0.41l-6.77,0c0.05,0.99,0.33,1.75,0.84,2.28c0.51,0.53,1.14,0.8,1.89,0.8c0.56,0,1.04,-0.15,1.45,-0.45c0.4,-0.3,0.72,-0.77,0.95,-1.41m-5.05,-2.48l5.08,0c-0.07,-0.76,-0.27,-1.33,-0.59,-1.72c-0.49,-0.59,-1.12,-0.89,-1.91,-0.89c-0.7,0,-1.29,0.24,-1.77,0.71c-0.48,0.47,-0.75,1.11,-0.8,1.9m14.77,2.08l1.52,0.2c-0.17,1.04,-0.59,1.86,-1.27,2.45c-0.68,0.59,-1.52,0.88,-2.51,0.88c-1.24,0,-2.24,-0.41,-2.99,-1.22c-0.76,-0.81,-1.13,-1.97,-1.13,-3.48c0,-0.98,0.16,-1.84,0.48,-2.57c0.32,-0.73,0.82,-1.29,1.48,-1.66c0.67,-0.37,1.39,-0.55,2.16,-0.55c0.99,0,1.8,0.25,2.42,0.75c0.62,0.5,1.03,1.21,1.2,2.12l-1.48,0.23c-0.15,-0.61,-0.4,-1.08,-0.77,-1.38c-0.36,-0.31,-0.8,-0.46,-1.31,-0.46c-0.77,0,-1.4,0.28,-1.88,0.84c-0.48,0.56,-0.73,1.43,-0.73,2.63c0,1.22,0.23,2.1,0.7,2.66c0.47,0.55,1.08,0.83,1.83,0.83c0.6,0,1.11,-0.18,1.51,-0.55c0.4,-0.37,0.66,-0.94,0.77,-1.71m6.44,1.95l0.22,1.36c-0.44,0.09,-0.82,0.14,-1.16,0.14c-0.56,0,-1,-0.09,-1.3,-0.27c-0.31,-0.18,-0.52,-0.41,-0.65,-0.7c-0.12,-0.29,-0.19,-0.89,-0.19,-1.82l0,-5.22l-1.12,0l0,-1.2l1.12,0l0,-2.25l1.53,-0.92l0,3.17l1.55,0l0,1.2l-1.55,0l0,5.3c0,0.44,0.03,0.72,0.08,0.85c0.05,0.13,0.14,0.23,0.27,0.3c0.12,0.07,0.3,0.11,0.53,0.11c0.17,0,0.39,-0.02,0.67,-0.06m1.02,-1.33l1.53,-0.25c0.08,0.61,0.32,1.08,0.71,1.41c0.39,0.32,0.93,0.48,1.63,0.48c0.71,0,1.23,-0.14,1.58,-0.43c0.34,-0.29,0.52,-0.62,0.52,-1.01c0,-0.35,-0.15,-0.63,-0.45,-0.83c-0.22,-0.14,-0.74,-0.31,-1.58,-0.52c-1.12,-0.28,-1.91,-0.53,-2.34,-0.73c-0.44,-0.21,-0.77,-0.5,-0.99,-0.87c-0.22,-0.37,-0.34,-0.78,-0.34,-1.23c0,-0.4,0.09,-0.77,0.27,-1.12c0.18,-0.35,0.43,-0.63,0.76,-0.85c0.24,-0.18,0.57,-0.33,0.98,-0.45c0.41,-0.12,0.86,-0.19,1.34,-0.19c0.71,0,1.33,0.1,1.87,0.3c0.54,0.2,0.93,0.48,1.2,0.84c0.26,0.35,0.44,0.82,0.53,1.41l-1.5,0.2c-0.07,-0.47,-0.27,-0.83,-0.6,-1.09c-0.33,-0.26,-0.79,-0.39,-1.38,-0.39c-0.71,0,-1.21,0.12,-1.52,0.35c-0.3,0.23,-0.45,0.51,-0.45,0.82c0,0.2,0.06,0.37,0.19,0.53c0.12,0.17,0.32,0.31,0.59,0.42c0.16,0.05,0.61,0.18,1.36,0.39c1.08,0.29,1.84,0.53,2.27,0.71c0.43,0.18,0.77,0.45,1.02,0.8c0.24,0.35,0.37,0.79,0.37,1.31c0,0.52,-0.15,1.01,-0.45,1.46c-0.3,0.45,-0.73,0.8,-1.3,1.05c-0.56,0.24,-1.2,0.37,-1.91,0.37c-1.18,0,-2.08,-0.24,-2.7,-0.73c-0.62,-0.49,-1.02,-1.21,-1.2,-2.17" fill="#000000" stroke="none" fill-opacity="1"/>
</g>
<g stroke-width="1" fill="none">
<path d="m33.95,380.87c0,-1.49,0.15,-2.68,0.46,-3.59c0.31,-0.9,0.76,-1.6,1.36,-2.09c0.6,-0.49,1.36,-0.73,2.27,-0.73c0.67,0,1.26,0.14,1.77,0.41c0.51,0.27,0.93,0.66,1.26,1.17c0.33,0.51,0.59,1.13,0.77,1.86c0.19,0.73,0.28,1.72,0.28,2.97c0,1.47,-0.15,2.65,-0.45,3.55c-0.3,0.9,-0.75,1.6,-1.35,2.09c-0.6,0.49,-1.36,0.74,-2.27,0.74c-1.21,0,-2.16,-0.43,-2.84,-1.3c-0.83,-1.05,-1.25,-2.75,-1.25,-5.09m1.59,0c0,2.05,0.24,3.42,0.72,4.1c0.48,0.68,1.07,1.02,1.78,1.02c0.71,0,1.3,-0.34,1.78,-1.03c0.48,-0.69,0.72,-2.05,0.72,-4.09c0,-2.06,-0.24,-3.43,-0.72,-4.12c-0.48,-0.68,-1.08,-1.02,-1.8,-1.02c-0.71,0,-1.27,0.3,-1.69,0.91c-0.53,0.76,-0.8,2.17,-0.8,4.23" fill="#000000" stroke="none" fill-opacity="1"/>
<path d="m33.95,290.41l1.62,-0.14c0.11,0.79,0.39,1.39,0.83,1.78c0.44,0.4,0.96,0.59,1.58,0.59c0.74,0,1.37,-0.28,1.88,-0.84c0.52,-0.56,0.77,-1.3,0.77,-2.23c0,-0.87,-0.25,-1.57,-0.74,-2.08c-0.49,-0.51,-1.14,-0.77,-1.95,-0.77c-0.49,0,-0.93,0.11,-1.34,0.34c-0.4,0.23,-0.72,0.52,-0.95,0.87l-1.44,-0.19l1.22,-6.44l6.22,0l0,1.47l-5,0l-0.67,3.37c0.75,-0.53,1.54,-0.8,2.37,-0.8c1.09,0,2.02,0.38,2.77,1.14c0.75,0.76,1.12,1.73,1.12,2.92c0,1.14,-0.33,2.11,-0.98,2.94c-0.8,1.02,-1.9,1.53,-3.3,1.53c-1.14,0,-2.07,-0.32,-2.79,-0.96c-0.72,-0.64,-1.14,-1.49,-1.24,-2.54" fill="#000000" stroke="none" fill-opacity="1"/>
<path d="m29.75,200.33l-1.53,0l0,-9.8c-0.37,0.35,-0.86,0.71,-1.46,1.05c-0.6,0.35,-1.14,0.61,-1.62,0.79l0,-1.48c0.86,-0.41,1.62,-0.9,2.26,-1.47c0.64,-0.57,1.1,-1.13,1.37,-1.67l0.98,0l0,12.58m4.2,-6.17c0,-1.49,0.15,-2.68,0.46,-3.59c0.31,-0.9,0.76,-1.6,1.36,-2.09c0.6,-0.49,1.36,-0.73,2.27,-0.73c0.67,0,1.26,0.14,1.77,0.41c0.51,0.27,0.93,0.66,1.26,1.17c0.33,0.51,0.59,1.13,0.77,1.86c0.19,0.73,0.28,1.72,0.28,2.97c0,1.47,-0.15,2.65,-0.45,3.55c-0.3,0.9,-0.75,1.6,-1.35,2.09c-0.6,0.49,-1.36,0.74,-2.27,0.74c-1.21,0,-2.16,-0.43,-2.84,-1.3c-0.83,-1.05,-1.25,-2.75,-1.25,-5.09m1.59,0c0,2.05,0.24,3.42,0.72,4.1c0.48,0.68,1.07,1.02,1.78,1.02c0.71,0,1.3,-0.34,1.78,-1.03c0.48,-0.69,0.72,-2.05,0.72,-4.09c0,-2.06,-0.24,-3.43,-0.72,-4.12c-0.48,-0.68,-1.08,-1.02,-1.8,-1.02c-0.71,0,-1.27,0.3,-1.69,0.91c-0.53,0.76,-0.8,2.17,-0.8,4.23" fill="#000000" stroke="none" fill-opacity="1"/>
<path d="m29.75,106.97l-1.53,0l0,-9.8c-0.37,0.35,-0.86,0.71,-1.46,1.05c-0.6,0.35,-1.14,0.61,-1.62,0.79l0,-1.48c0.86,-0.41,1.62,-0.9,2.26,-1.47c0.64,-0.57,1.1,-1.13,1.37,-1.67l0.98,0l0,12.58m4.2,-3.28l1.62,-0.14c0.11,0.79,0.39,1.39,0.83,1.78c0.44,0.4,0.96,0.59,1.58,0.59c0.74,0,1.37,-0.28,1.88,-0.84c0.52,-0.56,0.77,-1.3,0.77,-2.23c0,-0.87,-0.25,-1.57,-0.74,-2.08c-0.49,-0.51,-1.14,-0.77,-1.95,-0.77c-0.49,0,-0.93,0.11,-1.34,0.34c-0.4,0.23,-0.72,0.52,-0.95,0.87l-1.44,-0.19l1.22,-6.44l6.22,0l0,1.47l-5,0l-0.67,3.37c0.75,-0.53,1.54,-0.8,2.37,-0.8c1.09,0,2.02,0.38,2.77,1.14c0.75,0.76,1.12,1.73,1.12,2.92c0,1.14,-0.33,2.11,-0.98,2.94c-0.8,1.02,-1.9,1.53,-3.3,1.53c-1.14,0,-2.07,-0.32,-2.79,-0.96c-0.72,-0.64,-1.14,-1.49,-1.24,-2.54" fill="#000000" stroke="none" fill-opacity="1"/>
<path d="m32.05,15.52l0,1.48l-8.28,0c-0.01,-0.37,0.05,-0.73,0.17,-1.06c0.22,-0.57,0.56,-1.13,1.02,-1.68c0.46,-0.55,1.13,-1.17,2.01,-1.88c1.36,-1.12,2.29,-2.01,2.77,-2.66c0.48,-0.65,0.72,-1.27,0.72,-1.85c0,-0.6,-0.22,-1.12,-0.66,-1.54c-0.44,-0.42,-1.01,-0.63,-1.7,-0.63c-0.74,0,-1.33,0.22,-1.78,0.67c-0.45,0.45,-0.67,1.06,-0.67,1.84l-1.58,-0.16c0.1,-1.18,0.51,-2.08,1.22,-2.7c0.71,-0.62,1.66,-0.93,2.84,-0.93c1.2,0,2.15,0.33,2.85,1c0.7,0.67,1.05,1.49,1.05,2.48c0,0.5,-0.1,0.99,-0.31,1.48c-0.21,0.48,-0.55,0.99,-1.02,1.52c-0.47,0.53,-1.26,1.27,-2.37,2.2c-0.93,0.78,-1.52,1.31,-1.78,1.59c-0.26,0.28,-0.47,0.55,-0.64,0.82l6.14,0m1.91,-4.69c0,-1.49,0.15,-2.68,0.46,-3.59c0.31,-0.9,0.76,-1.6,1.36,-2.09c0.6,-0.49,1.36,-0.73,2.27,-0.73c0.67,0,1.26,0.14,1.77,0.41c0.51,0.27,0.93,0.66,1.26,1.17c0.33,0.51,0.59,1.13,0.77,1.86c0.19,0.73,0.28,1.72,0.28,2.97c0,1.47,-0.15,2.65,-0.45,3.55c-0.3,0.9,-0.75,1.6,-1.35,2.09c-0.6,0.49,-1.36,0.74,-2.27,0.74c-1.21,0,-2.16,-0.43,-2.84,-1.3c-0.83,-1.05,-1.25,-2.75,-1.25,-5.09m1.59,0c0,2.05,0.24,3.42,0.72,4.1c0.48,0.68,1.07,1.02,1.78,1.02c0.71,0,1.3,-0.34,1.78,-1.03c0.48,-0.69,0.72,-2.05,0.72,-4.09c0,-2.06,-0.24,-3.43,-0.72,-4.12c-0.48,-0.68,-1.08,-1.02,-1.8,-1.02c-0.71,0,-1.27,0.3,-1.69,0.91c-0.53,0.76,-0.8,2.17,-0.8,4.23" fill="#000000" stroke="none" fill-opacity="1"/>
</g>
<g stroke-width="0.62" stroke-linecap="butt" fill="none">
<path d="M46.24,380.56l462.36,0"/>
<path d="M46.24,380.56l0,-3.75M69.35,380.56l0,-3.75M92.47,380.56l0,-3.75M115.59,380.56l0,-3.75M138.71,380.56l0,-3.75M161.83,380.56l0,-3.75M184.94,380.56l0,-3.75M208.06,380.56l0,-3.75M231.18,380.56l0,-3.75M254.3,380.56l0,-3.75M277.41,380.56l0,-3.75M300.53,380.56l0,-3.75M323.65,380.56l0,-3.75M346.77,380.56l0,-3.75M369.89,380.56l0,-3.75M393,380.56l0,-3.75M416.12,380.56l0,-3.75M439.24,380.56l0,-3.75M462.36,380.56l0,-3.75M485.48,380.56l0,-3.75M508.59,380.56l0,-3.75"/>
<path d="M46.24,380.56l0,-7.5M161.83,380.56l0,-7.5M277.41,380.56l0,-7.5M393,380.56l0,-7.5M508.59,380.56l0,-7.5"/>
<path d="M46.24,7.11l462.36,0"/>
<path d="M46.24,7.11l0,3.75M69.35,7.11l0,3.75M92.47,7.11l0,3.75M115.59,7.11l0,3.75M138.71,7.11l0,3.75M161.83,7.11l0,3.75M184.94,7.11l0,3.75M208.06,7.11l0,3.75M231.18,7.11l0,3.75M254.3,7.11l0,3.75M277.41,7.11l0,3.75M300.53,7.11l0,3.75M323.65,7.11l0,3.75M346.77,7.11l0,3.75M369.89,7.11l0,3.75M393,7.11l0,3.75M416.12,7.11l0,3.75M439.24,7.11l0,3.75M462.36,7.11l0,3.75M485.48,7.11l0,3.75M508.59,7.11l0,3.75"/>
<path d="M46.24,7.11l0,7.5M161.83,7.11l0,7.5M277.41,7.11l0,7.5M393,7.11l0,7.5M508.59,7.11l0,7.5"/>
</g>
<g stroke-width="1" fill="none">
<path d="m136.95,405.55l0,-16.11l6.05,0c1.23,0,2.22,0.16,2.96,0.49c0.74,0.33,1.33,0.83,1.75,1.51c0.42,0.68,0.63,1.39,0.63,2.12c0,0.69,-0.19,1.34,-0.56,1.95c-0.37,0.61,-0.94,1.1,-1.69,1.48c0.97,0.28,1.72,0.77,2.24,1.45c0.53,0.69,0.79,1.5,0.79,2.44c0,0.76,-0.16,1.46,-0.48,2.11c-0.32,0.65,-0.71,1.15,-1.18,1.5c-0.47,0.35,-1.06,0.62,-1.77,0.8c-0.71,0.18,-1.57,0.27,-2.59,0.27l-6.16,0m2.14,-9.34l3.48,0c0.94,0,1.61,-0.06,2.03,-0.19c0.54,-0.16,0.95,-0.42,1.23,-0.8c0.28,-0.37,0.41,-0.84,0.41,-1.41c0,-0.53,-0.13,-1,-0.39,-1.41c-0.26,-0.41,-0.63,-0.68,-1.1,-0.84c-0.47,-0.15,-1.29,-0.23,-2.45,-0.23l-3.22,0l0,4.86m0,7.44l4.02,0c0.69,0,1.17,-0.03,1.44,-0.08c0.49,-0.08,0.9,-0.23,1.23,-0.43c0.33,-0.2,0.61,-0.5,0.82,-0.9c0.21,-0.4,0.32,-0.85,0.32,-1.36c0,-0.59,-0.16,-1.11,-0.47,-1.56c-0.31,-0.45,-0.74,-0.76,-1.28,-0.94c-0.54,-0.18,-1.33,-0.27,-2.36,-0.27l-3.72,0l0,5.53m20.69,-1.84l2.05,0.25c-0.32,1.19,-0.92,2.11,-1.79,2.77c-0.87,0.66,-1.98,0.99,-3.34,0.99c-1.71,0,-3.06,-0.53,-4.06,-1.58c-1,-1.05,-1.5,-2.53,-1.5,-4.42c0,-1.96,0.51,-3.48,1.52,-4.57c1.01,-1.09,2.32,-1.63,3.92,-1.63c1.56,0,2.84,0.53,3.83,1.59c0.99,1.06,1.48,2.56,1.48,4.48c0,0.11,-0.01,0.29,-0.02,0.53l-8.69,0c0.07,1.28,0.43,2.26,1.09,2.95c0.65,0.68,1.46,1.02,2.43,1.02c0.73,0,1.35,-0.19,1.86,-0.57c0.51,-0.38,0.92,-0.99,1.22,-1.82m-6.48,-3.2l6.52,0c-0.09,-0.98,-0.34,-1.71,-0.75,-2.2c-0.64,-0.77,-1.45,-1.16,-2.45,-1.16c-0.91,0,-1.67,0.3,-2.29,0.91c-0.62,0.61,-0.96,1.42,-1.02,2.45m19.48,3.2l2.05,0.25c-0.32,1.19,-0.92,2.11,-1.79,2.77c-0.87,0.66,-1.98,0.99,-3.34,0.99c-1.71,0,-3.06,-0.53,-4.06,-1.58c-1,-1.05,-1.5,-2.53,-1.5,-4.42c0,-1.96,0.51,-3.48,1.52,-4.57c1.01,-1.09,2.32,-1.63,3.92,-1.63c1.56,0,2.84,0.53,3.83,1.59c0.99,1.06,1.48,2.56,1.48,4.48c0,0.11,-0.01,0.29,-0.02,0.53l-8.69,0c0.07,1.28,0.43,2.26,1.09,2.95c0.65,0.68,1.46,1.02,2.43,1.02c0.73,0,1.35,-0.19,1.86,-0.57c0.51,-0.38,0.92,-0.99,1.22,-1.82m-6.48,-3.2l6.52,0c-0.09,-0.98,-0.34,-1.71,-0.75,-2.2c-0.64,-0.77,-1.45,-1.16,-2.45,-1.16c-0.91,0,-1.67,0.3,-2.29,0.91c-0.62,0.61,-0.96,1.42,-1.02,2.45m10.7,3.47l1.95,-0.31c0.11,0.79,0.42,1.4,0.92,1.81c0.5,0.42,1.2,0.62,2.11,0.62c0.91,0,1.58,-0.18,2.02,-0.55c0.44,-0.37,0.66,-0.8,0.66,-1.3c0,-0.45,-0.19,-0.8,-0.58,-1.06c-0.27,-0.17,-0.94,-0.39,-2.02,-0.66c-1.45,-0.37,-2.45,-0.7,-3.02,-0.96c-0.56,-0.27,-0.99,-0.64,-1.28,-1.11c-0.29,-0.47,-0.44,-0.99,-0.44,-1.55c0,-0.52,0.12,-1,0.36,-1.45c0.24,-0.44,0.56,-0.82,0.97,-1.12c0.31,-0.22,0.73,-0.41,1.27,-0.57c0.53,-0.16,1.1,-0.24,1.7,-0.24c0.92,0,1.72,0.13,2.41,0.4c0.69,0.27,1.2,0.62,1.53,1.08c0.33,0.45,0.55,1.05,0.68,1.8l-1.92,0.27c-0.09,-0.6,-0.35,-1.08,-0.77,-1.41c-0.42,-0.34,-1.02,-0.51,-1.79,-0.51c-0.91,0,-1.55,0.15,-1.94,0.45c-0.39,0.3,-0.58,0.66,-0.58,1.06c0,0.25,0.08,0.48,0.23,0.69c0.17,0.21,0.42,0.39,0.77,0.53c0.2,0.07,0.78,0.24,1.75,0.5c1.4,0.37,2.37,0.68,2.92,0.92c0.55,0.24,0.98,0.59,1.3,1.04c0.31,0.45,0.47,1.02,0.47,1.7c0,0.66,-0.19,1.28,-0.57,1.86c-0.38,0.58,-0.93,1.03,-1.66,1.35c-0.73,0.32,-1.55,0.48,-2.45,0.48c-1.52,0,-2.68,-0.32,-3.48,-0.95c-0.8,-0.63,-1.3,-1.57,-1.52,-2.8" fill="#000000" stroke="none" fill-opacity="1"/>
<path d="m347.64,405.55l0,-16.11l6.05,0c1.23,0,2.22,0.16,2.96,0.49c0.74,0.33,1.33,0.83,1.75,1.51c0.42,0.68,0.63,1.39,0.63,2.12c0,0.69,-0.19,1.34,-0.56,1.95c-0.37,0.61,-0.94,1.1,-1.69,1.48c0.97,0.28,1.72,0.77,2.24,1.45c0.53,0.69,0.79,1.5,0.79,2.44c0,0.76,-0.16,1.46,-0.48,2.11c-0.32,0.65,-0.71,1.15,-1.18,1.5c-0.47,0.35,-1.06,0.62,-1.77,0.8c-0.71,0.18,-1.57,0.27,-2.59,0.27l-6.16,0m2.14,-9.34l3.48,0c0.94,0,1.61,-0.06,2.03,-0.19c0.54,-0.16,0.95,-0.42,1.23,-0.8c0.28,-0.37,0.41,-0.84,0.41,-1.41c0,-0.53,-0.13,-1,-0.39,-1.41c-0.26,-0.41,-0.63,-0.68,-1.1,-0.84c-0.47,-0.15,-1.29,-0.23,-2.45,-0.23l-3.22,0l0,4.86m0,7.44l4.02,0c0.69,0,1.17,-0.03,1.44,-0.08c0.49,-0.08,0.9,-0.23,1.23,-0.43c0.33,-0.2,0.61,-0.5,0.82,-0.9c0.21,-0.4,0.32,-0.85,0.32,-1.36c0,-0.59,-0.16,-1.11,-0.47,-1.56c-0.31,-0.45,-0.74,-0.76,-1.28,-0.94c-0.54,-0.18,-1.33,-0.27,-2.36,-0.27l-3.72,0l0,5.53m20.34,1.91l0,-1.72c-0.91,1.32,-2.14,1.98,-3.7,1.98c-0.69,0,-1.33,-0.13,-1.92,-0.4c-0.59,-0.27,-1.04,-0.6,-1.33,-0.99c-0.29,-0.4,-0.49,-0.89,-0.61,-1.47c-0.08,-0.39,-0.12,-1,-0.12,-1.84l0,-7.23l1.98,0l0,6.47c0,1.04,0.04,1.74,0.11,2.09c0.12,0.52,0.39,0.93,0.8,1.23c0.41,0.3,0.91,0.45,1.5,0.45c0.59,0,1.15,-0.15,1.66,-0.45c0.52,-0.3,0.88,-0.72,1.1,-1.24c0.22,-0.53,0.33,-1.29,0.33,-2.29l0,-6.25l1.98,0l0,11.67l-1.78,0m8.67,-1.77l0.3,1.75c-0.56,0.11,-1.06,0.17,-1.5,0.17c-0.72,0,-1.28,-0.11,-1.67,-0.34c-0.4,-0.23,-0.67,-0.53,-0.84,-0.9c-0.16,-0.37,-0.24,-1.15,-0.24,-2.34l0,-6.7l-1.45,0l0,-1.55l1.45,0l0,-2.89l1.97,-1.19l0,4.08l1.98,0l0,1.55l-1.98,0l0,6.81c0,0.56,0.03,0.92,0.1,1.09c0.07,0.16,0.18,0.29,0.34,0.39c0.16,0.1,0.39,0.15,0.68,0.15c0.22,0,0.51,-0.03,0.86,-0.08m6,0l0.3,1.75c-0.56,0.11,-1.06,0.17,-1.5,0.17c-0.72,0,-1.28,-0.11,-1.67,-0.34c-0.4,-0.23,-0.67,-0.53,-0.84,-0.9c-0.16,-0.37,-0.24,-1.15,-0.24,-2.34l0,-6.7l-1.45,0l0,-1.55l1.45,0l0,-2.89l1.97,-1.19l0,4.08l1.98,0l0,1.55l-1.98,0l0,6.81c0,0.56,0.03,0.92,0.1,1.09c0.07,0.16,0.18,0.29,0.34,0.39c0.16,0.1,0.39,0.15,0.68,0.15c0.22,0,0.51,-0.03,0.86,-0.08m9.67,-1.98l2.05,0.25c-0.32,1.19,-0.92,2.11,-1.79,2.77c-0.87,0.66,-1.98,0.99,-3.34,0.99c-1.71,0,-3.06,-0.53,-4.06,-1.58c-1,-1.05,-1.5,-2.53,-1.5,-4.42c0,-1.96,0.51,-3.48,1.52,-4.57c1.01,-1.09,2.32,-1.63,3.92,-1.63c1.56,0,2.84,0.53,3.83,1.59c0.99,1.06,1.48,2.56,1.48,4.48c0,0.11,-0.01,0.29,-0.02,0.53l-8.69,0c0.07,1.28,0.43,2.26,1.09,2.95c0.65,0.68,1.46,1.02,2.43,1.02c0.73,0,1.35,-0.19,1.86,-0.57c0.51,-0.38,0.92,-0.99,1.22,-1.82m-6.48,-3.2l6.52,0c-0.09,-0.98,-0.34,-1.71,-0.75,-2.2c-0.64,-0.77,-1.45,-1.16,-2.45,-1.16c-0.91,0,-1.67,0.3,-2.29,0.91c-0.62,0.61,-0.96,1.42,-1.02,2.45m11.48,6.95l0,-11.67l1.77,0l0,1.77c0.46,-0.82,0.88,-1.37,1.27,-1.63c0.39,-0.27,0.81,-0.4,1.27,-0.4c0.67,0,1.34,0.21,2.03,0.64l-0.67,1.84c-0.49,-0.29,-0.97,-0.44,-1.45,-0.44c-0.44,0,-0.83,0.13,-1.17,0.39c-0.34,0.26,-0.59,0.62,-0.73,1.08c-0.22,0.71,-0.33,1.48,-0.33,2.31l0,6.11l-1.97,0m8.48,0l0,-10.12l-1.75,0l0,-1.55l1.75,0l0,-1.23c0,-0.78,0.07,-1.36,0.22,-1.75c0.19,-0.51,0.52,-0.92,1,-1.24c0.48,-0.32,1.15,-0.48,2.02,-0.48c0.55,0,1.17,0.06,1.84,0.19l-0.3,1.73c-0.41,-0.07,-0.8,-0.11,-1.17,-0.11c-0.59,0,-1.02,0.13,-1.27,0.38c-0.25,0.26,-0.37,0.73,-0.37,1.43l0,1.08l2.28,0l0,1.55l-2.28,0l0,10.12l-1.97,0m6.48,0l0,-16.11l1.98,0l0,16.11l-1.98,0m3.95,4.5l-0.22,-1.86c0.44,0.11,0.82,0.17,1.14,0.17c0.44,0,0.79,-0.07,1.05,-0.22c0.26,-0.15,0.48,-0.35,0.66,-0.61c0.12,-0.2,0.32,-0.69,0.59,-1.48c0.04,-0.1,0.1,-0.27,0.19,-0.48l-4.44,-11.69l2.14,0l2.42,6.77c0.31,0.85,0.59,1.76,0.84,2.7c0.23,-0.92,0.5,-1.8,0.81,-2.66l2.5,-6.81l1.97,0l-4.44,11.87c-0.47,1.28,-0.84,2.16,-1.11,2.64c-0.34,0.66,-0.74,1.14,-1.2,1.44c-0.46,0.3,-1,0.45,-1.62,0.45c-0.39,0,-0.81,-0.08,-1.28,-0.23m10.3,-7.98l1.95,-0.31c0.11,0.79,0.42,1.4,0.92,1.81c0.5,0.42,1.2,0.62,2.11,0.62c0.91,0,1.58,-0.18,2.02,-0.55c0.44,-0.37,0.66,-0.8,0.66,-1.3c0,-0.45,-0.19,-0.8,-0.58,-1.06c-0.27,-0.17,-0.94,-0.39,-2.02,-0.66c-1.45,-0.37,-2.45,-0.7,-3.02,-0.96c-0.56,-0.27,-0.99,-0.64,-1.28,-1.11c-0.29,-0.47,-0.44,-0.99,-0.44,-1.55c0,-0.52,0.12,-1,0.36,-1.45c0.24,-0.44,0.56,-0.82,0.97,-1.12c0.31,-0.22,0.73,-0.41,1.27,-0.57c0.53,-0.16,1.1,-0.24,1.7,-0.24c0.92,0,1.72,0.13,2.41,0.4c0.69,0.27,1.2,0.62,1.53,1.08c0.33,0.45,0.55,1.05,0.68,1.8l-1.92,0.27c-0.09,-0.6,-0.35,-1.08,-0.77,-1.41c-0.42,-0.34,-1.02,-0.51,-1.79,-0.51c-0.91,0,-1.55,0.15,-1.94,0.45c-0.39,0.3,-0.58,0.66,-0.58,1.06c0,0.25,0.08,0.48,0.23,0.69c0.17,0.21,0.42,0.39,0.77,0.53c0.2,0.07,0.78,0.24,1.75,0.5c1.4,0.37,2.37,0.68,2.92,0.92c0.55,0.24,0.98,0.59,1.3,1.04c0.31,0.45,0.47,1.02,0.47,1.7c0,0.66,-0.19,1.28,-0.57,1.86c-0.38,0.58,-0.93,1.03,-1.66,1.35c-0.73,0.32,-1.55,0.48,-2.45,0.48c-1.52,0,-2.68,-0.32,-3.48,-0.95c-0.8,-0.63,-1.3,-1.57,-1.52,-2.8" fill="#000000" stroke="none" fill-opacity="1"/>
</g>
</g>
</g>
<defs>
<clipPath id="c0"><path d="m0,0l515.71,0l0,426.79l-515.71,0l0,-426.79"/></clipPath>
<clipPath id="c1"><path d="m46.24,7.11l462.36,0l0,373.44l-462.36,0l0,-373.44"/></clipPath>
</defs>
</svg>
