<?xml version="1.0" standalone="no"?>
<!DOCTYPE svg PUBLIC "-//W3C//DTD SVG 1.1//EN"
  "http://www.w3.org/Graphics/SVG/1.1/DTD/svg11.dtd">
<svg width="496.06px" height="354.33px" version="1.1"
    xmlns="http://www.w3.org/2000/svg"
    xmlns:xlink="http://www.w3.org/1999/xlink">
<desc>Veusz output document</desc>
<defs>
<clipPath id="c0">
<path d="m0,0l496.06,0l0,354.33l-496.06,0l0,-354.33"/>
</clipPath>
<clipPath id="c1">
<path d="m60.23,157.76l428.74,0l0,136.32l-428.74,0l0,-136.32"/>
</clipPath>
<clipPath id="c2">
<path d="m152.1,250.46l30.62,38.17l30.62,-10.9l6.87,-119.96l168.7,0l8.16,109.06l30.62,16.35l30.62,-10.9l30.62,16.35l0,5.45l-428.74,0l0,-16.35l30.62,10.9l30.62,-21.81"/>
</clipPath>
<clipPath id="c3">
<path d="m60.23,7.08l428.74,0l0,136.32l-428.74,0l0,-136.32"/>
</clipPath>
<clipPath id="c4">
<path d="m235.85,143.41l8.12,-70.89l30.62,-5.45l30.62,-19.08l30.62,40.89l30.62,40.89l2.04,13.63"/>
</clipPath>
</defs>
<g stroke-linejoin="bevel" stroke-linecap="square" stroke="#000000" fill-rule="evenodd">
<g clip-path="url(#c0)">
<g fill="#ffffff" stroke="none" stroke-width="1">
<path d="m60.23,7.08l428.74,0l0,287l-428.74,0l0,-287"/>
</g>
</g>
<g clip-path="url(#c2)">
<g fill="none" stroke="#ff0000" stroke-width="0.62">
<path d="M63.79,157.17l-4.21,4.21M72.63,157.17l-13.05,13.05M81.47,157.17l-21.89,21.89M90.31,157.17l-30.73,30.73M99.14,157.17l-39.57,39.57M107.98,157.17l-48.41,48.41M116.82,157.17l-57.25,57.25M125.66,157.17l-66.09,66.09M134.5,157.17l-74.92,74.92M143.34,157.17l-83.76,83.76M152.18,157.17l-92.6,92.6M161.02,157.17l-101.44,101.44M169.85,157.17l-110.28,110.28M178.69,157.17l-119.12,119.12M187.53,157.17l-127.96,127.96M196.37,157.17l-136.8,136.8M205.21,157.17l-137.55,137.55M214.05,157.17l-137.55,137.55M222.89,157.17l-137.55,137.55M231.73,157.17l-137.55,137.55M240.56,157.17l-137.55,137.55M249.4,157.17l-137.55,137.55M258.24,157.17l-137.55,137.55M267.08,157.17l-137.55,137.55M275.92,157.17l-137.55,137.55M284.76,157.17l-137.55,137.55M293.6,157.17l-137.55,137.55M302.44,157.17l-137.55,137.55M311.27,157.17l-137.55,137.55M320.11,157.17l-137.55,137.55M328.95,157.17l-137.55,137.55M337.79,157.17l-137.55,137.55M346.63,157.17l-137.55,137.55M355.47,157.17l-137.55,137.55M364.31,157.17l-137.55,137.55M373.15,157.17l-137.55,137.55M381.98,157.17l-137.55,137.55M390.82,157.17l-137.55,137.55M399.66,157.17l-137.55,137.55M408.5,157.17l-137.55,137.55M417.34,157.17l-137.55,137.55M426.18,157.17l-137.55,137.55M435.02,157.17l-137.55,137.55M443.86,157.17l-137.55,137.55M452.69,157.17l-137.55,137.55M461.53,157.17l-137.55,137.55M470.37,157.17l-137.55,137.55M479.21,157.17l-137.55,137.55M488.05,157.17l-137.55,137.55M489.62,164.44l-130.28,130.28M489.62,173.28l-121.44,121.44M489.62,182.12l-112.6,112.6M489.62,190.95l-103.76,103.76M489.62,199.79l-94.92,94.92M489.62,208.63l-86.08,86.08M489.62,217.47l-77.25,77.25M489.62,226.31l-68.41,68.41M489.62,235.15l-59.57,59.57M489.62,243.99l-50.73,50.73M489.62,252.83l-41.89,41.89M489.62,261.66l-33.05,33.05M489.62,270.5l-24.21,24.21M489.62,279.34l-15.37,15.37M489.62,288.18l-6.54,6.54"/>
<path d="M59.57,289.38l5.34,5.34M59.57,280.54l14.18,14.18M59.57,271.7l23.02,23.02M59.57,262.86l31.85,31.85M59.57,254.02l40.69,40.69M59.57,245.18l49.53,49.53M59.57,236.35l58.37,58.37M59.57,227.51l67.21,67.21M59.57,218.67l76.05,76.05M59.57,209.83l84.89,84.89M59.57,200.99l93.73,93.73M59.57,192.15l102.56,102.56M59.57,183.31l111.4,111.4M59.57,174.47l120.24,120.24M59.57,165.64l129.08,129.08M59.94,157.17l137.55,137.55M68.78,157.17l137.55,137.55M77.62,157.17l137.55,137.55M86.46,157.17l137.55,137.55M95.3,157.17l137.55,137.55M104.14,157.17l137.55,137.55M112.98,157.17l137.55,137.55M121.82,157.17l137.55,137.55M130.65,157.17l137.55,137.55M139.49,157.17l137.55,137.55M148.33,157.17l137.55,137.55M157.17,157.17l137.55,137.55M166.01,157.17l137.55,137.55M174.85,157.17l137.55,137.55M183.69,157.17l137.55,137.55M192.53,157.17l137.55,137.55M201.36,157.17l137.55,137.55M210.2,157.17l137.55,137.55M219.04,157.17l137.55,137.55M227.88,157.17l137.55,137.55M236.72,157.17l137.55,137.55M245.56,157.17l137.55,137.55M254.4,157.17l137.55,137.55M263.24,157.17l137.55,137.55M272.07,157.17l137.55,137.55M280.91,157.17l137.55,137.55M289.75,157.17l137.55,137.55M298.59,157.17l137.55,137.55M307.43,157.17l137.55,137.55M316.27,157.17l137.55,137.55M325.11,157.17l137.55,137.55M333.95,157.17l137.55,137.55M342.78,157.17l137.55,137.55M351.62,157.17l137.55,137.55M360.46,157.17l129.15,129.15M369.3,157.17l120.32,120.32M378.14,157.17l111.48,111.48M386.98,157.17l102.64,102.64M395.82,157.17l93.8,93.8M404.66,157.17l84.96,84.96M413.49,157.17l76.12,76.12M422.33,157.17l67.28,67.28M431.17,157.17l58.44,58.44M440.01,157.17l49.61,49.61M448.85,157.17l40.77,40.77M457.69,157.17l31.93,31.93M466.53,157.17l23.09,23.09M475.37,157.17l14.25,14.25M484.2,157.17l5.41,5.41"/>
</g>
</g>
<g clip-path="url(#c1)">
<g fill="none" stroke-width="1.25">
<polyline fill="none" points="60.23,277.73 90.86,288.64 121.48,266.82 152.1,250.46 182.73,288.64 213.35,277.73 220.3,156.51"/>
<polyline fill="none" points="388.84,156.51 397.1,266.82 427.72,283.18 458.35,272.28 488.97,288.64"/>
</g>
<g fill="#ff0000" stroke-linejoin="miter" stroke-width="0.62">
<g transform="translate(60.23,277.73)">
<path d="m-6.25,6.25l6.25,-3.12l6.25,3.12l-3.12,-6.25l3.12,-6.25l-6.25,3.12l-6.25,-3.12l3.12,6.25l-3.12,6.25" id="p0"/>
</g>
<use xlink:href="#p0" x="90.86" y="288.64"/>
<use xlink:href="#p0" x="121.48" y="266.82"/>
<use xlink:href="#p0" x="152.1" y="250.46"/>
<use xlink:href="#p0" x="182.73" y="288.64"/>
<use xlink:href="#p0" x="213.35" y="277.73"/>
<use xlink:href="#p0" x="397.1" y="266.82"/>
<use xlink:href="#p0" x="427.72" y="283.18"/>
<use xlink:href="#p0" x="458.35" y="272.28"/>
<use xlink:href="#p0" x="488.97" y="288.64"/>
</g>
</g>
<g clip-path="url(#c4)">
<g fill="none" stroke="#ff0000" stroke-width="0.62">
<path d="M244.2,47.47l-8.82,8.82M253.04,47.47l-17.66,17.66M261.88,47.47l-26.5,26.5M270.72,47.47l-35.34,35.34M279.55,47.47l-44.18,44.18M288.39,47.47l-53.02,53.02M297.23,47.47l-61.86,61.86M306.07,47.47l-70.7,70.7M314.91,47.47l-79.53,79.53M323.75,47.47l-88.37,88.37M332.59,47.47l-96.55,96.55M341.43,47.47l-96.55,96.55M350.26,47.47l-96.55,96.55M359.1,47.47l-96.55,96.55M367.94,47.47l-96.55,96.55M369.12,55.13l-88.89,88.89M369.12,63.97l-80.05,80.05M369.12,72.81l-71.21,71.21M369.12,81.65l-62.37,62.37M369.12,90.49l-53.53,53.53M369.12,99.32l-44.69,44.69M369.12,108.16l-35.85,35.85M369.12,117l-27.01,27.01M369.12,125.84l-18.18,18.18M369.12,134.68l-9.34,9.34M369.12,143.52l-0.5,0.5"/>
<path d="M235.37,138.14l5.87,5.87M235.37,129.31l14.71,14.71M235.37,120.47l23.55,23.55M235.37,111.63l32.39,32.39M235.37,102.79l41.23,41.23M235.37,93.95l50.07,50.07M235.37,85.11l58.9,58.9M235.37,76.27l67.74,67.74M235.37,67.43l76.58,76.58M235.37,58.6l85.42,85.42M235.37,49.76l94.26,94.26M241.92,47.47l96.55,96.55M250.76,47.47l96.55,96.55M259.6,47.47l96.55,96.55M268.44,47.47l96.55,96.55M277.28,47.47l91.84,91.84M286.12,47.47l83,83M294.96,47.47l74.16,74.16M303.79,47.47l65.32,65.32M312.63,47.47l56.48,56.48M321.47,47.47l47.64,47.64M330.31,47.47l38.81,38.81M339.15,47.47l29.97,29.97M347.99,47.47l21.13,21.13M356.83,47.47l12.29,12.29M365.67,47.47l3.45,3.45"/>
</g>
</g>
<g clip-path="url(#c3)">
<g fill="none" stroke-width="1.25">
<polyline fill="none" points="235.71,144.66 243.98,72.52 274.6,67.07 305.23,47.98 335.85,88.88 366.47,129.78 368.7,144.66"/>
</g>
<g fill="#ff0000" stroke-linejoin="miter" stroke-width="0.62">
<use xlink:href="#p0" x="243.98" y="72.52"/>
<use xlink:href="#p0" x="274.6" y="67.07"/>
<use xlink:href="#p0" x="305.23" y="47.98"/>
<use xlink:href="#p0" x="335.85" y="88.88"/>
<use xlink:href="#p0" x="366.47" y="129.78"/>
</g>
</g>
<g clip-path="url(#c0)">
<g fill="none" stroke-linecap="butt" stroke-width="0.62">
<polyline fill="none" points="60.23,294.09 60.23,157.76 67.41,150.59 60.23,143.41 60.23,7.08"/>
<path d="M60.23,294.09l3.75,0M60.23,288.64l3.75,0M60.23,283.18l3.75,0M60.23,277.73l3.75,0M60.23,272.28l3.75,0M60.23,266.82l3.75,0M60.23,261.37l3.75,0M60.23,255.92l3.75,0M60.23,250.46l3.75,0M60.23,245.01l3.75,0M60.23,239.56l3.75,0M60.23,234.1l3.75,0M60.23,228.65l3.75,0M60.23,223.2l3.75,0M60.23,217.75l3.75,0M60.23,212.29l3.75,0M60.23,206.84l3.75,0M60.23,201.39l3.75,0M60.23,195.93l3.75,0M60.23,190.48l3.75,0M60.23,185.03l3.75,0M60.23,179.57l3.75,0M60.23,174.12l3.75,0M60.23,168.67l3.75,0M60.23,163.21l3.75,0M60.23,157.76l3.75,0"/>
<path d="M60.23,294.09l7.5,0M60.23,266.82l7.5,0M60.23,239.56l7.5,0M60.23,212.29l7.5,0M60.23,185.03l7.5,0M60.23,157.76l7.5,0"/>
<path d="M60.23,140.68l3.75,0M60.23,135.23l3.75,0M60.23,129.78l3.75,0M60.23,124.32l3.75,0M60.23,118.87l3.75,0M60.23,113.42l3.75,0M60.23,107.96l3.75,0M60.23,102.51l3.75,0M60.23,97.06l3.75,0M60.23,91.61l3.75,0M60.23,86.15l3.75,0M60.23,80.7l3.75,0M60.23,75.25l3.75,0M60.23,69.79l3.75,0M60.23,64.34l3.75,0M60.23,58.89l3.75,0M60.23,53.43l3.75,0M60.23,47.98l3.75,0M60.23,42.53l3.75,0M60.23,37.07l3.75,0M60.23,31.62l3.75,0M60.23,26.17l3.75,0M60.23,20.71l3.75,0M60.23,15.26l3.75,0M60.23,9.81l3.75,0"/>
<path d="M60.23,129.78l7.5,0M60.23,102.51l7.5,0M60.23,75.25l7.5,0M60.23,47.98l7.5,0M60.23,20.71l7.5,0"/>
<polyline fill="none" points="488.97,294.09 488.97,157.76 481.8,150.59 488.97,143.41 488.97,7.08"/>
<path d="M488.97,294.09l-3.75,0M488.97,288.64l-3.75,0M488.97,283.18l-3.75,0M488.97,277.73l-3.75,0M488.97,272.28l-3.75,0M488.97,266.82l-3.75,0M488.97,261.37l-3.75,0M488.97,255.92l-3.75,0M488.97,250.46l-3.75,0M488.97,245.01l-3.75,0M488.97,239.56l-3.75,0M488.97,234.1l-3.75,0M488.97,228.65l-3.75,0M488.97,223.2l-3.75,0M488.97,217.75l-3.75,0M488.97,212.29l-3.75,0M488.97,206.84l-3.75,0M488.97,201.39l-3.75,0M488.97,195.93l-3.75,0M488.97,190.48l-3.75,0M488.97,185.03l-3.75,0M488.97,179.57l-3.75,0M488.97,174.12l-3.75,0M488.97,168.67l-3.75,0M488.97,163.21l-3.75,0M488.97,157.76l-3.75,0"/>
<path d="M488.97,294.09l-7.5,0M488.97,266.82l-7.5,0M488.97,239.56l-7.5,0M488.97,212.29l-7.5,0M488.97,185.03l-7.5,0M488.97,157.76l-7.5,0"/>
<path d="M488.97,140.68l-3.75,0M488.97,135.23l-3.75,0M488.97,129.78l-3.75,0M488.97,124.32l-3.75,0M488.97,118.87l-3.75,0M488.97,113.42l-3.75,0M488.97,107.96l-3.75,0M488.97,102.51l-3.75,0M488.97,97.06l-3.75,0M488.97,91.61l-3.75,0M488.97,86.15l-3.75,0M488.97,80.7l-3.75,0M488.97,75.25l-3.75,0M488.97,69.79l-3.75,0M488.97,64.34l-3.75,0M488.97,58.89l-3.75,0M488.97,53.43l-3.75,0M488.97,47.98l-3.75,0M488.97,42.53l-3.75,0M488.97,37.07l-3.75,0M488.97,31.62l-3.75,0M488.97,26.17l-3.75,0M488.97,20.71l-3.75,0M488.97,15.26l-3.75,0M488.97,9.81l-3.75,0"/>
<path d="M488.97,129.78l-7.5,0M488.97,102.51l-7.5,0M488.97,75.25l-7.5,0M488.97,47.98l-7.5,0M488.97,20.71l-7.5,0"/>
</g>
<g fill="none" stroke-width="1">
<g transform="matrix(0 -1 1 0 18.2 294.09)">
<g stroke="none" fill="#000000" fill-opacity="1" font-family="Arial" font-size="20.0">
<text x="0" y="0" textLength="215.6">An axis with a break in it</text>
</g>
</g>
<g stroke="none" fill="#000000" fill-opacity="1" font-family="Arial" font-size="17.5">
<text x="46.43" y="300.54" textLength="9.7">0</text>
<text x="46.43" y="273.27" textLength="9.7">5</text>
<text x="36.73" y="246.01" textLength="19.4">10</text>
<text x="36.73" y="218.74" textLength="19.4">15</text>
<text x="36.73" y="191.48" textLength="19.4">20</text>
<text x="36.73" y="164.21" textLength="19.4">25</text>
<text x="36.73" y="136.23" textLength="19.4">80</text>
<text x="36.73" y="108.96" textLength="19.4">90</text>
<text x="27.03" y="81.7" textLength="29.1">100</text>
<text x="28.43" y="54.43" textLength="27.7">110</text>
<text x="27.03" y="27.16" textLength="29.1">120</text>
</g>
</g>
<g fill="none" stroke-linecap="butt" stroke-width="0.62">
<path d="M60.23,294.09l428.74,0"/>
<path d="M60.23,294.09l0,-3.75M90.86,294.09l0,-3.75M121.48,294.09l0,-3.75M152.1,294.09l0,-3.75M182.73,294.09l0,-3.75M213.35,294.09l0,-3.75M243.98,294.09l0,-3.75M274.6,294.09l0,-3.75M305.23,294.09l0,-3.75M335.85,294.09l0,-3.75M366.47,294.09l0,-3.75M397.1,294.09l0,-3.75M427.72,294.09l0,-3.75M458.35,294.09l0,-3.75M488.97,294.09l0,-3.75"/>
<path d="M60.23,294.09l0,-7.5M121.48,294.09l0,-7.5M182.73,294.09l0,-7.5M243.98,294.09l0,-7.5M305.23,294.09l0,-7.5M366.47,294.09l0,-7.5M427.72,294.09l0,-7.5M488.97,294.09l0,-7.5"/>
<path d="M60.23,7.08l428.74,0"/>
<path d="M60.23,7.08l0,3.75M90.86,7.08l0,3.75M121.48,7.08l0,3.75M152.1,7.08l0,3.75M182.73,7.08l0,3.75M213.35,7.08l0,3.75M243.98,7.08l0,3.75M274.6,7.08l0,3.75M305.23,7.08l0,3.75M335.85,7.08l0,3.75M366.47,7.08l0,3.75M397.1,7.08l0,3.75M427.72,7.08l0,3.75M458.35,7.08l0,3.75M488.97,7.08l0,3.75"/>
<path d="M60.23,7.08l0,7.5M121.48,7.08l0,7.5M182.73,7.08l0,7.5M243.98,7.08l0,7.5M305.23,7.08l0,7.5M366.47,7.08l0,7.5M427.72,7.08l0,7.5M488.97,7.08l0,7.5"/>
</g>
<g fill="none" stroke-width="1">
<g stroke="none" fill="#000000" fill-opacity="1" font-family="Arial" font-size="20.0">
<text x="60.23" y="341.09" textLength="172.2">Axis without breaks</text>
</g>
<g stroke="none" fill="#000000" fill-opacity="1" font-family="Arial" font-size="17.5">
<text x="55.38" y="314.09" textLength="9.7">0</text>
<text x="116.63" y="314.09" textLength="9.7">2</text>
<text x="177.88" y="314.09" textLength="9.7">4</text>
<text x="239.13" y="314.09" textLength="9.7">6</text>
<text x="300.37" y="314.09" textLength="9.7">8</text>
<text x="356.77" y="314.09" textLength="19.4">10</text>
<text x="418.02" y="314.09" textLength="19.4">12</text>
<text x="476.66" y="314.09" textLength="19.4">14</text>
</g>
</g>
</g>
</g>
</svg>
