<?xml version="1.0" standalone="no"?>
<!DOCTYPE svg PUBLIC "-//W3C//DTD SVG 1.1//EN" 
  "http://www.w3.org/Graphics/SVG/1.1/DTD/svg11.dtd">
<svg width="640.19px" height="533.49px" version="1.1"
     xmlns="http://www.w3.org/2000/svg"
     xmlns:xlink="http://www.w3.org/1999/xlink">
<desc>Veusz output document</desc>
<g stroke-linejoin="bevel" stroke-linecap="square" stroke="#000000" fill-rule="evenodd">
<g clip-path="url(#c0)">
<g stroke-width="0.62" fill="#f9faff">
<path d="m60.46,7.11l572.61,0l0,465.91l-572.61,0l0,-465.91"/>
</g>
</g>
<g clip-path="url(#c1)">
<g stroke-width="0.62" fill="none">
<polyline fill="none" points="60.46,242.1 117.72,291.99 174.98,189.56 232.25,242.96 289.51,204.56 346.77,279.99 404.03,184.36 461.29,247.87 518.55,252.14 575.81,211.61"/>
</g>
<g stroke-linejoin="miter" stroke-width="0.62" transform="translate(60.46, 242.1)" fill="#c7b266">
<path d="m7.5,0c0,4.14,-3.36,7.5,-7.5,7.5c-4.14,0,-7.5,-3.36,-7.5,-7.5c0,-4.14,3.36,-7.5,7.5,-7.5c4.14,0,7.5,3.36,7.5,7.5"/>
</g>
<g stroke-linejoin="miter" stroke-width="0.62" transform="translate(117.72, 291.99)" fill="#c7b266">
<path d="m7.5,0c0,4.14,-3.36,7.5,-7.5,7.5c-4.14,0,-7.5,-3.36,-7.5,-7.5c0,-4.14,3.36,-7.5,7.5,-7.5c4.14,0,7.5,3.36,7.5,7.5"/>
</g>
<g stroke-linejoin="miter" stroke-width="0.62" transform="translate(174.98, 189.56)" fill="#c7b266">
<path d="m7.5,0c0,4.14,-3.36,7.5,-7.5,7.5c-4.14,0,-7.5,-3.36,-7.5,-7.5c0,-4.14,3.36,-7.5,7.5,-7.5c4.14,0,7.5,3.36,7.5,7.5"/>
</g>
<g stroke-linejoin="miter" stroke-width="0.62" transform="translate(232.25, 242.96)" fill="#c7b266">
<path d="m7.5,0c0,4.14,-3.36,7.5,-7.5,7.5c-4.14,0,-7.5,-3.36,-7.5,-7.5c0,-4.14,3.36,-7.5,7.5,-7.5c4.14,0,7.5,3.36,7.5,7.5"/>
</g>
<g stroke-linejoin="miter" stroke-width="0.62" transform="translate(289.51, 204.56)" fill="#c7b266">
<path d="m7.5,0c0,4.14,-3.36,7.5,-7.5,7.5c-4.14,0,-7.5,-3.36,-7.5,-7.5c0,-4.14,3.36,-7.5,7.5,-7.5c4.14,0,7.5,3.36,7.5,7.5"/>
</g>
<g stroke-linejoin="miter" stroke-width="0.62" transform="translate(346.77, 279.99)" fill="#c7b266">
<path d="m7.5,0c0,4.14,-3.36,7.5,-7.5,7.5c-4.14,0,-7.5,-3.36,-7.5,-7.5c0,-4.14,3.36,-7.5,7.5,-7.5c4.14,0,7.5,3.36,7.5,7.5"/>
</g>
<g stroke-linejoin="miter" stroke-width="0.62" transform="translate(404.03, 184.36)" fill="#c7b266">
<path d="m7.5,0c0,4.14,-3.36,7.5,-7.5,7.5c-4.14,0,-7.5,-3.36,-7.5,-7.5c0,-4.14,3.36,-7.5,7.5,-7.5c4.14,0,7.5,3.36,7.5,7.5"/>
</g>
<g stroke-linejoin="miter" stroke-width="0.62" transform="translate(461.29, 247.87)" fill="#c7b266">
<path d="m7.5,0c0,4.14,-3.36,7.5,-7.5,7.5c-4.14,0,-7.5,-3.36,-7.5,-7.5c0,-4.14,3.36,-7.5,7.5,-7.5c4.14,0,7.5,3.36,7.5,7.5"/>
</g>
<g stroke-linejoin="miter" stroke-width="0.62" transform="translate(518.55, 252.14)" fill="#c7b266">
<path d="m7.5,0c0,4.14,-3.36,7.5,-7.5,7.5c-4.14,0,-7.5,-3.36,-7.5,-7.5c0,-4.14,3.36,-7.5,7.5,-7.5c4.14,0,7.5,3.36,7.5,7.5"/>
</g>
<g stroke-linejoin="miter" stroke-width="0.62" transform="translate(575.81, 211.61)" fill="#c7b266">
<path d="m7.5,0c0,4.14,-3.36,7.5,-7.5,7.5c-4.14,0,-7.5,-3.36,-7.5,-7.5c0,-4.14,3.36,-7.5,7.5,-7.5c4.14,0,7.5,3.36,7.5,7.5"/>
</g>
</g>
<g clip-path="url(#c2)">
<g stroke="#659f23" stroke-width="0.62" fill="none">
<path d="M208.98,40.11l0,0"/>
<path d="M208.98,40.11l0,0"/>
<path d="M191.2,40.11l35.57,0"/>
</g>
<g stroke-linejoin="miter" stroke-width="0.62" transform="translate(208.98, 40.11)" fill="#659f23">
<path d="m1.5,3.75l0,-2.25l2.25,0l0,-3l-2.25,0l0,-2.25l-3,0l0,2.25l-2.25,0l0,3l2.25,0l0,2.25l3,0"/>
</g>
</g>
<g clip-path="url(#c0)">
<g stroke-width="1" fill="none">
<path d="m258.09,47.11l-1.61,0l0,-1c-0.46,0.4,-0.94,0.71,-1.45,0.93c-0.51,0.22,-1.05,0.34,-1.63,0.34c-1.14,0,-2.04,-0.44,-2.71,-1.31c-0.67,-0.87,-1.01,-2.09,-1.01,-3.66c0,-0.8,0.11,-1.52,0.34,-2.16c0.23,-0.64,0.54,-1.18,0.94,-1.62c0.39,-0.43,0.84,-0.76,1.35,-0.98c0.52,-0.23,1.05,-0.34,1.6,-0.34c0.5,0,0.95,0.05,1.34,0.16c0.39,0.1,0.8,0.27,1.23,0.5l0,-4.14l1.61,0l0,13.3m-1.61,-2.34l0,-5.48c-0.44,-0.2,-0.83,-0.33,-1.16,-0.41c-0.34,-0.07,-0.71,-0.11,-1.12,-0.11c-0.91,0,-1.61,0.32,-2.11,0.95c-0.5,0.63,-0.75,1.52,-0.75,2.66c0,1.14,0.2,2,0.59,2.59c0.39,0.59,1.01,0.88,1.87,0.88c0.45,0,0.91,-0.1,1.37,-0.3c0.47,-0.2,0.91,-0.46,1.31,-0.77m12.28,2.34l-1.59,0l0,-1.02c-0.15,0.09,-0.34,0.23,-0.59,0.41c-0.24,0.18,-0.48,0.31,-0.7,0.41c-0.27,0.14,-0.58,0.25,-0.93,0.34c-0.35,0.09,-0.76,0.13,-1.23,0.13c-0.85,0,-1.58,-0.28,-2.18,-0.85c-0.6,-0.57,-0.9,-1.29,-0.9,-2.18c0,-0.73,0.15,-1.32,0.46,-1.77c0.31,-0.45,0.75,-0.8,1.34,-1.05c0.58,-0.26,1.28,-0.43,2.09,-0.52c0.81,-0.09,1.69,-0.16,2.62,-0.21l0,-0.23c0,-0.36,-0.07,-0.67,-0.2,-0.91c-0.13,-0.24,-0.32,-0.43,-0.55,-0.58c-0.23,-0.12,-0.5,-0.21,-0.82,-0.26c-0.32,-0.05,-0.65,-0.07,-0.99,-0.07c-0.43,0,-0.9,0.05,-1.41,0.16c-0.52,0.11,-1.05,0.27,-1.62,0.49l-0.08,0l0,-1.64c0.31,-0.08,0.77,-0.18,1.36,-0.28c0.59,-0.1,1.18,-0.16,1.75,-0.16c0.68,0,1.26,0.06,1.76,0.17c0.49,0.11,0.92,0.3,1.29,0.56c0.36,0.27,0.64,0.61,0.83,1.02c0.19,0.41,0.28,0.92,0.28,1.54l0,6.48m-1.59,-2.34l0,-2.66c-0.49,0.02,-1.07,0.06,-1.73,0.12c-0.67,0.06,-1.19,0.14,-1.58,0.26c-0.46,0.12,-0.83,0.33,-1.12,0.6c-0.29,0.28,-0.43,0.66,-0.43,1.15c0,0.54,0.16,0.95,0.49,1.23c0.33,0.28,0.83,0.41,1.51,0.41c0.57,0,1.09,-0.11,1.55,-0.33c0.46,-0.22,0.9,-0.48,1.3,-0.78m10.12,2.27c-0.3,0.07,-0.63,0.14,-0.98,0.19c-0.35,0.05,-0.67,0.08,-0.95,0.08c-0.97,0,-1.71,-0.26,-2.22,-0.79c-0.51,-0.53,-0.77,-1.37,-0.77,-2.52l0,-5.06l-1.08,0l0,-1.36l1.08,0l0,-2.73l1.61,0l0,2.73l3.31,0l0,1.36l-3.31,0l0,4.34c0,0.5,0.01,0.89,0.04,1.17c0.03,0.28,0.11,0.55,0.24,0.8c0.12,0.23,0.3,0.4,0.52,0.5c0.22,0.1,0.55,0.16,1,0.16c0.26,0,0.53,-0.04,0.82,-0.12c0.29,-0.08,0.49,-0.14,0.62,-0.2l0.08,0l0,1.45m9.47,0.08l-1.59,0l0,-1.02c-0.15,0.09,-0.34,0.23,-0.59,0.41c-0.24,0.18,-0.48,0.31,-0.7,0.41c-0.27,0.14,-0.58,0.25,-0.93,0.34c-0.35,0.09,-0.76,0.13,-1.23,0.13c-0.85,0,-1.58,-0.28,-2.18,-0.85c-0.6,-0.57,-0.9,-1.29,-0.9,-2.18c0,-0.73,0.15,-1.32,0.46,-1.77c0.31,-0.45,0.75,-0.8,1.34,-1.05c0.58,-0.26,1.28,-0.43,2.09,-0.52c0.81,-0.09,1.69,-0.16,2.62,-0.21l0,-0.23c0,-0.36,-0.07,-0.67,-0.2,-0.91c-0.13,-0.24,-0.32,-0.43,-0.55,-0.58c-0.23,-0.12,-0.5,-0.21,-0.82,-0.26c-0.32,-0.05,-0.65,-0.07,-0.99,-0.07c-0.43,0,-0.9,0.05,-1.41,0.16c-0.52,0.11,-1.05,0.27,-1.62,0.49l-0.08,0l0,-1.64c0.31,-0.08,0.77,-0.18,1.36,-0.28c0.59,-0.1,1.18,-0.16,1.75,-0.16c0.68,0,1.26,0.06,1.76,0.17c0.49,0.11,0.92,0.3,1.29,0.56c0.36,0.27,0.64,0.61,0.83,1.02c0.19,0.41,0.28,0.92,0.28,1.54l0,6.48m-1.59,-2.34l0,-2.66c-0.49,0.02,-1.07,0.06,-1.73,0.12c-0.67,0.06,-1.19,0.14,-1.58,0.26c-0.46,0.12,-0.83,0.33,-1.12,0.6c-0.29,0.28,-0.43,0.66,-0.43,1.15c0,0.54,0.16,0.95,0.49,1.23c0.33,0.28,0.83,0.41,1.51,0.41c0.57,0,1.09,-0.11,1.55,-0.33c0.46,-0.22,0.9,-0.48,1.3,-0.78" fill="#000000" stroke="none" fill-opacity="1"/>
</g>
</g>
<g clip-path="url(#c3)">
<g stroke="#de9578" stroke-width="0.62" fill="none">
<path d="M208.98,62.11l0,0"/>
<path d="M208.98,62.11l0,0"/>
<path d="M191.2,62.11l35.57,0"/>
</g>
<g stroke-linejoin="miter" stroke-width="0.62" transform="translate(208.98, 62.11)" fill="#de9578">
<path d="m3.75,0c0,2.07,-1.68,3.75,-3.75,3.75c-2.07,0,-3.75,-1.68,-3.75,-3.75c0,-2.07,1.68,-3.75,3.75,-3.75c2.07,0,3.75,1.68,3.75,3.75"/>
</g>
</g>
<g clip-path="url(#c0)">
<g stroke-width="1" fill="none">
<path d="m257.77,69.11l-1.59,0l0,-1.02c-0.15,0.09,-0.34,0.23,-0.59,0.41c-0.24,0.18,-0.48,0.31,-0.7,0.41c-0.27,0.14,-0.58,0.25,-0.93,0.34c-0.35,0.09,-0.76,0.13,-1.23,0.13c-0.85,0,-1.58,-0.28,-2.18,-0.85c-0.6,-0.57,-0.9,-1.29,-0.9,-2.18c0,-0.73,0.15,-1.32,0.46,-1.77c0.31,-0.45,0.75,-0.8,1.34,-1.05c0.58,-0.26,1.28,-0.43,2.09,-0.52c0.81,-0.09,1.69,-0.16,2.62,-0.21l0,-0.23c0,-0.36,-0.07,-0.67,-0.2,-0.91c-0.13,-0.24,-0.32,-0.43,-0.55,-0.58c-0.23,-0.12,-0.5,-0.21,-0.82,-0.26c-0.32,-0.05,-0.65,-0.07,-0.99,-0.07c-0.43,0,-0.9,0.05,-1.41,0.16c-0.52,0.11,-1.05,0.27,-1.62,0.49l-0.08,0l0,-1.64c0.31,-0.08,0.77,-0.18,1.36,-0.28c0.59,-0.1,1.18,-0.16,1.75,-0.16c0.68,0,1.26,0.06,1.76,0.17c0.49,0.11,0.92,0.3,1.29,0.56c0.36,0.27,0.64,0.61,0.83,1.02c0.19,0.41,0.28,0.92,0.28,1.54l0,6.48m-1.59,-2.34l0,-2.66c-0.49,0.02,-1.07,0.06,-1.73,0.12c-0.67,0.06,-1.19,0.14,-1.58,0.26c-0.46,0.12,-0.83,0.33,-1.12,0.6c-0.29,0.28,-0.43,0.66,-0.43,1.15c0,0.54,0.16,0.95,0.49,1.23c0.33,0.28,0.83,0.41,1.51,0.41c0.57,0,1.09,-0.11,1.55,-0.33c0.46,-0.22,0.9,-0.48,1.3,-0.78m12.92,2.34l-1.61,0l0,-1c-0.46,0.4,-0.94,0.71,-1.45,0.93c-0.51,0.22,-1.05,0.34,-1.63,0.34c-1.14,0,-2.04,-0.44,-2.71,-1.31c-0.67,-0.87,-1.01,-2.09,-1.01,-3.66c0,-0.8,0.11,-1.52,0.34,-2.16c0.23,-0.64,0.54,-1.18,0.94,-1.62c0.39,-0.43,0.84,-0.76,1.35,-0.98c0.52,-0.23,1.05,-0.34,1.6,-0.34c0.5,0,0.95,0.05,1.34,0.16c0.39,0.1,0.8,0.27,1.23,0.5l0,-4.14l1.61,0l0,13.3m-1.61,-2.34l0,-5.48c-0.44,-0.2,-0.83,-0.33,-1.16,-0.41c-0.34,-0.07,-0.71,-0.11,-1.12,-0.11c-0.91,0,-1.61,0.32,-2.11,0.95c-0.5,0.63,-0.75,1.52,-0.75,2.66c0,1.14,0.2,2,0.59,2.59c0.39,0.59,1.01,0.88,1.87,0.88c0.45,0,0.91,-0.1,1.37,-0.3c0.47,-0.2,0.91,-0.46,1.31,-0.77m12.61,2.34l-1.61,0l0,-1c-0.46,0.4,-0.94,0.71,-1.45,0.93c-0.51,0.22,-1.05,0.34,-1.63,0.34c-1.14,0,-2.04,-0.44,-2.71,-1.31c-0.67,-0.87,-1.01,-2.09,-1.01,-3.66c0,-0.8,0.11,-1.52,0.34,-2.16c0.23,-0.64,0.54,-1.18,0.94,-1.62c0.39,-0.43,0.84,-0.76,1.35,-0.98c0.52,-0.23,1.05,-0.34,1.6,-0.34c0.5,0,0.95,0.05,1.34,0.16c0.39,0.1,0.8,0.27,1.23,0.5l0,-4.14l1.61,0l0,13.3m-1.61,-2.34l0,-5.48c-0.44,-0.2,-0.83,-0.33,-1.16,-0.41c-0.34,-0.07,-0.71,-0.11,-1.12,-0.11c-0.91,0,-1.61,0.32,-2.11,0.95c-0.5,0.63,-0.75,1.52,-0.75,2.66c0,1.14,0.2,2,0.59,2.59c0.39,0.59,1.01,0.88,1.87,0.88c0.45,0,0.91,-0.1,1.37,-0.3c0.47,-0.2,0.91,-0.46,1.31,-0.77" fill="#000000" stroke="none" fill-opacity="1"/>
</g>
</g>
<g clip-path="url(#c4)">
<g stroke="#d02bf1" stroke-width="0.62" fill="none">
<path d="M208.98,84.11l0,0"/>
<path d="M208.98,84.11l0,0"/>
<path d="M191.2,84.11l35.57,0"/>
</g>
<g stroke-linejoin="miter" stroke-width="0.62" transform="translate(208.98, 84.11)" fill="#d02bf1">
<path d="m3.75,0c0,2.07,-1.68,3.75,-3.75,3.75c-2.07,0,-3.75,-1.68,-3.75,-3.75c0,-2.07,1.68,-3.75,3.75,-3.75c2.07,0,3.75,1.68,3.75,3.75"/>
</g>
</g>
<g clip-path="url(#c0)">
<g stroke-width="1" fill="none">
<path d="m258.75,86.22c0,0.78,-0.11,1.49,-0.34,2.13c-0.22,0.64,-0.54,1.18,-0.95,1.62c-0.37,0.43,-0.82,0.76,-1.33,0.98c-0.51,0.23,-1.05,0.34,-1.61,0.34c-0.5,0,-0.95,-0.05,-1.35,-0.16c-0.4,-0.11,-0.81,-0.28,-1.23,-0.51l0,4l-1.61,0l0,-13.06l1.61,0l0,1c0.43,-0.35,0.91,-0.65,1.44,-0.9c0.53,-0.24,1.1,-0.37,1.7,-0.37c1.16,0,2.05,0.43,2.7,1.3c0.64,0.87,0.96,2.08,0.96,3.62m-1.66,0.05c0,-1.16,-0.2,-2.02,-0.59,-2.59c-0.4,-0.57,-1,-0.85,-1.81,-0.85c-0.46,0,-0.92,0.1,-1.39,0.3c-0.47,0.2,-0.92,0.46,-1.34,0.8l0,5.41c0.46,0.2,0.85,0.34,1.18,0.41c0.33,0.08,0.7,0.12,1.12,0.12c0.89,0,1.58,-0.3,2.09,-0.91c0.51,-0.6,0.76,-1.5,0.76,-2.69m5.87,4.84l-1.61,0l0,-13.3l1.61,0l0,13.3m11.3,0l-1.61,0l0,-1.06c-0.54,0.43,-1.06,0.76,-1.55,0.98c-0.49,0.23,-1.04,0.34,-1.65,0.34c-1,0,-1.78,-0.31,-2.34,-0.92c-0.56,-0.61,-0.84,-1.51,-0.84,-2.69l0,-6.2l1.61,0l0,5.44c0,0.48,0.02,0.89,0.06,1.24c0.04,0.35,0.14,0.64,0.3,0.88c0.15,0.25,0.34,0.43,0.59,0.55c0.24,0.11,0.6,0.17,1.07,0.17c0.42,0,0.87,-0.11,1.37,-0.33c0.49,-0.22,0.96,-0.49,1.38,-0.83l0,-7.12l1.61,0l0,9.55m9.91,-2.75c0,0.87,-0.36,1.59,-1.09,2.15c-0.72,0.56,-1.71,0.84,-2.96,0.84c-0.7,0,-1.34,-0.09,-1.94,-0.26c-0.59,-0.17,-1.09,-0.36,-1.48,-0.55l0,-1.8l0.09,0c0.5,0.39,1.06,0.69,1.69,0.91c0.62,0.22,1.22,0.34,1.78,0.34c0.71,0,1.26,-0.11,1.66,-0.34c0.4,-0.23,0.6,-0.59,0.6,-1.08c0,-0.37,-0.11,-0.66,-0.33,-0.86c-0.22,-0.19,-0.64,-0.35,-1.25,-0.48c-0.23,-0.05,-0.53,-0.11,-0.89,-0.18c-0.36,-0.07,-0.7,-0.14,-1,-0.23c-0.84,-0.22,-1.44,-0.54,-1.79,-0.98c-0.35,-0.43,-0.52,-0.96,-0.52,-1.59c0,-0.4,0.08,-0.77,0.24,-1.12c0.16,-0.35,0.41,-0.66,0.74,-0.93c0.31,-0.27,0.72,-0.48,1.21,-0.64c0.49,-0.16,1.05,-0.23,1.66,-0.23c0.56,0,1.14,0.07,1.72,0.21c0.58,0.14,1.07,0.31,1.47,0.51l0,1.72l-0.09,0c-0.41,-0.3,-0.9,-0.56,-1.49,-0.77c-0.59,-0.21,-1.16,-0.31,-1.73,-0.31c-0.58,0,-1.08,0.11,-1.48,0.34c-0.41,0.23,-0.61,0.56,-0.61,1c0,0.4,0.12,0.69,0.36,0.89c0.24,0.2,0.63,0.36,1.17,0.48c0.29,0.07,0.62,0.14,0.99,0.21c0.37,0.07,0.67,0.13,0.91,0.18c0.75,0.18,1.33,0.47,1.73,0.89c0.41,0.42,0.61,0.97,0.61,1.67" fill="#000000" stroke="none" fill-opacity="1"/>
</g>
</g>
<g clip-path="url(#c5)">
<g stroke="#00a2b7" stroke-width="0.62" fill="none">
<path d="M208.98,106.11l0,0"/>
<path d="M208.98,106.11l0,0"/>
<path d="M191.2,106.11l35.57,0"/>
</g>
<g stroke-linejoin="miter" stroke-width="0.62" transform="translate(208.98, 106.11)" fill="#00a2b7">
<path d="m-3.75,-3.75l7.5,0l0,7.5l-7.5,0l0,-7.5"/>
</g>
</g>
<g clip-path="url(#c0)">
<g stroke-width="1" fill="none">
<path d="m264.28,113.11l-1.61,0l0,-5.44c0,-0.41,-0.02,-0.8,-0.05,-1.18c-0.04,-0.38,-0.12,-0.68,-0.24,-0.91c-0.12,-0.25,-0.31,-0.44,-0.55,-0.56c-0.24,-0.12,-0.6,-0.19,-1.07,-0.19c-0.45,0,-0.9,0.11,-1.34,0.34c-0.45,0.22,-0.9,0.51,-1.36,0.87c0.02,0.12,0.04,0.28,0.05,0.45c0.01,0.18,0.02,0.35,0.02,0.52l0,6.11l-1.61,0l0,-5.44c0,-0.42,-0.02,-0.82,-0.05,-1.2c-0.04,-0.38,-0.11,-0.68,-0.23,-0.91c-0.14,-0.24,-0.33,-0.42,-0.57,-0.55c-0.24,-0.12,-0.6,-0.19,-1.05,-0.19c-0.44,0,-0.88,0.11,-1.32,0.33c-0.44,0.22,-0.88,0.49,-1.32,0.83l0,7.12l-1.61,0l0,-9.55l1.61,0l0,1.06c0.5,-0.42,1,-0.74,1.5,-0.98c0.5,-0.23,1.03,-0.35,1.59,-0.35c0.65,0,1.2,0.14,1.65,0.41c0.45,0.28,0.79,0.65,1.02,1.13c0.65,-0.54,1.24,-0.93,1.77,-1.18c0.54,-0.24,1.11,-0.37,1.71,-0.37c1.05,0,1.83,0.32,2.33,0.95c0.5,0.64,0.75,1.53,0.75,2.67l0,6.19m12.06,-4.61l-7.05,0c0,0.59,0.09,1.11,0.27,1.54c0.18,0.43,0.42,0.79,0.73,1.07c0.29,0.27,0.64,0.48,1.05,0.62c0.41,0.14,0.86,0.21,1.35,0.21c0.65,0,1.3,-0.13,1.95,-0.39c0.66,-0.26,1.12,-0.52,1.41,-0.77l0.08,0l0,1.75c-0.53,0.23,-1.08,0.42,-1.65,0.57c-0.57,0.15,-1.16,0.23,-1.77,0.23c-1.58,0,-2.82,-0.43,-3.71,-1.28c-0.89,-0.85,-1.34,-2.07,-1.34,-3.66c0,-1.56,0.42,-2.8,1.27,-3.72c0.85,-0.92,1.97,-1.37,3.37,-1.37c1.29,0,2.29,0.38,2.98,1.13c0.7,0.76,1.05,1.82,1.05,3.2l0,0.87m-1.58,-1.23c0,-0.83,-0.21,-1.48,-0.63,-1.95c-0.42,-0.46,-1.06,-0.7,-1.91,-0.7c-0.85,0,-1.54,0.25,-2.05,0.76c-0.51,0.51,-0.8,1.13,-0.87,1.88l5.47,0m12,5.84l-1.59,0l0,-1.02c-0.15,0.09,-0.34,0.23,-0.59,0.41c-0.24,0.18,-0.48,0.31,-0.7,0.41c-0.27,0.14,-0.58,0.25,-0.93,0.34c-0.35,0.09,-0.76,0.13,-1.23,0.13c-0.85,0,-1.58,-0.28,-2.18,-0.85c-0.6,-0.57,-0.9,-1.29,-0.9,-2.18c0,-0.73,0.15,-1.32,0.46,-1.77c0.31,-0.45,0.75,-0.8,1.34,-1.05c0.58,-0.26,1.28,-0.43,2.09,-0.52c0.81,-0.09,1.69,-0.16,2.62,-0.21l0,-0.23c0,-0.36,-0.07,-0.67,-0.2,-0.91c-0.13,-0.24,-0.32,-0.43,-0.55,-0.58c-0.23,-0.12,-0.5,-0.21,-0.82,-0.26c-0.32,-0.05,-0.65,-0.07,-0.99,-0.07c-0.43,0,-0.9,0.05,-1.41,0.16c-0.52,0.11,-1.05,0.27,-1.62,0.49l-0.08,0l0,-1.64c0.31,-0.08,0.77,-0.18,1.36,-0.28c0.59,-0.1,1.18,-0.16,1.75,-0.16c0.68,0,1.26,0.06,1.76,0.17c0.49,0.11,0.92,0.3,1.29,0.56c0.36,0.27,0.64,0.61,0.83,1.02c0.19,0.41,0.28,0.92,0.28,1.54l0,6.48m-1.59,-2.34l0,-2.66c-0.49,0.02,-1.07,0.06,-1.73,0.12c-0.67,0.06,-1.19,0.14,-1.58,0.26c-0.46,0.12,-0.83,0.33,-1.12,0.6c-0.29,0.28,-0.43,0.66,-0.43,1.15c0,0.54,0.16,0.95,0.49,1.23c0.33,0.28,0.83,0.41,1.51,0.41c0.57,0,1.09,-0.11,1.55,-0.33c0.46,-0.22,0.9,-0.48,1.3,-0.78m13.16,2.34l-1.61,0l0,-5.44c0,-0.44,-0.03,-0.85,-0.08,-1.23c-0.05,-0.39,-0.15,-0.69,-0.28,-0.91c-0.14,-0.24,-0.34,-0.42,-0.61,-0.53c-0.27,-0.11,-0.62,-0.17,-1.05,-0.17c-0.44,0,-0.9,0.11,-1.37,0.33c-0.48,0.22,-0.94,0.49,-1.37,0.83l0,7.12l-1.61,0l0,-9.55l1.61,0l0,1.06c0.5,-0.42,1.02,-0.74,1.55,-0.98c0.54,-0.23,1.09,-0.35,1.65,-0.35c1.03,0,1.82,0.31,2.36,0.93c0.54,0.62,0.81,1.52,0.81,2.7l0,6.19" fill="#000000" stroke="none" fill-opacity="1"/>
</g>
</g>
<g clip-path="url(#c6)">
<g stroke="#696b69" stroke-width="0.62" fill="none">
<path d="M375.55,40.11l0,0"/>
<path d="M375.55,40.11l0,0"/>
<path d="M357.77,40.11l35.57,0"/>
</g>
<g stroke-linejoin="miter" stroke-width="0.62" transform="translate(375.55, 40.11)" fill="#696b69">
<path d="m0,5.3l5.3,-5.3l-5.3,-5.3l-5.3,5.3l5.3,5.3"/>
</g>
</g>
<g clip-path="url(#c0)">
<g stroke-width="1" fill="none">
<path d="m423.73,44.36c0,0.87,-0.36,1.59,-1.09,2.15c-0.72,0.56,-1.71,0.84,-2.96,0.84c-0.7,0,-1.34,-0.09,-1.94,-0.26c-0.59,-0.17,-1.09,-0.36,-1.48,-0.55l0,-1.8l0.09,0c0.5,0.39,1.06,0.69,1.69,0.91c0.62,0.22,1.22,0.34,1.78,0.34c0.71,0,1.26,-0.11,1.66,-0.34c0.4,-0.23,0.6,-0.59,0.6,-1.08c0,-0.37,-0.11,-0.66,-0.33,-0.86c-0.22,-0.19,-0.64,-0.35,-1.25,-0.48c-0.23,-0.05,-0.53,-0.11,-0.89,-0.18c-0.36,-0.07,-0.7,-0.14,-1,-0.23c-0.84,-0.22,-1.44,-0.54,-1.79,-0.98c-0.35,-0.43,-0.52,-0.96,-0.52,-1.59c0,-0.4,0.08,-0.77,0.24,-1.12c0.16,-0.35,0.41,-0.66,0.74,-0.93c0.31,-0.27,0.72,-0.48,1.21,-0.64c0.49,-0.16,1.05,-0.23,1.66,-0.23c0.56,0,1.14,0.07,1.72,0.21c0.58,0.14,1.07,0.31,1.47,0.51l0,1.72l-0.09,0c-0.41,-0.3,-0.9,-0.56,-1.49,-0.77c-0.59,-0.21,-1.16,-0.31,-1.73,-0.31c-0.58,0,-1.08,0.11,-1.48,0.34c-0.41,0.23,-0.61,0.56,-0.61,1c0,0.4,0.12,0.69,0.36,0.89c0.24,0.2,0.63,0.36,1.17,0.48c0.29,0.07,0.62,0.14,0.99,0.21c0.37,0.07,0.67,0.13,0.91,0.18c0.75,0.18,1.33,0.47,1.73,0.89c0.41,0.42,0.61,0.97,0.61,1.67m10.09,2.75l-1.61,0l0,-1.06c-0.54,0.43,-1.06,0.76,-1.55,0.98c-0.49,0.23,-1.04,0.34,-1.65,0.34c-1,0,-1.78,-0.31,-2.34,-0.92c-0.56,-0.61,-0.84,-1.51,-0.84,-2.69l0,-6.2l1.61,0l0,5.44c0,0.48,0.02,0.89,0.06,1.24c0.04,0.35,0.14,0.64,0.3,0.88c0.15,0.25,0.34,0.43,0.59,0.55c0.24,0.11,0.6,0.17,1.07,0.17c0.42,0,0.87,-0.11,1.37,-0.33c0.49,-0.22,0.96,-0.49,1.38,-0.83l0,-7.12l1.61,0l0,9.55m11.48,-4.84c0,0.79,-0.11,1.51,-0.34,2.15c-0.22,0.64,-0.53,1.18,-0.91,1.62c-0.41,0.45,-0.85,0.78,-1.34,1.01c-0.48,0.22,-1.02,0.34,-1.6,0.34c-0.54,0,-1.01,-0.07,-1.41,-0.2c-0.4,-0.13,-0.8,-0.3,-1.2,-0.51l-0.11,0.44l-1.5,0l0,-13.3l1.61,0l0,4.75c0.45,-0.36,0.93,-0.67,1.44,-0.91c0.51,-0.24,1.08,-0.36,1.7,-0.36c1.14,0,2.03,0.43,2.68,1.3c0.65,0.86,0.98,2.09,0.98,3.67m-1.66,0.05c0,-1.15,-0.19,-2.01,-0.57,-2.6c-0.38,-0.59,-0.99,-0.88,-1.82,-0.88c-0.47,0,-0.94,0.1,-1.42,0.3c-0.48,0.2,-0.92,0.47,-1.33,0.79l0,5.47c0.46,0.2,0.85,0.34,1.18,0.42c0.33,0.08,0.7,0.12,1.12,0.12c0.89,0,1.58,-0.29,2.09,-0.88c0.51,-0.59,0.76,-1.5,0.76,-2.74" fill="#000000" stroke="none" fill-opacity="1"/>
</g>
</g>
<g clip-path="url(#c7)">
<g stroke="#684f5f" stroke-width="0.62" fill="none">
<path d="M375.55,62.11l0,0"/>
<path d="M375.55,62.11l0,0"/>
<path d="M357.77,62.11l35.57,0"/>
</g>
<g stroke-linejoin="miter" stroke-width="0.62" transform="translate(375.55, 62.11)" fill="#cf9ebe">
<path d="m-3.75,3.75l3.75,-1.87l3.75,1.87l-1.87,-3.75l1.87,-3.75l-3.75,1.87l-3.75,-1.87l1.87,3.75l-1.87,3.75"/>
</g>
</g>
<g clip-path="url(#c0)">
<g stroke-width="1" fill="none">
<path d="m423.73,66.36c0,0.87,-0.36,1.59,-1.09,2.15c-0.72,0.56,-1.71,0.84,-2.96,0.84c-0.7,0,-1.34,-0.09,-1.94,-0.26c-0.59,-0.17,-1.09,-0.36,-1.48,-0.55l0,-1.8l0.09,0c0.5,0.39,1.06,0.69,1.69,0.91c0.62,0.22,1.22,0.34,1.78,0.34c0.71,0,1.26,-0.11,1.66,-0.34c0.4,-0.23,0.6,-0.59,0.6,-1.08c0,-0.37,-0.11,-0.66,-0.33,-0.86c-0.22,-0.19,-0.64,-0.35,-1.25,-0.48c-0.23,-0.05,-0.53,-0.11,-0.89,-0.18c-0.36,-0.07,-0.7,-0.14,-1,-0.23c-0.84,-0.22,-1.44,-0.54,-1.79,-0.98c-0.35,-0.43,-0.52,-0.96,-0.52,-1.59c0,-0.4,0.08,-0.77,0.24,-1.12c0.16,-0.35,0.41,-0.66,0.74,-0.93c0.31,-0.27,0.72,-0.48,1.21,-0.64c0.49,-0.16,1.05,-0.23,1.66,-0.23c0.56,0,1.14,0.07,1.72,0.21c0.58,0.14,1.07,0.31,1.47,0.51l0,1.72l-0.09,0c-0.41,-0.3,-0.9,-0.56,-1.49,-0.77c-0.59,-0.21,-1.16,-0.31,-1.73,-0.31c-0.58,0,-1.08,0.11,-1.48,0.34c-0.41,0.23,-0.61,0.56,-0.61,1c0,0.4,0.12,0.69,0.36,0.89c0.24,0.2,0.63,0.36,1.17,0.48c0.29,0.07,0.62,0.14,0.99,0.21c0.37,0.07,0.67,0.13,0.91,0.18c0.75,0.18,1.33,0.47,1.73,0.89c0.41,0.42,0.61,0.97,0.61,1.67m9.23,2.16c-0.54,0.25,-1.05,0.45,-1.53,0.59c-0.48,0.15,-0.99,0.22,-1.53,0.22c-0.69,0,-1.32,-0.1,-1.9,-0.3c-0.58,-0.2,-1.07,-0.51,-1.48,-0.93c-0.42,-0.41,-0.74,-0.92,-0.97,-1.55c-0.23,-0.62,-0.34,-1.36,-0.34,-2.2c0,-1.55,0.43,-2.77,1.29,-3.66c0.86,-0.89,1.99,-1.34,3.4,-1.34c0.55,0,1.09,0.08,1.62,0.23c0.53,0.15,1.01,0.34,1.45,0.57l0,1.78l-0.09,0c-0.49,-0.39,-0.99,-0.68,-1.52,-0.88c-0.52,-0.2,-1.03,-0.3,-1.52,-0.3c-0.92,0,-1.64,0.31,-2.16,0.92c-0.53,0.61,-0.79,1.51,-0.79,2.69c0,1.16,0.26,2.04,0.77,2.66c0.52,0.62,1.24,0.93,2.18,0.93c0.32,0,0.65,-0.04,0.98,-0.13c0.33,-0.09,0.64,-0.2,0.91,-0.34c0.24,-0.11,0.46,-0.24,0.66,-0.37c0.2,-0.14,0.36,-0.25,0.48,-0.34l0.09,0l0,1.77m9.36,0.59l-1.59,0l0,-1.02c-0.15,0.09,-0.34,0.23,-0.59,0.41c-0.24,0.18,-0.48,0.31,-0.7,0.41c-0.27,0.14,-0.58,0.25,-0.93,0.34c-0.35,0.09,-0.76,0.13,-1.23,0.13c-0.85,0,-1.58,-0.28,-2.18,-0.85c-0.6,-0.57,-0.9,-1.29,-0.9,-2.18c0,-0.73,0.15,-1.32,0.46,-1.77c0.31,-0.45,0.75,-0.8,1.34,-1.05c0.58,-0.26,1.28,-0.43,2.09,-0.52c0.81,-0.09,1.69,-0.16,2.62,-0.21l0,-0.23c0,-0.36,-0.07,-0.67,-0.2,-0.91c-0.13,-0.24,-0.32,-0.43,-0.55,-0.58c-0.23,-0.12,-0.5,-0.21,-0.82,-0.26c-0.32,-0.05,-0.65,-0.07,-0.99,-0.07c-0.43,0,-0.9,0.05,-1.41,0.16c-0.52,0.11,-1.05,0.27,-1.62,0.49l-0.08,0l0,-1.64c0.31,-0.08,0.77,-0.18,1.36,-0.28c0.59,-0.1,1.18,-0.16,1.75,-0.16c0.68,0,1.26,0.06,1.76,0.17c0.49,0.11,0.92,0.3,1.29,0.56c0.36,0.27,0.64,0.61,0.83,1.02c0.19,0.41,0.28,0.92,0.28,1.54l0,6.48m-1.59,-2.34l0,-2.66c-0.49,0.02,-1.07,0.06,-1.73,0.12c-0.67,0.06,-1.19,0.14,-1.58,0.26c-0.46,0.12,-0.83,0.33,-1.12,0.6c-0.29,0.28,-0.43,0.66,-0.43,1.15c0,0.54,0.16,0.95,0.49,1.23c0.33,0.28,0.83,0.41,1.51,0.41c0.57,0,1.09,-0.11,1.55,-0.33c0.46,-0.22,0.9,-0.48,1.3,-0.78m6.8,2.34l-1.61,0l0,-13.3l1.61,0l0,13.3m11.37,-4.61l-7.05,0c0,0.59,0.09,1.11,0.27,1.54c0.18,0.43,0.42,0.79,0.73,1.07c0.29,0.27,0.64,0.48,1.05,0.62c0.41,0.14,0.86,0.21,1.35,0.21c0.65,0,1.3,-0.13,1.95,-0.39c0.66,-0.26,1.12,-0.52,1.41,-0.77l0.08,0l0,1.75c-0.53,0.23,-1.08,0.42,-1.65,0.57c-0.57,0.15,-1.16,0.23,-1.77,0.23c-1.58,0,-2.82,-0.43,-3.71,-1.28c-0.89,-0.85,-1.34,-2.07,-1.34,-3.66c0,-1.56,0.42,-2.8,1.27,-3.72c0.85,-0.92,1.97,-1.37,3.37,-1.37c1.29,0,2.29,0.38,2.98,1.13c0.7,0.76,1.05,1.82,1.05,3.2l0,0.87m-1.58,-1.23c0,-0.83,-0.21,-1.48,-0.63,-1.95c-0.42,-0.46,-1.06,-0.7,-1.91,-0.7c-0.85,0,-1.54,0.25,-2.05,0.76c-0.51,0.51,-0.8,1.13,-0.87,1.88l5.47,0" fill="#000000" stroke="none" fill-opacity="1"/>
</g>
</g>
<g clip-path="url(#c8)">
<g stroke="none" stroke-width="1" fill="#dbe0ed">
<polygon points="322.2,75.31 375.55,75.31 428.9,75.31 428.9,84.11 375.55,84.11 322.2,84.11"/>
<polygon points="322.2,92.91 375.55,92.91 428.9,92.91 428.9,84.11 375.55,84.11 322.2,84.11"/>
</g>
<g stroke="#808080" stroke-width="0.62" fill="none">
<polyline fill="none" points="357.14,92.91 375.55,92.91 393.96,92.91"/>
<polyline fill="none" points="357.14,75.31 375.55,75.31 393.96,75.31"/>
</g>
<g stroke-width="0.62" fill="none">
<path d="M357.77,84.11l35.57,0"/>
</g>
<g stroke-linejoin="miter" stroke-width="0.62" transform="translate(375.55, 84.11)" fill="#bcfff2">
<path d="m0,6.25l-1.56,-3.54l-3.85,0.42l2.29,-3.12l-2.29,-3.12l3.85,0.42l1.56,-3.54l1.56,3.54l3.85,-0.42l-2.29,3.12l2.29,3.12l-3.85,-0.42l-1.56,3.54"/>
</g>
</g>
<g clip-path="url(#c0)">
<g stroke-width="1" fill="none">
<path d="m424.91,86.5l-7.05,0c0,0.59,0.09,1.11,0.27,1.54c0.18,0.43,0.42,0.79,0.73,1.07c0.29,0.27,0.64,0.48,1.05,0.62c0.41,0.14,0.86,0.21,1.35,0.21c0.65,0,1.3,-0.13,1.95,-0.39c0.66,-0.26,1.12,-0.52,1.41,-0.77l0.08,0l0,1.75c-0.53,0.23,-1.08,0.42,-1.65,0.57c-0.57,0.15,-1.16,0.23,-1.77,0.23c-1.58,0,-2.82,-0.43,-3.71,-1.28c-0.89,-0.85,-1.34,-2.07,-1.34,-3.66c0,-1.56,0.42,-2.8,1.27,-3.72c0.85,-0.92,1.97,-1.37,3.37,-1.37c1.29,0,2.29,0.38,2.98,1.13c0.7,0.76,1.05,1.82,1.05,3.2l0,0.87m-1.58,-1.23c0,-0.83,-0.21,-1.48,-0.63,-1.95c-0.42,-0.46,-1.06,-0.7,-1.91,-0.7c-0.85,0,-1.54,0.25,-2.05,0.76c-0.51,0.51,-0.8,1.13,-0.87,1.88l5.47,0m12.84,5.84l-2.03,0l-2.7,-3.67l-2.72,3.67l-1.87,0l3.72,-4.77l-3.69,-4.78l2.03,0l2.69,3.61l2.7,-3.61l1.87,0l-3.75,4.7l3.75,4.84m7.69,-0.08c-0.3,0.07,-0.63,0.14,-0.98,0.19c-0.35,0.05,-0.67,0.08,-0.95,0.08c-0.97,0,-1.71,-0.26,-2.22,-0.79c-0.51,-0.53,-0.77,-1.37,-0.77,-2.52l0,-5.06l-1.08,0l0,-1.36l1.08,0l0,-2.73l1.61,0l0,2.73l3.31,0l0,1.36l-3.31,0l0,4.34c0,0.5,0.01,0.89,0.04,1.17c0.03,0.28,0.11,0.55,0.24,0.8c0.12,0.23,0.3,0.4,0.52,0.5c0.22,0.1,0.55,0.16,1,0.16c0.26,0,0.53,-0.04,0.82,-0.12c0.29,-0.08,0.49,-0.14,0.62,-0.2l0.08,0l0,1.45m8,-7.72l-0.08,0c-0.24,-0.05,-0.47,-0.09,-0.7,-0.12c-0.22,-0.03,-0.49,-0.04,-0.8,-0.04c-0.49,0,-0.97,0.11,-1.43,0.33c-0.46,0.22,-0.91,0.5,-1.34,0.84l0,6.78l-1.61,0l0,-9.55l1.61,0l0,1.41c0.64,-0.51,1.2,-0.87,1.69,-1.09c0.49,-0.21,0.98,-0.32,1.48,-0.32c0.28,0,0.48,0.01,0.61,0.02c0.12,0.02,0.31,0.04,0.56,0.09l0,1.64m10.05,3.19l-7.05,0c0,0.59,0.09,1.11,0.27,1.54c0.18,0.43,0.42,0.79,0.73,1.07c0.29,0.27,0.64,0.48,1.05,0.62c0.41,0.14,0.86,0.21,1.35,0.21c0.65,0,1.3,-0.13,1.95,-0.39c0.66,-0.26,1.12,-0.52,1.41,-0.77l0.08,0l0,1.75c-0.53,0.23,-1.08,0.42,-1.65,0.57c-0.57,0.15,-1.16,0.23,-1.77,0.23c-1.58,0,-2.82,-0.43,-3.71,-1.28c-0.89,-0.85,-1.34,-2.07,-1.34,-3.66c0,-1.56,0.42,-2.8,1.27,-3.72c0.85,-0.92,1.97,-1.37,3.37,-1.37c1.29,0,2.29,0.38,2.98,1.13c0.7,0.76,1.05,1.82,1.05,3.2l0,0.87m-1.58,-1.23c0,-0.83,-0.21,-1.48,-0.63,-1.95c-0.42,-0.46,-1.06,-0.7,-1.91,-0.7c-0.85,0,-1.54,0.25,-2.05,0.76c-0.51,0.51,-0.8,1.13,-0.87,1.88l5.47,0m18.52,5.84l-1.61,0l0,-5.44c0,-0.41,-0.02,-0.8,-0.05,-1.18c-0.04,-0.38,-0.12,-0.68,-0.24,-0.91c-0.12,-0.25,-0.31,-0.44,-0.55,-0.56c-0.24,-0.12,-0.6,-0.19,-1.07,-0.19c-0.45,0,-0.9,0.11,-1.34,0.34c-0.45,0.22,-0.9,0.51,-1.36,0.87c0.02,0.12,0.04,0.28,0.05,0.45c0.01,0.18,0.02,0.35,0.02,0.52l0,6.11l-1.61,0l0,-5.44c0,-0.42,-0.02,-0.82,-0.05,-1.2c-0.04,-0.38,-0.11,-0.68,-0.23,-0.91c-0.14,-0.24,-0.33,-0.42,-0.57,-0.55c-0.24,-0.12,-0.6,-0.19,-1.05,-0.19c-0.44,0,-0.88,0.11,-1.32,0.33c-0.44,0.22,-0.88,0.49,-1.32,0.83l0,7.12l-1.61,0l0,-9.55l1.61,0l0,1.06c0.5,-0.42,1,-0.74,1.5,-0.98c0.5,-0.23,1.03,-0.35,1.59,-0.35c0.65,0,1.2,0.14,1.65,0.41c0.45,0.28,0.79,0.65,1.02,1.13c0.65,-0.54,1.24,-0.93,1.77,-1.18c0.54,-0.24,1.11,-0.37,1.71,-0.37c1.05,0,1.83,0.32,2.33,0.95c0.5,0.64,0.75,1.53,0.75,2.67l0,6.19m12.06,-4.61l-7.05,0c0,0.59,0.09,1.11,0.27,1.54c0.18,0.43,0.42,0.79,0.73,1.07c0.29,0.27,0.64,0.48,1.05,0.62c0.41,0.14,0.86,0.21,1.35,0.21c0.65,0,1.3,-0.13,1.95,-0.39c0.66,-0.26,1.12,-0.52,1.41,-0.77l0.08,0l0,1.75c-0.53,0.23,-1.08,0.42,-1.65,0.57c-0.57,0.15,-1.16,0.23,-1.77,0.23c-1.58,0,-2.82,-0.43,-3.71,-1.28c-0.89,-0.85,-1.34,-2.07,-1.34,-3.66c0,-1.56,0.42,-2.8,1.27,-3.72c0.85,-0.92,1.97,-1.37,3.37,-1.37c1.29,0,2.29,0.38,2.98,1.13c0.7,0.76,1.05,1.82,1.05,3.2l0,0.87m-1.58,-1.23c0,-0.83,-0.21,-1.48,-0.63,-1.95c-0.42,-0.46,-1.06,-0.7,-1.91,-0.7c-0.85,0,-1.54,0.25,-2.05,0.76c-0.51,0.51,-0.8,1.13,-0.87,1.88l5.47,0m11.41,3.09c0,0.87,-0.36,1.59,-1.09,2.15c-0.72,0.56,-1.71,0.84,-2.96,0.84c-0.7,0,-1.34,-0.09,-1.94,-0.26c-0.59,-0.17,-1.09,-0.36,-1.48,-0.55l0,-1.8l0.09,0c0.5,0.39,1.06,0.69,1.69,0.91c0.62,0.22,1.22,0.34,1.78,0.34c0.71,0,1.26,-0.11,1.66,-0.34c0.4,-0.23,0.6,-0.59,0.6,-1.08c0,-0.37,-0.11,-0.66,-0.33,-0.86c-0.22,-0.19,-0.64,-0.35,-1.25,-0.48c-0.23,-0.05,-0.53,-0.11,-0.89,-0.18c-0.36,-0.07,-0.7,-0.14,-1,-0.23c-0.84,-0.22,-1.44,-0.54,-1.79,-0.98c-0.35,-0.43,-0.52,-0.96,-0.52,-1.59c0,-0.4,0.08,-0.77,0.24,-1.12c0.16,-0.35,0.41,-0.66,0.74,-0.93c0.31,-0.27,0.72,-0.48,1.21,-0.64c0.49,-0.16,1.05,-0.23,1.66,-0.23c0.56,0,1.14,0.07,1.72,0.21c0.58,0.14,1.07,0.31,1.47,0.51l0,1.72l-0.09,0c-0.41,-0.3,-0.9,-0.56,-1.49,-0.77c-0.59,-0.21,-1.16,-0.31,-1.73,-0.31c-0.58,0,-1.08,0.11,-1.48,0.34c-0.41,0.23,-0.61,0.56,-0.61,1c0,0.4,0.12,0.69,0.36,0.89c0.24,0.2,0.63,0.36,1.17,0.48c0.29,0.07,0.62,0.14,0.99,0.21c0.37,0.07,0.67,0.13,0.91,0.18c0.75,0.18,1.33,0.47,1.73,0.89c0.41,0.42,0.61,0.97,0.61,1.67" fill="#000000" stroke="none" fill-opacity="1"/>
</g>
</g>
<g clip-path="url(#c9)">
<g stroke-width="0.62" fill="none">
<path d="M375.55,106.11l0,0"/>
<path d="M375.55,106.11l0,0"/>
<path d="M357.77,106.11l35.57,0"/>
</g>
<g stroke-linejoin="miter" stroke-width="0.62" transform="translate(375.55, 106.11)" fill="#c7b266">
<path d="m7.5,0c0,4.14,-3.36,7.5,-7.5,7.5c-4.14,0,-7.5,-3.36,-7.5,-7.5c0,-4.14,3.36,-7.5,7.5,-7.5c4.14,0,7.5,3.36,7.5,7.5"/>
</g>
</g>
<g clip-path="url(#c0)">
<g stroke-width="1" fill="none">
<path d="m421.86,113.03c-0.3,0.07,-0.63,0.14,-0.98,0.19c-0.35,0.05,-0.67,0.08,-0.95,0.08c-0.97,0,-1.71,-0.26,-2.22,-0.79c-0.51,-0.53,-0.77,-1.37,-0.77,-2.52l0,-5.06l-1.08,0l0,-1.36l1.08,0l0,-2.73l1.61,0l0,2.73l3.31,0l0,1.36l-3.31,0l0,4.34c0,0.5,0.01,0.89,0.04,1.17c0.03,0.28,0.11,0.55,0.24,0.8c0.12,0.23,0.3,0.4,0.52,0.5c0.22,0.1,0.55,0.16,1,0.16c0.26,0,0.53,-0.04,0.82,-0.12c0.29,-0.08,0.49,-0.14,0.62,-0.2l0.08,0l0,1.45m10.03,0.08l-1.61,0l0,-5.44c0,-0.44,-0.03,-0.85,-0.08,-1.23c-0.05,-0.39,-0.15,-0.69,-0.28,-0.91c-0.14,-0.24,-0.34,-0.42,-0.61,-0.53c-0.27,-0.11,-0.62,-0.17,-1.05,-0.17c-0.44,0,-0.9,0.11,-1.37,0.33c-0.48,0.22,-0.94,0.49,-1.37,0.83l0,7.12l-1.61,0l0,-13.3l1.61,0l0,4.81c0.5,-0.42,1.02,-0.74,1.55,-0.98c0.54,-0.23,1.09,-0.35,1.65,-0.35c1.03,0,1.82,0.31,2.36,0.93c0.54,0.62,0.81,1.52,0.81,2.7l0,6.19m4.75,-11.14l-1.81,0l0,-1.67l1.81,0l0,1.67m-0.11,11.14l-1.61,0l0,-9.55l1.61,0l0,9.55m11.36,0l-1.61,0l0,-5.44c0,-0.44,-0.03,-0.85,-0.08,-1.23c-0.05,-0.39,-0.15,-0.69,-0.28,-0.91c-0.14,-0.24,-0.34,-0.42,-0.61,-0.53c-0.27,-0.11,-0.62,-0.17,-1.05,-0.17c-0.44,0,-0.9,0.11,-1.37,0.33c-0.48,0.22,-0.94,0.49,-1.37,0.83l0,7.12l-1.61,0l0,-9.55l1.61,0l0,1.06c0.5,-0.42,1.02,-0.74,1.55,-0.98c0.54,-0.23,1.09,-0.35,1.65,-0.35c1.03,0,1.82,0.31,2.36,0.93c0.54,0.62,0.81,1.52,0.81,2.7l0,6.19" fill="#000000" stroke="none" fill-opacity="1"/>
</g>
</g>
<g clip-path="url(#c1)">
<g stroke="none" stroke-width="1" fill="#dbe0ed">
<polygon points="60.46,377.2 89.09,389.79 117.72,413.66 146.35,280.57 174.98,374.27 203.62,405.92 232.25,403.4 260.88,413.54 289.51,367.04 318.14,406.48 346.77,401.66 375.4,397.52 404.03,341.48 432.66,451.94 461.29,463.2 489.92,362.67 518.55,463.75 547.18,473.03 575.81,397.03 604.44,446.75 604.44,371.49 575.81,365.15 547.18,383.17 518.55,418.78 489.92,335.14 461.29,416.37 432.66,416.77 404.03,323.75 375.4,376.12 346.77,396.29 318.14,378.41 289.51,346.63 260.88,383.49 232.25,384.01 203.62,379.79 174.98,342.75 146.35,218.65 117.72,405.2 89.09,313.64 60.46,370.48"/>
<polygon points="60.46,363.77 89.09,237.49 117.72,396.74 146.35,156.72 174.98,311.23 203.62,353.66 232.25,364.63 260.88,353.44 289.51,326.23 318.14,350.34 346.77,390.91 375.4,354.73 404.03,306.03 432.66,381.6 461.29,369.54 489.92,307.62 518.55,373.81 547.18,293.31 575.81,333.28 604.44,296.23 604.44,371.49 575.81,365.15 547.18,383.17 518.55,418.78 489.92,335.14 461.29,416.37 432.66,416.77 404.03,323.75 375.4,376.12 346.77,396.29 318.14,378.41 289.51,346.63 260.88,383.49 232.25,384.01 203.62,379.79 174.98,342.75 146.35,218.65 117.72,405.2 89.09,313.64 60.46,370.48"/>
</g>
<g stroke-width="0.62" stroke="#808080" stroke-linecap="butt" fill="none">
<polyline fill="none" points="60.46,363.77 89.09,237.49 117.72,396.74 146.35,156.72 174.98,311.23 203.62,353.66 232.25,364.63 260.88,353.44 289.51,326.23 318.14,350.34 346.77,390.91 375.4,354.73 404.03,306.03 432.66,381.6 461.29,369.54 489.92,307.62 518.55,373.81 547.18,293.31 575.81,333.28 604.44,296.23"/>
<polyline fill="none" points="60.46,377.2 89.09,389.79 117.72,413.66 146.35,280.57 174.98,374.27 203.62,405.92 232.25,403.4 260.88,413.54 289.51,367.04 318.14,406.48 346.77,401.66 375.4,397.52 404.03,341.48 432.66,451.94 461.29,463.2 489.92,362.67 518.55,463.75 547.18,473.03 575.81,397.03 604.44,446.75"/>
</g>
<g stroke-width="0.62" fill="none">
<polyline fill="none" points="60.46,370.48 89.09,313.64 117.72,405.2 146.35,218.65 174.98,342.75 203.62,379.79 232.25,384.01 260.88,383.49 289.51,346.63 318.14,378.41 346.77,396.29 375.4,376.12 404.03,323.75 432.66,416.77 461.29,416.37 489.92,335.14 518.55,418.78 547.18,383.17 575.81,365.15 604.44,371.49"/>
</g>
<g stroke-linejoin="miter" stroke-width="0.62" transform="translate(60.46, 370.48)" fill="#bcfff2">
<path d="m0,6.25l-1.56,-3.54l-3.85,0.42l2.29,-3.12l-2.29,-3.12l3.85,0.42l1.56,-3.54l1.56,3.54l3.85,-0.42l-2.29,3.12l2.29,3.12l-3.85,-0.42l-1.56,3.54"/>
</g>
<g stroke-linejoin="miter" stroke-width="0.62" transform="translate(89.09, 313.64)" fill="#bcfff2">
<path d="m0,6.25l-1.56,-3.54l-3.85,0.42l2.29,-3.12l-2.29,-3.12l3.85,0.42l1.56,-3.54l1.56,3.54l3.85,-0.42l-2.29,3.12l2.29,3.12l-3.85,-0.42l-1.56,3.54"/>
</g>
<g stroke-linejoin="miter" stroke-width="0.62" transform="translate(117.72, 405.2)" fill="#bcfff2">
<path d="m0,6.25l-1.56,-3.54l-3.85,0.42l2.29,-3.12l-2.29,-3.12l3.85,0.42l1.56,-3.54l1.56,3.54l3.85,-0.42l-2.29,3.12l2.29,3.12l-3.85,-0.42l-1.56,3.54"/>
</g>
<g stroke-linejoin="miter" stroke-width="0.62" transform="translate(146.35, 218.65)" fill="#bcfff2">
<path d="m0,6.25l-1.56,-3.54l-3.85,0.42l2.29,-3.12l-2.29,-3.12l3.85,0.42l1.56,-3.54l1.56,3.54l3.85,-0.42l-2.29,3.12l2.29,3.12l-3.85,-0.42l-1.56,3.54"/>
</g>
<g stroke-linejoin="miter" stroke-width="0.62" transform="translate(174.98, 342.75)" fill="#bcfff2">
<path d="m0,6.25l-1.56,-3.54l-3.85,0.42l2.29,-3.12l-2.29,-3.12l3.85,0.42l1.56,-3.54l1.56,3.54l3.85,-0.42l-2.29,3.12l2.29,3.12l-3.85,-0.42l-1.56,3.54"/>
</g>
<g stroke-linejoin="miter" stroke-width="0.62" transform="translate(203.62, 379.79)" fill="#bcfff2">
<path d="m0,6.25l-1.56,-3.54l-3.85,0.42l2.29,-3.12l-2.29,-3.12l3.85,0.42l1.56,-3.54l1.56,3.54l3.85,-0.42l-2.29,3.12l2.29,3.12l-3.85,-0.42l-1.56,3.54"/>
</g>
<g stroke-linejoin="miter" stroke-width="0.62" transform="translate(232.25, 384.01)" fill="#bcfff2">
<path d="m0,6.25l-1.56,-3.54l-3.85,0.42l2.29,-3.12l-2.29,-3.12l3.85,0.42l1.56,-3.54l1.56,3.54l3.85,-0.42l-2.29,3.12l2.29,3.12l-3.85,-0.42l-1.56,3.54"/>
</g>
<g stroke-linejoin="miter" stroke-width="0.62" transform="translate(260.88, 383.49)" fill="#bcfff2">
<path d="m0,6.25l-1.56,-3.54l-3.85,0.42l2.29,-3.12l-2.29,-3.12l3.85,0.42l1.56,-3.54l1.56,3.54l3.85,-0.42l-2.29,3.12l2.29,3.12l-3.85,-0.42l-1.56,3.54"/>
</g>
<g stroke-linejoin="miter" stroke-width="0.62" transform="translate(289.51, 346.63)" fill="#bcfff2">
<path d="m0,6.25l-1.56,-3.54l-3.85,0.42l2.29,-3.12l-2.29,-3.12l3.85,0.42l1.56,-3.54l1.56,3.54l3.85,-0.42l-2.29,3.12l2.29,3.12l-3.85,-0.42l-1.56,3.54"/>
</g>
<g stroke-linejoin="miter" stroke-width="0.62" transform="translate(318.14, 378.41)" fill="#bcfff2">
<path d="m0,6.25l-1.56,-3.54l-3.85,0.42l2.29,-3.12l-2.29,-3.12l3.85,0.42l1.56,-3.54l1.56,3.54l3.85,-0.42l-2.29,3.12l2.29,3.12l-3.85,-0.42l-1.56,3.54"/>
</g>
<g stroke-linejoin="miter" stroke-width="0.62" transform="translate(346.77, 396.29)" fill="#bcfff2">
<path d="m0,6.25l-1.56,-3.54l-3.85,0.42l2.29,-3.12l-2.29,-3.12l3.85,0.42l1.56,-3.54l1.56,3.54l3.85,-0.42l-2.29,3.12l2.29,3.12l-3.85,-0.42l-1.56,3.54"/>
</g>
<g stroke-linejoin="miter" stroke-width="0.62" transform="translate(375.4, 376.12)" fill="#bcfff2">
<path d="m0,6.25l-1.56,-3.54l-3.85,0.42l2.29,-3.12l-2.29,-3.12l3.85,0.42l1.56,-3.54l1.56,3.54l3.85,-0.42l-2.29,3.12l2.29,3.12l-3.85,-0.42l-1.56,3.54"/>
</g>
<g stroke-linejoin="miter" stroke-width="0.62" transform="translate(404.03, 323.75)" fill="#bcfff2">
<path d="m0,6.25l-1.56,-3.54l-3.85,0.42l2.29,-3.12l-2.29,-3.12l3.85,0.42l1.56,-3.54l1.56,3.54l3.85,-0.42l-2.29,3.12l2.29,3.12l-3.85,-0.42l-1.56,3.54"/>
</g>
<g stroke-linejoin="miter" stroke-width="0.62" transform="translate(432.66, 416.77)" fill="#bcfff2">
<path d="m0,6.25l-1.56,-3.54l-3.85,0.42l2.29,-3.12l-2.29,-3.12l3.85,0.42l1.56,-3.54l1.56,3.54l3.85,-0.42l-2.29,3.12l2.29,3.12l-3.85,-0.42l-1.56,3.54"/>
</g>
<g stroke-linejoin="miter" stroke-width="0.62" transform="translate(461.29, 416.37)" fill="#bcfff2">
<path d="m0,6.25l-1.56,-3.54l-3.85,0.42l2.29,-3.12l-2.29,-3.12l3.85,0.42l1.56,-3.54l1.56,3.54l3.85,-0.42l-2.29,3.12l2.29,3.12l-3.85,-0.42l-1.56,3.54"/>
</g>
<g stroke-linejoin="miter" stroke-width="0.62" transform="translate(489.92, 335.14)" fill="#bcfff2">
<path d="m0,6.25l-1.56,-3.54l-3.85,0.42l2.29,-3.12l-2.29,-3.12l3.85,0.42l1.56,-3.54l1.56,3.54l3.85,-0.42l-2.29,3.12l2.29,3.12l-3.85,-0.42l-1.56,3.54"/>
</g>
<g stroke-linejoin="miter" stroke-width="0.62" transform="translate(518.55, 418.78)" fill="#bcfff2">
<path d="m0,6.25l-1.56,-3.54l-3.85,0.42l2.29,-3.12l-2.29,-3.12l3.85,0.42l1.56,-3.54l1.56,3.54l3.85,-0.42l-2.29,3.12l2.29,3.12l-3.85,-0.42l-1.56,3.54"/>
</g>
<g stroke-linejoin="miter" stroke-width="0.62" transform="translate(547.18, 383.17)" fill="#bcfff2">
<path d="m0,6.25l-1.56,-3.54l-3.85,0.42l2.29,-3.12l-2.29,-3.12l3.85,0.42l1.56,-3.54l1.56,3.54l3.85,-0.42l-2.29,3.12l2.29,3.12l-3.85,-0.42l-1.56,3.54"/>
</g>
<g stroke-linejoin="miter" stroke-width="0.62" transform="translate(575.81, 365.15)" fill="#bcfff2">
<path d="m0,6.25l-1.56,-3.54l-3.85,0.42l2.29,-3.12l-2.29,-3.12l3.85,0.42l1.56,-3.54l1.56,3.54l3.85,-0.42l-2.29,3.12l2.29,3.12l-3.85,-0.42l-1.56,3.54"/>
</g>
<g stroke-linejoin="miter" stroke-width="0.62" transform="translate(604.44, 371.49)" fill="#bcfff2">
<path d="m0,6.25l-1.56,-3.54l-3.85,0.42l2.29,-3.12l-2.29,-3.12l3.85,0.42l1.56,-3.54l1.56,3.54l3.85,-0.42l-2.29,3.12l2.29,3.12l-3.85,-0.42l-1.56,3.54"/>
</g>
</g>
<g clip-path="url(#c0)">
<g stroke-width="1" fill="none">
<path d="m153.86,513.03c0,0.99,-0.11,1.85,-0.33,2.59c-0.22,0.73,-0.57,1.35,-1.06,1.84c-0.47,0.46,-1.02,0.79,-1.65,1.01c-0.63,0.21,-1.36,0.32,-2.2,0.32c-0.85,0,-1.6,-0.11,-2.23,-0.34c-0.64,-0.22,-1.17,-0.55,-1.61,-0.99c-0.49,-0.5,-0.84,-1.1,-1.06,-1.81c-0.22,-0.71,-0.33,-1.58,-0.33,-2.61l0,-8.16l1.81,0l0,8.23c0,0.74,0.05,1.32,0.16,1.75c0.1,0.43,0.28,0.82,0.52,1.17c0.26,0.4,0.62,0.7,1.09,0.9c0.46,0.2,1.02,0.3,1.66,0.3c0.66,0,1.21,-0.1,1.66,-0.3c0.45,-0.2,0.82,-0.5,1.1,-0.9c0.24,-0.35,0.41,-0.76,0.51,-1.2c0.1,-0.45,0.15,-1.01,0.15,-1.67l0,-8.28l1.81,0l0,8.16m10.91,2.52c0,0.94,-0.39,1.71,-1.16,2.3c-0.77,0.6,-1.83,0.9,-3.17,0.9c-0.75,0,-1.44,-0.09,-2.08,-0.27c-0.64,-0.18,-1.17,-0.38,-1.59,-0.59l0,-1.94l0.09,0c0.54,0.41,1.15,0.73,1.81,0.98c0.67,0.24,1.31,0.37,1.92,0.37c0.75,0,1.34,-0.12,1.77,-0.37c0.43,-0.24,0.64,-0.63,0.64,-1.16c0,-0.4,-0.11,-0.7,-0.34,-0.91c-0.23,-0.21,-0.67,-0.39,-1.33,-0.53c-0.25,-0.05,-0.57,-0.12,-0.96,-0.2c-0.39,-0.08,-0.75,-0.16,-1.07,-0.24c-0.91,-0.24,-1.55,-0.59,-1.92,-1.05c-0.37,-0.46,-0.56,-1.03,-0.56,-1.7c0,-0.42,0.09,-0.81,0.27,-1.18c0.18,-0.37,0.44,-0.71,0.8,-1.01c0.34,-0.28,0.78,-0.51,1.3,-0.67c0.53,-0.17,1.12,-0.25,1.77,-0.25c0.6,0,1.22,0.07,1.84,0.22c0.62,0.15,1.15,0.33,1.56,0.55l0,1.84l-0.09,0c-0.44,-0.32,-0.97,-0.6,-1.6,-0.82c-0.63,-0.22,-1.25,-0.34,-1.85,-0.34c-0.62,0,-1.15,0.12,-1.59,0.36c-0.43,0.24,-0.65,0.6,-0.65,1.08c0,0.42,0.13,0.73,0.39,0.95c0.26,0.21,0.68,0.38,1.25,0.52c0.31,0.07,0.67,0.15,1.06,0.22c0.4,0.07,0.72,0.14,0.98,0.2c0.8,0.19,1.42,0.5,1.84,0.94c0.44,0.46,0.66,1.06,0.66,1.8m4.55,-8.98l-1.94,0l0,-1.78l1.94,0l0,1.78m-0.11,11.94l-1.72,0l0,-10.22l1.72,0l0,10.22m12.81,0l-1.72,0l0,-5.83c0,-0.47,-0.03,-0.91,-0.09,-1.32c-0.06,-0.41,-0.16,-0.73,-0.3,-0.96c-0.16,-0.26,-0.38,-0.45,-0.66,-0.58c-0.29,-0.12,-0.66,-0.19,-1.12,-0.19c-0.47,0,-0.96,0.12,-1.47,0.35c-0.51,0.23,-1,0.53,-1.47,0.88l0,7.64l-1.73,0l0,-10.22l1.73,0l0,1.12c0.53,-0.45,1.08,-0.8,1.66,-1.05c0.57,-0.25,1.16,-0.37,1.77,-0.37c1.1,0,1.95,0.33,2.53,1c0.58,0.67,0.87,1.62,0.87,2.87l0,6.64m11.73,-1.16c0,1.73,-0.39,3,-1.18,3.81c-0.79,0.81,-2,1.22,-3.63,1.22c-0.54,0,-1.07,-0.04,-1.59,-0.12c-0.52,-0.08,-1.02,-0.18,-1.52,-0.32l0,-1.77l0.09,0c0.28,0.11,0.73,0.25,1.34,0.41c0.61,0.16,1.22,0.24,1.82,0.24c0.59,0,1.08,-0.07,1.47,-0.21c0.39,-0.14,0.68,-0.34,0.89,-0.59c0.22,-0.24,0.37,-0.53,0.46,-0.86c0.09,-0.33,0.13,-0.71,0.13,-1.12l0,-0.94c-0.52,0.42,-1.02,0.73,-1.49,0.93c-0.47,0.2,-1.08,0.3,-1.8,0.3c-1.22,0,-2.19,-0.44,-2.91,-1.32c-0.72,-0.88,-1.08,-2.12,-1.08,-3.73c0,-0.89,0.12,-1.65,0.37,-2.28c0.25,-0.64,0.59,-1.19,1.02,-1.66c0.4,-0.43,0.88,-0.76,1.45,-1.01c0.57,-0.24,1.13,-0.37,1.7,-0.37c0.59,0,1.09,0.06,1.48,0.18c0.4,0.12,0.82,0.3,1.27,0.55l0.11,-0.44l1.61,0l0,9.06m-1.72,-1.66l0,-5.58c-0.46,-0.21,-0.88,-0.36,-1.27,-0.45c-0.39,-0.09,-0.78,-0.13,-1.18,-0.13c-0.95,0,-1.69,0.32,-2.23,0.95c-0.54,0.64,-0.81,1.56,-0.81,2.77c0,1.15,0.2,2.02,0.6,2.61c0.4,0.59,1.07,0.89,2.01,0.89c0.5,0,1,-0.1,1.51,-0.29c0.51,-0.19,0.97,-0.45,1.38,-0.77m20.72,2.81l-1.72,0l0,-1.08c-0.49,0.43,-1,0.76,-1.54,1c-0.54,0.24,-1.12,0.36,-1.76,0.36c-1.22,0,-2.19,-0.47,-2.91,-1.41c-0.72,-0.94,-1.08,-2.24,-1.08,-3.91c0,-0.86,0.12,-1.64,0.37,-2.32c0.25,-0.68,0.58,-1.26,1,-1.73c0.42,-0.47,0.9,-0.83,1.45,-1.07c0.55,-0.24,1.12,-0.37,1.72,-0.37c0.53,0,1.01,0.06,1.42,0.17c0.42,0.11,0.85,0.29,1.31,0.53l0,-4.44l1.72,0l0,14.25m-1.72,-2.52l0,-5.87c-0.46,-0.21,-0.87,-0.35,-1.24,-0.43c-0.37,-0.08,-0.77,-0.12,-1.2,-0.12c-0.97,0,-1.72,0.34,-2.26,1.01c-0.54,0.67,-0.8,1.62,-0.8,2.85c0,1.22,0.21,2.14,0.62,2.77c0.42,0.63,1.08,0.95,2,0.95c0.48,0,0.97,-0.11,1.48,-0.32c0.51,-0.21,0.97,-0.49,1.4,-0.84m13.37,2.52l-1.72,0l0,-1.09c-0.15,0.1,-0.35,0.25,-0.61,0.44c-0.26,0.19,-0.51,0.34,-0.75,0.45c-0.29,0.14,-0.62,0.25,-0.99,0.34c-0.37,0.09,-0.81,0.14,-1.32,0.14c-0.92,0,-1.7,-0.3,-2.34,-0.91c-0.64,-0.61,-0.96,-1.39,-0.96,-2.34c0,-0.77,0.17,-1.4,0.5,-1.87c0.33,-0.48,0.81,-0.86,1.42,-1.14c0.62,-0.27,1.37,-0.46,2.24,-0.55c0.87,-0.1,1.8,-0.17,2.8,-0.21l0,-0.27c0,-0.4,-0.07,-0.72,-0.2,-0.98c-0.14,-0.26,-0.33,-0.46,-0.59,-0.6c-0.24,-0.15,-0.53,-0.24,-0.87,-0.29c-0.34,-0.05,-0.7,-0.07,-1.06,-0.07c-0.46,0,-0.96,0.06,-1.52,0.18c-0.55,0.12,-1.12,0.29,-1.72,0.51l-0.09,0l0,-1.73c0.33,-0.09,0.82,-0.2,1.45,-0.3c0.64,-0.11,1.26,-0.16,1.87,-0.16c0.72,0,1.35,0.06,1.88,0.18c0.54,0.12,1,0.32,1.38,0.6c0.39,0.28,0.68,0.65,0.88,1.09c0.2,0.45,0.3,1,0.3,1.66l0,6.94m-1.72,-2.52l0,-2.84c-0.52,0.03,-1.14,0.08,-1.84,0.13c-0.71,0.06,-1.27,0.14,-1.69,0.26c-0.5,0.15,-0.9,0.37,-1.2,0.66c-0.3,0.3,-0.45,0.71,-0.45,1.23c0,0.58,0.18,1.02,0.53,1.32c0.35,0.3,0.89,0.45,1.61,0.45c0.6,0,1.16,-0.12,1.66,-0.35c0.5,-0.23,0.96,-0.52,1.39,-0.85m10.08,2.42c-0.32,0.08,-0.67,0.15,-1.05,0.21c-0.38,0.06,-0.72,0.09,-1.02,0.09c-1.04,0,-1.83,-0.28,-2.37,-0.84c-0.54,-0.56,-0.81,-1.46,-0.81,-2.7l0,-5.44l-1.17,0l0,-1.44l1.17,0l0,-2.95l1.72,0l0,2.95l3.55,0l0,1.44l-3.55,0l0,4.66c0,0.54,0.01,0.96,0.04,1.27c0.03,0.3,0.11,0.58,0.26,0.84c0.14,0.25,0.32,0.43,0.55,0.54c0.23,0.11,0.59,0.16,1.07,0.16c0.28,0,0.57,-0.04,0.87,-0.12c0.3,-0.08,0.52,-0.15,0.66,-0.2l0.09,0l0,1.55m9.64,0.09l-1.72,0l0,-1.09c-0.15,0.1,-0.35,0.25,-0.61,0.44c-0.26,0.19,-0.51,0.34,-0.75,0.45c-0.29,0.14,-0.62,0.25,-0.99,0.34c-0.37,0.09,-0.81,0.14,-1.32,0.14c-0.92,0,-1.7,-0.3,-2.34,-0.91c-0.64,-0.61,-0.96,-1.39,-0.96,-2.34c0,-0.77,0.17,-1.4,0.5,-1.87c0.33,-0.48,0.81,-0.86,1.42,-1.14c0.62,-0.27,1.37,-0.46,2.24,-0.55c0.87,-0.1,1.8,-0.17,2.8,-0.21l0,-0.27c0,-0.4,-0.07,-0.72,-0.2,-0.98c-0.14,-0.26,-0.33,-0.46,-0.59,-0.6c-0.24,-0.15,-0.53,-0.24,-0.87,-0.29c-0.34,-0.05,-0.7,-0.07,-1.06,-0.07c-0.46,0,-0.96,0.06,-1.52,0.18c-0.55,0.12,-1.12,0.29,-1.72,0.51l-0.09,0l0,-1.73c0.33,-0.09,0.82,-0.2,1.45,-0.3c0.64,-0.11,1.26,-0.16,1.87,-0.16c0.72,0,1.35,0.06,1.88,0.18c0.54,0.12,1,0.32,1.38,0.6c0.39,0.28,0.68,0.65,0.88,1.09c0.2,0.45,0.3,1,0.3,1.66l0,6.94m-1.72,-2.52l0,-2.84c-0.52,0.03,-1.14,0.08,-1.84,0.13c-0.71,0.06,-1.27,0.14,-1.69,0.26c-0.5,0.15,-0.9,0.37,-1.2,0.66c-0.3,0.3,-0.45,0.71,-0.45,1.23c0,0.58,0.18,1.02,0.53,1.32c0.35,0.3,0.89,0.45,1.61,0.45c0.6,0,1.16,-0.12,1.66,-0.35c0.5,-0.23,0.96,-0.52,1.39,-0.85m20.48,-2.59c0,1.67,-0.43,2.98,-1.28,3.95c-0.85,0.96,-2,1.45,-3.44,1.45c-1.44,0,-2.58,-0.48,-3.44,-1.45c-0.85,-0.96,-1.28,-2.28,-1.28,-3.95c0,-1.67,0.43,-2.98,1.28,-3.95c0.85,-0.97,2,-1.45,3.44,-1.45c1.44,0,2.58,0.48,3.44,1.45c0.85,0.97,1.28,2.29,1.28,3.95m-1.77,0c0,-1.32,-0.26,-2.31,-0.78,-2.95c-0.52,-0.65,-1.24,-0.97,-2.17,-0.97c-0.93,0,-1.65,0.32,-2.16,0.97c-0.52,0.65,-0.77,1.63,-0.77,2.95c0,1.28,0.26,2.25,0.77,2.91c0.52,0.66,1.24,0.99,2.16,0.99c0.92,0,1.64,-0.33,2.16,-0.98c0.53,-0.66,0.79,-1.63,0.79,-2.92m14.05,-0.12c0,0.83,-0.12,1.59,-0.35,2.27c-0.23,0.68,-0.57,1.26,-1.01,1.74c-0.41,0.45,-0.88,0.8,-1.42,1.05c-0.54,0.25,-1.12,0.37,-1.73,0.37c-0.53,0,-1.01,-0.06,-1.45,-0.17c-0.43,-0.11,-0.87,-0.3,-1.3,-0.55l0,4.28l-1.73,0l0,-13.98l1.73,0l0,1.06c0.46,-0.39,0.97,-0.71,1.54,-0.97c0.57,-0.26,1.17,-0.39,1.82,-0.39c1.24,0,2.2,0.47,2.88,1.4c0.68,0.93,1.02,2.23,1.02,3.88m-1.77,0.05c0,-1.24,-0.21,-2.16,-0.63,-2.77c-0.42,-0.61,-1.07,-0.91,-1.95,-0.91c-0.49,0,-0.98,0.11,-1.48,0.32c-0.5,0.21,-0.98,0.5,-1.44,0.85l0,5.8c0.48,0.22,0.9,0.37,1.25,0.45c0.35,0.08,0.76,0.12,1.2,0.12c0.96,0,1.71,-0.32,2.24,-0.97c0.54,-0.65,0.8,-1.6,0.8,-2.87m13.33,0.25l-7.53,0c0,0.64,0.09,1.18,0.28,1.65c0.19,0.46,0.45,0.85,0.78,1.15c0.31,0.29,0.69,0.51,1.12,0.66c0.44,0.15,0.92,0.22,1.45,0.22c0.69,0,1.39,-0.14,2.09,-0.41c0.71,-0.28,1.21,-0.55,1.52,-0.82l0.08,0l0,1.87c-0.57,0.25,-1.16,0.46,-1.77,0.62c-0.6,0.16,-1.24,0.24,-1.91,0.24c-1.7,0,-3.02,-0.46,-3.98,-1.37c-0.95,-0.92,-1.43,-2.22,-1.43,-3.91c0,-1.68,0.46,-3.01,1.37,-3.99c0.91,-0.98,2.11,-1.48,3.6,-1.48c1.39,0,2.45,0.4,3.2,1.21c0.74,0.81,1.12,1.95,1.12,3.43l0,0.94m-1.67,-1.31c-0.01,-0.91,-0.24,-1.61,-0.69,-2.1c-0.45,-0.49,-1.13,-0.74,-2.05,-0.74c-0.92,0,-1.65,0.27,-2.2,0.81c-0.55,0.54,-0.86,1.22,-0.93,2.03l5.86,0m10.5,-2.09l-0.09,0c-0.26,-0.06,-0.51,-0.11,-0.75,-0.14c-0.24,-0.03,-0.53,-0.05,-0.86,-0.05c-0.53,0,-1.04,0.12,-1.53,0.36c-0.49,0.24,-0.96,0.54,-1.42,0.91l0,7.27l-1.73,0l0,-10.22l1.73,0l0,1.5c0.68,-0.55,1.28,-0.94,1.8,-1.16c0.52,-0.22,1.06,-0.34,1.61,-0.34c0.29,0,0.51,0.01,0.64,0.02c0.14,0.01,0.34,0.04,0.61,0.09l0,1.77m9.56,8.34l-1.72,0l0,-1.09c-0.15,0.1,-0.35,0.25,-0.61,0.44c-0.26,0.19,-0.51,0.34,-0.75,0.45c-0.29,0.14,-0.62,0.25,-0.99,0.34c-0.37,0.09,-0.81,0.14,-1.32,0.14c-0.92,0,-1.7,-0.3,-2.34,-0.91c-0.64,-0.61,-0.96,-1.39,-0.96,-2.34c0,-0.77,0.17,-1.4,0.5,-1.87c0.33,-0.48,0.81,-0.86,1.42,-1.14c0.62,-0.27,1.37,-0.46,2.24,-0.55c0.87,-0.1,1.8,-0.17,2.8,-0.21l0,-0.27c0,-0.4,-0.07,-0.72,-0.2,-0.98c-0.14,-0.26,-0.33,-0.46,-0.59,-0.6c-0.24,-0.15,-0.53,-0.24,-0.87,-0.29c-0.34,-0.05,-0.7,-0.07,-1.06,-0.07c-0.46,0,-0.96,0.06,-1.52,0.18c-0.55,0.12,-1.12,0.29,-1.72,0.51l-0.09,0l0,-1.73c0.33,-0.09,0.82,-0.2,1.45,-0.3c0.64,-0.11,1.26,-0.16,1.87,-0.16c0.72,0,1.35,0.06,1.88,0.18c0.54,0.12,1,0.32,1.38,0.6c0.39,0.28,0.68,0.65,0.88,1.09c0.2,0.45,0.3,1,0.3,1.66l0,6.94m-1.72,-2.52l0,-2.84c-0.52,0.03,-1.14,0.08,-1.84,0.13c-0.71,0.06,-1.27,0.14,-1.69,0.26c-0.5,0.15,-0.9,0.37,-1.2,0.66c-0.3,0.3,-0.45,0.71,-0.45,1.23c0,0.58,0.18,1.02,0.53,1.32c0.35,0.3,0.89,0.45,1.61,0.45c0.6,0,1.16,-0.12,1.66,-0.35c0.5,-0.23,0.96,-0.52,1.39,-0.85m10.08,2.42c-0.32,0.08,-0.67,0.15,-1.05,0.21c-0.38,0.06,-0.72,0.09,-1.02,0.09c-1.04,0,-1.83,-0.28,-2.37,-0.84c-0.54,-0.56,-0.81,-1.46,-0.81,-2.7l0,-5.44l-1.17,0l0,-1.44l1.17,0l0,-2.95l1.72,0l0,2.95l3.55,0l0,1.44l-3.55,0l0,4.66c0,0.54,0.01,0.96,0.04,1.27c0.03,0.3,0.11,0.58,0.26,0.84c0.14,0.25,0.32,0.43,0.55,0.54c0.23,0.11,0.59,0.16,1.07,0.16c0.28,0,0.57,-0.04,0.87,-0.12c0.3,-0.08,0.52,-0.15,0.66,-0.2l0.09,0l0,1.55m3.55,-11.84l-1.94,0l0,-1.78l1.94,0l0,1.78m-0.11,11.94l-1.72,0l0,-10.22l1.72,0l0,10.22m12.97,-5.11c0,1.67,-0.43,2.98,-1.28,3.95c-0.85,0.96,-2,1.45,-3.44,1.45c-1.44,0,-2.58,-0.48,-3.44,-1.45c-0.85,-0.96,-1.28,-2.28,-1.28,-3.95c0,-1.67,0.43,-2.98,1.28,-3.95c0.85,-0.97,2,-1.45,3.44,-1.45c1.44,0,2.58,0.48,3.44,1.45c0.85,0.97,1.28,2.29,1.28,3.95m-1.77,0c0,-1.32,-0.26,-2.31,-0.78,-2.95c-0.52,-0.65,-1.24,-0.97,-2.17,-0.97c-0.93,0,-1.65,0.32,-2.16,0.97c-0.52,0.65,-0.77,1.63,-0.77,2.95c0,1.28,0.26,2.25,0.77,2.91c0.52,0.66,1.24,0.99,2.16,0.99c0.92,0,1.64,-0.33,2.16,-0.98c0.53,-0.66,0.79,-1.63,0.79,-2.92m13.61,5.11l-1.72,0l0,-5.83c0,-0.47,-0.03,-0.91,-0.09,-1.32c-0.06,-0.41,-0.16,-0.73,-0.3,-0.96c-0.16,-0.26,-0.38,-0.45,-0.66,-0.58c-0.29,-0.12,-0.66,-0.19,-1.12,-0.19c-0.47,0,-0.96,0.12,-1.47,0.35c-0.51,0.23,-1,0.53,-1.47,0.88l0,7.64l-1.73,0l0,-10.22l1.73,0l0,1.12c0.53,-0.45,1.08,-0.8,1.66,-1.05c0.57,-0.25,1.16,-0.37,1.77,-0.37c1.1,0,1.95,0.33,2.53,1c0.58,0.67,0.87,1.62,0.87,2.87l0,6.64m10.75,-2.95c0,0.94,-0.39,1.71,-1.16,2.3c-0.77,0.6,-1.83,0.9,-3.17,0.9c-0.75,0,-1.44,-0.09,-2.08,-0.27c-0.64,-0.18,-1.17,-0.38,-1.59,-0.59l0,-1.94l0.09,0c0.54,0.41,1.15,0.73,1.81,0.98c0.67,0.24,1.31,0.37,1.92,0.37c0.75,0,1.34,-0.12,1.77,-0.37c0.43,-0.24,0.64,-0.63,0.64,-1.16c0,-0.4,-0.11,-0.7,-0.34,-0.91c-0.23,-0.21,-0.67,-0.39,-1.33,-0.53c-0.25,-0.05,-0.57,-0.12,-0.96,-0.2c-0.39,-0.08,-0.75,-0.16,-1.07,-0.24c-0.91,-0.24,-1.55,-0.59,-1.92,-1.05c-0.37,-0.46,-0.56,-1.03,-0.56,-1.7c0,-0.42,0.09,-0.81,0.27,-1.18c0.18,-0.37,0.44,-0.71,0.8,-1.01c0.34,-0.28,0.78,-0.51,1.3,-0.67c0.53,-0.17,1.12,-0.25,1.77,-0.25c0.6,0,1.22,0.07,1.84,0.22c0.62,0.15,1.15,0.33,1.56,0.55l0,1.84l-0.09,0c-0.44,-0.32,-0.97,-0.6,-1.6,-0.82c-0.63,-0.22,-1.25,-0.34,-1.85,-0.34c-0.62,0,-1.15,0.12,-1.59,0.36c-0.43,0.24,-0.65,0.6,-0.65,1.08c0,0.42,0.13,0.73,0.39,0.95c0.26,0.21,0.68,0.38,1.25,0.52c0.31,0.07,0.67,0.15,1.06,0.22c0.4,0.07,0.72,0.14,0.98,0.2c0.8,0.19,1.42,0.5,1.84,0.94c0.44,0.46,0.66,1.06,0.66,1.8m15,2.86c-0.32,0.08,-0.67,0.15,-1.05,0.21c-0.38,0.06,-0.72,0.09,-1.02,0.09c-1.04,0,-1.83,-0.28,-2.37,-0.84c-0.54,-0.56,-0.81,-1.46,-0.81,-2.7l0,-5.44l-1.17,0l0,-1.44l1.17,0l0,-2.95l1.72,0l0,2.95l3.55,0l0,1.44l-3.55,0l0,4.66c0,0.54,0.01,0.96,0.04,1.27c0.03,0.3,0.11,0.58,0.26,0.84c0.14,0.25,0.32,0.43,0.55,0.54c0.23,0.11,0.59,0.16,1.07,0.16c0.28,0,0.57,-0.04,0.87,-0.12c0.3,-0.08,0.52,-0.15,0.66,-0.2l0.09,0l0,1.55m10.41,-5.02c0,1.67,-0.43,2.98,-1.28,3.95c-0.85,0.96,-2,1.45,-3.44,1.45c-1.44,0,-2.58,-0.48,-3.44,-1.45c-0.85,-0.96,-1.28,-2.28,-1.28,-3.95c0,-1.67,0.43,-2.98,1.28,-3.95c0.85,-0.97,2,-1.45,3.44,-1.45c1.44,0,2.58,0.48,3.44,1.45c0.85,0.97,1.28,2.29,1.28,3.95m-1.77,0c0,-1.32,-0.26,-2.31,-0.78,-2.95c-0.52,-0.65,-1.24,-0.97,-2.17,-0.97c-0.93,0,-1.65,0.32,-2.16,0.97c-0.52,0.65,-0.77,1.63,-0.77,2.95c0,1.28,0.26,2.25,0.77,2.91c0.52,0.66,1.24,0.99,2.16,0.99c0.92,0,1.64,-0.33,2.16,-0.98c0.53,-0.66,0.79,-1.63,0.79,-2.92m19.61,4.47c-0.57,0.27,-1.12,0.48,-1.63,0.64c-0.52,0.16,-1.06,0.23,-1.63,0.23c-0.74,0,-1.42,-0.11,-2.04,-0.33c-0.62,-0.22,-1.15,-0.55,-1.59,-0.98c-0.45,-0.44,-0.79,-0.99,-1.03,-1.66c-0.24,-0.67,-0.36,-1.46,-0.36,-2.35c0,-1.68,0.46,-2.99,1.37,-3.95c0.92,-0.95,2.13,-1.43,3.64,-1.43c0.58,0,1.16,0.08,1.72,0.25c0.56,0.17,1.08,0.37,1.55,0.61l0,1.91l-0.08,0c-0.53,-0.41,-1.08,-0.72,-1.63,-0.94c-0.56,-0.22,-1.1,-0.33,-1.63,-0.33c-0.98,0,-1.75,0.33,-2.31,0.98c-0.56,0.66,-0.84,1.62,-0.84,2.89c0,1.23,0.28,2.17,0.83,2.84c0.55,0.66,1.33,0.99,2.33,0.99c0.34,0,0.7,-0.04,1.05,-0.13c0.36,-0.09,0.68,-0.21,0.98,-0.37c0.25,-0.12,0.48,-0.26,0.7,-0.4c0.22,-0.14,0.4,-0.26,0.53,-0.37l0.08,0l0,1.89m11.16,-4.47c0,1.67,-0.43,2.98,-1.28,3.95c-0.85,0.96,-2,1.45,-3.44,1.45c-1.44,0,-2.58,-0.48,-3.44,-1.45c-0.85,-0.96,-1.28,-2.28,-1.28,-3.95c0,-1.67,0.43,-2.98,1.28,-3.95c0.85,-0.97,2,-1.45,3.44,-1.45c1.44,0,2.58,0.48,3.44,1.45c0.85,0.97,1.28,2.29,1.28,3.95m-1.77,0c0,-1.32,-0.26,-2.31,-0.78,-2.95c-0.52,-0.65,-1.24,-0.97,-2.17,-0.97c-0.93,0,-1.65,0.32,-2.16,0.97c-0.52,0.65,-0.77,1.63,-0.77,2.95c0,1.28,0.26,2.25,0.77,2.91c0.52,0.66,1.24,0.99,2.16,0.99c0.92,0,1.64,-0.33,2.16,-0.98c0.53,-0.66,0.79,-1.63,0.79,-2.92m19.97,5.11l-1.72,0l0,-5.83c0,-0.44,-0.02,-0.86,-0.05,-1.27c-0.04,-0.41,-0.12,-0.73,-0.26,-0.98c-0.14,-0.26,-0.33,-0.46,-0.59,-0.59c-0.26,-0.14,-0.64,-0.2,-1.14,-0.2c-0.48,0,-0.96,0.12,-1.45,0.37c-0.48,0.24,-0.97,0.55,-1.45,0.91c0.02,0.15,0.04,0.31,0.05,0.49c0.01,0.18,0.02,0.37,0.02,0.55l0,6.55l-1.72,0l0,-5.83c0,-0.45,-0.02,-0.87,-0.06,-1.28c-0.04,-0.41,-0.12,-0.73,-0.25,-0.97c-0.15,-0.27,-0.35,-0.47,-0.61,-0.6c-0.26,-0.13,-0.64,-0.2,-1.12,-0.2c-0.48,0,-0.95,0.12,-1.42,0.35c-0.47,0.23,-0.94,0.53,-1.41,0.88l0,7.64l-1.73,0l0,-10.22l1.73,0l0,1.12c0.53,-0.45,1.07,-0.8,1.6,-1.05c0.54,-0.25,1.11,-0.37,1.71,-0.37c0.69,0,1.28,0.15,1.77,0.45c0.49,0.3,0.85,0.7,1.08,1.21c0.7,-0.58,1.33,-1.01,1.91,-1.27c0.57,-0.26,1.19,-0.39,1.84,-0.39c1.12,0,1.95,0.34,2.48,1.02c0.53,0.68,0.8,1.63,0.8,2.85l0,6.64m12.08,-5.19c0,0.85,-0.12,1.62,-0.36,2.3c-0.24,0.68,-0.56,1.26,-0.97,1.73c-0.44,0.48,-0.91,0.84,-1.43,1.08c-0.52,0.24,-1.09,0.36,-1.71,0.36c-0.58,0,-1.09,-0.07,-1.52,-0.2c-0.43,-0.14,-0.86,-0.32,-1.27,-0.55l-0.11,0.47l-1.62,0l0,-14.25l1.73,0l0,5.09c0.48,-0.4,0.99,-0.72,1.53,-0.98c0.54,-0.26,1.15,-0.38,1.83,-0.38c1.21,0,2.16,0.46,2.86,1.39c0.7,0.93,1.05,2.24,1.05,3.94m-1.77,0.05c0,-1.22,-0.2,-2.15,-0.61,-2.78c-0.41,-0.64,-1.06,-0.95,-1.95,-0.95c-0.5,0,-1.01,0.11,-1.52,0.33c-0.51,0.22,-0.98,0.5,-1.42,0.84l0,5.86c0.48,0.22,0.9,0.37,1.25,0.45c0.35,0.08,0.76,0.12,1.2,0.12c0.95,0,1.69,-0.31,2.23,-0.94c0.54,-0.62,0.81,-1.6,0.81,-2.94m6.62,-6.8l-1.94,0l0,-1.78l1.94,0l0,1.78m-0.11,11.94l-1.72,0l0,-10.22l1.72,0l0,10.22m12.81,0l-1.72,0l0,-5.83c0,-0.47,-0.03,-0.91,-0.09,-1.32c-0.06,-0.41,-0.16,-0.73,-0.3,-0.96c-0.16,-0.26,-0.38,-0.45,-0.66,-0.58c-0.29,-0.12,-0.66,-0.19,-1.12,-0.19c-0.47,0,-0.96,0.12,-1.47,0.35c-0.51,0.23,-1,0.53,-1.47,0.88l0,7.64l-1.73,0l0,-10.22l1.73,0l0,1.12c0.53,-0.45,1.08,-0.8,1.66,-1.05c0.57,-0.25,1.16,-0.37,1.77,-0.37c1.1,0,1.95,0.33,2.53,1c0.58,0.67,0.87,1.62,0.87,2.87l0,6.64m12,-4.94l-7.53,0c0,0.64,0.09,1.18,0.28,1.65c0.19,0.46,0.45,0.85,0.78,1.15c0.31,0.29,0.69,0.51,1.12,0.66c0.44,0.15,0.92,0.22,1.45,0.22c0.69,0,1.39,-0.14,2.09,-0.41c0.71,-0.28,1.21,-0.55,1.52,-0.82l0.08,0l0,1.87c-0.57,0.25,-1.16,0.46,-1.77,0.62c-0.6,0.16,-1.24,0.24,-1.91,0.24c-1.7,0,-3.02,-0.46,-3.98,-1.37c-0.95,-0.92,-1.43,-2.22,-1.43,-3.91c0,-1.68,0.46,-3.01,1.37,-3.99c0.91,-0.98,2.11,-1.48,3.6,-1.48c1.39,0,2.45,0.4,3.2,1.21c0.74,0.81,1.12,1.95,1.12,3.43l0,0.94m-1.67,-1.31c-0.01,-0.91,-0.24,-1.61,-0.69,-2.1c-0.45,-0.49,-1.13,-0.74,-2.05,-0.74c-0.92,0,-1.65,0.27,-2.2,0.81c-0.55,0.54,-0.86,1.22,-0.93,2.03l5.86,0m19.41,6.25l-1.72,0l0,-1.08c-0.49,0.43,-1,0.76,-1.54,1c-0.54,0.24,-1.12,0.36,-1.76,0.36c-1.22,0,-2.19,-0.47,-2.91,-1.41c-0.72,-0.94,-1.08,-2.24,-1.08,-3.91c0,-0.86,0.12,-1.64,0.37,-2.32c0.25,-0.68,0.58,-1.26,1,-1.73c0.42,-0.47,0.9,-0.83,1.45,-1.07c0.55,-0.24,1.12,-0.37,1.72,-0.37c0.53,0,1.01,0.06,1.42,0.17c0.42,0.11,0.85,0.29,1.31,0.53l0,-4.44l1.72,0l0,14.25m-1.72,-2.52l0,-5.87c-0.46,-0.21,-0.87,-0.35,-1.24,-0.43c-0.37,-0.08,-0.77,-0.12,-1.2,-0.12c-0.97,0,-1.72,0.34,-2.26,1.01c-0.54,0.67,-0.8,1.62,-0.8,2.85c0,1.22,0.21,2.14,0.62,2.77c0.42,0.63,1.08,0.95,2,0.95c0.48,0,0.97,-0.11,1.48,-0.32c0.51,-0.21,0.97,-0.49,1.4,-0.84m13.37,2.52l-1.72,0l0,-1.09c-0.15,0.1,-0.35,0.25,-0.61,0.44c-0.26,0.19,-0.51,0.34,-0.75,0.45c-0.29,0.14,-0.62,0.25,-0.99,0.34c-0.37,0.09,-0.81,0.14,-1.32,0.14c-0.92,0,-1.7,-0.3,-2.34,-0.91c-0.64,-0.61,-0.96,-1.39,-0.96,-2.34c0,-0.77,0.17,-1.4,0.5,-1.87c0.33,-0.48,0.81,-0.86,1.42,-1.14c0.62,-0.27,1.37,-0.46,2.24,-0.55c0.87,-0.1,1.8,-0.17,2.8,-0.21l0,-0.27c0,-0.4,-0.07,-0.72,-0.2,-0.98c-0.14,-0.26,-0.33,-0.46,-0.59,-0.6c-0.24,-0.15,-0.53,-0.24,-0.87,-0.29c-0.34,-0.05,-0.7,-0.07,-1.06,-0.07c-0.46,0,-0.96,0.06,-1.52,0.18c-0.55,0.12,-1.12,0.29,-1.72,0.51l-0.09,0l0,-1.73c0.33,-0.09,0.82,-0.2,1.45,-0.3c0.64,-0.11,1.26,-0.16,1.87,-0.16c0.72,0,1.35,0.06,1.88,0.18c0.54,0.12,1,0.32,1.38,0.6c0.39,0.28,0.68,0.65,0.88,1.09c0.2,0.45,0.3,1,0.3,1.66l0,6.94m-1.72,-2.52l0,-2.84c-0.52,0.03,-1.14,0.08,-1.84,0.13c-0.71,0.06,-1.27,0.14,-1.69,0.26c-0.5,0.15,-0.9,0.37,-1.2,0.66c-0.3,0.3,-0.45,0.71,-0.45,1.23c0,0.58,0.18,1.02,0.53,1.32c0.35,0.3,0.89,0.45,1.61,0.45c0.6,0,1.16,-0.12,1.66,-0.35c0.5,-0.23,0.96,-0.52,1.39,-0.85m10.08,2.42c-0.32,0.08,-0.67,0.15,-1.05,0.21c-0.38,0.06,-0.72,0.09,-1.02,0.09c-1.04,0,-1.83,-0.28,-2.37,-0.84c-0.54,-0.56,-0.81,-1.46,-0.81,-2.7l0,-5.44l-1.17,0l0,-1.44l1.17,0l0,-2.95l1.72,0l0,2.95l3.55,0l0,1.44l-3.55,0l0,4.66c0,0.54,0.01,0.96,0.04,1.27c0.03,0.3,0.11,0.58,0.26,0.84c0.14,0.25,0.32,0.43,0.55,0.54c0.23,0.11,0.59,0.16,1.07,0.16c0.28,0,0.57,-0.04,0.87,-0.12c0.3,-0.08,0.52,-0.15,0.66,-0.2l0.09,0l0,1.55m9.64,0.09l-1.72,0l0,-1.09c-0.15,0.1,-0.35,0.25,-0.61,0.44c-0.26,0.19,-0.51,0.34,-0.75,0.45c-0.29,0.14,-0.62,0.25,-0.99,0.34c-0.37,0.09,-0.81,0.14,-1.32,0.14c-0.92,0,-1.7,-0.3,-2.34,-0.91c-0.64,-0.61,-0.96,-1.39,-0.96,-2.34c0,-0.77,0.17,-1.4,0.5,-1.87c0.33,-0.48,0.81,-0.86,1.42,-1.14c0.62,-0.27,1.37,-0.46,2.24,-0.55c0.87,-0.1,1.8,-0.17,2.8,-0.21l0,-0.27c0,-0.4,-0.07,-0.72,-0.2,-0.98c-0.14,-0.26,-0.33,-0.46,-0.59,-0.6c-0.24,-0.15,-0.53,-0.24,-0.87,-0.29c-0.34,-0.05,-0.7,-0.07,-1.06,-0.07c-0.46,0,-0.96,0.06,-1.52,0.18c-0.55,0.12,-1.12,0.29,-1.72,0.51l-0.09,0l0,-1.73c0.33,-0.09,0.82,-0.2,1.45,-0.3c0.64,-0.11,1.26,-0.16,1.87,-0.16c0.72,0,1.35,0.06,1.88,0.18c0.54,0.12,1,0.32,1.38,0.6c0.39,0.28,0.68,0.65,0.88,1.09c0.2,0.45,0.3,1,0.3,1.66l0,6.94m-1.72,-2.52l0,-2.84c-0.52,0.03,-1.14,0.08,-1.84,0.13c-0.71,0.06,-1.27,0.14,-1.69,0.26c-0.5,0.15,-0.9,0.37,-1.2,0.66c-0.3,0.3,-0.45,0.71,-0.45,1.23c0,0.58,0.18,1.02,0.53,1.32c0.35,0.3,0.89,0.45,1.61,0.45c0.6,0,1.16,-0.12,1.66,-0.35c0.5,-0.23,0.96,-0.52,1.39,-0.85m12.08,-0.44c0,0.94,-0.39,1.71,-1.16,2.3c-0.77,0.6,-1.83,0.9,-3.17,0.9c-0.75,0,-1.44,-0.09,-2.08,-0.27c-0.64,-0.18,-1.17,-0.38,-1.59,-0.59l0,-1.94l0.09,0c0.54,0.41,1.15,0.73,1.81,0.98c0.67,0.24,1.31,0.37,1.92,0.37c0.75,0,1.34,-0.12,1.77,-0.37c0.43,-0.24,0.64,-0.63,0.64,-1.16c0,-0.4,-0.11,-0.7,-0.34,-0.91c-0.23,-0.21,-0.67,-0.39,-1.33,-0.53c-0.25,-0.05,-0.57,-0.12,-0.96,-0.2c-0.39,-0.08,-0.75,-0.16,-1.07,-0.24c-0.91,-0.24,-1.55,-0.59,-1.92,-1.05c-0.37,-0.46,-0.56,-1.03,-0.56,-1.7c0,-0.42,0.09,-0.81,0.27,-1.18c0.18,-0.37,0.44,-0.71,0.8,-1.01c0.34,-0.28,0.78,-0.51,1.3,-0.67c0.53,-0.17,1.12,-0.25,1.77,-0.25c0.6,0,1.22,0.07,1.84,0.22c0.62,0.15,1.15,0.33,1.56,0.55l0,1.84l-0.09,0c-0.44,-0.32,-0.97,-0.6,-1.6,-0.82c-0.63,-0.22,-1.25,-0.34,-1.85,-0.34c-0.62,0,-1.15,0.12,-1.59,0.36c-0.43,0.24,-0.65,0.6,-0.65,1.08c0,0.42,0.13,0.73,0.39,0.95c0.26,0.21,0.68,0.38,1.25,0.52c0.31,0.07,0.67,0.15,1.06,0.22c0.4,0.07,0.72,0.14,0.98,0.2c0.8,0.19,1.42,0.5,1.84,0.94c0.44,0.46,0.66,1.06,0.66,1.8m11.25,-1.98l-7.53,0c0,0.64,0.09,1.18,0.28,1.65c0.19,0.46,0.45,0.85,0.78,1.15c0.31,0.29,0.69,0.51,1.12,0.66c0.44,0.15,0.92,0.22,1.45,0.22c0.69,0,1.39,-0.14,2.09,-0.41c0.71,-0.28,1.21,-0.55,1.52,-0.82l0.08,0l0,1.87c-0.57,0.25,-1.16,0.46,-1.77,0.62c-0.6,0.16,-1.24,0.24,-1.91,0.24c-1.7,0,-3.02,-0.46,-3.98,-1.37c-0.95,-0.92,-1.43,-2.22,-1.43,-3.91c0,-1.68,0.46,-3.01,1.37,-3.99c0.91,-0.98,2.11,-1.48,3.6,-1.48c1.39,0,2.45,0.4,3.2,1.21c0.74,0.81,1.12,1.95,1.12,3.43l0,0.94m-1.67,-1.31c-0.01,-0.91,-0.24,-1.61,-0.69,-2.1c-0.45,-0.49,-1.13,-0.74,-2.05,-0.74c-0.92,0,-1.65,0.27,-2.2,0.81c-0.55,0.54,-0.86,1.22,-0.93,2.03l5.86,0m9.42,6.16c-0.32,0.08,-0.67,0.15,-1.05,0.21c-0.38,0.06,-0.72,0.09,-1.02,0.09c-1.04,0,-1.83,-0.28,-2.37,-0.84c-0.54,-0.56,-0.81,-1.46,-0.81,-2.7l0,-5.44l-1.17,0l0,-1.44l1.17,0l0,-2.95l1.72,0l0,2.95l3.55,0l0,1.44l-3.55,0l0,4.66c0,0.54,0.01,0.96,0.04,1.27c0.03,0.3,0.11,0.58,0.26,0.84c0.14,0.25,0.32,0.43,0.55,0.54c0.23,0.11,0.59,0.16,1.07,0.16c0.28,0,0.57,-0.04,0.87,-0.12c0.3,-0.08,0.52,-0.15,0.66,-0.2l0.09,0l0,1.55m9,-2.86c0,0.94,-0.39,1.71,-1.16,2.3c-0.77,0.6,-1.83,0.9,-3.17,0.9c-0.75,0,-1.44,-0.09,-2.08,-0.27c-0.64,-0.18,-1.17,-0.38,-1.59,-0.59l0,-1.94l0.09,0c0.54,0.41,1.15,0.73,1.81,0.98c0.67,0.24,1.31,0.37,1.92,0.37c0.75,0,1.34,-0.12,1.77,-0.37c0.43,-0.24,0.64,-0.63,0.64,-1.16c0,-0.4,-0.11,-0.7,-0.34,-0.91c-0.23,-0.21,-0.67,-0.39,-1.33,-0.53c-0.25,-0.05,-0.57,-0.12,-0.96,-0.2c-0.39,-0.08,-0.75,-0.16,-1.07,-0.24c-0.91,-0.24,-1.55,-0.59,-1.92,-1.05c-0.37,-0.46,-0.56,-1.03,-0.56,-1.7c0,-0.42,0.09,-0.81,0.27,-1.18c0.18,-0.37,0.44,-0.71,0.8,-1.01c0.34,-0.28,0.78,-0.51,1.3,-0.67c0.53,-0.17,1.12,-0.25,1.77,-0.25c0.6,0,1.22,0.07,1.84,0.22c0.62,0.15,1.15,0.33,1.56,0.55l0,1.84l-0.09,0c-0.44,-0.32,-0.97,-0.6,-1.6,-0.82c-0.63,-0.22,-1.25,-0.34,-1.85,-0.34c-0.62,0,-1.15,0.12,-1.59,0.36c-0.43,0.24,-0.65,0.6,-0.65,1.08c0,0.42,0.13,0.73,0.39,0.95c0.26,0.21,0.68,0.38,1.25,0.52c0.31,0.07,0.67,0.15,1.06,0.22c0.4,0.07,0.72,0.14,0.98,0.2c0.8,0.19,1.42,0.5,1.84,0.94c0.44,0.46,0.66,1.06,0.66,1.8" fill="#000000" stroke="none" fill-opacity="1"/>
</g>
</g>
<g clip-path="url(#c1)">
<g stroke="#684f5f" stroke-width="0.62" fill="none">
<polyline fill="none" points="60.46,304.57 89.09,235.13 117.72,319.74 146.35,249.36 174.98,279.76 203.62,285.15 232.25,291.9 260.88,281.24 289.51,290.88 318.14,283.21 346.77,316.66 375.4,289.89 404.03,293.56 432.66,276.11 461.29,264.45 489.92,283.76 518.55,266.31 547.18,221.43 575.81,279.41 604.44,236.02"/>
</g>
<g stroke-linejoin="miter" stroke-width="0.62" transform="translate(60.46, 304.57)" fill="#cf9ebe">
<path d="m-3.75,3.75l3.75,-1.87l3.75,1.87l-1.87,-3.75l1.87,-3.75l-3.75,1.87l-3.75,-1.87l1.87,3.75l-1.87,3.75"/>
</g>
<g stroke-linejoin="miter" stroke-width="0.62" transform="translate(89.09, 235.13)" fill="#cf9ebe">
<path d="m-3.75,3.75l3.75,-1.87l3.75,1.87l-1.87,-3.75l1.87,-3.75l-3.75,1.87l-3.75,-1.87l1.87,3.75l-1.87,3.75"/>
</g>
<g stroke-linejoin="miter" stroke-width="0.62" transform="translate(117.72, 319.74)" fill="#cf9ebe">
<path d="m-3.75,3.75l3.75,-1.87l3.75,1.87l-1.87,-3.75l1.87,-3.75l-3.75,1.87l-3.75,-1.87l1.87,3.75l-1.87,3.75"/>
</g>
<g stroke-linejoin="miter" stroke-width="0.62" transform="translate(146.35, 249.36)" fill="#cf9ebe">
<path d="m-3.75,3.75l3.75,-1.87l3.75,1.87l-1.87,-3.75l1.87,-3.75l-3.75,1.87l-3.75,-1.87l1.87,3.75l-1.87,3.75"/>
</g>
<g stroke-linejoin="miter" stroke-width="0.62" transform="translate(174.98, 279.76)" fill="#cf9ebe">
<path d="m-3.75,3.75l3.75,-1.87l3.75,1.87l-1.87,-3.75l1.87,-3.75l-3.75,1.87l-3.75,-1.87l1.87,3.75l-1.87,3.75"/>
</g>
<g stroke-linejoin="miter" stroke-width="0.62" transform="translate(203.62, 285.15)" fill="#cf9ebe">
<path d="m-3.75,3.75l3.75,-1.87l3.75,1.87l-1.87,-3.75l1.87,-3.75l-3.75,1.87l-3.75,-1.87l1.87,3.75l-1.87,3.75"/>
</g>
<g stroke-linejoin="miter" stroke-width="0.62" transform="translate(232.25, 291.9)" fill="#cf9ebe">
<path d="m-3.75,3.75l3.75,-1.87l3.75,1.87l-1.87,-3.75l1.87,-3.75l-3.75,1.87l-3.75,-1.87l1.87,3.75l-1.87,3.75"/>
</g>
<g stroke-linejoin="miter" stroke-width="0.62" transform="translate(260.88, 281.24)" fill="#cf9ebe">
<path d="m-3.75,3.75l3.75,-1.87l3.75,1.87l-1.87,-3.75l1.87,-3.75l-3.75,1.87l-3.75,-1.87l1.87,3.75l-1.87,3.75"/>
</g>
<g stroke-linejoin="miter" stroke-width="0.62" transform="translate(289.51, 290.88)" fill="#cf9ebe">
<path d="m-3.75,3.75l3.75,-1.87l3.75,1.87l-1.87,-3.75l1.87,-3.75l-3.75,1.87l-3.75,-1.87l1.87,3.75l-1.87,3.75"/>
</g>
<g stroke-linejoin="miter" stroke-width="0.62" transform="translate(318.14, 283.21)" fill="#cf9ebe">
<path d="m-3.75,3.75l3.75,-1.87l3.75,1.87l-1.87,-3.75l1.87,-3.75l-3.75,1.87l-3.75,-1.87l1.87,3.75l-1.87,3.75"/>
</g>
<g stroke-linejoin="miter" stroke-width="0.62" transform="translate(346.77, 316.66)" fill="#cf9ebe">
<path d="m-3.75,3.75l3.75,-1.87l3.75,1.87l-1.87,-3.75l1.87,-3.75l-3.75,1.87l-3.75,-1.87l1.87,3.75l-1.87,3.75"/>
</g>
<g stroke-linejoin="miter" stroke-width="0.62" transform="translate(375.4, 289.89)" fill="#cf9ebe">
<path d="m-3.75,3.75l3.75,-1.87l3.75,1.87l-1.87,-3.75l1.87,-3.75l-3.75,1.87l-3.75,-1.87l1.87,3.75l-1.87,3.75"/>
</g>
<g stroke-linejoin="miter" stroke-width="0.62" transform="translate(404.03, 293.56)" fill="#cf9ebe">
<path d="m-3.75,3.75l3.75,-1.87l3.75,1.87l-1.87,-3.75l1.87,-3.75l-3.75,1.87l-3.75,-1.87l1.87,3.75l-1.87,3.75"/>
</g>
<g stroke-linejoin="miter" stroke-width="0.62" transform="translate(432.66, 276.11)" fill="#cf9ebe">
<path d="m-3.75,3.75l3.75,-1.87l3.75,1.87l-1.87,-3.75l1.87,-3.75l-3.75,1.87l-3.75,-1.87l1.87,3.75l-1.87,3.75"/>
</g>
<g stroke-linejoin="miter" stroke-width="0.62" transform="translate(461.29, 264.45)" fill="#cf9ebe">
<path d="m-3.75,3.75l3.75,-1.87l3.75,1.87l-1.87,-3.75l1.87,-3.75l-3.75,1.87l-3.75,-1.87l1.87,3.75l-1.87,3.75"/>
</g>
<g stroke-linejoin="miter" stroke-width="0.62" transform="translate(489.92, 283.76)" fill="#cf9ebe">
<path d="m-3.75,3.75l3.75,-1.87l3.75,1.87l-1.87,-3.75l1.87,-3.75l-3.75,1.87l-3.75,-1.87l1.87,3.75l-1.87,3.75"/>
</g>
<g stroke-linejoin="miter" stroke-width="0.62" transform="translate(518.55, 266.31)" fill="#cf9ebe">
<path d="m-3.75,3.75l3.75,-1.87l3.75,1.87l-1.87,-3.75l1.87,-3.75l-3.75,1.87l-3.75,-1.87l1.87,3.75l-1.87,3.75"/>
</g>
<g stroke-linejoin="miter" stroke-width="0.62" transform="translate(547.18, 221.43)" fill="#cf9ebe">
<path d="m-3.75,3.75l3.75,-1.87l3.75,1.87l-1.87,-3.75l1.87,-3.75l-3.75,1.87l-3.75,-1.87l1.87,3.75l-1.87,3.75"/>
</g>
<g stroke-linejoin="miter" stroke-width="0.62" transform="translate(575.81, 279.41)" fill="#cf9ebe">
<path d="m-3.75,3.75l3.75,-1.87l3.75,1.87l-1.87,-3.75l1.87,-3.75l-3.75,1.87l-3.75,-1.87l1.87,3.75l-1.87,3.75"/>
</g>
<g stroke-linejoin="miter" stroke-width="0.62" transform="translate(604.44, 236.02)" fill="#cf9ebe">
<path d="m-3.75,3.75l3.75,-1.87l3.75,1.87l-1.87,-3.75l1.87,-3.75l-3.75,1.87l-3.75,-1.87l1.87,3.75l-1.87,3.75"/>
</g>
<g stroke="#696b69" stroke-width="0.62" fill="none">
<polyline fill="none" points="60.46,377.2 89.09,389.79 117.72,396.74 146.35,280.57 174.98,374.27 203.62,405.92 232.25,403.4 260.88,413.54 289.51,367.04 318.14,406.48 346.77,390.91 375.4,397.52 404.03,341.48 432.66,451.94 461.29,463.2 489.92,362.67 518.55,463.75 547.18,473.03 575.81,397.03 604.44,446.75"/>
</g>
<g stroke-linejoin="miter" stroke-width="0.62" transform="translate(60.46, 377.2)" fill="#696b69">
<path d="m0,5.3l5.3,-5.3l-5.3,-5.3l-5.3,5.3l5.3,5.3"/>
</g>
<g stroke-linejoin="miter" stroke-width="0.62" transform="translate(89.09, 389.79)" fill="#696b69">
<path d="m0,5.3l5.3,-5.3l-5.3,-5.3l-5.3,5.3l5.3,5.3"/>
</g>
<g stroke-linejoin="miter" stroke-width="0.62" transform="translate(117.72, 396.74)" fill="#696b69">
<path d="m0,5.3l5.3,-5.3l-5.3,-5.3l-5.3,5.3l5.3,5.3"/>
</g>
<g stroke-linejoin="miter" stroke-width="0.62" transform="translate(146.35, 280.57)" fill="#696b69">
<path d="m0,5.3l5.3,-5.3l-5.3,-5.3l-5.3,5.3l5.3,5.3"/>
</g>
<g stroke-linejoin="miter" stroke-width="0.62" transform="translate(174.98, 374.27)" fill="#696b69">
<path d="m0,5.3l5.3,-5.3l-5.3,-5.3l-5.3,5.3l5.3,5.3"/>
</g>
<g stroke-linejoin="miter" stroke-width="0.62" transform="translate(203.62, 405.92)" fill="#696b69">
<path d="m0,5.3l5.3,-5.3l-5.3,-5.3l-5.3,5.3l5.3,5.3"/>
</g>
<g stroke-linejoin="miter" stroke-width="0.62" transform="translate(232.25, 403.4)" fill="#696b69">
<path d="m0,5.3l5.3,-5.3l-5.3,-5.3l-5.3,5.3l5.3,5.3"/>
</g>
<g stroke-linejoin="miter" stroke-width="0.62" transform="translate(260.88, 413.54)" fill="#696b69">
<path d="m0,5.3l5.3,-5.3l-5.3,-5.3l-5.3,5.3l5.3,5.3"/>
</g>
<g stroke-linejoin="miter" stroke-width="0.62" transform="translate(289.51, 367.04)" fill="#696b69">
<path d="m0,5.3l5.3,-5.3l-5.3,-5.3l-5.3,5.3l5.3,5.3"/>
</g>
<g stroke-linejoin="miter" stroke-width="0.62" transform="translate(318.14, 406.48)" fill="#696b69">
<path d="m0,5.3l5.3,-5.3l-5.3,-5.3l-5.3,5.3l5.3,5.3"/>
</g>
<g stroke-linejoin="miter" stroke-width="0.62" transform="translate(346.77, 390.91)" fill="#696b69">
<path d="m0,5.3l5.3,-5.3l-5.3,-5.3l-5.3,5.3l5.3,5.3"/>
</g>
<g stroke-linejoin="miter" stroke-width="0.62" transform="translate(375.4, 397.52)" fill="#696b69">
<path d="m0,5.3l5.3,-5.3l-5.3,-5.3l-5.3,5.3l5.3,5.3"/>
</g>
<g stroke-linejoin="miter" stroke-width="0.62" transform="translate(404.03, 341.48)" fill="#696b69">
<path d="m0,5.3l5.3,-5.3l-5.3,-5.3l-5.3,5.3l5.3,5.3"/>
</g>
<g stroke-linejoin="miter" stroke-width="0.62" transform="translate(432.66, 451.94)" fill="#696b69">
<path d="m0,5.3l5.3,-5.3l-5.3,-5.3l-5.3,5.3l5.3,5.3"/>
</g>
<g stroke-linejoin="miter" stroke-width="0.62" transform="translate(461.29, 463.2)" fill="#696b69">
<path d="m0,5.3l5.3,-5.3l-5.3,-5.3l-5.3,5.3l5.3,5.3"/>
</g>
<g stroke-linejoin="miter" stroke-width="0.62" transform="translate(489.92, 362.67)" fill="#696b69">
<path d="m0,5.3l5.3,-5.3l-5.3,-5.3l-5.3,5.3l5.3,5.3"/>
</g>
<g stroke-linejoin="miter" stroke-width="0.62" transform="translate(518.55, 463.75)" fill="#696b69">
<path d="m0,5.3l5.3,-5.3l-5.3,-5.3l-5.3,5.3l5.3,5.3"/>
</g>
<g stroke-linejoin="miter" stroke-width="0.62" transform="translate(547.18, 473.03)" fill="#696b69">
<path d="m0,5.3l5.3,-5.3l-5.3,-5.3l-5.3,5.3l5.3,5.3"/>
</g>
<g stroke-linejoin="miter" stroke-width="0.62" transform="translate(575.81, 397.03)" fill="#696b69">
<path d="m0,5.3l5.3,-5.3l-5.3,-5.3l-5.3,5.3l5.3,5.3"/>
</g>
<g stroke-linejoin="miter" stroke-width="0.62" transform="translate(604.44, 446.75)" fill="#696b69">
<path d="m0,5.3l5.3,-5.3l-5.3,-5.3l-5.3,5.3l5.3,5.3"/>
</g>
<g stroke="#00a2b7" stroke-width="0.62" fill="none">
<polyline fill="none" points="60.46,297.85 89.09,158.98 117.72,328.2 146.35,187.44 174.98,248.24 203.62,259.02 232.25,272.52 260.88,251.19 289.51,270.47 318.14,255.14 346.77,322.04 375.4,268.5 404.03,275.83 432.66,240.94 461.29,217.63 489.92,256.24 518.55,221.35 547.18,131.57 575.81,247.54 604.44,160.76"/>
</g>
<g stroke-linejoin="miter" stroke-width="0.62" transform="translate(60.46, 297.85)" fill="#00a2b7">
<path d="m-3.75,-3.75l7.5,0l0,7.5l-7.5,0l0,-7.5"/>
</g>
<g stroke-linejoin="miter" stroke-width="0.62" transform="translate(89.09, 158.98)" fill="#00a2b7">
<path d="m-3.75,-3.75l7.5,0l0,7.5l-7.5,0l0,-7.5"/>
</g>
<g stroke-linejoin="miter" stroke-width="0.62" transform="translate(117.72, 328.2)" fill="#00a2b7">
<path d="m-3.75,-3.75l7.5,0l0,7.5l-7.5,0l0,-7.5"/>
</g>
<g stroke-linejoin="miter" stroke-width="0.62" transform="translate(146.35, 187.44)" fill="#00a2b7">
<path d="m-3.75,-3.75l7.5,0l0,7.5l-7.5,0l0,-7.5"/>
</g>
<g stroke-linejoin="miter" stroke-width="0.62" transform="translate(174.98, 248.24)" fill="#00a2b7">
<path d="m-3.75,-3.75l7.5,0l0,7.5l-7.5,0l0,-7.5"/>
</g>
<g stroke-linejoin="miter" stroke-width="0.62" transform="translate(203.62, 259.02)" fill="#00a2b7">
<path d="m-3.75,-3.75l7.5,0l0,7.5l-7.5,0l0,-7.5"/>
</g>
<g stroke-linejoin="miter" stroke-width="0.62" transform="translate(232.25, 272.52)" fill="#00a2b7">
<path d="m-3.75,-3.75l7.5,0l0,7.5l-7.5,0l0,-7.5"/>
</g>
<g stroke-linejoin="miter" stroke-width="0.62" transform="translate(260.88, 251.19)" fill="#00a2b7">
<path d="m-3.75,-3.75l7.5,0l0,7.5l-7.5,0l0,-7.5"/>
</g>
<g stroke-linejoin="miter" stroke-width="0.62" transform="translate(289.51, 270.47)" fill="#00a2b7">
<path d="m-3.75,-3.75l7.5,0l0,7.5l-7.5,0l0,-7.5"/>
</g>
<g stroke-linejoin="miter" stroke-width="0.62" transform="translate(318.14, 255.14)" fill="#00a2b7">
<path d="m-3.75,-3.75l7.5,0l0,7.5l-7.5,0l0,-7.5"/>
</g>
<g stroke-linejoin="miter" stroke-width="0.62" transform="translate(346.77, 322.04)" fill="#00a2b7">
<path d="m-3.75,-3.75l7.5,0l0,7.5l-7.5,0l0,-7.5"/>
</g>
<g stroke-linejoin="miter" stroke-width="0.62" transform="translate(375.4, 268.5)" fill="#00a2b7">
<path d="m-3.75,-3.75l7.5,0l0,7.5l-7.5,0l0,-7.5"/>
</g>
<g stroke-linejoin="miter" stroke-width="0.62" transform="translate(404.03, 275.83)" fill="#00a2b7">
<path d="m-3.75,-3.75l7.5,0l0,7.5l-7.5,0l0,-7.5"/>
</g>
<g stroke-linejoin="miter" stroke-width="0.62" transform="translate(432.66, 240.94)" fill="#00a2b7">
<path d="m-3.75,-3.75l7.5,0l0,7.5l-7.5,0l0,-7.5"/>
</g>
<g stroke-linejoin="miter" stroke-width="0.62" transform="translate(461.29, 217.63)" fill="#00a2b7">
<path d="m-3.75,-3.75l7.5,0l0,7.5l-7.5,0l0,-7.5"/>
</g>
<g stroke-linejoin="miter" stroke-width="0.62" transform="translate(489.92, 256.24)" fill="#00a2b7">
<path d="m-3.75,-3.75l7.5,0l0,7.5l-7.5,0l0,-7.5"/>
</g>
<g stroke-linejoin="miter" stroke-width="0.62" transform="translate(518.55, 221.35)" fill="#00a2b7">
<path d="m-3.75,-3.75l7.5,0l0,7.5l-7.5,0l0,-7.5"/>
</g>
<g stroke-linejoin="miter" stroke-width="0.62" transform="translate(547.18, 131.57)" fill="#00a2b7">
<path d="m-3.75,-3.75l7.5,0l0,7.5l-7.5,0l0,-7.5"/>
</g>
<g stroke-linejoin="miter" stroke-width="0.62" transform="translate(575.81, 247.54)" fill="#00a2b7">
<path d="m-3.75,-3.75l7.5,0l0,7.5l-7.5,0l0,-7.5"/>
</g>
<g stroke-linejoin="miter" stroke-width="0.62" transform="translate(604.44, 160.76)" fill="#00a2b7">
<path d="m-3.75,-3.75l7.5,0l0,7.5l-7.5,0l0,-7.5"/>
</g>
<g stroke="#d02bf1" stroke-width="0.62" fill="none">
<polyline fill="none" points="60.46,319.02 89.09,104.41 117.72,354.77 146.35,201.7 174.98,246.06 203.62,246.41 232.25,267.91 260.88,230.85 289.51,283.02 318.14,240.3 346.77,348.43 375.4,264.82 404.03,303.84 432.66,196.27 461.29,155.68 489.92,263.86 518.55,160.98 547.18,21.67 575.81,233.63 604.44,78.6"/>
</g>
<g stroke-linejoin="miter" stroke-width="0.62" transform="translate(60.46, 319.02)" fill="#d02bf1">
<path d="m3.75,0c0,2.07,-1.68,3.75,-3.75,3.75c-2.07,0,-3.75,-1.68,-3.75,-3.75c0,-2.07,1.68,-3.75,3.75,-3.75c2.07,0,3.75,1.68,3.75,3.75"/>
</g>
<g stroke-linejoin="miter" stroke-width="0.62" transform="translate(89.09, 104.41)" fill="#d02bf1">
<path d="m3.75,0c0,2.07,-1.68,3.75,-3.75,3.75c-2.07,0,-3.75,-1.68,-3.75,-3.75c0,-2.07,1.68,-3.75,3.75,-3.75c2.07,0,3.75,1.68,3.75,3.75"/>
</g>
<g stroke-linejoin="miter" stroke-width="0.62" transform="translate(117.72, 354.77)" fill="#d02bf1">
<path d="m3.75,0c0,2.07,-1.68,3.75,-3.75,3.75c-2.07,0,-3.75,-1.68,-3.75,-3.75c0,-2.07,1.68,-3.75,3.75,-3.75c2.07,0,3.75,1.68,3.75,3.75"/>
</g>
<g stroke-linejoin="miter" stroke-width="0.62" transform="translate(146.35, 201.7)" fill="#d02bf1">
<path d="m3.75,0c0,2.07,-1.68,3.75,-3.75,3.75c-2.07,0,-3.75,-1.68,-3.75,-3.75c0,-2.07,1.68,-3.75,3.75,-3.75c2.07,0,3.75,1.68,3.75,3.75"/>
</g>
<g stroke-linejoin="miter" stroke-width="0.62" transform="translate(174.98, 246.06)" fill="#d02bf1">
<path d="m3.75,0c0,2.07,-1.68,3.75,-3.75,3.75c-2.07,0,-3.75,-1.68,-3.75,-3.75c0,-2.07,1.68,-3.75,3.75,-3.75c2.07,0,3.75,1.68,3.75,3.75"/>
</g>
<g stroke-linejoin="miter" stroke-width="0.62" transform="translate(203.62, 246.41)" fill="#d02bf1">
<path d="m3.75,0c0,2.07,-1.68,3.75,-3.75,3.75c-2.07,0,-3.75,-1.68,-3.75,-3.75c0,-2.07,1.68,-3.75,3.75,-3.75c2.07,0,3.75,1.68,3.75,3.75"/>
</g>
<g stroke-linejoin="miter" stroke-width="0.62" transform="translate(232.25, 267.91)" fill="#d02bf1">
<path d="m3.75,0c0,2.07,-1.68,3.75,-3.75,3.75c-2.07,0,-3.75,-1.68,-3.75,-3.75c0,-2.07,1.68,-3.75,3.75,-3.75c2.07,0,3.75,1.68,3.75,3.75"/>
</g>
<g stroke-linejoin="miter" stroke-width="0.62" transform="translate(260.88, 230.85)" fill="#d02bf1">
<path d="m3.75,0c0,2.07,-1.68,3.75,-3.75,3.75c-2.07,0,-3.75,-1.68,-3.75,-3.75c0,-2.07,1.68,-3.75,3.75,-3.75c2.07,0,3.75,1.68,3.75,3.75"/>
</g>
<g stroke-linejoin="miter" stroke-width="0.62" transform="translate(289.51, 283.02)" fill="#d02bf1">
<path d="m3.75,0c0,2.07,-1.68,3.75,-3.75,3.75c-2.07,0,-3.75,-1.68,-3.75,-3.75c0,-2.07,1.68,-3.75,3.75,-3.75c2.07,0,3.75,1.68,3.75,3.75"/>
</g>
<g stroke-linejoin="miter" stroke-width="0.62" transform="translate(318.14, 240.3)" fill="#d02bf1">
<path d="m3.75,0c0,2.07,-1.68,3.75,-3.75,3.75c-2.07,0,-3.75,-1.68,-3.75,-3.75c0,-2.07,1.68,-3.75,3.75,-3.75c2.07,0,3.75,1.68,3.75,3.75"/>
</g>
<g stroke-linejoin="miter" stroke-width="0.62" transform="translate(346.77, 348.43)" fill="#d02bf1">
<path d="m3.75,0c0,2.07,-1.68,3.75,-3.75,3.75c-2.07,0,-3.75,-1.68,-3.75,-3.75c0,-2.07,1.68,-3.75,3.75,-3.75c2.07,0,3.75,1.68,3.75,3.75"/>
</g>
<g stroke-linejoin="miter" stroke-width="0.62" transform="translate(375.4, 264.82)" fill="#d02bf1">
<path d="m3.75,0c0,2.07,-1.68,3.75,-3.75,3.75c-2.07,0,-3.75,-1.68,-3.75,-3.75c0,-2.07,1.68,-3.75,3.75,-3.75c2.07,0,3.75,1.68,3.75,3.75"/>
</g>
<g stroke-linejoin="miter" stroke-width="0.62" transform="translate(404.03, 303.84)" fill="#d02bf1">
<path d="m3.75,0c0,2.07,-1.68,3.75,-3.75,3.75c-2.07,0,-3.75,-1.68,-3.75,-3.75c0,-2.07,1.68,-3.75,3.75,-3.75c2.07,0,3.75,1.68,3.75,3.75"/>
</g>
<g stroke-linejoin="miter" stroke-width="0.62" transform="translate(432.66, 196.27)" fill="#d02bf1">
<path d="m3.75,0c0,2.07,-1.68,3.75,-3.75,3.75c-2.07,0,-3.75,-1.68,-3.75,-3.75c0,-2.07,1.68,-3.75,3.75,-3.75c2.07,0,3.75,1.68,3.75,3.75"/>
</g>
<g stroke-linejoin="miter" stroke-width="0.62" transform="translate(461.29, 155.68)" fill="#d02bf1">
<path d="m3.75,0c0,2.07,-1.68,3.75,-3.75,3.75c-2.07,0,-3.75,-1.68,-3.75,-3.75c0,-2.07,1.68,-3.75,3.75,-3.75c2.07,0,3.75,1.68,3.75,3.75"/>
</g>
<g stroke-linejoin="miter" stroke-width="0.62" transform="translate(489.92, 263.86)" fill="#d02bf1">
<path d="m3.75,0c0,2.07,-1.68,3.75,-3.75,3.75c-2.07,0,-3.75,-1.68,-3.75,-3.75c0,-2.07,1.68,-3.75,3.75,-3.75c2.07,0,3.75,1.68,3.75,3.75"/>
</g>
<g stroke-linejoin="miter" stroke-width="0.62" transform="translate(518.55, 160.98)" fill="#d02bf1">
<path d="m3.75,0c0,2.07,-1.68,3.75,-3.75,3.75c-2.07,0,-3.75,-1.68,-3.75,-3.75c0,-2.07,1.68,-3.75,3.75,-3.75c2.07,0,3.75,1.68,3.75,3.75"/>
</g>
<g stroke-linejoin="miter" stroke-width="0.62" transform="translate(547.18, 21.67)" fill="#d02bf1">
<path d="m3.75,0c0,2.07,-1.68,3.75,-3.75,3.75c-2.07,0,-3.75,-1.68,-3.75,-3.75c0,-2.07,1.68,-3.75,3.75,-3.75c2.07,0,3.75,1.68,3.75,3.75"/>
</g>
<g stroke-linejoin="miter" stroke-width="0.62" transform="translate(575.81, 233.63)" fill="#d02bf1">
<path d="m3.75,0c0,2.07,-1.68,3.75,-3.75,3.75c-2.07,0,-3.75,-1.68,-3.75,-3.75c0,-2.07,1.68,-3.75,3.75,-3.75c2.07,0,3.75,1.68,3.75,3.75"/>
</g>
<g stroke-linejoin="miter" stroke-width="0.62" transform="translate(604.44, 78.6)" fill="#d02bf1">
<path d="m3.75,0c0,2.07,-1.68,3.75,-3.75,3.75c-2.07,0,-3.75,-1.68,-3.75,-3.75c0,-2.07,1.68,-3.75,3.75,-3.75c2.07,0,3.75,1.68,3.75,3.75"/>
</g>
<g stroke="#de9578" stroke-width="0.62" fill="none">
<polyline fill="none" points="60.46,242.1 89.09,115.82 117.72,291.99 146.35,35.06 174.98,189.56 203.62,232 232.25,242.96 260.88,231.78 289.51,204.56 318.14,228.67 346.77,279.99 375.4,233.06 404.03,184.36 432.66,259.93 461.29,247.87 489.92,185.95 518.55,252.14 547.18,171.65 575.81,211.61 604.44,174.56"/>
</g>
<g stroke-linejoin="miter" stroke-width="0.62" transform="translate(60.46, 242.1)" fill="#de9578">
<path d="m3.75,0c0,2.07,-1.68,3.75,-3.75,3.75c-2.07,0,-3.75,-1.68,-3.75,-3.75c0,-2.07,1.68,-3.75,3.75,-3.75c2.07,0,3.75,1.68,3.75,3.75"/>
</g>
<g stroke-linejoin="miter" stroke-width="0.62" transform="translate(89.09, 115.82)" fill="#de9578">
<path d="m3.75,0c0,2.07,-1.68,3.75,-3.75,3.75c-2.07,0,-3.75,-1.68,-3.75,-3.75c0,-2.07,1.68,-3.75,3.75,-3.75c2.07,0,3.75,1.68,3.75,3.75"/>
</g>
<g stroke-linejoin="miter" stroke-width="0.62" transform="translate(117.72, 291.99)" fill="#de9578">
<path d="m3.75,0c0,2.07,-1.68,3.75,-3.75,3.75c-2.07,0,-3.75,-1.68,-3.75,-3.75c0,-2.07,1.68,-3.75,3.75,-3.75c2.07,0,3.75,1.68,3.75,3.75"/>
</g>
<g stroke-linejoin="miter" stroke-width="0.62" transform="translate(146.35, 35.06)" fill="#de9578">
<path d="m3.75,0c0,2.07,-1.68,3.75,-3.75,3.75c-2.07,0,-3.75,-1.68,-3.75,-3.75c0,-2.07,1.68,-3.75,3.75,-3.75c2.07,0,3.75,1.68,3.75,3.75"/>
</g>
<g stroke-linejoin="miter" stroke-width="0.62" transform="translate(174.98, 189.56)" fill="#de9578">
<path d="m3.75,0c0,2.07,-1.68,3.75,-3.75,3.75c-2.07,0,-3.75,-1.68,-3.75,-3.75c0,-2.07,1.68,-3.75,3.75,-3.75c2.07,0,3.75,1.68,3.75,3.75"/>
</g>
<g stroke-linejoin="miter" stroke-width="0.62" transform="translate(203.62, 232)" fill="#de9578">
<path d="m3.75,0c0,2.07,-1.68,3.75,-3.75,3.75c-2.07,0,-3.75,-1.68,-3.75,-3.75c0,-2.07,1.68,-3.75,3.75,-3.75c2.07,0,3.75,1.68,3.75,3.75"/>
</g>
<g stroke-linejoin="miter" stroke-width="0.62" transform="translate(232.25, 242.96)" fill="#de9578">
<path d="m3.75,0c0,2.07,-1.68,3.75,-3.75,3.75c-2.07,0,-3.75,-1.68,-3.75,-3.75c0,-2.07,1.68,-3.75,3.75,-3.75c2.07,0,3.75,1.68,3.75,3.75"/>
</g>
<g stroke-linejoin="miter" stroke-width="0.62" transform="translate(260.88, 231.78)" fill="#de9578">
<path d="m3.75,0c0,2.07,-1.68,3.75,-3.75,3.75c-2.07,0,-3.75,-1.68,-3.75,-3.75c0,-2.07,1.68,-3.75,3.75,-3.75c2.07,0,3.75,1.68,3.75,3.75"/>
</g>
<g stroke-linejoin="miter" stroke-width="0.62" transform="translate(289.51, 204.56)" fill="#de9578">
<path d="m3.75,0c0,2.07,-1.68,3.75,-3.75,3.75c-2.07,0,-3.75,-1.68,-3.75,-3.75c0,-2.07,1.68,-3.75,3.75,-3.75c2.07,0,3.75,1.68,3.75,3.75"/>
</g>
<g stroke-linejoin="miter" stroke-width="0.62" transform="translate(318.14, 228.67)" fill="#de9578">
<path d="m3.75,0c0,2.07,-1.68,3.75,-3.75,3.75c-2.07,0,-3.75,-1.68,-3.75,-3.75c0,-2.07,1.68,-3.75,3.75,-3.75c2.07,0,3.75,1.68,3.75,3.75"/>
</g>
<g stroke-linejoin="miter" stroke-width="0.62" transform="translate(346.77, 279.99)" fill="#de9578">
<path d="m3.75,0c0,2.07,-1.68,3.75,-3.75,3.75c-2.07,0,-3.75,-1.68,-3.75,-3.75c0,-2.07,1.68,-3.75,3.75,-3.75c2.07,0,3.75,1.68,3.75,3.75"/>
</g>
<g stroke-linejoin="miter" stroke-width="0.62" transform="translate(375.4, 233.06)" fill="#de9578">
<path d="m3.75,0c0,2.07,-1.68,3.75,-3.75,3.75c-2.07,0,-3.75,-1.68,-3.75,-3.75c0,-2.07,1.68,-3.75,3.75,-3.75c2.07,0,3.75,1.68,3.75,3.75"/>
</g>
<g stroke-linejoin="miter" stroke-width="0.62" transform="translate(404.03, 184.36)" fill="#de9578">
<path d="m3.75,0c0,2.07,-1.68,3.75,-3.75,3.75c-2.07,0,-3.75,-1.68,-3.75,-3.75c0,-2.07,1.68,-3.75,3.75,-3.75c2.07,0,3.75,1.68,3.75,3.75"/>
</g>
<g stroke-linejoin="miter" stroke-width="0.62" transform="translate(432.66, 259.93)" fill="#de9578">
<path d="m3.75,0c0,2.07,-1.68,3.75,-3.75,3.75c-2.07,0,-3.75,-1.68,-3.75,-3.75c0,-2.07,1.68,-3.75,3.75,-3.75c2.07,0,3.75,1.68,3.75,3.75"/>
</g>
<g stroke-linejoin="miter" stroke-width="0.62" transform="translate(461.29, 247.87)" fill="#de9578">
<path d="m3.75,0c0,2.07,-1.68,3.75,-3.75,3.75c-2.07,0,-3.75,-1.68,-3.75,-3.75c0,-2.07,1.68,-3.75,3.75,-3.75c2.07,0,3.75,1.68,3.75,3.75"/>
</g>
<g stroke-linejoin="miter" stroke-width="0.62" transform="translate(489.92, 185.95)" fill="#de9578">
<path d="m3.75,0c0,2.07,-1.68,3.75,-3.75,3.75c-2.07,0,-3.75,-1.68,-3.75,-3.75c0,-2.07,1.68,-3.75,3.75,-3.75c2.07,0,3.75,1.68,3.75,3.75"/>
</g>
<g stroke-linejoin="miter" stroke-width="0.62" transform="translate(518.55, 252.14)" fill="#de9578">
<path d="m3.75,0c0,2.07,-1.68,3.75,-3.75,3.75c-2.07,0,-3.75,-1.68,-3.75,-3.75c0,-2.07,1.68,-3.75,3.75,-3.75c2.07,0,3.75,1.68,3.75,3.75"/>
</g>
<g stroke-linejoin="miter" stroke-width="0.62" transform="translate(547.18, 171.65)" fill="#de9578">
<path d="m3.75,0c0,2.07,-1.68,3.75,-3.75,3.75c-2.07,0,-3.75,-1.68,-3.75,-3.75c0,-2.07,1.68,-3.75,3.75,-3.75c2.07,0,3.75,1.68,3.75,3.75"/>
</g>
<g stroke-linejoin="miter" stroke-width="0.62" transform="translate(575.81, 211.61)" fill="#de9578">
<path d="m3.75,0c0,2.07,-1.68,3.75,-3.75,3.75c-2.07,0,-3.75,-1.68,-3.75,-3.75c0,-2.07,1.68,-3.75,3.75,-3.75c2.07,0,3.75,1.68,3.75,3.75"/>
</g>
<g stroke-linejoin="miter" stroke-width="0.62" transform="translate(604.44, 174.56)" fill="#de9578">
<path d="m3.75,0c0,2.07,-1.68,3.75,-3.75,3.75c-2.07,0,-3.75,-1.68,-3.75,-3.75c0,-2.07,1.68,-3.75,3.75,-3.75c2.07,0,3.75,1.68,3.75,3.75"/>
</g>
<g stroke="#659f23" stroke-width="0.62" fill="none">
<polyline fill="none" points="60.46,363.77 89.09,237.49 117.72,413.66 146.35,156.72 174.98,311.23 203.62,353.66 232.25,364.63 260.88,353.44 289.51,326.23 318.14,350.34 346.77,401.66 375.4,354.73 404.03,306.03 432.66,381.6 461.29,369.54 489.92,307.62 518.55,373.81 547.18,293.31 575.81,333.28 604.44,296.23"/>
</g>
<g stroke-linejoin="miter" stroke-width="0.62" transform="translate(60.46, 363.77)" fill="#659f23">
<path d="m1.5,3.75l0,-2.25l2.25,0l0,-3l-2.25,0l0,-2.25l-3,0l0,2.25l-2.25,0l0,3l2.25,0l0,2.25l3,0"/>
</g>
<g stroke-linejoin="miter" stroke-width="0.62" transform="translate(89.09, 237.49)" fill="#659f23">
<path d="m1.5,3.75l0,-2.25l2.25,0l0,-3l-2.25,0l0,-2.25l-3,0l0,2.25l-2.25,0l0,3l2.25,0l0,2.25l3,0"/>
</g>
<g stroke-linejoin="miter" stroke-width="0.62" transform="translate(117.72, 413.66)" fill="#659f23">
<path d="m1.5,3.75l0,-2.25l2.25,0l0,-3l-2.25,0l0,-2.25l-3,0l0,2.25l-2.25,0l0,3l2.25,0l0,2.25l3,0"/>
</g>
<g stroke-linejoin="miter" stroke-width="0.62" transform="translate(146.35, 156.72)" fill="#659f23">
<path d="m1.5,3.75l0,-2.25l2.25,0l0,-3l-2.25,0l0,-2.25l-3,0l0,2.25l-2.25,0l0,3l2.25,0l0,2.25l3,0"/>
</g>
<g stroke-linejoin="miter" stroke-width="0.62" transform="translate(174.98, 311.23)" fill="#659f23">
<path d="m1.5,3.75l0,-2.25l2.25,0l0,-3l-2.25,0l0,-2.25l-3,0l0,2.25l-2.25,0l0,3l2.25,0l0,2.25l3,0"/>
</g>
<g stroke-linejoin="miter" stroke-width="0.62" transform="translate(203.62, 353.66)" fill="#659f23">
<path d="m1.5,3.75l0,-2.25l2.25,0l0,-3l-2.25,0l0,-2.25l-3,0l0,2.25l-2.25,0l0,3l2.25,0l0,2.25l3,0"/>
</g>
<g stroke-linejoin="miter" stroke-width="0.62" transform="translate(232.25, 364.63)" fill="#659f23">
<path d="m1.5,3.75l0,-2.25l2.25,0l0,-3l-2.25,0l0,-2.25l-3,0l0,2.25l-2.25,0l0,3l2.25,0l0,2.25l3,0"/>
</g>
<g stroke-linejoin="miter" stroke-width="0.62" transform="translate(260.88, 353.44)" fill="#659f23">
<path d="m1.5,3.75l0,-2.25l2.25,0l0,-3l-2.25,0l0,-2.25l-3,0l0,2.25l-2.25,0l0,3l2.25,0l0,2.25l3,0"/>
</g>
<g stroke-linejoin="miter" stroke-width="0.62" transform="translate(289.51, 326.23)" fill="#659f23">
<path d="m1.5,3.75l0,-2.25l2.25,0l0,-3l-2.25,0l0,-2.25l-3,0l0,2.25l-2.25,0l0,3l2.25,0l0,2.25l3,0"/>
</g>
<g stroke-linejoin="miter" stroke-width="0.62" transform="translate(318.14, 350.34)" fill="#659f23">
<path d="m1.5,3.75l0,-2.25l2.25,0l0,-3l-2.25,0l0,-2.25l-3,0l0,2.25l-2.25,0l0,3l2.25,0l0,2.25l3,0"/>
</g>
<g stroke-linejoin="miter" stroke-width="0.62" transform="translate(346.77, 401.66)" fill="#659f23">
<path d="m1.5,3.75l0,-2.25l2.25,0l0,-3l-2.25,0l0,-2.25l-3,0l0,2.25l-2.25,0l0,3l2.25,0l0,2.25l3,0"/>
</g>
<g stroke-linejoin="miter" stroke-width="0.62" transform="translate(375.4, 354.73)" fill="#659f23">
<path d="m1.5,3.75l0,-2.25l2.25,0l0,-3l-2.25,0l0,-2.25l-3,0l0,2.25l-2.25,0l0,3l2.25,0l0,2.25l3,0"/>
</g>
<g stroke-linejoin="miter" stroke-width="0.62" transform="translate(404.03, 306.03)" fill="#659f23">
<path d="m1.5,3.75l0,-2.25l2.25,0l0,-3l-2.25,0l0,-2.25l-3,0l0,2.25l-2.25,0l0,3l2.25,0l0,2.25l3,0"/>
</g>
<g stroke-linejoin="miter" stroke-width="0.62" transform="translate(432.66, 381.6)" fill="#659f23">
<path d="m1.5,3.75l0,-2.25l2.25,0l0,-3l-2.25,0l0,-2.25l-3,0l0,2.25l-2.25,0l0,3l2.25,0l0,2.25l3,0"/>
</g>
<g stroke-linejoin="miter" stroke-width="0.62" transform="translate(461.29, 369.54)" fill="#659f23">
<path d="m1.5,3.75l0,-2.25l2.25,0l0,-3l-2.25,0l0,-2.25l-3,0l0,2.25l-2.25,0l0,3l2.25,0l0,2.25l3,0"/>
</g>
<g stroke-linejoin="miter" stroke-width="0.62" transform="translate(489.92, 307.62)" fill="#659f23">
<path d="m1.5,3.75l0,-2.25l2.25,0l0,-3l-2.25,0l0,-2.25l-3,0l0,2.25l-2.25,0l0,3l2.25,0l0,2.25l3,0"/>
</g>
<g stroke-linejoin="miter" stroke-width="0.62" transform="translate(518.55, 373.81)" fill="#659f23">
<path d="m1.5,3.75l0,-2.25l2.25,0l0,-3l-2.25,0l0,-2.25l-3,0l0,2.25l-2.25,0l0,3l2.25,0l0,2.25l3,0"/>
</g>
<g stroke-linejoin="miter" stroke-width="0.62" transform="translate(547.18, 293.31)" fill="#659f23">
<path d="m1.5,3.75l0,-2.25l2.25,0l0,-3l-2.25,0l0,-2.25l-3,0l0,2.25l-2.25,0l0,3l2.25,0l0,2.25l3,0"/>
</g>
<g stroke-linejoin="miter" stroke-width="0.62" transform="translate(575.81, 333.28)" fill="#659f23">
<path d="m1.5,3.75l0,-2.25l2.25,0l0,-3l-2.25,0l0,-2.25l-3,0l0,2.25l-2.25,0l0,3l2.25,0l0,2.25l3,0"/>
</g>
<g stroke-linejoin="miter" stroke-width="0.62" transform="translate(604.44, 296.23)" fill="#659f23">
<path d="m1.5,3.75l0,-2.25l2.25,0l0,-3l-2.25,0l0,-2.25l-3,0l0,2.25l-2.25,0l0,3l2.25,0l0,2.25l3,0"/>
</g>
</g>
<g clip-path="url(#c0)">
<g stroke-width="0.62" stroke-linecap="butt" fill="none">
<path d="M60.46,473.03l0,-465.91"/>
<path d="M60.46,463.37l3.75,0M60.46,432.95l3.75,0M60.46,402.53l3.75,0M60.46,372.12l3.75,0M60.46,341.7l3.75,0M60.46,311.28l3.75,0M60.46,280.87l3.75,0M60.46,250.45l3.75,0M60.46,220.03l3.75,0M60.46,189.62l3.75,0M60.46,159.2l3.75,0M60.46,128.78l3.75,0M60.46,98.36l3.75,0M60.46,67.95l3.75,0M60.46,37.53l3.75,0M60.46,7.11l3.75,0"/>
<path d="M60.46,463.37l7.5,0M60.46,311.28l7.5,0M60.46,159.2l7.5,0M60.46,7.11l7.5,0"/>
<path d="M633.07,473.03l0,-465.91"/>
<path d="M633.07,463.37l-3.75,0M633.07,432.95l-3.75,0M633.07,402.53l-3.75,0M633.07,372.12l-3.75,0M633.07,341.7l-3.75,0M633.07,311.28l-3.75,0M633.07,280.87l-3.75,0M633.07,250.45l-3.75,0M633.07,220.03l-3.75,0M633.07,189.62l-3.75,0M633.07,159.2l-3.75,0M633.07,128.78l-3.75,0M633.07,98.36l-3.75,0M633.07,67.95l-3.75,0M633.07,37.53l-3.75,0M633.07,7.11l-3.75,0"/>
<path d="M633.07,463.37l-7.5,0M633.07,311.28l-7.5,0M633.07,159.2l-7.5,0M633.07,7.11l-7.5,0"/>
</g>
<g stroke-width="1" fill="none">
<path d="m26.89,464.97l-10.56,0l0,-1.36l10.56,0l0,1.36m12.55,4.89l-8.61,0l0,-1.78c0.59,-0.52,1.19,-1.04,1.8,-1.55c0.6,-0.51,1.17,-1.02,1.69,-1.53c1.09,-1.05,1.84,-1.89,2.24,-2.52c0.4,-0.62,0.6,-1.3,0.6,-2.03c0,-0.66,-0.22,-1.17,-0.65,-1.55c-0.43,-0.37,-1.04,-0.56,-1.82,-0.56c-0.52,0,-1.08,0.09,-1.69,0.27c-0.6,0.18,-1.19,0.46,-1.77,0.84l-0.09,0l0,-1.78c0.41,-0.21,0.95,-0.39,1.62,-0.55c0.68,-0.16,1.33,-0.24,1.95,-0.24c1.31,0,2.34,0.32,3.08,0.95c0.74,0.63,1.11,1.48,1.11,2.55c0,0.48,-0.06,0.93,-0.19,1.35c-0.12,0.42,-0.31,0.82,-0.55,1.2c-0.22,0.35,-0.48,0.7,-0.77,1.04c-0.3,0.34,-0.66,0.72,-1.09,1.13c-0.61,0.6,-1.25,1.19,-1.9,1.75c-0.65,0.56,-1.26,1.08,-1.82,1.55l6.84,0l0,1.47m5.22,0l-2.05,0l0,-2.44l2.05,0l0,2.44m12.69,-4.05c0,0.59,-0.11,1.16,-0.33,1.7c-0.22,0.54,-0.52,1,-0.89,1.37c-0.41,0.4,-0.89,0.7,-1.46,0.91c-0.57,0.21,-1.23,0.32,-1.98,0.32c-0.69,0,-1.35,-0.07,-2,-0.22c-0.65,-0.15,-1.19,-0.32,-1.64,-0.53l0,-1.8l0.12,0c0.47,0.29,1.02,0.54,1.64,0.75c0.62,0.21,1.24,0.31,1.84,0.31c0.41,0,0.8,-0.06,1.18,-0.17c0.38,-0.11,0.72,-0.31,1.01,-0.59c0.25,-0.24,0.44,-0.53,0.57,-0.87c0.13,-0.34,0.2,-0.74,0.2,-1.19c0,-0.44,-0.08,-0.81,-0.23,-1.11c-0.15,-0.3,-0.36,-0.55,-0.63,-0.73c-0.29,-0.22,-0.65,-0.37,-1.08,-0.46c-0.43,-0.09,-0.9,-0.13,-1.42,-0.13c-0.5,0,-0.98,0.04,-1.45,0.11c-0.46,0.07,-0.87,0.14,-1.21,0.2l0,-6.55l7.66,0l0,1.48l-6,0l0,3.39c0.24,-0.02,0.49,-0.04,0.75,-0.05c0.26,-0.01,0.48,-0.02,0.67,-0.02c0.69,0,1.29,0.06,1.8,0.17c0.52,0.11,0.99,0.32,1.43,0.61c0.46,0.32,0.81,0.73,1.06,1.23c0.25,0.49,0.37,1.11,0.37,1.85" fill="#000000" stroke="none" fill-opacity="1"/>
<path d="m57.42,311.42c0,2.28,-0.36,3.96,-1.07,5.02c-0.71,1.07,-1.82,1.6,-3.32,1.6c-1.53,0,-2.65,-0.54,-3.35,-1.62c-0.7,-1.08,-1.05,-2.74,-1.05,-4.98c0,-2.26,0.36,-3.93,1.07,-5.02c0.71,-1.08,1.83,-1.62,3.34,-1.62c1.52,0,2.63,0.55,3.34,1.65c0.7,1.1,1.05,2.76,1.05,4.98m-2.25,3.87c0.21,-0.46,0.35,-1,0.41,-1.62c0.07,-0.62,0.1,-1.37,0.1,-2.25c0,-0.87,-0.03,-1.63,-0.1,-2.27c-0.07,-0.64,-0.21,-1.18,-0.41,-1.62c-0.2,-0.44,-0.47,-0.77,-0.81,-0.98c-0.34,-0.22,-0.79,-0.33,-1.33,-0.33c-0.54,0,-0.99,0.11,-1.34,0.33c-0.35,0.22,-0.63,0.55,-0.84,1c-0.19,0.43,-0.32,0.98,-0.39,1.66c-0.07,0.68,-0.11,1.42,-0.11,2.23c0,0.89,0.03,1.63,0.09,2.23c0.06,0.6,0.2,1.13,0.41,1.6c0.19,0.45,0.45,0.79,0.8,1.02c0.34,0.23,0.8,0.35,1.37,0.35c0.53,0,0.97,-0.11,1.33,-0.34c0.35,-0.22,0.62,-0.56,0.81,-1.01" fill="#000000" stroke="none" fill-opacity="1"/>
<path d="m39.44,165.69l-8.61,0l0,-1.78c0.59,-0.52,1.19,-1.04,1.8,-1.55c0.6,-0.51,1.17,-1.02,1.69,-1.53c1.09,-1.05,1.84,-1.89,2.24,-2.52c0.4,-0.62,0.6,-1.3,0.6,-2.03c0,-0.66,-0.22,-1.17,-0.65,-1.55c-0.43,-0.37,-1.04,-0.56,-1.82,-0.56c-0.52,0,-1.08,0.09,-1.69,0.27c-0.6,0.18,-1.19,0.46,-1.77,0.84l-0.09,0l0,-1.78c0.41,-0.21,0.95,-0.39,1.62,-0.55c0.68,-0.16,1.33,-0.24,1.95,-0.24c1.31,0,2.34,0.32,3.08,0.95c0.74,0.63,1.11,1.48,1.11,2.55c0,0.48,-0.06,0.93,-0.19,1.35c-0.12,0.42,-0.31,0.82,-0.55,1.2c-0.22,0.35,-0.48,0.7,-0.77,1.04c-0.3,0.34,-0.66,0.72,-1.09,1.13c-0.61,0.6,-1.25,1.19,-1.9,1.75c-0.65,0.56,-1.26,1.08,-1.82,1.55l6.84,0l0,1.47m5.22,0l-2.05,0l0,-2.44l2.05,0l0,2.44m12.69,-4.05c0,0.59,-0.11,1.16,-0.33,1.7c-0.22,0.54,-0.52,1,-0.89,1.37c-0.41,0.4,-0.89,0.7,-1.46,0.91c-0.57,0.21,-1.23,0.32,-1.98,0.32c-0.69,0,-1.35,-0.07,-2,-0.22c-0.65,-0.15,-1.19,-0.32,-1.64,-0.53l0,-1.8l0.12,0c0.47,0.29,1.02,0.54,1.64,0.75c0.62,0.21,1.24,0.31,1.84,0.31c0.41,0,0.8,-0.06,1.18,-0.17c0.38,-0.11,0.72,-0.31,1.01,-0.59c0.25,-0.24,0.44,-0.53,0.57,-0.87c0.13,-0.34,0.2,-0.74,0.2,-1.19c0,-0.44,-0.08,-0.81,-0.23,-1.11c-0.15,-0.3,-0.36,-0.55,-0.63,-0.73c-0.29,-0.22,-0.65,-0.37,-1.08,-0.46c-0.43,-0.09,-0.9,-0.13,-1.42,-0.13c-0.5,0,-0.98,0.04,-1.45,0.11c-0.46,0.07,-0.87,0.14,-1.21,0.2l0,-6.55l7.66,0l0,1.48l-6,0l0,3.39c0.24,-0.02,0.49,-0.04,0.75,-0.05c0.26,-0.01,0.48,-0.02,0.67,-0.02c0.69,0,1.29,0.06,1.8,0.17c0.52,0.11,0.99,0.32,1.43,0.61c0.46,0.32,0.81,0.73,1.06,1.23c0.25,0.49,0.37,1.11,0.37,1.85" fill="#000000" stroke="none" fill-opacity="1"/>
<path d="m57.34,13.34c0,0.59,-0.11,1.16,-0.33,1.7c-0.22,0.54,-0.52,1,-0.89,1.37c-0.41,0.4,-0.89,0.7,-1.46,0.91c-0.57,0.21,-1.23,0.32,-1.98,0.32c-0.69,0,-1.35,-0.07,-2,-0.22c-0.65,-0.15,-1.19,-0.32,-1.64,-0.53l0,-1.8l0.12,0c0.47,0.29,1.02,0.54,1.64,0.75c0.62,0.21,1.24,0.31,1.84,0.31c0.41,0,0.8,-0.06,1.18,-0.17c0.38,-0.11,0.72,-0.31,1.01,-0.59c0.25,-0.24,0.44,-0.53,0.57,-0.87c0.13,-0.34,0.2,-0.74,0.2,-1.19c0,-0.44,-0.08,-0.81,-0.23,-1.11c-0.15,-0.3,-0.36,-0.55,-0.63,-0.73c-0.29,-0.22,-0.65,-0.37,-1.08,-0.46c-0.43,-0.09,-0.9,-0.13,-1.42,-0.13c-0.5,0,-0.98,0.04,-1.45,0.11c-0.46,0.07,-0.87,0.14,-1.21,0.2l0,-6.55l7.66,0l0,1.48l-6,0l0,3.39c0.24,-0.02,0.49,-0.04,0.75,-0.05c0.26,-0.01,0.48,-0.02,0.67,-0.02c0.69,0,1.29,0.06,1.8,0.17c0.52,0.11,0.99,0.32,1.43,0.61c0.46,0.32,0.81,0.73,1.06,1.23c0.25,0.49,0.37,1.11,0.37,1.85" fill="#000000" stroke="none" fill-opacity="1"/>
</g>
<g stroke-width="0.62" stroke-linecap="butt" fill="none">
<path d="M60.46,473.03l572.61,0"/>
<path d="M60.46,473.03l0,-3.75M89.09,473.03l0,-3.75M117.72,473.03l0,-3.75M146.35,473.03l0,-3.75M174.98,473.03l0,-3.75M203.62,473.03l0,-3.75M232.25,473.03l0,-3.75M260.88,473.03l0,-3.75M289.51,473.03l0,-3.75M318.14,473.03l0,-3.75M346.77,473.03l0,-3.75M375.4,473.03l0,-3.75M404.03,473.03l0,-3.75M432.66,473.03l0,-3.75M461.29,473.03l0,-3.75M489.92,473.03l0,-3.75M518.55,473.03l0,-3.75M547.18,473.03l0,-3.75M575.81,473.03l0,-3.75M604.44,473.03l0,-3.75M633.07,473.03l0,-3.75"/>
<path d="M60.46,473.03l0,-7.5M203.62,473.03l0,-7.5M346.77,473.03l0,-7.5M489.92,473.03l0,-7.5M633.07,473.03l0,-7.5"/>
<path d="M60.46,7.11l572.61,0"/>
<path d="M60.46,7.11l0,3.75M89.09,7.11l0,3.75M117.72,7.11l0,3.75M146.35,7.11l0,3.75M174.98,7.11l0,3.75M203.62,7.11l0,3.75M232.25,7.11l0,3.75M260.88,7.11l0,3.75M289.51,7.11l0,3.75M318.14,7.11l0,3.75M346.77,7.11l0,3.75M375.4,7.11l0,3.75M404.03,7.11l0,3.75M432.66,7.11l0,3.75M461.29,7.11l0,3.75M489.92,7.11l0,3.75M518.55,7.11l0,3.75M547.18,7.11l0,3.75M575.81,7.11l0,3.75M604.44,7.11l0,3.75M633.07,7.11l0,3.75"/>
<path d="M60.46,7.11l0,7.5M203.62,7.11l0,7.5M346.77,7.11l0,7.5M489.92,7.11l0,7.5M633.07,7.11l0,7.5"/>
</g>
<g stroke-width="1" fill="none">
<path d="m64.92,486.66c0,2.28,-0.36,3.96,-1.07,5.02c-0.71,1.07,-1.82,1.6,-3.32,1.6c-1.53,0,-2.65,-0.54,-3.35,-1.62c-0.7,-1.08,-1.05,-2.74,-1.05,-4.98c0,-2.26,0.36,-3.93,1.07,-5.02c0.71,-1.08,1.83,-1.62,3.34,-1.62c1.52,0,2.63,0.55,3.34,1.65c0.7,1.1,1.05,2.76,1.05,4.98m-2.25,3.87c0.21,-0.46,0.35,-1,0.41,-1.62c0.07,-0.62,0.1,-1.37,0.1,-2.25c0,-0.87,-0.03,-1.63,-0.1,-2.27c-0.07,-0.64,-0.21,-1.18,-0.41,-1.62c-0.2,-0.44,-0.47,-0.77,-0.81,-0.98c-0.34,-0.22,-0.79,-0.33,-1.33,-0.33c-0.54,0,-0.99,0.11,-1.34,0.33c-0.35,0.22,-0.63,0.55,-0.84,1c-0.19,0.43,-0.32,0.98,-0.39,1.66c-0.07,0.68,-0.11,1.42,-0.11,2.23c0,0.89,0.03,1.63,0.09,2.23c0.06,0.6,0.2,1.13,0.41,1.6c0.19,0.45,0.45,0.79,0.8,1.02c0.34,0.23,0.8,0.35,1.37,0.35c0.53,0,0.97,-0.11,1.33,-0.34c0.35,-0.22,0.62,-0.56,0.81,-1.01" fill="#000000" stroke="none" fill-opacity="1"/>
<path d="m208,488.97c0,0.59,-0.11,1.16,-0.33,1.7c-0.22,0.54,-0.52,1,-0.89,1.37c-0.41,0.4,-0.89,0.7,-1.46,0.91c-0.57,0.21,-1.23,0.32,-1.98,0.32c-0.69,0,-1.35,-0.07,-2,-0.22c-0.65,-0.15,-1.19,-0.32,-1.64,-0.53l0,-1.8l0.12,0c0.47,0.29,1.02,0.54,1.64,0.75c0.62,0.21,1.24,0.31,1.84,0.31c0.41,0,0.8,-0.06,1.18,-0.17c0.38,-0.11,0.72,-0.31,1.01,-0.59c0.25,-0.24,0.44,-0.53,0.57,-0.87c0.13,-0.34,0.2,-0.74,0.2,-1.19c0,-0.44,-0.08,-0.81,-0.23,-1.11c-0.15,-0.3,-0.36,-0.55,-0.63,-0.73c-0.29,-0.22,-0.65,-0.37,-1.08,-0.46c-0.43,-0.09,-0.9,-0.13,-1.42,-0.13c-0.5,0,-0.98,0.04,-1.45,0.11c-0.46,0.07,-0.87,0.14,-1.21,0.2l0,-6.55l7.66,0l0,1.48l-6,0l0,3.39c0.24,-0.02,0.49,-0.04,0.75,-0.05c0.26,-0.01,0.48,-0.02,0.67,-0.02c0.69,0,1.29,0.06,1.8,0.17c0.52,0.11,0.99,0.32,1.43,0.61c0.46,0.32,0.81,0.73,1.06,1.23c0.25,0.49,0.37,1.11,0.37,1.85" fill="#000000" stroke="none" fill-opacity="1"/>
<path d="m345.03,493.02l-6.89,0l0,-1.3l2.66,0l0,-8.53l-2.66,0l0,-1.16c0.35,0,0.74,-0.03,1.15,-0.09c0.41,-0.06,0.72,-0.15,0.93,-0.27c0.27,-0.14,0.48,-0.31,0.63,-0.53c0.15,-0.22,0.24,-0.52,0.26,-0.89l1.33,0l0,11.47l2.59,0l0,1.3m11.7,-6.36c0,2.28,-0.36,3.96,-1.07,5.02c-0.71,1.07,-1.82,1.6,-3.32,1.6c-1.53,0,-2.65,-0.54,-3.35,-1.62c-0.7,-1.08,-1.05,-2.74,-1.05,-4.98c0,-2.26,0.36,-3.93,1.07,-5.02c0.71,-1.08,1.83,-1.62,3.34,-1.62c1.52,0,2.63,0.55,3.34,1.65c0.7,1.1,1.05,2.76,1.05,4.98m-2.25,3.87c0.21,-0.46,0.35,-1,0.41,-1.62c0.07,-0.62,0.1,-1.37,0.1,-2.25c0,-0.87,-0.03,-1.63,-0.1,-2.27c-0.07,-0.64,-0.21,-1.18,-0.41,-1.62c-0.2,-0.44,-0.47,-0.77,-0.81,-0.98c-0.34,-0.22,-0.79,-0.33,-1.33,-0.33c-0.54,0,-0.99,0.11,-1.34,0.33c-0.35,0.22,-0.63,0.55,-0.84,1c-0.19,0.43,-0.32,0.98,-0.39,1.66c-0.07,0.68,-0.11,1.42,-0.11,2.23c0,0.89,0.03,1.63,0.09,2.23c0.06,0.6,0.2,1.13,0.41,1.6c0.19,0.45,0.45,0.79,0.8,1.02c0.34,0.23,0.8,0.35,1.37,0.35c0.53,0,0.97,-0.11,1.33,-0.34c0.35,-0.22,0.62,-0.56,0.81,-1.01" fill="#000000" stroke="none" fill-opacity="1"/>
<path d="m488.17,493.02l-6.89,0l0,-1.3l2.66,0l0,-8.53l-2.66,0l0,-1.16c0.35,0,0.74,-0.03,1.15,-0.09c0.41,-0.06,0.72,-0.15,0.93,-0.27c0.27,-0.14,0.48,-0.31,0.63,-0.53c0.15,-0.22,0.24,-0.52,0.26,-0.89l1.33,0l0,11.47l2.59,0l0,1.3m11.62,-4.05c0,0.59,-0.11,1.16,-0.33,1.7c-0.22,0.54,-0.52,1,-0.89,1.37c-0.41,0.4,-0.89,0.7,-1.46,0.91c-0.57,0.21,-1.23,0.32,-1.98,0.32c-0.69,0,-1.35,-0.07,-2,-0.22c-0.65,-0.15,-1.19,-0.32,-1.64,-0.53l0,-1.8l0.12,0c0.47,0.29,1.02,0.54,1.64,0.75c0.62,0.21,1.24,0.31,1.84,0.31c0.41,0,0.8,-0.06,1.18,-0.17c0.38,-0.11,0.72,-0.31,1.01,-0.59c0.25,-0.24,0.44,-0.53,0.57,-0.87c0.13,-0.34,0.2,-0.74,0.2,-1.19c0,-0.44,-0.08,-0.81,-0.23,-1.11c-0.15,-0.3,-0.36,-0.55,-0.63,-0.73c-0.29,-0.22,-0.65,-0.37,-1.08,-0.46c-0.43,-0.09,-0.9,-0.13,-1.42,-0.13c-0.5,0,-0.98,0.04,-1.45,0.11c-0.46,0.07,-0.87,0.14,-1.21,0.2l0,-6.55l7.66,0l0,1.48l-6,0l0,3.39c0.24,-0.02,0.49,-0.04,0.75,-0.05c0.26,-0.01,0.48,-0.02,0.67,-0.02c0.69,0,1.29,0.06,1.8,0.17c0.52,0.11,0.99,0.32,1.43,0.61c0.46,0.32,0.81,0.73,1.06,1.23c0.25,0.49,0.37,1.11,0.37,1.85" fill="#000000" stroke="none" fill-opacity="1"/>
<path d="m628.16,493.02l-8.61,0l0,-1.78c0.59,-0.52,1.19,-1.04,1.8,-1.55c0.6,-0.51,1.17,-1.02,1.69,-1.53c1.09,-1.05,1.84,-1.89,2.24,-2.52c0.4,-0.62,0.6,-1.3,0.6,-2.03c0,-0.66,-0.22,-1.17,-0.65,-1.55c-0.43,-0.37,-1.04,-0.56,-1.82,-0.56c-0.52,0,-1.08,0.09,-1.69,0.27c-0.6,0.18,-1.19,0.46,-1.77,0.84l-0.09,0l0,-1.78c0.41,-0.21,0.95,-0.39,1.62,-0.55c0.68,-0.16,1.33,-0.24,1.95,-0.24c1.31,0,2.34,0.32,3.08,0.95c0.74,0.63,1.11,1.48,1.11,2.55c0,0.48,-0.06,0.93,-0.19,1.35c-0.12,0.42,-0.31,0.82,-0.55,1.2c-0.22,0.35,-0.48,0.7,-0.77,1.04c-0.3,0.34,-0.66,0.72,-1.09,1.13c-0.61,0.6,-1.25,1.19,-1.9,1.75c-0.65,0.56,-1.26,1.08,-1.82,1.55l6.84,0l0,1.47m10.98,-6.36c0,2.28,-0.36,3.96,-1.07,5.02c-0.71,1.07,-1.82,1.6,-3.32,1.6c-1.53,0,-2.65,-0.54,-3.35,-1.62c-0.7,-1.08,-1.05,-2.74,-1.05,-4.98c0,-2.26,0.36,-3.93,1.07,-5.02c0.71,-1.08,1.83,-1.62,3.34,-1.62c1.52,0,2.63,0.55,3.34,1.65c0.7,1.1,1.05,2.76,1.05,4.98m-2.25,3.87c0.21,-0.46,0.35,-1,0.41,-1.62c0.07,-0.62,0.1,-1.37,0.1,-2.25c0,-0.87,-0.03,-1.63,-0.1,-2.27c-0.07,-0.64,-0.21,-1.18,-0.41,-1.62c-0.2,-0.44,-0.47,-0.77,-0.81,-0.98c-0.34,-0.22,-0.79,-0.33,-1.33,-0.33c-0.54,0,-0.99,0.11,-1.34,0.33c-0.35,0.22,-0.63,0.55,-0.84,1c-0.19,0.43,-0.32,0.98,-0.39,1.66c-0.07,0.68,-0.11,1.42,-0.11,2.23c0,0.89,0.03,1.63,0.09,2.23c0.06,0.6,0.2,1.13,0.41,1.6c0.19,0.45,0.45,0.79,0.8,1.02c0.34,0.23,0.8,0.35,1.37,0.35c0.53,0,0.97,-0.11,1.33,-0.34c0.35,-0.22,0.62,-0.56,0.81,-1.01" fill="#000000" stroke="none" fill-opacity="1"/>
</g>
</g>
</g>
<defs>
<clipPath id="c0"><path d="m0,0l640.19,0l0,533.49l-640.19,0l0,-533.49"/></clipPath>
<clipPath id="c1"><path d="m60.46,7.11l572.61,0l0,465.91l-572.61,0l0,-465.91"/></clipPath>
<clipPath id="c2"><path d="m191.2,29.11l35.57,0l0,22l-35.57,0l0,-22"/></clipPath>
<clipPath id="c3"><path d="m191.2,51.11l35.57,0l0,22l-35.57,0l0,-22"/></clipPath>
<clipPath id="c4"><path d="m191.2,73.11l35.57,0l0,22l-35.57,0l0,-22"/></clipPath>
<clipPath id="c5"><path d="m191.2,95.11l35.57,0l0,22l-35.57,0l0,-22"/></clipPath>
<clipPath id="c6"><path d="m357.77,29.11l35.57,0l0,22l-35.57,0l0,-22"/></clipPath>
<clipPath id="c7"><path d="m357.77,51.11l35.57,0l0,22l-35.57,0l0,-22"/></clipPath>
<clipPath id="c8"><path d="m357.77,73.11l35.57,0l0,22l-35.57,0l0,-22"/></clipPath>
<clipPath id="c9"><path d="m357.77,95.11l35.57,0l0,22l-35.57,0l0,-22"/></clipPath>
</defs>
</svg>
