<?xml version="1.0" standalone="no"?>
<!DOCTYPE svg PUBLIC "-//W3C//DTD SVG 1.1//EN" 
  "http://www.w3.org/Graphics/SVG/1.1/DTD/svg11.dtd">
<svg width="533.49px" height="533.49px" version="1.1"
     xmlns="http://www.w3.org/2000/svg"
     xmlns:xlink="http://www.w3.org/1999/xlink">
<desc>Veusz output document</desc>
<g stroke-linejoin="bevel" stroke-linecap="square" stroke="#000000" fill-rule="evenodd">
<g clip-path="url(#c0)">
<g stroke="#00557f" stroke-width="1" fill="none">
<path d="m174.39,48.66l-3.86,0l-2.67,-7.59l-11.8,0l-2.67,7.59l-3.69,0l9.94,-27.27l4.83,0l9.92,27.27m-7.66,-10.72l-4.78,-13.37l-4.8,13.37l9.58,0m41.48,8.39c0,3.47,-0.79,6.02,-2.37,7.64c-1.58,1.62,-4,2.44,-7.27,2.44c-1.08,0,-2.14,-0.08,-3.17,-0.23c-1.03,-0.16,-2.05,-0.37,-3.05,-0.66l0,-3.52l0.17,0c0.56,0.23,1.46,0.51,2.68,0.83c1.22,0.32,2.45,0.48,3.66,0.48c1.17,0,2.14,-0.14,2.91,-0.42c0.77,-0.28,1.37,-0.67,1.8,-1.17c0.43,-0.48,0.73,-1.05,0.91,-1.73c0.18,-0.67,0.27,-1.42,0.27,-2.26l0,-1.86c-1.03,0.83,-2.02,1.45,-2.97,1.86c-0.95,0.41,-2.16,0.61,-3.62,0.61c-2.44,0,-4.37,-0.88,-5.8,-2.65c-1.43,-1.77,-2.15,-4.25,-2.15,-7.46c0,-1.76,0.24,-3.28,0.73,-4.55c0.49,-1.27,1.17,-2.37,2.03,-3.31c0.79,-0.86,1.76,-1.54,2.89,-2.02c1.14,-0.48,2.26,-0.72,3.37,-0.72c1.19,0,2.18,0.12,2.98,0.35c0.8,0.23,1.65,0.6,2.53,1.09l0.22,-0.87l3.23,0l0,18.12m-3.45,-3.3l0,-11.14c-0.92,-0.42,-1.77,-0.71,-2.55,-0.89c-0.79,-0.18,-1.57,-0.27,-2.35,-0.27c-1.89,0,-3.37,0.63,-4.46,1.9c-1.09,1.27,-1.63,3.11,-1.63,5.54c0,2.29,0.4,4.03,1.21,5.21c0.81,1.18,2.14,1.77,4.01,1.77c1,0,2,-0.19,3.01,-0.58c1.01,-0.39,1.93,-0.9,2.77,-1.55m23.62,-11.08l-0.19,0c-0.51,-0.11,-1.01,-0.2,-1.49,-0.26c-0.48,-0.06,-1.05,-0.09,-1.71,-0.09c-1.06,0,-2.09,0.23,-3.08,0.7c-0.99,0.47,-1.94,1.08,-2.86,1.83l0,14.52l-3.44,0l0,-20.45l3.44,0l0,3.02c1.36,-1.09,2.57,-1.87,3.62,-2.33c1.05,-0.46,2.11,-0.69,3.2,-0.69c0.59,0,1.03,0.02,1.3,0.05c0.27,0.03,0.68,0.09,1.22,0.17l0,3.53m18.12,16.7l-3.42,0l0,-2.17c-0.3,0.2,-0.71,0.48,-1.23,0.86c-0.52,0.37,-1.03,0.67,-1.52,0.89c-0.57,0.28,-1.23,0.52,-1.98,0.7c-0.74,0.19,-1.62,0.28,-2.62,0.28c-1.84,0,-3.41,-0.61,-4.69,-1.83c-1.28,-1.22,-1.92,-2.78,-1.92,-4.67c0,-1.55,0.33,-2.81,1,-3.77c0.67,-0.96,1.61,-1.71,2.84,-2.25c1.25,-0.55,2.75,-0.92,4.49,-1.12c1.74,-0.19,3.62,-0.34,5.62,-0.45l0,-0.53c0,-0.78,-0.14,-1.43,-0.41,-1.94c-0.28,-0.51,-0.67,-0.91,-1.18,-1.2c-0.49,-0.28,-1.08,-0.47,-1.76,-0.57c-0.68,-0.1,-1.4,-0.15,-2.15,-0.15c-0.9,0,-1.9,0.12,-3.02,0.36c-1.11,0.24,-2.26,0.58,-3.44,1.03l-0.19,0l0,-3.5c0.67,-0.18,1.64,-0.38,2.91,-0.6c1.27,-0.22,2.52,-0.34,3.75,-0.34c1.45,0,2.71,0.12,3.77,0.36c1.07,0.24,1.99,0.65,2.77,1.22c0.77,0.56,1.36,1.29,1.76,2.18c0.4,0.89,0.6,2,0.6,3.32l0,13.87m-3.42,-5.03l0,-5.7c-1.05,0.06,-2.29,0.16,-3.71,0.28c-1.42,0.12,-2.55,0.3,-3.38,0.53c-0.99,0.28,-1.79,0.72,-2.4,1.3c-0.61,0.59,-0.91,1.4,-0.91,2.45c0,1.18,0.35,2.06,1.06,2.65c0.71,0.59,1.79,0.88,3.25,0.88c1.21,0,2.31,-0.23,3.31,-0.7c1,-0.47,1.93,-1.03,2.78,-1.69m28.53,-5.44c0,1.66,-0.24,3.17,-0.72,4.55c-0.48,1.37,-1.15,2.54,-2.02,3.48c-0.8,0.91,-1.75,1.61,-2.84,2.1c-1.09,0.49,-2.25,0.74,-3.47,0.74c-1.06,0,-2.02,-0.12,-2.88,-0.35c-0.86,-0.23,-1.74,-0.6,-2.63,-1.09l0,8.58l-3.44,0l0,-28l3.44,0l0,2.14c0.92,-0.77,1.95,-1.41,3.09,-1.93c1.14,-0.52,2.36,-0.77,3.65,-0.77c2.47,0,4.39,0.93,5.77,2.79c1.37,1.86,2.06,4.45,2.06,7.76m-3.56,0.09c0,-2.47,-0.42,-4.32,-1.26,-5.54c-0.84,-1.22,-2.13,-1.84,-3.88,-1.84c-0.99,0,-1.98,0.21,-2.98,0.64c-1,0.43,-1.96,0.99,-2.87,1.69l0,11.59c0.98,0.44,1.82,0.74,2.52,0.9c0.7,0.16,1.5,0.24,2.38,0.24c1.92,0,3.41,-0.65,4.48,-1.95c1.07,-1.3,1.61,-3.21,1.61,-5.74m26.66,10.37l-3.44,0l0,-11.64c0,-0.95,-0.05,-1.83,-0.16,-2.66c-0.11,-0.82,-0.31,-1.46,-0.6,-1.92c-0.3,-0.52,-0.74,-0.91,-1.32,-1.16c-0.58,-0.25,-1.33,-0.37,-2.24,-0.37c-0.94,0,-1.92,0.23,-2.95,0.7c-1.03,0.47,-2.01,1.06,-2.95,1.78l0,15.27l-3.44,0l0,-28.48l3.44,0l0,10.3c1.07,-0.89,2.18,-1.58,3.34,-2.08c1.15,-0.5,2.33,-0.75,3.54,-0.75c2.21,0,3.89,0.66,5.05,1.99c1.16,1.33,1.73,3.24,1.73,5.74l0,13.28m30.52,-0.19c-0.65,0.18,-1.35,0.32,-2.11,0.43c-0.76,0.11,-1.44,0.16,-2.05,0.16c-2.08,0,-3.67,-0.56,-4.76,-1.69c-1.09,-1.12,-1.63,-2.93,-1.63,-5.41l0,-10.87l-2.31,0l0,-2.89l2.31,0l0,-5.87l3.45,0l0,5.87l7.09,0l0,2.89l-7.09,0l0,9.33c0,1.07,0.02,1.91,0.07,2.52c0.05,0.6,0.22,1.17,0.51,1.69c0.27,0.49,0.64,0.85,1.11,1.07c0.47,0.22,1.19,0.34,2.16,0.34c0.56,0,1.15,-0.08,1.76,-0.24c0.61,-0.16,1.05,-0.3,1.32,-0.41l0.17,0l0,3.09m8.09,-23.69l-3.89,0l0,-3.58l3.89,0l0,3.58m-0.23,23.87l-3.44,0l0,-20.45l3.44,0l0,20.45m17.14,-0.19c-0.65,0.18,-1.35,0.32,-2.11,0.43c-0.76,0.11,-1.44,0.16,-2.05,0.16c-2.08,0,-3.67,-0.56,-4.76,-1.69c-1.09,-1.12,-1.63,-2.93,-1.63,-5.41l0,-10.87l-2.31,0l0,-2.89l2.31,0l0,-5.87l3.45,0l0,5.87l7.09,0l0,2.89l-7.09,0l0,9.33c0,1.07,0.02,1.91,0.07,2.52c0.05,0.6,0.22,1.17,0.51,1.69c0.27,0.49,0.64,0.85,1.11,1.07c0.47,0.22,1.19,0.34,2.16,0.34c0.56,0,1.15,-0.08,1.76,-0.24c0.61,-0.16,1.05,-0.3,1.32,-0.41l0.17,0l0,3.09m7.86,0.19l-3.44,0l0,-28.48l3.44,0l0,28.48m23.66,-9.87l-15.08,0c0,1.26,0.19,2.36,0.57,3.29c0.38,0.93,0.9,1.7,1.55,2.3c0.64,0.58,1.39,1.02,2.27,1.31c0.87,0.29,1.83,0.44,2.87,0.44c1.4,0,2.8,-0.28,4.21,-0.83c1.41,-0.55,2.41,-1.1,3.01,-1.64l0.19,0l0,3.75c-1.17,0.49,-2.35,0.9,-3.56,1.23c-1.21,0.33,-2.47,0.49,-3.8,0.49c-3.4,0,-6.05,-0.92,-7.95,-2.75c-1.91,-1.83,-2.86,-4.44,-2.86,-7.83c0,-3.34,0.91,-6,2.74,-7.96c1.83,-1.96,4.23,-2.95,7.21,-2.95c2.75,0,4.87,0.8,6.37,2.41c1.5,1.61,2.25,3.9,2.25,6.87l0,1.86m-3.36,-2.62c-0.01,-1.81,-0.46,-3.21,-1.36,-4.2c-0.9,-0.99,-2.26,-1.48,-4.09,-1.48c-1.84,0,-3.31,0.54,-4.41,1.63c-1.09,1.09,-1.71,2.44,-1.86,4.05l11.72,0" fill="#00557f" stroke="none" fill-opacity="1"/>
</g>
<g stroke="#005500" stroke-width="0.62" fill="#f5ffcd">
<path d="m56.55,75.04l462.14,0l0,315.47l-462.14,0l0,-315.47"/>
</g>
<g stroke="#005500" stroke-width="0.62" transform="matrix(0.7013 0.7129 -0.7129 0.7013 196.68 191.53)" fill="#005500">
<path d="M0,0l114.42,0"/>
</g>
<g stroke-linejoin="miter" stroke="#005500" stroke-width="0.62" transform="matrix(0.7013 0.7129 -0.7129 0.7013 276.93 273.09)" fill="#005500">
<path d="m0,0l-11.25,6.25l2.5,-6.25l-2.5,-6.25l11.25,6.25"/>
</g>
<g stroke-linejoin="miter" stroke="#005500" stroke-width="0.62" transform="matrix(-0.7013 -0.7129 -0.7129 0.7013 196.68 191.53)" fill="none">
<path d="m0,-6.25l0,12.5"/>
</g>
<g stroke="#00557f" stroke-width="1" transform="matrix(0.6428 0.766 -0.766 0.6428 137.1 137.87)" fill="none">
<path d="m13.94,0l-11.5,0l0,-18.17l2.42,0l0,16.02l9.08,0l0,2.16m13.94,-6.81c0,2.22,-0.57,3.97,-1.7,5.26c-1.14,1.29,-2.66,1.93,-4.58,1.93c-1.93,0,-3.46,-0.64,-4.59,-1.93c-1.14,-1.29,-1.7,-3.04,-1.7,-5.26c0,-2.22,0.57,-3.97,1.7,-5.27c1.14,-1.29,2.67,-1.94,4.59,-1.94c1.92,0,3.44,0.65,4.58,1.94c1.14,1.29,1.7,3.05,1.7,5.27m-2.36,0c0,-1.76,-0.35,-3.07,-1.04,-3.93c-0.69,-0.86,-1.65,-1.29,-2.88,-1.29c-1.25,0,-2.22,0.43,-2.91,1.29c-0.69,0.86,-1.03,2.17,-1.03,3.93c0,1.71,0.35,3.01,1.04,3.89c0.69,0.89,1.66,1.33,2.9,1.33c1.22,0,2.18,-0.44,2.87,-1.31c0.7,-0.87,1.05,-2.18,1.05,-3.91m17.36,0c0,2.22,-0.57,3.97,-1.7,5.26c-1.14,1.29,-2.66,1.93,-4.58,1.93c-1.93,0,-3.46,-0.64,-4.59,-1.93c-1.14,-1.29,-1.7,-3.04,-1.7,-5.26c0,-2.22,0.57,-3.97,1.7,-5.27c1.14,-1.29,2.67,-1.94,4.59,-1.94c1.92,0,3.44,0.65,4.58,1.94c1.14,1.29,1.7,3.05,1.7,5.27m-2.36,0c0,-1.76,-0.35,-3.07,-1.04,-3.93c-0.69,-0.86,-1.65,-1.29,-2.88,-1.29c-1.25,0,-2.22,0.43,-2.91,1.29c-0.69,0.86,-1.03,2.17,-1.03,3.93c0,1.71,0.35,3.01,1.04,3.89c0.69,0.89,1.66,1.33,2.9,1.33c1.22,0,2.18,-0.44,2.87,-1.31c0.7,-0.87,1.05,-2.18,1.05,-3.91m18.12,6.81l-3.03,0l-5.47,-5.97l-1.48,1.42l0,4.55l-2.3,0l0,-19l2.3,0l0,12.19l6.62,-6.83l2.89,0l-6.33,6.3l6.8,7.34m6.64,-18.17l-0.31,13.17l-2.08,0l-0.34,-13.17l2.73,0m-0.11,18.17l-2.5,0l0,-2.58l2.5,0l0,2.58" fill="#00557f" stroke="none" fill-opacity="1"/>
</g>
</g>
<g clip-path="url(#c1)">
<g stroke-width="0.62" stroke="#005500" stroke-linecap="butt" fill="none">
<path d="M56.55,322.91l0,-15.02M133.57,255.31l0,-30.04M210.6,301.88l0,-18.03M287.62,285.36l0,-15.02M364.65,105.09l0,-30.04M441.67,176.45l0,-22.53M518.69,270.34l0,-30.04"/>
</g>
<g stroke="none" stroke-width="1" fill="#d9ffe5">
<polygon points="287.62,277.85 364.65,90.07 441.67,165.18 518.69,255.31 518.69,390.51 56.55,390.51 56.55,315.4 133.57,240.29 210.6,292.87"/>
</g>
<g stroke-width="1.25" fill="#00aa7f">
<path d="m55.3,315.4l27.25,0l0,75.11l-27.25,0l0,-75.11"/>
<path d="m107.58,240.29l51.99,0l0,150.22l-51.99,0l0,-150.22"/>
<path d="m184.6,292.87l51.99,0l0,97.65l-51.99,0l0,-97.65"/>
<path d="m261.63,277.85l51.99,0l0,112.67l-51.99,0l0,-112.67"/>
<path d="m338.65,90.07l51.99,0l0,300.45l-51.99,0l0,-300.45"/>
<path d="m415.67,165.18l51.99,0l0,225.34l-51.99,0l0,-225.34"/>
<path d="m492.7,255.31l27.25,0l0,135.2l-27.25,0l0,-135.2"/>
</g>
<g stroke="#005500" stroke-width="1.25" fill="#00aa7f">
<path d="M56.55,322.91l0,-15.02M133.57,255.31l0,-30.04M210.6,301.88l0,-18.03M287.62,285.36l0,-15.02M364.65,105.09l0,-30.04M441.67,176.45l0,-22.53M518.69,270.34l0,-30.04"/>
</g>
</g>
<g clip-path="url(#c0)">
<g stroke-width="0.62" stroke="#005500" stroke-linecap="butt" fill="none">
<path d="M56.55,390.51l0,-315.47"/>
<path d="M56.55,390.51l3.75,0M56.55,375.49l3.75,0M56.55,360.47l3.75,0M56.55,345.45l3.75,0M56.55,330.42l3.75,0M56.55,315.4l3.75,0M56.55,300.38l3.75,0M56.55,285.36l3.75,0M56.55,270.34l3.75,0M56.55,255.31l3.75,0M56.55,240.29l3.75,0M56.55,225.27l3.75,0M56.55,210.25l3.75,0M56.55,195.22l3.75,0M56.55,180.2l3.75,0M56.55,165.18l3.75,0M56.55,150.16l3.75,0M56.55,135.13l3.75,0M56.55,120.11l3.75,0M56.55,105.09l3.75,0M56.55,90.07l3.75,0M56.55,75.04l3.75,0"/>
<path d="M56.55,390.51l7.5,0M56.55,315.4l7.5,0M56.55,240.29l7.5,0M56.55,165.18l7.5,0M56.55,90.07l7.5,0"/>
<path d="M518.69,390.51l0,-315.47"/>
<path d="M518.69,390.51l-3.75,0M518.69,375.49l-3.75,0M518.69,360.47l-3.75,0M518.69,345.45l-3.75,0M518.69,330.42l-3.75,0M518.69,315.4l-3.75,0M518.69,300.38l-3.75,0M518.69,285.36l-3.75,0M518.69,270.34l-3.75,0M518.69,255.31l-3.75,0M518.69,240.29l-3.75,0M518.69,225.27l-3.75,0M518.69,210.25l-3.75,0M518.69,195.22l-3.75,0M518.69,180.2l-3.75,0M518.69,165.18l-3.75,0M518.69,150.16l-3.75,0M518.69,135.13l-3.75,0M518.69,120.11l-3.75,0M518.69,105.09l-3.75,0M518.69,90.07l-3.75,0M518.69,75.04l-3.75,0"/>
<path d="M518.69,390.51l-7.5,0M518.69,315.4l-7.5,0M518.69,240.29l-7.5,0M518.69,165.18l-7.5,0M518.69,90.07l-7.5,0"/>
</g>
<g stroke="#00557f" stroke-width="1" transform="matrix(0 -1 1 0 36.55 304.28)" fill="none">
<path d="m11.53,-0.92c-0.31,0.14,-0.59,0.26,-0.84,0.38c-0.25,0.12,-0.58,0.25,-1,0.38c-0.34,0.1,-0.72,0.2,-1.12,0.27c-0.41,0.08,-0.85,0.12,-1.34,0.12c-0.93,0,-1.77,-0.13,-2.52,-0.39c-0.76,-0.26,-1.41,-0.67,-1.98,-1.22c-0.54,-0.54,-0.97,-1.23,-1.27,-2.06c-0.31,-0.83,-0.46,-1.8,-0.46,-2.91c0,-1.05,0.15,-1.99,0.45,-2.82c0.3,-0.83,0.72,-1.52,1.27,-2.09c0.54,-0.55,1.2,-0.97,1.96,-1.27c0.77,-0.29,1.62,-0.44,2.55,-0.44c0.69,0,1.37,0.08,2.05,0.25c0.68,0.17,1.43,0.46,2.27,0.87l0,2l-0.12,0c-0.7,-0.58,-1.39,-1.01,-2.09,-1.28c-0.69,-0.27,-1.43,-0.41,-2.21,-0.41c-0.65,0,-1.23,0.1,-1.74,0.31c-0.52,0.21,-0.98,0.53,-1.38,0.97c-0.39,0.43,-0.69,0.97,-0.91,1.62c-0.22,0.66,-0.33,1.41,-0.33,2.27c0,0.9,0.12,1.66,0.36,2.3c0.24,0.64,0.55,1.16,0.94,1.57c0.4,0.42,0.86,0.73,1.39,0.93c0.53,0.2,1.09,0.3,1.69,0.3c0.81,0,1.58,-0.14,2.29,-0.41c0.71,-0.28,1.38,-0.7,2.01,-1.26l0.11,0l0,1.98m9,-6.87l-0.08,0c-0.24,-0.05,-0.47,-0.09,-0.7,-0.12c-0.22,-0.03,-0.49,-0.04,-0.8,-0.04c-0.49,0,-0.97,0.11,-1.43,0.33c-0.46,0.22,-0.91,0.5,-1.34,0.84l0,6.78l-1.61,0l0,-9.55l1.61,0l0,1.41c0.64,-0.51,1.2,-0.87,1.69,-1.09c0.49,-0.21,0.98,-0.32,1.48,-0.32c0.28,0,0.48,0.01,0.61,0.02c0.12,0.02,0.31,0.04,0.56,0.09l0,1.64m9.47,7.8l-1.59,0l0,-1.02c-0.15,0.09,-0.34,0.23,-0.59,0.41c-0.24,0.18,-0.48,0.31,-0.7,0.41c-0.27,0.14,-0.58,0.25,-0.93,0.34c-0.35,0.09,-0.76,0.13,-1.23,0.13c-0.85,0,-1.58,-0.28,-2.18,-0.85c-0.6,-0.57,-0.9,-1.29,-0.9,-2.18c0,-0.73,0.15,-1.32,0.46,-1.77c0.31,-0.45,0.75,-0.8,1.34,-1.05c0.58,-0.26,1.28,-0.43,2.09,-0.52c0.81,-0.09,1.69,-0.16,2.62,-0.21l0,-0.23c0,-0.36,-0.07,-0.67,-0.2,-0.91c-0.13,-0.24,-0.32,-0.43,-0.55,-0.58c-0.23,-0.12,-0.5,-0.21,-0.82,-0.26c-0.32,-0.05,-0.65,-0.07,-0.99,-0.07c-0.43,0,-0.9,0.05,-1.41,0.16c-0.52,0.11,-1.05,0.27,-1.62,0.49l-0.08,0l0,-1.64c0.31,-0.08,0.77,-0.18,1.36,-0.28c0.59,-0.1,1.18,-0.16,1.75,-0.16c0.68,0,1.26,0.06,1.76,0.17c0.49,0.11,0.92,0.3,1.29,0.56c0.36,0.27,0.64,0.61,0.83,1.02c0.19,0.41,0.28,0.92,0.28,1.54l0,6.48m-1.59,-2.34l0,-2.66c-0.49,0.02,-1.07,0.06,-1.73,0.12c-0.67,0.06,-1.19,0.14,-1.58,0.26c-0.46,0.12,-0.83,0.33,-1.12,0.6c-0.29,0.28,-0.43,0.66,-0.43,1.15c0,0.54,0.16,0.95,0.49,1.23c0.33,0.28,0.83,0.41,1.51,0.41c0.57,0,1.09,-0.11,1.55,-0.33c0.46,-0.22,0.9,-0.48,1.3,-0.78m12.09,2.34l-7.7,0l0,-1.19l5.56,-7.02l-5.44,0l0,-1.34l7.44,0l0,1.14l-5.59,7.05l5.73,0l0,1.36m10.33,-9.55l-5.56,13.06l-1.72,0l1.78,-3.98l-3.81,-9.08l1.75,0l2.94,7.08l2.95,-7.08l1.67,0m17.16,4.7c0,0.79,-0.11,1.51,-0.34,2.15c-0.22,0.64,-0.53,1.18,-0.91,1.62c-0.41,0.45,-0.85,0.78,-1.34,1.01c-0.48,0.22,-1.02,0.34,-1.6,0.34c-0.54,0,-1.01,-0.07,-1.41,-0.2c-0.4,-0.13,-0.8,-0.3,-1.2,-0.51l-0.11,0.44l-1.5,0l0,-13.3l1.61,0l0,4.75c0.45,-0.36,0.93,-0.67,1.44,-0.91c0.51,-0.24,1.08,-0.36,1.7,-0.36c1.14,0,2.03,0.43,2.68,1.3c0.65,0.86,0.98,2.09,0.98,3.67m-1.66,0.05c0,-1.15,-0.19,-2.01,-0.57,-2.6c-0.38,-0.59,-0.99,-0.88,-1.82,-0.88c-0.47,0,-0.94,0.1,-1.42,0.3c-0.48,0.2,-0.92,0.47,-1.33,0.79l0,5.47c0.46,0.2,0.85,0.34,1.18,0.42c0.33,0.08,0.7,0.12,1.12,0.12c0.89,0,1.58,-0.29,2.09,-0.88c0.51,-0.59,0.76,-1.5,0.76,-2.74m11.67,4.8l-1.59,0l0,-1.02c-0.15,0.09,-0.34,0.23,-0.59,0.41c-0.24,0.18,-0.48,0.31,-0.7,0.41c-0.27,0.14,-0.58,0.25,-0.93,0.34c-0.35,0.09,-0.76,0.13,-1.23,0.13c-0.85,0,-1.58,-0.28,-2.18,-0.85c-0.6,-0.57,-0.9,-1.29,-0.9,-2.18c0,-0.73,0.15,-1.32,0.46,-1.77c0.31,-0.45,0.75,-0.8,1.34,-1.05c0.58,-0.26,1.28,-0.43,2.09,-0.52c0.81,-0.09,1.69,-0.16,2.62,-0.21l0,-0.23c0,-0.36,-0.07,-0.67,-0.2,-0.91c-0.13,-0.24,-0.32,-0.43,-0.55,-0.58c-0.23,-0.12,-0.5,-0.21,-0.82,-0.26c-0.32,-0.05,-0.65,-0.07,-0.99,-0.07c-0.43,0,-0.9,0.05,-1.41,0.16c-0.52,0.11,-1.05,0.27,-1.62,0.49l-0.08,0l0,-1.64c0.31,-0.08,0.77,-0.18,1.36,-0.28c0.59,-0.1,1.18,-0.16,1.75,-0.16c0.68,0,1.26,0.06,1.76,0.17c0.49,0.11,0.92,0.3,1.29,0.56c0.36,0.27,0.64,0.61,0.83,1.02c0.19,0.41,0.28,0.92,0.28,1.54l0,6.48m-1.59,-2.34l0,-2.66c-0.49,0.02,-1.07,0.06,-1.73,0.12c-0.67,0.06,-1.19,0.14,-1.58,0.26c-0.46,0.12,-0.83,0.33,-1.12,0.6c-0.29,0.28,-0.43,0.66,-0.43,1.15c0,0.54,0.16,0.95,0.49,1.23c0.33,0.28,0.83,0.41,1.51,0.41c0.57,0,1.09,-0.11,1.55,-0.33c0.46,-0.22,0.9,-0.48,1.3,-0.78m11.12,-5.45l-0.08,0c-0.24,-0.05,-0.47,-0.09,-0.7,-0.12c-0.22,-0.03,-0.49,-0.04,-0.8,-0.04c-0.49,0,-0.97,0.11,-1.43,0.33c-0.46,0.22,-0.91,0.5,-1.34,0.84l0,6.78l-1.61,0l0,-9.55l1.61,0l0,1.41c0.64,-0.51,1.2,-0.87,1.69,-1.09c0.49,-0.21,0.98,-0.32,1.48,-0.32c0.28,0,0.48,0.01,0.61,0.02c0.12,0.02,0.31,0.04,0.56,0.09l0,1.64m16.3,-1.75l-3.86,9.55l-1.61,0l-3.84,-9.55l1.75,0l2.95,7.59l2.94,-7.59l1.67,0m10.17,9.55l-1.59,0l0,-1.02c-0.15,0.09,-0.34,0.23,-0.59,0.41c-0.24,0.18,-0.48,0.31,-0.7,0.41c-0.27,0.14,-0.58,0.25,-0.93,0.34c-0.35,0.09,-0.76,0.13,-1.23,0.13c-0.85,0,-1.58,-0.28,-2.18,-0.85c-0.6,-0.57,-0.9,-1.29,-0.9,-2.18c0,-0.73,0.15,-1.32,0.46,-1.77c0.31,-0.45,0.75,-0.8,1.34,-1.05c0.58,-0.26,1.28,-0.43,2.09,-0.52c0.81,-0.09,1.69,-0.16,2.62,-0.21l0,-0.23c0,-0.36,-0.07,-0.67,-0.2,-0.91c-0.13,-0.24,-0.32,-0.43,-0.55,-0.58c-0.23,-0.12,-0.5,-0.21,-0.82,-0.26c-0.32,-0.05,-0.65,-0.07,-0.99,-0.07c-0.43,0,-0.9,0.05,-1.41,0.16c-0.52,0.11,-1.05,0.27,-1.62,0.49l-0.08,0l0,-1.64c0.31,-0.08,0.77,-0.18,1.36,-0.28c0.59,-0.1,1.18,-0.16,1.75,-0.16c0.68,0,1.26,0.06,1.76,0.17c0.49,0.11,0.92,0.3,1.29,0.56c0.36,0.27,0.64,0.61,0.83,1.02c0.19,0.41,0.28,0.92,0.28,1.54l0,6.48m-1.59,-2.34l0,-2.66c-0.49,0.02,-1.07,0.06,-1.73,0.12c-0.67,0.06,-1.19,0.14,-1.58,0.26c-0.46,0.12,-0.83,0.33,-1.12,0.6c-0.29,0.28,-0.43,0.66,-0.43,1.15c0,0.54,0.16,0.95,0.49,1.23c0.33,0.28,0.83,0.41,1.51,0.41c0.57,0,1.09,-0.11,1.55,-0.33c0.46,-0.22,0.9,-0.48,1.3,-0.78m6.8,2.34l-1.61,0l0,-13.3l1.61,0l0,13.3m11.3,0l-1.61,0l0,-1.06c-0.54,0.43,-1.06,0.76,-1.55,0.98c-0.49,0.23,-1.04,0.34,-1.65,0.34c-1,0,-1.78,-0.31,-2.34,-0.92c-0.56,-0.61,-0.84,-1.51,-0.84,-2.69l0,-6.2l1.61,0l0,5.44c0,0.48,0.02,0.89,0.06,1.24c0.04,0.35,0.14,0.64,0.3,0.88c0.15,0.25,0.34,0.43,0.59,0.55c0.24,0.11,0.6,0.17,1.07,0.17c0.42,0,0.87,-0.11,1.37,-0.33c0.49,-0.22,0.96,-0.49,1.38,-0.83l0,-7.12l1.61,0l0,9.55m11.08,-4.61l-7.05,0c0,0.59,0.09,1.11,0.27,1.54c0.18,0.43,0.42,0.79,0.73,1.07c0.29,0.27,0.64,0.48,1.05,0.62c0.41,0.14,0.86,0.21,1.35,0.21c0.65,0,1.3,-0.13,1.95,-0.39c0.66,-0.26,1.12,-0.52,1.41,-0.77l0.08,0l0,1.75c-0.53,0.23,-1.08,0.42,-1.65,0.57c-0.57,0.15,-1.16,0.23,-1.77,0.23c-1.58,0,-2.82,-0.43,-3.71,-1.28c-0.89,-0.85,-1.34,-2.07,-1.34,-3.66c0,-1.56,0.42,-2.8,1.27,-3.72c0.85,-0.92,1.97,-1.37,3.37,-1.37c1.29,0,2.29,0.38,2.98,1.13c0.7,0.76,1.05,1.82,1.05,3.2l0,0.87m-1.58,-1.23c0,-0.83,-0.21,-1.48,-0.63,-1.95c-0.42,-0.46,-1.06,-0.7,-1.91,-0.7c-0.85,0,-1.54,0.25,-2.05,0.76c-0.51,0.51,-0.8,1.13,-0.87,1.88l5.47,0" fill="#00557f" stroke="none" fill-opacity="1"/>
</g>
<g stroke="#00557f" stroke-width="1" fill="none">
<path d="m53.52,390.64c0,2.28,-0.36,3.96,-1.07,5.02c-0.71,1.07,-1.82,1.6,-3.32,1.6c-1.53,0,-2.65,-0.54,-3.35,-1.62c-0.7,-1.08,-1.05,-2.74,-1.05,-4.98c0,-2.26,0.36,-3.93,1.07,-5.02c0.71,-1.08,1.83,-1.62,3.34,-1.62c1.52,0,2.63,0.55,3.34,1.65c0.7,1.1,1.05,2.76,1.05,4.98m-2.25,3.87c0.21,-0.46,0.35,-1,0.41,-1.62c0.07,-0.62,0.1,-1.37,0.1,-2.25c0,-0.87,-0.03,-1.63,-0.1,-2.27c-0.07,-0.64,-0.21,-1.18,-0.41,-1.62c-0.2,-0.44,-0.47,-0.77,-0.81,-0.98c-0.34,-0.22,-0.79,-0.33,-1.33,-0.33c-0.54,0,-0.99,0.11,-1.34,0.33c-0.35,0.22,-0.63,0.55,-0.84,1c-0.19,0.43,-0.32,0.98,-0.39,1.66c-0.07,0.68,-0.11,1.42,-0.11,2.23c0,0.89,0.03,1.63,0.09,2.23c0.06,0.6,0.2,1.13,0.41,1.6c0.19,0.45,0.45,0.79,0.8,1.02c0.34,0.23,0.8,0.35,1.37,0.35c0.53,0,0.97,-0.11,1.33,-0.34c0.35,-0.22,0.62,-0.56,0.81,-1.01" fill="#00557f" stroke="none" fill-opacity="1"/>
<path d="m52.81,321.89l-6.89,0l0,-1.3l2.66,0l0,-8.53l-2.66,0l0,-1.16c0.35,0,0.74,-0.03,1.15,-0.09c0.41,-0.06,0.72,-0.15,0.93,-0.27c0.27,-0.14,0.48,-0.31,0.63,-0.53c0.15,-0.22,0.24,-0.52,0.26,-0.89l1.33,0l0,11.47l2.59,0l0,1.3" fill="#00557f" stroke="none" fill-opacity="1"/>
<path d="m53.53,246.78l-8.61,0l0,-1.78c0.59,-0.52,1.19,-1.04,1.8,-1.55c0.6,-0.51,1.17,-1.02,1.69,-1.53c1.09,-1.05,1.84,-1.89,2.24,-2.52c0.4,-0.62,0.6,-1.3,0.6,-2.03c0,-0.66,-0.22,-1.17,-0.65,-1.55c-0.43,-0.37,-1.04,-0.56,-1.82,-0.56c-0.52,0,-1.08,0.09,-1.69,0.27c-0.6,0.18,-1.19,0.46,-1.77,0.84l-0.09,0l0,-1.78c0.41,-0.21,0.95,-0.39,1.62,-0.55c0.68,-0.16,1.33,-0.24,1.95,-0.24c1.31,0,2.34,0.32,3.08,0.95c0.74,0.63,1.11,1.48,1.11,2.55c0,0.48,-0.06,0.93,-0.19,1.35c-0.12,0.42,-0.31,0.82,-0.55,1.2c-0.22,0.35,-0.48,0.7,-0.77,1.04c-0.3,0.34,-0.66,0.72,-1.09,1.13c-0.61,0.6,-1.25,1.19,-1.9,1.75c-0.65,0.56,-1.26,1.08,-1.82,1.55l6.84,0l0,1.47" fill="#00557f" stroke="none" fill-opacity="1"/>
<path d="m52.42,165.55c0.27,0.24,0.49,0.54,0.67,0.91c0.18,0.37,0.27,0.85,0.27,1.45c0,0.58,-0.11,1.12,-0.32,1.6c-0.21,0.48,-0.51,0.9,-0.88,1.26c-0.43,0.4,-0.93,0.69,-1.51,0.88c-0.58,0.19,-1.21,0.29,-1.9,0.29c-0.71,0,-1.41,-0.08,-2.09,-0.25c-0.69,-0.17,-1.25,-0.35,-1.69,-0.55l0,-1.8l0.14,0c0.48,0.32,1.05,0.59,1.7,0.8c0.66,0.21,1.29,0.31,1.89,0.31c0.36,0,0.75,-0.06,1.15,-0.18c0.4,-0.12,0.73,-0.29,0.98,-0.52c0.27,-0.25,0.47,-0.53,0.59,-0.83c0.12,-0.3,0.19,-0.68,0.19,-1.14c0,-0.46,-0.07,-0.84,-0.22,-1.14c-0.15,-0.3,-0.34,-0.54,-0.59,-0.7c-0.26,-0.18,-0.57,-0.3,-0.94,-0.36c-0.36,-0.06,-0.76,-0.09,-1.17,-0.09l-0.78,0l0,-1.42l0.61,0c0.86,0,1.55,-0.18,2.07,-0.55c0.52,-0.36,0.77,-0.89,0.77,-1.58c0,-0.31,-0.07,-0.58,-0.2,-0.81c-0.13,-0.23,-0.32,-0.42,-0.55,-0.56c-0.24,-0.16,-0.5,-0.26,-0.78,-0.32c-0.28,-0.06,-0.6,-0.09,-0.95,-0.09c-0.54,0,-1.12,0.1,-1.73,0.3c-0.61,0.2,-1.18,0.47,-1.73,0.81l-0.08,0l0,-1.78c0.41,-0.2,0.95,-0.38,1.62,-0.55c0.67,-0.17,1.33,-0.25,1.96,-0.25c0.62,0,1.17,0.06,1.64,0.17c0.47,0.11,0.9,0.3,1.28,0.55c0.41,0.27,0.72,0.6,0.93,0.98c0.21,0.39,0.32,0.84,0.32,1.36c0,0.71,-0.25,1.33,-0.75,1.85c-0.5,0.53,-1.09,0.86,-1.77,0.99l0,0.12c0.27,0.04,0.58,0.14,0.94,0.28c0.35,0.15,0.66,0.33,0.91,0.55" fill="#00557f" stroke="none" fill-opacity="1"/>
<path d="m53.83,92.98l-1.89,0l0,3.58l-1.64,0l0,-3.58l-6.09,0l0,-1.97l6.16,-7.17l1.58,0l0,7.77l1.89,0l0,1.37m-3.53,-1.37l0,-5.73l-4.94,5.73l4.94,0" fill="#00557f" stroke="none" fill-opacity="1"/>
</g>
<g stroke-width="0.62" stroke="#005500" stroke-linecap="butt" fill="none">
<path d="M56.55,390.51l462.14,0"/>
<path d="M56.55,390.51l0,-3.75M75.81,390.51l0,-3.75M95.06,390.51l0,-3.75M114.32,390.51l0,-3.75M133.57,390.51l0,-3.75M152.83,390.51l0,-3.75M172.09,390.51l0,-3.75M191.34,390.51l0,-3.75M210.6,390.51l0,-3.75M229.85,390.51l0,-3.75M249.11,390.51l0,-3.75M268.37,390.51l0,-3.75M287.62,390.51l0,-3.75M306.88,390.51l0,-3.75M326.13,390.51l0,-3.75M345.39,390.51l0,-3.75M364.65,390.51l0,-3.75M383.9,390.51l0,-3.75M403.16,390.51l0,-3.75M422.41,390.51l0,-3.75M441.67,390.51l0,-3.75M460.93,390.51l0,-3.75M480.18,390.51l0,-3.75M499.44,390.51l0,-3.75M518.69,390.51l0,-3.75"/>
<path d="M56.55,390.51l0,-7.5M133.57,390.51l0,-7.5M210.6,390.51l0,-7.5M287.62,390.51l0,-7.5M364.65,390.51l0,-7.5M441.67,390.51l0,-7.5M518.69,390.51l0,-7.5"/>
<path d="M56.55,75.04l462.14,0"/>
<path d="M56.55,75.04l0,3.75M75.81,75.04l0,3.75M95.06,75.04l0,3.75M114.32,75.04l0,3.75M133.57,75.04l0,3.75M152.83,75.04l0,3.75M172.09,75.04l0,3.75M191.34,75.04l0,3.75M210.6,75.04l0,3.75M229.85,75.04l0,3.75M249.11,75.04l0,3.75M268.37,75.04l0,3.75M287.62,75.04l0,3.75M306.88,75.04l0,3.75M326.13,75.04l0,3.75M345.39,75.04l0,3.75M364.65,75.04l0,3.75M383.9,75.04l0,3.75M403.16,75.04l0,3.75M422.41,75.04l0,3.75M441.67,75.04l0,3.75M460.93,75.04l0,3.75M480.18,75.04l0,3.75M499.44,75.04l0,3.75M518.69,75.04l0,3.75"/>
<path d="M56.55,75.04l0,7.5M133.57,75.04l0,7.5M210.6,75.04l0,7.5M287.62,75.04l0,7.5M364.65,75.04l0,7.5M441.67,75.04l0,7.5M518.69,75.04l0,7.5"/>
</g>
<g stroke="#00557f" stroke-width="1" fill="none">
<path d="m278.56,512.16c0,1.16,-0.25,2.2,-0.75,3.14c-0.5,0.94,-1.17,1.67,-2.02,2.19c-0.58,0.35,-1.23,0.61,-1.95,0.77c-0.71,0.16,-1.65,0.24,-2.82,0.24l-3.22,0l0,-12.72l3.19,0c1.24,0,2.23,0.09,2.96,0.27c0.73,0.18,1.35,0.42,1.85,0.73c0.86,0.54,1.54,1.26,2.02,2.16c0.48,0.9,0.73,1.97,0.73,3.21m-1.77,-0.03c0,-1,-0.17,-1.84,-0.52,-2.52c-0.35,-0.68,-0.87,-1.22,-1.55,-1.62c-0.5,-0.28,-1.03,-0.48,-1.59,-0.59c-0.56,-0.11,-1.24,-0.16,-2.03,-0.16l-1.58,0l0,9.81l1.58,0c0.82,0,1.54,-0.06,2.14,-0.18c0.6,-0.12,1.16,-0.34,1.67,-0.66c0.62,-0.41,1.1,-0.94,1.41,-1.6c0.32,-0.66,0.48,-1.49,0.48,-2.48m12.31,6.37l-1.59,0l0,-1.02c-0.15,0.09,-0.34,0.23,-0.59,0.41c-0.24,0.18,-0.48,0.31,-0.7,0.41c-0.27,0.14,-0.58,0.25,-0.93,0.34c-0.35,0.09,-0.76,0.13,-1.23,0.13c-0.85,0,-1.58,-0.28,-2.18,-0.85c-0.6,-0.57,-0.9,-1.29,-0.9,-2.18c0,-0.73,0.15,-1.32,0.46,-1.77c0.31,-0.45,0.75,-0.8,1.34,-1.05c0.58,-0.26,1.28,-0.43,2.09,-0.52c0.81,-0.09,1.69,-0.16,2.62,-0.21l0,-0.23c0,-0.36,-0.07,-0.67,-0.2,-0.91c-0.13,-0.24,-0.32,-0.43,-0.55,-0.58c-0.23,-0.12,-0.5,-0.21,-0.82,-0.26c-0.32,-0.05,-0.65,-0.07,-0.99,-0.07c-0.43,0,-0.9,0.05,-1.41,0.16c-0.52,0.11,-1.05,0.27,-1.62,0.49l-0.08,0l0,-1.64c0.31,-0.08,0.77,-0.18,1.36,-0.28c0.59,-0.1,1.18,-0.16,1.75,-0.16c0.68,0,1.26,0.06,1.76,0.17c0.49,0.11,0.92,0.3,1.29,0.56c0.36,0.27,0.64,0.61,0.83,1.02c0.19,0.41,0.28,0.92,0.28,1.54l0,6.48m-1.59,-2.34l0,-2.66c-0.49,0.02,-1.07,0.06,-1.73,0.12c-0.67,0.06,-1.19,0.14,-1.58,0.26c-0.46,0.12,-0.83,0.33,-1.12,0.6c-0.29,0.28,-0.43,0.66,-0.43,1.15c0,0.54,0.16,0.95,0.49,1.23c0.33,0.28,0.83,0.41,1.51,0.41c0.57,0,1.09,-0.11,1.55,-0.33c0.46,-0.22,0.9,-0.48,1.3,-0.78m10.12,2.27c-0.3,0.07,-0.63,0.14,-0.98,0.19c-0.35,0.05,-0.67,0.08,-0.95,0.08c-0.97,0,-1.71,-0.26,-2.22,-0.79c-0.51,-0.53,-0.77,-1.37,-0.77,-2.52l0,-5.06l-1.08,0l0,-1.36l1.08,0l0,-2.73l1.61,0l0,2.73l3.31,0l0,1.36l-3.31,0l0,4.34c0,0.5,0.01,0.89,0.04,1.17c0.03,0.28,0.11,0.55,0.24,0.8c0.12,0.23,0.3,0.4,0.52,0.5c0.22,0.1,0.55,0.16,1,0.16c0.26,0,0.53,-0.04,0.82,-0.12c0.29,-0.08,0.49,-0.14,0.62,-0.2l0.08,0l0,1.45m10.05,-4.53l-7.05,0c0,0.59,0.09,1.11,0.27,1.54c0.18,0.43,0.42,0.79,0.73,1.07c0.29,0.27,0.64,0.48,1.05,0.62c0.41,0.14,0.86,0.21,1.35,0.21c0.65,0,1.3,-0.13,1.95,-0.39c0.66,-0.26,1.12,-0.52,1.41,-0.77l0.08,0l0,1.75c-0.53,0.23,-1.08,0.42,-1.65,0.57c-0.57,0.15,-1.16,0.23,-1.77,0.23c-1.58,0,-2.82,-0.43,-3.71,-1.28c-0.89,-0.85,-1.34,-2.07,-1.34,-3.66c0,-1.56,0.42,-2.8,1.27,-3.72c0.85,-0.92,1.97,-1.37,3.37,-1.37c1.29,0,2.29,0.38,2.98,1.13c0.7,0.76,1.05,1.82,1.05,3.2l0,0.87m-1.58,-1.23c0,-0.83,-0.21,-1.48,-0.63,-1.95c-0.42,-0.46,-1.06,-0.7,-1.91,-0.7c-0.85,0,-1.54,0.25,-2.05,0.76c-0.51,0.51,-0.8,1.13,-0.87,1.88l5.47,0" fill="#00557f" stroke="none" fill-opacity="1"/>
</g>
<g stroke="#00557f" stroke-width="1" transform="matrix(0 -1 1 0 65.55 496.51)" fill="none">
<path d="m9.98,0l-8.61,0l0,-1.78c0.59,-0.52,1.19,-1.04,1.8,-1.55c0.6,-0.51,1.17,-1.02,1.69,-1.53c1.09,-1.05,1.84,-1.89,2.24,-2.52c0.4,-0.62,0.6,-1.3,0.6,-2.03c0,-0.66,-0.22,-1.17,-0.65,-1.55c-0.43,-0.37,-1.04,-0.56,-1.82,-0.56c-0.52,0,-1.08,0.09,-1.69,0.27c-0.6,0.18,-1.19,0.46,-1.77,0.84l-0.09,0l0,-1.78c0.41,-0.21,0.95,-0.39,1.62,-0.55c0.68,-0.16,1.33,-0.24,1.95,-0.24c1.31,0,2.34,0.32,3.08,0.95c0.74,0.63,1.11,1.48,1.11,2.55c0,0.48,-0.06,0.93,-0.19,1.35c-0.12,0.42,-0.31,0.82,-0.55,1.2c-0.22,0.35,-0.48,0.7,-0.77,1.04c-0.3,0.34,-0.66,0.72,-1.09,1.13c-0.61,0.6,-1.25,1.19,-1.9,1.75c-0.65,0.56,-1.26,1.08,-1.82,1.55l6.84,0l0,1.47m10.98,-6.36c0,2.28,-0.36,3.96,-1.07,5.02c-0.71,1.07,-1.82,1.6,-3.32,1.6c-1.53,0,-2.65,-0.54,-3.35,-1.62c-0.7,-1.08,-1.05,-2.74,-1.05,-4.98c0,-2.26,0.36,-3.93,1.07,-5.02c0.71,-1.08,1.83,-1.62,3.34,-1.62c1.52,0,2.63,0.55,3.34,1.65c0.7,1.1,1.05,2.76,1.05,4.98m-2.25,3.87c0.21,-0.46,0.35,-1,0.41,-1.62c0.07,-0.62,0.1,-1.37,0.1,-2.25c0,-0.87,-0.03,-1.63,-0.1,-2.27c-0.07,-0.64,-0.21,-1.18,-0.41,-1.62c-0.2,-0.44,-0.47,-0.77,-0.81,-0.98c-0.34,-0.22,-0.79,-0.33,-1.33,-0.33c-0.54,0,-0.99,0.11,-1.34,0.33c-0.35,0.22,-0.63,0.55,-0.84,1c-0.19,0.43,-0.32,0.98,-0.39,1.66c-0.07,0.68,-0.11,1.42,-0.11,2.23c0,0.89,0.03,1.63,0.09,2.23c0.06,0.6,0.2,1.13,0.41,1.6c0.19,0.45,0.45,0.79,0.8,1.02c0.34,0.23,0.8,0.35,1.37,0.35c0.53,0,0.97,-0.11,1.33,-0.34c0.35,-0.22,0.62,-0.56,0.81,-1.01m13.25,-3.87c0,2.28,-0.36,3.96,-1.07,5.02c-0.71,1.07,-1.82,1.6,-3.32,1.6c-1.53,0,-2.65,-0.54,-3.35,-1.62c-0.7,-1.08,-1.05,-2.74,-1.05,-4.98c0,-2.26,0.36,-3.93,1.07,-5.02c0.71,-1.08,1.83,-1.62,3.34,-1.62c1.52,0,2.63,0.55,3.34,1.65c0.7,1.1,1.05,2.76,1.05,4.98m-2.25,3.87c0.21,-0.46,0.35,-1,0.41,-1.62c0.07,-0.62,0.1,-1.37,0.1,-2.25c0,-0.87,-0.03,-1.63,-0.1,-2.27c-0.07,-0.64,-0.21,-1.18,-0.41,-1.62c-0.2,-0.44,-0.47,-0.77,-0.81,-0.98c-0.34,-0.22,-0.79,-0.33,-1.33,-0.33c-0.54,0,-0.99,0.11,-1.34,0.33c-0.35,0.22,-0.63,0.55,-0.84,1c-0.19,0.43,-0.32,0.98,-0.39,1.66c-0.07,0.68,-0.11,1.42,-0.11,2.23c0,0.89,0.03,1.63,0.09,2.23c0.06,0.6,0.2,1.13,0.41,1.6c0.19,0.45,0.45,0.79,0.8,1.02c0.34,0.23,0.8,0.35,1.37,0.35c0.53,0,0.97,-0.11,1.33,-0.34c0.35,-0.22,0.62,-0.56,0.81,-1.01m13.25,-4.64c0,1.11,-0.12,2.12,-0.37,3.02c-0.25,0.9,-0.64,1.67,-1.16,2.32c-0.51,0.65,-1.16,1.15,-1.94,1.5c-0.78,0.35,-1.7,0.53,-2.75,0.53c-0.3,0,-0.58,-0.02,-0.84,-0.05c-0.26,-0.03,-0.49,-0.08,-0.7,-0.16l0,-1.62l0.09,0c0.16,0.08,0.39,0.16,0.69,0.24c0.3,0.08,0.64,0.12,1.02,0.12c1.26,0,2.25,-0.38,2.96,-1.13c0.71,-0.76,1.13,-1.8,1.24,-3.13c-0.53,0.32,-1.03,0.55,-1.5,0.69c-0.47,0.14,-0.98,0.2,-1.53,0.2c-0.52,0,-0.99,-0.05,-1.41,-0.15c-0.42,-0.1,-0.85,-0.3,-1.27,-0.6c-0.51,-0.34,-0.89,-0.78,-1.14,-1.32c-0.25,-0.54,-0.37,-1.18,-0.37,-1.93c0,-1.29,0.43,-2.35,1.28,-3.16c0.85,-0.82,1.9,-1.23,3.12,-1.23c0.61,0,1.18,0.1,1.71,0.29c0.53,0.19,0.98,0.48,1.37,0.87c0.49,0.47,0.86,1.08,1.12,1.82c0.26,0.74,0.39,1.71,0.39,2.88m-1.72,-0.37c0,-0.87,-0.09,-1.58,-0.27,-2.12c-0.18,-0.54,-0.43,-0.96,-0.76,-1.26c-0.27,-0.25,-0.56,-0.43,-0.87,-0.55c-0.31,-0.11,-0.64,-0.17,-0.99,-0.17c-0.82,0,-1.47,0.26,-1.95,0.77c-0.47,0.52,-0.71,1.24,-0.71,2.16c0,0.54,0.08,0.98,0.23,1.33c0.15,0.34,0.41,0.64,0.77,0.89c0.26,0.18,0.54,0.3,0.85,0.36c0.31,0.06,0.65,0.09,1.02,0.09c0.45,0,0.9,-0.06,1.35,-0.18c0.45,-0.12,0.88,-0.29,1.29,-0.52c0,-0.12,0.01,-0.24,0.02,-0.36c0.01,-0.11,0.02,-0.27,0.02,-0.45m9.39,2.7l-5.33,0l0,-1.55l5.33,0l0,1.55m11.33,-1.56c0,2.28,-0.36,3.96,-1.07,5.02c-0.71,1.07,-1.82,1.6,-3.32,1.6c-1.53,0,-2.65,-0.54,-3.35,-1.62c-0.7,-1.08,-1.05,-2.74,-1.05,-4.98c0,-2.26,0.36,-3.93,1.07,-5.02c0.71,-1.08,1.83,-1.62,3.34,-1.62c1.52,0,2.63,0.55,3.34,1.65c0.7,1.1,1.05,2.76,1.05,4.98m-2.25,3.87c0.21,-0.46,0.35,-1,0.41,-1.62c0.07,-0.62,0.1,-1.37,0.1,-2.25c0,-0.87,-0.03,-1.63,-0.1,-2.27c-0.07,-0.64,-0.21,-1.18,-0.41,-1.62c-0.2,-0.44,-0.47,-0.77,-0.81,-0.98c-0.34,-0.22,-0.79,-0.33,-1.33,-0.33c-0.54,0,-0.99,0.11,-1.34,0.33c-0.35,0.22,-0.63,0.55,-0.84,1c-0.19,0.43,-0.32,0.98,-0.39,1.66c-0.07,0.68,-0.11,1.42,-0.11,2.23c0,0.89,0.03,1.63,0.09,2.23c0.06,0.6,0.2,1.13,0.41,1.6c0.19,0.45,0.45,0.79,0.8,1.02c0.34,0.23,0.8,0.35,1.37,0.35c0.53,0,0.97,-0.11,1.33,-0.34c0.35,-0.22,0.62,-0.56,0.81,-1.01m12.16,-3.64c0.27,0.24,0.49,0.54,0.67,0.91c0.18,0.37,0.27,0.85,0.27,1.45c0,0.58,-0.11,1.12,-0.32,1.6c-0.21,0.48,-0.51,0.9,-0.88,1.26c-0.43,0.4,-0.93,0.69,-1.51,0.88c-0.58,0.19,-1.21,0.29,-1.9,0.29c-0.71,0,-1.41,-0.08,-2.09,-0.25c-0.69,-0.17,-1.25,-0.35,-1.69,-0.55l0,-1.8l0.14,0c0.48,0.32,1.05,0.59,1.7,0.8c0.66,0.21,1.29,0.31,1.89,0.31c0.36,0,0.75,-0.06,1.15,-0.18c0.4,-0.12,0.73,-0.29,0.98,-0.52c0.27,-0.25,0.47,-0.53,0.59,-0.83c0.12,-0.3,0.19,-0.68,0.19,-1.14c0,-0.46,-0.07,-0.84,-0.22,-1.14c-0.15,-0.3,-0.34,-0.54,-0.59,-0.7c-0.26,-0.18,-0.57,-0.3,-0.94,-0.36c-0.36,-0.06,-0.76,-0.09,-1.17,-0.09l-0.78,0l0,-1.42l0.61,0c0.86,0,1.55,-0.18,2.07,-0.55c0.52,-0.36,0.77,-0.89,0.77,-1.58c0,-0.31,-0.07,-0.58,-0.2,-0.81c-0.13,-0.23,-0.32,-0.42,-0.55,-0.56c-0.24,-0.16,-0.5,-0.26,-0.78,-0.32c-0.28,-0.06,-0.6,-0.09,-0.95,-0.09c-0.54,0,-1.12,0.1,-1.73,0.3c-0.61,0.2,-1.18,0.47,-1.73,0.81l-0.08,0l0,-1.78c0.41,-0.2,0.95,-0.38,1.62,-0.55c0.67,-0.17,1.33,-0.25,1.96,-0.25c0.62,0,1.17,0.06,1.64,0.17c0.47,0.11,0.9,0.3,1.28,0.55c0.41,0.27,0.72,0.6,0.93,0.98c0.21,0.39,0.32,0.84,0.32,1.36c0,0.71,-0.25,1.33,-0.75,1.85c-0.5,0.53,-1.09,0.86,-1.77,0.99l0,0.12c0.27,0.04,0.58,0.14,0.94,0.28c0.35,0.15,0.66,0.33,0.91,0.55m8.77,1.33l-5.33,0l0,-1.55l5.33,0l0,1.55m10.62,4.8l-6.89,0l0,-1.3l2.66,0l0,-8.53l-2.66,0l0,-1.16c0.35,0,0.74,-0.03,1.15,-0.09c0.41,-0.06,0.72,-0.15,0.93,-0.27c0.27,-0.14,0.48,-0.31,0.63,-0.53c0.15,-0.22,0.24,-0.52,0.26,-0.89l1.33,0l0,11.47l2.59,0l0,1.3m11.7,-6.36c0,2.28,-0.36,3.96,-1.07,5.02c-0.71,1.07,-1.82,1.6,-3.32,1.6c-1.53,0,-2.65,-0.54,-3.35,-1.62c-0.7,-1.08,-1.05,-2.74,-1.05,-4.98c0,-2.26,0.36,-3.93,1.07,-5.02c0.71,-1.08,1.83,-1.62,3.34,-1.62c1.52,0,2.63,0.55,3.34,1.65c0.7,1.1,1.05,2.76,1.05,4.98m-2.25,3.87c0.21,-0.46,0.35,-1,0.41,-1.62c0.07,-0.62,0.1,-1.37,0.1,-2.25c0,-0.87,-0.03,-1.63,-0.1,-2.27c-0.07,-0.64,-0.21,-1.18,-0.41,-1.62c-0.2,-0.44,-0.47,-0.77,-0.81,-0.98c-0.34,-0.22,-0.79,-0.33,-1.33,-0.33c-0.54,0,-0.99,0.11,-1.34,0.33c-0.35,0.22,-0.63,0.55,-0.84,1c-0.19,0.43,-0.32,0.98,-0.39,1.66c-0.07,0.68,-0.11,1.42,-0.11,2.23c0,0.89,0.03,1.63,0.09,2.23c0.06,0.6,0.2,1.13,0.41,1.6c0.19,0.45,0.45,0.79,0.8,1.02c0.34,0.23,0.8,0.35,1.37,0.35c0.53,0,0.97,-0.11,1.33,-0.34c0.35,-0.22,0.62,-0.56,0.81,-1.01" fill="#00557f" stroke="none" fill-opacity="1"/>
</g>
<g stroke="#00557f" stroke-width="1" transform="matrix(0 -1 1 0 142.57 496.51)" fill="none">
<path d="m9.98,0l-8.61,0l0,-1.78c0.59,-0.52,1.19,-1.04,1.8,-1.55c0.6,-0.51,1.17,-1.02,1.69,-1.53c1.09,-1.05,1.84,-1.89,2.24,-2.52c0.4,-0.62,0.6,-1.3,0.6,-2.03c0,-0.66,-0.22,-1.17,-0.65,-1.55c-0.43,-0.37,-1.04,-0.56,-1.82,-0.56c-0.52,0,-1.08,0.09,-1.69,0.27c-0.6,0.18,-1.19,0.46,-1.77,0.84l-0.09,0l0,-1.78c0.41,-0.21,0.95,-0.39,1.62,-0.55c0.68,-0.16,1.33,-0.24,1.95,-0.24c1.31,0,2.34,0.32,3.08,0.95c0.74,0.63,1.11,1.48,1.11,2.55c0,0.48,-0.06,0.93,-0.19,1.35c-0.12,0.42,-0.31,0.82,-0.55,1.2c-0.22,0.35,-0.48,0.7,-0.77,1.04c-0.3,0.34,-0.66,0.72,-1.09,1.13c-0.61,0.6,-1.25,1.19,-1.9,1.75c-0.65,0.56,-1.26,1.08,-1.82,1.55l6.84,0l0,1.47m10.98,-6.36c0,2.28,-0.36,3.96,-1.07,5.02c-0.71,1.07,-1.82,1.6,-3.32,1.6c-1.53,0,-2.65,-0.54,-3.35,-1.62c-0.7,-1.08,-1.05,-2.74,-1.05,-4.98c0,-2.26,0.36,-3.93,1.07,-5.02c0.71,-1.08,1.83,-1.62,3.34,-1.62c1.52,0,2.63,0.55,3.34,1.65c0.7,1.1,1.05,2.76,1.05,4.98m-2.25,3.87c0.21,-0.46,0.35,-1,0.41,-1.62c0.07,-0.62,0.1,-1.37,0.1,-2.25c0,-0.87,-0.03,-1.63,-0.1,-2.27c-0.07,-0.64,-0.21,-1.18,-0.41,-1.62c-0.2,-0.44,-0.47,-0.77,-0.81,-0.98c-0.34,-0.22,-0.79,-0.33,-1.33,-0.33c-0.54,0,-0.99,0.11,-1.34,0.33c-0.35,0.22,-0.63,0.55,-0.84,1c-0.19,0.43,-0.32,0.98,-0.39,1.66c-0.07,0.68,-0.11,1.42,-0.11,2.23c0,0.89,0.03,1.63,0.09,2.23c0.06,0.6,0.2,1.13,0.41,1.6c0.19,0.45,0.45,0.79,0.8,1.02c0.34,0.23,0.8,0.35,1.37,0.35c0.53,0,0.97,-0.11,1.33,-0.34c0.35,-0.22,0.62,-0.56,0.81,-1.01m13.25,-3.87c0,2.28,-0.36,3.96,-1.07,5.02c-0.71,1.07,-1.82,1.6,-3.32,1.6c-1.53,0,-2.65,-0.54,-3.35,-1.62c-0.7,-1.08,-1.05,-2.74,-1.05,-4.98c0,-2.26,0.36,-3.93,1.07,-5.02c0.71,-1.08,1.83,-1.62,3.34,-1.62c1.52,0,2.63,0.55,3.34,1.65c0.7,1.1,1.05,2.76,1.05,4.98m-2.25,3.87c0.21,-0.46,0.35,-1,0.41,-1.62c0.07,-0.62,0.1,-1.37,0.1,-2.25c0,-0.87,-0.03,-1.63,-0.1,-2.27c-0.07,-0.64,-0.21,-1.18,-0.41,-1.62c-0.2,-0.44,-0.47,-0.77,-0.81,-0.98c-0.34,-0.22,-0.79,-0.33,-1.33,-0.33c-0.54,0,-0.99,0.11,-1.34,0.33c-0.35,0.22,-0.63,0.55,-0.84,1c-0.19,0.43,-0.32,0.98,-0.39,1.66c-0.07,0.68,-0.11,1.42,-0.11,2.23c0,0.89,0.03,1.63,0.09,2.23c0.06,0.6,0.2,1.13,0.41,1.6c0.19,0.45,0.45,0.79,0.8,1.02c0.34,0.23,0.8,0.35,1.37,0.35c0.53,0,0.97,-0.11,1.33,-0.34c0.35,-0.22,0.62,-0.56,0.81,-1.01m13.25,-4.64c0,1.11,-0.12,2.12,-0.37,3.02c-0.25,0.9,-0.64,1.67,-1.16,2.32c-0.51,0.65,-1.16,1.15,-1.94,1.5c-0.78,0.35,-1.7,0.53,-2.75,0.53c-0.3,0,-0.58,-0.02,-0.84,-0.05c-0.26,-0.03,-0.49,-0.08,-0.7,-0.16l0,-1.62l0.09,0c0.16,0.08,0.39,0.16,0.69,0.24c0.3,0.08,0.64,0.12,1.02,0.12c1.26,0,2.25,-0.38,2.96,-1.13c0.71,-0.76,1.13,-1.8,1.24,-3.13c-0.53,0.32,-1.03,0.55,-1.5,0.69c-0.47,0.14,-0.98,0.2,-1.53,0.2c-0.52,0,-0.99,-0.05,-1.41,-0.15c-0.42,-0.1,-0.85,-0.3,-1.27,-0.6c-0.51,-0.34,-0.89,-0.78,-1.14,-1.32c-0.25,-0.54,-0.37,-1.18,-0.37,-1.93c0,-1.29,0.43,-2.35,1.28,-3.16c0.85,-0.82,1.9,-1.23,3.12,-1.23c0.61,0,1.18,0.1,1.71,0.29c0.53,0.19,0.98,0.48,1.37,0.87c0.49,0.47,0.86,1.08,1.12,1.82c0.26,0.74,0.39,1.71,0.39,2.88m-1.72,-0.37c0,-0.87,-0.09,-1.58,-0.27,-2.12c-0.18,-0.54,-0.43,-0.96,-0.76,-1.26c-0.27,-0.25,-0.56,-0.43,-0.87,-0.55c-0.31,-0.11,-0.64,-0.17,-0.99,-0.17c-0.82,0,-1.47,0.26,-1.95,0.77c-0.47,0.52,-0.71,1.24,-0.71,2.16c0,0.54,0.08,0.98,0.23,1.33c0.15,0.34,0.41,0.64,0.77,0.89c0.26,0.18,0.54,0.3,0.85,0.36c0.31,0.06,0.65,0.09,1.02,0.09c0.45,0,0.9,-0.06,1.35,-0.18c0.45,-0.12,0.88,-0.29,1.29,-0.52c0,-0.12,0.01,-0.24,0.02,-0.36c0.01,-0.11,0.02,-0.27,0.02,-0.45m9.39,2.7l-5.33,0l0,-1.55l5.33,0l0,1.55m11.33,-1.56c0,2.28,-0.36,3.96,-1.07,5.02c-0.71,1.07,-1.82,1.6,-3.32,1.6c-1.53,0,-2.65,-0.54,-3.35,-1.62c-0.7,-1.08,-1.05,-2.74,-1.05,-4.98c0,-2.26,0.36,-3.93,1.07,-5.02c0.71,-1.08,1.83,-1.62,3.34,-1.62c1.52,0,2.63,0.55,3.34,1.65c0.7,1.1,1.05,2.76,1.05,4.98m-2.25,3.87c0.21,-0.46,0.35,-1,0.41,-1.62c0.07,-0.62,0.1,-1.37,0.1,-2.25c0,-0.87,-0.03,-1.63,-0.1,-2.27c-0.07,-0.64,-0.21,-1.18,-0.41,-1.62c-0.2,-0.44,-0.47,-0.77,-0.81,-0.98c-0.34,-0.22,-0.79,-0.33,-1.33,-0.33c-0.54,0,-0.99,0.11,-1.34,0.33c-0.35,0.22,-0.63,0.55,-0.84,1c-0.19,0.43,-0.32,0.98,-0.39,1.66c-0.07,0.68,-0.11,1.42,-0.11,2.23c0,0.89,0.03,1.63,0.09,2.23c0.06,0.6,0.2,1.13,0.41,1.6c0.19,0.45,0.45,0.79,0.8,1.02c0.34,0.23,0.8,0.35,1.37,0.35c0.53,0,0.97,-0.11,1.33,-0.34c0.35,-0.22,0.62,-0.56,0.81,-1.01m12.16,-3.64c0.27,0.24,0.49,0.54,0.67,0.91c0.18,0.37,0.27,0.85,0.27,1.45c0,0.58,-0.11,1.12,-0.32,1.6c-0.21,0.48,-0.51,0.9,-0.88,1.26c-0.43,0.4,-0.93,0.69,-1.51,0.88c-0.58,0.19,-1.21,0.29,-1.9,0.29c-0.71,0,-1.41,-0.08,-2.09,-0.25c-0.69,-0.17,-1.25,-0.35,-1.69,-0.55l0,-1.8l0.14,0c0.48,0.32,1.05,0.59,1.7,0.8c0.66,0.21,1.29,0.31,1.89,0.31c0.36,0,0.75,-0.06,1.15,-0.18c0.4,-0.12,0.73,-0.29,0.98,-0.52c0.27,-0.25,0.47,-0.53,0.59,-0.83c0.12,-0.3,0.19,-0.68,0.19,-1.14c0,-0.46,-0.07,-0.84,-0.22,-1.14c-0.15,-0.3,-0.34,-0.54,-0.59,-0.7c-0.26,-0.18,-0.57,-0.3,-0.94,-0.36c-0.36,-0.06,-0.76,-0.09,-1.17,-0.09l-0.78,0l0,-1.42l0.61,0c0.86,0,1.55,-0.18,2.07,-0.55c0.52,-0.36,0.77,-0.89,0.77,-1.58c0,-0.31,-0.07,-0.58,-0.2,-0.81c-0.13,-0.23,-0.32,-0.42,-0.55,-0.56c-0.24,-0.16,-0.5,-0.26,-0.78,-0.32c-0.28,-0.06,-0.6,-0.09,-0.95,-0.09c-0.54,0,-1.12,0.1,-1.73,0.3c-0.61,0.2,-1.18,0.47,-1.73,0.81l-0.08,0l0,-1.78c0.41,-0.2,0.95,-0.38,1.62,-0.55c0.67,-0.17,1.33,-0.25,1.96,-0.25c0.62,0,1.17,0.06,1.64,0.17c0.47,0.11,0.9,0.3,1.28,0.55c0.41,0.27,0.72,0.6,0.93,0.98c0.21,0.39,0.32,0.84,0.32,1.36c0,0.71,-0.25,1.33,-0.75,1.85c-0.5,0.53,-1.09,0.86,-1.77,0.99l0,0.12c0.27,0.04,0.58,0.14,0.94,0.28c0.35,0.15,0.66,0.33,0.91,0.55m8.77,1.33l-5.33,0l0,-1.55l5.33,0l0,1.55m10.62,4.8l-6.89,0l0,-1.3l2.66,0l0,-8.53l-2.66,0l0,-1.16c0.35,0,0.74,-0.03,1.15,-0.09c0.41,-0.06,0.72,-0.15,0.93,-0.27c0.27,-0.14,0.48,-0.31,0.63,-0.53c0.15,-0.22,0.24,-0.52,0.26,-0.89l1.33,0l0,11.47l2.59,0l0,1.3m11,0l-6.89,0l0,-1.3l2.66,0l0,-8.53l-2.66,0l0,-1.16c0.35,0,0.74,-0.03,1.15,-0.09c0.41,-0.06,0.72,-0.15,0.93,-0.27c0.27,-0.14,0.48,-0.31,0.63,-0.53c0.15,-0.22,0.24,-0.52,0.26,-0.89l1.33,0l0,11.47l2.59,0l0,1.3" fill="#00557f" stroke="none" fill-opacity="1"/>
</g>
<g stroke="#00557f" stroke-width="1" transform="matrix(0 -1 1 0 219.6 496.51)" fill="none">
<path d="m9.98,0l-8.61,0l0,-1.78c0.59,-0.52,1.19,-1.04,1.8,-1.55c0.6,-0.51,1.17,-1.02,1.69,-1.53c1.09,-1.05,1.84,-1.89,2.24,-2.52c0.4,-0.62,0.6,-1.3,0.6,-2.03c0,-0.66,-0.22,-1.17,-0.65,-1.55c-0.43,-0.37,-1.04,-0.56,-1.82,-0.56c-0.52,0,-1.08,0.09,-1.69,0.27c-0.6,0.18,-1.19,0.46,-1.77,0.84l-0.09,0l0,-1.78c0.41,-0.21,0.95,-0.39,1.62,-0.55c0.68,-0.16,1.33,-0.24,1.95,-0.24c1.31,0,2.34,0.32,3.08,0.95c0.74,0.63,1.11,1.48,1.11,2.55c0,0.48,-0.06,0.93,-0.19,1.35c-0.12,0.42,-0.31,0.82,-0.55,1.2c-0.22,0.35,-0.48,0.7,-0.77,1.04c-0.3,0.34,-0.66,0.72,-1.09,1.13c-0.61,0.6,-1.25,1.19,-1.9,1.75c-0.65,0.56,-1.26,1.08,-1.82,1.55l6.84,0l0,1.47m10.98,-6.36c0,2.28,-0.36,3.96,-1.07,5.02c-0.71,1.07,-1.82,1.6,-3.32,1.6c-1.53,0,-2.65,-0.54,-3.35,-1.62c-0.7,-1.08,-1.05,-2.74,-1.05,-4.98c0,-2.26,0.36,-3.93,1.07,-5.02c0.71,-1.08,1.83,-1.62,3.34,-1.62c1.52,0,2.63,0.55,3.34,1.65c0.7,1.1,1.05,2.76,1.05,4.98m-2.25,3.87c0.21,-0.46,0.35,-1,0.41,-1.62c0.07,-0.62,0.1,-1.37,0.1,-2.25c0,-0.87,-0.03,-1.63,-0.1,-2.27c-0.07,-0.64,-0.21,-1.18,-0.41,-1.62c-0.2,-0.44,-0.47,-0.77,-0.81,-0.98c-0.34,-0.22,-0.79,-0.33,-1.33,-0.33c-0.54,0,-0.99,0.11,-1.34,0.33c-0.35,0.22,-0.63,0.55,-0.84,1c-0.19,0.43,-0.32,0.98,-0.39,1.66c-0.07,0.68,-0.11,1.42,-0.11,2.23c0,0.89,0.03,1.63,0.09,2.23c0.06,0.6,0.2,1.13,0.41,1.6c0.19,0.45,0.45,0.79,0.8,1.02c0.34,0.23,0.8,0.35,1.37,0.35c0.53,0,0.97,-0.11,1.33,-0.34c0.35,-0.22,0.62,-0.56,0.81,-1.01m13.25,-3.87c0,2.28,-0.36,3.96,-1.07,5.02c-0.71,1.07,-1.82,1.6,-3.32,1.6c-1.53,0,-2.65,-0.54,-3.35,-1.62c-0.7,-1.08,-1.05,-2.74,-1.05,-4.98c0,-2.26,0.36,-3.93,1.07,-5.02c0.71,-1.08,1.83,-1.62,3.34,-1.62c1.52,0,2.63,0.55,3.34,1.65c0.7,1.1,1.05,2.76,1.05,4.98m-2.25,3.87c0.21,-0.46,0.35,-1,0.41,-1.62c0.07,-0.62,0.1,-1.37,0.1,-2.25c0,-0.87,-0.03,-1.63,-0.1,-2.27c-0.07,-0.64,-0.21,-1.18,-0.41,-1.62c-0.2,-0.44,-0.47,-0.77,-0.81,-0.98c-0.34,-0.22,-0.79,-0.33,-1.33,-0.33c-0.54,0,-0.99,0.11,-1.34,0.33c-0.35,0.22,-0.63,0.55,-0.84,1c-0.19,0.43,-0.32,0.98,-0.39,1.66c-0.07,0.68,-0.11,1.42,-0.11,2.23c0,0.89,0.03,1.63,0.09,2.23c0.06,0.6,0.2,1.13,0.41,1.6c0.19,0.45,0.45,0.79,0.8,1.02c0.34,0.23,0.8,0.35,1.37,0.35c0.53,0,0.97,-0.11,1.33,-0.34c0.35,-0.22,0.62,-0.56,0.81,-1.01m13.25,-4.64c0,1.11,-0.12,2.12,-0.37,3.02c-0.25,0.9,-0.64,1.67,-1.16,2.32c-0.51,0.65,-1.16,1.15,-1.94,1.5c-0.78,0.35,-1.7,0.53,-2.75,0.53c-0.3,0,-0.58,-0.02,-0.84,-0.05c-0.26,-0.03,-0.49,-0.08,-0.7,-0.16l0,-1.62l0.09,0c0.16,0.08,0.39,0.16,0.69,0.24c0.3,0.08,0.64,0.12,1.02,0.12c1.26,0,2.25,-0.38,2.96,-1.13c0.71,-0.76,1.13,-1.8,1.24,-3.13c-0.53,0.32,-1.03,0.55,-1.5,0.69c-0.47,0.14,-0.98,0.2,-1.53,0.2c-0.52,0,-0.99,-0.05,-1.41,-0.15c-0.42,-0.1,-0.85,-0.3,-1.27,-0.6c-0.51,-0.34,-0.89,-0.78,-1.14,-1.32c-0.25,-0.54,-0.37,-1.18,-0.37,-1.93c0,-1.29,0.43,-2.35,1.28,-3.16c0.85,-0.82,1.9,-1.23,3.12,-1.23c0.61,0,1.18,0.1,1.71,0.29c0.53,0.19,0.98,0.48,1.37,0.87c0.49,0.47,0.86,1.08,1.12,1.82c0.26,0.74,0.39,1.71,0.39,2.88m-1.72,-0.37c0,-0.87,-0.09,-1.58,-0.27,-2.12c-0.18,-0.54,-0.43,-0.96,-0.76,-1.26c-0.27,-0.25,-0.56,-0.43,-0.87,-0.55c-0.31,-0.11,-0.64,-0.17,-0.99,-0.17c-0.82,0,-1.47,0.26,-1.95,0.77c-0.47,0.52,-0.71,1.24,-0.71,2.16c0,0.54,0.08,0.98,0.23,1.33c0.15,0.34,0.41,0.64,0.77,0.89c0.26,0.18,0.54,0.3,0.85,0.36c0.31,0.06,0.65,0.09,1.02,0.09c0.45,0,0.9,-0.06,1.35,-0.18c0.45,-0.12,0.88,-0.29,1.29,-0.52c0,-0.12,0.01,-0.24,0.02,-0.36c0.01,-0.11,0.02,-0.27,0.02,-0.45m9.39,2.7l-5.33,0l0,-1.55l5.33,0l0,1.55m11.33,-1.56c0,2.28,-0.36,3.96,-1.07,5.02c-0.71,1.07,-1.82,1.6,-3.32,1.6c-1.53,0,-2.65,-0.54,-3.35,-1.62c-0.7,-1.08,-1.05,-2.74,-1.05,-4.98c0,-2.26,0.36,-3.93,1.07,-5.02c0.71,-1.08,1.83,-1.62,3.34,-1.62c1.52,0,2.63,0.55,3.34,1.65c0.7,1.1,1.05,2.76,1.05,4.98m-2.25,3.87c0.21,-0.46,0.35,-1,0.41,-1.62c0.07,-0.62,0.1,-1.37,0.1,-2.25c0,-0.87,-0.03,-1.63,-0.1,-2.27c-0.07,-0.64,-0.21,-1.18,-0.41,-1.62c-0.2,-0.44,-0.47,-0.77,-0.81,-0.98c-0.34,-0.22,-0.79,-0.33,-1.33,-0.33c-0.54,0,-0.99,0.11,-1.34,0.33c-0.35,0.22,-0.63,0.55,-0.84,1c-0.19,0.43,-0.32,0.98,-0.39,1.66c-0.07,0.68,-0.11,1.42,-0.11,2.23c0,0.89,0.03,1.63,0.09,2.23c0.06,0.6,0.2,1.13,0.41,1.6c0.19,0.45,0.45,0.79,0.8,1.02c0.34,0.23,0.8,0.35,1.37,0.35c0.53,0,0.97,-0.11,1.33,-0.34c0.35,-0.22,0.62,-0.56,0.81,-1.01m12.16,-3.64c0.27,0.24,0.49,0.54,0.67,0.91c0.18,0.37,0.27,0.85,0.27,1.45c0,0.58,-0.11,1.12,-0.32,1.6c-0.21,0.48,-0.51,0.9,-0.88,1.26c-0.43,0.4,-0.93,0.69,-1.51,0.88c-0.58,0.19,-1.21,0.29,-1.9,0.29c-0.71,0,-1.41,-0.08,-2.09,-0.25c-0.69,-0.17,-1.25,-0.35,-1.69,-0.55l0,-1.8l0.14,0c0.48,0.32,1.05,0.59,1.7,0.8c0.66,0.21,1.29,0.31,1.89,0.31c0.36,0,0.75,-0.06,1.15,-0.18c0.4,-0.12,0.73,-0.29,0.98,-0.52c0.27,-0.25,0.47,-0.53,0.59,-0.83c0.12,-0.3,0.19,-0.68,0.19,-1.14c0,-0.46,-0.07,-0.84,-0.22,-1.14c-0.15,-0.3,-0.34,-0.54,-0.59,-0.7c-0.26,-0.18,-0.57,-0.3,-0.94,-0.36c-0.36,-0.06,-0.76,-0.09,-1.17,-0.09l-0.78,0l0,-1.42l0.61,0c0.86,0,1.55,-0.18,2.07,-0.55c0.52,-0.36,0.77,-0.89,0.77,-1.58c0,-0.31,-0.07,-0.58,-0.2,-0.81c-0.13,-0.23,-0.32,-0.42,-0.55,-0.56c-0.24,-0.16,-0.5,-0.26,-0.78,-0.32c-0.28,-0.06,-0.6,-0.09,-0.95,-0.09c-0.54,0,-1.12,0.1,-1.73,0.3c-0.61,0.2,-1.18,0.47,-1.73,0.81l-0.08,0l0,-1.78c0.41,-0.2,0.95,-0.38,1.62,-0.55c0.67,-0.17,1.33,-0.25,1.96,-0.25c0.62,0,1.17,0.06,1.64,0.17c0.47,0.11,0.9,0.3,1.28,0.55c0.41,0.27,0.72,0.6,0.93,0.98c0.21,0.39,0.32,0.84,0.32,1.36c0,0.71,-0.25,1.33,-0.75,1.85c-0.5,0.53,-1.09,0.86,-1.77,0.99l0,0.12c0.27,0.04,0.58,0.14,0.94,0.28c0.35,0.15,0.66,0.33,0.91,0.55m8.77,1.33l-5.33,0l0,-1.55l5.33,0l0,1.55m10.62,4.8l-6.89,0l0,-1.3l2.66,0l0,-8.53l-2.66,0l0,-1.16c0.35,0,0.74,-0.03,1.15,-0.09c0.41,-0.06,0.72,-0.15,0.93,-0.27c0.27,-0.14,0.48,-0.31,0.63,-0.53c0.15,-0.22,0.24,-0.52,0.26,-0.89l1.33,0l0,11.47l2.59,0l0,1.3m11.72,0l-8.61,0l0,-1.78c0.59,-0.52,1.19,-1.04,1.8,-1.55c0.6,-0.51,1.17,-1.02,1.69,-1.53c1.09,-1.05,1.84,-1.89,2.24,-2.52c0.4,-0.62,0.6,-1.3,0.6,-2.03c0,-0.66,-0.22,-1.17,-0.65,-1.55c-0.43,-0.37,-1.04,-0.56,-1.82,-0.56c-0.52,0,-1.08,0.09,-1.69,0.27c-0.6,0.18,-1.19,0.46,-1.77,0.84l-0.09,0l0,-1.78c0.41,-0.21,0.95,-0.39,1.62,-0.55c0.68,-0.16,1.33,-0.24,1.95,-0.24c1.31,0,2.34,0.32,3.08,0.95c0.74,0.63,1.11,1.48,1.11,2.55c0,0.48,-0.06,0.93,-0.19,1.35c-0.12,0.42,-0.31,0.82,-0.55,1.2c-0.22,0.35,-0.48,0.7,-0.77,1.04c-0.3,0.34,-0.66,0.72,-1.09,1.13c-0.61,0.6,-1.25,1.19,-1.9,1.75c-0.65,0.56,-1.26,1.08,-1.82,1.55l6.84,0l0,1.47" fill="#00557f" stroke="none" fill-opacity="1"/>
</g>
<g stroke="#00557f" stroke-width="1" transform="matrix(0 -1 1 0 296.62 496.51)" fill="none">
<path d="m9.98,0l-8.61,0l0,-1.78c0.59,-0.52,1.19,-1.04,1.8,-1.55c0.6,-0.51,1.17,-1.02,1.69,-1.53c1.09,-1.05,1.84,-1.89,2.24,-2.52c0.4,-0.62,0.6,-1.3,0.6,-2.03c0,-0.66,-0.22,-1.17,-0.65,-1.55c-0.43,-0.37,-1.04,-0.56,-1.82,-0.56c-0.52,0,-1.08,0.09,-1.69,0.27c-0.6,0.18,-1.19,0.46,-1.77,0.84l-0.09,0l0,-1.78c0.41,-0.21,0.95,-0.39,1.62,-0.55c0.68,-0.16,1.33,-0.24,1.95,-0.24c1.31,0,2.34,0.32,3.08,0.95c0.74,0.63,1.11,1.48,1.11,2.55c0,0.48,-0.06,0.93,-0.19,1.35c-0.12,0.42,-0.31,0.82,-0.55,1.2c-0.22,0.35,-0.48,0.7,-0.77,1.04c-0.3,0.34,-0.66,0.72,-1.09,1.13c-0.61,0.6,-1.25,1.19,-1.9,1.75c-0.65,0.56,-1.26,1.08,-1.82,1.55l6.84,0l0,1.47m10.98,-6.36c0,2.28,-0.36,3.96,-1.07,5.02c-0.71,1.07,-1.82,1.6,-3.32,1.6c-1.53,0,-2.65,-0.54,-3.35,-1.62c-0.7,-1.08,-1.05,-2.74,-1.05,-4.98c0,-2.26,0.36,-3.93,1.07,-5.02c0.71,-1.08,1.83,-1.62,3.34,-1.62c1.52,0,2.63,0.55,3.34,1.65c0.7,1.1,1.05,2.76,1.05,4.98m-2.25,3.87c0.21,-0.46,0.35,-1,0.41,-1.62c0.07,-0.62,0.1,-1.37,0.1,-2.25c0,-0.87,-0.03,-1.63,-0.1,-2.27c-0.07,-0.64,-0.21,-1.18,-0.41,-1.62c-0.2,-0.44,-0.47,-0.77,-0.81,-0.98c-0.34,-0.22,-0.79,-0.33,-1.33,-0.33c-0.54,0,-0.99,0.11,-1.34,0.33c-0.35,0.22,-0.63,0.55,-0.84,1c-0.19,0.43,-0.32,0.98,-0.39,1.66c-0.07,0.68,-0.11,1.42,-0.11,2.23c0,0.89,0.03,1.63,0.09,2.23c0.06,0.6,0.2,1.13,0.41,1.6c0.19,0.45,0.45,0.79,0.8,1.02c0.34,0.23,0.8,0.35,1.37,0.35c0.53,0,0.97,-0.11,1.33,-0.34c0.35,-0.22,0.62,-0.56,0.81,-1.01m13.25,-3.87c0,2.28,-0.36,3.96,-1.07,5.02c-0.71,1.07,-1.82,1.6,-3.32,1.6c-1.53,0,-2.65,-0.54,-3.35,-1.62c-0.7,-1.08,-1.05,-2.74,-1.05,-4.98c0,-2.26,0.36,-3.93,1.07,-5.02c0.71,-1.08,1.83,-1.62,3.34,-1.62c1.52,0,2.63,0.55,3.34,1.65c0.7,1.1,1.05,2.76,1.05,4.98m-2.25,3.87c0.21,-0.46,0.35,-1,0.41,-1.62c0.07,-0.62,0.1,-1.37,0.1,-2.25c0,-0.87,-0.03,-1.63,-0.1,-2.27c-0.07,-0.64,-0.21,-1.18,-0.41,-1.62c-0.2,-0.44,-0.47,-0.77,-0.81,-0.98c-0.34,-0.22,-0.79,-0.33,-1.33,-0.33c-0.54,0,-0.99,0.11,-1.34,0.33c-0.35,0.22,-0.63,0.55,-0.84,1c-0.19,0.43,-0.32,0.98,-0.39,1.66c-0.07,0.68,-0.11,1.42,-0.11,2.23c0,0.89,0.03,1.63,0.09,2.23c0.06,0.6,0.2,1.13,0.41,1.6c0.19,0.45,0.45,0.79,0.8,1.02c0.34,0.23,0.8,0.35,1.37,0.35c0.53,0,0.97,-0.11,1.33,-0.34c0.35,-0.22,0.62,-0.56,0.81,-1.01m13.25,-4.64c0,1.11,-0.12,2.12,-0.37,3.02c-0.25,0.9,-0.64,1.67,-1.16,2.32c-0.51,0.65,-1.16,1.15,-1.94,1.5c-0.78,0.35,-1.7,0.53,-2.75,0.53c-0.3,0,-0.58,-0.02,-0.84,-0.05c-0.26,-0.03,-0.49,-0.08,-0.7,-0.16l0,-1.62l0.09,0c0.16,0.08,0.39,0.16,0.69,0.24c0.3,0.08,0.64,0.12,1.02,0.12c1.26,0,2.25,-0.38,2.96,-1.13c0.71,-0.76,1.13,-1.8,1.24,-3.13c-0.53,0.32,-1.03,0.55,-1.5,0.69c-0.47,0.14,-0.98,0.2,-1.53,0.2c-0.52,0,-0.99,-0.05,-1.41,-0.15c-0.42,-0.1,-0.85,-0.3,-1.27,-0.6c-0.51,-0.34,-0.89,-0.78,-1.14,-1.32c-0.25,-0.54,-0.37,-1.18,-0.37,-1.93c0,-1.29,0.43,-2.35,1.28,-3.16c0.85,-0.82,1.9,-1.23,3.12,-1.23c0.61,0,1.18,0.1,1.71,0.29c0.53,0.19,0.98,0.48,1.37,0.87c0.49,0.47,0.86,1.08,1.12,1.82c0.26,0.74,0.39,1.71,0.39,2.88m-1.72,-0.37c0,-0.87,-0.09,-1.58,-0.27,-2.12c-0.18,-0.54,-0.43,-0.96,-0.76,-1.26c-0.27,-0.25,-0.56,-0.43,-0.87,-0.55c-0.31,-0.11,-0.64,-0.17,-0.99,-0.17c-0.82,0,-1.47,0.26,-1.95,0.77c-0.47,0.52,-0.71,1.24,-0.71,2.16c0,0.54,0.08,0.98,0.23,1.33c0.15,0.34,0.41,0.64,0.77,0.89c0.26,0.18,0.54,0.3,0.85,0.36c0.31,0.06,0.65,0.09,1.02,0.09c0.45,0,0.9,-0.06,1.35,-0.18c0.45,-0.12,0.88,-0.29,1.29,-0.52c0,-0.12,0.01,-0.24,0.02,-0.36c0.01,-0.11,0.02,-0.27,0.02,-0.45m9.39,2.7l-5.33,0l0,-1.55l5.33,0l0,1.55m11.33,-1.56c0,2.28,-0.36,3.96,-1.07,5.02c-0.71,1.07,-1.82,1.6,-3.32,1.6c-1.53,0,-2.65,-0.54,-3.35,-1.62c-0.7,-1.08,-1.05,-2.74,-1.05,-4.98c0,-2.26,0.36,-3.93,1.07,-5.02c0.71,-1.08,1.83,-1.62,3.34,-1.62c1.52,0,2.63,0.55,3.34,1.65c0.7,1.1,1.05,2.76,1.05,4.98m-2.25,3.87c0.21,-0.46,0.35,-1,0.41,-1.62c0.07,-0.62,0.1,-1.37,0.1,-2.25c0,-0.87,-0.03,-1.63,-0.1,-2.27c-0.07,-0.64,-0.21,-1.18,-0.41,-1.62c-0.2,-0.44,-0.47,-0.77,-0.81,-0.98c-0.34,-0.22,-0.79,-0.33,-1.33,-0.33c-0.54,0,-0.99,0.11,-1.34,0.33c-0.35,0.22,-0.63,0.55,-0.84,1c-0.19,0.43,-0.32,0.98,-0.39,1.66c-0.07,0.68,-0.11,1.42,-0.11,2.23c0,0.89,0.03,1.63,0.09,2.23c0.06,0.6,0.2,1.13,0.41,1.6c0.19,0.45,0.45,0.79,0.8,1.02c0.34,0.23,0.8,0.35,1.37,0.35c0.53,0,0.97,-0.11,1.33,-0.34c0.35,-0.22,0.62,-0.56,0.81,-1.01m12.16,-3.64c0.27,0.24,0.49,0.54,0.67,0.91c0.18,0.37,0.27,0.85,0.27,1.45c0,0.58,-0.11,1.12,-0.32,1.6c-0.21,0.48,-0.51,0.9,-0.88,1.26c-0.43,0.4,-0.93,0.69,-1.51,0.88c-0.58,0.19,-1.21,0.29,-1.9,0.29c-0.71,0,-1.41,-0.08,-2.09,-0.25c-0.69,-0.17,-1.25,-0.35,-1.69,-0.55l0,-1.8l0.14,0c0.48,0.32,1.05,0.59,1.7,0.8c0.66,0.21,1.29,0.31,1.89,0.31c0.36,0,0.75,-0.06,1.15,-0.18c0.4,-0.12,0.73,-0.29,0.98,-0.52c0.27,-0.25,0.47,-0.53,0.59,-0.83c0.12,-0.3,0.19,-0.68,0.19,-1.14c0,-0.46,-0.07,-0.84,-0.22,-1.14c-0.15,-0.3,-0.34,-0.54,-0.59,-0.7c-0.26,-0.18,-0.57,-0.3,-0.94,-0.36c-0.36,-0.06,-0.76,-0.09,-1.17,-0.09l-0.78,0l0,-1.42l0.61,0c0.86,0,1.55,-0.18,2.07,-0.55c0.52,-0.36,0.77,-0.89,0.77,-1.58c0,-0.31,-0.07,-0.58,-0.2,-0.81c-0.13,-0.23,-0.32,-0.42,-0.55,-0.56c-0.24,-0.16,-0.5,-0.26,-0.78,-0.32c-0.28,-0.06,-0.6,-0.09,-0.95,-0.09c-0.54,0,-1.12,0.1,-1.73,0.3c-0.61,0.2,-1.18,0.47,-1.73,0.81l-0.08,0l0,-1.78c0.41,-0.2,0.95,-0.38,1.62,-0.55c0.67,-0.17,1.33,-0.25,1.96,-0.25c0.62,0,1.17,0.06,1.64,0.17c0.47,0.11,0.9,0.3,1.28,0.55c0.41,0.27,0.72,0.6,0.93,0.98c0.21,0.39,0.32,0.84,0.32,1.36c0,0.71,-0.25,1.33,-0.75,1.85c-0.5,0.53,-1.09,0.86,-1.77,0.99l0,0.12c0.27,0.04,0.58,0.14,0.94,0.28c0.35,0.15,0.66,0.33,0.91,0.55m8.77,1.33l-5.33,0l0,-1.55l5.33,0l0,1.55m10.62,4.8l-6.89,0l0,-1.3l2.66,0l0,-8.53l-2.66,0l0,-1.16c0.35,0,0.74,-0.03,1.15,-0.09c0.41,-0.06,0.72,-0.15,0.93,-0.27c0.27,-0.14,0.48,-0.31,0.63,-0.53c0.15,-0.22,0.24,-0.52,0.26,-0.89l1.33,0l0,11.47l2.59,0l0,1.3m10.61,-6.12c0.27,0.24,0.49,0.54,0.67,0.91c0.18,0.37,0.27,0.85,0.27,1.45c0,0.58,-0.11,1.12,-0.32,1.6c-0.21,0.48,-0.51,0.9,-0.88,1.26c-0.43,0.4,-0.93,0.69,-1.51,0.88c-0.58,0.19,-1.21,0.29,-1.9,0.29c-0.71,0,-1.41,-0.08,-2.09,-0.25c-0.69,-0.17,-1.25,-0.35,-1.69,-0.55l0,-1.8l0.14,0c0.48,0.32,1.05,0.59,1.7,0.8c0.66,0.21,1.29,0.31,1.89,0.31c0.36,0,0.75,-0.06,1.15,-0.18c0.4,-0.12,0.73,-0.29,0.98,-0.52c0.27,-0.25,0.47,-0.53,0.59,-0.83c0.12,-0.3,0.19,-0.68,0.19,-1.14c0,-0.46,-0.07,-0.84,-0.22,-1.14c-0.15,-0.3,-0.34,-0.54,-0.59,-0.7c-0.26,-0.18,-0.57,-0.3,-0.94,-0.36c-0.36,-0.06,-0.76,-0.09,-1.17,-0.09l-0.78,0l0,-1.42l0.61,0c0.86,0,1.55,-0.18,2.07,-0.55c0.52,-0.36,0.77,-0.89,0.77,-1.58c0,-0.31,-0.07,-0.58,-0.2,-0.81c-0.13,-0.23,-0.32,-0.42,-0.55,-0.56c-0.24,-0.16,-0.5,-0.26,-0.78,-0.32c-0.28,-0.06,-0.6,-0.09,-0.95,-0.09c-0.54,0,-1.12,0.1,-1.73,0.3c-0.61,0.2,-1.18,0.47,-1.73,0.81l-0.08,0l0,-1.78c0.41,-0.2,0.95,-0.38,1.62,-0.55c0.67,-0.17,1.33,-0.25,1.96,-0.25c0.62,0,1.17,0.06,1.64,0.17c0.47,0.11,0.9,0.3,1.28,0.55c0.41,0.27,0.72,0.6,0.93,0.98c0.21,0.39,0.32,0.84,0.32,1.36c0,0.71,-0.25,1.33,-0.75,1.85c-0.5,0.53,-1.09,0.86,-1.77,0.99l0,0.12c0.27,0.04,0.58,0.14,0.94,0.28c0.35,0.15,0.66,0.33,0.91,0.55" fill="#00557f" stroke="none" fill-opacity="1"/>
</g>
<g stroke="#00557f" stroke-width="1" transform="matrix(0 -1 1 0 373.65 496.51)" fill="none">
<path d="m9.98,0l-8.61,0l0,-1.78c0.59,-0.52,1.19,-1.04,1.8,-1.55c0.6,-0.51,1.17,-1.02,1.69,-1.53c1.09,-1.05,1.84,-1.89,2.24,-2.52c0.4,-0.62,0.6,-1.3,0.6,-2.03c0,-0.66,-0.22,-1.17,-0.65,-1.55c-0.43,-0.37,-1.04,-0.56,-1.82,-0.56c-0.52,0,-1.08,0.09,-1.69,0.27c-0.6,0.18,-1.19,0.46,-1.77,0.84l-0.09,0l0,-1.78c0.41,-0.21,0.95,-0.39,1.62,-0.55c0.68,-0.16,1.33,-0.24,1.95,-0.24c1.31,0,2.34,0.32,3.08,0.95c0.74,0.63,1.11,1.48,1.11,2.55c0,0.48,-0.06,0.93,-0.19,1.35c-0.12,0.42,-0.31,0.82,-0.55,1.2c-0.22,0.35,-0.48,0.7,-0.77,1.04c-0.3,0.34,-0.66,0.72,-1.09,1.13c-0.61,0.6,-1.25,1.19,-1.9,1.75c-0.65,0.56,-1.26,1.08,-1.82,1.55l6.84,0l0,1.47m10.98,-6.36c0,2.28,-0.36,3.96,-1.07,5.02c-0.71,1.07,-1.82,1.6,-3.32,1.6c-1.53,0,-2.65,-0.54,-3.35,-1.62c-0.7,-1.08,-1.05,-2.74,-1.05,-4.98c0,-2.26,0.36,-3.93,1.07,-5.02c0.71,-1.08,1.83,-1.62,3.34,-1.62c1.52,0,2.63,0.55,3.34,1.65c0.7,1.1,1.05,2.76,1.05,4.98m-2.25,3.87c0.21,-0.46,0.35,-1,0.41,-1.62c0.07,-0.62,0.1,-1.37,0.1,-2.25c0,-0.87,-0.03,-1.63,-0.1,-2.27c-0.07,-0.64,-0.21,-1.18,-0.41,-1.62c-0.2,-0.44,-0.47,-0.77,-0.81,-0.98c-0.34,-0.22,-0.79,-0.33,-1.33,-0.33c-0.54,0,-0.99,0.11,-1.34,0.33c-0.35,0.22,-0.63,0.55,-0.84,1c-0.19,0.43,-0.32,0.98,-0.39,1.66c-0.07,0.68,-0.11,1.42,-0.11,2.23c0,0.89,0.03,1.63,0.09,2.23c0.06,0.6,0.2,1.13,0.41,1.6c0.19,0.45,0.45,0.79,0.8,1.02c0.34,0.23,0.8,0.35,1.37,0.35c0.53,0,0.97,-0.11,1.33,-0.34c0.35,-0.22,0.62,-0.56,0.81,-1.01m13.25,-3.87c0,2.28,-0.36,3.96,-1.07,5.02c-0.71,1.07,-1.82,1.6,-3.32,1.6c-1.53,0,-2.65,-0.54,-3.35,-1.62c-0.7,-1.08,-1.05,-2.74,-1.05,-4.98c0,-2.26,0.36,-3.93,1.07,-5.02c0.71,-1.08,1.83,-1.62,3.34,-1.62c1.52,0,2.63,0.55,3.34,1.65c0.7,1.1,1.05,2.76,1.05,4.98m-2.25,3.87c0.21,-0.46,0.35,-1,0.41,-1.62c0.07,-0.62,0.1,-1.37,0.1,-2.25c0,-0.87,-0.03,-1.63,-0.1,-2.27c-0.07,-0.64,-0.21,-1.18,-0.41,-1.62c-0.2,-0.44,-0.47,-0.77,-0.81,-0.98c-0.34,-0.22,-0.79,-0.33,-1.33,-0.33c-0.54,0,-0.99,0.11,-1.34,0.33c-0.35,0.22,-0.63,0.55,-0.84,1c-0.19,0.43,-0.32,0.98,-0.39,1.66c-0.07,0.68,-0.11,1.42,-0.11,2.23c0,0.89,0.03,1.63,0.09,2.23c0.06,0.6,0.2,1.13,0.41,1.6c0.19,0.45,0.45,0.79,0.8,1.02c0.34,0.23,0.8,0.35,1.37,0.35c0.53,0,0.97,-0.11,1.33,-0.34c0.35,-0.22,0.62,-0.56,0.81,-1.01m13.25,-4.64c0,1.11,-0.12,2.12,-0.37,3.02c-0.25,0.9,-0.64,1.67,-1.16,2.32c-0.51,0.65,-1.16,1.15,-1.94,1.5c-0.78,0.35,-1.7,0.53,-2.75,0.53c-0.3,0,-0.58,-0.02,-0.84,-0.05c-0.26,-0.03,-0.49,-0.08,-0.7,-0.16l0,-1.62l0.09,0c0.16,0.08,0.39,0.16,0.69,0.24c0.3,0.08,0.64,0.12,1.02,0.12c1.26,0,2.25,-0.38,2.96,-1.13c0.71,-0.76,1.13,-1.8,1.24,-3.13c-0.53,0.32,-1.03,0.55,-1.5,0.69c-0.47,0.14,-0.98,0.2,-1.53,0.2c-0.52,0,-0.99,-0.05,-1.41,-0.15c-0.42,-0.1,-0.85,-0.3,-1.27,-0.6c-0.51,-0.34,-0.89,-0.78,-1.14,-1.32c-0.25,-0.54,-0.37,-1.18,-0.37,-1.93c0,-1.29,0.43,-2.35,1.28,-3.16c0.85,-0.82,1.9,-1.23,3.12,-1.23c0.61,0,1.18,0.1,1.71,0.29c0.53,0.19,0.98,0.48,1.37,0.87c0.49,0.47,0.86,1.08,1.12,1.82c0.26,0.74,0.39,1.71,0.39,2.88m-1.72,-0.37c0,-0.87,-0.09,-1.58,-0.27,-2.12c-0.18,-0.54,-0.43,-0.96,-0.76,-1.26c-0.27,-0.25,-0.56,-0.43,-0.87,-0.55c-0.31,-0.11,-0.64,-0.17,-0.99,-0.17c-0.82,0,-1.47,0.26,-1.95,0.77c-0.47,0.52,-0.71,1.24,-0.71,2.16c0,0.54,0.08,0.98,0.23,1.33c0.15,0.34,0.41,0.64,0.77,0.89c0.26,0.18,0.54,0.3,0.85,0.36c0.31,0.06,0.65,0.09,1.02,0.09c0.45,0,0.9,-0.06,1.35,-0.18c0.45,-0.12,0.88,-0.29,1.29,-0.52c0,-0.12,0.01,-0.24,0.02,-0.36c0.01,-0.11,0.02,-0.27,0.02,-0.45m9.39,2.7l-5.33,0l0,-1.55l5.33,0l0,1.55m11.33,-1.56c0,2.28,-0.36,3.96,-1.07,5.02c-0.71,1.07,-1.82,1.6,-3.32,1.6c-1.53,0,-2.65,-0.54,-3.35,-1.62c-0.7,-1.08,-1.05,-2.74,-1.05,-4.98c0,-2.26,0.36,-3.93,1.07,-5.02c0.71,-1.08,1.83,-1.62,3.34,-1.62c1.52,0,2.63,0.55,3.34,1.65c0.7,1.1,1.05,2.76,1.05,4.98m-2.25,3.87c0.21,-0.46,0.35,-1,0.41,-1.62c0.07,-0.62,0.1,-1.37,0.1,-2.25c0,-0.87,-0.03,-1.63,-0.1,-2.27c-0.07,-0.64,-0.21,-1.18,-0.41,-1.62c-0.2,-0.44,-0.47,-0.77,-0.81,-0.98c-0.34,-0.22,-0.79,-0.33,-1.33,-0.33c-0.54,0,-0.99,0.11,-1.34,0.33c-0.35,0.22,-0.63,0.55,-0.84,1c-0.19,0.43,-0.32,0.98,-0.39,1.66c-0.07,0.68,-0.11,1.42,-0.11,2.23c0,0.89,0.03,1.63,0.09,2.23c0.06,0.6,0.2,1.13,0.41,1.6c0.19,0.45,0.45,0.79,0.8,1.02c0.34,0.23,0.8,0.35,1.37,0.35c0.53,0,0.97,-0.11,1.33,-0.34c0.35,-0.22,0.62,-0.56,0.81,-1.01m12.16,-3.64c0.27,0.24,0.49,0.54,0.67,0.91c0.18,0.37,0.27,0.85,0.27,1.45c0,0.58,-0.11,1.12,-0.32,1.6c-0.21,0.48,-0.51,0.9,-0.88,1.26c-0.43,0.4,-0.93,0.69,-1.51,0.88c-0.58,0.19,-1.21,0.29,-1.9,0.29c-0.71,0,-1.41,-0.08,-2.09,-0.25c-0.69,-0.17,-1.25,-0.35,-1.69,-0.55l0,-1.8l0.14,0c0.48,0.32,1.05,0.59,1.7,0.8c0.66,0.21,1.29,0.31,1.89,0.31c0.36,0,0.75,-0.06,1.15,-0.18c0.4,-0.12,0.73,-0.29,0.98,-0.52c0.27,-0.25,0.47,-0.53,0.59,-0.83c0.12,-0.3,0.19,-0.68,0.19,-1.14c0,-0.46,-0.07,-0.84,-0.22,-1.14c-0.15,-0.3,-0.34,-0.54,-0.59,-0.7c-0.26,-0.18,-0.57,-0.3,-0.94,-0.36c-0.36,-0.06,-0.76,-0.09,-1.17,-0.09l-0.78,0l0,-1.42l0.61,0c0.86,0,1.55,-0.18,2.07,-0.55c0.52,-0.36,0.77,-0.89,0.77,-1.58c0,-0.31,-0.07,-0.58,-0.2,-0.81c-0.13,-0.23,-0.32,-0.42,-0.55,-0.56c-0.24,-0.16,-0.5,-0.26,-0.78,-0.32c-0.28,-0.06,-0.6,-0.09,-0.95,-0.09c-0.54,0,-1.12,0.1,-1.73,0.3c-0.61,0.2,-1.18,0.47,-1.73,0.81l-0.08,0l0,-1.78c0.41,-0.2,0.95,-0.38,1.62,-0.55c0.67,-0.17,1.33,-0.25,1.96,-0.25c0.62,0,1.17,0.06,1.64,0.17c0.47,0.11,0.9,0.3,1.28,0.55c0.41,0.27,0.72,0.6,0.93,0.98c0.21,0.39,0.32,0.84,0.32,1.36c0,0.71,-0.25,1.33,-0.75,1.85c-0.5,0.53,-1.09,0.86,-1.77,0.99l0,0.12c0.27,0.04,0.58,0.14,0.94,0.28c0.35,0.15,0.66,0.33,0.91,0.55m8.77,1.33l-5.33,0l0,-1.55l5.33,0l0,1.55m10.62,4.8l-6.89,0l0,-1.3l2.66,0l0,-8.53l-2.66,0l0,-1.16c0.35,0,0.74,-0.03,1.15,-0.09c0.41,-0.06,0.72,-0.15,0.93,-0.27c0.27,-0.14,0.48,-0.31,0.63,-0.53c0.15,-0.22,0.24,-0.52,0.26,-0.89l1.33,0l0,11.47l2.59,0l0,1.3m12.02,-3.58l-1.89,0l0,3.58l-1.64,0l0,-3.58l-6.09,0l0,-1.97l6.16,-7.17l1.58,0l0,7.77l1.89,0l0,1.37m-3.53,-1.37l0,-5.73l-4.94,5.73l4.94,0" fill="#00557f" stroke="none" fill-opacity="1"/>
</g>
<g stroke="#00557f" stroke-width="1" transform="matrix(0 -1 1 0 450.67 496.51)" fill="none">
<path d="m9.98,0l-8.61,0l0,-1.78c0.59,-0.52,1.19,-1.04,1.8,-1.55c0.6,-0.51,1.17,-1.02,1.69,-1.53c1.09,-1.05,1.84,-1.89,2.24,-2.52c0.4,-0.62,0.6,-1.3,0.6,-2.03c0,-0.66,-0.22,-1.17,-0.65,-1.55c-0.43,-0.37,-1.04,-0.56,-1.82,-0.56c-0.52,0,-1.08,0.09,-1.69,0.27c-0.6,0.18,-1.19,0.46,-1.77,0.84l-0.09,0l0,-1.78c0.41,-0.21,0.95,-0.39,1.62,-0.55c0.68,-0.16,1.33,-0.24,1.95,-0.24c1.31,0,2.34,0.32,3.08,0.95c0.74,0.63,1.11,1.48,1.11,2.55c0,0.48,-0.06,0.93,-0.19,1.35c-0.12,0.42,-0.31,0.82,-0.55,1.2c-0.22,0.35,-0.48,0.7,-0.77,1.04c-0.3,0.34,-0.66,0.72,-1.09,1.13c-0.61,0.6,-1.25,1.19,-1.9,1.75c-0.65,0.56,-1.26,1.08,-1.82,1.55l6.84,0l0,1.47m10.98,-6.36c0,2.28,-0.36,3.96,-1.07,5.02c-0.71,1.07,-1.82,1.6,-3.32,1.6c-1.53,0,-2.65,-0.54,-3.35,-1.62c-0.7,-1.08,-1.05,-2.74,-1.05,-4.98c0,-2.26,0.36,-3.93,1.07,-5.02c0.71,-1.08,1.83,-1.62,3.34,-1.62c1.52,0,2.63,0.55,3.34,1.65c0.7,1.1,1.05,2.76,1.05,4.98m-2.25,3.87c0.21,-0.46,0.35,-1,0.41,-1.62c0.07,-0.62,0.1,-1.37,0.1,-2.25c0,-0.87,-0.03,-1.63,-0.1,-2.27c-0.07,-0.64,-0.21,-1.18,-0.41,-1.62c-0.2,-0.44,-0.47,-0.77,-0.81,-0.98c-0.34,-0.22,-0.79,-0.33,-1.33,-0.33c-0.54,0,-0.99,0.11,-1.34,0.33c-0.35,0.22,-0.63,0.55,-0.84,1c-0.19,0.43,-0.32,0.98,-0.39,1.66c-0.07,0.68,-0.11,1.42,-0.11,2.23c0,0.89,0.03,1.63,0.09,2.23c0.06,0.6,0.2,1.13,0.41,1.6c0.19,0.45,0.45,0.79,0.8,1.02c0.34,0.23,0.8,0.35,1.37,0.35c0.53,0,0.97,-0.11,1.33,-0.34c0.35,-0.22,0.62,-0.56,0.81,-1.01m13.25,-3.87c0,2.28,-0.36,3.96,-1.07,5.02c-0.71,1.07,-1.82,1.6,-3.32,1.6c-1.53,0,-2.65,-0.54,-3.35,-1.62c-0.7,-1.08,-1.05,-2.74,-1.05,-4.98c0,-2.26,0.36,-3.93,1.07,-5.02c0.71,-1.08,1.83,-1.62,3.34,-1.62c1.52,0,2.63,0.55,3.34,1.65c0.7,1.1,1.05,2.76,1.05,4.98m-2.25,3.87c0.21,-0.46,0.35,-1,0.41,-1.62c0.07,-0.62,0.1,-1.37,0.1,-2.25c0,-0.87,-0.03,-1.63,-0.1,-2.27c-0.07,-0.64,-0.21,-1.18,-0.41,-1.62c-0.2,-0.44,-0.47,-0.77,-0.81,-0.98c-0.34,-0.22,-0.79,-0.33,-1.33,-0.33c-0.54,0,-0.99,0.11,-1.34,0.33c-0.35,0.22,-0.63,0.55,-0.84,1c-0.19,0.43,-0.32,0.98,-0.39,1.66c-0.07,0.68,-0.11,1.42,-0.11,2.23c0,0.89,0.03,1.63,0.09,2.23c0.06,0.6,0.2,1.13,0.41,1.6c0.19,0.45,0.45,0.79,0.8,1.02c0.34,0.23,0.8,0.35,1.37,0.35c0.53,0,0.97,-0.11,1.33,-0.34c0.35,-0.22,0.62,-0.56,0.81,-1.01m13.25,-4.64c0,1.11,-0.12,2.12,-0.37,3.02c-0.25,0.9,-0.64,1.67,-1.16,2.32c-0.51,0.65,-1.16,1.15,-1.94,1.5c-0.78,0.35,-1.7,0.53,-2.75,0.53c-0.3,0,-0.58,-0.02,-0.84,-0.05c-0.26,-0.03,-0.49,-0.08,-0.7,-0.16l0,-1.62l0.09,0c0.16,0.08,0.39,0.16,0.69,0.24c0.3,0.08,0.64,0.12,1.02,0.12c1.26,0,2.25,-0.38,2.96,-1.13c0.71,-0.76,1.13,-1.8,1.24,-3.13c-0.53,0.32,-1.03,0.55,-1.5,0.69c-0.47,0.14,-0.98,0.2,-1.53,0.2c-0.52,0,-0.99,-0.05,-1.41,-0.15c-0.42,-0.1,-0.85,-0.3,-1.27,-0.6c-0.51,-0.34,-0.89,-0.78,-1.14,-1.32c-0.25,-0.54,-0.37,-1.18,-0.37,-1.93c0,-1.29,0.43,-2.35,1.28,-3.16c0.85,-0.82,1.9,-1.23,3.12,-1.23c0.61,0,1.18,0.1,1.71,0.29c0.53,0.19,0.98,0.48,1.37,0.87c0.49,0.47,0.86,1.08,1.12,1.82c0.26,0.74,0.39,1.71,0.39,2.88m-1.72,-0.37c0,-0.87,-0.09,-1.58,-0.27,-2.12c-0.18,-0.54,-0.43,-0.96,-0.76,-1.26c-0.27,-0.25,-0.56,-0.43,-0.87,-0.55c-0.31,-0.11,-0.64,-0.17,-0.99,-0.17c-0.82,0,-1.47,0.26,-1.95,0.77c-0.47,0.52,-0.71,1.24,-0.71,2.16c0,0.54,0.08,0.98,0.23,1.33c0.15,0.34,0.41,0.64,0.77,0.89c0.26,0.18,0.54,0.3,0.85,0.36c0.31,0.06,0.65,0.09,1.02,0.09c0.45,0,0.9,-0.06,1.35,-0.18c0.45,-0.12,0.88,-0.29,1.29,-0.52c0,-0.12,0.01,-0.24,0.02,-0.36c0.01,-0.11,0.02,-0.27,0.02,-0.45m9.39,2.7l-5.33,0l0,-1.55l5.33,0l0,1.55m11.33,-1.56c0,2.28,-0.36,3.96,-1.07,5.02c-0.71,1.07,-1.82,1.6,-3.32,1.6c-1.53,0,-2.65,-0.54,-3.35,-1.62c-0.7,-1.08,-1.05,-2.74,-1.05,-4.98c0,-2.26,0.36,-3.93,1.07,-5.02c0.71,-1.08,1.83,-1.62,3.34,-1.62c1.52,0,2.63,0.55,3.34,1.65c0.7,1.1,1.05,2.76,1.05,4.98m-2.25,3.87c0.21,-0.46,0.35,-1,0.41,-1.62c0.07,-0.62,0.1,-1.37,0.1,-2.25c0,-0.87,-0.03,-1.63,-0.1,-2.27c-0.07,-0.64,-0.21,-1.18,-0.41,-1.62c-0.2,-0.44,-0.47,-0.77,-0.81,-0.98c-0.34,-0.22,-0.79,-0.33,-1.33,-0.33c-0.54,0,-0.99,0.11,-1.34,0.33c-0.35,0.22,-0.63,0.55,-0.84,1c-0.19,0.43,-0.32,0.98,-0.39,1.66c-0.07,0.68,-0.11,1.42,-0.11,2.23c0,0.89,0.03,1.63,0.09,2.23c0.06,0.6,0.2,1.13,0.41,1.6c0.19,0.45,0.45,0.79,0.8,1.02c0.34,0.23,0.8,0.35,1.37,0.35c0.53,0,0.97,-0.11,1.33,-0.34c0.35,-0.22,0.62,-0.56,0.81,-1.01m12.16,-3.64c0.27,0.24,0.49,0.54,0.67,0.91c0.18,0.37,0.27,0.85,0.27,1.45c0,0.58,-0.11,1.12,-0.32,1.6c-0.21,0.48,-0.51,0.9,-0.88,1.26c-0.43,0.4,-0.93,0.69,-1.51,0.88c-0.58,0.19,-1.21,0.29,-1.9,0.29c-0.71,0,-1.41,-0.08,-2.09,-0.25c-0.69,-0.17,-1.25,-0.35,-1.69,-0.55l0,-1.8l0.14,0c0.48,0.32,1.05,0.59,1.7,0.8c0.66,0.21,1.29,0.31,1.89,0.31c0.36,0,0.75,-0.06,1.15,-0.18c0.4,-0.12,0.73,-0.29,0.98,-0.52c0.27,-0.25,0.47,-0.53,0.59,-0.83c0.12,-0.3,0.19,-0.68,0.19,-1.14c0,-0.46,-0.07,-0.84,-0.22,-1.14c-0.15,-0.3,-0.34,-0.54,-0.59,-0.7c-0.26,-0.18,-0.57,-0.3,-0.94,-0.36c-0.36,-0.06,-0.76,-0.09,-1.17,-0.09l-0.78,0l0,-1.42l0.61,0c0.86,0,1.55,-0.18,2.07,-0.55c0.52,-0.36,0.77,-0.89,0.77,-1.58c0,-0.31,-0.07,-0.58,-0.2,-0.81c-0.13,-0.23,-0.32,-0.42,-0.55,-0.56c-0.24,-0.16,-0.5,-0.26,-0.78,-0.32c-0.28,-0.06,-0.6,-0.09,-0.95,-0.09c-0.54,0,-1.12,0.1,-1.73,0.3c-0.61,0.2,-1.18,0.47,-1.73,0.81l-0.08,0l0,-1.78c0.41,-0.2,0.95,-0.38,1.62,-0.55c0.67,-0.17,1.33,-0.25,1.96,-0.25c0.62,0,1.17,0.06,1.64,0.17c0.47,0.11,0.9,0.3,1.28,0.55c0.41,0.27,0.72,0.6,0.93,0.98c0.21,0.39,0.32,0.84,0.32,1.36c0,0.71,-0.25,1.33,-0.75,1.85c-0.5,0.53,-1.09,0.86,-1.77,0.99l0,0.12c0.27,0.04,0.58,0.14,0.94,0.28c0.35,0.15,0.66,0.33,0.91,0.55m8.77,1.33l-5.33,0l0,-1.55l5.33,0l0,1.55m10.62,4.8l-6.89,0l0,-1.3l2.66,0l0,-8.53l-2.66,0l0,-1.16c0.35,0,0.74,-0.03,1.15,-0.09c0.41,-0.06,0.72,-0.15,0.93,-0.27c0.27,-0.14,0.48,-0.31,0.63,-0.53c0.15,-0.22,0.24,-0.52,0.26,-0.89l1.33,0l0,11.47l2.59,0l0,1.3m11.62,-4.05c0,0.59,-0.11,1.16,-0.33,1.7c-0.22,0.54,-0.52,1,-0.89,1.37c-0.41,0.4,-0.89,0.7,-1.46,0.91c-0.57,0.21,-1.23,0.32,-1.98,0.32c-0.69,0,-1.35,-0.07,-2,-0.22c-0.65,-0.15,-1.19,-0.32,-1.64,-0.53l0,-1.8l0.12,0c0.47,0.29,1.02,0.54,1.64,0.75c0.62,0.21,1.24,0.31,1.84,0.31c0.41,0,0.8,-0.06,1.18,-0.17c0.38,-0.11,0.72,-0.31,1.01,-0.59c0.25,-0.24,0.44,-0.53,0.57,-0.87c0.13,-0.34,0.2,-0.74,0.2,-1.19c0,-0.44,-0.08,-0.81,-0.23,-1.11c-0.15,-0.3,-0.36,-0.55,-0.63,-0.73c-0.29,-0.22,-0.65,-0.37,-1.08,-0.46c-0.43,-0.09,-0.9,-0.13,-1.42,-0.13c-0.5,0,-0.98,0.04,-1.45,0.11c-0.46,0.07,-0.87,0.14,-1.21,0.2l0,-6.55l7.66,0l0,1.48l-6,0l0,3.39c0.24,-0.02,0.49,-0.04,0.75,-0.05c0.26,-0.01,0.48,-0.02,0.67,-0.02c0.69,0,1.29,0.06,1.8,0.17c0.52,0.11,0.99,0.32,1.43,0.61c0.46,0.32,0.81,0.73,1.06,1.23c0.25,0.49,0.37,1.11,0.37,1.85" fill="#00557f" stroke="none" fill-opacity="1"/>
</g>
<g stroke="#00557f" stroke-width="1" transform="matrix(0 -1 1 0 527.69 496.51)" fill="none">
<path d="m9.98,0l-8.61,0l0,-1.78c0.59,-0.52,1.19,-1.04,1.8,-1.55c0.6,-0.51,1.17,-1.02,1.69,-1.53c1.09,-1.05,1.84,-1.89,2.24,-2.52c0.4,-0.62,0.6,-1.3,0.6,-2.03c0,-0.66,-0.22,-1.17,-0.65,-1.55c-0.43,-0.37,-1.04,-0.56,-1.82,-0.56c-0.52,0,-1.08,0.09,-1.69,0.27c-0.6,0.18,-1.19,0.46,-1.77,0.84l-0.09,0l0,-1.78c0.41,-0.21,0.95,-0.39,1.62,-0.55c0.68,-0.16,1.33,-0.24,1.95,-0.24c1.31,0,2.34,0.32,3.08,0.95c0.74,0.63,1.11,1.48,1.11,2.55c0,0.48,-0.06,0.93,-0.19,1.35c-0.12,0.42,-0.31,0.82,-0.55,1.2c-0.22,0.35,-0.48,0.7,-0.77,1.04c-0.3,0.34,-0.66,0.72,-1.09,1.13c-0.61,0.6,-1.25,1.19,-1.9,1.75c-0.65,0.56,-1.26,1.08,-1.82,1.55l6.84,0l0,1.47m10.98,-6.36c0,2.28,-0.36,3.96,-1.07,5.02c-0.71,1.07,-1.82,1.6,-3.32,1.6c-1.53,0,-2.65,-0.54,-3.35,-1.62c-0.7,-1.08,-1.05,-2.74,-1.05,-4.98c0,-2.26,0.36,-3.93,1.07,-5.02c0.71,-1.08,1.83,-1.62,3.34,-1.62c1.52,0,2.63,0.55,3.34,1.65c0.7,1.1,1.05,2.76,1.05,4.98m-2.25,3.87c0.21,-0.46,0.35,-1,0.41,-1.62c0.07,-0.62,0.1,-1.37,0.1,-2.25c0,-0.87,-0.03,-1.63,-0.1,-2.27c-0.07,-0.64,-0.21,-1.18,-0.41,-1.62c-0.2,-0.44,-0.47,-0.77,-0.81,-0.98c-0.34,-0.22,-0.79,-0.33,-1.33,-0.33c-0.54,0,-0.99,0.11,-1.34,0.33c-0.35,0.22,-0.63,0.55,-0.84,1c-0.19,0.43,-0.32,0.98,-0.39,1.66c-0.07,0.68,-0.11,1.42,-0.11,2.23c0,0.89,0.03,1.63,0.09,2.23c0.06,0.6,0.2,1.13,0.41,1.6c0.19,0.45,0.45,0.79,0.8,1.02c0.34,0.23,0.8,0.35,1.37,0.35c0.53,0,0.97,-0.11,1.33,-0.34c0.35,-0.22,0.62,-0.56,0.81,-1.01m13.25,-3.87c0,2.28,-0.36,3.96,-1.07,5.02c-0.71,1.07,-1.82,1.6,-3.32,1.6c-1.53,0,-2.65,-0.54,-3.35,-1.62c-0.7,-1.08,-1.05,-2.74,-1.05,-4.98c0,-2.26,0.36,-3.93,1.07,-5.02c0.71,-1.08,1.83,-1.62,3.34,-1.62c1.52,0,2.63,0.55,3.34,1.65c0.7,1.1,1.05,2.76,1.05,4.98m-2.25,3.87c0.21,-0.46,0.35,-1,0.41,-1.62c0.07,-0.62,0.1,-1.37,0.1,-2.25c0,-0.87,-0.03,-1.63,-0.1,-2.27c-0.07,-0.64,-0.21,-1.18,-0.41,-1.62c-0.2,-0.44,-0.47,-0.77,-0.81,-0.98c-0.34,-0.22,-0.79,-0.33,-1.33,-0.33c-0.54,0,-0.99,0.11,-1.34,0.33c-0.35,0.22,-0.63,0.55,-0.84,1c-0.19,0.43,-0.32,0.98,-0.39,1.66c-0.07,0.68,-0.11,1.42,-0.11,2.23c0,0.89,0.03,1.63,0.09,2.23c0.06,0.6,0.2,1.13,0.41,1.6c0.19,0.45,0.45,0.79,0.8,1.02c0.34,0.23,0.8,0.35,1.37,0.35c0.53,0,0.97,-0.11,1.33,-0.34c0.35,-0.22,0.62,-0.56,0.81,-1.01m13.25,-4.64c0,1.11,-0.12,2.12,-0.37,3.02c-0.25,0.9,-0.64,1.67,-1.16,2.32c-0.51,0.65,-1.16,1.15,-1.94,1.5c-0.78,0.35,-1.7,0.53,-2.75,0.53c-0.3,0,-0.58,-0.02,-0.84,-0.05c-0.26,-0.03,-0.49,-0.08,-0.7,-0.16l0,-1.62l0.09,0c0.16,0.08,0.39,0.16,0.69,0.24c0.3,0.08,0.64,0.12,1.02,0.12c1.26,0,2.25,-0.38,2.96,-1.13c0.71,-0.76,1.13,-1.8,1.24,-3.13c-0.53,0.32,-1.03,0.55,-1.5,0.69c-0.47,0.14,-0.98,0.2,-1.53,0.2c-0.52,0,-0.99,-0.05,-1.41,-0.15c-0.42,-0.1,-0.85,-0.3,-1.27,-0.6c-0.51,-0.34,-0.89,-0.78,-1.14,-1.32c-0.25,-0.54,-0.37,-1.18,-0.37,-1.93c0,-1.29,0.43,-2.35,1.28,-3.16c0.85,-0.82,1.9,-1.23,3.12,-1.23c0.61,0,1.18,0.1,1.71,0.29c0.53,0.19,0.98,0.48,1.37,0.87c0.49,0.47,0.86,1.08,1.12,1.82c0.26,0.74,0.39,1.71,0.39,2.88m-1.72,-0.37c0,-0.87,-0.09,-1.58,-0.27,-2.12c-0.18,-0.54,-0.43,-0.96,-0.76,-1.26c-0.27,-0.25,-0.56,-0.43,-0.87,-0.55c-0.31,-0.11,-0.64,-0.17,-0.99,-0.17c-0.82,0,-1.47,0.26,-1.95,0.77c-0.47,0.52,-0.71,1.24,-0.71,2.16c0,0.54,0.08,0.98,0.23,1.33c0.15,0.34,0.41,0.64,0.77,0.89c0.26,0.18,0.54,0.3,0.85,0.36c0.31,0.06,0.65,0.09,1.02,0.09c0.45,0,0.9,-0.06,1.35,-0.18c0.45,-0.12,0.88,-0.29,1.29,-0.52c0,-0.12,0.01,-0.24,0.02,-0.36c0.01,-0.11,0.02,-0.27,0.02,-0.45m9.39,2.7l-5.33,0l0,-1.55l5.33,0l0,1.55m11.33,-1.56c0,2.28,-0.36,3.96,-1.07,5.02c-0.71,1.07,-1.82,1.6,-3.32,1.6c-1.53,0,-2.65,-0.54,-3.35,-1.62c-0.7,-1.08,-1.05,-2.74,-1.05,-4.98c0,-2.26,0.36,-3.93,1.07,-5.02c0.71,-1.08,1.83,-1.62,3.34,-1.62c1.52,0,2.63,0.55,3.34,1.65c0.7,1.1,1.05,2.76,1.05,4.98m-2.25,3.87c0.21,-0.46,0.35,-1,0.41,-1.62c0.07,-0.62,0.1,-1.37,0.1,-2.25c0,-0.87,-0.03,-1.63,-0.1,-2.27c-0.07,-0.64,-0.21,-1.18,-0.41,-1.62c-0.2,-0.44,-0.47,-0.77,-0.81,-0.98c-0.34,-0.22,-0.79,-0.33,-1.33,-0.33c-0.54,0,-0.99,0.11,-1.34,0.33c-0.35,0.22,-0.63,0.55,-0.84,1c-0.19,0.43,-0.32,0.98,-0.39,1.66c-0.07,0.68,-0.11,1.42,-0.11,2.23c0,0.89,0.03,1.63,0.09,2.23c0.06,0.6,0.2,1.13,0.41,1.6c0.19,0.45,0.45,0.79,0.8,1.02c0.34,0.23,0.8,0.35,1.37,0.35c0.53,0,0.97,-0.11,1.33,-0.34c0.35,-0.22,0.62,-0.56,0.81,-1.01m12.16,-3.64c0.27,0.24,0.49,0.54,0.67,0.91c0.18,0.37,0.27,0.85,0.27,1.45c0,0.58,-0.11,1.12,-0.32,1.6c-0.21,0.48,-0.51,0.9,-0.88,1.26c-0.43,0.4,-0.93,0.69,-1.51,0.88c-0.58,0.19,-1.21,0.29,-1.9,0.29c-0.71,0,-1.41,-0.08,-2.09,-0.25c-0.69,-0.17,-1.25,-0.35,-1.69,-0.55l0,-1.8l0.14,0c0.48,0.32,1.05,0.59,1.7,0.8c0.66,0.21,1.29,0.31,1.89,0.31c0.36,0,0.75,-0.06,1.15,-0.18c0.4,-0.12,0.73,-0.29,0.98,-0.52c0.27,-0.25,0.47,-0.53,0.59,-0.83c0.12,-0.3,0.19,-0.68,0.19,-1.14c0,-0.46,-0.07,-0.84,-0.22,-1.14c-0.15,-0.3,-0.34,-0.54,-0.59,-0.7c-0.26,-0.18,-0.57,-0.3,-0.94,-0.36c-0.36,-0.06,-0.76,-0.09,-1.17,-0.09l-0.78,0l0,-1.42l0.61,0c0.86,0,1.55,-0.18,2.07,-0.55c0.52,-0.36,0.77,-0.89,0.77,-1.58c0,-0.31,-0.07,-0.58,-0.2,-0.81c-0.13,-0.23,-0.32,-0.42,-0.55,-0.56c-0.24,-0.16,-0.5,-0.26,-0.78,-0.32c-0.28,-0.06,-0.6,-0.09,-0.95,-0.09c-0.54,0,-1.12,0.1,-1.73,0.3c-0.61,0.2,-1.18,0.47,-1.73,0.81l-0.08,0l0,-1.78c0.41,-0.2,0.95,-0.38,1.62,-0.55c0.67,-0.17,1.33,-0.25,1.96,-0.25c0.62,0,1.17,0.06,1.64,0.17c0.47,0.11,0.9,0.3,1.28,0.55c0.41,0.27,0.72,0.6,0.93,0.98c0.21,0.39,0.32,0.84,0.32,1.36c0,0.71,-0.25,1.33,-0.75,1.85c-0.5,0.53,-1.09,0.86,-1.77,0.99l0,0.12c0.27,0.04,0.58,0.14,0.94,0.28c0.35,0.15,0.66,0.33,0.91,0.55m8.77,1.33l-5.33,0l0,-1.55l5.33,0l0,1.55m10.62,4.8l-6.89,0l0,-1.3l2.66,0l0,-8.53l-2.66,0l0,-1.16c0.35,0,0.74,-0.03,1.15,-0.09c0.41,-0.06,0.72,-0.15,0.93,-0.27c0.27,-0.14,0.48,-0.31,0.63,-0.53c0.15,-0.22,0.24,-0.52,0.26,-0.89l1.33,0l0,11.47l2.59,0l0,1.3m11.91,-4.12c0,1.29,-0.42,2.35,-1.27,3.16c-0.85,0.82,-1.89,1.23,-3.13,1.23c-0.62,0,-1.19,-0.1,-1.7,-0.29c-0.51,-0.19,-0.96,-0.48,-1.36,-0.87c-0.49,-0.47,-0.87,-1.09,-1.13,-1.87c-0.27,-0.78,-0.4,-1.72,-0.4,-2.83c0,-1.12,0.12,-2.12,0.36,-2.99c0.24,-0.87,0.62,-1.64,1.16,-2.32c0.5,-0.65,1.15,-1.15,1.94,-1.52c0.79,-0.36,1.72,-0.55,2.78,-0.55c0.33,0,0.61,0.02,0.84,0.05c0.23,0.03,0.46,0.08,0.69,0.16l0,1.62l-0.08,0c-0.17,-0.08,-0.41,-0.16,-0.73,-0.24c-0.32,-0.08,-0.65,-0.12,-0.98,-0.12c-1.22,0,-2.19,0.39,-2.92,1.16c-0.73,0.77,-1.16,1.81,-1.28,3.11c0.48,-0.29,0.95,-0.51,1.41,-0.66c0.46,-0.15,1,-0.23,1.62,-0.23c0.54,0,1.02,0.05,1.43,0.15c0.41,0.1,0.84,0.3,1.27,0.6c0.5,0.34,0.87,0.78,1.12,1.31c0.25,0.53,0.37,1.18,0.37,1.94m-1.73,0.06c0,-0.53,-0.08,-0.97,-0.23,-1.31c-0.16,-0.34,-0.41,-0.65,-0.77,-0.91c-0.26,-0.18,-0.55,-0.29,-0.87,-0.35c-0.32,-0.06,-0.66,-0.09,-1,-0.09c-0.48,0,-0.93,0.05,-1.34,0.16c-0.42,0.11,-0.84,0.28,-1.28,0.52c-0.02,0.12,-0.03,0.25,-0.04,0.37c-0.01,0.12,-0.01,0.27,-0.01,0.45c0,0.9,0.09,1.6,0.28,2.12c0.19,0.52,0.44,0.93,0.77,1.23c0.26,0.25,0.54,0.43,0.85,0.55c0.31,0.12,0.64,0.18,0.99,0.18c0.83,0,1.48,-0.25,1.95,-0.76c0.47,-0.51,0.7,-1.23,0.7,-2.18" fill="#00557f" stroke="none" fill-opacity="1"/>
</g>
</g>
</g>
<defs>
<clipPath id="c0"><path d="m0,0l533.49,0l0,533.49l-533.49,0l0,-533.49"/></clipPath>
<clipPath id="c1"><path d="m56.55,75.04l462.14,0l0,315.47l-462.14,0l0,-315.47"/></clipPath>
</defs>
</svg>
