<?xml version="1.0" standalone="no"?>
<!DOCTYPE svg PUBLIC "-//W3C//DTD SVG 1.1//EN"
  "http://www.w3.org/Graphics/SVG/1.1/DTD/svg11.dtd">
<svg width="531.49px" height="531.49px" version="1.1"
    xmlns="http://www.w3.org/2000/svg"
    xmlns:xlink="http://www.w3.org/1999/xlink">
<desc>Veusz output document</desc>
<defs>
<clipPath id="c0">
<path d="m0,0l531.49,0l0,531.49l-531.49,0l0,-531.49"/>
</clipPath>
<clipPath id="c1">
<path d="m60.23,7.08l464.17,0l0,464.17l-464.17,0l0,-464.17"/>
</clipPath>
</defs>
<g stroke-linejoin="bevel" stroke-linecap="square" stroke="#000000" fill-rule="evenodd">
<g clip-path="url(#c0)">
<g fill="#ffffff" stroke-width="0.62">
<path d="m60.23,7.08l464.17,0l0,464.17l-464.17,0l0,-464.17"/>
</g>
<g fill="none" stroke-width="1">
<g stroke="none" fill="#000000" fill-opacity="1" font-family="Bitstream Vera Serif" font-size="17.5">
<text x="159.97" y="32.67" textLength="264.7">Using expressions of datasets</text>
</g>
</g>
</g>
<g clip-path="url(#c1)">
<g fill="none" stroke="#a60523" stroke-width="0.62">
<polyline fill="none" points="67.39,239.17 126.5,309.97 180.58,368.52 225.45,404.71 258.56,412.28 279.35,389.91 289.42,341.48 292.21,275.36 292.43,202.98 295.22,136.86 305.29,88.42 326.08,66.06 359.18,73.62 404.06,109.81 458.13,168.37 517.24,239.17"/>
</g>
<g fill="none" stroke="#a60523" stroke-linecap="butt" stroke-width="0.62">
<path d="M67.39,239.17l0,0M126.5,319.41l0,-18.87M180.58,385.77l0,-34.49M225.45,426.79l0,-44.14M258.56,435.36l0,-46.16M279.35,410.01l0,-40.19M289.42,355.12l0,-27.28M292.21,280.18l0,-9.65M292.43,207.8l0,-9.65M295.22,150.5l0,-27.28M305.29,108.52l0,-40.19M326.08,89.14l0,-46.16M359.18,95.7l0,-44.14M404.06,127.06l0,-34.49M458.13,177.81l0,-18.87M517.24,239.17l0,0"/>
<path d="M60.23,239.17l14.31,0M119.34,309.97l14.31,0M173.42,368.52l14.31,0M218.29,404.71l14.31,0M251.4,412.28l14.31,0M272.19,389.91l14.31,0M282.26,341.48l14.31,0M285.05,275.36l14.31,0M285.27,202.98l14.31,0M288.06,136.86l14.31,0M298.13,88.42l14.31,0M318.92,66.06l14.31,0M352.02,73.62l14.31,0M396.9,109.81l14.31,0M450.97,168.37l14.31,0M510.09,239.17l14.31,0"/>
</g>
<g fill="#a60523" stroke-linejoin="miter" stroke-width="0.62">
<g transform="translate(67.39,239.17)">
<path d="m3.75,0c0,2.07,-1.67,3.75,-3.75,3.75c-2.07,0,-3.75,-1.67,-3.75,-3.75c0,-2.07,1.67,-3.75,3.75,-3.75c2.07,0,3.75,1.67,3.75,3.75" id="p0"/>
</g>
<use xlink:href="#p0" x="126.5" y="309.97"/>
<use xlink:href="#p0" x="180.58" y="368.52"/>
<use xlink:href="#p0" x="225.45" y="404.71"/>
<use xlink:href="#p0" x="258.56" y="412.28"/>
<use xlink:href="#p0" x="279.35" y="389.91"/>
<use xlink:href="#p0" x="289.42" y="341.48"/>
<use xlink:href="#p0" x="292.21" y="275.36"/>
<use xlink:href="#p0" x="292.43" y="202.98"/>
<use xlink:href="#p0" x="295.22" y="136.86"/>
<use xlink:href="#p0" x="305.29" y="88.42"/>
<use xlink:href="#p0" x="326.08" y="66.06"/>
<use xlink:href="#p0" x="359.18" y="73.62"/>
<use xlink:href="#p0" x="404.06" y="109.81"/>
<use xlink:href="#p0" x="458.13" y="168.37"/>
<use xlink:href="#p0" x="517.24" y="239.17"/>
</g>
<g fill="none" stroke="#5e136d" stroke-width="0.62">
<polyline fill="none" points="67.39,239.17 97.38,286.37 127.37,325.41 157.36,349.53 187.35,354.58 217.34,339.66 247.33,307.38 277.32,263.29 307.31,215.04 337.3,170.96 367.29,138.67 397.28,123.76 427.27,128.8 457.26,152.93 487.25,191.97 517.24,239.17"/>
</g>
<g fill="none" stroke="#5e136d" stroke-linecap="butt" stroke-width="0.62">
<path d="M67.39,262.38l0,-34.81M97.38,309.58l0,-34.81M127.37,348.61l0,-34.81M157.36,372.74l0,-34.81M187.35,377.78l0,-34.81M217.34,362.87l0,-34.81M247.33,330.59l0,-34.81M277.32,286.5l0,-34.81M307.31,238.25l0,-34.81M337.3,194.17l0,-34.81M367.29,161.88l0,-34.81M397.28,146.97l0,-34.81M427.27,152.01l0,-34.81M457.26,176.14l0,-34.81M487.25,215.18l0,-34.81M517.24,262.38l0,-34.81"/>
</g>
<g fill="#5e136d" stroke-linejoin="miter" stroke-width="0.62">
<use xlink:href="#p0" x="67.39" y="239.17"/>
<use xlink:href="#p0" x="97.38" y="286.37"/>
<use xlink:href="#p0" x="127.37" y="325.41"/>
<use xlink:href="#p0" x="157.36" y="349.53"/>
<use xlink:href="#p0" x="187.35" y="354.58"/>
<use xlink:href="#p0" x="217.34" y="339.66"/>
<use xlink:href="#p0" x="247.33" y="307.38"/>
<use xlink:href="#p0" x="277.32" y="263.29"/>
<use xlink:href="#p0" x="307.31" y="215.04"/>
<use xlink:href="#p0" x="337.3" y="170.96"/>
<use xlink:href="#p0" x="367.29" y="138.67"/>
<use xlink:href="#p0" x="397.28" y="123.76"/>
<use xlink:href="#p0" x="427.27" y="128.8"/>
<use xlink:href="#p0" x="457.26" y="152.93"/>
<use xlink:href="#p0" x="487.25" y="191.97"/>
<use xlink:href="#p0" x="517.24" y="239.17"/>
</g>
<g fill="none" stroke="#526c38" stroke-width="0.62">
<polyline fill="none" points="67.39,239.17 97.38,309.97 127.37,368.52 157.36,404.71 187.35,412.28 217.34,389.91 247.33,341.48 277.32,275.36 307.31,202.98 337.3,136.86 367.29,88.42 397.28,66.06 427.27,73.62 457.26,109.81 487.25,168.37 517.24,239.17"/>
</g>
<g fill="none" stroke="#526c38" stroke-linecap="butt" stroke-width="0.62">
<path d="M67.39,250.77l0,-23.2M97.38,321.57l0,-23.2M127.37,380.13l0,-23.2M157.36,416.32l0,-23.2M187.35,423.88l0,-23.2M217.34,401.52l0,-23.2M247.33,353.09l0,-23.2M277.32,286.96l0,-23.2M307.31,214.58l0,-23.2M337.3,148.46l0,-23.2M367.29,100.03l0,-23.2M397.28,77.66l0,-23.2M427.27,85.23l0,-23.2M457.26,121.42l0,-23.2M487.25,179.97l0,-23.2M517.24,250.77l0,-23.2"/>
</g>
<g fill="#526c38" stroke-linejoin="miter" stroke-width="0.62">
<use xlink:href="#p0" x="67.39" y="239.17"/>
<use xlink:href="#p0" x="97.38" y="309.97"/>
<use xlink:href="#p0" x="127.37" y="368.52"/>
<use xlink:href="#p0" x="157.36" y="404.71"/>
<use xlink:href="#p0" x="187.35" y="412.28"/>
<use xlink:href="#p0" x="217.34" y="389.91"/>
<use xlink:href="#p0" x="247.33" y="341.48"/>
<use xlink:href="#p0" x="277.32" y="275.36"/>
<use xlink:href="#p0" x="307.31" y="202.98"/>
<use xlink:href="#p0" x="337.3" y="136.86"/>
<use xlink:href="#p0" x="367.29" y="88.42"/>
<use xlink:href="#p0" x="397.28" y="66.06"/>
<use xlink:href="#p0" x="427.27" y="73.62"/>
<use xlink:href="#p0" x="457.26" y="109.81"/>
<use xlink:href="#p0" x="487.25" y="168.37"/>
<use xlink:href="#p0" x="517.24" y="239.17"/>
</g>
<g fill="none" stroke="#d7dede" stroke-width="0.62">
<polyline fill="none" points="67.39,239.17 97.38,168.37 127.37,109.81 157.36,73.62 187.35,66.06 217.34,88.42 247.33,136.86 277.32,202.98 307.31,275.36 337.3,341.48 367.29,389.91 397.28,412.28 427.27,404.71 457.26,368.52 487.25,309.97 517.24,239.17"/>
</g>
<g fill="#d7dede" stroke-linejoin="miter" stroke-width="0.62">
<use xlink:href="#p0" x="67.39" y="239.17"/>
<use xlink:href="#p0" x="97.38" y="168.37"/>
<use xlink:href="#p0" x="127.37" y="109.81"/>
<use xlink:href="#p0" x="157.36" y="73.62"/>
<use xlink:href="#p0" x="187.35" y="66.06"/>
<use xlink:href="#p0" x="217.34" y="88.42"/>
<use xlink:href="#p0" x="247.33" y="136.86"/>
<use xlink:href="#p0" x="277.32" y="202.98"/>
<use xlink:href="#p0" x="307.31" y="275.36"/>
<use xlink:href="#p0" x="337.3" y="341.48"/>
<use xlink:href="#p0" x="367.29" y="389.91"/>
<use xlink:href="#p0" x="397.28" y="412.28"/>
<use xlink:href="#p0" x="427.27" y="404.71"/>
<use xlink:href="#p0" x="457.26" y="368.52"/>
<use xlink:href="#p0" x="487.25" y="309.97"/>
<use xlink:href="#p0" x="517.24" y="239.17"/>
</g>
<g fill="none" stroke="#3b57d0" stroke-width="0.62">
<polyline fill="none" points="67.39,239.17 97.38,191.97 127.37,152.93 157.36,128.8 187.35,123.76 217.34,138.67 247.33,170.96 277.32,215.04 307.31,263.29 337.3,307.38 367.29,339.66 397.28,354.58 427.27,349.53 457.26,325.41 487.25,286.37 517.24,239.17"/>
</g>
<g fill="#3b57d0" stroke-linejoin="miter" stroke-width="0.62">
<use xlink:href="#p0" x="67.39" y="239.17"/>
<use xlink:href="#p0" x="97.38" y="191.97"/>
<use xlink:href="#p0" x="127.37" y="152.93"/>
<use xlink:href="#p0" x="157.36" y="128.8"/>
<use xlink:href="#p0" x="187.35" y="123.76"/>
<use xlink:href="#p0" x="217.34" y="138.67"/>
<use xlink:href="#p0" x="247.33" y="170.96"/>
<use xlink:href="#p0" x="277.32" y="215.04"/>
<use xlink:href="#p0" x="307.31" y="263.29"/>
<use xlink:href="#p0" x="337.3" y="307.38"/>
<use xlink:href="#p0" x="367.29" y="339.66"/>
<use xlink:href="#p0" x="397.28" y="354.58"/>
<use xlink:href="#p0" x="427.27" y="349.53"/>
<use xlink:href="#p0" x="457.26" y="325.41"/>
<use xlink:href="#p0" x="487.25" y="286.37"/>
<use xlink:href="#p0" x="517.24" y="239.17"/>
</g>
</g>
<g clip-path="url(#c0)">
<g fill="none" stroke-linecap="butt" stroke-width="0.62">
<path d="M60.23,471.25l0,-464.17"/>
<path d="M60.23,471.25l3.75,0M60.23,448.05l3.75,0M60.23,424.84l3.75,0M60.23,401.63l3.75,0M60.23,378.42l3.75,0M60.23,355.21l3.75,0M60.23,332l3.75,0M60.23,308.79l3.75,0M60.23,285.59l3.75,0M60.23,262.38l3.75,0M60.23,239.17l3.75,0M60.23,215.96l3.75,0M60.23,192.75l3.75,0M60.23,169.54l3.75,0M60.23,146.33l3.75,0M60.23,123.12l3.75,0M60.23,99.92l3.75,0M60.23,76.71l3.75,0M60.23,53.5l3.75,0M60.23,30.29l3.75,0M60.23,7.08l3.75,0"/>
<path d="M60.23,471.25l7.5,0M60.23,355.21l7.5,0M60.23,239.17l7.5,0M60.23,123.12l7.5,0M60.23,7.08l7.5,0"/>
<path d="M524.4,471.25l0,-464.17"/>
<path d="M524.4,471.25l-3.75,0M524.4,448.05l-3.75,0M524.4,424.84l-3.75,0M524.4,401.63l-3.75,0M524.4,378.42l-3.75,0M524.4,355.21l-3.75,0M524.4,332l-3.75,0M524.4,308.79l-3.75,0M524.4,285.59l-3.75,0M524.4,262.38l-3.75,0M524.4,239.17l-3.75,0M524.4,215.96l-3.75,0M524.4,192.75l-3.75,0M524.4,169.54l-3.75,0M524.4,146.33l-3.75,0M524.4,123.12l-3.75,0M524.4,99.92l-3.75,0M524.4,76.71l-3.75,0M524.4,53.5l-3.75,0M524.4,30.29l-3.75,0M524.4,7.08l-3.75,0"/>
<path d="M524.4,471.25l-7.5,0M524.4,355.21l-7.5,0M524.4,239.17l-7.5,0M524.4,123.12l-7.5,0M524.4,7.08l-7.5,0"/>
</g>
<g fill="none" stroke-width="1">
<g transform="matrix(0 -1 1 0 18.33 244.12)">
<g stroke="none" fill="#000000" fill-opacity="1" font-family="Bitstream Vera Serif" font-size="17.5" font-style="italic">
<text x="0" y="0" textLength="9.9">y</text>
</g>
</g>
<g stroke="none" fill="#000000" fill-opacity="1" font-family="Bitstream Vera Serif" font-size="17.5">
<text x="30.43" y="477.9" textLength="25.8">−2</text>
<text x="30.43" y="361.86" textLength="25.8">−1</text>
<text x="45.13" y="245.82" textLength="11.1">0</text>
<text x="45.13" y="129.77" textLength="11.1">1</text>
<text x="45.13" y="17.4" textLength="11.1">2</text>
</g>
</g>
<g fill="none" stroke-linecap="butt" stroke-width="0.62">
<path d="M60.23,471.25l464.17,0"/>
<path d="M67.39,471.25l0,-3.75M103.19,471.25l0,-3.75M138.99,471.25l0,-3.75M174.79,471.25l0,-3.75M210.58,471.25l0,-3.75M246.38,471.25l0,-3.75M282.18,471.25l0,-3.75M317.98,471.25l0,-3.75M353.78,471.25l0,-3.75M389.58,471.25l0,-3.75M425.37,471.25l0,-3.75M461.17,471.25l0,-3.75M496.97,471.25l0,-3.75"/>
<path d="M67.39,471.25l0,-7.5M138.99,471.25l0,-7.5M210.58,471.25l0,-7.5M282.18,471.25l0,-7.5M353.78,471.25l0,-7.5M425.37,471.25l0,-7.5M496.97,471.25l0,-7.5"/>
<path d="M60.23,7.08l464.17,0"/>
<path d="M67.39,7.08l0,3.75M103.19,7.08l0,3.75M138.99,7.08l0,3.75M174.79,7.08l0,3.75M210.58,7.08l0,3.75M246.38,7.08l0,3.75M282.18,7.08l0,3.75M317.98,7.08l0,3.75M353.78,7.08l0,3.75M389.58,7.08l0,3.75M425.37,7.08l0,3.75M461.17,7.08l0,3.75M496.97,7.08l0,3.75"/>
<path d="M67.39,7.08l0,7.5M138.99,7.08l0,7.5M210.58,7.08l0,7.5M282.18,7.08l0,7.5M353.78,7.08l0,7.5M425.37,7.08l0,7.5M496.97,7.08l0,7.5"/>
</g>
<g fill="none" stroke-width="1">
<g stroke="none" fill="#000000" fill-opacity="1" font-family="Bitstream Vera Serif" font-size="17.5" font-style="italic">
<text x="287.37" y="515.85" textLength="9.9">x</text>
</g>
<g stroke="none" fill="#000000" fill-opacity="1" font-family="Bitstream Vera Serif" font-size="17.5">
<text x="61.84" y="491.55" textLength="11.1">0</text>
<text x="133.44" y="491.55" textLength="11.1">1</text>
<text x="205.03" y="491.55" textLength="11.1">2</text>
<text x="276.63" y="491.55" textLength="11.1">3</text>
<text x="348.23" y="491.55" textLength="11.1">4</text>
<text x="419.82" y="491.55" textLength="11.1">5</text>
<text x="491.42" y="491.55" textLength="11.1">6</text>
</g>
</g>
</g>
</g>
</svg>
