<?xml version="1.0" standalone="no"?>
<!DOCTYPE svg PUBLIC "-//W3C//DTD SVG 1.1//EN" 
  "http://www.w3.org/Graphics/SVG/1.1/DTD/svg11.dtd">
<svg width="533.49px" height="533.49px" version="1.1"
     xmlns="http://www.w3.org/2000/svg"
     xmlns:xlink="http://www.w3.org/1999/xlink">
<desc>Veusz output document</desc>
<g stroke-linejoin="bevel" stroke-linecap="square" stroke="#000000" fill-rule="evenodd">
<g clip-path="url(#c0)">
<g stroke-width="0.62" fill="#ffffff">
<path d="m60.46,7.11l465.91,0l0,465.91l-465.91,0l0,-465.91"/>
</g>
<g stroke="none" stroke-width="1" fill="#ffffff">
<path d="m375.81,413.03l130.57,0l0,40l-130.57,0l0,-40"/>
</g>
</g>
<g clip-path="url(#c1)">
<g stroke-width="0.62" fill="none">
<path d="M393.59,415.03l0,16"/>
<path d="M393.59,423.03l0,0"/>
<path d="M389.84,415.03l7.5,0"/>
<path d="M389.84,431.03l7.5,0"/>
<path d="M393.59,419.28l0,7.5"/>
<path d="M393.59,419.28l0,7.5"/>
<path d="M375.81,423.03l35.57,0"/>
</g>
<g stroke-linejoin="miter" stroke-width="0.62" transform="translate(393.59, 423.03)" fill="#000000">
<path d="m3.75,0c0,2.07,-1.68,3.75,-3.75,3.75c-2.07,0,-3.75,-1.68,-3.75,-3.75c0,-2.07,1.68,-3.75,3.75,-3.75c2.07,0,3.75,1.68,3.75,3.75"/>
</g>
</g>
<g clip-path="url(#c0)">
<g stroke-width="1" fill="none">
<path d="m441.41,425.81l0.28,0.06l-0.98,3.14l-8.98,0l0,-0.31l0.44,0c0.49,0,0.84,-0.16,1.06,-0.48c0.11,-0.18,0.17,-0.6,0.17,-1.27l0,-7.47c0,-0.73,-0.08,-1.18,-0.23,-1.36c-0.23,-0.25,-0.56,-0.37,-1,-0.37l-0.44,0l0,-0.33l5.25,0l0,0.33c-0.61,-0.01,-1.04,0.04,-1.29,0.16c-0.24,0.12,-0.41,0.27,-0.51,0.45c-0.09,0.18,-0.14,0.62,-0.14,1.3l0,7.28c0,0.48,0.05,0.81,0.14,0.98c0.06,0.11,0.17,0.2,0.31,0.26c0.15,0.06,0.59,0.09,1.33,0.09l0.86,0c0.89,0,1.51,-0.07,1.87,-0.2c0.36,-0.13,0.69,-0.36,0.98,-0.7c0.3,-0.33,0.59,-0.86,0.88,-1.58m3.5,-8.95c0.24,0,0.45,0.09,0.62,0.26c0.17,0.17,0.26,0.38,0.26,0.62c0,0.24,-0.09,0.44,-0.26,0.61c-0.17,0.17,-0.38,0.25,-0.62,0.25c-0.24,0,-0.44,-0.08,-0.61,-0.25c-0.17,-0.17,-0.25,-0.37,-0.25,-0.61c0,-0.24,0.08,-0.45,0.25,-0.62c0.17,-0.17,0.37,-0.26,0.61,-0.26m0.72,4.09l0,6.3c0,0.49,0.03,0.82,0.1,0.98c0.07,0.16,0.17,0.28,0.31,0.36c0.14,0.08,0.4,0.12,0.77,0.12l0,0.31l-3.81,0l0,-0.31c0.39,0,0.64,-0.04,0.77,-0.11c0.13,-0.07,0.23,-0.2,0.31,-0.37c0.08,-0.17,0.12,-0.5,0.12,-0.98l0,-3.02c0,-0.85,-0.03,-1.41,-0.08,-1.66c-0.04,-0.18,-0.1,-0.3,-0.19,-0.37c-0.08,-0.07,-0.2,-0.11,-0.34,-0.11c-0.17,0,-0.36,0.04,-0.59,0.12l-0.11,-0.3l2.36,-0.97l0.37,0m3.58,1.66c0.92,-1.1,1.79,-1.66,2.62,-1.66c0.43,0,0.79,0.11,1.1,0.32c0.31,0.21,0.55,0.57,0.73,1.05c0.14,0.34,0.2,0.87,0.2,1.58l0,3.34c0,0.49,0.04,0.82,0.11,1c0.06,0.15,0.16,0.26,0.3,0.34c0.14,0.08,0.4,0.12,0.77,0.12l0,0.31l-3.87,0l0,-0.31l0.17,0c0.36,0,0.62,-0.05,0.77,-0.16c0.15,-0.11,0.24,-0.27,0.3,-0.49c0.02,-0.08,0.03,-0.35,0.03,-0.8l0,-3.2c0,-0.72,-0.09,-1.24,-0.27,-1.55c-0.18,-0.32,-0.49,-0.48,-0.93,-0.48c-0.68,0,-1.35,0.37,-2.03,1.11l0,4.12c0,0.53,0.03,0.86,0.09,0.98c0.08,0.17,0.19,0.29,0.33,0.36c0.14,0.07,0.42,0.11,0.86,0.11l0,0.31l-3.87,0l0,-0.31l0.17,0c0.4,0,0.66,-0.1,0.8,-0.3c0.14,-0.2,0.21,-0.59,0.21,-1.15l0,-2.91c0,-0.94,-0.02,-1.51,-0.06,-1.72c-0.04,-0.21,-0.11,-0.35,-0.2,-0.42c-0.09,-0.07,-0.21,-0.11,-0.37,-0.11c-0.16,0,-0.34,0.04,-0.56,0.12l-0.12,-0.3l2.36,-0.97l0.36,0l0,1.66m8.03,1.53c0,1.16,0.28,2.07,0.84,2.73c0.57,0.66,1.24,0.98,2.02,0.98c0.51,0,0.96,-0.14,1.34,-0.42c0.38,-0.28,0.7,-0.77,0.95,-1.45l0.27,0.17c-0.11,0.78,-0.46,1.49,-1.04,2.13c-0.58,0.64,-1.3,0.96,-2.16,0.96c-0.94,0,-1.74,-0.36,-2.41,-1.09c-0.67,-0.73,-1,-1.71,-1,-2.95c0,-1.33,0.34,-2.37,1.02,-3.12c0.68,-0.75,1.54,-1.12,2.59,-1.12c0.87,0,1.59,0.29,2.16,0.87c0.56,0.58,0.84,1.35,0.84,2.32l-5.41,0m0,-0.5l3.62,0c-0.03,-0.5,-0.09,-0.85,-0.17,-1.06c-0.15,-0.31,-0.36,-0.56,-0.64,-0.74c-0.28,-0.18,-0.58,-0.27,-0.89,-0.27c-0.47,0,-0.89,0.18,-1.27,0.55c-0.37,0.36,-0.59,0.87,-0.66,1.53m11.12,-1.67l2.41,-0.98l0.33,0l0,1.84c0.41,-0.7,0.81,-1.18,1.22,-1.46c0.41,-0.28,0.83,-0.41,1.28,-0.41c0.79,0,1.45,0.31,1.97,0.92c0.65,0.76,0.97,1.74,0.97,2.94c0,1.35,-0.39,2.47,-1.17,3.36c-0.64,0.72,-1.44,1.08,-2.41,1.08c-0.42,0,-0.78,-0.06,-1.09,-0.17c-0.23,-0.08,-0.48,-0.26,-0.77,-0.52l0,2.39c0,0.53,0.03,0.87,0.09,1.02c0.06,0.15,0.18,0.26,0.34,0.34c0.17,0.08,0.46,0.12,0.89,0.12l0,0.33l-4.11,0l0,-0.33l0.22,0c0.31,0.01,0.58,-0.05,0.8,-0.17c0.11,-0.06,0.2,-0.16,0.26,-0.3c0.06,-0.14,0.09,-0.5,0.09,-1.07l0,-7.39c0,-0.51,-0.02,-0.83,-0.07,-0.97c-0.05,-0.14,-0.12,-0.24,-0.22,-0.3c-0.1,-0.07,-0.23,-0.1,-0.4,-0.1c-0.14,0,-0.31,0.04,-0.53,0.11l-0.09,-0.27m2.73,1.36l0,2.92c0,0.64,0.03,1.05,0.08,1.25c0.07,0.32,0.27,0.61,0.58,0.86c0.31,0.25,0.7,0.37,1.17,0.37c0.57,0,1.04,-0.22,1.39,-0.66c0.46,-0.58,0.69,-1.4,0.69,-2.45c0,-1.2,-0.26,-2.12,-0.78,-2.77c-0.36,-0.44,-0.8,-0.66,-1.3,-0.66c-0.27,0,-0.54,0.07,-0.81,0.2c-0.21,0.1,-0.55,0.41,-1.02,0.92m9.52,-6.47l0,10.39c0,0.49,0.04,0.81,0.11,0.97c0.07,0.16,0.18,0.28,0.33,0.36c0.15,0.08,0.42,0.12,0.83,0.12l0,0.31l-3.83,0l0,-0.31c0.35,0,0.6,-0.04,0.73,-0.11c0.13,-0.07,0.23,-0.2,0.3,-0.37c0.07,-0.17,0.11,-0.5,0.11,-0.98l0,-7.11c0,-0.89,-0.02,-1.43,-0.05,-1.63c-0.04,-0.2,-0.1,-0.34,-0.19,-0.41c-0.09,-0.07,-0.2,-0.11,-0.34,-0.11c-0.15,0,-0.33,0.05,-0.56,0.14l-0.16,-0.3l2.34,-0.97l0.37,0m5.14,4.09c1.19,0,2.14,0.45,2.86,1.36c0.6,0.77,0.91,1.65,0.91,2.64c0,0.7,-0.17,1.41,-0.5,2.12c-0.33,0.72,-0.8,1.26,-1.39,1.62c-0.59,0.36,-1.25,0.55,-1.97,0.55c-1.18,0,-2.11,-0.47,-2.81,-1.41c-0.58,-0.79,-0.87,-1.68,-0.87,-2.67c0,-0.71,0.18,-1.42,0.53,-2.13c0.35,-0.71,0.82,-1.24,1.41,-1.58c0.58,-0.34,1.2,-0.51,1.84,-0.51m-0.27,0.56c-0.3,0,-0.6,0.09,-0.91,0.27c-0.3,0.18,-0.55,0.49,-0.74,0.95c-0.19,0.45,-0.29,1.03,-0.29,1.74c0,1.14,0.23,2.11,0.68,2.94c0.45,0.82,1.05,1.23,1.8,1.23c0.55,0,1.01,-0.23,1.36,-0.68c0.35,-0.45,0.53,-1.24,0.53,-2.35c0,-1.39,-0.3,-2.48,-0.89,-3.28c-0.41,-0.54,-0.92,-0.81,-1.55,-0.81m7.7,-2.91l0,2.58l1.84,0l0,0.59l-1.84,0l0,5.08c0,0.51,0.07,0.85,0.22,1.03c0.15,0.18,0.33,0.27,0.56,0.27c0.19,0,0.37,-0.06,0.55,-0.18c0.18,-0.12,0.31,-0.29,0.41,-0.52l0.34,0c-0.2,0.56,-0.48,0.98,-0.84,1.27c-0.36,0.28,-0.74,0.42,-1.14,0.42c-0.26,0,-0.52,-0.07,-0.77,-0.22c-0.25,-0.15,-0.43,-0.35,-0.55,-0.62c-0.12,-0.27,-0.18,-0.69,-0.18,-1.25l0,-5.27l-1.23,0l0,-0.28c0.31,-0.12,0.63,-0.34,0.96,-0.63c0.33,-0.3,0.62,-0.65,0.88,-1.07c0.12,-0.21,0.31,-0.6,0.55,-1.19l0.25,0" fill="#000000" stroke="none" fill-opacity="1"/>
</g>
</g>
<g clip-path="url(#c2)">
<g stroke="#ff0000" stroke-width="0.62" fill="none">
<path d="M393.59,435.03l0,16"/>
<path d="M393.59,443.03l0,0"/>
</g>
<g stroke-width="0.62" stroke-dasharray="0.625,1.25" fill="none">
<path d="M375.81,443.03l35.57,0"/>
</g>
<g stroke-linejoin="miter" stroke-width="0.62" transform="translate(393.59, 443.03)" fill="#ff0000">
<path d="m-3.75,-3.75l7.5,0l0,7.5l-7.5,0l0,-7.5"/>
</g>
</g>
<g clip-path="url(#c0)">
<g stroke-width="1" fill="none">
<path d="m434.97,442.8l5.39,0l0,-3.31c0,-0.59,-0.04,-0.98,-0.11,-1.17c-0.06,-0.14,-0.18,-0.26,-0.36,-0.36c-0.25,-0.14,-0.51,-0.2,-0.78,-0.2l-0.41,0l0,-0.33l4.95,0l0,0.33l-0.41,0c-0.28,0,-0.54,0.06,-0.78,0.19c-0.19,0.09,-0.31,0.23,-0.37,0.42c-0.06,0.19,-0.09,0.56,-0.09,1.12l0,7.48c0,0.58,0.04,0.97,0.11,1.16c0.05,0.15,0.17,0.27,0.34,0.37c0.25,0.14,0.52,0.2,0.8,0.2l0.41,0l0,0.31l-4.95,0l0,-0.31l0.41,0c0.47,0,0.81,-0.14,1.03,-0.42c0.15,-0.19,0.22,-0.62,0.22,-1.31l0,-3.53l-5.39,0l0,3.53c0,0.58,0.04,0.97,0.11,1.16c0.06,0.15,0.18,0.27,0.36,0.37c0.25,0.14,0.51,0.2,0.78,0.2l0.42,0l0,0.31l-4.97,0l0,-0.31l0.41,0c0.48,0,0.83,-0.14,1.05,-0.42c0.14,-0.19,0.2,-0.62,0.2,-1.31l0,-7.48c0,-0.59,-0.04,-0.98,-0.11,-1.17c-0.05,-0.14,-0.17,-0.26,-0.34,-0.36c-0.25,-0.14,-0.52,-0.2,-0.8,-0.2l-0.41,0l0,-0.33l4.97,0l0,0.33l-0.42,0c-0.27,0,-0.53,0.06,-0.78,0.19c-0.18,0.09,-0.3,0.23,-0.37,0.42c-0.07,0.19,-0.1,0.56,-0.1,1.12l0,3.31m11.94,-5.94c0.24,0,0.45,0.09,0.62,0.26c0.17,0.17,0.26,0.38,0.26,0.62c0,0.24,-0.09,0.44,-0.26,0.61c-0.17,0.17,-0.38,0.25,-0.62,0.25c-0.24,0,-0.44,-0.08,-0.61,-0.25c-0.17,-0.17,-0.25,-0.37,-0.25,-0.61c0,-0.24,0.08,-0.45,0.25,-0.62c0.17,-0.17,0.37,-0.26,0.61,-0.26m0.72,4.09l0,6.3c0,0.49,0.03,0.82,0.1,0.98c0.07,0.16,0.17,0.28,0.31,0.36c0.14,0.08,0.4,0.12,0.77,0.12l0,0.31l-3.81,0l0,-0.31c0.39,0,0.64,-0.04,0.77,-0.11c0.13,-0.07,0.23,-0.2,0.31,-0.37c0.08,-0.17,0.12,-0.5,0.12,-0.98l0,-3.02c0,-0.85,-0.03,-1.41,-0.08,-1.66c-0.04,-0.18,-0.1,-0.3,-0.19,-0.37c-0.08,-0.07,-0.2,-0.11,-0.34,-0.11c-0.17,0,-0.36,0.04,-0.59,0.12l-0.11,-0.3l2.36,-0.97l0.37,0m6.36,0l0,2.67l-0.28,0c-0.22,-0.83,-0.5,-1.4,-0.84,-1.7c-0.34,-0.3,-0.77,-0.45,-1.29,-0.45c-0.41,0,-0.73,0.1,-0.98,0.31c-0.24,0.21,-0.37,0.44,-0.37,0.7c0,0.31,0.09,0.58,0.28,0.81c0.18,0.24,0.54,0.49,1.08,0.75l1.23,0.61c1.16,0.56,1.73,1.3,1.73,2.22c0,0.72,-0.27,1.29,-0.8,1.73c-0.54,0.43,-1.14,0.65,-1.8,0.65c-0.48,0,-1.03,-0.08,-1.64,-0.25c-0.19,-0.06,-0.34,-0.09,-0.45,-0.09c-0.14,0,-0.24,0.08,-0.31,0.23l-0.28,0l0,-2.8l0.28,0c0.16,0.79,0.46,1.39,0.91,1.8c0.45,0.41,0.96,0.61,1.51,0.61c0.4,0,0.72,-0.11,0.97,-0.34c0.25,-0.23,0.37,-0.51,0.37,-0.83c0,-0.4,-0.14,-0.73,-0.41,-1c-0.28,-0.27,-0.83,-0.61,-1.66,-1.02c-0.83,-0.41,-1.37,-0.78,-1.63,-1.11c-0.25,-0.32,-0.37,-0.73,-0.37,-1.23c0,-0.65,0.22,-1.18,0.66,-1.62c0.44,-0.43,1.01,-0.65,1.72,-0.65c0.3,0,0.67,0.07,1.11,0.2c0.29,0.08,0.49,0.12,0.59,0.12c0.08,0,0.15,-0.02,0.2,-0.06c0.05,-0.04,0.11,-0.13,0.19,-0.27l0.28,0m4.2,-2.34l0,2.58l1.84,0l0,0.59l-1.84,0l0,5.08c0,0.51,0.07,0.85,0.22,1.03c0.15,0.18,0.33,0.27,0.56,0.27c0.19,0,0.37,-0.06,0.55,-0.18c0.18,-0.12,0.31,-0.29,0.41,-0.52l0.34,0c-0.2,0.56,-0.48,0.98,-0.84,1.27c-0.36,0.28,-0.74,0.42,-1.14,0.42c-0.26,0,-0.52,-0.07,-0.77,-0.22c-0.25,-0.15,-0.43,-0.35,-0.55,-0.62c-0.12,-0.27,-0.18,-0.69,-0.18,-1.25l0,-5.27l-1.23,0l0,-0.28c0.31,-0.12,0.63,-0.34,0.96,-0.63c0.33,-0.3,0.62,-0.65,0.88,-1.07c0.12,-0.21,0.31,-0.6,0.55,-1.19l0.25,0m6.56,2.34c1.19,0,2.14,0.45,2.86,1.36c0.6,0.77,0.91,1.65,0.91,2.64c0,0.7,-0.17,1.41,-0.5,2.12c-0.33,0.72,-0.8,1.26,-1.39,1.62c-0.59,0.36,-1.25,0.55,-1.97,0.55c-1.18,0,-2.11,-0.47,-2.81,-1.41c-0.58,-0.79,-0.87,-1.68,-0.87,-2.67c0,-0.71,0.18,-1.42,0.53,-2.13c0.35,-0.71,0.82,-1.24,1.41,-1.58c0.58,-0.34,1.2,-0.51,1.84,-0.51m-0.27,0.56c-0.3,0,-0.6,0.09,-0.91,0.27c-0.3,0.18,-0.55,0.49,-0.74,0.95c-0.19,0.45,-0.29,1.03,-0.29,1.74c0,1.14,0.23,2.11,0.68,2.94c0.45,0.82,1.05,1.23,1.8,1.23c0.55,0,1.01,-0.23,1.36,-0.68c0.35,-0.45,0.53,-1.24,0.53,-2.35c0,-1.39,-0.3,-2.48,-0.89,-3.28c-0.41,-0.54,-0.92,-0.81,-1.55,-0.81m7.53,4.64c-0.48,-0.23,-0.85,-0.55,-1.1,-0.97c-0.26,-0.42,-0.38,-0.88,-0.38,-1.39c0,-0.78,0.29,-1.45,0.87,-2.01c0.58,-0.56,1.33,-0.84,2.23,-0.84c0.75,0,1.4,0.18,1.95,0.55l1.66,0c0.24,0,0.38,0.01,0.42,0.02c0.04,0.02,0.07,0.04,0.08,0.07c0.04,0.05,0.06,0.15,0.06,0.28c0,0.15,-0.02,0.24,-0.05,0.3c-0.02,0.03,-0.05,0.06,-0.09,0.08c-0.04,0.02,-0.18,0.03,-0.42,0.03l-1.02,0c0.31,0.41,0.47,0.93,0.47,1.56c0,0.73,-0.28,1.35,-0.84,1.87c-0.56,0.52,-1.3,0.78,-2.24,0.78c-0.39,0,-0.78,-0.06,-1.19,-0.17c-0.25,0.22,-0.42,0.41,-0.51,0.57c-0.09,0.16,-0.13,0.3,-0.13,0.41c0,0.09,0.05,0.18,0.14,0.27c0.09,0.09,0.28,0.15,0.55,0.2c0.16,0.02,0.56,0.04,1.2,0.06c1.17,0.03,1.93,0.07,2.28,0.12c0.53,0.07,0.95,0.27,1.27,0.59c0.31,0.32,0.47,0.71,0.47,1.18c0,0.65,-0.3,1.25,-0.91,1.81c-0.89,0.83,-2.04,1.25,-3.47,1.25c-1.1,0,-2.04,-0.25,-2.8,-0.75c-0.43,-0.28,-0.64,-0.58,-0.64,-0.89c0,-0.14,0.03,-0.27,0.09,-0.41c0.1,-0.21,0.31,-0.5,0.61,-0.87c0.03,-0.05,0.32,-0.36,0.86,-0.92c-0.29,-0.18,-0.5,-0.34,-0.62,-0.48c-0.12,-0.14,-0.19,-0.3,-0.19,-0.48c0,-0.2,0.08,-0.43,0.25,-0.7c0.17,-0.27,0.54,-0.65,1.12,-1.14m1.48,-4.78c-0.42,0,-0.77,0.17,-1.05,0.5c-0.29,0.33,-0.43,0.85,-0.43,1.55c0,0.9,0.19,1.59,0.58,2.09c0.3,0.37,0.68,0.56,1.12,0.56c0.44,0,0.8,-0.16,1.08,-0.48c0.28,-0.32,0.42,-0.83,0.42,-1.53c0,-0.91,-0.2,-1.61,-0.59,-2.12c-0.29,-0.37,-0.67,-0.56,-1.12,-0.56m-1.56,7.64c-0.27,0.29,-0.47,0.56,-0.61,0.81c-0.14,0.25,-0.2,0.48,-0.2,0.69c0,0.28,0.16,0.52,0.48,0.72c0.57,0.35,1.4,0.53,2.47,0.53c1.03,0,1.79,-0.18,2.27,-0.54c0.48,-0.36,0.73,-0.75,0.73,-1.16c0,-0.29,-0.15,-0.5,-0.44,-0.62c-0.29,-0.12,-0.87,-0.2,-1.75,-0.22c-1.28,-0.04,-2.27,-0.11,-2.95,-0.2m8.28,-8.06l0,1.77c0.65,-1.18,1.32,-1.77,2.02,-1.77c0.31,0,0.57,0.1,0.77,0.29c0.2,0.19,0.3,0.41,0.3,0.66c0,0.22,-0.07,0.41,-0.22,0.56c-0.15,0.16,-0.32,0.23,-0.53,0.23c-0.2,0,-0.42,-0.1,-0.67,-0.3c-0.25,-0.2,-0.43,-0.3,-0.55,-0.3c-0.1,0,-0.22,0.06,-0.34,0.17c-0.25,0.23,-0.51,0.61,-0.78,1.16l0,3.75c0,0.44,0.05,0.77,0.16,0.98c0.07,0.16,0.2,0.28,0.39,0.38c0.19,0.1,0.46,0.15,0.81,0.15l0,0.31l-4,0l0,-0.31c0.4,0,0.69,-0.06,0.87,-0.19c0.15,-0.08,0.25,-0.23,0.31,-0.44c0.02,-0.09,0.03,-0.37,0.03,-0.83l0,-3.03c0,-0.91,-0.02,-1.45,-0.05,-1.62c-0.04,-0.18,-0.1,-0.3,-0.2,-0.38c-0.1,-0.08,-0.22,-0.12,-0.37,-0.12c-0.18,0,-0.37,0.04,-0.59,0.12l-0.09,-0.3l2.37,-0.97l0.36,0m8.14,6.94c-0.8,0.61,-1.31,0.97,-1.52,1.08c-0.3,0.14,-0.63,0.2,-0.98,0.2c-0.54,0,-0.99,-0.18,-1.34,-0.55c-0.35,-0.37,-0.52,-0.86,-0.52,-1.46c0,-0.37,0.08,-0.7,0.25,-0.98c0.24,-0.39,0.65,-0.75,1.23,-1.09c0.58,-0.34,1.54,-0.76,2.88,-1.25l0,-0.31c0,-0.78,-0.12,-1.32,-0.37,-1.6c-0.25,-0.29,-0.61,-0.43,-1.08,-0.43c-0.36,0,-0.65,0.09,-0.86,0.28c-0.22,0.2,-0.33,0.42,-0.33,0.67l0.02,0.5c0,0.26,-0.07,0.46,-0.2,0.6c-0.13,0.14,-0.3,0.21,-0.52,0.21c-0.21,0,-0.38,-0.07,-0.52,-0.22c-0.14,-0.15,-0.2,-0.35,-0.2,-0.61c0,-0.49,0.25,-0.94,0.75,-1.35c0.5,-0.41,1.2,-0.62,2.11,-0.62c0.7,0,1.27,0.12,1.72,0.36c0.33,0.18,0.58,0.45,0.73,0.83c0.1,0.24,0.16,0.74,0.16,1.5l0,2.66c0,0.75,0.02,1.21,0.05,1.37c0.03,0.17,0.08,0.28,0.14,0.34c0.06,0.06,0.14,0.09,0.22,0.09c0.09,0,0.18,-0.02,0.25,-0.06c0.11,-0.07,0.34,-0.28,0.69,-0.62l0,0.48c-0.64,0.85,-1.24,1.28,-1.83,1.28c-0.28,0,-0.51,-0.1,-0.67,-0.29c-0.17,-0.19,-0.25,-0.52,-0.25,-0.99m0,-0.56l0,-2.98c-0.86,0.34,-1.42,0.59,-1.67,0.73c-0.45,0.25,-0.77,0.51,-0.96,0.78c-0.19,0.27,-0.29,0.57,-0.29,0.91c0,0.41,0.12,0.74,0.37,1.02c0.24,0.27,0.52,0.41,0.84,0.41c0.44,0,1.01,-0.29,1.72,-0.86m5.89,-4.7c0.56,-0.57,0.9,-0.9,1,-0.98c0.26,-0.22,0.54,-0.39,0.84,-0.51c0.3,-0.12,0.59,-0.18,0.88,-0.18c0.49,0,0.91,0.14,1.27,0.43c0.35,0.29,0.59,0.7,0.7,1.24c0.58,-0.69,1.08,-1.14,1.48,-1.35c0.41,-0.21,0.82,-0.32,1.25,-0.32c0.42,0,0.79,0.11,1.11,0.32c0.32,0.21,0.58,0.57,0.77,1.05c0.12,0.33,0.19,0.85,0.19,1.55l0,3.37c0,0.49,0.04,0.82,0.11,1c0.05,0.12,0.16,0.23,0.31,0.32c0.16,0.09,0.41,0.13,0.75,0.13l0,0.31l-3.86,0l0,-0.31l0.16,0c0.34,0,0.61,-0.06,0.8,-0.19c0.12,-0.09,0.22,-0.24,0.28,-0.44c0.02,-0.09,0.03,-0.37,0.03,-0.83l0,-3.37c0,-0.64,-0.08,-1.08,-0.23,-1.34c-0.22,-0.36,-0.57,-0.55,-1.06,-0.55c-0.3,0,-0.61,0.08,-0.91,0.23c-0.31,0.15,-0.67,0.43,-1.1,0.84l-0.02,0.09l0.02,0.37l0,3.73c0,0.53,0.03,0.86,0.09,0.99c0.06,0.13,0.17,0.24,0.34,0.33c0.17,0.09,0.45,0.13,0.84,0.13l0,0.31l-3.95,0l0,-0.31c0.44,0,0.74,-0.05,0.9,-0.15c0.16,-0.1,0.27,-0.25,0.34,-0.46c0.03,-0.09,0.05,-0.37,0.05,-0.84l0,-3.37c0,-0.64,-0.09,-1.09,-0.28,-1.37c-0.26,-0.36,-0.61,-0.55,-1.06,-0.55c-0.3,0,-0.6,0.08,-0.91,0.25c-0.48,0.25,-0.84,0.53,-1.09,0.84l0,4.2c0,0.51,0.03,0.84,0.1,1c0.07,0.16,0.17,0.27,0.31,0.34c0.14,0.07,0.42,0.11,0.85,0.11l0,0.31l-3.86,0l0,-0.31c0.35,0,0.6,-0.04,0.74,-0.11c0.14,-0.07,0.25,-0.2,0.33,-0.37c0.08,-0.17,0.12,-0.5,0.12,-0.98l0,-3c0,-0.85,-0.03,-1.41,-0.08,-1.66c-0.04,-0.19,-0.11,-0.32,-0.2,-0.39c-0.09,-0.07,-0.21,-0.11,-0.35,-0.11c-0.16,0,-0.34,0.04,-0.56,0.12l-0.14,-0.3l2.36,-0.97l0.37,0l0,1.67" fill="#000000" stroke="none" fill-opacity="1"/>
</g>
</g>
<g clip-path="url(#c3)">
<g stroke-width="0.62" stroke="#ff0000" stroke-linecap="butt" fill="none">
<path d="M118.7,413.12l0,-13.31M176.94,347.9l0,-14.64M235.18,280.01l0,-14.64"/>
</g>
<g stroke="none" stroke-width="1" fill="#808080">
<polygon points="176.94,339.91 206.06,339.91 206.06,273.35 235.18,273.35 235.18,473.03 118.7,473.03 118.7,406.47 147.82,406.47 147.82,339.91"/>
</g>
<g stroke-width="0.62" stroke-dasharray="0.625,1.25" fill="#808080">
<polyline fill="none" points="118.7,406.47 147.82,406.47 147.82,339.91 176.94,339.91 206.06,339.91 206.06,273.35 235.18,273.35"/>
</g>
<g stroke-linejoin="miter" stroke-width="0.62" transform="translate(118.7, 406.47)" fill="#ff0000">
<path d="m-3.75,-3.75l7.5,0l0,7.5l-7.5,0l0,-7.5"/>
</g>
<g stroke-linejoin="miter" stroke-width="0.62" transform="translate(176.94, 339.91)" fill="#ff0000">
<path d="m-3.75,-3.75l7.5,0l0,7.5l-7.5,0l0,-7.5"/>
</g>
<g stroke-linejoin="miter" stroke-width="0.62" transform="translate(235.18, 273.35)" fill="#ff0000">
<path d="m-3.75,-3.75l7.5,0l0,7.5l-7.5,0l0,-7.5"/>
</g>
<g stroke-width="0.62" stroke-linecap="butt" fill="none">
<path d="M118.7,468.37l0,-3.99M130.35,447.73l0,-15.97M147.82,436.42l0,-6.66M188.59,382.51l0,-18.64M235.18,339.91l0,-26.62M293.42,274.02l0,-27.95M310.89,220.77l0,-29.29M351.08,233.41l0,-53.25M363.31,188.15l0,-42.6M468.14,246.73l0,-133.12M473.96,88.32l0,-29.29"/>
<path d="M114.95,468.37l7.5,0M126.6,447.73l7.5,0M144.07,436.42l7.5,0M184.84,382.51l7.5,0M231.43,339.91l7.5,0M289.67,274.02l7.5,0M307.14,220.77l7.5,0M347.33,233.41l7.5,0M359.56,188.15l7.5,0M464.39,246.73l7.5,0M470.21,88.32l7.5,0"/>
<path d="M114.95,464.37l7.5,0M126.6,431.76l7.5,0M144.07,429.76l7.5,0M184.84,363.87l7.5,0M231.43,313.29l7.5,0M289.67,246.06l7.5,0M307.14,191.48l7.5,0M347.33,180.17l7.5,0M359.56,145.56l7.5,0M464.39,113.61l7.5,0M470.21,59.03l7.5,0"/>
</g>
<g stroke-width="0.62" fill="none">
<polyline fill="none" points="118.7,466.37 130.35,439.75 147.82,433.09 188.59,373.19 235.18,326.6 293.42,260.04 310.89,206.12 351.08,206.79 363.31,166.86 468.14,180.17 473.96,73.67"/>
</g>
<g stroke-linejoin="miter" stroke-width="0.62" transform="translate(118.7, 466.37)" fill="#000000">
<path d="m3.75,0c0,2.07,-1.68,3.75,-3.75,3.75c-2.07,0,-3.75,-1.68,-3.75,-3.75c0,-2.07,1.68,-3.75,3.75,-3.75c2.07,0,3.75,1.68,3.75,3.75"/>
</g>
<g stroke-linejoin="miter" stroke-width="0.62" transform="translate(130.35, 439.75)" fill="#000000">
<path d="m3.75,0c0,2.07,-1.68,3.75,-3.75,3.75c-2.07,0,-3.75,-1.68,-3.75,-3.75c0,-2.07,1.68,-3.75,3.75,-3.75c2.07,0,3.75,1.68,3.75,3.75"/>
</g>
<g stroke-linejoin="miter" stroke-width="0.62" transform="translate(147.82, 433.09)" fill="#000000">
<path d="m3.75,0c0,2.07,-1.68,3.75,-3.75,3.75c-2.07,0,-3.75,-1.68,-3.75,-3.75c0,-2.07,1.68,-3.75,3.75,-3.75c2.07,0,3.75,1.68,3.75,3.75"/>
</g>
<g stroke-linejoin="miter" stroke-width="0.62" transform="translate(188.59, 373.19)" fill="#000000">
<path d="m3.75,0c0,2.07,-1.68,3.75,-3.75,3.75c-2.07,0,-3.75,-1.68,-3.75,-3.75c0,-2.07,1.68,-3.75,3.75,-3.75c2.07,0,3.75,1.68,3.75,3.75"/>
</g>
<g stroke-linejoin="miter" stroke-width="0.62" transform="translate(235.18, 326.6)" fill="#000000">
<path d="m3.75,0c0,2.07,-1.68,3.75,-3.75,3.75c-2.07,0,-3.75,-1.68,-3.75,-3.75c0,-2.07,1.68,-3.75,3.75,-3.75c2.07,0,3.75,1.68,3.75,3.75"/>
</g>
<g stroke-linejoin="miter" stroke-width="0.62" transform="translate(293.42, 260.04)" fill="#000000">
<path d="m3.75,0c0,2.07,-1.68,3.75,-3.75,3.75c-2.07,0,-3.75,-1.68,-3.75,-3.75c0,-2.07,1.68,-3.75,3.75,-3.75c2.07,0,3.75,1.68,3.75,3.75"/>
</g>
<g stroke-linejoin="miter" stroke-width="0.62" transform="translate(310.89, 206.12)" fill="#000000">
<path d="m3.75,0c0,2.07,-1.68,3.75,-3.75,3.75c-2.07,0,-3.75,-1.68,-3.75,-3.75c0,-2.07,1.68,-3.75,3.75,-3.75c2.07,0,3.75,1.68,3.75,3.75"/>
</g>
<g stroke-linejoin="miter" stroke-width="0.62" transform="translate(351.08, 206.79)" fill="#000000">
<path d="m3.75,0c0,2.07,-1.68,3.75,-3.75,3.75c-2.07,0,-3.75,-1.68,-3.75,-3.75c0,-2.07,1.68,-3.75,3.75,-3.75c2.07,0,3.75,1.68,3.75,3.75"/>
</g>
<g stroke-linejoin="miter" stroke-width="0.62" transform="translate(363.31, 166.86)" fill="#000000">
<path d="m3.75,0c0,2.07,-1.68,3.75,-3.75,3.75c-2.07,0,-3.75,-1.68,-3.75,-3.75c0,-2.07,1.68,-3.75,3.75,-3.75c2.07,0,3.75,1.68,3.75,3.75"/>
</g>
<g stroke-linejoin="miter" stroke-width="0.62" transform="translate(468.14, 180.17)" fill="#000000">
<path d="m3.75,0c0,2.07,-1.68,3.75,-3.75,3.75c-2.07,0,-3.75,-1.68,-3.75,-3.75c0,-2.07,1.68,-3.75,3.75,-3.75c2.07,0,3.75,1.68,3.75,3.75"/>
</g>
<g stroke-linejoin="miter" stroke-width="0.62" transform="translate(473.96, 73.67)" fill="#000000">
<path d="m3.75,0c0,2.07,-1.68,3.75,-3.75,3.75c-2.07,0,-3.75,-1.68,-3.75,-3.75c0,-2.07,1.68,-3.75,3.75,-3.75c2.07,0,3.75,1.68,3.75,3.75"/>
</g>
</g>
<g clip-path="url(#c0)">
<g stroke-width="0.62" stroke-linecap="butt" fill="none">
<path d="M60.46,473.03l0,-465.91"/>
<path d="M60.46,473.03l3.75,0M60.46,439.75l3.75,0M60.46,406.47l3.75,0M60.46,373.19l3.75,0M60.46,339.91l3.75,0M60.46,306.63l3.75,0M60.46,273.35l3.75,0M60.46,240.07l3.75,0M60.46,206.79l3.75,0M60.46,173.51l3.75,0M60.46,140.23l3.75,0M60.46,106.95l3.75,0M60.46,73.67l3.75,0M60.46,40.39l3.75,0M60.46,7.11l3.75,0"/>
<path d="M60.46,473.03l7.5,0M60.46,406.47l7.5,0M60.46,339.91l7.5,0M60.46,273.35l7.5,0M60.46,206.79l7.5,0M60.46,140.23l7.5,0M60.46,73.67l7.5,0M60.46,7.11l7.5,0"/>
<path d="M526.38,473.03l0,-465.91"/>
<path d="M526.38,473.03l-3.75,0M526.38,439.75l-3.75,0M526.38,406.47l-3.75,0M526.38,373.19l-3.75,0M526.38,339.91l-3.75,0M526.38,306.63l-3.75,0M526.38,273.35l-3.75,0M526.38,240.07l-3.75,0M526.38,206.79l-3.75,0M526.38,173.51l-3.75,0M526.38,140.23l-3.75,0M526.38,106.95l-3.75,0M526.38,73.67l-3.75,0M526.38,40.39l-3.75,0M526.38,7.11l-3.75,0"/>
<path d="M526.38,473.03l-7.5,0M526.38,406.47l-7.5,0M526.38,339.91l-7.5,0M526.38,273.35l-7.5,0M526.38,206.79l-7.5,0M526.38,140.23l-7.5,0M526.38,73.67l-7.5,0M526.38,7.11l-7.5,0"/>
</g>
<g stroke-width="1" transform="matrix(0 -1 1 0 39.46 330.57)" fill="none">
<path d="m0.3,0l0,-0.31l0.44,0c0.49,0,0.84,-0.16,1.05,-0.47c0.12,-0.19,0.19,-0.61,0.19,-1.27l0,-7.48c0,-0.73,-0.08,-1.18,-0.25,-1.36c-0.22,-0.25,-0.55,-0.37,-0.98,-0.37l-0.44,0l0,-0.33l4.72,0c1.73,0,3.05,0.2,3.95,0.59c0.91,0.4,1.63,1.05,2.18,1.97c0.55,0.92,0.82,1.97,0.82,3.17c0,1.61,-0.49,2.96,-1.47,4.05c-1.09,1.21,-2.77,1.81,-5.02,1.81l-5.19,0m3.31,-0.84c0.72,0.17,1.32,0.25,1.81,0.25c1.32,0,2.42,-0.47,3.29,-1.4c0.87,-0.93,1.3,-2.19,1.3,-3.77c0,-1.6,-0.43,-2.87,-1.3,-3.79c-0.87,-0.92,-1.99,-1.38,-3.35,-1.38c-0.51,0,-1.09,0.08,-1.75,0.25l0,9.84m14.37,-0.28c-0.8,0.61,-1.31,0.97,-1.52,1.08c-0.3,0.14,-0.63,0.2,-0.98,0.2c-0.54,0,-0.99,-0.18,-1.34,-0.55c-0.35,-0.37,-0.52,-0.86,-0.52,-1.46c0,-0.37,0.08,-0.7,0.25,-0.98c0.24,-0.39,0.65,-0.75,1.23,-1.09c0.58,-0.34,1.54,-0.76,2.88,-1.25l0,-0.31c0,-0.78,-0.12,-1.32,-0.37,-1.6c-0.25,-0.29,-0.61,-0.43,-1.08,-0.43c-0.36,0,-0.65,0.09,-0.86,0.28c-0.22,0.2,-0.33,0.42,-0.33,0.67l0.02,0.5c0,0.26,-0.07,0.46,-0.2,0.6c-0.13,0.14,-0.3,0.21,-0.52,0.21c-0.21,0,-0.38,-0.07,-0.52,-0.22c-0.14,-0.15,-0.2,-0.35,-0.2,-0.61c0,-0.49,0.25,-0.94,0.75,-1.35c0.5,-0.41,1.2,-0.62,2.11,-0.62c0.7,0,1.27,0.12,1.72,0.36c0.33,0.18,0.58,0.45,0.73,0.83c0.1,0.24,0.16,0.74,0.16,1.5l0,2.66c0,0.75,0.02,1.21,0.05,1.37c0.03,0.17,0.08,0.28,0.14,0.34c0.06,0.06,0.14,0.09,0.22,0.09c0.09,0,0.18,-0.02,0.25,-0.06c0.11,-0.07,0.34,-0.28,0.69,-0.62l0,0.48c-0.64,0.85,-1.24,1.28,-1.83,1.28c-0.28,0,-0.51,-0.1,-0.67,-0.29c-0.17,-0.19,-0.25,-0.52,-0.25,-0.99m0,-0.56l0,-2.98c-0.86,0.34,-1.42,0.59,-1.67,0.73c-0.45,0.25,-0.77,0.51,-0.96,0.78c-0.19,0.27,-0.29,0.57,-0.29,0.91c0,0.41,0.12,0.74,0.37,1.02c0.24,0.27,0.52,0.41,0.84,0.41c0.44,0,1.01,-0.29,1.72,-0.86m5.83,-8.72l0,2.58l1.84,0l0,0.59l-1.84,0l0,5.08c0,0.51,0.07,0.85,0.22,1.03c0.15,0.18,0.33,0.27,0.56,0.27c0.19,0,0.37,-0.06,0.55,-0.18c0.18,-0.12,0.31,-0.29,0.41,-0.52l0.34,0c-0.2,0.56,-0.48,0.98,-0.84,1.27c-0.36,0.28,-0.74,0.42,-1.14,0.42c-0.26,0,-0.52,-0.07,-0.77,-0.22c-0.25,-0.15,-0.43,-0.35,-0.55,-0.62c-0.12,-0.27,-0.18,-0.69,-0.18,-1.25l0,-5.27l-1.23,0l0,-0.28c0.31,-0.12,0.63,-0.34,0.96,-0.63c0.33,-0.3,0.62,-0.65,0.88,-1.07c0.12,-0.21,0.31,-0.6,0.55,-1.19l0.25,0m7.17,9.28c-0.8,0.61,-1.31,0.97,-1.52,1.08c-0.3,0.14,-0.63,0.2,-0.98,0.2c-0.54,0,-0.99,-0.18,-1.34,-0.55c-0.35,-0.37,-0.52,-0.86,-0.52,-1.46c0,-0.37,0.08,-0.7,0.25,-0.98c0.24,-0.39,0.65,-0.75,1.23,-1.09c0.58,-0.34,1.54,-0.76,2.88,-1.25l0,-0.31c0,-0.78,-0.12,-1.32,-0.37,-1.6c-0.25,-0.29,-0.61,-0.43,-1.08,-0.43c-0.36,0,-0.65,0.09,-0.86,0.28c-0.22,0.2,-0.33,0.42,-0.33,0.67l0.02,0.5c0,0.26,-0.07,0.46,-0.2,0.6c-0.13,0.14,-0.3,0.21,-0.52,0.21c-0.21,0,-0.38,-0.07,-0.52,-0.22c-0.14,-0.15,-0.2,-0.35,-0.2,-0.61c0,-0.49,0.25,-0.94,0.75,-1.35c0.5,-0.41,1.2,-0.62,2.11,-0.62c0.7,0,1.27,0.12,1.72,0.36c0.33,0.18,0.58,0.45,0.73,0.83c0.1,0.24,0.16,0.74,0.16,1.5l0,2.66c0,0.75,0.02,1.21,0.05,1.37c0.03,0.17,0.08,0.28,0.14,0.34c0.06,0.06,0.14,0.09,0.22,0.09c0.09,0,0.18,-0.02,0.25,-0.06c0.11,-0.07,0.34,-0.28,0.69,-0.62l0,0.48c-0.64,0.85,-1.24,1.28,-1.83,1.28c-0.28,0,-0.51,-0.1,-0.67,-0.29c-0.17,-0.19,-0.25,-0.52,-0.25,-0.99m0,-0.56l0,-2.98c-0.86,0.34,-1.42,0.59,-1.67,0.73c-0.45,0.25,-0.77,0.51,-0.96,0.78c-0.19,0.27,-0.29,0.57,-0.29,0.91c0,0.41,0.12,0.74,0.37,1.02c0.24,0.27,0.52,0.41,0.84,0.41c0.44,0,1.01,-0.29,1.72,-0.86m10.86,-6.37l0,1.77c0.65,-1.18,1.32,-1.77,2.02,-1.77c0.31,0,0.57,0.1,0.77,0.29c0.2,0.19,0.3,0.41,0.3,0.66c0,0.22,-0.07,0.41,-0.22,0.56c-0.15,0.16,-0.32,0.23,-0.53,0.23c-0.2,0,-0.42,-0.1,-0.67,-0.3c-0.25,-0.2,-0.43,-0.3,-0.55,-0.3c-0.1,0,-0.22,0.06,-0.34,0.17c-0.25,0.23,-0.51,0.61,-0.78,1.16l0,3.75c0,0.44,0.05,0.77,0.16,0.98c0.07,0.16,0.2,0.28,0.39,0.38c0.19,0.1,0.46,0.15,0.81,0.15l0,0.31l-4,0l0,-0.31c0.4,0,0.69,-0.06,0.87,-0.19c0.15,-0.08,0.25,-0.23,0.31,-0.44c0.02,-0.09,0.03,-0.37,0.03,-0.83l0,-3.03c0,-0.91,-0.02,-1.45,-0.05,-1.62c-0.04,-0.18,-0.1,-0.3,-0.2,-0.38c-0.1,-0.08,-0.22,-0.12,-0.37,-0.12c-0.18,0,-0.37,0.04,-0.59,0.12l-0.09,-0.3l2.37,-0.97l0.36,0m5.02,3.19c0,1.16,0.28,2.07,0.84,2.73c0.57,0.66,1.24,0.98,2.02,0.98c0.51,0,0.96,-0.14,1.34,-0.42c0.38,-0.28,0.7,-0.77,0.95,-1.45l0.27,0.17c-0.11,0.78,-0.46,1.49,-1.04,2.13c-0.58,0.64,-1.3,0.96,-2.16,0.96c-0.94,0,-1.74,-0.36,-2.41,-1.09c-0.67,-0.73,-1,-1.71,-1,-2.95c0,-1.33,0.34,-2.37,1.02,-3.12c0.68,-0.75,1.54,-1.12,2.59,-1.12c0.87,0,1.59,0.29,2.16,0.87c0.56,0.58,0.84,1.35,0.84,2.32l-5.41,0m0,-0.5l3.62,0c-0.03,-0.5,-0.09,-0.85,-0.17,-1.06c-0.15,-0.31,-0.36,-0.56,-0.64,-0.74c-0.28,-0.18,-0.58,-0.27,-0.89,-0.27c-0.47,0,-0.89,0.18,-1.27,0.55c-0.37,0.36,-0.59,0.87,-0.66,1.53m11.12,4.25c-0.8,0.61,-1.31,0.97,-1.52,1.08c-0.3,0.14,-0.63,0.2,-0.98,0.2c-0.54,0,-0.99,-0.18,-1.34,-0.55c-0.35,-0.37,-0.52,-0.86,-0.52,-1.46c0,-0.37,0.08,-0.7,0.25,-0.98c0.24,-0.39,0.65,-0.75,1.23,-1.09c0.58,-0.34,1.54,-0.76,2.88,-1.25l0,-0.31c0,-0.78,-0.12,-1.32,-0.37,-1.6c-0.25,-0.29,-0.61,-0.43,-1.08,-0.43c-0.36,0,-0.65,0.09,-0.86,0.28c-0.22,0.2,-0.33,0.42,-0.33,0.67l0.02,0.5c0,0.26,-0.07,0.46,-0.2,0.6c-0.13,0.14,-0.3,0.21,-0.52,0.21c-0.21,0,-0.38,-0.07,-0.52,-0.22c-0.14,-0.15,-0.2,-0.35,-0.2,-0.61c0,-0.49,0.25,-0.94,0.75,-1.35c0.5,-0.41,1.2,-0.62,2.11,-0.62c0.7,0,1.27,0.12,1.72,0.36c0.33,0.18,0.58,0.45,0.73,0.83c0.1,0.24,0.16,0.74,0.16,1.5l0,2.66c0,0.75,0.02,1.21,0.05,1.37c0.03,0.17,0.08,0.28,0.14,0.34c0.06,0.06,0.14,0.09,0.22,0.09c0.09,0,0.18,-0.02,0.25,-0.06c0.11,-0.07,0.34,-0.28,0.69,-0.62l0,0.48c-0.64,0.85,-1.24,1.28,-1.83,1.28c-0.28,0,-0.51,-0.1,-0.67,-0.29c-0.17,-0.19,-0.25,-0.52,-0.25,-0.99m0,-0.56l0,-2.98c-0.86,0.34,-1.42,0.59,-1.67,0.73c-0.45,0.25,-0.77,0.51,-0.96,0.78c-0.19,0.27,-0.29,0.57,-0.29,0.91c0,0.41,0.12,0.74,0.37,1.02c0.24,0.27,0.52,0.41,0.84,0.41c0.44,0,1.01,-0.29,1.72,-0.86m9.09,0.81c-0.39,0.4,-0.76,0.68,-1.12,0.85c-0.36,0.17,-0.76,0.26,-1.17,0.26c-0.85,0,-1.6,-0.36,-2.24,-1.07c-0.64,-0.71,-0.96,-1.63,-0.96,-2.76c0,-1.11,0.35,-2.14,1.06,-3.07c0.71,-0.93,1.61,-1.4,2.72,-1.4c0.7,0,1.27,0.22,1.72,0.66l0,-1.45c0,-0.89,-0.02,-1.43,-0.06,-1.64c-0.04,-0.21,-0.11,-0.35,-0.2,-0.42c-0.09,-0.07,-0.21,-0.11,-0.34,-0.11c-0.15,0,-0.34,0.05,-0.59,0.14l-0.11,-0.3l2.33,-0.97l0.39,0l0,9.05c0,0.93,0.02,1.49,0.06,1.69c0.04,0.2,0.11,0.34,0.2,0.42c0.09,0.08,0.2,0.12,0.33,0.12c0.16,0,0.36,-0.05,0.62,-0.16l0.09,0.31l-2.33,0.95l-0.39,0l0,-1.11m0,-0.61l0,-4.03c-0.03,-0.39,-0.13,-0.74,-0.3,-1.05c-0.17,-0.32,-0.4,-0.56,-0.68,-0.72c-0.28,-0.16,-0.56,-0.24,-0.83,-0.24c-0.5,0,-0.95,0.22,-1.34,0.67c-0.52,0.59,-0.78,1.46,-0.78,2.59c0,1.16,0.25,2.04,0.76,2.65c0.51,0.61,1.07,0.91,1.68,0.91c0.51,0,1.01,-0.26,1.5,-0.78m10.45,-10.67c0.24,0,0.45,0.09,0.62,0.26c0.17,0.17,0.26,0.38,0.26,0.62c0,0.24,-0.09,0.44,-0.26,0.61c-0.17,0.17,-0.38,0.25,-0.62,0.25c-0.24,0,-0.44,-0.08,-0.61,-0.25c-0.17,-0.17,-0.25,-0.37,-0.25,-0.61c0,-0.24,0.08,-0.45,0.25,-0.62c0.17,-0.17,0.37,-0.26,0.61,-0.26m0.72,4.09l0,6.3c0,0.49,0.03,0.82,0.1,0.98c0.07,0.16,0.17,0.28,0.31,0.36c0.14,0.08,0.4,0.12,0.77,0.12l0,0.31l-3.81,0l0,-0.31c0.39,0,0.64,-0.04,0.77,-0.11c0.13,-0.07,0.23,-0.2,0.31,-0.37c0.08,-0.17,0.12,-0.5,0.12,-0.98l0,-3.02c0,-0.85,-0.03,-1.41,-0.08,-1.66c-0.04,-0.18,-0.1,-0.3,-0.19,-0.37c-0.08,-0.07,-0.2,-0.11,-0.34,-0.11c-0.17,0,-0.36,0.04,-0.59,0.12l-0.11,-0.3l2.36,-0.97l0.37,0m3.58,1.66c0.92,-1.1,1.79,-1.66,2.62,-1.66c0.43,0,0.79,0.11,1.1,0.32c0.31,0.21,0.55,0.57,0.73,1.05c0.14,0.34,0.2,0.87,0.2,1.58l0,3.34c0,0.49,0.04,0.82,0.11,1c0.06,0.15,0.16,0.26,0.3,0.34c0.14,0.08,0.4,0.12,0.77,0.12l0,0.31l-3.87,0l0,-0.31l0.17,0c0.36,0,0.62,-0.05,0.77,-0.16c0.15,-0.11,0.24,-0.27,0.3,-0.49c0.02,-0.08,0.03,-0.35,0.03,-0.8l0,-3.2c0,-0.72,-0.09,-1.24,-0.27,-1.55c-0.18,-0.32,-0.49,-0.48,-0.93,-0.48c-0.68,0,-1.35,0.37,-2.03,1.11l0,4.12c0,0.53,0.03,0.86,0.09,0.98c0.08,0.17,0.19,0.29,0.33,0.36c0.14,0.07,0.42,0.11,0.86,0.11l0,0.31l-3.87,0l0,-0.31l0.17,0c0.4,0,0.66,-0.1,0.8,-0.3c0.14,-0.2,0.21,-0.59,0.21,-1.15l0,-2.91c0,-0.94,-0.02,-1.51,-0.06,-1.72c-0.04,-0.21,-0.11,-0.35,-0.2,-0.42c-0.09,-0.07,-0.21,-0.11,-0.37,-0.11c-0.16,0,-0.34,0.04,-0.56,0.12l-0.12,-0.3l2.36,-0.97l0.36,0l0,1.66m8.98,-4l0,2.58l1.84,0l0,0.59l-1.84,0l0,5.08c0,0.51,0.07,0.85,0.22,1.03c0.15,0.18,0.33,0.27,0.56,0.27c0.19,0,0.37,-0.06,0.55,-0.18c0.18,-0.12,0.31,-0.29,0.41,-0.52l0.34,0c-0.2,0.56,-0.48,0.98,-0.84,1.27c-0.36,0.28,-0.74,0.42,-1.14,0.42c-0.26,0,-0.52,-0.07,-0.77,-0.22c-0.25,-0.15,-0.43,-0.35,-0.55,-0.62c-0.12,-0.27,-0.18,-0.69,-0.18,-1.25l0,-5.27l-1.23,0l0,-0.28c0.31,-0.12,0.63,-0.34,0.96,-0.63c0.33,-0.3,0.62,-0.65,0.88,-1.07c0.12,-0.21,0.31,-0.6,0.55,-1.19l0.25,0m6.56,2.34c1.19,0,2.14,0.45,2.86,1.36c0.6,0.77,0.91,1.65,0.91,2.64c0,0.7,-0.17,1.41,-0.5,2.12c-0.33,0.72,-0.8,1.26,-1.39,1.62c-0.59,0.36,-1.25,0.55,-1.97,0.55c-1.18,0,-2.11,-0.47,-2.81,-1.41c-0.58,-0.79,-0.87,-1.68,-0.87,-2.67c0,-0.71,0.18,-1.42,0.53,-2.13c0.35,-0.71,0.82,-1.24,1.41,-1.58c0.58,-0.34,1.2,-0.51,1.84,-0.51m-0.27,0.56c-0.3,0,-0.6,0.09,-0.91,0.27c-0.3,0.18,-0.55,0.49,-0.74,0.95c-0.19,0.45,-0.29,1.03,-0.29,1.74c0,1.14,0.23,2.11,0.68,2.94c0.45,0.82,1.05,1.23,1.8,1.23c0.55,0,1.01,-0.23,1.36,-0.68c0.35,-0.45,0.53,-1.24,0.53,-2.35c0,-1.39,-0.3,-2.48,-0.89,-3.28c-0.41,-0.54,-0.92,-0.81,-1.55,-0.81m13.5,0.28l0,5.16c0,0.73,0.08,1.19,0.23,1.37c0.21,0.25,0.49,0.37,0.84,0.37l0.72,0l0,0.31l-4.69,0l0,-0.31l0.36,0c0.23,0,0.44,-0.06,0.62,-0.17c0.19,-0.11,0.32,-0.27,0.39,-0.46c0.07,-0.19,0.11,-0.57,0.11,-1.12l0,-5.16l-1.53,0l0,-0.61l1.53,0l0,-0.52c0,-0.78,0.12,-1.44,0.37,-1.98c0.25,-0.54,0.63,-0.98,1.15,-1.31c0.52,-0.33,1.09,-0.5,1.73,-0.5c0.6,0,1.16,0.2,1.66,0.59c0.33,0.25,0.5,0.54,0.5,0.86c0,0.17,-0.08,0.33,-0.23,0.48c-0.15,0.15,-0.31,0.23,-0.48,0.23c-0.14,0,-0.28,-0.05,-0.42,-0.14c-0.15,-0.09,-0.32,-0.29,-0.53,-0.6c-0.21,-0.31,-0.4,-0.52,-0.58,-0.63c-0.18,-0.1,-0.37,-0.16,-0.59,-0.16c-0.26,0,-0.48,0.07,-0.66,0.21c-0.18,0.14,-0.31,0.36,-0.39,0.65c-0.08,0.29,-0.12,1.05,-0.12,2.27l0,0.56l2.02,0l0,0.61l-2.02,0m5.23,-0.84l0,1.77c0.65,-1.18,1.32,-1.77,2.02,-1.77c0.31,0,0.57,0.1,0.77,0.29c0.2,0.19,0.3,0.41,0.3,0.66c0,0.22,-0.07,0.41,-0.22,0.56c-0.15,0.16,-0.32,0.23,-0.53,0.23c-0.2,0,-0.42,-0.1,-0.67,-0.3c-0.25,-0.2,-0.43,-0.3,-0.55,-0.3c-0.1,0,-0.22,0.06,-0.34,0.17c-0.25,0.23,-0.51,0.61,-0.78,1.16l0,3.75c0,0.44,0.05,0.77,0.16,0.98c0.07,0.16,0.2,0.28,0.39,0.38c0.19,0.1,0.46,0.15,0.81,0.15l0,0.31l-4,0l0,-0.31c0.4,0,0.69,-0.06,0.87,-0.19c0.15,-0.08,0.25,-0.23,0.31,-0.44c0.02,-0.09,0.03,-0.37,0.03,-0.83l0,-3.03c0,-0.91,-0.02,-1.45,-0.05,-1.62c-0.04,-0.18,-0.1,-0.3,-0.2,-0.38c-0.1,-0.08,-0.22,-0.12,-0.37,-0.12c-0.18,0,-0.37,0.04,-0.59,0.12l-0.09,-0.3l2.37,-0.97l0.36,0m7.53,0c1.19,0,2.14,0.45,2.86,1.36c0.6,0.77,0.91,1.65,0.91,2.64c0,0.7,-0.17,1.41,-0.5,2.12c-0.33,0.72,-0.8,1.26,-1.39,1.62c-0.59,0.36,-1.25,0.55,-1.97,0.55c-1.18,0,-2.11,-0.47,-2.81,-1.41c-0.58,-0.79,-0.87,-1.68,-0.87,-2.67c0,-0.71,0.18,-1.42,0.53,-2.13c0.35,-0.71,0.82,-1.24,1.41,-1.58c0.58,-0.34,1.2,-0.51,1.84,-0.51m-0.27,0.56c-0.3,0,-0.6,0.09,-0.91,0.27c-0.3,0.18,-0.55,0.49,-0.74,0.95c-0.19,0.45,-0.29,1.03,-0.29,1.74c0,1.14,0.23,2.11,0.68,2.94c0.45,0.82,1.05,1.23,1.8,1.23c0.55,0,1.01,-0.23,1.36,-0.68c0.35,-0.45,0.53,-1.24,0.53,-2.35c0,-1.39,-0.3,-2.48,-0.89,-3.28c-0.41,-0.54,-0.92,-0.81,-1.55,-0.81m7.77,1.11c0.56,-0.57,0.9,-0.9,1,-0.98c0.26,-0.22,0.54,-0.39,0.84,-0.51c0.3,-0.12,0.59,-0.18,0.88,-0.18c0.49,0,0.91,0.14,1.27,0.43c0.35,0.29,0.59,0.7,0.7,1.24c0.58,-0.69,1.08,-1.14,1.48,-1.35c0.41,-0.21,0.82,-0.32,1.25,-0.32c0.42,0,0.79,0.11,1.11,0.32c0.32,0.21,0.58,0.57,0.77,1.05c0.12,0.33,0.19,0.85,0.19,1.55l0,3.37c0,0.49,0.04,0.82,0.11,1c0.05,0.12,0.16,0.23,0.31,0.32c0.16,0.09,0.41,0.13,0.75,0.13l0,0.31l-3.86,0l0,-0.31l0.16,0c0.34,0,0.61,-0.06,0.8,-0.19c0.12,-0.09,0.22,-0.24,0.28,-0.44c0.02,-0.09,0.03,-0.37,0.03,-0.83l0,-3.37c0,-0.64,-0.08,-1.08,-0.23,-1.34c-0.22,-0.36,-0.57,-0.55,-1.06,-0.55c-0.3,0,-0.61,0.08,-0.91,0.23c-0.31,0.15,-0.67,0.43,-1.1,0.84l-0.02,0.09l0.02,0.37l0,3.73c0,0.53,0.03,0.86,0.09,0.99c0.06,0.13,0.17,0.24,0.34,0.33c0.17,0.09,0.45,0.13,0.84,0.13l0,0.31l-3.95,0l0,-0.31c0.44,0,0.74,-0.05,0.9,-0.15c0.16,-0.1,0.27,-0.25,0.34,-0.46c0.03,-0.09,0.05,-0.37,0.05,-0.84l0,-3.37c0,-0.64,-0.09,-1.09,-0.28,-1.37c-0.26,-0.36,-0.61,-0.55,-1.06,-0.55c-0.3,0,-0.6,0.08,-0.91,0.25c-0.48,0.25,-0.84,0.53,-1.09,0.84l0,4.2c0,0.51,0.03,0.84,0.1,1c0.07,0.16,0.17,0.27,0.31,0.34c0.14,0.07,0.42,0.11,0.85,0.11l0,0.31l-3.86,0l0,-0.31c0.35,0,0.6,-0.04,0.74,-0.11c0.14,-0.07,0.25,-0.2,0.33,-0.37c0.08,-0.17,0.12,-0.5,0.12,-0.98l0,-3c0,-0.85,-0.03,-1.41,-0.08,-1.66c-0.04,-0.19,-0.11,-0.32,-0.2,-0.39c-0.09,-0.07,-0.21,-0.11,-0.35,-0.11c-0.16,0,-0.34,0.04,-0.56,0.12l-0.14,-0.3l2.36,-0.97l0.37,0l0,1.67m26.66,-5.47l0.27,3.95l-0.27,0c-0.35,-1.19,-0.86,-2.04,-1.51,-2.55c-0.65,-0.52,-1.43,-0.77,-2.35,-0.77c-0.77,0,-1.47,0.2,-2.09,0.59c-0.62,0.39,-1.11,1.01,-1.47,1.87c-0.36,0.85,-0.54,1.92,-0.54,3.19c0,1.04,0.17,1.95,0.51,2.72c0.34,0.77,0.84,1.36,1.52,1.77c0.67,0.41,1.44,0.62,2.3,0.62c0.76,0,1.43,-0.16,2,-0.48c0.57,-0.32,1.2,-0.96,1.89,-1.92l0.27,0.17c-0.58,1.03,-1.26,1.79,-2.03,2.27c-0.77,0.48,-1.69,0.72,-2.77,0.72c-1.92,0,-3.4,-0.71,-4.45,-2.14c-0.79,-1.05,-1.19,-2.3,-1.19,-3.73c0,-1.16,0.26,-2.22,0.78,-3.19c0.52,-0.97,1.23,-1.72,2.14,-2.26c0.91,-0.54,1.9,-0.8,2.98,-0.8c0.83,0,1.66,0.21,2.47,0.62c0.24,0.12,0.41,0.19,0.52,0.19c0.16,0,0.29,-0.06,0.41,-0.17c0.15,-0.15,0.25,-0.36,0.31,-0.64l0.3,0m9.5,0l0,4.02l-0.33,0c-0.1,-0.77,-0.29,-1.38,-0.55,-1.84c-0.26,-0.45,-0.64,-0.82,-1.12,-1.09c-0.49,-0.27,-1,-0.41,-1.53,-0.41c-0.59,0,-1.08,0.18,-1.47,0.55c-0.39,0.36,-0.58,0.78,-0.58,1.23c0,0.35,0.12,0.68,0.36,0.97c0.35,0.43,1.2,0.99,2.53,1.7c1.08,0.58,1.82,1.03,2.22,1.34c0.4,0.31,0.7,0.68,0.91,1.09c0.21,0.42,0.32,0.86,0.32,1.33c0,0.87,-0.34,1.63,-1.02,2.27c-0.68,0.64,-1.56,0.95,-2.63,0.95c-0.33,0,-0.65,-0.03,-0.94,-0.08c-0.18,-0.03,-0.54,-0.14,-1.1,-0.31c-0.56,-0.18,-0.91,-0.27,-1.05,-0.27c-0.15,0,-0.26,0.04,-0.34,0.12c-0.08,0.08,-0.15,0.26,-0.19,0.53l-0.31,0l0,-3.97l0.31,0c0.16,0.82,0.36,1.44,0.61,1.86c0.25,0.42,0.63,0.76,1.15,1.03c0.52,0.27,1.08,0.41,1.7,0.41c0.71,0,1.27,-0.19,1.68,-0.56c0.41,-0.37,0.62,-0.82,0.62,-1.33c0,-0.28,-0.08,-0.57,-0.23,-0.86c-0.16,-0.29,-0.4,-0.56,-0.72,-0.81c-0.23,-0.18,-0.84,-0.54,-1.83,-1.09c-0.99,-0.55,-1.69,-0.99,-2.11,-1.33c-0.42,-0.33,-0.73,-0.7,-0.95,-1.09c-0.22,-0.4,-0.33,-0.83,-0.33,-1.31c0,-0.83,0.32,-1.55,0.96,-2.16c0.64,-0.6,1.45,-0.91,2.43,-0.91c0.61,0,1.27,0.15,1.95,0.45c0.32,0.15,0.55,0.22,0.69,0.22c0.15,0,0.27,-0.04,0.36,-0.13c0.09,-0.09,0.17,-0.27,0.22,-0.54l0.33,0m14.39,0.27l0,0.33c-0.41,0.07,-0.71,0.2,-0.92,0.39c-0.3,0.28,-0.57,0.71,-0.81,1.28l-4.05,9.86l-0.31,0l-4.34,-9.98c-0.22,-0.52,-0.37,-0.84,-0.47,-0.95c-0.14,-0.17,-0.31,-0.3,-0.52,-0.41c-0.21,-0.1,-0.49,-0.17,-0.84,-0.19l0,-0.33l4.73,0l0,0.33c-0.54,0.05,-0.89,0.14,-1.05,0.27c-0.16,0.13,-0.23,0.29,-0.23,0.49c0,0.29,0.13,0.74,0.39,1.34l2.95,6.8l2.73,-6.72c0.26,-0.66,0.39,-1.11,0.39,-1.37c0,-0.17,-0.08,-0.33,-0.24,-0.48c-0.16,-0.15,-0.44,-0.26,-0.84,-0.32c-0.03,0,-0.08,-0.01,-0.14,-0.02l0,-0.33l3.56,0" fill="#000000" stroke="none" fill-opacity="1"/>
</g>
<g stroke-width="1" fill="none">
<path d="m49.08,473.3c0,-1.32,0.2,-2.46,0.6,-3.41c0.4,-0.95,0.93,-1.66,1.59,-2.13c0.52,-0.37,1.05,-0.56,1.59,-0.56c0.9,0,1.69,0.45,2.39,1.36c0.89,1.12,1.33,2.65,1.33,4.56c0,1.34,-0.19,2.49,-0.58,3.43c-0.39,0.94,-0.88,1.62,-1.48,2.05c-0.6,0.42,-1.18,0.63,-1.73,0.63c-1.1,0,-2.03,-0.65,-2.77,-1.95c-0.62,-1.1,-0.94,-2.43,-0.94,-3.97m1.69,0.2c0,1.59,0.19,2.9,0.58,3.91c0.33,0.85,0.82,1.28,1.45,1.28c0.31,0,0.63,-0.14,0.96,-0.41c0.33,-0.28,0.58,-0.74,0.76,-1.4c0.26,-0.98,0.39,-2.36,0.39,-4.14c0,-1.32,-0.14,-2.43,-0.41,-3.31c-0.21,-0.65,-0.47,-1.11,-0.8,-1.39c-0.24,-0.19,-0.52,-0.28,-0.84,-0.28c-0.4,0,-0.74,0.18,-1.05,0.53c-0.41,0.47,-0.68,1.21,-0.83,2.23c-0.15,1.02,-0.22,2.01,-0.22,2.99" fill="#000000" stroke="none" fill-opacity="1"/>
<path d="m50.5,402l2.83,-1.37l0.28,0l0,9.78c0,0.66,0.03,1.06,0.08,1.22c0.05,0.16,0.16,0.28,0.34,0.37c0.17,0.09,0.52,0.14,1.04,0.15l0,0.31l-4.36,0l0,-0.31c0.55,-0.01,0.91,-0.06,1.07,-0.14c0.16,-0.08,0.27,-0.2,0.34,-0.34c0.06,-0.14,0.09,-0.56,0.09,-1.26l0,-6.25c0,-0.84,-0.03,-1.39,-0.09,-1.62c-0.04,-0.18,-0.11,-0.31,-0.22,-0.4c-0.1,-0.09,-0.23,-0.13,-0.37,-0.13c-0.21,0,-0.51,0.09,-0.89,0.27l-0.12,-0.27" fill="#000000" stroke="none" fill-opacity="1"/>
<path d="m56.48,343.67l-0.81,2.23l-6.84,0l0,-0.31c2.01,-1.83,3.43,-3.33,4.25,-4.49c0.82,-1.16,1.23,-2.23,1.23,-3.2c0,-0.73,-0.23,-1.33,-0.68,-1.8c-0.45,-0.47,-0.99,-0.71,-1.62,-0.71c-0.57,0,-1.09,0.17,-1.54,0.5c-0.45,0.33,-0.78,0.82,-0.99,1.47l-0.33,0c0.15,-1.06,0.51,-1.87,1.1,-2.44c0.59,-0.56,1.33,-0.84,2.21,-0.84c0.94,0,1.72,0.3,2.35,0.91c0.63,0.6,0.95,1.32,0.95,2.14c0,0.58,-0.14,1.17,-0.41,1.75c-0.43,0.93,-1.11,1.91,-2.05,2.94c-1.43,1.55,-2.31,2.48,-2.66,2.8l3.02,0c0.61,0,1.05,-0.02,1.3,-0.06c0.25,-0.04,0.47,-0.13,0.67,-0.27c0.2,-0.14,0.37,-0.34,0.52,-0.6l0.33,0" fill="#000000" stroke="none" fill-opacity="1"/>
<path d="m49.34,269.97c0.33,-0.78,0.75,-1.39,1.25,-1.81c0.5,-0.43,1.13,-0.64,1.89,-0.64c0.93,0,1.64,0.3,2.12,0.91c0.37,0.45,0.56,0.93,0.56,1.45c0,0.83,-0.53,1.7,-1.58,2.61c0.71,0.28,1.24,0.68,1.61,1.2c0.36,0.52,0.55,1.12,0.55,1.82c0,1.01,-0.32,1.88,-0.95,2.61c-0.83,0.96,-2.04,1.44,-3.62,1.44c-0.77,0,-1.3,-0.1,-1.59,-0.29c-0.29,-0.19,-0.43,-0.4,-0.43,-0.62c0,-0.17,0.07,-0.31,0.2,-0.44c0.14,-0.12,0.3,-0.19,0.48,-0.19c0.15,0,0.29,0.02,0.44,0.06c0.09,0.03,0.31,0.14,0.66,0.31c0.34,0.18,0.58,0.29,0.72,0.33c0.21,0.06,0.43,0.09,0.67,0.09c0.58,0,1.09,-0.23,1.52,-0.68c0.43,-0.45,0.64,-0.99,0.64,-1.6c0,-0.45,-0.1,-0.89,-0.3,-1.31c-0.15,-0.32,-0.31,-0.57,-0.48,-0.73c-0.25,-0.23,-0.59,-0.43,-1.02,-0.62c-0.43,-0.18,-0.86,-0.27,-1.3,-0.27l-0.28,0l0,-0.25c0.45,-0.06,0.9,-0.23,1.35,-0.49c0.45,-0.27,0.78,-0.59,0.99,-0.97c0.21,-0.38,0.31,-0.79,0.31,-1.24c0,-0.58,-0.18,-1.06,-0.55,-1.42c-0.37,-0.36,-0.83,-0.55,-1.37,-0.55c-0.89,0,-1.62,0.47,-2.22,1.42l-0.28,-0.12" fill="#000000" stroke="none" fill-opacity="1"/>
<path d="m56.59,208.52l0,1.2l-1.55,0l0,3.06l-1.42,0l0,-3.06l-4.89,0l0,-1.09l5.36,-7.67l0.95,0l0,7.56l1.55,0m-2.97,0l0,-5.75l-4.06,5.75l4.06,0" fill="#000000" stroke="none" fill-opacity="1"/>
<path d="m56.05,134.62l-0.66,1.45l-3.5,0l-0.75,1.56c1.51,0.22,2.7,0.78,3.58,1.69c0.76,0.77,1.14,1.68,1.14,2.73c0,0.6,-0.12,1.17,-0.37,1.69c-0.24,0.52,-0.56,0.96,-0.94,1.33c-0.38,0.36,-0.8,0.66,-1.26,0.87c-0.66,0.31,-1.33,0.47,-2.02,0.47c-0.7,0,-1.2,-0.12,-1.52,-0.35c-0.31,-0.23,-0.47,-0.5,-0.47,-0.79c0,-0.16,0.07,-0.29,0.2,-0.41c0.13,-0.12,0.29,-0.18,0.49,-0.18c0.15,0,0.27,0.02,0.38,0.06c0.11,0.04,0.3,0.16,0.57,0.34c0.43,0.3,0.86,0.45,1.3,0.45c0.67,0,1.25,-0.25,1.76,-0.76c0.51,-0.51,0.76,-1.12,0.76,-1.84c0,-0.71,-0.22,-1.36,-0.67,-1.97c-0.45,-0.6,-1.07,-1.07,-1.86,-1.41c-0.62,-0.26,-1.47,-0.41,-2.55,-0.44l2.22,-4.52l4.16,0" fill="#000000" stroke="none" fill-opacity="1"/>
<path d="m56.3,67.84l0,0.31c-0.75,0.07,-1.36,0.22,-1.84,0.45c-0.47,0.23,-0.95,0.57,-1.41,1.03c-0.47,0.46,-0.85,0.97,-1.16,1.54c-0.3,0.57,-0.56,1.24,-0.77,2.02c0.82,-0.56,1.65,-0.84,2.47,-0.84c0.79,0,1.48,0.32,2.06,0.95c0.58,0.64,0.87,1.46,0.87,2.47c0,0.97,-0.3,1.85,-0.89,2.64c-0.7,0.97,-1.63,1.45,-2.8,1.45c-0.79,0,-1.46,-0.26,-2.02,-0.78c-1.08,-1.02,-1.62,-2.34,-1.62,-3.97c0,-1.03,0.21,-2.02,0.62,-2.95c0.42,-0.94,1.01,-1.77,1.78,-2.49c0.77,-0.72,1.51,-1.21,2.22,-1.46c0.71,-0.25,1.36,-0.37,1.97,-0.37l0.5,0m-5.31,5.98c-0.1,0.77,-0.16,1.39,-0.16,1.86c0,0.55,0.1,1.15,0.3,1.79c0.2,0.64,0.5,1.15,0.9,1.52c0.29,0.26,0.65,0.39,1.06,0.39c0.5,0,0.94,-0.23,1.33,-0.7c0.39,-0.46,0.58,-1.13,0.58,-1.99c0,-0.98,-0.19,-1.83,-0.58,-2.54c-0.39,-0.71,-0.93,-1.07,-1.64,-1.07c-0.22,0,-0.45,0.05,-0.7,0.14c-0.25,0.09,-0.61,0.29,-1.09,0.59" fill="#000000" stroke="none" fill-opacity="1"/>
<path d="m50.22,4.41l6.2,0l0,0.33l-3.86,11.5l-0.95,0l3.45,-10.42l-3.19,0c-0.64,0,-1.09,0.07,-1.37,0.22c-0.48,0.26,-0.86,0.67,-1.16,1.22l-0.23,-0.09l1.11,-2.75" fill="#000000" stroke="none" fill-opacity="1"/>
</g>
<g stroke-width="0.62" stroke-linecap="butt" fill="none">
<path d="M60.46,473.03l465.91,0"/>
<path d="M60.46,473.03l0,-3.75M89.58,473.03l0,-3.75M118.7,473.03l0,-3.75M147.82,473.03l0,-3.75M176.94,473.03l0,-3.75M206.06,473.03l0,-3.75M235.18,473.03l0,-3.75M264.3,473.03l0,-3.75M293.42,473.03l0,-3.75M322.54,473.03l0,-3.75M351.66,473.03l0,-3.75M380.78,473.03l0,-3.75M409.9,473.03l0,-3.75M439.02,473.03l0,-3.75M468.14,473.03l0,-3.75M497.26,473.03l0,-3.75M526.38,473.03l0,-3.75"/>
<path d="M60.46,473.03l0,-7.5M176.94,473.03l0,-7.5M293.42,473.03l0,-7.5M409.9,473.03l0,-7.5M526.38,473.03l0,-7.5"/>
<path d="M60.46,7.11l465.91,0"/>
<path d="M60.46,7.11l0,3.75M89.58,7.11l0,3.75M118.7,7.11l0,3.75M147.82,7.11l0,3.75M176.94,7.11l0,3.75M206.06,7.11l0,3.75M235.18,7.11l0,3.75M264.3,7.11l0,3.75M293.42,7.11l0,3.75M322.54,7.11l0,3.75M351.66,7.11l0,3.75M380.78,7.11l0,3.75M409.9,7.11l0,3.75M439.02,7.11l0,3.75M468.14,7.11l0,3.75M497.26,7.11l0,3.75M526.38,7.11l0,3.75"/>
<path d="M60.46,7.11l0,7.5M176.94,7.11l0,7.5M293.42,7.11l0,7.5M409.9,7.11l0,7.5M526.38,7.11l0,7.5"/>
</g>
<g stroke-width="1" fill="none">
<path d="m200.81,513.7l0,0.31l-4.97,0l0,-0.31l0.41,0c0.48,0,0.83,-0.14,1.05,-0.42c0.14,-0.19,0.2,-0.62,0.2,-1.31l0,-7.48c0,-0.59,-0.04,-0.98,-0.11,-1.17c-0.06,-0.14,-0.18,-0.26,-0.36,-0.36c-0.25,-0.14,-0.51,-0.2,-0.78,-0.2l-0.41,0l0,-0.33l4.97,0l0,0.33l-0.42,0c-0.48,0,-0.82,0.14,-1.03,0.41c-0.15,0.19,-0.22,0.63,-0.22,1.33l0,7.48c0,0.58,0.04,0.97,0.11,1.16c0.06,0.15,0.18,0.27,0.36,0.37c0.25,0.14,0.51,0.2,0.78,0.2l0.42,0m3.47,-6.08c0.56,-0.57,0.9,-0.9,1,-0.98c0.26,-0.22,0.54,-0.39,0.84,-0.51c0.3,-0.12,0.59,-0.18,0.88,-0.18c0.49,0,0.91,0.14,1.27,0.43c0.35,0.29,0.59,0.7,0.7,1.24c0.58,-0.69,1.08,-1.14,1.48,-1.35c0.41,-0.21,0.82,-0.32,1.25,-0.32c0.42,0,0.79,0.11,1.11,0.32c0.32,0.21,0.58,0.57,0.77,1.05c0.12,0.33,0.19,0.85,0.19,1.55l0,3.37c0,0.49,0.04,0.82,0.11,1c0.05,0.12,0.16,0.23,0.31,0.32c0.16,0.09,0.41,0.13,0.75,0.13l0,0.31l-3.86,0l0,-0.31l0.16,0c0.34,0,0.61,-0.06,0.8,-0.19c0.12,-0.09,0.22,-0.24,0.28,-0.44c0.02,-0.09,0.03,-0.37,0.03,-0.83l0,-3.37c0,-0.64,-0.08,-1.08,-0.23,-1.34c-0.22,-0.36,-0.57,-0.55,-1.06,-0.55c-0.3,0,-0.61,0.08,-0.91,0.23c-0.31,0.15,-0.67,0.43,-1.1,0.84l-0.02,0.09l0.02,0.37l0,3.73c0,0.53,0.03,0.86,0.09,0.99c0.06,0.13,0.17,0.24,0.34,0.33c0.17,0.09,0.45,0.13,0.84,0.13l0,0.31l-3.95,0l0,-0.31c0.44,0,0.74,-0.05,0.9,-0.15c0.16,-0.1,0.27,-0.25,0.34,-0.46c0.03,-0.09,0.05,-0.37,0.05,-0.84l0,-3.37c0,-0.64,-0.09,-1.09,-0.28,-1.37c-0.26,-0.36,-0.61,-0.55,-1.06,-0.55c-0.3,0,-0.6,0.08,-0.91,0.25c-0.48,0.25,-0.84,0.53,-1.09,0.84l0,4.2c0,0.51,0.03,0.84,0.1,1c0.07,0.16,0.17,0.27,0.31,0.34c0.14,0.07,0.42,0.11,0.85,0.11l0,0.31l-3.86,0l0,-0.31c0.35,0,0.6,-0.04,0.74,-0.11c0.14,-0.07,0.25,-0.2,0.33,-0.37c0.08,-0.17,0.12,-0.5,0.12,-0.98l0,-3c0,-0.85,-0.03,-1.41,-0.08,-1.66c-0.04,-0.19,-0.11,-0.32,-0.2,-0.39c-0.09,-0.07,-0.21,-0.11,-0.35,-0.11c-0.16,0,-0.34,0.04,-0.56,0.12l-0.14,-0.3l2.36,-0.97l0.37,0l0,1.67m11.11,-0.66l2.41,-0.98l0.33,0l0,1.84c0.41,-0.7,0.81,-1.18,1.22,-1.46c0.41,-0.28,0.83,-0.41,1.28,-0.41c0.79,0,1.45,0.31,1.97,0.92c0.65,0.76,0.97,1.74,0.97,2.94c0,1.35,-0.39,2.47,-1.17,3.36c-0.64,0.72,-1.44,1.08,-2.41,1.08c-0.42,0,-0.78,-0.06,-1.09,-0.17c-0.23,-0.08,-0.48,-0.26,-0.77,-0.52l0,2.39c0,0.53,0.03,0.87,0.09,1.02c0.06,0.15,0.18,0.26,0.34,0.34c0.17,0.08,0.46,0.12,0.89,0.12l0,0.33l-4.11,0l0,-0.33l0.22,0c0.31,0.01,0.58,-0.05,0.8,-0.17c0.11,-0.06,0.2,-0.16,0.26,-0.3c0.06,-0.14,0.09,-0.5,0.09,-1.07l0,-7.39c0,-0.51,-0.02,-0.83,-0.07,-0.97c-0.05,-0.14,-0.12,-0.24,-0.22,-0.3c-0.1,-0.07,-0.23,-0.1,-0.4,-0.1c-0.14,0,-0.31,0.04,-0.53,0.11l-0.09,-0.27m2.73,1.36l0,2.92c0,0.64,0.03,1.05,0.08,1.25c0.07,0.32,0.27,0.61,0.58,0.86c0.31,0.25,0.7,0.37,1.17,0.37c0.57,0,1.04,-0.22,1.39,-0.66c0.46,-0.58,0.69,-1.4,0.69,-2.45c0,-1.2,-0.26,-2.12,-0.78,-2.77c-0.36,-0.44,-0.8,-0.66,-1.3,-0.66c-0.27,0,-0.54,0.07,-0.81,0.2c-0.21,0.1,-0.55,0.41,-1.02,0.92m10.66,-2.37c1.19,0,2.14,0.45,2.86,1.36c0.6,0.77,0.91,1.65,0.91,2.64c0,0.7,-0.17,1.41,-0.5,2.12c-0.33,0.72,-0.8,1.26,-1.39,1.62c-0.59,0.36,-1.25,0.55,-1.97,0.55c-1.18,0,-2.11,-0.47,-2.81,-1.41c-0.58,-0.79,-0.87,-1.68,-0.87,-2.67c0,-0.71,0.18,-1.42,0.53,-2.13c0.35,-0.71,0.82,-1.24,1.41,-1.58c0.58,-0.34,1.2,-0.51,1.84,-0.51m-0.27,0.56c-0.3,0,-0.6,0.09,-0.91,0.27c-0.3,0.18,-0.55,0.49,-0.74,0.95c-0.19,0.45,-0.29,1.03,-0.29,1.74c0,1.14,0.23,2.11,0.68,2.94c0.45,0.82,1.05,1.23,1.8,1.23c0.55,0,1.01,-0.23,1.36,-0.68c0.35,-0.45,0.53,-1.24,0.53,-2.35c0,-1.39,-0.3,-2.48,-0.89,-3.28c-0.41,-0.54,-0.92,-0.81,-1.55,-0.81m7.73,-0.56l0,1.77c0.65,-1.18,1.32,-1.77,2.02,-1.77c0.31,0,0.57,0.1,0.77,0.29c0.2,0.19,0.3,0.41,0.3,0.66c0,0.22,-0.07,0.41,-0.22,0.56c-0.15,0.16,-0.32,0.23,-0.53,0.23c-0.2,0,-0.42,-0.1,-0.67,-0.3c-0.25,-0.2,-0.43,-0.3,-0.55,-0.3c-0.1,0,-0.22,0.06,-0.34,0.17c-0.25,0.23,-0.51,0.61,-0.78,1.16l0,3.75c0,0.44,0.05,0.77,0.16,0.98c0.07,0.16,0.2,0.28,0.39,0.38c0.19,0.1,0.46,0.15,0.81,0.15l0,0.31l-4,0l0,-0.31c0.4,0,0.69,-0.06,0.87,-0.19c0.15,-0.08,0.25,-0.23,0.31,-0.44c0.02,-0.09,0.03,-0.37,0.03,-0.83l0,-3.03c0,-0.91,-0.02,-1.45,-0.05,-1.62c-0.04,-0.18,-0.1,-0.3,-0.2,-0.38c-0.1,-0.08,-0.22,-0.12,-0.37,-0.12c-0.18,0,-0.37,0.04,-0.59,0.12l-0.09,-0.3l2.37,-0.97l0.36,0m5.97,-2.34l0,2.58l1.84,0l0,0.59l-1.84,0l0,5.08c0,0.51,0.07,0.85,0.22,1.03c0.15,0.18,0.33,0.27,0.56,0.27c0.19,0,0.37,-0.06,0.55,-0.18c0.18,-0.12,0.31,-0.29,0.41,-0.52l0.34,0c-0.2,0.56,-0.48,0.98,-0.84,1.27c-0.36,0.28,-0.74,0.42,-1.14,0.42c-0.26,0,-0.52,-0.07,-0.77,-0.22c-0.25,-0.15,-0.43,-0.35,-0.55,-0.62c-0.12,-0.27,-0.18,-0.69,-0.18,-1.25l0,-5.27l-1.23,0l0,-0.28c0.31,-0.12,0.63,-0.34,0.96,-0.63c0.33,-0.3,0.62,-0.65,0.88,-1.07c0.12,-0.21,0.31,-0.6,0.55,-1.19l0.25,0m4.05,5.53c0,1.16,0.28,2.07,0.84,2.73c0.57,0.66,1.24,0.98,2.02,0.98c0.51,0,0.96,-0.14,1.34,-0.42c0.38,-0.28,0.7,-0.77,0.95,-1.45l0.27,0.17c-0.11,0.78,-0.46,1.49,-1.04,2.13c-0.58,0.64,-1.3,0.96,-2.16,0.96c-0.94,0,-1.74,-0.36,-2.41,-1.09c-0.67,-0.73,-1,-1.71,-1,-2.95c0,-1.33,0.34,-2.37,1.02,-3.12c0.68,-0.75,1.54,-1.12,2.59,-1.12c0.87,0,1.59,0.29,2.16,0.87c0.56,0.58,0.84,1.35,0.84,2.32l-5.41,0m0,-0.5l3.62,0c-0.03,-0.5,-0.09,-0.85,-0.17,-1.06c-0.15,-0.31,-0.36,-0.56,-0.64,-0.74c-0.28,-0.18,-0.58,-0.27,-0.89,-0.27c-0.47,0,-0.89,0.18,-1.27,0.55c-0.37,0.36,-0.59,0.87,-0.66,1.53m12.22,4.5c-0.39,0.4,-0.76,0.68,-1.12,0.85c-0.36,0.17,-0.76,0.26,-1.17,0.26c-0.85,0,-1.6,-0.36,-2.24,-1.07c-0.64,-0.71,-0.96,-1.63,-0.96,-2.76c0,-1.11,0.35,-2.14,1.06,-3.07c0.71,-0.93,1.61,-1.4,2.72,-1.4c0.7,0,1.27,0.22,1.72,0.66l0,-1.45c0,-0.89,-0.02,-1.43,-0.06,-1.64c-0.04,-0.21,-0.11,-0.35,-0.2,-0.42c-0.09,-0.07,-0.21,-0.11,-0.34,-0.11c-0.15,0,-0.34,0.05,-0.59,0.14l-0.11,-0.3l2.33,-0.97l0.39,0l0,9.05c0,0.93,0.02,1.49,0.06,1.69c0.04,0.2,0.11,0.34,0.2,0.42c0.09,0.08,0.2,0.12,0.33,0.12c0.16,0,0.36,-0.05,0.62,-0.16l0.09,0.31l-2.33,0.95l-0.39,0l0,-1.11m0,-0.61l0,-4.03c-0.03,-0.39,-0.13,-0.74,-0.3,-1.05c-0.17,-0.32,-0.4,-0.56,-0.68,-0.72c-0.28,-0.16,-0.56,-0.24,-0.83,-0.24c-0.5,0,-0.95,0.22,-1.34,0.67c-0.52,0.59,-0.78,1.46,-0.78,2.59c0,1.16,0.25,2.04,0.76,2.65c0.51,0.61,1.07,0.91,1.68,0.91c0.51,0,1.01,-0.26,1.5,-0.78m18.45,-10.37l0.27,3.95l-0.27,0c-0.35,-1.19,-0.86,-2.04,-1.51,-2.55c-0.65,-0.52,-1.43,-0.77,-2.35,-0.77c-0.77,0,-1.47,0.2,-2.09,0.59c-0.62,0.39,-1.11,1.01,-1.47,1.87c-0.36,0.85,-0.54,1.92,-0.54,3.19c0,1.04,0.17,1.95,0.51,2.72c0.34,0.77,0.84,1.36,1.52,1.77c0.67,0.41,1.44,0.62,2.3,0.62c0.76,0,1.43,-0.16,2,-0.48c0.57,-0.32,1.2,-0.96,1.89,-1.92l0.27,0.17c-0.58,1.03,-1.26,1.79,-2.03,2.27c-0.77,0.48,-1.69,0.72,-2.77,0.72c-1.92,0,-3.4,-0.71,-4.45,-2.14c-0.79,-1.05,-1.19,-2.3,-1.19,-3.73c0,-1.16,0.26,-2.22,0.78,-3.19c0.52,-0.97,1.23,-1.72,2.14,-2.26c0.91,-0.54,1.9,-0.8,2.98,-0.8c0.83,0,1.66,0.21,2.47,0.62c0.24,0.12,0.41,0.19,0.52,0.19c0.16,0,0.29,-0.06,0.41,-0.17c0.15,-0.15,0.25,-0.36,0.31,-0.64l0.3,0m9.5,0l0,4.02l-0.33,0c-0.1,-0.77,-0.29,-1.38,-0.55,-1.84c-0.26,-0.45,-0.64,-0.82,-1.12,-1.09c-0.49,-0.27,-1,-0.41,-1.53,-0.41c-0.59,0,-1.08,0.18,-1.47,0.55c-0.39,0.36,-0.58,0.78,-0.58,1.23c0,0.35,0.12,0.68,0.36,0.97c0.35,0.43,1.2,0.99,2.53,1.7c1.08,0.58,1.82,1.03,2.22,1.34c0.4,0.31,0.7,0.68,0.91,1.09c0.21,0.42,0.32,0.86,0.32,1.33c0,0.87,-0.34,1.63,-1.02,2.27c-0.68,0.64,-1.56,0.95,-2.63,0.95c-0.33,0,-0.65,-0.03,-0.94,-0.08c-0.18,-0.03,-0.54,-0.14,-1.1,-0.31c-0.56,-0.18,-0.91,-0.27,-1.05,-0.27c-0.15,0,-0.26,0.04,-0.34,0.12c-0.08,0.08,-0.15,0.26,-0.19,0.53l-0.31,0l0,-3.97l0.31,0c0.16,0.82,0.36,1.44,0.61,1.86c0.25,0.42,0.63,0.76,1.15,1.03c0.52,0.27,1.08,0.41,1.7,0.41c0.71,0,1.27,-0.19,1.68,-0.56c0.41,-0.37,0.62,-0.82,0.62,-1.33c0,-0.28,-0.08,-0.57,-0.23,-0.86c-0.16,-0.29,-0.4,-0.56,-0.72,-0.81c-0.23,-0.18,-0.84,-0.54,-1.83,-1.09c-0.99,-0.55,-1.69,-0.99,-2.11,-1.33c-0.42,-0.33,-0.73,-0.7,-0.95,-1.09c-0.22,-0.4,-0.33,-0.83,-0.33,-1.31c0,-0.83,0.32,-1.55,0.96,-2.16c0.64,-0.6,1.45,-0.91,2.43,-0.91c0.61,0,1.27,0.15,1.95,0.45c0.32,0.15,0.55,0.22,0.69,0.22c0.15,0,0.27,-0.04,0.36,-0.13c0.09,-0.09,0.17,-0.27,0.22,-0.54l0.33,0m14.39,0.27l0,0.33c-0.41,0.07,-0.71,0.2,-0.92,0.39c-0.3,0.28,-0.57,0.71,-0.81,1.28l-4.05,9.86l-0.31,0l-4.34,-9.98c-0.22,-0.52,-0.37,-0.84,-0.47,-0.95c-0.14,-0.17,-0.31,-0.3,-0.52,-0.41c-0.21,-0.1,-0.49,-0.17,-0.84,-0.19l0,-0.33l4.73,0l0,0.33c-0.54,0.05,-0.89,0.14,-1.05,0.27c-0.16,0.13,-0.23,0.29,-0.23,0.49c0,0.29,0.13,0.74,0.39,1.34l2.95,6.8l2.73,-6.72c0.26,-0.66,0.39,-1.11,0.39,-1.37c0,-0.17,-0.08,-0.33,-0.24,-0.48c-0.16,-0.15,-0.44,-0.26,-0.84,-0.32c-0.03,0,-0.08,-0.01,-0.14,-0.02l0,-0.33l3.56,0m8.19,4.37l0,5.16c0,0.73,0.08,1.19,0.23,1.37c0.21,0.25,0.49,0.37,0.84,0.37l0.72,0l0,0.31l-4.69,0l0,-0.31l0.36,0c0.23,0,0.44,-0.06,0.62,-0.17c0.19,-0.11,0.32,-0.27,0.39,-0.46c0.07,-0.19,0.11,-0.57,0.11,-1.12l0,-5.16l-1.53,0l0,-0.61l1.53,0l0,-0.52c0,-0.78,0.12,-1.44,0.37,-1.98c0.25,-0.54,0.63,-0.98,1.15,-1.31c0.52,-0.33,1.09,-0.5,1.73,-0.5c0.6,0,1.16,0.2,1.66,0.59c0.33,0.25,0.5,0.54,0.5,0.86c0,0.17,-0.08,0.33,-0.23,0.48c-0.15,0.15,-0.31,0.23,-0.48,0.23c-0.14,0,-0.28,-0.05,-0.42,-0.14c-0.15,-0.09,-0.32,-0.29,-0.53,-0.6c-0.21,-0.31,-0.4,-0.52,-0.58,-0.63c-0.18,-0.1,-0.37,-0.16,-0.59,-0.16c-0.26,0,-0.48,0.07,-0.66,0.21c-0.18,0.14,-0.31,0.36,-0.39,0.65c-0.08,0.29,-0.12,1.05,-0.12,2.27l0,0.56l2.02,0l0,0.61l-2.02,0m4.92,-4.94c0.24,0,0.45,0.09,0.62,0.26c0.17,0.17,0.26,0.38,0.26,0.62c0,0.24,-0.09,0.44,-0.26,0.61c-0.17,0.17,-0.38,0.25,-0.62,0.25c-0.24,0,-0.44,-0.08,-0.61,-0.25c-0.17,-0.17,-0.25,-0.37,-0.25,-0.61c0,-0.24,0.08,-0.45,0.25,-0.62c0.17,-0.17,0.37,-0.26,0.61,-0.26m0.72,4.09l0,6.3c0,0.49,0.03,0.82,0.1,0.98c0.07,0.16,0.17,0.28,0.31,0.36c0.14,0.08,0.4,0.12,0.77,0.12l0,0.31l-3.81,0l0,-0.31c0.39,0,0.64,-0.04,0.77,-0.11c0.13,-0.07,0.23,-0.2,0.31,-0.37c0.08,-0.17,0.12,-0.5,0.12,-0.98l0,-3.02c0,-0.85,-0.03,-1.41,-0.08,-1.66c-0.04,-0.18,-0.1,-0.3,-0.19,-0.37c-0.08,-0.07,-0.2,-0.11,-0.34,-0.11c-0.17,0,-0.36,0.04,-0.59,0.12l-0.11,-0.3l2.36,-0.97l0.37,0m3.98,-4.09l0,10.39c0,0.49,0.04,0.81,0.11,0.97c0.07,0.16,0.18,0.28,0.33,0.36c0.15,0.08,0.42,0.12,0.83,0.12l0,0.31l-3.83,0l0,-0.31c0.35,0,0.6,-0.04,0.73,-0.11c0.13,-0.07,0.23,-0.2,0.3,-0.37c0.07,-0.17,0.11,-0.5,0.11,-0.98l0,-7.11c0,-0.89,-0.02,-1.43,-0.05,-1.63c-0.04,-0.2,-0.1,-0.34,-0.19,-0.41c-0.09,-0.07,-0.2,-0.11,-0.34,-0.11c-0.15,0,-0.33,0.05,-0.56,0.14l-0.16,-0.3l2.34,-0.97l0.37,0m2.62,7.28c0,1.16,0.28,2.07,0.84,2.73c0.57,0.66,1.24,0.98,2.02,0.98c0.51,0,0.96,-0.14,1.34,-0.42c0.38,-0.28,0.7,-0.77,0.95,-1.45l0.27,0.17c-0.11,0.78,-0.46,1.49,-1.04,2.13c-0.58,0.64,-1.3,0.96,-2.16,0.96c-0.94,0,-1.74,-0.36,-2.41,-1.09c-0.67,-0.73,-1,-1.71,-1,-2.95c0,-1.33,0.34,-2.37,1.02,-3.12c0.68,-0.75,1.54,-1.12,2.59,-1.12c0.87,0,1.59,0.29,2.16,0.87c0.56,0.58,0.84,1.35,0.84,2.32l-5.41,0m0,-0.5l3.62,0c-0.03,-0.5,-0.09,-0.85,-0.17,-1.06c-0.15,-0.31,-0.36,-0.56,-0.64,-0.74c-0.28,-0.18,-0.58,-0.27,-0.89,-0.27c-0.47,0,-0.89,0.18,-1.27,0.55c-0.37,0.36,-0.59,0.87,-0.66,1.53m13,0.5c0,1.16,0.28,2.07,0.84,2.73c0.57,0.66,1.24,0.98,2.02,0.98c0.51,0,0.96,-0.14,1.34,-0.42c0.38,-0.28,0.7,-0.77,0.95,-1.45l0.27,0.17c-0.11,0.78,-0.46,1.49,-1.04,2.13c-0.58,0.64,-1.3,0.96,-2.16,0.96c-0.94,0,-1.74,-0.36,-2.41,-1.09c-0.67,-0.73,-1,-1.71,-1,-2.95c0,-1.33,0.34,-2.37,1.02,-3.12c0.68,-0.75,1.54,-1.12,2.59,-1.12c0.87,0,1.59,0.29,2.16,0.87c0.56,0.58,0.84,1.35,0.84,2.32l-5.41,0m0,-0.5l3.62,0c-0.03,-0.5,-0.09,-0.85,-0.17,-1.06c-0.15,-0.31,-0.36,-0.56,-0.64,-0.74c-0.28,-0.18,-0.58,-0.27,-0.89,-0.27c-0.47,0,-0.89,0.18,-1.27,0.55c-0.37,0.36,-0.59,0.87,-0.66,1.53m6.37,-2.45l3.67,0l0,0.31c-0.23,0,-0.39,0.04,-0.48,0.12c-0.09,0.08,-0.14,0.19,-0.14,0.31c0,0.14,0.1,0.35,0.3,0.64c0.06,0.08,0.16,0.22,0.28,0.42l0.56,0.89l0.64,-0.89c0.41,-0.56,0.61,-0.92,0.61,-1.06c0,-0.12,-0.05,-0.23,-0.14,-0.31c-0.09,-0.08,-0.25,-0.12,-0.47,-0.12l0,-0.31l2.64,0l0,0.31c-0.28,0.02,-0.52,0.1,-0.72,0.23c-0.28,0.2,-0.66,0.62,-1.14,1.27l-1.08,1.42l1.95,2.81c0.48,0.69,0.82,1.1,1.02,1.24c0.2,0.14,0.47,0.22,0.79,0.23l0,0.31l-3.69,0l0,-0.31c0.26,0,0.46,-0.06,0.59,-0.17c0.11,-0.07,0.17,-0.18,0.17,-0.31c0,-0.12,-0.18,-0.45,-0.55,-0.98l-1.16,-1.67l-1.25,1.67c-0.39,0.51,-0.58,0.82,-0.58,0.92c0,0.14,0.07,0.26,0.2,0.37c0.13,0.11,0.32,0.17,0.57,0.18l0,0.31l-2.55,0l0,-0.31c0.2,-0.02,0.37,-0.09,0.53,-0.2c0.22,-0.17,0.58,-0.59,1.09,-1.27l1.64,-2.19l-1.48,-2.16c-0.43,-0.61,-0.76,-1,-0.98,-1.16c-0.23,-0.16,-0.52,-0.23,-0.86,-0.23l0,-0.31m12.75,6.7c-0.8,0.61,-1.31,0.97,-1.52,1.08c-0.3,0.14,-0.63,0.2,-0.98,0.2c-0.54,0,-0.99,-0.18,-1.34,-0.55c-0.35,-0.37,-0.52,-0.86,-0.52,-1.46c0,-0.37,0.08,-0.7,0.25,-0.98c0.24,-0.39,0.65,-0.75,1.23,-1.09c0.58,-0.34,1.54,-0.76,2.88,-1.25l0,-0.31c0,-0.78,-0.12,-1.32,-0.37,-1.6c-0.25,-0.29,-0.61,-0.43,-1.08,-0.43c-0.36,0,-0.65,0.09,-0.86,0.28c-0.22,0.2,-0.33,0.42,-0.33,0.67l0.02,0.5c0,0.26,-0.07,0.46,-0.2,0.6c-0.13,0.14,-0.3,0.21,-0.52,0.21c-0.21,0,-0.38,-0.07,-0.52,-0.22c-0.14,-0.15,-0.2,-0.35,-0.2,-0.61c0,-0.49,0.25,-0.94,0.75,-1.35c0.5,-0.41,1.2,-0.62,2.11,-0.62c0.7,0,1.27,0.12,1.72,0.36c0.33,0.18,0.58,0.45,0.73,0.83c0.1,0.24,0.16,0.74,0.16,1.5l0,2.66c0,0.75,0.02,1.21,0.05,1.37c0.03,0.17,0.08,0.28,0.14,0.34c0.06,0.06,0.14,0.09,0.22,0.09c0.09,0,0.18,-0.02,0.25,-0.06c0.11,-0.07,0.34,-0.28,0.69,-0.62l0,0.48c-0.64,0.85,-1.24,1.28,-1.83,1.28c-0.28,0,-0.51,-0.1,-0.67,-0.29c-0.17,-0.19,-0.25,-0.52,-0.25,-0.99m0,-0.56l0,-2.98c-0.86,0.34,-1.42,0.59,-1.67,0.73c-0.45,0.25,-0.77,0.51,-0.96,0.78c-0.19,0.27,-0.29,0.57,-0.29,0.91c0,0.41,0.12,0.74,0.37,1.02c0.24,0.27,0.52,0.41,0.84,0.41c0.44,0,1.01,-0.29,1.72,-0.86m5.89,-4.7c0.56,-0.57,0.9,-0.9,1,-0.98c0.26,-0.22,0.54,-0.39,0.84,-0.51c0.3,-0.12,0.59,-0.18,0.88,-0.18c0.49,0,0.91,0.14,1.27,0.43c0.35,0.29,0.59,0.7,0.7,1.24c0.58,-0.69,1.08,-1.14,1.48,-1.35c0.41,-0.21,0.82,-0.32,1.25,-0.32c0.42,0,0.79,0.11,1.11,0.32c0.32,0.21,0.58,0.57,0.77,1.05c0.12,0.33,0.19,0.85,0.19,1.55l0,3.37c0,0.49,0.04,0.82,0.11,1c0.05,0.12,0.16,0.23,0.31,0.32c0.16,0.09,0.41,0.13,0.75,0.13l0,0.31l-3.86,0l0,-0.31l0.16,0c0.34,0,0.61,-0.06,0.8,-0.19c0.12,-0.09,0.22,-0.24,0.28,-0.44c0.02,-0.09,0.03,-0.37,0.03,-0.83l0,-3.37c0,-0.64,-0.08,-1.08,-0.23,-1.34c-0.22,-0.36,-0.57,-0.55,-1.06,-0.55c-0.3,0,-0.61,0.08,-0.91,0.23c-0.31,0.15,-0.67,0.43,-1.1,0.84l-0.02,0.09l0.02,0.37l0,3.73c0,0.53,0.03,0.86,0.09,0.99c0.06,0.13,0.17,0.24,0.34,0.33c0.17,0.09,0.45,0.13,0.84,0.13l0,0.31l-3.95,0l0,-0.31c0.44,0,0.74,-0.05,0.9,-0.15c0.16,-0.1,0.27,-0.25,0.34,-0.46c0.03,-0.09,0.05,-0.37,0.05,-0.84l0,-3.37c0,-0.64,-0.09,-1.09,-0.28,-1.37c-0.26,-0.36,-0.61,-0.55,-1.06,-0.55c-0.3,0,-0.6,0.08,-0.91,0.25c-0.48,0.25,-0.84,0.53,-1.09,0.84l0,4.2c0,0.51,0.03,0.84,0.1,1c0.07,0.16,0.17,0.27,0.31,0.34c0.14,0.07,0.42,0.11,0.85,0.11l0,0.31l-3.86,0l0,-0.31c0.35,0,0.6,-0.04,0.74,-0.11c0.14,-0.07,0.25,-0.2,0.33,-0.37c0.08,-0.17,0.12,-0.5,0.12,-0.98l0,-3c0,-0.85,-0.03,-1.41,-0.08,-1.66c-0.04,-0.19,-0.11,-0.32,-0.2,-0.39c-0.09,-0.07,-0.21,-0.11,-0.35,-0.11c-0.16,0,-0.34,0.04,-0.56,0.12l-0.14,-0.3l2.36,-0.97l0.37,0l0,1.67m11.11,-0.66l2.41,-0.98l0.33,0l0,1.84c0.41,-0.7,0.81,-1.18,1.22,-1.46c0.41,-0.28,0.83,-0.41,1.28,-0.41c0.79,0,1.45,0.31,1.97,0.92c0.65,0.76,0.97,1.74,0.97,2.94c0,1.35,-0.39,2.47,-1.17,3.36c-0.64,0.72,-1.44,1.08,-2.41,1.08c-0.42,0,-0.78,-0.06,-1.09,-0.17c-0.23,-0.08,-0.48,-0.26,-0.77,-0.52l0,2.39c0,0.53,0.03,0.87,0.09,1.02c0.06,0.15,0.18,0.26,0.34,0.34c0.17,0.08,0.46,0.12,0.89,0.12l0,0.33l-4.11,0l0,-0.33l0.22,0c0.31,0.01,0.58,-0.05,0.8,-0.17c0.11,-0.06,0.2,-0.16,0.26,-0.3c0.06,-0.14,0.09,-0.5,0.09,-1.07l0,-7.39c0,-0.51,-0.02,-0.83,-0.07,-0.97c-0.05,-0.14,-0.12,-0.24,-0.22,-0.3c-0.1,-0.07,-0.23,-0.1,-0.4,-0.1c-0.14,0,-0.31,0.04,-0.53,0.11l-0.09,-0.27m2.73,1.36l0,2.92c0,0.64,0.03,1.05,0.08,1.25c0.07,0.32,0.27,0.61,0.58,0.86c0.31,0.25,0.7,0.37,1.17,0.37c0.57,0,1.04,-0.22,1.39,-0.66c0.46,-0.58,0.69,-1.4,0.69,-2.45c0,-1.2,-0.26,-2.12,-0.78,-2.77c-0.36,-0.44,-0.8,-0.66,-1.3,-0.66c-0.27,0,-0.54,0.07,-0.81,0.2c-0.21,0.1,-0.55,0.41,-1.02,0.92m9.52,-6.47l0,10.39c0,0.49,0.04,0.81,0.11,0.97c0.07,0.16,0.18,0.28,0.33,0.36c0.15,0.08,0.42,0.12,0.83,0.12l0,0.31l-3.83,0l0,-0.31c0.35,0,0.6,-0.04,0.73,-0.11c0.13,-0.07,0.23,-0.2,0.3,-0.37c0.07,-0.17,0.11,-0.5,0.11,-0.98l0,-7.11c0,-0.89,-0.02,-1.43,-0.05,-1.63c-0.04,-0.2,-0.1,-0.34,-0.19,-0.41c-0.09,-0.07,-0.2,-0.11,-0.34,-0.11c-0.15,0,-0.33,0.05,-0.56,0.14l-0.16,-0.3l2.34,-0.97l0.37,0m2.62,7.28c0,1.16,0.28,2.07,0.84,2.73c0.57,0.66,1.24,0.98,2.02,0.98c0.51,0,0.96,-0.14,1.34,-0.42c0.38,-0.28,0.7,-0.77,0.95,-1.45l0.27,0.17c-0.11,0.78,-0.46,1.49,-1.04,2.13c-0.58,0.64,-1.3,0.96,-2.16,0.96c-0.94,0,-1.74,-0.36,-2.41,-1.09c-0.67,-0.73,-1,-1.71,-1,-2.95c0,-1.33,0.34,-2.37,1.02,-3.12c0.68,-0.75,1.54,-1.12,2.59,-1.12c0.87,0,1.59,0.29,2.16,0.87c0.56,0.58,0.84,1.35,0.84,2.32l-5.41,0m0,-0.5l3.62,0c-0.03,-0.5,-0.09,-0.85,-0.17,-1.06c-0.15,-0.31,-0.36,-0.56,-0.64,-0.74c-0.28,-0.18,-0.58,-0.27,-0.89,-0.27c-0.47,0,-0.89,0.18,-1.27,0.55c-0.37,0.36,-0.59,0.87,-0.66,1.53" fill="#000000" stroke="none" fill-opacity="1"/>
<path d="m56.58,486.3c0,-1.32,0.2,-2.46,0.6,-3.41c0.4,-0.95,0.93,-1.66,1.59,-2.13c0.52,-0.37,1.05,-0.56,1.59,-0.56c0.9,0,1.69,0.45,2.39,1.36c0.89,1.12,1.33,2.65,1.33,4.56c0,1.34,-0.19,2.49,-0.58,3.43c-0.39,0.94,-0.88,1.62,-1.48,2.05c-0.6,0.42,-1.18,0.63,-1.73,0.63c-1.1,0,-2.03,-0.65,-2.77,-1.95c-0.62,-1.1,-0.94,-2.43,-0.94,-3.97m1.69,0.2c0,1.59,0.19,2.9,0.58,3.91c0.33,0.85,0.82,1.28,1.45,1.28c0.31,0,0.63,-0.14,0.96,-0.41c0.33,-0.28,0.58,-0.74,0.76,-1.4c0.26,-0.98,0.39,-2.36,0.39,-4.14c0,-1.32,-0.14,-2.43,-0.41,-3.31c-0.21,-0.65,-0.47,-1.11,-0.8,-1.39c-0.24,-0.19,-0.52,-0.28,-0.84,-0.28c-0.4,0,-0.74,0.18,-1.05,0.53c-0.41,0.47,-0.68,1.21,-0.83,2.23c-0.15,1.02,-0.22,2.01,-0.22,2.99" fill="#000000" stroke="none" fill-opacity="1"/>
<path d="m180.47,489.78l-0.81,2.23l-6.84,0l0,-0.31c2.01,-1.83,3.43,-3.33,4.25,-4.49c0.82,-1.16,1.23,-2.23,1.23,-3.2c0,-0.73,-0.23,-1.33,-0.68,-1.8c-0.45,-0.47,-0.99,-0.71,-1.62,-0.71c-0.57,0,-1.09,0.17,-1.54,0.5c-0.45,0.33,-0.78,0.82,-0.99,1.47l-0.33,0c0.15,-1.06,0.51,-1.87,1.1,-2.44c0.59,-0.56,1.33,-0.84,2.21,-0.84c0.94,0,1.72,0.3,2.35,0.91c0.63,0.6,0.95,1.32,0.95,2.14c0,0.58,-0.14,1.17,-0.41,1.75c-0.43,0.93,-1.11,1.91,-2.05,2.94c-1.43,1.55,-2.31,2.48,-2.66,2.8l3.02,0c0.61,0,1.05,-0.02,1.3,-0.06c0.25,-0.04,0.47,-0.13,0.67,-0.27c0.2,-0.14,0.37,-0.34,0.52,-0.6l0.33,0" fill="#000000" stroke="none" fill-opacity="1"/>
<path d="m297.05,487.75l0,1.2l-1.55,0l0,3.06l-1.42,0l0,-3.06l-4.89,0l0,-1.09l5.36,-7.67l0.95,0l0,7.56l1.55,0m-2.97,0l0,-5.75l-4.06,5.75l4.06,0" fill="#000000" stroke="none" fill-opacity="1"/>
<path d="m413.23,480.19l0,0.31c-0.75,0.07,-1.36,0.22,-1.84,0.45c-0.47,0.23,-0.95,0.57,-1.41,1.03c-0.47,0.46,-0.85,0.97,-1.16,1.54c-0.3,0.57,-0.56,1.24,-0.77,2.02c0.82,-0.56,1.65,-0.84,2.47,-0.84c0.79,0,1.48,0.32,2.06,0.95c0.58,0.64,0.87,1.46,0.87,2.47c0,0.97,-0.3,1.85,-0.89,2.64c-0.7,0.97,-1.63,1.45,-2.8,1.45c-0.79,0,-1.46,-0.26,-2.02,-0.78c-1.08,-1.02,-1.62,-2.34,-1.62,-3.97c0,-1.03,0.21,-2.02,0.62,-2.95c0.42,-0.94,1.01,-1.77,1.78,-2.49c0.77,-0.72,1.51,-1.21,2.22,-1.46c0.71,-0.25,1.36,-0.37,1.97,-0.37l0.5,0m-5.31,5.98c-0.1,0.77,-0.16,1.39,-0.16,1.86c0,0.55,0.1,1.15,0.3,1.79c0.2,0.64,0.5,1.15,0.9,1.52c0.29,0.26,0.65,0.39,1.06,0.39c0.5,0,0.94,-0.23,1.33,-0.7c0.39,-0.46,0.58,-1.13,0.58,-1.99c0,-0.98,-0.19,-1.83,-0.58,-2.54c-0.39,-0.71,-0.93,-1.07,-1.64,-1.07c-0.22,0,-0.45,0.05,-0.7,0.14c-0.25,0.09,-0.61,0.29,-1.09,0.59" fill="#000000" stroke="none" fill-opacity="1"/>
<path d="m525.23,486.17c-0.92,-0.75,-1.51,-1.35,-1.77,-1.8c-0.27,-0.45,-0.4,-0.92,-0.4,-1.41c0,-0.75,0.29,-1.4,0.87,-1.95c0.58,-0.55,1.35,-0.82,2.31,-0.82c0.94,0,1.69,0.25,2.26,0.76c0.57,0.51,0.85,1.09,0.85,1.74c0,0.43,-0.15,0.87,-0.46,1.32c-0.31,0.45,-0.95,0.98,-1.93,1.59c1.01,0.78,1.68,1.39,2,1.83c0.43,0.58,0.64,1.2,0.64,1.84c0,0.81,-0.31,1.51,-0.93,2.09c-0.62,0.58,-1.43,0.87,-2.45,0.87c-1.09,0,-1.95,-0.34,-2.56,-1.03c-0.49,-0.55,-0.73,-1.16,-0.73,-1.81c0,-0.51,0.17,-1.02,0.52,-1.52c0.34,-0.51,0.94,-1.07,1.78,-1.68m1.34,-0.91c0.68,-0.61,1.11,-1.1,1.29,-1.45c0.18,-0.35,0.27,-0.76,0.27,-1.22c0,-0.59,-0.17,-1.06,-0.5,-1.4c-0.33,-0.34,-0.79,-0.51,-1.37,-0.51c-0.58,0,-1.06,0.17,-1.42,0.5c-0.36,0.33,-0.55,0.73,-0.55,1.19c0,0.29,0.08,0.59,0.23,0.88c0.15,0.3,0.37,0.58,0.65,0.85l1.41,1.16m-0.94,1.23c-0.48,0.41,-0.83,0.84,-1.06,1.31c-0.23,0.47,-0.34,0.97,-0.34,1.52c0,0.74,0.2,1.33,0.61,1.77c0.41,0.44,0.92,0.66,1.53,0.66c0.61,0,1.11,-0.17,1.48,-0.52c0.37,-0.35,0.55,-0.77,0.55,-1.27c0,-0.41,-0.1,-0.77,-0.31,-1.09c-0.41,-0.6,-1.22,-1.4,-2.45,-2.37" fill="#000000" stroke="none" fill-opacity="1"/>
</g>
</g>
</g>
<defs>
<clipPath id="c0"><path d="m0,0l533.49,0l0,533.49l-533.49,0l0,-533.49"/></clipPath>
<clipPath id="c1"><path d="m375.81,413.03l35.57,0l0,20l-35.57,0l0,-20"/></clipPath>
<clipPath id="c2"><path d="m375.81,433.03l35.57,0l0,20l-35.57,0l0,-20"/></clipPath>
<clipPath id="c3"><path d="m60.46,7.11l465.91,0l0,465.91l-465.91,0l0,-465.91"/></clipPath>
</defs>
</svg>
