<?xml version="1.0" standalone="no"?>
<!DOCTYPE svg PUBLIC "-//W3C//DTD SVG 1.1//EN"
  "http://www.w3.org/Graphics/SVG/1.1/DTD/svg11.dtd">
<svg width="531.49px" height="531.49px" version="1.1"
    xmlns="http://www.w3.org/2000/svg"
    xmlns:xlink="http://www.w3.org/1999/xlink">
<desc>Veusz output document</desc>
<defs>
<clipPath id="c0">
<path d="m0,0l531.49,0l0,531.49l-531.49,0l0,-531.49"/>
</clipPath>
<clipPath id="c1">
<path d="m60.23,7.08l464.17,0l0,464.17l-464.17,0l0,-464.17"/>
</clipPath>
<clipPath id="c2">
<path d="m80.13,411.55l35.43,0l0,19.9l-35.43,0l0,-19.9"/>
</clipPath>
<clipPath id="c3">
<path d="m80.13,431.45l35.43,0l0,19.9l-35.43,0l0,-19.9"/>
</clipPath>
</defs>
<g stroke-linejoin="bevel" stroke-linecap="square" stroke="#000000" fill-rule="evenodd">
<g clip-path="url(#c0)">
<g fill="#ffffff" stroke-width="0.62">
<path d="m60.23,7.08l464.17,0l0,464.17l-464.17,0l0,-464.17"/>
</g>
</g>
<g clip-path="url(#c1)">
<g fill="none" stroke="#808080" stroke-width="1.25">
<polyline fill="none" points="338.74,7.08 338.74,16.55 338.74,26.03 338.74,35.5 338.74,44.97 338.74,54.45 338.74,63.92 338.74,73.39 338.74,82.87 338.74,92.34 338.74,101.81 338.74,111.28 338.74,120.76 338.74,130.23 338.74,139.7 338.74,149.18 338.74,158.65 338.74,168.12 338.74,177.59 338.74,187.07 338.74,196.54 338.74,206.01 338.74,215.49 338.74,224.96 338.74,234.43 338.74,243.9 338.74,253.38 338.74,262.85 338.74,272.32 338.74,281.8 338.74,291.27 338.74,300.74 338.74,310.22 338.74,319.69 338.74,329.16 338.74,338.63 338.74,348.11 338.74,357.58 338.74,367.05 338.74,376.53 338.74,386 338.74,395.47 338.74,404.94 338.74,414.42 338.74,423.89 338.74,433.36 338.74,442.84 338.74,452.31 338.74,461.78 338.74,471.25"/>
</g>
<g fill="#aaaaff" stroke-linejoin="miter" stroke-width="0.62">
<g transform="translate(372.84,45.76)">
<path d="m0,14.14l14.14,-14.14l-14.14,-14.14l-14.14,14.14l14.14,14.14" id="p0"/>
</g>
<use xlink:href="#p0" x="382.31" y="206.06"/>
<use xlink:href="#p0" x="420.2" y="168.45"/>
<use xlink:href="#p0" x="448.62" y="155.83"/>
<use xlink:href="#p0" x="458.09" y="156.35"/>
<use xlink:href="#p0" x="477.04" y="212.3"/>
</g>
</g>
<g clip-path="url(#c0)">
<g fill="#ffffff" stroke="none" stroke-width="1">
<path d="m80.13,411.55l139.43,0l0,39.8l-139.43,0l0,-39.8"/>
</g>
</g>
<g clip-path="url(#c2)">
<g fill="none" stroke="#ffaa00" stroke-width="0.62">
<path d="M97.85,421.5l0,0"/>
</g>
<g fill="#ffaa00" stroke-linejoin="miter" stroke-width="0.62">
<g transform="translate(97.85,421.5)">
<path d="m-6.25,-6.25l12.5,0l0,12.5l-12.5,0l0,-12.5" id="p2"/>
</g>
</g>
</g>
<g clip-path="url(#c0)">
<g fill="none" stroke-width="1">
<path d="m138.75,415.96l0,4.22l5.77,0l0,1.35l-5.77,0l0,4.62l-1.63,0l0,-11.52l7.61,0l0,1.33l-5.98,0m13.57,8.97l3.24,0l0,1.21l-8.39,0l0,-1.21l3.6,0l0,-6.81l-2.72,0l0,-1.21l4.26,0l0,8.03m-1.7,-9.82l0,-1.64l1.7,0l0,1.64l-1.7,0m12.13,9.82l3.24,0l0,1.21l-8.39,0l0,-1.21l3.6,0l0,-10.25l-2.47,0l0,-1.21l4,0l0,11.46m5.83,-6.81l0,-1.21l1.45,0l0.49,-2.4l1.02,0l0,2.4l3.69,0l0,1.21l-3.69,0l0,5.57c0,0.45,0.12,0.78,0.36,1c0.24,0.21,0.63,0.32,1.19,0.32c0.22,0,0.46,-0.01,0.7,-0.03c0.24,-0.02,0.47,-0.04,0.7,-0.07c0.22,-0.02,0.43,-0.05,0.63,-0.09c0.19,-0.03,0.36,-0.06,0.5,-0.09l0,1.17c-0.12,0.03,-0.28,0.07,-0.48,0.11c-0.19,0.04,-0.42,0.08,-0.67,0.12c-0.24,0.04,-0.51,0.07,-0.8,0.1c-0.29,0.02,-0.58,0.04,-0.89,0.04c-0.92,0,-1.61,-0.19,-2.07,-0.58c-0.46,-0.39,-0.69,-1,-0.69,-1.85l0,-5.73l-1.43,0m11.62,3.73c0,0.48,0.05,0.93,0.16,1.33c0.1,0.4,0.27,0.75,0.48,1.05c0.21,0.29,0.48,0.52,0.8,0.68c0.32,0.16,0.69,0.24,1.11,0.24c0.31,0,0.6,-0.03,0.86,-0.1c0.26,-0.07,0.5,-0.16,0.71,-0.29c0.21,-0.12,0.38,-0.27,0.53,-0.44c0.14,-0.17,0.24,-0.36,0.31,-0.56l1.35,0.38c-0.09,0.25,-0.22,0.51,-0.4,0.77c-0.18,0.25,-0.42,0.49,-0.72,0.7c-0.3,0.2,-0.66,0.37,-1.1,0.51c-0.43,0.13,-0.94,0.2,-1.53,0.2c-0.65,0,-1.24,-0.1,-1.76,-0.3c-0.51,-0.2,-0.95,-0.5,-1.31,-0.91c-0.35,-0.4,-0.63,-0.91,-0.82,-1.51c-0.19,-0.6,-0.28,-1.31,-0.28,-2.11c0,-0.88,0.11,-1.63,0.33,-2.23c0.22,-0.6,0.52,-1.09,0.91,-1.46c0.38,-0.37,0.82,-0.63,1.32,-0.79c0.49,-0.15,1.02,-0.23,1.56,-0.23c0.74,0,1.37,0.11,1.89,0.35c0.51,0.23,0.93,0.57,1.26,1c0.32,0.43,0.56,0.94,0.7,1.55c0.14,0.6,0.21,1.27,0.21,1.99l0,0.2l-6.59,0m2.53,-3.98c-0.26,0,-0.53,0.04,-0.82,0.12c-0.28,0.08,-0.55,0.22,-0.79,0.43c-0.24,0.21,-0.45,0.49,-0.61,0.85c-0.16,0.36,-0.26,0.82,-0.27,1.38l4.99,0c-0.04,-0.53,-0.14,-0.98,-0.29,-1.34c-0.14,-0.35,-0.33,-0.64,-0.55,-0.86c-0.21,-0.21,-0.46,-0.36,-0.74,-0.46c-0.27,-0.09,-0.57,-0.13,-0.87,-0.13m14.14,0.43c-0.26,-0.04,-0.54,-0.08,-0.84,-0.11c-0.29,-0.03,-0.61,-0.04,-0.97,-0.04c-0.47,0,-0.9,0.09,-1.28,0.29c-0.38,0.19,-0.7,0.45,-0.96,0.78c-0.26,0.33,-0.46,0.72,-0.6,1.16c-0.13,0.44,-0.2,0.91,-0.2,1.41l0,4.34l-1.53,0l0,-5.99c0,-0.31,-0.01,-0.64,-0.05,-0.97c-0.03,-0.33,-0.07,-0.64,-0.11,-0.93c-0.04,-0.29,-0.09,-0.55,-0.14,-0.79c-0.05,-0.23,-0.09,-0.41,-0.12,-0.55l1.46,0c0.03,0.13,0.08,0.29,0.12,0.46c0.04,0.17,0.08,0.36,0.12,0.55c0.03,0.19,0.07,0.38,0.1,0.57c0.02,0.19,0.04,0.37,0.06,0.53l0.04,0c0.16,-0.35,0.32,-0.67,0.5,-0.95c0.17,-0.28,0.38,-0.52,0.62,-0.72c0.24,-0.19,0.52,-0.35,0.85,-0.46c0.33,-0.1,0.72,-0.16,1.19,-0.16c0.31,0,0.63,0.01,0.94,0.04c0.3,0.02,0.58,0.06,0.82,0.1l0,1.42m4.32,3.54c0,0.48,0.05,0.93,0.16,1.33c0.1,0.4,0.27,0.75,0.48,1.05c0.21,0.29,0.48,0.52,0.8,0.68c0.32,0.16,0.69,0.24,1.11,0.24c0.31,0,0.6,-0.03,0.86,-0.1c0.26,-0.07,0.5,-0.16,0.71,-0.29c0.21,-0.12,0.38,-0.27,0.53,-0.44c0.14,-0.17,0.24,-0.36,0.31,-0.56l1.35,0.38c-0.09,0.25,-0.22,0.51,-0.4,0.77c-0.18,0.25,-0.42,0.49,-0.72,0.7c-0.3,0.2,-0.66,0.37,-1.1,0.51c-0.43,0.13,-0.94,0.2,-1.53,0.2c-0.65,0,-1.24,-0.1,-1.76,-0.3c-0.51,-0.2,-0.95,-0.5,-1.31,-0.91c-0.35,-0.4,-0.63,-0.91,-0.82,-1.51c-0.19,-0.6,-0.28,-1.31,-0.28,-2.11c0,-0.88,0.11,-1.63,0.33,-2.23c0.22,-0.6,0.52,-1.09,0.91,-1.46c0.38,-0.37,0.82,-0.63,1.32,-0.79c0.49,-0.15,1.02,-0.23,1.56,-0.23c0.74,0,1.37,0.11,1.89,0.35c0.51,0.23,0.93,0.57,1.26,1c0.32,0.43,0.56,0.94,0.7,1.55c0.14,0.6,0.21,1.27,0.21,1.99l0,0.2l-6.59,0m2.53,-3.98c-0.26,0,-0.53,0.04,-0.82,0.12c-0.28,0.08,-0.55,0.22,-0.79,0.43c-0.24,0.21,-0.45,0.49,-0.61,0.85c-0.16,0.36,-0.26,0.82,-0.27,1.38l4.99,0c-0.04,-0.53,-0.14,-0.98,-0.29,-1.34c-0.14,-0.35,-0.33,-0.64,-0.55,-0.86c-0.21,-0.21,-0.46,-0.36,-0.74,-0.46c-0.27,-0.09,-0.57,-0.13,-0.87,-0.13m12.57,6.79c-0.27,0.59,-0.64,1.03,-1.11,1.3c-0.46,0.27,-1.03,0.4,-1.72,0.4c-1.15,0,-1.99,-0.39,-2.53,-1.18c-0.54,-0.79,-0.81,-1.98,-0.81,-3.57c0,-3.22,1.11,-4.83,3.34,-4.83c0.68,0,1.26,0.12,1.73,0.36c0.46,0.24,0.83,0.64,1.11,1.2l0.01,0c0,-0.02,0,-0.1,0,-0.22c0,-0.11,0,-0.25,0,-0.39c0,-0.14,0,-0.27,0,-0.4c0,-0.12,0,-0.21,0,-0.26l0,-3.58l1.53,0l0,10.77c0,0.22,0,0.43,0,0.64c0,0.2,0,0.39,0.01,0.56c0,0.17,0.01,0.31,0.01,0.44c0,0.12,0.01,0.2,0.01,0.26l-1.47,0c0,-0.02,-0.01,-0.08,-0.02,-0.18c-0.01,-0.1,-0.02,-0.22,-0.03,-0.36c0,-0.14,-0.01,-0.29,-0.02,-0.46c0,-0.16,0,-0.32,0,-0.47l-0.04,0m-4.59,-3.1c0,0.63,0.04,1.18,0.12,1.63c0.08,0.45,0.21,0.83,0.38,1.12c0.17,0.29,0.39,0.51,0.67,0.65c0.27,0.13,0.6,0.2,0.98,0.2c0.39,0,0.74,-0.06,1.04,-0.2c0.3,-0.13,0.56,-0.35,0.76,-0.65c0.2,-0.29,0.36,-0.68,0.47,-1.16c0.1,-0.47,0.15,-1.05,0.15,-1.74c0,-0.66,-0.05,-1.21,-0.15,-1.66c-0.1,-0.44,-0.26,-0.8,-0.46,-1.08c-0.2,-0.27,-0.45,-0.46,-0.76,-0.58c-0.3,-0.11,-0.64,-0.17,-1.04,-0.17c-0.36,0,-0.68,0.06,-0.95,0.19c-0.27,0.13,-0.49,0.34,-0.67,0.63c-0.17,0.29,-0.31,0.66,-0.4,1.13c-0.09,0.46,-0.13,1.02,-0.13,1.68" fill="#000000" stroke="none" fill-opacity="1"/>
</g>
</g>
<g clip-path="url(#c3)">
<g fill="none" stroke-width="0.62">
<path d="M97.85,441.4l0,0"/>
<path d="M80.13,441.4l35.43,0"/>
</g>
<g fill="#000000" stroke-linejoin="miter" stroke-width="0.62">
<g transform="translate(97.85,441.4)">
<path d="m3.75,0c0,2.07,-1.67,3.75,-3.75,3.75c-2.07,0,-3.75,-1.67,-3.75,-3.75c0,-2.07,1.67,-3.75,3.75,-3.75c2.07,0,3.75,1.67,3.75,3.75" id="p1"/>
</g>
</g>
</g>
<g clip-path="url(#c0)">
<g fill="none" stroke-width="1">
<path d="m145.08,440.17c0,0.95,-0.11,1.8,-0.34,2.53c-0.22,0.73,-0.55,1.34,-0.99,1.84c-0.43,0.49,-0.96,0.86,-1.59,1.12c-0.62,0.25,-1.34,0.38,-2.14,0.38l-3.16,0l0,-11.52l2.65,0c0.9,0,1.69,0.1,2.38,0.32c0.69,0.21,1.27,0.55,1.74,1.02c0.47,0.46,0.83,1.04,1.07,1.76c0.24,0.71,0.36,1.55,0.36,2.53m-1.64,0c0,-0.76,-0.07,-1.42,-0.23,-1.97c-0.15,-0.54,-0.4,-0.99,-0.72,-1.33c-0.32,-0.34,-0.73,-0.59,-1.22,-0.76c-0.49,-0.16,-1.06,-0.24,-1.73,-0.24l-1.03,0l0,8.86l1.38,0c1.2,0,2.1,-0.37,2.69,-1.13c0.58,-0.75,0.87,-1.89,0.87,-3.41m11.93,4.93c0.08,0,0.17,0,0.25,-0.01c0.08,-0.01,0.16,-0.02,0.24,-0.04l0,0.95c-0.19,0.04,-0.38,0.08,-0.57,0.1c-0.19,0.02,-0.39,0.03,-0.61,0.03c-0.29,0,-0.54,-0.03,-0.74,-0.11c-0.2,-0.07,-0.37,-0.19,-0.5,-0.35c-0.13,-0.15,-0.23,-0.35,-0.29,-0.58c-0.06,-0.23,-0.11,-0.49,-0.12,-0.8l-0.05,0c-0.15,0.29,-0.33,0.56,-0.52,0.8c-0.19,0.23,-0.41,0.44,-0.66,0.61c-0.25,0.16,-0.53,0.29,-0.86,0.38c-0.32,0.09,-0.69,0.13,-1.11,0.13c-0.9,0,-1.57,-0.24,-2.03,-0.73c-0.45,-0.48,-0.68,-1.16,-0.68,-2.01c0,-0.6,0.11,-1.1,0.33,-1.49c0.22,-0.39,0.51,-0.69,0.88,-0.91c0.36,-0.22,0.77,-0.37,1.24,-0.46c0.46,-0.08,0.93,-0.13,1.41,-0.14l2.01,-0.03l0,-0.5c0,-0.38,-0.03,-0.7,-0.11,-0.97c-0.07,-0.26,-0.19,-0.48,-0.35,-0.65c-0.15,-0.16,-0.35,-0.28,-0.59,-0.36c-0.23,-0.07,-0.51,-0.11,-0.83,-0.11c-0.28,0,-0.54,0.02,-0.77,0.06c-0.23,0.04,-0.42,0.11,-0.59,0.23c-0.16,0.11,-0.3,0.26,-0.4,0.45c-0.1,0.19,-0.17,0.43,-0.2,0.72l-1.6,-0.14c0.05,-0.36,0.16,-0.69,0.31,-1c0.15,-0.3,0.37,-0.56,0.66,-0.78c0.28,-0.22,0.64,-0.39,1.07,-0.51c0.43,-0.12,0.95,-0.18,1.55,-0.18c1.13,0,1.99,0.26,2.56,0.79c0.57,0.53,0.85,1.3,0.85,2.31l0,3.98c0,0.45,0.05,0.79,0.17,1.03c0.11,0.23,0.34,0.34,0.68,0.34m-5.2,-0.05c0.47,0,0.88,-0.08,1.23,-0.26c0.34,-0.17,0.63,-0.4,0.86,-0.67c0.23,-0.27,0.4,-0.57,0.51,-0.9c0.11,-0.33,0.17,-0.64,0.17,-0.94l0,-0.75l-1.62,0.03c-0.31,0,-0.62,0.02,-0.94,0.07c-0.31,0.04,-0.6,0.13,-0.85,0.26c-0.25,0.13,-0.46,0.33,-0.61,0.59c-0.15,0.25,-0.23,0.6,-0.23,1.03c0,0.46,0.12,0.84,0.37,1.12c0.25,0.28,0.62,0.42,1.11,0.42m7.91,-7.03l0,-1.21l1.45,0l0.49,-2.4l1.02,0l0,2.4l3.69,0l0,1.21l-3.69,0l0,5.57c0,0.45,0.12,0.78,0.36,1c0.24,0.21,0.63,0.32,1.19,0.32c0.22,0,0.46,-0.01,0.7,-0.03c0.24,-0.02,0.47,-0.04,0.7,-0.07c0.22,-0.02,0.43,-0.05,0.63,-0.09c0.19,-0.03,0.36,-0.06,0.5,-0.09l0,1.17c-0.12,0.03,-0.28,0.07,-0.48,0.11c-0.19,0.04,-0.42,0.08,-0.67,0.12c-0.24,0.04,-0.51,0.07,-0.8,0.1c-0.29,0.02,-0.58,0.04,-0.89,0.04c-0.92,0,-1.61,-0.19,-2.07,-0.58c-0.46,-0.39,-0.69,-1,-0.69,-1.85l0,-5.73l-1.43,0m18.28,7.08c0.08,0,0.17,0,0.25,-0.01c0.08,-0.01,0.16,-0.02,0.24,-0.04l0,0.95c-0.19,0.04,-0.38,0.08,-0.57,0.1c-0.19,0.02,-0.39,0.03,-0.61,0.03c-0.29,0,-0.54,-0.03,-0.74,-0.11c-0.2,-0.07,-0.37,-0.19,-0.5,-0.35c-0.13,-0.15,-0.23,-0.35,-0.29,-0.58c-0.06,-0.23,-0.11,-0.49,-0.12,-0.8l-0.05,0c-0.15,0.29,-0.33,0.56,-0.52,0.8c-0.19,0.23,-0.41,0.44,-0.66,0.61c-0.25,0.16,-0.53,0.29,-0.86,0.38c-0.32,0.09,-0.69,0.13,-1.11,0.13c-0.9,0,-1.57,-0.24,-2.03,-0.73c-0.45,-0.48,-0.68,-1.16,-0.68,-2.01c0,-0.6,0.11,-1.1,0.33,-1.49c0.22,-0.39,0.51,-0.69,0.88,-0.91c0.36,-0.22,0.77,-0.37,1.24,-0.46c0.46,-0.08,0.93,-0.13,1.41,-0.14l2.01,-0.03l0,-0.5c0,-0.38,-0.03,-0.7,-0.11,-0.97c-0.07,-0.26,-0.19,-0.48,-0.35,-0.65c-0.15,-0.16,-0.35,-0.28,-0.59,-0.36c-0.23,-0.07,-0.51,-0.11,-0.83,-0.11c-0.28,0,-0.54,0.02,-0.77,0.06c-0.23,0.04,-0.42,0.11,-0.59,0.23c-0.16,0.11,-0.3,0.26,-0.4,0.45c-0.1,0.19,-0.17,0.43,-0.2,0.72l-1.6,-0.14c0.05,-0.36,0.16,-0.69,0.31,-1c0.15,-0.3,0.37,-0.56,0.66,-0.78c0.28,-0.22,0.64,-0.39,1.07,-0.51c0.43,-0.12,0.95,-0.18,1.55,-0.18c1.13,0,1.99,0.26,2.56,0.79c0.57,0.53,0.85,1.3,0.85,2.31l0,3.98c0,0.45,0.05,0.79,0.17,1.03c0.11,0.23,0.34,0.34,0.68,0.34m-5.2,-0.05c0.47,0,0.88,-0.08,1.23,-0.26c0.34,-0.17,0.63,-0.4,0.86,-0.67c0.23,-0.27,0.4,-0.57,0.51,-0.9c0.11,-0.33,0.17,-0.64,0.17,-0.94l0,-0.75l-1.62,0.03c-0.31,0,-0.62,0.02,-0.94,0.07c-0.31,0.04,-0.6,0.13,-0.85,0.26c-0.25,0.13,-0.46,0.33,-0.61,0.59c-0.15,0.25,-0.23,0.6,-0.23,1.03c0,0.46,0.12,0.84,0.37,1.12c0.25,0.28,0.62,0.42,1.11,0.42" fill="#000000" stroke="none" fill-opacity="1"/>
</g>
</g>
<g clip-path="url(#c1)">
<g fill="none" stroke="#808080" stroke-width="1.25">
<polyline fill="none" points="60.23,220.22 69.7,220.22 79.18,220.22 88.65,220.22 98.12,220.22 107.6,220.22 117.07,220.22 126.54,220.22 136.01,220.22 145.49,220.22 154.96,220.22 164.43,220.22 173.91,220.22 183.38,220.22 192.85,220.22 202.33,220.22 211.8,220.22 221.27,220.22 230.74,220.22 240.22,220.22 249.69,220.22 259.16,220.22 268.64,220.22 278.11,220.22 287.58,220.22 297.05,220.22 306.53,220.22 316,220.22 325.47,220.22 334.95,220.22 344.42,220.22 353.89,220.22 363.36,220.22 372.84,220.22 382.31,220.22 391.78,220.22 401.26,220.22 410.73,220.22 420.2,220.22 429.68,220.22 439.15,220.22 448.62,220.22 458.09,220.22 467.57,220.22 477.04,220.22 486.51,220.22 495.99,220.22 505.46,220.22 514.93,220.22 524.4,220.22"/>
</g>
<g fill="none" stroke-width="0.62">
<polyline fill="none" points="60.23,218.16 69.7,269.63 79.18,292.36 88.65,137.57 98.12,242.49 107.6,315.76 117.07,368.28 126.54,200.21 136.01,102.1 145.49,302.01 154.96,291.01 164.43,275.13 173.91,318.17 183.38,199.62 192.85,276.69 202.33,384.38 211.8,202.15 221.27,183.8 230.74,342.64 240.22,205.71 249.69,341.27 259.16,149.94 268.64,283.79 278.11,137.72 287.58,370.91 297.05,175.89 306.53,267.46 316,258.21 325.47,239.68 334.95,266.81 344.42,432.57 353.89,276.73 363.36,426.14 372.84,45.76 382.31,206.06 391.78,292.15 401.26,275.34 410.73,227.34 420.2,168.45 429.68,327.09 439.15,223.64 448.62,155.83 458.09,156.35 467.57,360.09 477.04,212.3 486.51,228.79 495.99,233.7 505.46,276.58 514.93,241.47 524.4,337.7"/>
</g>
<g fill="#000000" stroke-linejoin="miter" stroke-width="0.62">
<use xlink:href="#p1" x="60.23" y="218.16"/>
<use xlink:href="#p1" x="69.7" y="269.63"/>
<use xlink:href="#p1" x="79.18" y="292.36"/>
<use xlink:href="#p1" x="88.65" y="137.57"/>
<use xlink:href="#p1" x="98.12" y="242.49"/>
<use xlink:href="#p1" x="107.6" y="315.76"/>
<use xlink:href="#p1" x="117.07" y="368.28"/>
<use xlink:href="#p1" x="126.54" y="200.21"/>
<use xlink:href="#p1" x="136.01" y="102.1"/>
<use xlink:href="#p1" x="145.49" y="302.01"/>
<use xlink:href="#p1" x="154.96" y="291.01"/>
<use xlink:href="#p1" x="164.43" y="275.13"/>
<use xlink:href="#p1" x="173.91" y="318.17"/>
<use xlink:href="#p1" x="183.38" y="199.62"/>
<use xlink:href="#p1" x="192.85" y="276.69"/>
<use xlink:href="#p1" x="202.33" y="384.38"/>
<use xlink:href="#p1" x="211.8" y="202.15"/>
<use xlink:href="#p1" x="221.27" y="183.8"/>
<use xlink:href="#p1" x="230.74" y="342.64"/>
<use xlink:href="#p1" x="240.22" y="205.71"/>
<use xlink:href="#p1" x="249.69" y="341.27"/>
<use xlink:href="#p1" x="259.16" y="149.94"/>
<use xlink:href="#p1" x="268.64" y="283.79"/>
<use xlink:href="#p1" x="278.11" y="137.72"/>
<use xlink:href="#p1" x="287.58" y="370.91"/>
<use xlink:href="#p1" x="297.05" y="175.89"/>
<use xlink:href="#p1" x="306.53" y="267.46"/>
<use xlink:href="#p1" x="316" y="258.21"/>
<use xlink:href="#p1" x="325.47" y="239.68"/>
<use xlink:href="#p1" x="334.95" y="266.81"/>
<use xlink:href="#p1" x="344.42" y="432.57"/>
<use xlink:href="#p1" x="353.89" y="276.73"/>
<use xlink:href="#p1" x="363.36" y="426.14"/>
<use xlink:href="#p1" x="372.84" y="45.76"/>
<use xlink:href="#p1" x="382.31" y="206.06"/>
<use xlink:href="#p1" x="391.78" y="292.15"/>
<use xlink:href="#p1" x="401.26" y="275.34"/>
<use xlink:href="#p1" x="410.73" y="227.34"/>
<use xlink:href="#p1" x="420.2" y="168.45"/>
<use xlink:href="#p1" x="429.68" y="327.09"/>
<use xlink:href="#p1" x="439.15" y="223.64"/>
<use xlink:href="#p1" x="448.62" y="155.83"/>
<use xlink:href="#p1" x="458.09" y="156.35"/>
<use xlink:href="#p1" x="467.57" y="360.09"/>
<use xlink:href="#p1" x="477.04" y="212.3"/>
<use xlink:href="#p1" x="486.51" y="228.79"/>
<use xlink:href="#p1" x="495.99" y="233.7"/>
<use xlink:href="#p1" x="505.46" y="276.58"/>
<use xlink:href="#p1" x="514.93" y="241.47"/>
<use xlink:href="#p1" x="524.4" y="337.7"/>
</g>
<g fill="#ffaa00" stroke-linejoin="miter" stroke-width="0.62">
<use xlink:href="#p2" x="60.23" y="218.16"/>
<use xlink:href="#p2" x="88.65" y="137.57"/>
<use xlink:href="#p2" x="126.54" y="200.21"/>
<use xlink:href="#p2" x="136.01" y="102.1"/>
<use xlink:href="#p2" x="183.38" y="199.62"/>
<use xlink:href="#p2" x="211.8" y="202.15"/>
<use xlink:href="#p2" x="221.27" y="183.8"/>
<use xlink:href="#p2" x="240.22" y="205.71"/>
<use xlink:href="#p2" x="259.16" y="149.94"/>
<use xlink:href="#p2" x="278.11" y="137.72"/>
<use xlink:href="#p2" x="297.05" y="175.89"/>
<use xlink:href="#p2" x="372.84" y="45.76"/>
<use xlink:href="#p2" x="382.31" y="206.06"/>
<use xlink:href="#p2" x="420.2" y="168.45"/>
<use xlink:href="#p2" x="448.62" y="155.83"/>
<use xlink:href="#p2" x="458.09" y="156.35"/>
<use xlink:href="#p2" x="477.04" y="212.3"/>
</g>
</g>
<g clip-path="url(#c0)">
<g fill="none" stroke-linecap="butt" stroke-width="0.62">
<path d="M60.23,471.25l0,-464.17"/>
<path d="M60.23,437.08l3.75,0M60.23,400.94l3.75,0M60.23,364.79l3.75,0M60.23,328.65l3.75,0M60.23,292.51l3.75,0M60.23,256.36l3.75,0M60.23,220.22l3.75,0M60.23,184.08l3.75,0M60.23,147.94l3.75,0M60.23,111.79l3.75,0M60.23,75.65l3.75,0M60.23,39.51l3.75,0"/>
<path d="M60.23,400.94l7.5,0M60.23,328.65l7.5,0M60.23,256.36l7.5,0M60.23,184.08l7.5,0M60.23,111.79l7.5,0M60.23,39.51l7.5,0"/>
</g>
<g fill="none" stroke-width="1">
<g transform="matrix(0 -1 1 0 29.23 270.67)">
<path d="m6.05,-4.99l0,4.99l-1.6,0l0,-4.99l-4.13,-6.53l1.75,0l3.19,5.22l3.17,-5.22l1.75,0l-4.13,6.53m24.35,4.04c0.08,0,0.17,0,0.25,-0.01c0.08,-0.01,0.16,-0.02,0.24,-0.04l0,0.95c-0.19,0.04,-0.38,0.08,-0.57,0.1c-0.19,0.02,-0.39,0.03,-0.61,0.03c-0.29,0,-0.54,-0.03,-0.74,-0.11c-0.2,-0.07,-0.37,-0.19,-0.5,-0.35c-0.13,-0.15,-0.23,-0.35,-0.29,-0.58c-0.06,-0.23,-0.11,-0.49,-0.12,-0.8l-0.05,0c-0.15,0.29,-0.33,0.56,-0.52,0.8c-0.19,0.23,-0.41,0.44,-0.66,0.61c-0.25,0.16,-0.53,0.29,-0.86,0.38c-0.32,0.09,-0.69,0.13,-1.11,0.13c-0.9,0,-1.57,-0.24,-2.03,-0.73c-0.45,-0.48,-0.68,-1.16,-0.68,-2.01c0,-0.6,0.11,-1.1,0.33,-1.49c0.22,-0.39,0.51,-0.69,0.88,-0.91c0.36,-0.22,0.77,-0.37,1.24,-0.46c0.46,-0.08,0.93,-0.13,1.41,-0.14l2.01,-0.03l0,-0.5c0,-0.38,-0.03,-0.7,-0.11,-0.97c-0.07,-0.26,-0.19,-0.48,-0.35,-0.65c-0.15,-0.16,-0.35,-0.28,-0.59,-0.36c-0.23,-0.07,-0.51,-0.11,-0.83,-0.11c-0.28,0,-0.54,0.02,-0.77,0.06c-0.23,0.04,-0.42,0.11,-0.59,0.23c-0.16,0.11,-0.3,0.26,-0.4,0.45c-0.1,0.19,-0.17,0.43,-0.2,0.72l-1.6,-0.14c0.05,-0.36,0.16,-0.69,0.31,-1c0.15,-0.3,0.37,-0.56,0.66,-0.78c0.28,-0.22,0.64,-0.39,1.07,-0.51c0.43,-0.12,0.95,-0.18,1.55,-0.18c1.13,0,1.99,0.26,2.56,0.79c0.57,0.53,0.85,1.3,0.85,2.31l0,3.98c0,0.45,0.05,0.79,0.17,1.03c0.11,0.23,0.34,0.34,0.68,0.34m-5.2,-0.05c0.47,0,0.88,-0.08,1.23,-0.26c0.34,-0.17,0.63,-0.4,0.86,-0.67c0.23,-0.27,0.4,-0.57,0.51,-0.9c0.11,-0.33,0.17,-0.64,0.17,-0.94l0,-0.75l-1.62,0.03c-0.31,0,-0.62,0.02,-0.94,0.07c-0.31,0.04,-0.6,0.13,-0.85,0.26c-0.25,0.13,-0.46,0.33,-0.61,0.59c-0.15,0.25,-0.23,0.6,-0.23,1.03c0,0.46,0.12,0.84,0.37,1.12c0.25,0.28,0.62,0.42,1.11,0.42m14.25,1l-2.74,-3.79l-2.75,3.79l-1.65,0l3.54,-4.75l-3.39,-4.49l1.7,0l2.56,3.59l2.54,-3.59l1.71,0l-3.39,4.47l3.58,4.76l-1.71,0m8.9,-1.21l3.24,0l0,1.21l-8.39,0l0,-1.21l3.6,0l0,-6.81l-2.72,0l0,-1.21l4.26,0l0,8.03m-1.7,-9.82l0,-1.64l1.7,0l0,1.64l-1.7,0m14.9,8.4c0,0.43,-0.08,0.82,-0.25,1.17c-0.16,0.34,-0.41,0.64,-0.73,0.88c-0.31,0.24,-0.71,0.42,-1.17,0.55c-0.46,0.13,-0.99,0.19,-1.59,0.19c-0.53,0,-1.01,-0.03,-1.44,-0.11c-0.43,-0.07,-0.8,-0.2,-1.13,-0.37c-0.32,-0.17,-0.59,-0.41,-0.81,-0.7c-0.21,-0.29,-0.38,-0.65,-0.48,-1.08l1.35,-0.26c0.06,0.31,0.17,0.56,0.32,0.74c0.15,0.18,0.33,0.32,0.54,0.42c0.21,0.09,0.45,0.16,0.73,0.19c0.27,0.03,0.58,0.04,0.9,0.04c0.33,0,0.63,-0.02,0.91,-0.07c0.28,-0.04,0.52,-0.13,0.73,-0.24c0.2,-0.11,0.36,-0.26,0.48,-0.45c0.11,-0.18,0.17,-0.41,0.17,-0.68c0,-0.28,-0.07,-0.51,-0.21,-0.68c-0.14,-0.17,-0.34,-0.32,-0.59,-0.43c-0.25,-0.11,-0.54,-0.22,-0.89,-0.3c-0.34,-0.08,-0.71,-0.18,-1.12,-0.29c-0.36,-0.09,-0.72,-0.2,-1.08,-0.31c-0.35,-0.11,-0.67,-0.26,-0.96,-0.44c-0.28,-0.18,-0.5,-0.41,-0.68,-0.7c-0.17,-0.28,-0.26,-0.64,-0.26,-1.08c0,-0.83,0.3,-1.49,0.9,-1.96c0.6,-0.47,1.47,-0.7,2.62,-0.7c0.45,0,0.87,0.04,1.26,0.12c0.39,0.08,0.74,0.21,1.05,0.39c0.3,0.17,0.56,0.41,0.77,0.69c0.2,0.28,0.35,0.61,0.43,1.01l-1.38,0.17c-0.03,-0.25,-0.12,-0.46,-0.25,-0.62c-0.13,-0.15,-0.29,-0.28,-0.48,-0.38c-0.19,-0.09,-0.4,-0.15,-0.64,-0.19c-0.23,-0.03,-0.48,-0.05,-0.75,-0.05c-1.39,0,-2.09,0.42,-2.09,1.28c0,0.26,0.06,0.47,0.18,0.63c0.12,0.16,0.29,0.29,0.51,0.4c0.22,0.1,0.48,0.2,0.79,0.27c0.3,0.07,0.64,0.16,1.01,0.26c0.36,0.09,0.75,0.19,1.14,0.31c0.39,0.11,0.74,0.27,1.06,0.47c0.32,0.19,0.58,0.45,0.79,0.76c0.2,0.31,0.31,0.7,0.31,1.17" fill="#000000" stroke="none" fill-opacity="1"/>
</g>
<path d="m54.06,401.17c0,1.11,-0.1,2.04,-0.32,2.79c-0.21,0.75,-0.51,1.36,-0.89,1.83c-0.37,0.46,-0.82,0.8,-1.33,1c-0.51,0.2,-1.06,0.3,-1.64,0.3c-0.58,0,-1.13,-0.1,-1.63,-0.3c-0.5,-0.2,-0.94,-0.53,-1.32,-0.99c-0.37,-0.46,-0.66,-1.07,-0.88,-1.83c-0.21,-0.75,-0.32,-1.69,-0.32,-2.8c0,-1.16,0.1,-2.12,0.32,-2.88c0.21,-0.76,0.5,-1.37,0.88,-1.82c0.37,-0.45,0.82,-0.77,1.33,-0.95c0.51,-0.18,1.07,-0.27,1.67,-0.27c0.57,0,1.11,0.09,1.62,0.27c0.5,0.18,0.94,0.49,1.31,0.95c0.37,0.45,0.67,1.06,0.88,1.82c0.21,0.76,0.32,1.72,0.32,2.88m-1.56,0c0,-0.9,-0.05,-1.66,-0.17,-2.26c-0.11,-0.6,-0.28,-1.08,-0.5,-1.44c-0.22,-0.35,-0.49,-0.61,-0.81,-0.76c-0.32,-0.14,-0.68,-0.22,-1.09,-0.22c-0.43,0,-0.81,0.07,-1.14,0.22c-0.33,0.15,-0.6,0.4,-0.83,0.76c-0.22,0.35,-0.39,0.83,-0.5,1.43c-0.11,0.6,-0.17,1.35,-0.17,2.26c0,0.87,0.05,1.61,0.17,2.21c0.11,0.59,0.28,1.07,0.51,1.44c0.22,0.36,0.49,0.62,0.82,0.78c0.32,0.15,0.69,0.23,1.11,0.23c0.4,0,0.77,-0.07,1.09,-0.23c0.32,-0.15,0.59,-0.42,0.82,-0.78c0.22,-0.36,0.39,-0.84,0.52,-1.44c0.12,-0.59,0.18,-1.33,0.18,-2.21m-3.62,1.02l0,-2.12l2,0l0,2.12l-2,0" fill="#000000" stroke="none" fill-opacity="1"/>
<path d="m45.97,334.65l0,-1.23l3.75,0l0,-8.72c-0.1,0.22,-0.29,0.44,-0.57,0.64c-0.27,0.2,-0.58,0.37,-0.94,0.52c-0.35,0.14,-0.73,0.26,-1.14,0.35c-0.4,0.08,-0.79,0.13,-1.17,0.13l0,-1.26c0.42,0,0.83,-0.04,1.24,-0.14c0.4,-0.09,0.78,-0.23,1.14,-0.4c0.35,-0.17,0.66,-0.38,0.93,-0.61c0.27,-0.23,0.48,-0.5,0.63,-0.78l1.41,0l0,10.28l3.01,0l0,1.23l-8.31,0" fill="#000000" stroke="none" fill-opacity="1"/>
<path d="m45.86,262.36l0,-1c0.25,-0.55,0.58,-1.06,0.99,-1.52c0.41,-0.46,0.84,-0.9,1.31,-1.32c0.46,-0.41,0.93,-0.8,1.4,-1.18c0.46,-0.37,0.89,-0.74,1.27,-1.11c0.37,-0.36,0.68,-0.74,0.92,-1.11c0.23,-0.37,0.35,-0.77,0.35,-1.2c0,-0.34,-0.05,-0.63,-0.16,-0.88c-0.11,-0.24,-0.26,-0.45,-0.46,-0.61c-0.2,-0.16,-0.44,-0.28,-0.71,-0.35c-0.27,-0.07,-0.58,-0.11,-0.91,-0.11c-0.3,0,-0.59,0.04,-0.85,0.12c-0.26,0.08,-0.49,0.21,-0.69,0.38c-0.19,0.17,-0.36,0.38,-0.48,0.63c-0.12,0.25,-0.2,0.54,-0.24,0.88l-1.57,-0.14c0.05,-0.43,0.16,-0.84,0.35,-1.22c0.18,-0.38,0.43,-0.71,0.74,-1c0.31,-0.28,0.7,-0.51,1.16,-0.67c0.46,-0.16,0.99,-0.24,1.59,-0.24c0.59,0,1.13,0.06,1.61,0.2c0.47,0.13,0.87,0.33,1.21,0.6c0.33,0.26,0.58,0.59,0.76,0.98c0.17,0.39,0.26,0.84,0.26,1.34c0,0.53,-0.12,1.03,-0.36,1.49c-0.24,0.45,-0.55,0.89,-0.94,1.3c-0.38,0.4,-0.81,0.8,-1.27,1.17c-0.46,0.37,-0.92,0.73,-1.36,1.1c-0.44,0.36,-0.84,0.73,-1.21,1.09c-0.36,0.36,-0.63,0.75,-0.82,1.15l6.17,0l0,1.24l-8.03,0" fill="#000000" stroke="none" fill-opacity="1"/>
<path d="m54.02,186.92c0,0.51,-0.08,0.98,-0.26,1.39c-0.17,0.41,-0.44,0.76,-0.78,1.04c-0.34,0.28,-0.77,0.5,-1.27,0.65c-0.5,0.15,-1.09,0.23,-1.75,0.23c-0.74,0,-1.36,-0.09,-1.87,-0.27c-0.51,-0.18,-0.93,-0.42,-1.26,-0.73c-0.33,-0.3,-0.57,-0.65,-0.74,-1.04c-0.16,-0.39,-0.27,-0.79,-0.32,-1.21l1.58,-0.14c0.04,0.31,0.12,0.61,0.25,0.87c0.12,0.26,0.28,0.48,0.5,0.67c0.21,0.18,0.47,0.33,0.78,0.43c0.31,0.1,0.67,0.15,1.08,0.15c0.77,0,1.38,-0.17,1.82,-0.53c0.44,-0.35,0.66,-0.88,0.66,-1.57c0,-0.38,-0.09,-0.7,-0.29,-0.96c-0.19,-0.25,-0.44,-0.45,-0.73,-0.61c-0.29,-0.15,-0.61,-0.25,-0.95,-0.32c-0.34,-0.06,-0.66,-0.09,-0.95,-0.09l-0.87,0l0,-1.33l0.83,0c0.29,0,0.59,-0.03,0.9,-0.1c0.31,-0.07,0.6,-0.18,0.85,-0.34c0.25,-0.15,0.47,-0.36,0.64,-0.61c0.16,-0.25,0.25,-0.55,0.25,-0.91c0,-0.6,-0.18,-1.07,-0.56,-1.41c-0.37,-0.33,-0.94,-0.5,-1.68,-0.5c-0.67,0,-1.22,0.17,-1.64,0.52c-0.41,0.34,-0.66,0.83,-0.73,1.46l-1.54,-0.11c0.06,-0.53,0.2,-0.99,0.43,-1.38c0.22,-0.39,0.51,-0.71,0.86,-0.97c0.35,-0.25,0.75,-0.45,1.2,-0.58c0.45,-0.12,0.92,-0.19,1.43,-0.19c0.67,0,1.25,0.07,1.73,0.23c0.48,0.15,0.87,0.37,1.18,0.64c0.3,0.27,0.53,0.59,0.67,0.96c0.14,0.36,0.21,0.75,0.21,1.17c0,0.31,-0.05,0.61,-0.15,0.91c-0.1,0.29,-0.26,0.56,-0.47,0.8c-0.2,0.24,-0.47,0.45,-0.78,0.64c-0.31,0.18,-0.68,0.31,-1.1,0.4l0,0.03c0.46,0.05,0.87,0.16,1.23,0.33c0.35,0.17,0.65,0.38,0.89,0.62c0.23,0.24,0.41,0.52,0.54,0.82c0.12,0.3,0.18,0.61,0.18,0.94" fill="#000000" stroke="none" fill-opacity="1"/>
<path d="m52.64,115.07l0,2.72l-1.53,0l0,-2.72l-5.58,0l0,-1.19l5.42,-7.6l1.7,0l0,7.58l1.6,0l0,1.21l-1.6,0m-1.53,-7.13l-4.27,5.92l4.27,0l0,-5.92" fill="#000000" stroke="none" fill-opacity="1"/>
<path d="m54.02,41.71c0,0.56,-0.09,1.09,-0.27,1.58c-0.18,0.48,-0.45,0.9,-0.81,1.25c-0.35,0.35,-0.8,0.62,-1.33,0.82c-0.53,0.19,-1.14,0.29,-1.84,0.29c-0.63,0,-1.18,-0.07,-1.65,-0.22c-0.47,-0.14,-0.86,-0.35,-1.19,-0.61c-0.32,-0.25,-0.58,-0.56,-0.77,-0.91c-0.19,-0.34,-0.32,-0.72,-0.4,-1.11l1.55,-0.17c0.06,0.22,0.15,0.44,0.26,0.66c0.11,0.21,0.26,0.4,0.46,0.57c0.19,0.16,0.43,0.3,0.72,0.4c0.28,0.09,0.63,0.14,1.04,0.14c0.39,0,0.75,-0.06,1.08,-0.18c0.32,-0.12,0.6,-0.29,0.83,-0.52c0.23,-0.22,0.4,-0.5,0.53,-0.84c0.12,-0.33,0.18,-0.7,0.18,-1.12c0,-0.34,-0.05,-0.65,-0.17,-0.95c-0.11,-0.29,-0.29,-0.54,-0.51,-0.76c-0.22,-0.21,-0.49,-0.38,-0.81,-0.5c-0.32,-0.12,-0.68,-0.18,-1.09,-0.18c-0.25,0,-0.49,0.02,-0.71,0.06c-0.21,0.04,-0.41,0.1,-0.6,0.18c-0.18,0.07,-0.35,0.17,-0.5,0.27c-0.15,0.1,-0.29,0.21,-0.42,0.32l-1.5,0l0.4,-6.22l6.84,0l0,1.23l-5.42,0l-0.24,3.63c0.27,-0.21,0.61,-0.39,1.02,-0.54c0.4,-0.15,0.89,-0.22,1.46,-0.22c0.59,0,1.13,0.09,1.61,0.27c0.47,0.18,0.88,0.43,1.22,0.75c0.33,0.32,0.59,0.7,0.77,1.14c0.18,0.44,0.27,0.92,0.27,1.45" fill="#000000" stroke="none" fill-opacity="1"/>
</g>
<g fill="none" stroke-linecap="butt" stroke-width="0.62">
<path d="M60.23,471.25l464.17,0"/>
<path d="M60.23,471.25l0,-3.75M83.44,471.25l0,-3.75M106.65,471.25l0,-3.75M129.86,471.25l0,-3.75M153.07,471.25l0,-3.75M176.27,471.25l0,-3.75M199.48,471.25l0,-3.75M222.69,471.25l0,-3.75M245.9,471.25l0,-3.75M269.11,471.25l0,-3.75M292.32,471.25l0,-3.75M315.53,471.25l0,-3.75M338.74,471.25l0,-3.75M361.94,471.25l0,-3.75M385.15,471.25l0,-3.75M408.36,471.25l0,-3.75M431.57,471.25l0,-3.75M454.78,471.25l0,-3.75M477.99,471.25l0,-3.75M501.2,471.25l0,-3.75M524.4,471.25l0,-3.75"/>
<path d="M60.23,471.25l0,-7.5M153.07,471.25l0,-7.5M245.9,471.25l0,-7.5M338.74,471.25l0,-7.5M431.57,471.25l0,-7.5M524.4,471.25l0,-7.5"/>
</g>
<g fill="none" stroke-width="1">
<path d="m266.06,508.61l2.84,-4.38l1.75,0l-3.71,5.5l4.06,6.02l-1.75,0l-3.19,-4.89l-3.18,4.89l-1.75,0l4.06,-6.02l-3.71,-5.5l1.75,0l2.83,4.38m25.16,6.19c0.08,0,0.17,0,0.25,-0.01c0.08,-0.01,0.16,-0.02,0.24,-0.04l0,0.95c-0.19,0.04,-0.38,0.08,-0.57,0.1c-0.19,0.02,-0.39,0.03,-0.61,0.03c-0.29,0,-0.54,-0.03,-0.74,-0.11c-0.2,-0.07,-0.37,-0.19,-0.5,-0.35c-0.13,-0.15,-0.23,-0.35,-0.29,-0.58c-0.06,-0.23,-0.11,-0.49,-0.12,-0.8l-0.05,0c-0.15,0.29,-0.33,0.56,-0.52,0.8c-0.19,0.23,-0.41,0.44,-0.66,0.61c-0.25,0.16,-0.53,0.29,-0.86,0.38c-0.32,0.09,-0.69,0.13,-1.11,0.13c-0.9,0,-1.57,-0.24,-2.03,-0.73c-0.45,-0.48,-0.68,-1.16,-0.68,-2.01c0,-0.6,0.11,-1.1,0.33,-1.49c0.22,-0.39,0.51,-0.69,0.88,-0.91c0.36,-0.22,0.77,-0.37,1.24,-0.46c0.46,-0.08,0.93,-0.13,1.41,-0.14l2.01,-0.03l0,-0.5c0,-0.38,-0.03,-0.7,-0.11,-0.97c-0.07,-0.26,-0.19,-0.48,-0.35,-0.65c-0.15,-0.16,-0.35,-0.28,-0.59,-0.36c-0.23,-0.07,-0.51,-0.11,-0.83,-0.11c-0.28,0,-0.54,0.02,-0.77,0.06c-0.23,0.04,-0.42,0.11,-0.59,0.23c-0.16,0.11,-0.3,0.26,-0.4,0.45c-0.1,0.19,-0.17,0.43,-0.2,0.72l-1.6,-0.14c0.05,-0.36,0.16,-0.69,0.31,-1c0.15,-0.3,0.37,-0.56,0.66,-0.78c0.28,-0.22,0.64,-0.39,1.07,-0.51c0.43,-0.12,0.95,-0.18,1.55,-0.18c1.13,0,1.99,0.26,2.56,0.79c0.57,0.53,0.85,1.3,0.85,2.31l0,3.98c0,0.45,0.05,0.79,0.17,1.03c0.11,0.23,0.34,0.34,0.68,0.34m-5.2,-0.05c0.47,0,0.88,-0.08,1.23,-0.26c0.34,-0.17,0.63,-0.4,0.86,-0.67c0.23,-0.27,0.4,-0.57,0.51,-0.9c0.11,-0.33,0.17,-0.64,0.17,-0.94l0,-0.75l-1.62,0.03c-0.31,0,-0.62,0.02,-0.94,0.07c-0.31,0.04,-0.6,0.13,-0.85,0.26c-0.25,0.13,-0.46,0.33,-0.61,0.59c-0.15,0.25,-0.23,0.6,-0.23,1.03c0,0.46,0.12,0.84,0.37,1.12c0.25,0.28,0.62,0.42,1.11,0.42m14.25,1l-2.74,-3.79l-2.75,3.79l-1.65,0l3.54,-4.75l-3.39,-4.49l1.7,0l2.56,3.59l2.54,-3.59l1.71,0l-3.39,4.47l3.58,4.76l-1.71,0m8.9,-1.21l3.24,0l0,1.21l-8.39,0l0,-1.21l3.6,0l0,-6.81l-2.72,0l0,-1.21l4.26,0l0,8.03m-1.7,-9.82l0,-1.64l1.7,0l0,1.64l-1.7,0m14.9,8.4c0,0.43,-0.08,0.82,-0.25,1.17c-0.16,0.34,-0.41,0.64,-0.73,0.88c-0.31,0.24,-0.71,0.42,-1.17,0.55c-0.46,0.13,-0.99,0.19,-1.59,0.19c-0.53,0,-1.01,-0.03,-1.44,-0.11c-0.43,-0.07,-0.8,-0.2,-1.13,-0.37c-0.32,-0.17,-0.59,-0.41,-0.81,-0.7c-0.21,-0.29,-0.38,-0.65,-0.48,-1.08l1.35,-0.26c0.06,0.31,0.17,0.56,0.32,0.74c0.15,0.18,0.33,0.32,0.54,0.42c0.21,0.09,0.45,0.16,0.73,0.19c0.27,0.03,0.58,0.04,0.9,0.04c0.33,0,0.63,-0.02,0.91,-0.07c0.28,-0.04,0.52,-0.13,0.73,-0.24c0.2,-0.11,0.36,-0.26,0.48,-0.45c0.11,-0.18,0.17,-0.41,0.17,-0.68c0,-0.28,-0.07,-0.51,-0.21,-0.68c-0.14,-0.17,-0.34,-0.32,-0.59,-0.43c-0.25,-0.11,-0.54,-0.22,-0.89,-0.3c-0.34,-0.08,-0.71,-0.18,-1.12,-0.29c-0.36,-0.09,-0.72,-0.2,-1.08,-0.31c-0.35,-0.11,-0.67,-0.26,-0.96,-0.44c-0.28,-0.18,-0.5,-0.41,-0.68,-0.7c-0.17,-0.28,-0.26,-0.64,-0.26,-1.08c0,-0.83,0.3,-1.49,0.9,-1.96c0.6,-0.47,1.47,-0.7,2.62,-0.7c0.45,0,0.87,0.04,1.26,0.12c0.39,0.08,0.74,0.21,1.05,0.39c0.3,0.17,0.56,0.41,0.77,0.69c0.2,0.28,0.35,0.61,0.43,1.01l-1.38,0.17c-0.03,-0.25,-0.12,-0.46,-0.25,-0.62c-0.13,-0.15,-0.29,-0.28,-0.48,-0.38c-0.19,-0.09,-0.4,-0.15,-0.64,-0.19c-0.23,-0.03,-0.48,-0.05,-0.75,-0.05c-1.39,0,-2.09,0.42,-2.09,1.28c0,0.26,0.06,0.47,0.18,0.63c0.12,0.16,0.29,0.29,0.51,0.4c0.22,0.1,0.48,0.2,0.79,0.27c0.3,0.07,0.64,0.16,1.01,0.26c0.36,0.09,0.75,0.19,1.14,0.31c0.39,0.11,0.74,0.27,1.06,0.47c0.32,0.19,0.58,0.45,0.79,0.76c0.2,0.31,0.31,0.7,0.31,1.17" fill="#000000" stroke="none" fill-opacity="1"/>
<path d="m64.41,485.19c0,1.11,-0.1,2.04,-0.32,2.79c-0.21,0.75,-0.51,1.36,-0.89,1.83c-0.37,0.46,-0.82,0.8,-1.33,1c-0.51,0.2,-1.06,0.3,-1.64,0.3c-0.58,0,-1.13,-0.1,-1.63,-0.3c-0.5,-0.2,-0.94,-0.53,-1.32,-0.99c-0.37,-0.46,-0.66,-1.07,-0.88,-1.83c-0.21,-0.75,-0.32,-1.69,-0.32,-2.8c0,-1.16,0.1,-2.12,0.32,-2.88c0.21,-0.76,0.5,-1.37,0.88,-1.82c0.37,-0.45,0.82,-0.77,1.33,-0.95c0.51,-0.18,1.07,-0.27,1.67,-0.27c0.57,0,1.11,0.09,1.62,0.27c0.5,0.18,0.94,0.49,1.31,0.95c0.37,0.45,0.67,1.06,0.88,1.82c0.21,0.76,0.32,1.72,0.32,2.88m-1.56,0c0,-0.9,-0.05,-1.66,-0.17,-2.26c-0.11,-0.6,-0.28,-1.08,-0.5,-1.44c-0.22,-0.35,-0.49,-0.61,-0.81,-0.76c-0.32,-0.14,-0.68,-0.22,-1.09,-0.22c-0.43,0,-0.81,0.07,-1.14,0.22c-0.33,0.15,-0.6,0.4,-0.83,0.76c-0.22,0.35,-0.39,0.83,-0.5,1.43c-0.11,0.6,-0.17,1.35,-0.17,2.26c0,0.87,0.05,1.61,0.17,2.21c0.11,0.59,0.28,1.07,0.51,1.44c0.22,0.36,0.49,0.62,0.82,0.78c0.32,0.15,0.69,0.23,1.11,0.23c0.4,0,0.77,-0.07,1.09,-0.23c0.32,-0.15,0.59,-0.42,0.82,-0.78c0.22,-0.36,0.39,-0.84,0.52,-1.44c0.12,-0.59,0.18,-1.33,0.18,-2.21m-3.62,1.02l0,-2.12l2,0l0,2.12l-2,0" fill="#000000" stroke="none" fill-opacity="1"/>
<path d="m149.05,490.95l0,-1c0.25,-0.55,0.58,-1.06,0.99,-1.52c0.41,-0.46,0.84,-0.9,1.31,-1.32c0.46,-0.41,0.93,-0.8,1.4,-1.18c0.46,-0.37,0.89,-0.74,1.27,-1.11c0.37,-0.36,0.68,-0.74,0.92,-1.11c0.23,-0.37,0.35,-0.77,0.35,-1.2c0,-0.34,-0.05,-0.63,-0.16,-0.88c-0.11,-0.24,-0.26,-0.45,-0.46,-0.61c-0.2,-0.16,-0.44,-0.28,-0.71,-0.35c-0.27,-0.07,-0.58,-0.11,-0.91,-0.11c-0.3,0,-0.59,0.04,-0.85,0.12c-0.26,0.08,-0.49,0.21,-0.69,0.38c-0.19,0.17,-0.36,0.38,-0.48,0.63c-0.12,0.25,-0.2,0.54,-0.24,0.88l-1.57,-0.14c0.05,-0.43,0.16,-0.84,0.35,-1.22c0.18,-0.38,0.43,-0.71,0.74,-1c0.31,-0.28,0.7,-0.51,1.16,-0.67c0.46,-0.16,0.99,-0.24,1.59,-0.24c0.59,0,1.13,0.06,1.61,0.2c0.47,0.13,0.87,0.33,1.21,0.6c0.33,0.26,0.58,0.59,0.76,0.98c0.17,0.39,0.26,0.84,0.26,1.34c0,0.53,-0.12,1.03,-0.36,1.49c-0.24,0.45,-0.55,0.89,-0.94,1.3c-0.38,0.4,-0.81,0.8,-1.27,1.17c-0.46,0.37,-0.92,0.73,-1.36,1.1c-0.44,0.36,-0.84,0.73,-1.21,1.09c-0.36,0.36,-0.63,0.75,-0.82,1.15l6.17,0l0,1.24l-8.03,0" fill="#000000" stroke="none" fill-opacity="1"/>
<path d="m248.66,488.23l0,2.72l-1.53,0l0,-2.72l-5.58,0l0,-1.19l5.42,-7.6l1.7,0l0,7.58l1.6,0l0,1.21l-1.6,0m-1.53,-7.13l-4.27,5.92l4.27,0l0,-5.92" fill="#000000" stroke="none" fill-opacity="1"/>
<path d="m342.85,487.14c0,0.56,-0.08,1.09,-0.25,1.58c-0.16,0.48,-0.41,0.9,-0.74,1.26c-0.32,0.35,-0.73,0.63,-1.21,0.83c-0.48,0.19,-1.04,0.29,-1.67,0.29c-0.7,0,-1.31,-0.13,-1.83,-0.39c-0.52,-0.26,-0.95,-0.64,-1.3,-1.13c-0.34,-0.49,-0.6,-1.08,-0.78,-1.78c-0.17,-0.69,-0.26,-1.47,-0.26,-2.34c0,-1,0.09,-1.89,0.29,-2.67c0.19,-0.77,0.47,-1.42,0.85,-1.94c0.37,-0.52,0.82,-0.92,1.35,-1.19c0.53,-0.27,1.13,-0.4,1.8,-0.4c0.41,0,0.79,0.04,1.15,0.12c0.35,0.08,0.68,0.22,0.97,0.41c0.29,0.19,0.55,0.44,0.77,0.75c0.22,0.31,0.39,0.69,0.52,1.15l-1.46,0.26c-0.15,-0.51,-0.41,-0.89,-0.76,-1.12c-0.35,-0.23,-0.75,-0.34,-1.21,-0.34c-0.42,0,-0.8,0.09,-1.14,0.29c-0.34,0.19,-0.63,0.48,-0.87,0.86c-0.23,0.38,-0.42,0.85,-0.55,1.41c-0.12,0.56,-0.19,1.2,-0.19,1.94c0.27,-0.51,0.67,-0.91,1.17,-1.18c0.5,-0.27,1.08,-0.4,1.74,-0.4c0.54,0,1.04,0.08,1.49,0.26c0.44,0.17,0.82,0.42,1.14,0.75c0.31,0.32,0.55,0.71,0.73,1.17c0.17,0.45,0.25,0.96,0.25,1.52m-1.56,0.06c0,-0.38,-0.05,-0.73,-0.15,-1.05c-0.1,-0.31,-0.25,-0.59,-0.46,-0.82c-0.2,-0.22,-0.45,-0.4,-0.76,-0.53c-0.3,-0.12,-0.65,-0.19,-1.05,-0.19c-0.27,0,-0.56,0.04,-0.84,0.14c-0.28,0.09,-0.54,0.23,-0.77,0.41c-0.23,0.18,-0.41,0.41,-0.56,0.69c-0.14,0.27,-0.21,0.6,-0.21,0.97c0,0.4,0.05,0.79,0.17,1.16c0.11,0.36,0.27,0.69,0.49,0.97c0.21,0.27,0.47,0.49,0.77,0.66c0.3,0.16,0.64,0.24,1.01,0.24c0.36,0,0.7,-0.06,0.99,-0.19c0.29,-0.12,0.54,-0.3,0.74,-0.54c0.2,-0.23,0.36,-0.51,0.47,-0.84c0.1,-0.33,0.16,-0.69,0.16,-1.09" fill="#000000" stroke="none" fill-opacity="1"/>
<path d="m435.67,487.72c0,0.47,-0.08,0.92,-0.24,1.33c-0.16,0.41,-0.41,0.77,-0.74,1.08c-0.33,0.3,-0.75,0.54,-1.27,0.72c-0.51,0.17,-1.12,0.26,-1.84,0.26c-0.7,0,-1.31,-0.08,-1.83,-0.26c-0.51,-0.17,-0.94,-0.41,-1.28,-0.71c-0.33,-0.3,-0.58,-0.66,-0.75,-1.07c-0.16,-0.41,-0.24,-0.85,-0.24,-1.32c0,-0.4,0.06,-0.77,0.2,-1.09c0.13,-0.32,0.31,-0.61,0.53,-0.85c0.22,-0.23,0.48,-0.43,0.76,-0.58c0.28,-0.14,0.58,-0.24,0.89,-0.29l0,-0.03c-0.33,-0.08,-0.63,-0.2,-0.9,-0.38c-0.26,-0.17,-0.48,-0.38,-0.66,-0.62c-0.17,-0.23,-0.31,-0.5,-0.41,-0.78c-0.09,-0.28,-0.14,-0.57,-0.14,-0.88c0,-0.38,0.08,-0.75,0.24,-1.11c0.16,-0.35,0.4,-0.67,0.72,-0.94c0.31,-0.27,0.71,-0.49,1.18,-0.65c0.47,-0.16,1.01,-0.24,1.64,-0.24c0.65,0,1.22,0.08,1.7,0.24c0.48,0.16,0.87,0.38,1.19,0.65c0.31,0.27,0.55,0.58,0.7,0.94c0.15,0.35,0.23,0.73,0.23,1.11c0,0.29,-0.04,0.58,-0.14,0.87c-0.09,0.28,-0.23,0.54,-0.41,0.78c-0.17,0.23,-0.4,0.44,-0.66,0.61c-0.26,0.17,-0.57,0.29,-0.91,0.36l0,0.03c0.34,0.05,0.67,0.15,0.96,0.31c0.29,0.15,0.55,0.34,0.77,0.58c0.21,0.23,0.39,0.52,0.51,0.84c0.12,0.32,0.18,0.68,0.18,1.08m-1.89,-5.41c0,-0.26,-0.03,-0.51,-0.11,-0.75c-0.07,-0.23,-0.2,-0.43,-0.38,-0.6c-0.17,-0.17,-0.4,-0.3,-0.69,-0.4c-0.28,-0.09,-0.63,-0.14,-1.05,-0.14c-0.39,0,-0.73,0.04,-1.02,0.14c-0.28,0.09,-0.51,0.23,-0.69,0.4c-0.17,0.17,-0.3,0.37,-0.38,0.6c-0.07,0.23,-0.11,0.48,-0.11,0.75c0,0.21,0.03,0.43,0.09,0.66c0.06,0.23,0.17,0.44,0.34,0.64c0.16,0.19,0.39,0.35,0.68,0.48c0.29,0.12,0.66,0.19,1.11,0.19c0.48,0,0.87,-0.06,1.17,-0.19c0.29,-0.13,0.51,-0.29,0.67,-0.49c0.15,-0.19,0.25,-0.41,0.3,-0.64c0.04,-0.23,0.07,-0.45,0.07,-0.65m0.29,5.27c0,-0.25,-0.03,-0.51,-0.11,-0.76c-0.07,-0.25,-0.21,-0.48,-0.41,-0.68c-0.19,-0.2,-0.45,-0.36,-0.78,-0.49c-0.32,-0.12,-0.73,-0.18,-1.22,-0.18c-0.45,0,-0.83,0.06,-1.14,0.18c-0.31,0.12,-0.57,0.29,-0.76,0.49c-0.19,0.2,-0.34,0.43,-0.43,0.69c-0.09,0.25,-0.13,0.51,-0.13,0.78c0,0.33,0.04,0.64,0.13,0.93c0.09,0.28,0.23,0.53,0.43,0.74c0.19,0.21,0.46,0.37,0.78,0.49c0.32,0.11,0.71,0.17,1.17,0.17c0.47,0,0.86,-0.05,1.18,-0.17c0.31,-0.11,0.57,-0.28,0.76,-0.49c0.19,-0.21,0.33,-0.46,0.41,-0.76c0.08,-0.29,0.12,-0.61,0.12,-0.96" fill="#000000" stroke="none" fill-opacity="1"/>
<path d="m511.83,490.95l0,-1.23l3.75,0l0,-8.72c-0.1,0.22,-0.29,0.44,-0.57,0.64c-0.27,0.2,-0.58,0.37,-0.94,0.52c-0.35,0.14,-0.73,0.26,-1.14,0.35c-0.4,0.08,-0.79,0.13,-1.17,0.13l0,-1.26c0.42,0,0.83,-0.04,1.24,-0.14c0.4,-0.09,0.78,-0.23,1.14,-0.4c0.35,-0.17,0.66,-0.38,0.93,-0.61c0.27,-0.23,0.48,-0.5,0.63,-0.78l1.41,0l0,10.28l3.01,0l0,1.23l-8.31,0m18.58,-5.76c0,1.11,-0.1,2.04,-0.32,2.79c-0.21,0.75,-0.51,1.36,-0.89,1.83c-0.37,0.46,-0.82,0.8,-1.33,1c-0.51,0.2,-1.06,0.3,-1.64,0.3c-0.58,0,-1.13,-0.1,-1.63,-0.3c-0.5,-0.2,-0.94,-0.53,-1.32,-0.99c-0.37,-0.46,-0.66,-1.07,-0.88,-1.83c-0.21,-0.75,-0.32,-1.69,-0.32,-2.8c0,-1.16,0.1,-2.12,0.32,-2.88c0.21,-0.76,0.5,-1.37,0.88,-1.82c0.37,-0.45,0.82,-0.77,1.33,-0.95c0.51,-0.18,1.07,-0.27,1.67,-0.27c0.57,0,1.11,0.09,1.62,0.27c0.5,0.18,0.94,0.49,1.31,0.95c0.37,0.45,0.67,1.06,0.88,1.82c0.21,0.76,0.32,1.72,0.32,2.88m-1.56,0c0,-0.9,-0.05,-1.66,-0.17,-2.26c-0.11,-0.6,-0.28,-1.08,-0.5,-1.44c-0.22,-0.35,-0.49,-0.61,-0.81,-0.76c-0.32,-0.14,-0.68,-0.22,-1.09,-0.22c-0.43,0,-0.81,0.07,-1.14,0.22c-0.33,0.15,-0.6,0.4,-0.83,0.76c-0.22,0.35,-0.39,0.83,-0.5,1.43c-0.11,0.6,-0.17,1.35,-0.17,2.26c0,0.87,0.05,1.61,0.17,2.21c0.11,0.59,0.28,1.07,0.51,1.44c0.22,0.36,0.49,0.62,0.82,0.78c0.32,0.15,0.69,0.23,1.11,0.23c0.4,0,0.77,-0.07,1.09,-0.23c0.32,-0.15,0.59,-0.42,0.82,-0.78c0.22,-0.36,0.39,-0.84,0.52,-1.44c0.12,-0.59,0.18,-1.33,0.18,-2.21m-3.62,1.02l0,-2.12l2,0l0,2.12l-2,0" fill="#000000" stroke="none" fill-opacity="1"/>
</g>
<g fill="none" stroke-linecap="butt" stroke-width="0.62">
<path d="M524.4,471.25l0,-464.17"/>
<path d="M524.4,437.08l-3.75,0M524.4,400.94l-3.75,0M524.4,364.79l-3.75,0M524.4,328.65l-3.75,0M524.4,292.51l-3.75,0M524.4,256.36l-3.75,0M524.4,220.22l-3.75,0M524.4,184.08l-3.75,0M524.4,147.94l-3.75,0M524.4,111.79l-3.75,0M524.4,75.65l-3.75,0M524.4,39.51l-3.75,0"/>
<path d="M524.4,400.94l-7.5,0M524.4,328.65l-7.5,0M524.4,256.36l-7.5,0M524.4,184.08l-7.5,0M524.4,111.79l-7.5,0M524.4,39.51l-7.5,0"/>
<path d="M60.23,7.08l464.17,0"/>
<path d="M60.23,7.08l0,3.75M83.44,7.08l0,3.75M106.65,7.08l0,3.75M129.86,7.08l0,3.75M153.07,7.08l0,3.75M176.27,7.08l0,3.75M199.48,7.08l0,3.75M222.69,7.08l0,3.75M245.9,7.08l0,3.75M269.11,7.08l0,3.75M292.32,7.08l0,3.75M315.53,7.08l0,3.75M338.74,7.08l0,3.75M361.94,7.08l0,3.75M385.15,7.08l0,3.75M408.36,7.08l0,3.75M431.57,7.08l0,3.75M454.78,7.08l0,3.75M477.99,7.08l0,3.75M501.2,7.08l0,3.75M524.4,7.08l0,3.75"/>
<path d="M60.23,7.08l0,7.5M153.07,7.08l0,7.5M245.9,7.08l0,7.5M338.74,7.08l0,7.5M431.57,7.08l0,7.5M524.4,7.08l0,7.5"/>
</g>
</g>
</g>
</svg>
