<?xml version="1.0" standalone="no"?>
<!DOCTYPE svg PUBLIC "-//W3C//DTD SVG 1.1//EN" 
  "http://www.w3.org/Graphics/SVG/1.1/DTD/svg11.dtd">
<svg width="533.49px" height="533.49px" version="1.1"
     xmlns="http://www.w3.org/2000/svg"
     xmlns:xlink="http://www.w3.org/1999/xlink">
<desc>Veusz output document</desc>
<g stroke-linejoin="bevel" stroke-linecap="square" stroke="#000000" fill-rule="evenodd">
<g clip-path="url(#c0)">
<g stroke-width="0.62" fill="#ffffff">
<path d="m60.46,7.11l465.91,0l0,465.91l-465.91,0l0,-465.91"/>
</g>
<g stroke="none" stroke-width="1" fill="#ffffff">
<path d="m379.81,393.03l126.57,0l0,60l-126.57,0l0,-60"/>
</g>
<g stroke-width="0.62" fill="none">
<path d="m379.81,393.03l126.57,0l0,60l-126.57,0l0,-60"/>
</g>
</g>
<g clip-path="url(#c1)">
<g stroke-width="0.62" fill="none">
<path d="M417.59,405.03l0,16"/>
<path d="M417.59,413.03l0,0"/>
</g>
<g stroke-linejoin="miter" stroke-width="0.62" transform="translate(417.59, 413.03)" fill="#ff0000">
<path d="m3.75,0c0,2.07,-1.68,3.75,-3.75,3.75c-2.07,0,-3.75,-1.68,-3.75,-3.75c0,-2.07,1.68,-3.75,3.75,-3.75c2.07,0,3.75,1.68,3.75,3.75"/>
</g>
</g>
<g clip-path="url(#c0)">
<g stroke-width="1" fill="none">
<path d="m461.45,418.14c-0.39,0.4,-0.76,0.68,-1.12,0.85c-0.36,0.17,-0.76,0.26,-1.17,0.26c-0.85,0,-1.6,-0.36,-2.24,-1.07c-0.64,-0.71,-0.96,-1.63,-0.96,-2.76c0,-1.11,0.35,-2.14,1.06,-3.07c0.71,-0.93,1.61,-1.4,2.72,-1.4c0.7,0,1.27,0.22,1.72,0.66l0,-1.45c0,-0.89,-0.02,-1.43,-0.06,-1.64c-0.04,-0.21,-0.11,-0.35,-0.2,-0.42c-0.09,-0.07,-0.21,-0.11,-0.34,-0.11c-0.15,0,-0.34,0.05,-0.59,0.14l-0.11,-0.3l2.33,-0.97l0.39,0l0,9.05c0,0.93,0.02,1.49,0.06,1.69c0.04,0.2,0.11,0.34,0.2,0.42c0.09,0.08,0.2,0.12,0.33,0.12c0.16,0,0.36,-0.05,0.62,-0.16l0.09,0.31l-2.33,0.95l-0.39,0l0,-1.11m0,-0.61l0,-4.03c-0.03,-0.39,-0.13,-0.74,-0.3,-1.05c-0.17,-0.32,-0.4,-0.56,-0.68,-0.72c-0.28,-0.16,-0.56,-0.24,-0.83,-0.24c-0.5,0,-0.95,0.22,-1.34,0.67c-0.52,0.59,-0.78,1.46,-0.78,2.59c0,1.16,0.25,2.04,0.76,2.65c0.51,0.61,1.07,0.91,1.68,0.91c0.51,0,1.01,-0.26,1.5,-0.78m7.91,0.36c-0.8,0.61,-1.31,0.97,-1.52,1.08c-0.3,0.14,-0.63,0.2,-0.98,0.2c-0.54,0,-0.99,-0.18,-1.34,-0.55c-0.35,-0.37,-0.52,-0.86,-0.52,-1.46c0,-0.37,0.08,-0.7,0.25,-0.98c0.24,-0.39,0.65,-0.75,1.23,-1.09c0.58,-0.34,1.54,-0.76,2.88,-1.25l0,-0.31c0,-0.78,-0.12,-1.32,-0.37,-1.6c-0.25,-0.29,-0.61,-0.43,-1.08,-0.43c-0.36,0,-0.65,0.09,-0.86,0.28c-0.22,0.2,-0.33,0.42,-0.33,0.67l0.02,0.5c0,0.26,-0.07,0.46,-0.2,0.6c-0.13,0.14,-0.3,0.21,-0.52,0.21c-0.21,0,-0.38,-0.07,-0.52,-0.22c-0.14,-0.15,-0.2,-0.35,-0.2,-0.61c0,-0.49,0.25,-0.94,0.75,-1.35c0.5,-0.41,1.2,-0.62,2.11,-0.62c0.7,0,1.27,0.12,1.72,0.36c0.33,0.18,0.58,0.45,0.73,0.83c0.1,0.24,0.16,0.74,0.16,1.5l0,2.66c0,0.75,0.02,1.21,0.05,1.37c0.03,0.17,0.08,0.28,0.14,0.34c0.06,0.06,0.14,0.09,0.22,0.09c0.09,0,0.18,-0.02,0.25,-0.06c0.11,-0.07,0.34,-0.28,0.69,-0.62l0,0.48c-0.64,0.85,-1.24,1.28,-1.83,1.28c-0.28,0,-0.51,-0.1,-0.67,-0.29c-0.17,-0.19,-0.25,-0.52,-0.25,-0.99m0,-0.56l0,-2.98c-0.86,0.34,-1.42,0.59,-1.67,0.73c-0.45,0.25,-0.77,0.51,-0.96,0.78c-0.19,0.27,-0.29,0.57,-0.29,0.91c0,0.41,0.12,0.74,0.37,1.02c0.24,0.27,0.52,0.41,0.84,0.41c0.44,0,1.01,-0.29,1.72,-0.86m5.83,-8.72l0,2.58l1.84,0l0,0.59l-1.84,0l0,5.08c0,0.51,0.07,0.85,0.22,1.03c0.15,0.18,0.33,0.27,0.56,0.27c0.19,0,0.37,-0.06,0.55,-0.18c0.18,-0.12,0.31,-0.29,0.41,-0.52l0.34,0c-0.2,0.56,-0.48,0.98,-0.84,1.27c-0.36,0.28,-0.74,0.42,-1.14,0.42c-0.26,0,-0.52,-0.07,-0.77,-0.22c-0.25,-0.15,-0.43,-0.35,-0.55,-0.62c-0.12,-0.27,-0.18,-0.69,-0.18,-1.25l0,-5.27l-1.23,0l0,-0.28c0.31,-0.12,0.63,-0.34,0.96,-0.63c0.33,-0.3,0.62,-0.65,0.88,-1.07c0.12,-0.21,0.31,-0.6,0.55,-1.19l0.25,0m7.17,9.28c-0.8,0.61,-1.31,0.97,-1.52,1.08c-0.3,0.14,-0.63,0.2,-0.98,0.2c-0.54,0,-0.99,-0.18,-1.34,-0.55c-0.35,-0.37,-0.52,-0.86,-0.52,-1.46c0,-0.37,0.08,-0.7,0.25,-0.98c0.24,-0.39,0.65,-0.75,1.23,-1.09c0.58,-0.34,1.54,-0.76,2.88,-1.25l0,-0.31c0,-0.78,-0.12,-1.32,-0.37,-1.6c-0.25,-0.29,-0.61,-0.43,-1.08,-0.43c-0.36,0,-0.65,0.09,-0.86,0.28c-0.22,0.2,-0.33,0.42,-0.33,0.67l0.02,0.5c0,0.26,-0.07,0.46,-0.2,0.6c-0.13,0.14,-0.3,0.21,-0.52,0.21c-0.21,0,-0.38,-0.07,-0.52,-0.22c-0.14,-0.15,-0.2,-0.35,-0.2,-0.61c0,-0.49,0.25,-0.94,0.75,-1.35c0.5,-0.41,1.2,-0.62,2.11,-0.62c0.7,0,1.27,0.12,1.72,0.36c0.33,0.18,0.58,0.45,0.73,0.83c0.1,0.24,0.16,0.74,0.16,1.5l0,2.66c0,0.75,0.02,1.21,0.05,1.37c0.03,0.17,0.08,0.28,0.14,0.34c0.06,0.06,0.14,0.09,0.22,0.09c0.09,0,0.18,-0.02,0.25,-0.06c0.11,-0.07,0.34,-0.28,0.69,-0.62l0,0.48c-0.64,0.85,-1.24,1.28,-1.83,1.28c-0.28,0,-0.51,-0.1,-0.67,-0.29c-0.17,-0.19,-0.25,-0.52,-0.25,-0.99m0,-0.56l0,-2.98c-0.86,0.34,-1.42,0.59,-1.67,0.73c-0.45,0.25,-0.77,0.51,-0.96,0.78c-0.19,0.27,-0.29,0.57,-0.29,0.91c0,0.41,0.12,0.74,0.37,1.02c0.24,0.27,0.52,0.41,0.84,0.41c0.44,0,1.01,-0.29,1.72,-0.86" fill="#000000" stroke="none" fill-opacity="1"/>
</g>
<g stroke-width="0.62" fill="none">
<path d="M399.81,433.03l35.57,0"/>
</g>
<g stroke-width="1" fill="none">
<path d="m458.98,431.8l0,5.16c0,0.73,0.08,1.19,0.23,1.37c0.21,0.25,0.49,0.37,0.84,0.37l0.72,0l0,0.31l-4.69,0l0,-0.31l0.36,0c0.23,0,0.44,-0.06,0.62,-0.17c0.19,-0.11,0.32,-0.27,0.39,-0.46c0.07,-0.19,0.11,-0.57,0.11,-1.12l0,-5.16l-1.53,0l0,-0.61l1.53,0l0,-0.52c0,-0.78,0.12,-1.44,0.37,-1.98c0.25,-0.54,0.63,-0.98,1.15,-1.31c0.52,-0.33,1.09,-0.5,1.73,-0.5c0.6,0,1.16,0.2,1.66,0.59c0.33,0.25,0.5,0.54,0.5,0.86c0,0.17,-0.08,0.33,-0.23,0.48c-0.15,0.15,-0.31,0.23,-0.48,0.23c-0.14,0,-0.28,-0.05,-0.42,-0.14c-0.15,-0.09,-0.32,-0.29,-0.53,-0.6c-0.21,-0.31,-0.4,-0.52,-0.58,-0.63c-0.18,-0.1,-0.37,-0.16,-0.59,-0.16c-0.26,0,-0.48,0.07,-0.66,0.21c-0.18,0.14,-0.31,0.36,-0.39,0.65c-0.08,0.29,-0.12,1.05,-0.12,2.27l0,0.56l2.02,0l0,0.61l-2.02,0m4.92,-4.94c0.24,0,0.45,0.09,0.62,0.26c0.17,0.17,0.26,0.38,0.26,0.62c0,0.24,-0.09,0.44,-0.26,0.61c-0.17,0.17,-0.38,0.25,-0.62,0.25c-0.24,0,-0.44,-0.08,-0.61,-0.25c-0.17,-0.17,-0.25,-0.37,-0.25,-0.61c0,-0.24,0.08,-0.45,0.25,-0.62c0.17,-0.17,0.37,-0.26,0.61,-0.26m0.72,4.09l0,6.3c0,0.49,0.03,0.82,0.1,0.98c0.07,0.16,0.17,0.28,0.31,0.36c0.14,0.08,0.4,0.12,0.77,0.12l0,0.31l-3.81,0l0,-0.31c0.39,0,0.64,-0.04,0.77,-0.11c0.13,-0.07,0.23,-0.2,0.31,-0.37c0.08,-0.17,0.12,-0.5,0.12,-0.98l0,-3.02c0,-0.85,-0.03,-1.41,-0.08,-1.66c-0.04,-0.18,-0.1,-0.3,-0.19,-0.37c-0.08,-0.07,-0.2,-0.11,-0.34,-0.11c-0.17,0,-0.36,0.04,-0.59,0.12l-0.11,-0.3l2.36,-0.97l0.37,0m3.56,-2.34l0,2.58l1.84,0l0,0.59l-1.84,0l0,5.08c0,0.51,0.07,0.85,0.22,1.03c0.15,0.18,0.33,0.27,0.56,0.27c0.19,0,0.37,-0.06,0.55,-0.18c0.18,-0.12,0.31,-0.29,0.41,-0.52l0.34,0c-0.2,0.56,-0.48,0.98,-0.84,1.27c-0.36,0.28,-0.74,0.42,-1.14,0.42c-0.26,0,-0.52,-0.07,-0.77,-0.22c-0.25,-0.15,-0.43,-0.35,-0.55,-0.62c-0.12,-0.27,-0.18,-0.69,-0.18,-1.25l0,-5.27l-1.23,0l0,-0.28c0.31,-0.12,0.63,-0.34,0.96,-0.63c0.33,-0.3,0.62,-0.65,0.88,-1.07c0.12,-0.21,0.31,-0.6,0.55,-1.19l0.25,0" fill="#000000" stroke="none" fill-opacity="1"/>
</g>
</g>
<g clip-path="url(#c2)">
<g stroke-width="0.62" fill="none">
<polyline fill="none" points="60.46,436.89 69.97,435.5 79.48,434.03 88.99,432.46 98.5,430.8 108,429.03 117.51,427.14 127.02,425.14 136.53,423.02 146.04,420.75 155.55,418.35 165.06,415.8 174.56,413.08 184.07,410.19 193.58,407.12 203.09,403.86 212.6,400.39 222.11,396.7 231.61,392.78 241.12,388.61 250.63,384.18 260.14,379.47 269.65,374.46 279.16,369.14 288.66,363.48 298.17,357.47 307.68,351.08 317.19,344.28 326.7,337.05 336.21,329.37 345.72,321.21 355.22,312.53 364.73,303.3 374.24,293.49 383.75,283.06 393.26,271.98 402.77,260.2 412.27,247.67 421.78,234.35 431.29,220.2 440.8,205.15 450.31,189.15 459.82,172.15 469.33,154.07 478.83,134.85 488.34,114.43 497.85,92.71 507.36,69.62 516.87,45.08 526.38,18.99"/>
</g>
<g stroke-width="0.62" stroke-linecap="butt" fill="none">
<path d="M60.46,435.75l0,-43.99M168.26,462.31l0,-43.99M231.32,413.33l0,-43.99M276.07,473.03l0,-43.99M310.77,379.55l0,-43.99M339.13,355.82l0,-43.99M363.1,332.01l0,-43.99M383.87,346.26l0,-43.99M402.19,299.53l0,-43.99M418.57,283l0,-43.99M433.4,237.47l0,-43.99M446.93,224.18l0,-43.99M459.38,183.33l0,-43.99M470.9,214.2l0,-43.99M481.63,144.76l0,-43.99M491.67,125.99l0,-43.99M501.1,137.01l0,-43.99M509.99,112.88l0,-43.99M518.4,59.88l0,-43.99M526.38,51.1l0,-43.99"/>
</g>
<g stroke-linejoin="miter" stroke-width="0.62" transform="translate(60.46, 413.76)" fill="#ff0000">
<path d="m3.75,0c0,2.07,-1.68,3.75,-3.75,3.75c-2.07,0,-3.75,-1.68,-3.75,-3.75c0,-2.07,1.68,-3.75,3.75,-3.75c2.07,0,3.75,1.68,3.75,3.75"/>
</g>
<g stroke-linejoin="miter" stroke-width="0.62" transform="translate(168.26, 440.31)" fill="#ff0000">
<path d="m3.75,0c0,2.07,-1.68,3.75,-3.75,3.75c-2.07,0,-3.75,-1.68,-3.75,-3.75c0,-2.07,1.68,-3.75,3.75,-3.75c2.07,0,3.75,1.68,3.75,3.75"/>
</g>
<g stroke-linejoin="miter" stroke-width="0.62" transform="translate(231.32, 391.34)" fill="#ff0000">
<path d="m3.75,0c0,2.07,-1.68,3.75,-3.75,3.75c-2.07,0,-3.75,-1.68,-3.75,-3.75c0,-2.07,1.68,-3.75,3.75,-3.75c2.07,0,3.75,1.68,3.75,3.75"/>
</g>
<g stroke-linejoin="miter" stroke-width="0.62" transform="translate(276.07, 451.03)" fill="#ff0000">
<path d="m3.75,0c0,2.07,-1.68,3.75,-3.75,3.75c-2.07,0,-3.75,-1.68,-3.75,-3.75c0,-2.07,1.68,-3.75,3.75,-3.75c2.07,0,3.75,1.68,3.75,3.75"/>
</g>
<g stroke-linejoin="miter" stroke-width="0.62" transform="translate(310.77, 357.55)" fill="#ff0000">
<path d="m3.75,0c0,2.07,-1.68,3.75,-3.75,3.75c-2.07,0,-3.75,-1.68,-3.75,-3.75c0,-2.07,1.68,-3.75,3.75,-3.75c2.07,0,3.75,1.68,3.75,3.75"/>
</g>
<g stroke-linejoin="miter" stroke-width="0.62" transform="translate(339.13, 333.82)" fill="#ff0000">
<path d="m3.75,0c0,2.07,-1.68,3.75,-3.75,3.75c-2.07,0,-3.75,-1.68,-3.75,-3.75c0,-2.07,1.68,-3.75,3.75,-3.75c2.07,0,3.75,1.68,3.75,3.75"/>
</g>
<g stroke-linejoin="miter" stroke-width="0.62" transform="translate(363.1, 310.01)" fill="#ff0000">
<path d="m3.75,0c0,2.07,-1.68,3.75,-3.75,3.75c-2.07,0,-3.75,-1.68,-3.75,-3.75c0,-2.07,1.68,-3.75,3.75,-3.75c2.07,0,3.75,1.68,3.75,3.75"/>
</g>
<g stroke-linejoin="miter" stroke-width="0.62" transform="translate(383.87, 324.27)" fill="#ff0000">
<path d="m3.75,0c0,2.07,-1.68,3.75,-3.75,3.75c-2.07,0,-3.75,-1.68,-3.75,-3.75c0,-2.07,1.68,-3.75,3.75,-3.75c2.07,0,3.75,1.68,3.75,3.75"/>
</g>
<g stroke-linejoin="miter" stroke-width="0.62" transform="translate(402.19, 277.54)" fill="#ff0000">
<path d="m3.75,0c0,2.07,-1.68,3.75,-3.75,3.75c-2.07,0,-3.75,-1.68,-3.75,-3.75c0,-2.07,1.68,-3.75,3.75,-3.75c2.07,0,3.75,1.68,3.75,3.75"/>
</g>
<g stroke-linejoin="miter" stroke-width="0.62" transform="translate(418.57, 261.01)" fill="#ff0000">
<path d="m3.75,0c0,2.07,-1.68,3.75,-3.75,3.75c-2.07,0,-3.75,-1.68,-3.75,-3.75c0,-2.07,1.68,-3.75,3.75,-3.75c2.07,0,3.75,1.68,3.75,3.75"/>
</g>
<g stroke-linejoin="miter" stroke-width="0.62" transform="translate(433.4, 215.48)" fill="#ff0000">
<path d="m3.75,0c0,2.07,-1.68,3.75,-3.75,3.75c-2.07,0,-3.75,-1.68,-3.75,-3.75c0,-2.07,1.68,-3.75,3.75,-3.75c2.07,0,3.75,1.68,3.75,3.75"/>
</g>
<g stroke-linejoin="miter" stroke-width="0.62" transform="translate(446.93, 202.18)" fill="#ff0000">
<path d="m3.75,0c0,2.07,-1.68,3.75,-3.75,3.75c-2.07,0,-3.75,-1.68,-3.75,-3.75c0,-2.07,1.68,-3.75,3.75,-3.75c2.07,0,3.75,1.68,3.75,3.75"/>
</g>
<g stroke-linejoin="miter" stroke-width="0.62" transform="translate(459.38, 161.34)" fill="#ff0000">
<path d="m3.75,0c0,2.07,-1.68,3.75,-3.75,3.75c-2.07,0,-3.75,-1.68,-3.75,-3.75c0,-2.07,1.68,-3.75,3.75,-3.75c2.07,0,3.75,1.68,3.75,3.75"/>
</g>
<g stroke-linejoin="miter" stroke-width="0.62" transform="translate(470.9, 192.21)" fill="#ff0000">
<path d="m3.75,0c0,2.07,-1.68,3.75,-3.75,3.75c-2.07,0,-3.75,-1.68,-3.75,-3.75c0,-2.07,1.68,-3.75,3.75,-3.75c2.07,0,3.75,1.68,3.75,3.75"/>
</g>
<g stroke-linejoin="miter" stroke-width="0.62" transform="translate(481.63, 122.76)" fill="#ff0000">
<path d="m3.75,0c0,2.07,-1.68,3.75,-3.75,3.75c-2.07,0,-3.75,-1.68,-3.75,-3.75c0,-2.07,1.68,-3.75,3.75,-3.75c2.07,0,3.75,1.68,3.75,3.75"/>
</g>
<g stroke-linejoin="miter" stroke-width="0.62" transform="translate(491.67, 104)" fill="#ff0000">
<path d="m3.75,0c0,2.07,-1.68,3.75,-3.75,3.75c-2.07,0,-3.75,-1.68,-3.75,-3.75c0,-2.07,1.68,-3.75,3.75,-3.75c2.07,0,3.75,1.68,3.75,3.75"/>
</g>
<g stroke-linejoin="miter" stroke-width="0.62" transform="translate(501.1, 115.02)" fill="#ff0000">
<path d="m3.75,0c0,2.07,-1.68,3.75,-3.75,3.75c-2.07,0,-3.75,-1.68,-3.75,-3.75c0,-2.07,1.68,-3.75,3.75,-3.75c2.07,0,3.75,1.68,3.75,3.75"/>
</g>
<g stroke-linejoin="miter" stroke-width="0.62" transform="translate(509.99, 90.89)" fill="#ff0000">
<path d="m3.75,0c0,2.07,-1.68,3.75,-3.75,3.75c-2.07,0,-3.75,-1.68,-3.75,-3.75c0,-2.07,1.68,-3.75,3.75,-3.75c2.07,0,3.75,1.68,3.75,3.75"/>
</g>
<g stroke-linejoin="miter" stroke-width="0.62" transform="translate(518.4, 37.89)" fill="#ff0000">
<path d="m3.75,0c0,2.07,-1.68,3.75,-3.75,3.75c-2.07,0,-3.75,-1.68,-3.75,-3.75c0,-2.07,1.68,-3.75,3.75,-3.75c2.07,0,3.75,1.68,3.75,3.75"/>
</g>
<g stroke-linejoin="miter" stroke-width="0.62" transform="translate(526.38, 29.11)" fill="#ff0000">
<path d="m3.75,0c0,2.07,-1.68,3.75,-3.75,3.75c-2.07,0,-3.75,-1.68,-3.75,-3.75c0,-2.07,1.68,-3.75,3.75,-3.75c2.07,0,3.75,1.68,3.75,3.75"/>
</g>
</g>
<g clip-path="url(#c0)">
<g stroke-width="0.62" stroke-linecap="butt" fill="none">
<path d="M60.46,473.03l0,-465.91"/>
<path d="M60.46,458.89l3.75,0M60.46,436.89l3.75,0M60.46,414.9l3.75,0M60.46,392.9l3.75,0M60.46,370.91l3.75,0M60.46,348.91l3.75,0M60.46,326.92l3.75,0M60.46,304.92l3.75,0M60.46,282.93l3.75,0M60.46,260.93l3.75,0M60.46,238.94l3.75,0M60.46,216.95l3.75,0M60.46,194.95l3.75,0M60.46,172.96l3.75,0M60.46,150.96l3.75,0M60.46,128.97l3.75,0M60.46,106.97l3.75,0M60.46,84.98l3.75,0M60.46,62.98l3.75,0M60.46,40.99l3.75,0M60.46,18.99l3.75,0"/>
<path d="M60.46,458.89l7.5,0M60.46,348.91l7.5,0M60.46,238.94l7.5,0M60.46,128.97l7.5,0M60.46,18.99l7.5,0"/>
<path d="M526.38,473.03l0,-465.91"/>
<path d="M526.38,458.89l-3.75,0M526.38,436.89l-3.75,0M526.38,414.9l-3.75,0M526.38,392.9l-3.75,0M526.38,370.91l-3.75,0M526.38,348.91l-3.75,0M526.38,326.92l-3.75,0M526.38,304.92l-3.75,0M526.38,282.93l-3.75,0M526.38,260.93l-3.75,0M526.38,238.94l-3.75,0M526.38,216.95l-3.75,0M526.38,194.95l-3.75,0M526.38,172.96l-3.75,0M526.38,150.96l-3.75,0M526.38,128.97l-3.75,0M526.38,106.97l-3.75,0M526.38,84.98l-3.75,0M526.38,62.98l-3.75,0M526.38,40.99l-3.75,0M526.38,18.99l-3.75,0"/>
<path d="M526.38,458.89l-7.5,0M526.38,348.91l-7.5,0M526.38,238.94l-7.5,0M526.38,128.97l-7.5,0M526.38,18.99l-7.5,0"/>
</g>
<g stroke-width="1" transform="matrix(0 -1 1 0 30.46 298.57)" fill="none">
<path d="m8,-3.87l-4.48,0l-0.78,1.83c-0.2,0.45,-0.3,0.78,-0.3,1c0,0.18,0.09,0.33,0.26,0.47c0.17,0.14,0.53,0.22,1.09,0.27l0,0.31l-3.64,0l0,-0.31c0.48,-0.08,0.79,-0.2,0.94,-0.34c0.29,-0.27,0.61,-0.82,0.97,-1.66l4.08,-9.55l0.3,0l4.03,9.64c0.32,0.78,0.62,1.29,0.88,1.52c0.27,0.23,0.63,0.36,1.1,0.39l0,0.31l-4.56,0l0,-0.31c0.46,-0.02,0.77,-0.1,0.93,-0.23c0.16,-0.14,0.24,-0.3,0.24,-0.48c0,-0.25,-0.11,-0.65,-0.34,-1.19l-0.7,-1.66m-0.23,-0.64l-1.97,-4.67l-2.02,4.67l3.98,0m14.31,3.64c-0.39,0.4,-0.76,0.68,-1.12,0.85c-0.36,0.17,-0.76,0.26,-1.17,0.26c-0.85,0,-1.6,-0.36,-2.24,-1.07c-0.64,-0.71,-0.96,-1.63,-0.96,-2.76c0,-1.11,0.35,-2.14,1.06,-3.07c0.71,-0.93,1.61,-1.4,2.72,-1.4c0.7,0,1.27,0.22,1.72,0.66l0,-1.45c0,-0.89,-0.02,-1.43,-0.06,-1.64c-0.04,-0.21,-0.11,-0.35,-0.2,-0.42c-0.09,-0.07,-0.21,-0.11,-0.34,-0.11c-0.15,0,-0.34,0.05,-0.59,0.14l-0.11,-0.3l2.33,-0.97l0.39,0l0,9.05c0,0.93,0.02,1.49,0.06,1.69c0.04,0.2,0.11,0.34,0.2,0.42c0.09,0.08,0.2,0.12,0.33,0.12c0.16,0,0.36,-0.05,0.62,-0.16l0.09,0.31l-2.33,0.95l-0.39,0l0,-1.11m0,-0.61l0,-4.03c-0.03,-0.39,-0.13,-0.74,-0.3,-1.05c-0.17,-0.32,-0.4,-0.56,-0.68,-0.72c-0.28,-0.16,-0.56,-0.24,-0.83,-0.24c-0.5,0,-0.95,0.22,-1.34,0.67c-0.52,0.59,-0.78,1.46,-0.78,2.59c0,1.16,0.25,2.04,0.76,2.65c0.51,0.61,1.07,0.91,1.68,0.91c0.51,0,1.01,-0.26,1.5,-0.78m10.33,-6.34l0,4.75c0,0.91,0.02,1.46,0.06,1.66c0.04,0.2,0.11,0.34,0.2,0.42c0.09,0.08,0.2,0.12,0.33,0.12c0.18,0,0.38,-0.05,0.61,-0.16l0.11,0.31l-2.33,0.95l-0.39,0l0,-1.66c-0.68,0.73,-1.19,1.19,-1.54,1.37c-0.35,0.19,-0.72,0.28,-1.12,0.28c-0.44,0,-0.82,-0.12,-1.14,-0.37c-0.32,-0.25,-0.55,-0.58,-0.67,-0.98c-0.12,-0.4,-0.19,-0.97,-0.19,-1.7l0,-3.5c0,-0.36,-0.04,-0.62,-0.12,-0.76c-0.08,-0.14,-0.2,-0.25,-0.36,-0.33c-0.16,-0.08,-0.45,-0.12,-0.85,-0.12l0,-0.31l2.75,0l0,5.23c0,0.73,0.12,1.21,0.37,1.44c0.25,0.23,0.56,0.34,0.92,0.34c0.24,0,0.52,-0.08,0.83,-0.23c0.31,-0.15,0.68,-0.45,1.11,-0.88l0,-4.44c0,-0.45,-0.08,-0.75,-0.24,-0.91c-0.16,-0.16,-0.5,-0.24,-1.01,-0.25l0,-0.31l2.66,0m4.28,1.34c0.76,-1.05,1.58,-1.58,2.45,-1.58c0.8,0,1.5,0.34,2.1,1.03c0.6,0.69,0.9,1.62,0.9,2.81c0,1.4,-0.46,2.52,-1.37,3.36c-0.79,0.73,-1.68,1.09,-2.66,1.09c-0.46,0,-0.92,-0.08,-1.39,-0.24c-0.47,-0.16,-0.95,-0.41,-1.44,-0.74l0,-8.11c0,-0.89,-0.02,-1.43,-0.06,-1.64c-0.04,-0.21,-0.11,-0.35,-0.2,-0.42c-0.09,-0.07,-0.21,-0.11,-0.34,-0.11c-0.16,0,-0.35,0.05,-0.59,0.14l-0.12,-0.3l2.36,-0.97l0.37,0l0,5.67m0,0.55l0,4.69c0.29,0.28,0.59,0.49,0.91,0.64c0.31,0.15,0.63,0.22,0.95,0.22c0.52,0,1.01,-0.28,1.45,-0.85c0.45,-0.57,0.67,-1.39,0.67,-2.48c0,-1.01,-0.22,-1.78,-0.67,-2.32c-0.45,-0.54,-0.96,-0.8,-1.53,-0.8c-0.3,0,-0.6,0.08,-0.91,0.23c-0.23,0.11,-0.52,0.34,-0.87,0.67m8.84,-6.22c0.24,0,0.45,0.09,0.62,0.26c0.17,0.17,0.26,0.38,0.26,0.62c0,0.24,-0.09,0.44,-0.26,0.61c-0.17,0.17,-0.38,0.25,-0.62,0.25c-0.24,0,-0.44,-0.08,-0.61,-0.25c-0.17,-0.17,-0.25,-0.37,-0.25,-0.61c0,-0.24,0.08,-0.45,0.25,-0.62c0.17,-0.17,0.37,-0.26,0.61,-0.26m0.72,4.09l0,6.3c0,0.49,0.03,0.82,0.1,0.98c0.07,0.16,0.17,0.28,0.31,0.36c0.14,0.08,0.4,0.12,0.77,0.12l0,0.31l-3.81,0l0,-0.31c0.39,0,0.64,-0.04,0.77,-0.11c0.13,-0.07,0.23,-0.2,0.31,-0.37c0.08,-0.17,0.12,-0.5,0.12,-0.98l0,-3.02c0,-0.85,-0.03,-1.41,-0.08,-1.66c-0.04,-0.18,-0.1,-0.3,-0.19,-0.37c-0.08,-0.07,-0.2,-0.11,-0.34,-0.11c-0.17,0,-0.36,0.04,-0.59,0.12l-0.11,-0.3l2.36,-0.97l0.37,0m5.12,0c1.19,0,2.14,0.45,2.86,1.36c0.6,0.77,0.91,1.65,0.91,2.64c0,0.7,-0.17,1.41,-0.5,2.12c-0.33,0.72,-0.8,1.26,-1.39,1.62c-0.59,0.36,-1.25,0.55,-1.97,0.55c-1.18,0,-2.11,-0.47,-2.81,-1.41c-0.58,-0.79,-0.87,-1.68,-0.87,-2.67c0,-0.71,0.18,-1.42,0.53,-2.13c0.35,-0.71,0.82,-1.24,1.41,-1.58c0.58,-0.34,1.2,-0.51,1.84,-0.51m-0.27,0.56c-0.3,0,-0.6,0.09,-0.91,0.27c-0.3,0.18,-0.55,0.49,-0.74,0.95c-0.19,0.45,-0.29,1.03,-0.29,1.74c0,1.14,0.23,2.11,0.68,2.94c0.45,0.82,1.05,1.23,1.8,1.23c0.55,0,1.01,-0.23,1.36,-0.68c0.35,-0.45,0.53,-1.24,0.53,-2.35c0,-1.39,-0.3,-2.48,-0.89,-3.28c-0.41,-0.54,-0.92,-0.81,-1.55,-0.81m12.3,-0.33l0,4.75c0,0.91,0.02,1.46,0.06,1.66c0.04,0.2,0.11,0.34,0.2,0.42c0.09,0.08,0.2,0.12,0.33,0.12c0.18,0,0.38,-0.05,0.61,-0.16l0.11,0.31l-2.33,0.95l-0.39,0l0,-1.66c-0.68,0.73,-1.19,1.19,-1.54,1.37c-0.35,0.19,-0.72,0.28,-1.12,0.28c-0.44,0,-0.82,-0.12,-1.14,-0.37c-0.32,-0.25,-0.55,-0.58,-0.67,-0.98c-0.12,-0.4,-0.19,-0.97,-0.19,-1.7l0,-3.5c0,-0.36,-0.04,-0.62,-0.12,-0.76c-0.08,-0.14,-0.2,-0.25,-0.36,-0.33c-0.16,-0.08,-0.45,-0.12,-0.85,-0.12l0,-0.31l2.75,0l0,5.23c0,0.73,0.12,1.21,0.37,1.44c0.25,0.23,0.56,0.34,0.92,0.34c0.24,0,0.52,-0.08,0.83,-0.23c0.31,-0.15,0.68,-0.45,1.11,-0.88l0,-4.44c0,-0.45,-0.08,-0.75,-0.24,-0.91c-0.16,-0.16,-0.5,-0.24,-1.01,-0.25l0,-0.31l2.66,0m7.2,-0.23l0,2.67l-0.28,0c-0.22,-0.83,-0.5,-1.4,-0.84,-1.7c-0.34,-0.3,-0.77,-0.45,-1.29,-0.45c-0.41,0,-0.73,0.1,-0.98,0.31c-0.24,0.21,-0.37,0.44,-0.37,0.7c0,0.31,0.09,0.58,0.28,0.81c0.18,0.24,0.54,0.49,1.08,0.75l1.23,0.61c1.16,0.56,1.73,1.3,1.73,2.22c0,0.72,-0.27,1.29,-0.8,1.73c-0.54,0.43,-1.14,0.65,-1.8,0.65c-0.48,0,-1.03,-0.08,-1.64,-0.25c-0.19,-0.06,-0.34,-0.09,-0.45,-0.09c-0.14,0,-0.24,0.08,-0.31,0.23l-0.28,0l0,-2.8l0.28,0c0.16,0.79,0.46,1.39,0.91,1.8c0.45,0.41,0.96,0.61,1.51,0.61c0.4,0,0.72,-0.11,0.97,-0.34c0.25,-0.23,0.37,-0.51,0.37,-0.83c0,-0.4,-0.14,-0.73,-0.41,-1c-0.28,-0.27,-0.83,-0.61,-1.66,-1.02c-0.83,-0.41,-1.37,-0.78,-1.63,-1.11c-0.25,-0.32,-0.37,-0.73,-0.37,-1.23c0,-0.65,0.22,-1.18,0.66,-1.62c0.44,-0.43,1.01,-0.65,1.72,-0.65c0.3,0,0.67,0.07,1.11,0.2c0.29,0.08,0.49,0.12,0.59,0.12c0.08,0,0.15,-0.02,0.2,-0.06c0.05,-0.04,0.11,-0.13,0.19,-0.27l0.28,0" fill="#000000" stroke="none" fill-opacity="1"/>
<path d="m79.8,-7.73c0.19,0.33,0.32,0.64,0.4,0.93c0.08,0.29,0.15,0.85,0.23,1.7l0.37,4.2c0.34,-0.41,0.84,-1.06,1.48,-1.95c0.31,-0.43,0.7,-1.02,1.16,-1.77c0.28,-0.46,0.45,-0.78,0.52,-0.95c0.03,-0.09,0.05,-0.19,0.05,-0.28c0,-0.06,-0.02,-0.11,-0.05,-0.16c-0.04,-0.04,-0.14,-0.09,-0.3,-0.14c-0.17,-0.05,-0.31,-0.15,-0.42,-0.3c-0.11,-0.15,-0.17,-0.31,-0.17,-0.5c0,-0.24,0.07,-0.43,0.2,-0.57c0.14,-0.14,0.31,-0.21,0.52,-0.21c0.25,0,0.46,0.1,0.64,0.31c0.18,0.21,0.27,0.49,0.27,0.86c0,0.45,-0.15,0.96,-0.46,1.54c-0.31,0.58,-0.9,1.47,-1.77,2.66c-0.87,1.2,-1.94,2.51,-3.19,3.92c-0.86,0.97,-1.51,1.58,-1.92,1.84c-0.42,0.26,-0.77,0.38,-1.06,0.38c-0.18,0,-0.33,-0.07,-0.47,-0.2c-0.14,-0.14,-0.2,-0.29,-0.2,-0.47c0,-0.22,0.09,-0.42,0.28,-0.6c0.19,-0.18,0.39,-0.27,0.61,-0.27c0.11,0,0.21,0.03,0.28,0.08c0.04,0.02,0.09,0.1,0.14,0.23c0.05,0.14,0.1,0.22,0.16,0.27c0.03,0.03,0.06,0.05,0.09,0.05c0.04,0,0.1,-0.03,0.19,-0.08c0.31,-0.2,0.68,-0.51,1.09,-0.92c0.54,-0.56,0.95,-1.02,1.22,-1.37l-0.48,-5.42c-0.08,-0.89,-0.2,-1.43,-0.36,-1.62c-0.16,-0.2,-0.42,-0.3,-0.8,-0.3c-0.12,0,-0.34,0.02,-0.64,0.06l-0.08,-0.33l2.5,-0.61" fill="#000000" stroke="none" fill-opacity="1"/>
<path d="m94.98,-1.12c-0.8,0.61,-1.31,0.97,-1.52,1.08c-0.3,0.14,-0.63,0.2,-0.98,0.2c-0.54,0,-0.99,-0.18,-1.34,-0.55c-0.35,-0.37,-0.52,-0.86,-0.52,-1.46c0,-0.37,0.08,-0.7,0.25,-0.98c0.24,-0.39,0.65,-0.75,1.23,-1.09c0.58,-0.34,1.54,-0.76,2.88,-1.25l0,-0.31c0,-0.78,-0.12,-1.32,-0.37,-1.6c-0.25,-0.29,-0.61,-0.43,-1.08,-0.43c-0.36,0,-0.65,0.09,-0.86,0.28c-0.22,0.2,-0.33,0.42,-0.33,0.67l0.02,0.5c0,0.26,-0.07,0.46,-0.2,0.6c-0.13,0.14,-0.3,0.21,-0.52,0.21c-0.21,0,-0.38,-0.07,-0.52,-0.22c-0.14,-0.15,-0.2,-0.35,-0.2,-0.61c0,-0.49,0.25,-0.94,0.75,-1.35c0.5,-0.41,1.2,-0.62,2.11,-0.62c0.7,0,1.27,0.12,1.72,0.36c0.33,0.18,0.58,0.45,0.73,0.83c0.1,0.24,0.16,0.74,0.16,1.5l0,2.66c0,0.75,0.02,1.21,0.05,1.37c0.03,0.17,0.08,0.28,0.14,0.34c0.06,0.06,0.14,0.09,0.22,0.09c0.09,0,0.18,-0.02,0.25,-0.06c0.11,-0.07,0.34,-0.28,0.69,-0.62l0,0.48c-0.64,0.85,-1.24,1.28,-1.83,1.28c-0.28,0,-0.51,-0.1,-0.67,-0.29c-0.17,-0.19,-0.25,-0.52,-0.25,-0.99m0,-0.56l0,-2.98c-0.86,0.34,-1.42,0.59,-1.67,0.73c-0.45,0.25,-0.77,0.51,-0.96,0.78c-0.19,0.27,-0.29,0.57,-0.29,0.91c0,0.41,0.12,0.74,0.37,1.02c0.24,0.27,0.52,0.41,0.84,0.41c0.44,0,1.01,-0.29,1.72,-0.86m3.25,-6.14l3.67,0l0,0.31c-0.23,0,-0.39,0.04,-0.48,0.12c-0.09,0.08,-0.14,0.19,-0.14,0.31c0,0.14,0.1,0.35,0.3,0.64c0.06,0.08,0.16,0.22,0.28,0.42l0.56,0.89l0.64,-0.89c0.41,-0.56,0.61,-0.92,0.61,-1.06c0,-0.12,-0.05,-0.23,-0.14,-0.31c-0.09,-0.08,-0.25,-0.12,-0.47,-0.12l0,-0.31l2.64,0l0,0.31c-0.28,0.02,-0.52,0.1,-0.72,0.23c-0.28,0.2,-0.66,0.62,-1.14,1.27l-1.08,1.42l1.95,2.81c0.48,0.69,0.82,1.1,1.02,1.24c0.2,0.14,0.47,0.22,0.79,0.23l0,0.31l-3.69,0l0,-0.31c0.26,0,0.46,-0.06,0.59,-0.17c0.11,-0.07,0.17,-0.18,0.17,-0.31c0,-0.12,-0.18,-0.45,-0.55,-0.98l-1.16,-1.67l-1.25,1.67c-0.39,0.51,-0.58,0.82,-0.58,0.92c0,0.14,0.07,0.26,0.2,0.37c0.13,0.11,0.32,0.17,0.57,0.18l0,0.31l-2.55,0l0,-0.31c0.2,-0.02,0.37,-0.09,0.53,-0.2c0.22,-0.17,0.58,-0.59,1.09,-1.27l1.64,-2.19l-1.48,-2.16c-0.43,-0.61,-0.76,-1,-0.98,-1.16c-0.23,-0.16,-0.52,-0.23,-0.86,-0.23l0,-0.31m10.3,-4.33c0.24,0,0.45,0.09,0.62,0.26c0.17,0.17,0.26,0.38,0.26,0.62c0,0.24,-0.09,0.44,-0.26,0.61c-0.17,0.17,-0.38,0.25,-0.62,0.25c-0.24,0,-0.44,-0.08,-0.61,-0.25c-0.17,-0.17,-0.25,-0.37,-0.25,-0.61c0,-0.24,0.08,-0.45,0.25,-0.62c0.17,-0.17,0.37,-0.26,0.61,-0.26m0.72,4.09l0,6.3c0,0.49,0.03,0.82,0.1,0.98c0.07,0.16,0.17,0.28,0.31,0.36c0.14,0.08,0.4,0.12,0.77,0.12l0,0.31l-3.81,0l0,-0.31c0.39,0,0.64,-0.04,0.77,-0.11c0.13,-0.07,0.23,-0.2,0.31,-0.37c0.08,-0.17,0.12,-0.5,0.12,-0.98l0,-3.02c0,-0.85,-0.03,-1.41,-0.08,-1.66c-0.04,-0.18,-0.1,-0.3,-0.19,-0.37c-0.08,-0.07,-0.2,-0.11,-0.34,-0.11c-0.17,0,-0.36,0.04,-0.59,0.12l-0.11,-0.3l2.36,-0.97l0.37,0m6.36,0l0,2.67l-0.28,0c-0.22,-0.83,-0.5,-1.4,-0.84,-1.7c-0.34,-0.3,-0.77,-0.45,-1.29,-0.45c-0.41,0,-0.73,0.1,-0.98,0.31c-0.24,0.21,-0.37,0.44,-0.37,0.7c0,0.31,0.09,0.58,0.28,0.81c0.18,0.24,0.54,0.49,1.08,0.75l1.23,0.61c1.16,0.56,1.73,1.3,1.73,2.22c0,0.72,-0.27,1.29,-0.8,1.73c-0.54,0.43,-1.14,0.65,-1.8,0.65c-0.48,0,-1.03,-0.08,-1.64,-0.25c-0.19,-0.06,-0.34,-0.09,-0.45,-0.09c-0.14,0,-0.24,0.08,-0.31,0.23l-0.28,0l0,-2.8l0.28,0c0.16,0.79,0.46,1.39,0.91,1.8c0.45,0.41,0.96,0.61,1.51,0.61c0.4,0,0.72,-0.11,0.97,-0.34c0.25,-0.23,0.37,-0.51,0.37,-0.83c0,-0.4,-0.14,-0.73,-0.41,-1c-0.28,-0.27,-0.83,-0.61,-1.66,-1.02c-0.83,-0.41,-1.37,-0.78,-1.63,-1.11c-0.25,-0.32,-0.37,-0.73,-0.37,-1.23c0,-0.65,0.22,-1.18,0.66,-1.62c0.44,-0.43,1.01,-0.65,1.72,-0.65c0.3,0,0.67,0.07,1.11,0.2c0.29,0.08,0.49,0.12,0.59,0.12c0.08,0,0.15,-0.02,0.2,-0.06c0.05,-0.04,0.11,-0.13,0.19,-0.27l0.28,0" fill="#000000" stroke="none" fill-opacity="1"/>
</g>
<g stroke-width="1" fill="none">
<path d="m49.08,459.16c0,-1.32,0.2,-2.46,0.6,-3.41c0.4,-0.95,0.93,-1.66,1.59,-2.13c0.52,-0.37,1.05,-0.56,1.59,-0.56c0.9,0,1.69,0.45,2.39,1.36c0.89,1.12,1.33,2.65,1.33,4.56c0,1.34,-0.19,2.49,-0.58,3.43c-0.39,0.94,-0.88,1.62,-1.48,2.05c-0.6,0.42,-1.18,0.63,-1.73,0.63c-1.1,0,-2.03,-0.65,-2.77,-1.95c-0.62,-1.1,-0.94,-2.43,-0.94,-3.97m1.69,0.2c0,1.59,0.19,2.9,0.58,3.91c0.33,0.85,0.82,1.28,1.45,1.28c0.31,0,0.63,-0.14,0.96,-0.41c0.33,-0.28,0.58,-0.74,0.76,-1.4c0.26,-0.98,0.39,-2.36,0.39,-4.14c0,-1.32,-0.14,-2.43,-0.41,-3.31c-0.21,-0.65,-0.47,-1.11,-0.8,-1.39c-0.24,-0.19,-0.52,-0.28,-0.84,-0.28c-0.4,0,-0.74,0.18,-1.05,0.53c-0.41,0.47,-0.68,1.21,-0.83,2.23c-0.15,1.02,-0.22,2.01,-0.22,2.99" fill="#000000" stroke="none" fill-opacity="1"/>
<path d="m56.05,343.31l-0.66,1.45l-3.5,0l-0.75,1.56c1.51,0.22,2.7,0.78,3.58,1.69c0.76,0.77,1.14,1.68,1.14,2.73c0,0.6,-0.12,1.17,-0.37,1.69c-0.24,0.52,-0.56,0.96,-0.94,1.33c-0.38,0.36,-0.8,0.66,-1.26,0.87c-0.66,0.31,-1.33,0.47,-2.02,0.47c-0.7,0,-1.2,-0.12,-1.52,-0.35c-0.31,-0.23,-0.47,-0.5,-0.47,-0.79c0,-0.16,0.07,-0.29,0.2,-0.41c0.13,-0.12,0.29,-0.18,0.49,-0.18c0.15,0,0.27,0.02,0.38,0.06c0.11,0.04,0.3,0.16,0.57,0.34c0.43,0.3,0.86,0.45,1.3,0.45c0.67,0,1.25,-0.25,1.76,-0.76c0.51,-0.51,0.76,-1.12,0.76,-1.84c0,-0.71,-0.22,-1.36,-0.67,-1.97c-0.45,-0.6,-1.07,-1.07,-1.86,-1.41c-0.62,-0.26,-1.47,-0.41,-2.55,-0.44l2.22,-4.52l4.16,0" fill="#000000" stroke="none" fill-opacity="1"/>
<path d="m41.5,234.48l2.83,-1.37l0.28,0l0,9.78c0,0.66,0.03,1.06,0.08,1.22c0.05,0.16,0.16,0.28,0.34,0.37c0.17,0.09,0.52,0.14,1.04,0.15l0,0.31l-4.36,0l0,-0.31c0.55,-0.01,0.91,-0.06,1.07,-0.14c0.16,-0.08,0.27,-0.2,0.34,-0.34c0.06,-0.14,0.09,-0.56,0.09,-1.26l0,-6.25c0,-0.84,-0.03,-1.39,-0.09,-1.62c-0.04,-0.18,-0.11,-0.31,-0.22,-0.4c-0.1,-0.09,-0.23,-0.13,-0.37,-0.13c-0.21,0,-0.51,0.09,-0.89,0.27l-0.12,-0.27m7.58,4.73c0,-1.32,0.2,-2.46,0.6,-3.41c0.4,-0.95,0.93,-1.66,1.59,-2.13c0.52,-0.37,1.05,-0.56,1.59,-0.56c0.9,0,1.69,0.45,2.39,1.36c0.89,1.12,1.33,2.65,1.33,4.56c0,1.34,-0.19,2.49,-0.58,3.43c-0.39,0.94,-0.88,1.62,-1.48,2.05c-0.6,0.42,-1.18,0.63,-1.73,0.63c-1.1,0,-2.03,-0.65,-2.77,-1.95c-0.62,-1.1,-0.94,-2.43,-0.94,-3.97m1.69,0.2c0,1.59,0.19,2.9,0.58,3.91c0.33,0.85,0.82,1.28,1.45,1.28c0.31,0,0.63,-0.14,0.96,-0.41c0.33,-0.28,0.58,-0.74,0.76,-1.4c0.26,-0.98,0.39,-2.36,0.39,-4.14c0,-1.32,-0.14,-2.43,-0.41,-3.31c-0.21,-0.65,-0.47,-1.11,-0.8,-1.39c-0.24,-0.19,-0.52,-0.28,-0.84,-0.28c-0.4,0,-0.74,0.18,-1.05,0.53c-0.41,0.47,-0.68,1.21,-0.83,2.23c-0.15,1.02,-0.22,2.01,-0.22,2.99" fill="#000000" stroke="none" fill-opacity="1"/>
<path d="m41.5,124.5l2.83,-1.37l0.28,0l0,9.78c0,0.66,0.03,1.06,0.08,1.22c0.05,0.16,0.16,0.28,0.34,0.37c0.17,0.09,0.52,0.14,1.04,0.15l0,0.31l-4.36,0l0,-0.31c0.55,-0.01,0.91,-0.06,1.07,-0.14c0.16,-0.08,0.27,-0.2,0.34,-0.34c0.06,-0.14,0.09,-0.56,0.09,-1.26l0,-6.25c0,-0.84,-0.03,-1.39,-0.09,-1.62c-0.04,-0.18,-0.11,-0.31,-0.22,-0.4c-0.1,-0.09,-0.23,-0.13,-0.37,-0.13c-0.21,0,-0.51,0.09,-0.89,0.27l-0.12,-0.27m14.55,-1.14l-0.66,1.45l-3.5,0l-0.75,1.56c1.51,0.22,2.7,0.78,3.58,1.69c0.76,0.77,1.14,1.68,1.14,2.73c0,0.6,-0.12,1.17,-0.37,1.69c-0.24,0.52,-0.56,0.96,-0.94,1.33c-0.38,0.36,-0.8,0.66,-1.26,0.87c-0.66,0.31,-1.33,0.47,-2.02,0.47c-0.7,0,-1.2,-0.12,-1.52,-0.35c-0.31,-0.23,-0.47,-0.5,-0.47,-0.79c0,-0.16,0.07,-0.29,0.2,-0.41c0.13,-0.12,0.29,-0.18,0.49,-0.18c0.15,0,0.27,0.02,0.38,0.06c0.11,0.04,0.3,0.16,0.57,0.34c0.43,0.3,0.86,0.45,1.3,0.45c0.67,0,1.25,-0.25,1.76,-0.76c0.51,-0.51,0.76,-1.12,0.76,-1.84c0,-0.71,-0.22,-1.36,-0.67,-1.97c-0.45,-0.6,-1.07,-1.07,-1.86,-1.41c-0.62,-0.26,-1.47,-0.41,-2.55,-0.44l2.22,-4.52l4.16,0" fill="#000000" stroke="none" fill-opacity="1"/>
<path d="m47.48,22.75l-0.81,2.23l-6.84,0l0,-0.31c2.01,-1.83,3.43,-3.33,4.25,-4.49c0.82,-1.16,1.23,-2.23,1.23,-3.2c0,-0.73,-0.23,-1.33,-0.68,-1.8c-0.45,-0.47,-0.99,-0.71,-1.62,-0.71c-0.57,0,-1.09,0.17,-1.54,0.5c-0.45,0.33,-0.78,0.82,-0.99,1.47l-0.33,0c0.15,-1.06,0.51,-1.87,1.1,-2.44c0.59,-0.56,1.33,-0.84,2.21,-0.84c0.94,0,1.72,0.3,2.35,0.91c0.63,0.6,0.95,1.32,0.95,2.14c0,0.58,-0.14,1.17,-0.41,1.75c-0.43,0.93,-1.11,1.91,-2.05,2.94c-1.43,1.55,-2.31,2.48,-2.66,2.8l3.02,0c0.61,0,1.05,-0.02,1.3,-0.06c0.25,-0.04,0.47,-0.13,0.67,-0.27c0.2,-0.14,0.37,-0.34,0.52,-0.6l0.33,0m1.59,-3.48c0,-1.32,0.2,-2.46,0.6,-3.41c0.4,-0.95,0.93,-1.66,1.59,-2.13c0.52,-0.37,1.05,-0.56,1.59,-0.56c0.9,0,1.69,0.45,2.39,1.36c0.89,1.12,1.33,2.65,1.33,4.56c0,1.34,-0.19,2.49,-0.58,3.43c-0.39,0.94,-0.88,1.62,-1.48,2.05c-0.6,0.42,-1.18,0.63,-1.73,0.63c-1.1,0,-2.03,-0.65,-2.77,-1.95c-0.62,-1.1,-0.94,-2.43,-0.94,-3.97m1.69,0.2c0,1.59,0.19,2.9,0.58,3.91c0.33,0.85,0.82,1.28,1.45,1.28c0.31,0,0.63,-0.14,0.96,-0.41c0.33,-0.28,0.58,-0.74,0.76,-1.4c0.26,-0.98,0.39,-2.36,0.39,-4.14c0,-1.32,-0.14,-2.43,-0.41,-3.31c-0.21,-0.65,-0.47,-1.11,-0.8,-1.39c-0.24,-0.19,-0.52,-0.28,-0.84,-0.28c-0.4,0,-0.74,0.18,-1.05,0.53c-0.41,0.47,-0.68,1.21,-0.83,2.23c-0.15,1.02,-0.22,2.01,-0.22,2.99" fill="#000000" stroke="none" fill-opacity="1"/>
</g>
<g stroke-width="0.62" stroke-linecap="butt" fill="none">
<path d="M60.46,473.03l465.91,0"/>
<path d="M168.26,473.03l0,-3.75M231.32,473.03l0,-3.75M276.07,473.03l0,-3.75M310.77,473.03l0,-3.75M339.13,473.03l0,-3.75M363.1,473.03l0,-3.75M383.87,473.03l0,-3.75M402.19,473.03l0,-3.75M526.38,473.03l0,-3.75"/>
<path d="M60.46,473.03l0,-7.5M418.57,473.03l0,-7.5"/>
<path d="M60.46,7.11l465.91,0"/>
<path d="M168.26,7.11l0,3.75M231.32,7.11l0,3.75M276.07,7.11l0,3.75M310.77,7.11l0,3.75M339.13,7.11l0,3.75M363.1,7.11l0,3.75M383.87,7.11l0,3.75M402.19,7.11l0,3.75M526.38,7.11l0,3.75"/>
<path d="M60.46,7.11l0,7.5M418.57,7.11l0,7.5"/>
</g>
<g stroke-width="1" fill="none">
<path d="m234.41,510.14l-4.48,0l-0.78,1.83c-0.2,0.45,-0.3,0.78,-0.3,1c0,0.18,0.09,0.33,0.26,0.47c0.17,0.14,0.53,0.22,1.09,0.27l0,0.31l-3.64,0l0,-0.31c0.48,-0.08,0.79,-0.2,0.94,-0.34c0.29,-0.27,0.61,-0.82,0.97,-1.66l4.08,-9.55l0.3,0l4.03,9.64c0.32,0.78,0.62,1.29,0.88,1.52c0.27,0.23,0.63,0.36,1.1,0.39l0,0.31l-4.56,0l0,-0.31c0.46,-0.02,0.77,-0.1,0.93,-0.23c0.16,-0.14,0.24,-0.3,0.24,-0.48c0,-0.25,-0.11,-0.65,-0.34,-1.19l-0.7,-1.66m-0.23,-0.64l-1.97,-4.67l-2.02,4.67l3.98,0m8.34,-3.31l3.28,0l0,0.31c-0.3,0.02,-0.5,0.08,-0.59,0.16c-0.09,0.09,-0.14,0.21,-0.14,0.37c0,0.18,0.05,0.39,0.14,0.64l1.69,4.5l1.67,-3.66l-0.44,-1.16c-0.14,-0.34,-0.32,-0.58,-0.55,-0.7c-0.12,-0.08,-0.35,-0.14,-0.69,-0.16l0,-0.31l3.72,0l0,0.31c-0.41,0.02,-0.7,0.1,-0.87,0.23c-0.11,0.08,-0.17,0.22,-0.17,0.42c0,0.11,0.03,0.23,0.08,0.36l1.77,4.48l1.66,-4.33c0.11,-0.3,0.17,-0.55,0.17,-0.73c0,-0.1,-0.05,-0.2,-0.16,-0.29c-0.11,-0.09,-0.33,-0.14,-0.66,-0.15l0,-0.31l2.47,0l0,0.31c-0.49,0.07,-0.85,0.41,-1.09,1.02l-2.61,6.73l-0.34,0l-1.97,-5l-2.28,5l-0.31,0l-2.52,-6.58c-0.16,-0.42,-0.32,-0.7,-0.48,-0.84c-0.16,-0.15,-0.41,-0.26,-0.76,-0.33l0,-0.31m17.27,-0.23c1.19,0,2.14,0.45,2.86,1.36c0.6,0.77,0.91,1.65,0.91,2.64c0,0.7,-0.17,1.41,-0.5,2.12c-0.33,0.72,-0.8,1.26,-1.39,1.62c-0.59,0.36,-1.25,0.55,-1.97,0.55c-1.18,0,-2.11,-0.47,-2.81,-1.41c-0.58,-0.79,-0.87,-1.68,-0.87,-2.67c0,-0.71,0.18,-1.42,0.53,-2.13c0.35,-0.71,0.82,-1.24,1.41,-1.58c0.58,-0.34,1.2,-0.51,1.84,-0.51m-0.27,0.56c-0.3,0,-0.6,0.09,-0.91,0.27c-0.3,0.18,-0.55,0.49,-0.74,0.95c-0.19,0.45,-0.29,1.03,-0.29,1.74c0,1.14,0.23,2.11,0.68,2.94c0.45,0.82,1.05,1.23,1.8,1.23c0.55,0,1.01,-0.23,1.36,-0.68c0.35,-0.45,0.53,-1.24,0.53,-2.35c0,-1.39,-0.3,-2.48,-0.89,-3.28c-0.41,-0.54,-0.92,-0.81,-1.55,-0.81m7.72,1.09c0.92,-1.1,1.79,-1.66,2.62,-1.66c0.43,0,0.79,0.11,1.1,0.32c0.31,0.21,0.55,0.57,0.73,1.05c0.14,0.34,0.2,0.87,0.2,1.58l0,3.34c0,0.49,0.04,0.82,0.11,1c0.06,0.15,0.16,0.26,0.3,0.34c0.14,0.08,0.4,0.12,0.77,0.12l0,0.31l-3.87,0l0,-0.31l0.17,0c0.36,0,0.62,-0.05,0.77,-0.16c0.15,-0.11,0.24,-0.27,0.3,-0.49c0.02,-0.08,0.03,-0.35,0.03,-0.8l0,-3.2c0,-0.72,-0.09,-1.24,-0.27,-1.55c-0.18,-0.32,-0.49,-0.48,-0.93,-0.48c-0.68,0,-1.35,0.37,-2.03,1.11l0,4.12c0,0.53,0.03,0.86,0.09,0.98c0.08,0.17,0.19,0.29,0.33,0.36c0.14,0.07,0.42,0.11,0.86,0.11l0,0.31l-3.87,0l0,-0.31l0.17,0c0.4,0,0.66,-0.1,0.8,-0.3c0.14,-0.2,0.21,-0.59,0.21,-1.15l0,-2.91c0,-0.94,-0.02,-1.51,-0.06,-1.72c-0.04,-0.21,-0.11,-0.35,-0.2,-0.42c-0.09,-0.07,-0.21,-0.11,-0.37,-0.11c-0.16,0,-0.34,0.04,-0.56,0.12l-0.12,-0.3l2.36,-0.97l0.36,0l0,1.66m12.25,5.53c-0.39,0.4,-0.76,0.68,-1.12,0.85c-0.36,0.17,-0.76,0.26,-1.17,0.26c-0.85,0,-1.6,-0.36,-2.24,-1.07c-0.64,-0.71,-0.96,-1.63,-0.96,-2.76c0,-1.11,0.35,-2.14,1.06,-3.07c0.71,-0.93,1.61,-1.4,2.72,-1.4c0.7,0,1.27,0.22,1.72,0.66l0,-1.45c0,-0.89,-0.02,-1.43,-0.06,-1.64c-0.04,-0.21,-0.11,-0.35,-0.2,-0.42c-0.09,-0.07,-0.21,-0.11,-0.34,-0.11c-0.15,0,-0.34,0.05,-0.59,0.14l-0.11,-0.3l2.33,-0.97l0.39,0l0,9.05c0,0.93,0.02,1.49,0.06,1.69c0.04,0.2,0.11,0.34,0.2,0.42c0.09,0.08,0.2,0.12,0.33,0.12c0.16,0,0.36,-0.05,0.62,-0.16l0.09,0.31l-2.33,0.95l-0.39,0l0,-1.11m0,-0.61l0,-4.03c-0.03,-0.39,-0.13,-0.74,-0.3,-1.05c-0.17,-0.32,-0.4,-0.56,-0.68,-0.72c-0.28,-0.16,-0.56,-0.24,-0.83,-0.24c-0.5,0,-0.95,0.22,-1.34,0.67c-0.52,0.59,-0.78,1.46,-0.78,2.59c0,1.16,0.25,2.04,0.76,2.65c0.51,0.61,1.07,0.91,1.68,0.91c0.51,0,1.01,-0.26,1.5,-0.78m4.78,-3.39c0,1.16,0.28,2.07,0.84,2.73c0.57,0.66,1.24,0.98,2.02,0.98c0.51,0,0.96,-0.14,1.34,-0.42c0.38,-0.28,0.7,-0.77,0.95,-1.45l0.27,0.17c-0.11,0.78,-0.46,1.49,-1.04,2.13c-0.58,0.64,-1.3,0.96,-2.16,0.96c-0.94,0,-1.74,-0.36,-2.41,-1.09c-0.67,-0.73,-1,-1.71,-1,-2.95c0,-1.33,0.34,-2.37,1.02,-3.12c0.68,-0.75,1.54,-1.12,2.59,-1.12c0.87,0,1.59,0.29,2.16,0.87c0.56,0.58,0.84,1.35,0.84,2.32l-5.41,0m0,-0.5l3.62,0c-0.03,-0.5,-0.09,-0.85,-0.17,-1.06c-0.15,-0.31,-0.36,-0.56,-0.64,-0.74c-0.28,-0.18,-0.58,-0.27,-0.89,-0.27c-0.47,0,-0.89,0.18,-1.27,0.55c-0.37,0.36,-0.59,0.87,-0.66,1.53m8.98,-2.69l0,1.77c0.65,-1.18,1.32,-1.77,2.02,-1.77c0.31,0,0.57,0.1,0.77,0.29c0.2,0.19,0.3,0.41,0.3,0.66c0,0.22,-0.07,0.41,-0.22,0.56c-0.15,0.16,-0.32,0.23,-0.53,0.23c-0.2,0,-0.42,-0.1,-0.67,-0.3c-0.25,-0.2,-0.43,-0.3,-0.55,-0.3c-0.1,0,-0.22,0.06,-0.34,0.17c-0.25,0.23,-0.51,0.61,-0.78,1.16l0,3.75c0,0.44,0.05,0.77,0.16,0.98c0.07,0.16,0.2,0.28,0.39,0.38c0.19,0.1,0.46,0.15,0.81,0.15l0,0.31l-4,0l0,-0.31c0.4,0,0.69,-0.06,0.87,-0.19c0.15,-0.08,0.25,-0.23,0.31,-0.44c0.02,-0.09,0.03,-0.37,0.03,-0.83l0,-3.03c0,-0.91,-0.02,-1.45,-0.05,-1.62c-0.04,-0.18,-0.1,-0.3,-0.2,-0.38c-0.1,-0.08,-0.22,-0.12,-0.37,-0.12c-0.18,0,-0.37,0.04,-0.59,0.12l-0.09,-0.3l2.37,-0.97l0.36,0m6.77,0.84l0,5.16c0,0.73,0.08,1.19,0.23,1.37c0.21,0.25,0.49,0.37,0.84,0.37l0.72,0l0,0.31l-4.69,0l0,-0.31l0.36,0c0.23,0,0.44,-0.06,0.62,-0.17c0.19,-0.11,0.32,-0.27,0.39,-0.46c0.07,-0.19,0.11,-0.57,0.11,-1.12l0,-5.16l-1.53,0l0,-0.61l1.53,0l0,-0.52c0,-0.78,0.12,-1.44,0.37,-1.98c0.25,-0.54,0.63,-0.98,1.15,-1.31c0.52,-0.33,1.09,-0.5,1.73,-0.5c0.6,0,1.16,0.2,1.66,0.59c0.33,0.25,0.5,0.54,0.5,0.86c0,0.17,-0.08,0.33,-0.23,0.48c-0.15,0.15,-0.31,0.23,-0.48,0.23c-0.14,0,-0.28,-0.05,-0.42,-0.14c-0.15,-0.09,-0.32,-0.29,-0.53,-0.6c-0.21,-0.31,-0.4,-0.52,-0.58,-0.63c-0.18,-0.1,-0.37,-0.16,-0.59,-0.16c-0.26,0,-0.48,0.07,-0.66,0.21c-0.18,0.14,-0.31,0.36,-0.39,0.65c-0.08,0.29,-0.12,1.05,-0.12,2.27l0,0.56l2.02,0l0,0.61l-2.02,0m9.8,-0.61l0,4.75c0,0.91,0.02,1.46,0.06,1.66c0.04,0.2,0.11,0.34,0.2,0.42c0.09,0.08,0.2,0.12,0.33,0.12c0.18,0,0.38,-0.05,0.61,-0.16l0.11,0.31l-2.33,0.95l-0.39,0l0,-1.66c-0.68,0.73,-1.19,1.19,-1.54,1.37c-0.35,0.19,-0.72,0.28,-1.12,0.28c-0.44,0,-0.82,-0.12,-1.14,-0.37c-0.32,-0.25,-0.55,-0.58,-0.67,-0.98c-0.12,-0.4,-0.19,-0.97,-0.19,-1.7l0,-3.5c0,-0.36,-0.04,-0.62,-0.12,-0.76c-0.08,-0.14,-0.2,-0.25,-0.36,-0.33c-0.16,-0.08,-0.45,-0.12,-0.85,-0.12l0,-0.31l2.75,0l0,5.23c0,0.73,0.12,1.21,0.37,1.44c0.25,0.23,0.56,0.34,0.92,0.34c0.24,0,0.52,-0.08,0.83,-0.23c0.31,-0.15,0.68,-0.45,1.11,-0.88l0,-4.44c0,-0.45,-0.08,-0.75,-0.24,-0.91c-0.16,-0.16,-0.5,-0.24,-1.01,-0.25l0,-0.31l2.66,0m4.83,-4.33l0,10.39c0,0.49,0.04,0.81,0.11,0.97c0.07,0.16,0.18,0.28,0.33,0.36c0.15,0.08,0.42,0.12,0.83,0.12l0,0.31l-3.83,0l0,-0.31c0.35,0,0.6,-0.04,0.73,-0.11c0.13,-0.07,0.23,-0.2,0.3,-0.37c0.07,-0.17,0.11,-0.5,0.11,-0.98l0,-7.11c0,-0.89,-0.02,-1.43,-0.05,-1.63c-0.04,-0.2,-0.1,-0.34,-0.19,-0.41c-0.09,-0.07,-0.2,-0.11,-0.34,-0.11c-0.15,0,-0.33,0.05,-0.56,0.14l-0.16,-0.3l2.34,-0.97l0.37,0" fill="#000000" stroke="none" fill-opacity="1"/>
<path d="m323.44,506.28c0.28,0.3,0.49,0.6,0.64,0.89c0.09,0.21,0.26,0.74,0.5,1.61l0.75,-1.12c0.2,-0.27,0.44,-0.53,0.73,-0.78c0.29,-0.25,0.54,-0.42,0.76,-0.5c0.14,-0.06,0.29,-0.09,0.45,-0.09c0.24,0,0.43,0.07,0.58,0.2c0.15,0.13,0.22,0.29,0.22,0.48c0,0.22,-0.04,0.37,-0.12,0.45c-0.17,0.14,-0.35,0.2,-0.55,0.2c-0.12,0,-0.26,-0.03,-0.39,-0.08c-0.27,-0.08,-0.45,-0.12,-0.53,-0.12c-0.14,0,-0.3,0.08,-0.48,0.23c-0.35,0.29,-0.78,0.86,-1.27,1.72l0.69,2.94c0.11,0.45,0.21,0.72,0.28,0.8c0.07,0.09,0.15,0.13,0.22,0.13c0.12,0,0.27,-0.06,0.42,-0.19c0.31,-0.27,0.58,-0.61,0.8,-1.03l0.31,0.16c-0.36,0.67,-0.82,1.22,-1.37,1.67c-0.31,0.25,-0.58,0.37,-0.8,0.37c-0.31,0,-0.56,-0.18,-0.75,-0.53c-0.12,-0.23,-0.37,-1.19,-0.75,-2.87c-0.89,1.54,-1.6,2.54,-2.14,2.98c-0.34,0.28,-0.68,0.42,-1,0.42c-0.23,0,-0.44,-0.08,-0.62,-0.25c-0.14,-0.12,-0.2,-0.29,-0.2,-0.5c0,-0.19,0.06,-0.34,0.19,-0.47c0.12,-0.12,0.28,-0.19,0.45,-0.19c0.19,0,0.38,0.09,0.58,0.27c0.16,0.14,0.27,0.2,0.34,0.2c0.07,0,0.16,-0.05,0.27,-0.14c0.27,-0.22,0.64,-0.68,1.1,-1.4c0.46,-0.71,0.76,-1.23,0.9,-1.55c-0.35,-1.39,-0.54,-2.12,-0.56,-2.2c-0.14,-0.36,-0.31,-0.62,-0.52,-0.78c-0.21,-0.16,-0.52,-0.23,-0.93,-0.23c-0.12,0,-0.28,0.01,-0.45,0.02l0,-0.3l2.28,-0.41" fill="#000000" stroke="none" fill-opacity="1"/>
<path d="m338.39,512.89c-0.8,0.61,-1.31,0.97,-1.52,1.08c-0.3,0.14,-0.63,0.2,-0.98,0.2c-0.54,0,-0.99,-0.18,-1.34,-0.55c-0.35,-0.37,-0.52,-0.86,-0.52,-1.46c0,-0.37,0.08,-0.7,0.25,-0.98c0.24,-0.39,0.65,-0.75,1.23,-1.09c0.58,-0.34,1.54,-0.76,2.88,-1.25l0,-0.31c0,-0.78,-0.12,-1.32,-0.37,-1.6c-0.25,-0.29,-0.61,-0.43,-1.08,-0.43c-0.36,0,-0.65,0.09,-0.86,0.28c-0.22,0.2,-0.33,0.42,-0.33,0.67l0.02,0.5c0,0.26,-0.07,0.46,-0.2,0.6c-0.13,0.14,-0.3,0.21,-0.52,0.21c-0.21,0,-0.38,-0.07,-0.52,-0.22c-0.14,-0.15,-0.2,-0.35,-0.2,-0.61c0,-0.49,0.25,-0.94,0.75,-1.35c0.5,-0.41,1.2,-0.62,2.11,-0.62c0.7,0,1.27,0.12,1.72,0.36c0.33,0.18,0.58,0.45,0.73,0.83c0.1,0.24,0.16,0.74,0.16,1.5l0,2.66c0,0.75,0.02,1.21,0.05,1.37c0.03,0.17,0.08,0.28,0.14,0.34c0.06,0.06,0.14,0.09,0.22,0.09c0.09,0,0.18,-0.02,0.25,-0.06c0.11,-0.07,0.34,-0.28,0.69,-0.62l0,0.48c-0.64,0.85,-1.24,1.28,-1.83,1.28c-0.28,0,-0.51,-0.1,-0.67,-0.29c-0.17,-0.19,-0.25,-0.52,-0.25,-0.99m0,-0.56l0,-2.98c-0.86,0.34,-1.42,0.59,-1.67,0.73c-0.45,0.25,-0.77,0.51,-0.96,0.78c-0.19,0.27,-0.29,0.57,-0.29,0.91c0,0.41,0.12,0.74,0.37,1.02c0.24,0.27,0.52,0.41,0.84,0.41c0.44,0,1.01,-0.29,1.72,-0.86m3.25,-6.14l3.67,0l0,0.31c-0.23,0,-0.39,0.04,-0.48,0.12c-0.09,0.08,-0.14,0.19,-0.14,0.31c0,0.14,0.1,0.35,0.3,0.64c0.06,0.08,0.16,0.22,0.28,0.42l0.56,0.89l0.64,-0.89c0.41,-0.56,0.61,-0.92,0.61,-1.06c0,-0.12,-0.05,-0.23,-0.14,-0.31c-0.09,-0.08,-0.25,-0.12,-0.47,-0.12l0,-0.31l2.64,0l0,0.31c-0.28,0.02,-0.52,0.1,-0.72,0.23c-0.28,0.2,-0.66,0.62,-1.14,1.27l-1.08,1.42l1.95,2.81c0.48,0.69,0.82,1.1,1.02,1.24c0.2,0.14,0.47,0.22,0.79,0.23l0,0.31l-3.69,0l0,-0.31c0.26,0,0.46,-0.06,0.59,-0.17c0.11,-0.07,0.17,-0.18,0.17,-0.31c0,-0.12,-0.18,-0.45,-0.55,-0.98l-1.16,-1.67l-1.25,1.67c-0.39,0.51,-0.58,0.82,-0.58,0.92c0,0.14,0.07,0.26,0.2,0.37c0.13,0.11,0.32,0.17,0.57,0.18l0,0.31l-2.55,0l0,-0.31c0.2,-0.02,0.37,-0.09,0.53,-0.2c0.22,-0.17,0.58,-0.59,1.09,-1.27l1.64,-2.19l-1.48,-2.16c-0.43,-0.61,-0.76,-1,-0.98,-1.16c-0.23,-0.16,-0.52,-0.23,-0.86,-0.23l0,-0.31m10.3,-4.33c0.24,0,0.45,0.09,0.62,0.26c0.17,0.17,0.26,0.38,0.26,0.62c0,0.24,-0.09,0.44,-0.26,0.61c-0.17,0.17,-0.38,0.25,-0.62,0.25c-0.24,0,-0.44,-0.08,-0.61,-0.25c-0.17,-0.17,-0.25,-0.37,-0.25,-0.61c0,-0.24,0.08,-0.45,0.25,-0.62c0.17,-0.17,0.37,-0.26,0.61,-0.26m0.72,4.09l0,6.3c0,0.49,0.03,0.82,0.1,0.98c0.07,0.16,0.17,0.28,0.31,0.36c0.14,0.08,0.4,0.12,0.77,0.12l0,0.31l-3.81,0l0,-0.31c0.39,0,0.64,-0.04,0.77,-0.11c0.13,-0.07,0.23,-0.2,0.31,-0.37c0.08,-0.17,0.12,-0.5,0.12,-0.98l0,-3.02c0,-0.85,-0.03,-1.41,-0.08,-1.66c-0.04,-0.18,-0.1,-0.3,-0.19,-0.37c-0.08,-0.07,-0.2,-0.11,-0.34,-0.11c-0.17,0,-0.36,0.04,-0.59,0.12l-0.11,-0.3l2.36,-0.97l0.37,0m6.36,0l0,2.67l-0.28,0c-0.22,-0.83,-0.5,-1.4,-0.84,-1.7c-0.34,-0.3,-0.77,-0.45,-1.29,-0.45c-0.41,0,-0.73,0.1,-0.98,0.31c-0.24,0.21,-0.37,0.44,-0.37,0.7c0,0.31,0.09,0.58,0.28,0.81c0.18,0.24,0.54,0.49,1.08,0.75l1.23,0.61c1.16,0.56,1.73,1.3,1.73,2.22c0,0.72,-0.27,1.29,-0.8,1.73c-0.54,0.43,-1.14,0.65,-1.8,0.65c-0.48,0,-1.03,-0.08,-1.64,-0.25c-0.19,-0.06,-0.34,-0.09,-0.45,-0.09c-0.14,0,-0.24,0.08,-0.31,0.23l-0.28,0l0,-2.8l0.28,0c0.16,0.79,0.46,1.39,0.91,1.8c0.45,0.41,0.96,0.61,1.51,0.61c0.4,0,0.72,-0.11,0.97,-0.34c0.25,-0.23,0.37,-0.51,0.37,-0.83c0,-0.4,-0.14,-0.73,-0.41,-1c-0.28,-0.27,-0.83,-0.61,-1.66,-1.02c-0.83,-0.41,-1.37,-0.78,-1.63,-1.11c-0.25,-0.32,-0.37,-0.73,-0.37,-1.23c0,-0.65,0.22,-1.18,0.66,-1.62c0.44,-0.43,1.01,-0.65,1.72,-0.65c0.3,0,0.67,0.07,1.11,0.2c0.29,0.08,0.49,0.12,0.59,0.12c0.08,0,0.15,-0.02,0.2,-0.06c0.05,-0.04,0.11,-0.13,0.19,-0.27l0.28,0" fill="#000000" stroke="none" fill-opacity="1"/>
<path d="m58,481.56l2.83,-1.37l0.28,0l0,9.78c0,0.66,0.03,1.06,0.08,1.22c0.05,0.16,0.16,0.28,0.34,0.37c0.17,0.09,0.52,0.14,1.04,0.15l0,0.31l-4.36,0l0,-0.31c0.55,-0.01,0.91,-0.06,1.07,-0.14c0.16,-0.08,0.27,-0.2,0.34,-0.34c0.06,-0.14,0.09,-0.56,0.09,-1.26l0,-6.25c0,-0.84,-0.03,-1.39,-0.09,-1.62c-0.04,-0.18,-0.11,-0.31,-0.22,-0.4c-0.1,-0.09,-0.23,-0.13,-0.37,-0.13c-0.21,0,-0.51,0.09,-0.89,0.27l-0.12,-0.27" fill="#000000" stroke="none" fill-opacity="1"/>
<path d="m411.61,481.56l2.83,-1.37l0.28,0l0,9.78c0,0.66,0.03,1.06,0.08,1.22c0.05,0.16,0.16,0.28,0.34,0.37c0.17,0.09,0.52,0.14,1.04,0.15l0,0.31l-4.36,0l0,-0.31c0.55,-0.01,0.91,-0.06,1.07,-0.14c0.16,-0.08,0.27,-0.2,0.34,-0.34c0.06,-0.14,0.09,-0.56,0.09,-1.26l0,-6.25c0,-0.84,-0.03,-1.39,-0.09,-1.62c-0.04,-0.18,-0.11,-0.31,-0.22,-0.4c-0.1,-0.09,-0.23,-0.13,-0.37,-0.13c-0.21,0,-0.51,0.09,-0.89,0.27l-0.12,-0.27m7.58,4.73c0,-1.32,0.2,-2.46,0.6,-3.41c0.4,-0.95,0.93,-1.66,1.59,-2.13c0.52,-0.37,1.05,-0.56,1.59,-0.56c0.9,0,1.69,0.45,2.39,1.36c0.89,1.12,1.33,2.65,1.33,4.56c0,1.34,-0.19,2.49,-0.58,3.43c-0.39,0.94,-0.88,1.62,-1.48,2.05c-0.6,0.42,-1.18,0.63,-1.73,0.63c-1.1,0,-2.03,-0.65,-2.77,-1.95c-0.62,-1.1,-0.94,-2.43,-0.94,-3.97m1.69,0.2c0,1.59,0.19,2.9,0.58,3.91c0.33,0.85,0.82,1.28,1.45,1.28c0.31,0,0.63,-0.14,0.96,-0.41c0.33,-0.28,0.58,-0.74,0.76,-1.4c0.26,-0.98,0.39,-2.36,0.39,-4.14c0,-1.32,-0.14,-2.43,-0.41,-3.31c-0.21,-0.65,-0.47,-1.11,-0.8,-1.39c-0.24,-0.19,-0.52,-0.28,-0.84,-0.28c-0.4,0,-0.74,0.18,-1.05,0.53c-0.41,0.47,-0.68,1.21,-0.83,2.23c-0.15,1.02,-0.22,2.01,-0.22,2.99" fill="#000000" stroke="none" fill-opacity="1"/>
</g>
</g>
</g>
<defs>
<clipPath id="c0"><path d="m0,0l533.49,0l0,533.49l-533.49,0l0,-533.49"/></clipPath>
<clipPath id="c1"><path d="m399.81,403.03l35.57,0l0,20l-35.57,0l0,-20"/></clipPath>
<clipPath id="c2"><path d="m60.46,7.11l465.91,0l0,465.91l-465.91,0l0,-465.91"/></clipPath>
</defs>
</svg>
