<?xml version="1.0" standalone="no"?>
<!DOCTYPE svg PUBLIC "-//W3C//DTD SVG 1.1//EN"
  "http://www.w3.org/Graphics/SVG/1.1/DTD/svg11.dtd">
<svg width="531.49px" height="531.49px" version="1.1"
    xmlns="http://www.w3.org/2000/svg"
    xmlns:xlink="http://www.w3.org/1999/xlink">
<desc>Veusz output document</desc>
<defs>
<clipPath id="c0">
<path d="m0,0l531.49,0l0,531.49l-531.49,0l0,-531.49"/>
</clipPath>
<clipPath id="c1">
<path d="m35.43,7.08l391.18,0l0,391.18l-391.18,0l0,-391.18"/>
</clipPath>
<clipPath id="c2">
<path d="m436.39,7.08l78.23,0l0,391.18l-78.23,0l0,-391.18"/>
</clipPath>
<clipPath id="c3">
<path d="m35.43,408.04l391.18,0l0,78.23l-391.18,0l0,-78.23"/>
</clipPath>
</defs>
<g stroke-linejoin="bevel" stroke-linecap="square" stroke="#000000" fill-rule="evenodd">
<g clip-path="url(#c0)">
<g fill="#ffffff" stroke-width="0.62">
<path d="m35.43,7.08l391.18,0l0,391.18l-391.18,0l0,-391.18"/>
</g>
</g>
<g clip-path="url(#c1)">
<g fill="#000000" stroke="none" stroke-width="1">
<path d="m41.33,396.51l1.96,-1.32l1.96,-1.65l1.96,-1.95l1.96,-2.21l1.96,-2.42l1.96,-2.58l1.96,-2.68l1.96,-2.73l1.96,-2.71l1.96,-2.63l1.96,-2.48l1.96,-2.27l1.96,-2l1.96,-1.67l1.96,-1.28l1.96,-0.84l1.96,-0.35l1.96,0.17l1.96,0.73l1.96,1.31l1.96,1.91l1.96,2.53l1.96,3.14l1.96,3.74l1.96,4.32l1.96,4.87l1.96,5.38l1.96,5.85l1.96,-3.09l1.96,-6.61l1.96,-6.88l1.96,-7.08l1.96,-7.19l1.96,-7.21l1.96,-7.14l1.96,-6.98l1.96,-6.72l1.96,-6.36l1.96,-5.9l1.96,-5.35l1.96,-4.71l1.96,-3.99l1.96,-3.19l1.96,-2.31l1.96,-1.38l1.96,-0.39l1.96,0.64l1.96,1.7l1.96,2.79l1.96,3.88l1.96,4.96l1.96,6.03l1.96,7.07l1.96,8.06l1.96,8.99l1.96,9.85l1.96,10.62l1.96,11.3l1.96,11.88l1.96,0.33l1.96,-12.67l1.96,-12.87l1.96,-12.93l1.96,-12.85l1.96,-12.63l1.96,-12.26l1.96,-11.74l1.96,-11.08l1.96,-10.28l1.96,-9.35l1.96,-8.28l1.96,-7.1l1.96,-5.81l1.96,-4.42l1.96,-2.95l1.96,-1.41l1.96,0.18l1.96,1.81l1.96,3.46l1.96,5.12l1.96,6.76l1.96,8.36l1.96,9.92l1.96,11.4l1.96,12.79l1.96,14.08l1.96,15.24l1.96,16.27l1.96,17.15l1.96,17.86l1.96,10.1l1.96,-18.75l1.96,-18.91l1.96,-18.87l1.96,-18.63l1.96,-18.19l1.96,-17.55l1.96,-16.71l1.96,-15.67l1.96,-14.45l1.96,-13.05l1.96,-11.49l1.96,-9.78l1.96,-7.93l1.96,-5.96l1.96,-3.9l1.96,-1.75l1.96,0.44l1.96,2.67l1.96,4.92l1.96,7.16l1.96,9.36l1.96,11.5l1.96,13.56l1.96,15.51l1.96,17.33l1.96,19l1.96,20.5l1.96,21.81l1.96,22.91l1.96,23.79l1.96,24.44l1.96,-23.1l1.96,-24.99l1.96,-24.89l1.96,-24.52l1.96,-23.89l1.96,-23l1.96,-21.86l1.96,-20.48l1.96,-18.86l1.96,-17.02l1.96,-14.97l1.96,-12.75l1.96,-10.35l1.96,-7.82l1.96,-5.16l1.96,-2.42l1.96,0.38l1.96,3.23l1.96,6.08l1.96,8.9l1.96,11.68l1.96,14.37l1.96,16.95l1.96,19.39l1.96,21.66l1.96,23.74l1.96,25.6l1.96,27.22l1.96,28.58l1.96,29.66l1.96,30.45l1.96,-12.8l1.96,-31.11l1.96,-30.96l1.96,-30.49l1.96,-29.71l1.96,-28.6l1.96,-27.19l1.96,-25.48l1.96,-23.49l1.96,-21.23l1.96,-18.72l1.96,-15.99l1.96,-13.07l1.96,-9.97l1.96,-6.74l1.96,-3.4l1.96,0.01l1.96,3.46l1.96,6.92l1.96,10.35l1.96,13.71l1.96,16.96l1.96,20.08l1.96,23.03l1.96,25.78l1.96,28.28l1.96,30.53l1.96,32.49l1.96,34.13l1.96,35.45l1.96,36.41l1.96,3.82l1.96,-37.24l1.96,-37.08l1.96,-36.55l1.96,-35.63l1.96,-34.34l1.96,-32.69l1.96,-30.68l1.96,-28.34l1.96,-25.68l1.96,-22.73l1.96,-19.52l0,357.12l-391.18,0l1.96,-0.19l1.96,-0.58"/>
</g>
<g fill="none" stroke-width="0.62">
<polyline fill="none" points="35.43,398.26 37.39,398.07 39.36,397.48 41.33,396.51 43.29,395.19 45.26,393.53 47.22,391.57 49.19,389.36 51.15,386.94 53.12,384.35 55.09,381.67 57.05,378.94 59.02,376.23 60.98,373.6 62.95,371.11 64.91,368.84 66.88,366.83 68.85,365.16 70.81,363.88 72.78,363.04 74.74,362.68 76.71,362.85 78.67,363.58 80.64,364.9 82.61,366.82 84.57,369.35 86.54,372.49 88.5,376.23 90.47,380.56 92.43,385.43 94.4,390.82 96.37,396.68 98.33,393.58 100.3,386.97 102.26,380.08 104.23,373 106.19,365.8 108.16,358.59 110.13,351.44 112.09,344.46 114.06,337.73 116.02,331.37 117.99,325.47 119.95,320.11 121.92,315.39 123.89,311.39 125.85,308.2 127.82,305.88 129.78,304.5 131.75,304.1 133.71,304.74 135.68,306.45 137.65,309.24 139.61,313.12 141.58,318.09 143.54,324.13 145.51,331.2 147.47,339.26 149.44,348.26 151.41,358.11 153.37,368.74 155.34,380.04 157.3,391.92 159.27,392.26 161.24,379.59 163.2,366.72 165.17,353.78 167.13,340.92 169.1,328.28 171.06,316.02 173.03,304.27 175,293.18 176.96,282.89 178.93,273.54 180.89,265.25 182.86,258.15 184.82,252.33 186.79,247.91 188.76,244.95 190.72,243.54 192.69,243.72 194.65,245.54 196.62,249.01 198.58,254.13 200.55,260.89 202.52,269.26 204.48,279.18 206.45,290.59 208.41,303.38 210.38,317.47 212.34,332.71 214.31,348.99 216.28,366.14 218.24,384.01 220.21,394.11 222.17,375.36 224.14,356.44 226.1,337.57 228.07,318.93 230.04,300.73 232,283.17 233.97,266.46 235.93,250.78 237.9,236.32 239.86,223.27 241.83,211.77 243.8,201.98 245.76,194.05 247.73,188.08 249.69,184.18 251.66,182.42 253.62,182.86 255.59,185.54 257.56,190.47 259.52,197.63 261.49,207 263.45,218.51 265.42,232.07 267.38,247.58 269.35,264.91 271.32,283.92 273.28,304.42 275.25,326.23 277.21,349.15 279.18,372.94 281.14,397.39 283.11,374.29 285.08,349.29 287.04,324.4 289.01,299.88 290.97,275.98 292.94,252.98 294.9,231.11 296.87,210.63 298.84,191.77 300.8,174.75 302.77,159.77 304.73,147.02 306.7,136.66 308.67,128.84 310.63,123.67 312.6,121.25 314.56,121.64 316.53,124.87 318.49,130.95 320.46,139.86 322.43,151.54 324.39,165.92 326.36,182.87 328.32,202.27 330.29,223.93 332.25,247.67 334.22,273.28 336.19,300.5 338.15,329.08 340.12,358.74 342.08,389.2 344.05,376.39 346.01,345.28 347.98,314.31 349.95,283.81 351.91,254.1 353.88,225.5 355.84,198.3 357.81,172.81 359.77,149.32 361.74,128.09 363.71,109.36 365.67,93.37 367.64,80.29 369.6,70.31 371.57,63.57 373.53,60.17 375.5,60.18 377.47,63.65 379.43,70.57 381.4,80.92 383.36,94.64 385.33,111.61 387.29,131.69 389.26,154.73 391.23,180.51 393.19,208.8 395.16,239.34 397.12,271.83 399.09,305.97 401.05,341.42 403.02,377.84 404.99,381.67 406.95,344.43 408.92,307.34 410.88,270.78 412.85,235.14 414.81,200.79 416.78,168.1 418.75,137.42 420.71,109.08 422.68,83.39 424.64,60.66 426.61,41.14"/>
</g>
<g fill="none" stroke-width="0.62">
<polyline fill="none" points="392.56,7.08 373.03,9.05 350.3,11.01 324.61,12.98 296.27,14.94 265.59,16.91 232.9,18.88 198.55,20.84 162.91,22.81 126.35,24.77 89.26,26.74 52.02,28.7 55.85,30.67 92.27,32.64 127.72,34.6 161.86,36.57 194.35,38.53 224.89,40.5 253.18,42.46 278.96,44.43 302,46.4 322.09,48.36 339.05,50.33 352.77,52.29 363.12,54.26 370.05,56.22 373.51,58.19 373.52,60.16 370.12,62.12 363.38,64.09 353.4,66.05 340.33,68.02 324.33,69.99 305.6,71.95 284.37,73.92 260.88,75.88 235.39,77.85 208.2,79.81 179.59,81.78 149.88,83.75 119.38,85.71 88.41,87.68 57.3,89.64 44.49,91.61 74.95,93.57 104.61,95.54 133.19,97.51 160.41,99.47 186.02,101.44 209.76,103.4 231.42,105.37 250.82,107.33 267.77,109.3 282.15,111.27 293.83,113.23 302.74,115.2 308.82,117.16 312.05,119.13 312.44,121.09 310.02,123.06 304.85,125.03 297.03,126.99 286.67,128.96 273.92,130.92 258.94,132.89 241.92,134.85 223.06,136.82 202.58,138.79 180.71,140.75 157.71,142.72 133.82,144.68 109.29,146.65 84.4,148.61 59.4,150.58 36.3,152.55 60.75,154.51 84.54,156.48 107.46,158.44 129.27,160.41 149.77,162.37 168.78,164.34 186.11,166.31 201.62,168.27 215.19,170.24 226.69,172.2 236.06,174.17 243.22,176.13 248.15,178.1 250.83,180.07 251.27,182.03 249.51,184 245.61,185.96 239.64,187.93 231.71,189.89 221.92,191.86 210.43,193.83 197.37,195.79 182.91,197.76 167.23,199.72 150.52,201.69 132.96,203.66 114.77,205.62 96.13,207.59 77.25,209.55 58.33,211.52 39.58,213.48 49.68,215.45 67.55,217.42 84.7,219.38 100.98,221.35 116.22,223.31 130.31,225.28 143.1,227.24 154.51,229.21 164.43,231.18 172.8,233.14 179.56,235.11 184.68,237.07 188.15,239.04 189.97,241 190.15,242.97 188.74,244.94 185.78,246.9 181.36,248.87 175.54,250.83 168.44,252.8 160.15,254.76 150.8,256.73 140.51,258.7 129.42,260.66 117.67,262.63 105.41,264.59 92.77,266.56 79.91,268.52 66.97,270.49 54.1,272.46 41.43,274.42 41.77,276.39 53.65,278.35 64.95,280.32 75.58,282.28 85.43,284.25 94.43,286.22 102.49,288.18 109.56,290.15 115.6,292.11 120.57,294.08 124.45,296.04 127.24,298.01 128.95,299.98 129.59,301.94 129.19,303.91 127.81,305.87 125.49,307.84 122.3,309.8 118.3,311.77 113.58,313.74 108.22,315.7 102.32,317.67 95.96,319.63 89.24,321.6 82.25,323.56 75.1,325.53 67.89,327.5 60.69,329.46 53.61,331.43 46.72,333.39 40.11,335.36 37.01,337.32 42.87,339.29 48.26,341.26 53.13,343.22 57.46,345.19 61.2,347.15 64.34,349.12 66.87,351.09 68.79,353.05 70.11,355.02 70.84,356.98 71.01,358.95 70.65,360.91 69.81,362.88 68.53,364.85 66.86,366.81 64.86,368.78 62.58,370.74 60.1,372.71 57.46,374.67 54.75,376.64 52.02,378.61 49.34,380.57 46.75,382.54 44.33,384.5 42.12,386.47 40.16,388.43 38.5,390.4 37.18,392.37 36.21,394.33 35.63,396.3 35.43,398.26"/>
</g>
<g fill="none" stroke-width="0.62">
<polyline fill="none" points="35.43,398.26 37.39,396.3 39.36,394.33 41.33,392.37 43.29,390.4 45.26,388.43 47.22,386.47 49.19,384.5 51.15,382.54 53.12,380.57 55.09,378.61 57.05,376.64 59.02,374.67 60.98,372.71 62.95,370.74 64.91,368.78 66.88,366.81 68.85,364.85 70.81,362.88 72.78,360.91 74.74,358.95 76.71,356.98 78.67,355.02 80.64,353.05 82.61,351.09 84.57,349.12 86.54,347.15 88.5,345.19 90.47,343.22 92.43,341.26 94.4,339.29 96.37,337.32 98.33,335.36 100.3,333.39 102.26,331.43 104.23,329.46 106.19,327.5 108.16,325.53 110.13,323.56 112.09,321.6 114.06,319.63 116.02,317.67 117.99,315.7 119.95,313.74 121.92,311.77 123.89,309.8 125.85,307.84 127.82,305.87 129.78,303.91 131.75,301.94 133.71,299.98 135.68,298.01 137.65,296.04 139.61,294.08 141.58,292.11 143.54,290.15 145.51,288.18 147.47,286.22 149.44,284.25 151.41,282.28 153.37,280.32 155.34,278.35 157.3,276.39 159.27,274.42 161.24,272.46 163.2,270.49 165.17,268.52 167.13,266.56 169.1,264.59 171.06,262.63 173.03,260.66 175,258.7 176.96,256.73 178.93,254.76 180.89,252.8 182.86,250.83 184.82,248.87 186.79,246.9 188.76,244.94 190.72,242.97 192.69,241 194.65,239.04 196.62,237.07 198.58,235.11 200.55,233.14 202.52,231.18 204.48,229.21 206.45,227.24 208.41,225.28 210.38,223.31 212.34,221.35 214.31,219.38 216.28,217.42 218.24,215.45 220.21,213.48 222.17,211.52 224.14,209.55 226.1,207.59 228.07,205.62 230.04,203.66 232,201.69 233.97,199.72 235.93,197.76 237.9,195.79 239.86,193.83 241.83,191.86 243.8,189.89 245.76,187.93 247.73,185.96 249.69,184 251.66,182.03 253.62,180.07 255.59,178.1 257.56,176.13 259.52,174.17 261.49,172.2 263.45,170.24 265.42,168.27 267.38,166.31 269.35,164.34 271.32,162.37 273.28,160.41 275.25,158.44 277.21,156.48 279.18,154.51 281.14,152.55 283.11,150.58 285.08,148.61 287.04,146.65 289.01,144.68 290.97,142.72 292.94,140.75 294.9,138.79 296.87,136.82 298.84,134.85 300.8,132.89 302.77,130.92 304.73,128.96 306.7,126.99 308.67,125.03 310.63,123.06 312.6,121.09 314.56,119.13 316.53,117.16 318.49,115.2 320.46,113.23 322.43,111.27 324.39,109.3 326.36,107.33 328.32,105.37 330.29,103.4 332.25,101.44 334.22,99.47 336.19,97.51 338.15,95.54 340.12,93.57 342.08,91.61 344.05,89.64 346.01,87.68 347.98,85.71 349.95,83.75 351.91,81.78 353.88,79.81 355.84,77.85 357.81,75.88 359.77,73.92 361.74,71.95 363.71,69.99 365.67,68.02 367.64,66.05 369.6,64.09 371.57,62.12 373.53,60.16 375.5,58.19 377.47,56.22 379.43,54.26 381.4,52.29 383.36,50.33 385.33,48.36 387.29,46.4 389.26,44.43 391.23,42.46 393.19,40.5 395.16,38.53 397.12,36.57 399.09,34.6 401.05,32.64 403.02,30.67 404.99,28.7 406.95,26.74 408.92,24.77 410.88,22.81 412.85,20.84 414.81,18.88 416.78,16.91 418.75,14.94 420.71,12.98 422.68,11.01 424.64,9.05 426.61,7.08"/>
</g>
</g>
<g clip-path="url(#c0)">
<g fill="none" stroke-linecap="butt" stroke-width="0.62">
<path d="M35.43,398.26l0,-391.18"/>
<path d="M35.43,398.26l3.75,0M35.43,378.7l3.75,0M35.43,359.14l3.75,0M35.43,339.59l3.75,0M35.43,320.03l3.75,0M35.43,300.47l3.75,0M35.43,280.91l3.75,0M35.43,261.35l3.75,0M35.43,241.79l3.75,0M35.43,222.23l3.75,0M35.43,202.67l3.75,0M35.43,183.11l3.75,0M35.43,163.55l3.75,0M35.43,144l3.75,0M35.43,124.44l3.75,0M35.43,104.88l3.75,0M35.43,85.32l3.75,0M35.43,65.76l3.75,0M35.43,46.2l3.75,0M35.43,26.64l3.75,0M35.43,7.08l3.75,0"/>
<path d="M35.43,398.26l7.5,0M35.43,320.03l7.5,0M35.43,241.79l7.5,0M35.43,163.55l7.5,0M35.43,85.32l7.5,0M35.43,7.08l7.5,0"/>
<path d="M426.61,398.26l0,-391.18"/>
<path d="M426.61,398.26l-3.75,0M426.61,378.7l-3.75,0M426.61,359.14l-3.75,0M426.61,339.59l-3.75,0M426.61,320.03l-3.75,0M426.61,300.47l-3.75,0M426.61,280.91l-3.75,0M426.61,261.35l-3.75,0M426.61,241.79l-3.75,0M426.61,222.23l-3.75,0M426.61,202.67l-3.75,0M426.61,183.11l-3.75,0M426.61,163.55l-3.75,0M426.61,144l-3.75,0M426.61,124.44l-3.75,0M426.61,104.88l-3.75,0M426.61,85.32l-3.75,0M426.61,65.76l-3.75,0M426.61,46.2l-3.75,0M426.61,26.64l-3.75,0M426.61,7.08l-3.75,0"/>
<path d="M426.61,398.26l-7.5,0M426.61,320.03l-7.5,0M426.61,241.79l-7.5,0M426.61,163.55l-7.5,0M426.61,85.32l-7.5,0M426.61,7.08l-7.5,0"/>
</g>
<g fill="none" stroke-width="1">
<g stroke="none" fill="#000000" fill-opacity="1" font-family="Times New Roman" font-size="17.5">
<text x="22.23" y="398.26" textLength="8.8">0</text>
<text x="9.03" y="326.13" textLength="22">0.2</text>
<text x="9.03" y="247.89" textLength="22">0.4</text>
<text x="9.03" y="169.65" textLength="22">0.6</text>
<text x="9.03" y="91.42" textLength="22">0.8</text>
<text x="22.23" y="16.08" textLength="8.8">1</text>
</g>
</g>
<g fill="none" stroke-linecap="butt" stroke-width="0.62">
<path d="M35.43,398.26l391.18,0"/>
<path d="M35.43,398.26l0,-3.75M54.99,398.26l0,-3.75M74.55,398.26l0,-3.75M94.11,398.26l0,-3.75M113.66,398.26l0,-3.75M133.22,398.26l0,-3.75M152.78,398.26l0,-3.75M172.34,398.26l0,-3.75M191.9,398.26l0,-3.75M211.46,398.26l0,-3.75M231.02,398.26l0,-3.75M250.58,398.26l0,-3.75M270.14,398.26l0,-3.75M289.7,398.26l0,-3.75M309.25,398.26l0,-3.75M328.81,398.26l0,-3.75M348.37,398.26l0,-3.75M367.93,398.26l0,-3.75M387.49,398.26l0,-3.75M407.05,398.26l0,-3.75M426.61,398.26l0,-3.75"/>
<path d="M35.43,398.26l0,-7.5M113.66,398.26l0,-7.5M191.9,398.26l0,-7.5M270.14,398.26l0,-7.5M348.37,398.26l0,-7.5M426.61,398.26l0,-7.5"/>
<path d="M35.43,7.08l391.18,0"/>
<path d="M35.43,7.08l0,3.75M54.99,7.08l0,3.75M74.55,7.08l0,3.75M94.11,7.08l0,3.75M113.66,7.08l0,3.75M133.22,7.08l0,3.75M152.78,7.08l0,3.75M172.34,7.08l0,3.75M191.9,7.08l0,3.75M211.46,7.08l0,3.75M231.02,7.08l0,3.75M250.58,7.08l0,3.75M270.14,7.08l0,3.75M289.7,7.08l0,3.75M309.25,7.08l0,3.75M328.81,7.08l0,3.75M348.37,7.08l0,3.75M367.93,7.08l0,3.75M387.49,7.08l0,3.75M407.05,7.08l0,3.75M426.61,7.08l0,3.75"/>
<path d="M35.43,7.08l0,7.5M113.66,7.08l0,7.5M191.9,7.08l0,7.5M270.14,7.08l0,7.5M348.37,7.08l0,7.5M426.61,7.08l0,7.5"/>
</g>
<g fill="#ffffff" stroke-width="0.62">
<path d="m436.39,7.08l78.23,0l0,391.18l-78.23,0l0,-391.18"/>
</g>
</g>
<g clip-path="url(#c2)">
<g fill="none" stroke-width="0.62">
<polyline fill="none" points="507.81,7.08 503.91,9.05 499.36,11.01 494.23,12.98 488.56,14.94 482.42,16.91 475.88,18.88 469.01,20.84 461.88,22.81 454.57,24.77 447.16,26.74 439.71,28.7 440.47,30.67 447.76,32.64 454.85,34.6 461.67,36.57 468.17,38.53 474.28,40.5 479.94,42.46 485.1,44.43 489.7,46.4 493.72,48.36 497.11,50.33 499.86,52.29 501.93,54.26 503.31,56.22 504.01,58.19 504.01,60.16 503.33,62.12 501.98,64.09 499.98,66.05 497.37,68.02 494.17,69.99 490.42,71.95 486.18,73.92 481.48,75.88 476.38,77.85 470.94,79.81 465.22,81.78 459.28,83.75 453.18,85.71 446.99,87.68 440.76,89.64 438.2,91.61 444.29,93.57 450.23,95.54 455.94,97.51 461.39,99.47 466.51,101.44 471.25,103.4 475.59,105.37 479.47,107.33 482.86,109.3 485.73,111.27 488.07,113.23 489.85,115.2 491.07,117.16 491.71,119.13 491.79,121.09 491.31,123.06 490.27,125.03 488.71,126.99 486.64,128.96 484.09,130.92 481.09,132.89 477.69,134.85 473.92,136.82 469.82,138.79 465.45,140.75 460.84,142.72 456.07,144.68 451.16,146.65 446.18,148.61 441.18,150.58 436.56,152.55 441.45,154.51 446.21,156.48 450.79,158.44 455.16,160.41 459.26,162.37 463.06,164.34 466.53,166.31 469.63,168.27 472.34,170.24 474.64,172.2 476.51,174.17 477.95,176.13 478.93,178.1 479.47,180.07 479.56,182.03 479.21,184 478.43,185.96 477.23,187.93 475.64,189.89 473.69,191.86 471.39,193.83 468.78,195.79 465.88,197.76 462.75,199.72 459.41,201.69 455.9,203.66 452.26,205.62 448.53,207.59 444.75,209.55 440.97,211.52 437.22,213.48 439.24,215.45 442.81,217.42 446.24,219.38 449.5,221.35 452.55,223.31 455.36,225.28 457.92,227.24 460.2,229.21 462.19,231.18 463.86,233.14 465.22,235.11 466.24,237.07 466.93,239.04 467.3,241 467.33,242.97 467.05,244.94 466.46,246.9 465.57,248.87 464.41,250.83 462.99,252.8 461.33,254.76 459.46,256.73 457.41,258.7 455.19,260.66 452.84,262.63 450.38,264.59 447.86,266.56 445.29,268.52 442.7,270.49 440.12,272.46 437.59,274.42 437.66,276.39 440.03,278.35 442.29,280.32 444.42,282.28 446.39,284.25 448.19,286.22 449.8,288.18 451.22,290.15 452.42,292.11 453.42,294.08 454.19,296.04 454.75,298.01 455.09,299.98 455.22,301.94 455.14,303.91 454.87,305.87 454.4,307.84 453.76,309.8 452.96,311.77 452.02,313.74 450.95,315.7 449.77,317.67 448.49,319.63 447.15,321.6 445.75,323.56 444.32,325.53 442.88,327.5 441.44,329.46 440.02,331.43 438.65,333.39 437.32,335.36 436.71,337.32 437.88,339.29 438.95,341.26 439.93,343.22 440.79,345.19 441.54,347.15 442.17,349.12 442.68,351.09 443.06,353.05 443.32,355.02 443.47,356.98 443.51,358.95 443.43,360.91 443.27,362.88 443.01,364.85 442.67,366.81 442.27,368.78 441.82,370.74 441.32,372.71 440.8,374.67 440.25,376.64 439.71,378.61 439.17,380.57 438.65,382.54 438.17,384.5 437.73,386.47 437.34,388.43 437,390.4 436.74,392.37 436.55,394.33 436.43,396.3 436.39,398.26"/>
</g>
<g fill="none" stroke-width="0.62">
<polyline fill="none" points="436.39,398.26 436.78,396.3 437.17,394.33 437.57,392.37 437.96,390.4 438.35,388.43 438.75,386.47 439.14,384.5 439.53,382.54 439.93,380.57 440.32,378.61 440.71,376.64 441.11,374.67 441.5,372.71 441.89,370.74 442.29,368.78 442.68,366.81 443.07,364.85 443.47,362.88 443.86,360.91 444.25,358.95 444.64,356.98 445.04,355.02 445.43,353.05 445.82,351.09 446.22,349.12 446.61,347.15 447,345.19 447.4,343.22 447.79,341.26 448.18,339.29 448.58,337.32 448.97,335.36 449.36,333.39 449.76,331.43 450.15,329.46 450.54,327.5 450.94,325.53 451.33,323.56 451.72,321.6 452.11,319.63 452.51,317.67 452.9,315.7 453.29,313.74 453.69,311.77 454.08,309.8 454.47,307.84 454.87,305.87 455.26,303.91 455.65,301.94 456.05,299.98 456.44,298.01 456.83,296.04 457.23,294.08 457.62,292.11 458.01,290.15 458.4,288.18 458.8,286.22 459.19,284.25 459.58,282.28 459.98,280.32 460.37,278.35 460.76,276.39 461.16,274.42 461.55,272.46 461.94,270.49 462.34,268.52 462.73,266.56 463.12,264.59 463.52,262.63 463.91,260.66 464.3,258.7 464.7,256.73 465.09,254.76 465.48,252.8 465.87,250.83 466.27,248.87 466.66,246.9 467.05,244.94 467.45,242.97 467.84,241 468.23,239.04 468.63,237.07 469.02,235.11 469.41,233.14 469.81,231.18 470.2,229.21 470.59,227.24 470.99,225.28 471.38,223.31 471.77,221.35 472.17,219.38 472.56,217.42 472.95,215.45 473.34,213.48 473.74,211.52 474.13,209.55 474.52,207.59 474.92,205.62 475.31,203.66 475.7,201.69 476.1,199.72 476.49,197.76 476.88,195.79 477.28,193.83 477.67,191.86 478.06,189.89 478.46,187.93 478.85,185.96 479.24,184 479.63,182.03 480.03,180.07 480.42,178.1 480.81,176.13 481.21,174.17 481.6,172.2 481.99,170.24 482.39,168.27 482.78,166.31 483.17,164.34 483.57,162.37 483.96,160.41 484.35,158.44 484.75,156.48 485.14,154.51 485.53,152.55 485.93,150.58 486.32,148.61 486.71,146.65 487.1,144.68 487.5,142.72 487.89,140.75 488.28,138.79 488.68,136.82 489.07,134.85 489.46,132.89 489.86,130.92 490.25,128.96 490.64,126.99 491.04,125.03 491.43,123.06 491.82,121.09 492.22,119.13 492.61,117.16 493,115.2 493.39,113.23 493.79,111.27 494.18,109.3 494.57,107.33 494.97,105.37 495.36,103.4 495.75,101.44 496.15,99.47 496.54,97.51 496.93,95.54 497.33,93.57 497.72,91.61 498.11,89.64 498.51,87.68 498.9,85.71 499.29,83.75 499.69,81.78 500.08,79.81 500.47,77.85 500.86,75.88 501.26,73.92 501.65,71.95 502.04,69.99 502.44,68.02 502.83,66.05 503.22,64.09 503.62,62.12 504.01,60.16 504.4,58.19 504.8,56.22 505.19,54.26 505.58,52.29 505.98,50.33 506.37,48.36 506.76,46.4 507.16,44.43 507.55,42.46 507.94,40.5 508.33,38.53 508.73,36.57 509.12,34.6 509.51,32.64 509.91,30.67 510.3,28.7 510.69,26.74 511.09,24.77 511.48,22.81 511.87,20.84 512.27,18.88 512.66,16.91 513.05,14.94 513.45,12.98 513.84,11.01 514.23,9.05 514.62,7.08"/>
</g>
</g>
<g clip-path="url(#c0)">
<g fill="none" stroke-linecap="butt" stroke-width="0.62">
<path d="M436.39,398.26l0,-391.18"/>
<path d="M436.39,398.26l3.75,0M436.39,378.7l3.75,0M436.39,359.14l3.75,0M436.39,339.59l3.75,0M436.39,320.03l3.75,0M436.39,300.47l3.75,0M436.39,280.91l3.75,0M436.39,261.35l3.75,0M436.39,241.79l3.75,0M436.39,222.23l3.75,0M436.39,202.67l3.75,0M436.39,183.11l3.75,0M436.39,163.55l3.75,0M436.39,144l3.75,0M436.39,124.44l3.75,0M436.39,104.88l3.75,0M436.39,85.32l3.75,0M436.39,65.76l3.75,0M436.39,46.2l3.75,0M436.39,26.64l3.75,0M436.39,7.08l3.75,0"/>
<path d="M436.39,398.26l7.5,0M436.39,320.03l7.5,0M436.39,241.79l7.5,0M436.39,163.55l7.5,0M436.39,85.32l7.5,0M436.39,7.08l7.5,0"/>
<path d="M514.62,398.26l0,-391.18"/>
<path d="M514.62,398.26l-3.75,0M514.62,378.7l-3.75,0M514.62,359.14l-3.75,0M514.62,339.59l-3.75,0M514.62,320.03l-3.75,0M514.62,300.47l-3.75,0M514.62,280.91l-3.75,0M514.62,261.35l-3.75,0M514.62,241.79l-3.75,0M514.62,222.23l-3.75,0M514.62,202.67l-3.75,0M514.62,183.11l-3.75,0M514.62,163.55l-3.75,0M514.62,144l-3.75,0M514.62,124.44l-3.75,0M514.62,104.88l-3.75,0M514.62,85.32l-3.75,0M514.62,65.76l-3.75,0M514.62,46.2l-3.75,0M514.62,26.64l-3.75,0M514.62,7.08l-3.75,0"/>
<path d="M514.62,398.26l-7.5,0M514.62,320.03l-7.5,0M514.62,241.79l-7.5,0M514.62,163.55l-7.5,0M514.62,85.32l-7.5,0M514.62,7.08l-7.5,0"/>
<path d="M436.39,398.26l78.23,0"/>
<path d="M436.39,398.26l0,-3.75M440.3,398.26l0,-3.75M444.21,398.26l0,-3.75M448.12,398.26l0,-3.75M452.04,398.26l0,-3.75M455.95,398.26l0,-3.75M459.86,398.26l0,-3.75M463.77,398.26l0,-3.75M467.68,398.26l0,-3.75M471.6,398.26l0,-3.75M475.51,398.26l0,-3.75M479.42,398.26l0,-3.75M483.33,398.26l0,-3.75M487.24,398.26l0,-3.75M491.15,398.26l0,-3.75M495.07,398.26l0,-3.75M498.98,398.26l0,-3.75M502.89,398.26l0,-3.75M506.8,398.26l0,-3.75M510.71,398.26l0,-3.75M514.62,398.26l0,-3.75"/>
<path d="M436.39,398.26l0,-7.5M452.04,398.26l0,-7.5M467.68,398.26l0,-7.5M483.33,398.26l0,-7.5M498.98,398.26l0,-7.5M514.62,398.26l0,-7.5"/>
<path d="M436.39,7.08l78.23,0"/>
<path d="M436.39,7.08l0,3.75M440.3,7.08l0,3.75M444.21,7.08l0,3.75M448.12,7.08l0,3.75M452.04,7.08l0,3.75M455.95,7.08l0,3.75M459.86,7.08l0,3.75M463.77,7.08l0,3.75M467.68,7.08l0,3.75M471.6,7.08l0,3.75M475.51,7.08l0,3.75M479.42,7.08l0,3.75M483.33,7.08l0,3.75M487.24,7.08l0,3.75M491.15,7.08l0,3.75M495.07,7.08l0,3.75M498.98,7.08l0,3.75M502.89,7.08l0,3.75M506.8,7.08l0,3.75M510.71,7.08l0,3.75M514.62,7.08l0,3.75"/>
<path d="M436.39,7.08l0,7.5M452.04,7.08l0,7.5M467.68,7.08l0,7.5M483.33,7.08l0,7.5M498.98,7.08l0,7.5M514.62,7.08l0,7.5"/>
</g>
<g fill="#ffffff" stroke-width="0.62">
<path d="m35.43,408.04l391.18,0l0,78.23l-391.18,0l0,-78.23"/>
</g>
</g>
<g clip-path="url(#c3)">
<g fill="#000000" stroke="none" stroke-width="1">
<path d="m41.33,485.93l1.96,-0.26l1.96,-0.33l1.96,-0.39l1.96,-0.44l1.96,-0.48l1.96,-0.51l1.96,-0.53l1.96,-0.54l1.96,-0.54l1.96,-0.52l1.96,-0.49l1.96,-0.45l1.96,-0.4l1.96,-0.33l1.96,-0.25l1.96,-0.16l1.96,-0.07l1.96,0.03l1.96,0.14l1.96,0.26l1.96,0.38l1.96,0.5l1.96,0.62l1.96,0.74l1.96,0.86l1.96,0.97l1.96,1.07l1.96,1.17l1.96,-0.61l1.96,-1.32l1.96,-1.37l1.96,-1.41l1.96,-1.43l1.96,-1.44l1.96,-1.42l1.96,-1.39l1.96,-1.34l1.96,-1.27l1.96,-1.18l1.96,-1.07l1.96,-0.94l1.96,-0.79l1.96,-0.63l1.96,-0.46l1.96,-0.27l1.96,-0.07l1.96,0.12l1.96,0.34l1.96,0.55l1.96,0.77l1.96,0.99l1.96,1.2l1.96,1.41l1.96,1.61l1.96,1.79l1.96,1.97l1.96,2.12l1.96,2.26l1.96,2.37l1.96,0.06l1.96,-2.53l1.96,-2.57l1.96,-2.58l1.96,-2.57l1.96,-2.52l1.96,-2.45l1.96,-2.34l1.96,-2.21l1.96,-2.05l1.96,-1.87l1.96,-1.65l1.96,-1.42l1.96,-1.16l1.96,-0.88l1.96,-0.59l1.96,-0.28l1.96,0.03l1.96,0.36l1.96,0.69l1.96,1.02l1.96,1.35l1.96,1.67l1.96,1.98l1.96,2.28l1.96,2.55l1.96,2.81l1.96,3.04l1.96,3.25l1.96,3.43l1.96,3.57l1.96,2.02l1.96,-3.75l1.96,-3.78l1.96,-3.77l1.96,-3.72l1.96,-3.63l1.96,-3.51l1.96,-3.34l1.96,-3.13l1.96,-2.89l1.96,-2.61l1.96,-2.29l1.96,-1.95l1.96,-1.58l1.96,-1.19l1.96,-0.78l1.96,-0.35l1.96,0.08l1.96,0.53l1.96,0.98l1.96,1.43l1.96,1.87l1.96,2.3l1.96,2.71l1.96,3.1l1.96,3.46l1.96,3.8l1.96,4.1l1.96,4.36l1.96,4.58l1.96,4.75l1.96,4.88l1.96,-4.62l1.96,-4.99l1.96,-4.97l1.96,-4.9l1.96,-4.77l1.96,-4.6l1.96,-4.37l1.96,-4.09l1.96,-3.77l1.96,-3.4l1.96,-2.99l1.96,-2.55l1.96,-2.07l1.96,-1.56l1.96,-1.03l1.96,-0.48l1.96,0.07l1.96,0.64l1.96,1.21l1.96,1.78l1.96,2.33l1.96,2.87l1.96,3.39l1.96,3.87l1.96,4.33l1.96,4.74l1.96,5.12l1.96,5.44l1.96,5.71l1.96,5.93l1.96,6.09l1.96,-2.56l1.96,-6.22l1.96,-6.19l1.96,-6.09l1.96,-5.94l1.96,-5.72l1.96,-5.43l1.96,-5.09l1.96,-4.69l1.96,-4.24l1.96,-3.74l1.96,-3.19l1.96,-2.61l1.96,-1.99l1.96,-1.34l1.96,-0.68l1.96,0l1.96,0.69l1.96,1.38l1.96,2.07l1.96,2.74l1.96,3.39l1.96,4.01l1.96,4.6l1.96,5.15l1.96,5.65l1.96,6.1l1.96,6.49l1.96,6.82l1.96,7.09l1.96,7.28l1.96,0.76l1.96,-7.44l1.96,-7.41l1.96,-7.31l1.96,-7.12l1.96,-6.86l1.96,-6.53l1.96,-6.13l1.96,-5.66l1.96,-5.13l1.96,-4.54l1.96,-3.9l0,71.42l-391.18,0l1.96,-0.03l1.96,-0.11"/>
</g>
<g fill="none" stroke-width="0.62">
<polyline fill="none" points="35.43,486.28 37.39,486.24 39.36,486.12 41.33,485.93 43.29,485.66 45.26,485.33 47.22,484.94 49.19,484.5 51.15,484.01 53.12,483.5 55.09,482.96 57.05,482.41 59.02,481.87 60.98,481.34 62.95,480.85 64.91,480.39 66.88,479.99 68.85,479.66 70.81,479.4 72.78,479.23 74.74,479.16 76.71,479.2 78.67,479.34 80.64,479.61 82.61,479.99 84.57,480.5 86.54,481.12 88.5,481.87 90.47,482.74 92.43,483.71 94.4,484.79 96.37,485.96 98.33,485.34 100.3,484.02 102.26,482.64 104.23,481.23 106.19,479.79 108.16,478.34 110.13,476.91 112.09,475.52 114.06,474.17 116.02,472.9 117.99,471.72 119.95,470.65 121.92,469.7 123.89,468.9 125.85,468.27 127.82,467.8 129.78,467.53 131.75,467.45 133.71,467.57 135.68,467.92 137.65,468.47 139.61,469.25 141.58,470.24 143.54,471.45 145.51,472.87 147.47,474.48 149.44,476.28 151.41,478.25 153.37,480.37 155.34,482.63 157.3,485.01 159.27,485.08 161.24,482.54 163.2,479.97 165.17,477.38 167.13,474.81 169.1,472.28 171.06,469.83 173.03,467.48 175,465.26 176.96,463.2 178.93,461.33 180.89,459.68 182.86,458.26 184.82,457.09 186.79,456.21 188.76,455.62 190.72,455.33 192.69,455.37 194.65,455.73 196.62,456.43 198.58,457.45 200.55,458.8 202.52,460.48 204.48,462.46 206.45,464.74 208.41,467.3 210.38,470.12 212.34,473.17 214.31,476.42 216.28,479.85 218.24,483.43 220.21,485.45 222.17,481.7 224.14,477.91 226.1,474.14 228.07,470.41 230.04,466.77 232,463.26 233.97,459.92 235.93,456.78 237.9,453.89 239.86,451.28 241.83,448.98 243.8,447.02 245.76,445.44 247.73,444.24 249.69,443.46 251.66,443.11 253.62,443.2 255.59,443.73 257.56,444.72 259.52,446.15 261.49,448.03 263.45,450.33 265.42,453.04 267.38,456.14 269.35,459.61 271.32,463.41 273.28,467.51 275.25,471.87 277.21,476.46 279.18,481.21 281.14,486.1 283.11,481.48 285.08,476.48 287.04,471.51 289.01,466.6 290.97,461.82 292.94,457.22 294.9,452.85 296.87,448.75 298.84,444.98 300.8,441.58 302.77,438.58 304.73,436.03 306.7,433.96 308.67,432.39 310.63,431.36 312.6,430.88 314.56,430.95 316.53,431.6 318.49,432.82 320.46,434.6 322.43,436.93 324.39,439.81 326.36,443.2 328.32,447.08 330.29,451.41 332.25,456.16 334.22,461.28 336.19,466.73 338.15,472.44 340.12,478.37 342.08,484.47 344.05,481.9 346.01,475.68 347.98,469.49 349.95,463.39 351.91,457.45 353.88,451.72 355.84,446.29 357.81,441.19 359.77,436.49 361.74,432.24 363.71,428.5 365.67,425.3 367.64,422.68 369.6,420.69 371.57,419.34 373.53,418.66 375.5,418.66 377.47,419.35 379.43,420.74 381.4,422.81 383.36,425.55 385.33,428.95 387.29,432.96 389.26,437.57 391.23,442.73 393.19,448.39 395.16,454.49 397.12,460.99 399.09,467.82 401.05,474.91 403.02,482.19 404.99,482.96 406.95,475.51 408.92,468.09 410.88,460.78 412.85,453.65 414.81,446.78 416.78,440.25 418.75,434.11 420.71,428.44 422.68,423.3 424.64,418.76 426.61,414.85"/>
</g>
<g fill="none" stroke-width="0.62">
<polyline fill="none" points="35.43,486.28 37.39,485.89 39.36,485.49 41.33,485.1 43.29,484.71 45.26,484.31 47.22,483.92 49.19,483.53 51.15,483.13 53.12,482.74 55.09,482.35 57.05,481.95 59.02,481.56 60.98,481.17 62.95,480.77 64.91,480.38 66.88,479.99 68.85,479.59 70.81,479.2 72.78,478.81 74.74,478.42 76.71,478.02 78.67,477.63 80.64,477.24 82.61,476.84 84.57,476.45 86.54,476.06 88.5,475.66 90.47,475.27 92.43,474.88 94.4,474.48 96.37,474.09 98.33,473.7 100.3,473.3 102.26,472.91 104.23,472.52 106.19,472.13 108.16,471.73 110.13,471.34 112.09,470.95 114.06,470.55 116.02,470.16 117.99,469.77 119.95,469.37 121.92,468.98 123.89,468.59 125.85,468.19 127.82,467.8 129.78,467.41 131.75,467.01 133.71,466.62 135.68,466.23 137.65,465.83 139.61,465.44 141.58,465.05 143.54,464.66 145.51,464.26 147.47,463.87 149.44,463.48 151.41,463.08 153.37,462.69 155.34,462.3 157.3,461.9 159.27,461.51 161.24,461.12 163.2,460.72 165.17,460.33 167.13,459.94 169.1,459.54 171.06,459.15 173.03,458.76 175,458.37 176.96,457.97 178.93,457.58 180.89,457.19 182.86,456.79 184.82,456.4 186.79,456.01 188.76,455.61 190.72,455.22 192.69,454.83 194.65,454.43 196.62,454.04 198.58,453.65 200.55,453.25 202.52,452.86 204.48,452.47 206.45,452.07 208.41,451.68 210.38,451.29 212.34,450.9 214.31,450.5 216.28,450.11 218.24,449.72 220.21,449.32 222.17,448.93 224.14,448.54 226.1,448.14 228.07,447.75 230.04,447.36 232,446.96 233.97,446.57 235.93,446.18 237.9,445.78 239.86,445.39 241.83,445 243.8,444.6 245.76,444.21 247.73,443.82 249.69,443.43 251.66,443.03 253.62,442.64 255.59,442.25 257.56,441.85 259.52,441.46 261.49,441.07 263.45,440.67 265.42,440.28 267.38,439.89 269.35,439.49 271.32,439.1 273.28,438.71 275.25,438.31 277.21,437.92 279.18,437.53 281.14,437.14 283.11,436.74 285.08,436.35 287.04,435.96 289.01,435.56 290.97,435.17 292.94,434.78 294.9,434.38 296.87,433.99 298.84,433.6 300.8,433.2 302.77,432.81 304.73,432.42 306.7,432.02 308.67,431.63 310.63,431.24 312.6,430.84 314.56,430.45 316.53,430.06 318.49,429.67 320.46,429.27 322.43,428.88 324.39,428.49 326.36,428.09 328.32,427.7 330.29,427.31 332.25,426.91 334.22,426.52 336.19,426.13 338.15,425.73 340.12,425.34 342.08,424.95 344.05,424.55 346.01,424.16 347.98,423.77 349.95,423.37 351.91,422.98 353.88,422.59 355.84,422.2 357.81,421.8 359.77,421.41 361.74,421.02 363.71,420.62 365.67,420.23 367.64,419.84 369.6,419.44 371.57,419.05 373.53,418.66 375.5,418.26 377.47,417.87 379.43,417.48 381.4,417.08 383.36,416.69 385.33,416.3 387.29,415.91 389.26,415.51 391.23,415.12 393.19,414.73 395.16,414.33 397.12,413.94 399.09,413.55 401.05,413.15 403.02,412.76 404.99,412.37 406.95,411.97 408.92,411.58 410.88,411.19 412.85,410.79 414.81,410.4 416.78,410.01 418.75,409.61 420.71,409.22 422.68,408.83 424.64,408.44 426.61,408.04"/>
</g>
</g>
<g clip-path="url(#c0)">
<g fill="none" stroke-linecap="butt" stroke-width="0.62">
<path d="M35.43,486.28l0,-78.23"/>
<path d="M35.43,486.28l3.75,0M35.43,482.37l3.75,0M35.43,478.45l3.75,0M35.43,474.54l3.75,0M35.43,470.63l3.75,0M35.43,466.72l3.75,0M35.43,462.81l3.75,0M35.43,458.9l3.75,0M35.43,454.98l3.75,0M35.43,451.07l3.75,0M35.43,447.16l3.75,0M35.43,443.25l3.75,0M35.43,439.34l3.75,0M35.43,435.42l3.75,0M35.43,431.51l3.75,0M35.43,427.6l3.75,0M35.43,423.69l3.75,0M35.43,419.78l3.75,0M35.43,415.87l3.75,0M35.43,411.95l3.75,0M35.43,408.04l3.75,0"/>
<path d="M35.43,486.28l7.5,0M35.43,470.63l7.5,0M35.43,454.98l7.5,0M35.43,439.34l7.5,0M35.43,423.69l7.5,0M35.43,408.04l7.5,0"/>
<path d="M426.61,486.28l0,-78.23"/>
<path d="M426.61,486.28l-3.75,0M426.61,482.37l-3.75,0M426.61,478.45l-3.75,0M426.61,474.54l-3.75,0M426.61,470.63l-3.75,0M426.61,466.72l-3.75,0M426.61,462.81l-3.75,0M426.61,458.9l-3.75,0M426.61,454.98l-3.75,0M426.61,451.07l-3.75,0M426.61,447.16l-3.75,0M426.61,443.25l-3.75,0M426.61,439.34l-3.75,0M426.61,435.42l-3.75,0M426.61,431.51l-3.75,0M426.61,427.6l-3.75,0M426.61,423.69l-3.75,0M426.61,419.78l-3.75,0M426.61,415.87l-3.75,0M426.61,411.95l-3.75,0M426.61,408.04l-3.75,0"/>
<path d="M426.61,486.28l-7.5,0M426.61,470.63l-7.5,0M426.61,454.98l-7.5,0M426.61,439.34l-7.5,0M426.61,423.69l-7.5,0M426.61,408.04l-7.5,0"/>
</g>
<g fill="none" stroke-width="1">
<g stroke="none" fill="#000000" fill-opacity="1" font-family="Times New Roman" font-size="17.5">
<text x="22.23" y="492.38" textLength="8.8">0</text>
<text x="9.03" y="476.73" textLength="22">0.2</text>
<text x="9.03" y="461.08" textLength="22">0.4</text>
<text x="9.03" y="445.44" textLength="22">0.6</text>
<text x="9.03" y="429.79" textLength="22">0.8</text>
<text x="22.23" y="414.34" textLength="8.8">1</text>
</g>
</g>
<g fill="none" stroke-linecap="butt" stroke-width="0.62">
<path d="M35.43,486.28l391.18,0"/>
<path d="M35.43,486.28l0,-3.75M54.99,486.28l0,-3.75M74.55,486.28l0,-3.75M94.11,486.28l0,-3.75M113.66,486.28l0,-3.75M133.22,486.28l0,-3.75M152.78,486.28l0,-3.75M172.34,486.28l0,-3.75M191.9,486.28l0,-3.75M211.46,486.28l0,-3.75M231.02,486.28l0,-3.75M250.58,486.28l0,-3.75M270.14,486.28l0,-3.75M289.7,486.28l0,-3.75M309.25,486.28l0,-3.75M328.81,486.28l0,-3.75M348.37,486.28l0,-3.75M367.93,486.28l0,-3.75M387.49,486.28l0,-3.75M407.05,486.28l0,-3.75M426.61,486.28l0,-3.75"/>
<path d="M35.43,486.28l0,-7.5M113.66,486.28l0,-7.5M191.9,486.28l0,-7.5M270.14,486.28l0,-7.5M348.37,486.28l0,-7.5M426.61,486.28l0,-7.5"/>
<path d="M35.43,408.04l391.18,0"/>
<path d="M35.43,408.04l0,3.75M54.99,408.04l0,3.75M74.55,408.04l0,3.75M94.11,408.04l0,3.75M113.66,408.04l0,3.75M133.22,408.04l0,3.75M152.78,408.04l0,3.75M172.34,408.04l0,3.75M191.9,408.04l0,3.75M211.46,408.04l0,3.75M231.02,408.04l0,3.75M250.58,408.04l0,3.75M270.14,408.04l0,3.75M289.7,408.04l0,3.75M309.25,408.04l0,3.75M328.81,408.04l0,3.75M348.37,408.04l0,3.75M367.93,408.04l0,3.75M387.49,408.04l0,3.75M407.05,408.04l0,3.75M426.61,408.04l0,3.75"/>
<path d="M35.43,408.04l0,7.5M113.66,408.04l0,7.5M191.9,408.04l0,7.5M270.14,408.04l0,7.5M348.37,408.04l0,7.5M426.61,408.04l0,7.5"/>
</g>
<g fill="none" stroke-width="1">
<g stroke="none" fill="#000000" fill-opacity="1" font-family="Times New Roman" font-size="17.5">
<text x="31.03" y="506.28" textLength="8.8">0</text>
<text x="102.66" y="506.28" textLength="22">0.2</text>
<text x="180.9" y="506.28" textLength="22">0.4</text>
<text x="259.14" y="506.28" textLength="22">0.6</text>
<text x="337.37" y="506.28" textLength="22">0.8</text>
<text x="417.81" y="506.28" textLength="8.8">1</text>
</g>
</g>
</g>
</g>
</svg>
