<?xml version="1.0" standalone="no"?>
<!DOCTYPE svg PUBLIC "-//W3C//DTD SVG 1.1//EN" 
  "http://www.w3.org/Graphics/SVG/1.1/DTD/svg11.dtd">
<svg width="533.49px" height="533.49px" version="1.1"
     xmlns="http://www.w3.org/2000/svg"
     xmlns:xlink="http://www.w3.org/1999/xlink">
<desc>Veusz output document</desc>
<g stroke-linejoin="bevel" stroke-linecap="square" stroke="#000000" fill-rule="evenodd">
<g clip-path="url(#c0)">
<g stroke-width="0.62" fill="#ffffff">
<path d="m60.46,7.11l412.56,0l0,465.91l-412.56,0l0,-465.91"/>
</g>
</g>
<g clip-path="url(#c1)">
<g stroke="none" stroke-width="1" fill="#008000">
<polygon points="136.24,17.71 144.66,31.2 153.08,45.66 161.5,61.24 169.92,78.11 178.34,96.52 186.76,116.77 195.18,139.27 203.6,164.6 212.02,193.55 220.44,227.36 228.86,267.96 237.28,318.81 245.7,386.9 252.71,473.03 280.78,473.03 287.79,386.9 296.21,318.81 304.63,267.96 313.05,227.36 321.47,193.55 329.89,164.6 338.31,139.27 346.73,116.77 355.15,96.52 363.57,78.11 371.99,61.24 380.41,45.66 388.83,31.2 397.25,17.71 404.3,7.11 473.03,7.11 473.03,7.11 60.46,7.11 60.46,7.11 129.19,7.11"/>
</g>
<g stroke-width="0.62" fill="none">
<polyline fill="none" points="128.77,6.49 136.24,17.71 144.66,31.2 153.08,45.66 161.5,61.24 169.92,78.11 178.34,96.52 186.76,116.77 195.18,139.27 203.6,164.6 212.02,193.55 220.44,227.36 228.86,267.96 237.28,318.81 245.7,386.9 252.76,473.65"/>
<polyline fill="none" points="280.73,473.65 287.79,386.9 296.21,318.81 304.63,267.96 313.05,227.36 321.47,193.55 329.89,164.6 338.31,139.27 346.73,116.77 355.15,96.52 363.57,78.11 371.99,61.24 380.41,45.66 388.83,31.2 397.25,17.71 404.72,6.49"/>
</g>
</g>
<g clip-path="url(#c0)">
<g stroke-width="0.62" stroke-linecap="butt" fill="none">
<path d="M473.03,473.03l0,-465.91"/>
<path d="M473.03,402.9l-3.75,0M473.03,361.88l-3.75,0M473.03,332.77l-3.75,0M473.03,310.2l-3.75,0M473.03,291.75l-3.75,0M473.03,276.16l-3.75,0M473.03,262.65l-3.75,0M473.03,250.73l-3.75,0M473.03,169.94l-3.75,0M473.03,128.92l-3.75,0M473.03,99.82l-3.75,0M473.03,77.24l-3.75,0M473.03,58.79l-3.75,0M473.03,43.2l-3.75,0M473.03,29.69l-3.75,0M473.03,17.77l-3.75,0"/>
<path d="M473.03,473.03l-7.5,0M473.03,240.07l-7.5,0M473.03,7.11l-7.5,0"/>
</g>
<g stroke-width="1" transform="matrix(0 1 -1 0 515.03 195.07)" fill="none">
<path d="m8,-3.87l-4.48,0l-0.78,1.83c-0.2,0.45,-0.3,0.78,-0.3,1c0,0.18,0.09,0.33,0.26,0.47c0.17,0.14,0.53,0.22,1.09,0.27l0,0.31l-3.64,0l0,-0.31c0.48,-0.08,0.79,-0.2,0.94,-0.34c0.29,-0.27,0.61,-0.82,0.97,-1.66l4.08,-9.55l0.3,0l4.03,9.64c0.32,0.78,0.62,1.29,0.88,1.52c0.27,0.23,0.63,0.36,1.1,0.39l0,0.31l-4.56,0l0,-0.31c0.46,-0.02,0.77,-0.1,0.93,-0.23c0.16,-0.14,0.24,-0.3,0.24,-0.48c0,-0.25,-0.11,-0.65,-0.34,-1.19l-0.7,-1.66m-0.23,-0.64l-1.97,-4.67l-2.02,4.67l3.98,0m7.06,-1.89c0.92,-1.1,1.79,-1.66,2.62,-1.66c0.43,0,0.79,0.11,1.1,0.32c0.31,0.21,0.55,0.57,0.73,1.05c0.14,0.34,0.2,0.87,0.2,1.58l0,3.34c0,0.49,0.04,0.82,0.11,1c0.06,0.15,0.16,0.26,0.3,0.34c0.14,0.08,0.4,0.12,0.77,0.12l0,0.31l-3.87,0l0,-0.31l0.17,0c0.36,0,0.62,-0.05,0.77,-0.16c0.15,-0.11,0.24,-0.27,0.3,-0.49c0.02,-0.08,0.03,-0.35,0.03,-0.8l0,-3.2c0,-0.72,-0.09,-1.24,-0.27,-1.55c-0.18,-0.32,-0.49,-0.48,-0.93,-0.48c-0.68,0,-1.35,0.37,-2.03,1.11l0,4.12c0,0.53,0.03,0.86,0.09,0.98c0.08,0.17,0.19,0.29,0.33,0.36c0.14,0.07,0.42,0.11,0.86,0.11l0,0.31l-3.87,0l0,-0.31l0.17,0c0.4,0,0.66,-0.1,0.8,-0.3c0.14,-0.2,0.21,-0.59,0.21,-1.15l0,-2.91c0,-0.94,-0.02,-1.51,-0.06,-1.72c-0.04,-0.21,-0.11,-0.35,-0.2,-0.42c-0.09,-0.07,-0.21,-0.11,-0.37,-0.11c-0.16,0,-0.34,0.04,-0.56,0.12l-0.12,-0.3l2.36,-0.97l0.36,0l0,1.66m10.55,-1.66c1.19,0,2.14,0.45,2.86,1.36c0.6,0.77,0.91,1.65,0.91,2.64c0,0.7,-0.17,1.41,-0.5,2.12c-0.33,0.72,-0.8,1.26,-1.39,1.62c-0.59,0.36,-1.25,0.55,-1.97,0.55c-1.18,0,-2.11,-0.47,-2.81,-1.41c-0.58,-0.79,-0.87,-1.68,-0.87,-2.67c0,-0.71,0.18,-1.42,0.53,-2.13c0.35,-0.71,0.82,-1.24,1.41,-1.58c0.58,-0.34,1.2,-0.51,1.84,-0.51m-0.27,0.56c-0.3,0,-0.6,0.09,-0.91,0.27c-0.3,0.18,-0.55,0.49,-0.74,0.95c-0.19,0.45,-0.29,1.03,-0.29,1.74c0,1.14,0.23,2.11,0.68,2.94c0.45,0.82,1.05,1.23,1.8,1.23c0.55,0,1.01,-0.23,1.36,-0.68c0.35,-0.45,0.53,-1.24,0.53,-2.35c0,-1.39,-0.3,-2.48,-0.89,-3.28c-0.41,-0.54,-0.92,-0.81,-1.55,-0.81m7.7,-2.91l0,2.58l1.84,0l0,0.59l-1.84,0l0,5.08c0,0.51,0.07,0.85,0.22,1.03c0.15,0.18,0.33,0.27,0.56,0.27c0.19,0,0.37,-0.06,0.55,-0.18c0.18,-0.12,0.31,-0.29,0.41,-0.52l0.34,0c-0.2,0.56,-0.48,0.98,-0.84,1.27c-0.36,0.28,-0.74,0.42,-1.14,0.42c-0.26,0,-0.52,-0.07,-0.77,-0.22c-0.25,-0.15,-0.43,-0.35,-0.55,-0.62c-0.12,-0.27,-0.18,-0.69,-0.18,-1.25l0,-5.27l-1.23,0l0,-0.28c0.31,-0.12,0.63,-0.34,0.96,-0.63c0.33,-0.3,0.62,-0.65,0.88,-1.07c0.12,-0.21,0.31,-0.6,0.55,-1.19l0.25,0m5.03,-1.75l0,5.73c0.64,-0.7,1.14,-1.15,1.51,-1.34c0.37,-0.2,0.74,-0.3,1.1,-0.3c0.45,0,0.83,0.12,1.15,0.37c0.32,0.24,0.55,0.63,0.71,1.16c0.11,0.36,0.17,1.03,0.17,2l0,2.77c0,0.49,0.04,0.83,0.11,1.02c0.06,0.14,0.16,0.24,0.3,0.32c0.14,0.08,0.39,0.12,0.75,0.12l0,0.31l-3.84,0l0,-0.31l0.17,0c0.36,0,0.62,-0.05,0.77,-0.16c0.15,-0.11,0.24,-0.27,0.3,-0.49c0.02,-0.09,0.03,-0.36,0.03,-0.8l0,-2.77c0,-0.85,-0.04,-1.42,-0.13,-1.69c-0.09,-0.27,-0.23,-0.47,-0.42,-0.61c-0.19,-0.14,-0.43,-0.2,-0.71,-0.2c-0.27,0,-0.56,0.08,-0.86,0.23c-0.3,0.15,-0.67,0.45,-1.09,0.9l0,4.14c0,0.53,0.03,0.86,0.09,0.99c0.06,0.13,0.17,0.24,0.34,0.33c0.16,0.09,0.44,0.13,0.84,0.13l0,0.31l-3.87,0l0,-0.31c0.34,0,0.61,-0.05,0.81,-0.16c0.11,-0.06,0.21,-0.17,0.27,-0.33c0.07,-0.16,0.1,-0.48,0.1,-0.97l0,-7.09c0,-0.89,-0.02,-1.43,-0.06,-1.64c-0.04,-0.21,-0.11,-0.35,-0.2,-0.42c-0.09,-0.07,-0.21,-0.11,-0.35,-0.11c-0.12,0,-0.32,0.05,-0.58,0.14l-0.12,-0.3l2.34,-0.97l0.39,0m8.02,7.28c0,1.16,0.28,2.07,0.84,2.73c0.57,0.66,1.24,0.98,2.02,0.98c0.51,0,0.96,-0.14,1.34,-0.42c0.38,-0.28,0.7,-0.77,0.95,-1.45l0.27,0.17c-0.11,0.78,-0.46,1.49,-1.04,2.13c-0.58,0.64,-1.3,0.96,-2.16,0.96c-0.94,0,-1.74,-0.36,-2.41,-1.09c-0.67,-0.73,-1,-1.71,-1,-2.95c0,-1.33,0.34,-2.37,1.02,-3.12c0.68,-0.75,1.54,-1.12,2.59,-1.12c0.87,0,1.59,0.29,2.16,0.87c0.56,0.58,0.84,1.35,0.84,2.32l-5.41,0m0,-0.5l3.62,0c-0.03,-0.5,-0.09,-0.85,-0.17,-1.06c-0.15,-0.31,-0.36,-0.56,-0.64,-0.74c-0.28,-0.18,-0.58,-0.27,-0.89,-0.27c-0.47,0,-0.89,0.18,-1.27,0.55c-0.37,0.36,-0.59,0.87,-0.66,1.53m8.98,-2.69l0,1.77c0.65,-1.18,1.32,-1.77,2.02,-1.77c0.31,0,0.57,0.1,0.77,0.29c0.2,0.19,0.3,0.41,0.3,0.66c0,0.22,-0.07,0.41,-0.22,0.56c-0.15,0.16,-0.32,0.23,-0.53,0.23c-0.2,0,-0.42,-0.1,-0.67,-0.3c-0.25,-0.2,-0.43,-0.3,-0.55,-0.3c-0.1,0,-0.22,0.06,-0.34,0.17c-0.25,0.23,-0.51,0.61,-0.78,1.16l0,3.75c0,0.44,0.05,0.77,0.16,0.98c0.07,0.16,0.2,0.28,0.39,0.38c0.19,0.1,0.46,0.15,0.81,0.15l0,0.31l-4,0l0,-0.31c0.4,0,0.69,-0.06,0.87,-0.19c0.15,-0.08,0.25,-0.23,0.31,-0.44c0.02,-0.09,0.03,-0.37,0.03,-0.83l0,-3.03c0,-0.91,-0.02,-1.45,-0.05,-1.62c-0.04,-0.18,-0.1,-0.3,-0.2,-0.38c-0.1,-0.08,-0.22,-0.12,-0.37,-0.12c-0.18,0,-0.37,0.04,-0.59,0.12l-0.09,-0.3l2.37,-0.97l0.36,0m13.14,6.94c-0.8,0.61,-1.31,0.97,-1.52,1.08c-0.3,0.14,-0.63,0.2,-0.98,0.2c-0.54,0,-0.99,-0.18,-1.34,-0.55c-0.35,-0.37,-0.52,-0.86,-0.52,-1.46c0,-0.37,0.08,-0.7,0.25,-0.98c0.24,-0.39,0.65,-0.75,1.23,-1.09c0.58,-0.34,1.54,-0.76,2.88,-1.25l0,-0.31c0,-0.78,-0.12,-1.32,-0.37,-1.6c-0.25,-0.29,-0.61,-0.43,-1.08,-0.43c-0.36,0,-0.65,0.09,-0.86,0.28c-0.22,0.2,-0.33,0.42,-0.33,0.67l0.02,0.5c0,0.26,-0.07,0.46,-0.2,0.6c-0.13,0.14,-0.3,0.21,-0.52,0.21c-0.21,0,-0.38,-0.07,-0.52,-0.22c-0.14,-0.15,-0.2,-0.35,-0.2,-0.61c0,-0.49,0.25,-0.94,0.75,-1.35c0.5,-0.41,1.2,-0.62,2.11,-0.62c0.7,0,1.27,0.12,1.72,0.36c0.33,0.18,0.58,0.45,0.73,0.83c0.1,0.24,0.16,0.74,0.16,1.5l0,2.66c0,0.75,0.02,1.21,0.05,1.37c0.03,0.17,0.08,0.28,0.14,0.34c0.06,0.06,0.14,0.09,0.22,0.09c0.09,0,0.18,-0.02,0.25,-0.06c0.11,-0.07,0.34,-0.28,0.69,-0.62l0,0.48c-0.64,0.85,-1.24,1.28,-1.83,1.28c-0.28,0,-0.51,-0.1,-0.67,-0.29c-0.17,-0.19,-0.25,-0.52,-0.25,-0.99m0,-0.56l0,-2.98c-0.86,0.34,-1.42,0.59,-1.67,0.73c-0.45,0.25,-0.77,0.51,-0.96,0.78c-0.19,0.27,-0.29,0.57,-0.29,0.91c0,0.41,0.12,0.74,0.37,1.02c0.24,0.27,0.52,0.41,0.84,0.41c0.44,0,1.01,-0.29,1.72,-0.86m3.25,-6.14l3.67,0l0,0.31c-0.23,0,-0.39,0.04,-0.48,0.12c-0.09,0.08,-0.14,0.19,-0.14,0.31c0,0.14,0.1,0.35,0.3,0.64c0.06,0.08,0.16,0.22,0.28,0.42l0.56,0.89l0.64,-0.89c0.41,-0.56,0.61,-0.92,0.61,-1.06c0,-0.12,-0.05,-0.23,-0.14,-0.31c-0.09,-0.08,-0.25,-0.12,-0.47,-0.12l0,-0.31l2.64,0l0,0.31c-0.28,0.02,-0.52,0.1,-0.72,0.23c-0.28,0.2,-0.66,0.62,-1.14,1.27l-1.08,1.42l1.95,2.81c0.48,0.69,0.82,1.1,1.02,1.24c0.2,0.14,0.47,0.22,0.79,0.23l0,0.31l-3.69,0l0,-0.31c0.26,0,0.46,-0.06,0.59,-0.17c0.11,-0.07,0.17,-0.18,0.17,-0.31c0,-0.12,-0.18,-0.45,-0.55,-0.98l-1.16,-1.67l-1.25,1.67c-0.39,0.51,-0.58,0.82,-0.58,0.92c0,0.14,0.07,0.26,0.2,0.37c0.13,0.11,0.32,0.17,0.57,0.18l0,0.31l-2.55,0l0,-0.31c0.2,-0.02,0.37,-0.09,0.53,-0.2c0.22,-0.17,0.58,-0.59,1.09,-1.27l1.64,-2.19l-1.48,-2.16c-0.43,-0.61,-0.76,-1,-0.98,-1.16c-0.23,-0.16,-0.52,-0.23,-0.86,-0.23l0,-0.31m10.3,-4.33c0.24,0,0.45,0.09,0.62,0.26c0.17,0.17,0.26,0.38,0.26,0.62c0,0.24,-0.09,0.44,-0.26,0.61c-0.17,0.17,-0.38,0.25,-0.62,0.25c-0.24,0,-0.44,-0.08,-0.61,-0.25c-0.17,-0.17,-0.25,-0.37,-0.25,-0.61c0,-0.24,0.08,-0.45,0.25,-0.62c0.17,-0.17,0.37,-0.26,0.61,-0.26m0.72,4.09l0,6.3c0,0.49,0.03,0.82,0.1,0.98c0.07,0.16,0.17,0.28,0.31,0.36c0.14,0.08,0.4,0.12,0.77,0.12l0,0.31l-3.81,0l0,-0.31c0.39,0,0.64,-0.04,0.77,-0.11c0.13,-0.07,0.23,-0.2,0.31,-0.37c0.08,-0.17,0.12,-0.5,0.12,-0.98l0,-3.02c0,-0.85,-0.03,-1.41,-0.08,-1.66c-0.04,-0.18,-0.1,-0.3,-0.19,-0.37c-0.08,-0.07,-0.2,-0.11,-0.34,-0.11c-0.17,0,-0.36,0.04,-0.59,0.12l-0.11,-0.3l2.36,-0.97l0.37,0m6.36,0l0,2.67l-0.28,0c-0.22,-0.83,-0.5,-1.4,-0.84,-1.7c-0.34,-0.3,-0.77,-0.45,-1.29,-0.45c-0.41,0,-0.73,0.1,-0.98,0.31c-0.24,0.21,-0.37,0.44,-0.37,0.7c0,0.31,0.09,0.58,0.28,0.81c0.18,0.24,0.54,0.49,1.08,0.75l1.23,0.61c1.16,0.56,1.73,1.3,1.73,2.22c0,0.72,-0.27,1.29,-0.8,1.73c-0.54,0.43,-1.14,0.65,-1.8,0.65c-0.48,0,-1.03,-0.08,-1.64,-0.25c-0.19,-0.06,-0.34,-0.09,-0.45,-0.09c-0.14,0,-0.24,0.08,-0.31,0.23l-0.28,0l0,-2.8l0.28,0c0.16,0.79,0.46,1.39,0.91,1.8c0.45,0.41,0.96,0.61,1.51,0.61c0.4,0,0.72,-0.11,0.97,-0.34c0.25,-0.23,0.37,-0.51,0.37,-0.83c0,-0.4,-0.14,-0.73,-0.41,-1c-0.28,-0.27,-0.83,-0.61,-1.66,-1.02c-0.83,-0.41,-1.37,-0.78,-1.63,-1.11c-0.25,-0.32,-0.37,-0.73,-0.37,-1.23c0,-0.65,0.22,-1.18,0.66,-1.62c0.44,-0.43,1.01,-0.65,1.72,-0.65c0.3,0,0.67,0.07,1.11,0.2c0.29,0.08,0.49,0.12,0.59,0.12c0.08,0,0.15,-0.02,0.2,-0.06c0.05,-0.04,0.11,-0.13,0.19,-0.27l0.28,0" fill="#000000" stroke="none" fill-opacity="1"/>
</g>
<g stroke-width="1" fill="none">
<path d="m478.06,468.56l2.83,-1.37l0.28,0l0,9.78c0,0.66,0.03,1.06,0.08,1.22c0.05,0.16,0.16,0.28,0.34,0.37c0.17,0.09,0.52,0.14,1.04,0.15l0,0.31l-4.36,0l0,-0.31c0.55,-0.01,0.91,-0.06,1.07,-0.14c0.16,-0.08,0.27,-0.2,0.34,-0.34c0.06,-0.14,0.09,-0.56,0.09,-1.26l0,-6.25c0,-0.84,-0.03,-1.39,-0.09,-1.62c-0.04,-0.18,-0.11,-0.31,-0.22,-0.4c-0.1,-0.09,-0.23,-0.13,-0.37,-0.13c-0.21,0,-0.51,0.09,-0.89,0.27l-0.12,-0.27m7.58,4.73c0,-1.32,0.2,-2.46,0.6,-3.41c0.4,-0.95,0.93,-1.66,1.59,-2.13c0.52,-0.37,1.05,-0.56,1.59,-0.56c0.9,0,1.69,0.45,2.39,1.36c0.89,1.12,1.33,2.65,1.33,4.56c0,1.34,-0.19,2.49,-0.58,3.43c-0.39,0.94,-0.88,1.62,-1.48,2.05c-0.6,0.42,-1.18,0.63,-1.73,0.63c-1.1,0,-2.03,-0.65,-2.77,-1.95c-0.62,-1.1,-0.94,-2.43,-0.94,-3.97m1.69,0.2c0,1.59,0.19,2.9,0.58,3.91c0.33,0.85,0.82,1.28,1.45,1.28c0.31,0,0.63,-0.14,0.96,-0.41c0.33,-0.28,0.58,-0.74,0.76,-1.4c0.26,-0.98,0.39,-2.36,0.39,-4.14c0,-1.32,-0.14,-2.43,-0.41,-3.31c-0.21,-0.65,-0.47,-1.11,-0.8,-1.39c-0.24,-0.19,-0.52,-0.28,-0.84,-0.28c-0.4,0,-0.74,0.18,-1.05,0.53c-0.41,0.47,-0.68,1.21,-0.83,2.23c-0.15,1.02,-0.22,2.01,-0.22,2.99" fill="#000000" stroke="none" fill-opacity="1"/>
<path d="m499.73,467.73l-5.53,0l0,-0.42l5.53,0l0,0.42m5.09,1.94l-0.48,1.34l-4.11,0l0,-0.19c1.21,-1.1,2.06,-2.01,2.55,-2.7c0.49,-0.7,0.74,-1.33,0.74,-1.91c0,-0.44,-0.14,-0.8,-0.41,-1.09c-0.27,-0.29,-0.59,-0.43,-0.97,-0.43c-0.34,0,-0.65,0.1,-0.92,0.3c-0.27,0.2,-0.47,0.49,-0.61,0.89l-0.19,0c0.08,-0.64,0.3,-1.12,0.66,-1.46c0.35,-0.34,0.8,-0.51,1.33,-0.51c0.56,0,1.03,0.18,1.41,0.54c0.38,0.36,0.57,0.79,0.57,1.29c0,0.34,-0.08,0.69,-0.25,1.05c-0.25,0.55,-0.66,1.14,-1.23,1.77c-0.84,0.93,-1.37,1.48,-1.59,1.67l1.81,0c0.37,0,0.64,-0.01,0.78,-0.04c0.15,-0.03,0.28,-0.08,0.4,-0.16c0.12,-0.08,0.23,-0.2,0.32,-0.36l0.19,0" fill="#000000" stroke="none" fill-opacity="1"/>
<path d="m478.06,235.61l2.83,-1.37l0.28,0l0,9.78c0,0.66,0.03,1.06,0.08,1.22c0.05,0.16,0.16,0.28,0.34,0.37c0.17,0.09,0.52,0.14,1.04,0.15l0,0.31l-4.36,0l0,-0.31c0.55,-0.01,0.91,-0.06,1.07,-0.14c0.16,-0.08,0.27,-0.2,0.34,-0.34c0.06,-0.14,0.09,-0.56,0.09,-1.26l0,-6.25c0,-0.84,-0.03,-1.39,-0.09,-1.62c-0.04,-0.18,-0.11,-0.31,-0.22,-0.4c-0.1,-0.09,-0.23,-0.13,-0.37,-0.13c-0.21,0,-0.51,0.09,-0.89,0.27l-0.12,-0.27m7.58,4.73c0,-1.32,0.2,-2.46,0.6,-3.41c0.4,-0.95,0.93,-1.66,1.59,-2.13c0.52,-0.37,1.05,-0.56,1.59,-0.56c0.9,0,1.69,0.45,2.39,1.36c0.89,1.12,1.33,2.65,1.33,4.56c0,1.34,-0.19,2.49,-0.58,3.43c-0.39,0.94,-0.88,1.62,-1.48,2.05c-0.6,0.42,-1.18,0.63,-1.73,0.63c-1.1,0,-2.03,-0.65,-2.77,-1.95c-0.62,-1.1,-0.94,-2.43,-0.94,-3.97m1.69,0.2c0,1.59,0.19,2.9,0.58,3.91c0.33,0.85,0.82,1.28,1.45,1.28c0.31,0,0.63,-0.14,0.96,-0.41c0.33,-0.28,0.58,-0.74,0.76,-1.4c0.26,-0.98,0.39,-2.36,0.39,-4.14c0,-1.32,-0.14,-2.43,-0.41,-3.31c-0.21,-0.65,-0.47,-1.11,-0.8,-1.39c-0.24,-0.19,-0.52,-0.28,-0.84,-0.28c-0.4,0,-0.74,0.18,-1.05,0.53c-0.41,0.47,-0.68,1.21,-0.83,2.23c-0.15,1.02,-0.22,2.01,-0.22,2.99" fill="#000000" stroke="none" fill-opacity="1"/>
<path d="m499.73,234.78l-5.53,0l0,-0.42l5.53,0l0,0.42m1.52,-2.98l1.69,-0.83l0.17,0l0,5.87c0,0.39,0.02,0.62,0.05,0.72c0.03,0.09,0.1,0.17,0.2,0.22c0.1,0.05,0.31,0.08,0.62,0.09l0,0.19l-2.61,0l0,-0.19c0.32,-0.01,0.53,-0.04,0.63,-0.09c0.1,-0.05,0.17,-0.11,0.2,-0.2c0.04,-0.08,0.05,-0.33,0.05,-0.75l0,-3.77c0,-0.5,-0.02,-0.82,-0.06,-0.97c-0.02,-0.1,-0.06,-0.18,-0.12,-0.23c-0.06,-0.05,-0.14,-0.08,-0.23,-0.08c-0.12,0,-0.3,0.05,-0.52,0.16l-0.08,-0.16" fill="#000000" stroke="none" fill-opacity="1"/>
<path d="m478.06,5.55l2.83,-1.37l0.28,0l0,9.78c0,0.66,0.03,1.06,0.08,1.22c0.05,0.16,0.16,0.28,0.34,0.37c0.17,0.09,0.52,0.14,1.04,0.15l0,0.31l-4.36,0l0,-0.31c0.55,-0.01,0.91,-0.06,1.07,-0.14c0.16,-0.08,0.27,-0.2,0.34,-0.34c0.06,-0.14,0.09,-0.56,0.09,-1.26l0,-6.25c0,-0.84,-0.03,-1.39,-0.09,-1.62c-0.04,-0.18,-0.11,-0.31,-0.22,-0.4c-0.1,-0.09,-0.23,-0.13,-0.37,-0.13c-0.21,0,-0.51,0.09,-0.89,0.27l-0.12,-0.27m7.58,4.73c0,-1.32,0.2,-2.46,0.6,-3.41c0.4,-0.95,0.93,-1.66,1.59,-2.13c0.52,-0.37,1.05,-0.56,1.59,-0.56c0.9,0,1.69,0.45,2.39,1.36c0.89,1.12,1.33,2.65,1.33,4.56c0,1.34,-0.19,2.49,-0.58,3.43c-0.39,0.94,-0.88,1.62,-1.48,2.05c-0.6,0.42,-1.18,0.63,-1.73,0.63c-1.1,0,-2.03,-0.65,-2.77,-1.95c-0.62,-1.1,-0.94,-2.43,-0.94,-3.97m1.69,0.2c0,1.59,0.19,2.9,0.58,3.91c0.33,0.85,0.82,1.28,1.45,1.28c0.31,0,0.63,-0.14,0.96,-0.41c0.33,-0.28,0.58,-0.74,0.76,-1.4c0.26,-0.98,0.39,-2.36,0.39,-4.14c0,-1.32,-0.14,-2.43,-0.41,-3.31c-0.21,-0.65,-0.47,-1.11,-0.8,-1.39c-0.24,-0.19,-0.52,-0.28,-0.84,-0.28c-0.4,0,-0.74,0.18,-1.05,0.53c-0.41,0.47,-0.68,1.21,-0.83,2.23c-0.15,1.02,-0.22,2.01,-0.22,2.99" fill="#000000" stroke="none" fill-opacity="1"/>
<path d="m494.39,4.56c0,-0.79,0.12,-1.47,0.36,-2.05c0.24,-0.57,0.56,-1,0.95,-1.28c0.31,-0.22,0.63,-0.33,0.95,-0.33c0.54,0,1.02,0.27,1.44,0.81c0.53,0.68,0.8,1.59,0.8,2.73c0,0.81,-0.12,1.5,-0.35,2.06c-0.23,0.56,-0.53,0.97,-0.89,1.23c-0.36,0.26,-0.71,0.38,-1.04,0.38c-0.67,0,-1.22,-0.39,-1.66,-1.17c-0.37,-0.67,-0.56,-1.46,-0.56,-2.39m1.02,0.12c0,0.96,0.11,1.74,0.34,2.34c0.2,0.51,0.49,0.77,0.87,0.77c0.19,0,0.38,-0.08,0.58,-0.25c0.2,-0.17,0.35,-0.44,0.45,-0.83c0.16,-0.58,0.23,-1.41,0.23,-2.48c0,-0.79,-0.08,-1.45,-0.25,-1.98c-0.12,-0.4,-0.29,-0.68,-0.48,-0.84c-0.14,-0.1,-0.3,-0.16,-0.5,-0.16c-0.23,0,-0.44,0.1,-0.62,0.31c-0.24,0.28,-0.4,0.73,-0.49,1.34c-0.09,0.61,-0.13,1.21,-0.13,1.79" fill="#000000" stroke="none" fill-opacity="1"/>
<path d="m435.92,90.34c-2.04,-2.28,-4.87,-5.01,-8.48,-8.17c-3.99,-3.5,-6.68,-6.26,-8.06,-8.27c-1.39,-2.02,-2.08,-4.23,-2.08,-6.63c0,-3.57,1.67,-6.39,5.01,-8.45c3.34,-2.06,7.7,-3.09,13.07,-3.09c5.36,0,10.05,0.92,14.06,2.75c4.01,1.83,6.02,4.35,6.02,7.56c0,1.55,-0.49,2.84,-1.47,3.85c-0.98,1.02,-2.12,1.52,-3.42,1.52c-1.86,0,-4.06,-1.41,-6.59,-4.22c-2.56,-2.84,-4.73,-4.85,-6.5,-6.01c-1.77,-1.16,-3.83,-1.74,-6.19,-1.74c-3.01,0,-5.48,0.67,-7.41,2.02c-1.93,1.34,-2.9,3.05,-2.9,5.12c0,1.96,0.79,3.79,2.37,5.5c1.58,1.71,5.67,4.82,12.27,9.34c7.04,4.83,12.02,8.61,14.93,11.34c2.91,2.73,5.28,6.05,7.11,9.95c1.83,3.91,2.74,8.04,2.74,12.39c0,7.65,-2.7,14.39,-8.09,20.23c-5.39,5.84,-11.68,8.76,-18.88,8.76c-6.55,0,-12.09,-2.34,-16.61,-7.02c-4.52,-4.68,-6.78,-10.92,-6.78,-18.73c0,-7.53,2.49,-13.82,7.48,-18.86c4.98,-5.04,11.12,-8.09,18.41,-9.16m2.69,2.81c-11.69,1.91,-17.53,9.92,-17.53,24.05c0,7.28,1.46,12.93,4.37,16.96c2.91,4.03,6.3,6.04,10.16,6.04c4.03,0,7.35,-1.94,9.95,-5.83c2.6,-3.89,3.91,-9.14,3.91,-15.77c0,-9.6,-3.62,-18.09,-10.86,-25.45" fill="#000000" stroke="none" fill-opacity="1"/>
</g>
</g>
<g clip-path="url(#c1)">
<g fill-opacity="0.4" stroke="none" stroke-width="1" fill="#00ffff">
<polygon points="166.52,21.23 199.18,25.94 238.01,30.64 279.45,35.35 319.73,40.06 355.19,44.76 382.58,49.47 399.42,54.18 404.17,58.88 396.4,63.59 376.81,68.29 347.19,73 310.24,77.71 269.33,82.41 228.18,87.12 190.54,91.82 159.85,96.53 138.9,101.24 129.6,105.94 132.8,110.65 148.2,115.36 174.41,120.06 209.03,124.77 248.91,129.47 290.41,134.18 329.76,138.89 363.37,143.59 388.17,148.3 401.9,153.01 403.32,157.71 392.29,162.42 369.83,167.12 337.97,171.83 299.61,176.54 258.27,181.24 217.69,185.95 181.59,190.66 153.25,195.36 135.24,200.07 129.23,204.77 135.74,209.48 154.19,214.19 182.9,218.89 219.25,223.6 259.92,228.3 301.22,233.01 339.38,237.72 370.92,242.42 392.96,247.13 403.51,251.84 401.59,256.54 387.38,261.25 362.18,265.95 328.28,270.66 288.78,275.37 247.26,280.07 207.53,284.78 173.19,289.49 147.37,294.19 132.43,298.9 129.74,303.6 139.52,308.31 160.9,313.02 191.93,317.72 229.77,322.43 270.98,327.13 311.81,331.84 348.53,336.55 377.8,341.25 396.94,345.96 404.22,350.67 398.98,355.37 381.68,360.08 353.91,364.78 318.2,369.49 277.8,374.2 236.39,378.9 197.74,383.61 165.39,388.32 142.27,393.02 130.49,397.73 131.13,402.43 144.13,407.14 168.3,411.85 201.45,416.55 240.54,421.26 282.02,425.97 322.11,430.67 357.15,435.38 383.96,440.08 400.08,444.79 404.05,449.5 395.51,454.2 375.24,458.91 345.08,463.61 307.78,468.32 266.74,473.03 60.46,473.03 60.46,7.11 130.87,7.11 130.73,11.82 142.98,16.53"/>
</g>
<g stroke-width="0.62" fill="none">
<polyline fill="none" points="130.87,7.11 130.73,11.82 142.98,16.53 166.52,21.23 199.18,25.94 238.01,30.64 279.45,35.35 319.73,40.06 355.19,44.76 382.58,49.47 399.42,54.18 404.17,58.88 396.4,63.59 376.81,68.29 347.19,73 310.24,77.71 269.33,82.41 228.18,87.12 190.54,91.82 159.85,96.53 138.9,101.24 129.6,105.94 132.8,110.65 148.2,115.36 174.41,120.06 209.03,124.77 248.91,129.47 290.41,134.18 329.76,138.89 363.37,143.59 388.17,148.3 401.9,153.01 403.32,157.71 392.29,162.42 369.83,167.12 337.97,171.83 299.61,176.54 258.27,181.24 217.69,185.95 181.59,190.66 153.25,195.36 135.24,200.07 129.23,204.77 135.74,209.48 154.19,214.19 182.9,218.89 219.25,223.6 259.92,228.3 301.22,233.01 339.38,237.72 370.92,242.42 392.96,247.13 403.51,251.84 401.59,256.54 387.38,261.25 362.18,265.95 328.28,270.66 288.78,275.37 247.26,280.07 207.53,284.78 173.19,289.49 147.37,294.19 132.43,298.9 129.74,303.6 139.52,308.31 160.9,313.02 191.93,317.72 229.77,322.43 270.98,327.13 311.81,331.84 348.53,336.55 377.8,341.25 396.94,345.96 404.22,350.67 398.98,355.37 381.68,360.08 353.91,364.78 318.2,369.49 277.8,374.2 236.39,378.9 197.74,383.61 165.39,388.32 142.27,393.02 130.49,397.73 131.13,402.43 144.13,407.14 168.3,411.85 201.45,416.55 240.54,421.26 282.02,425.97 322.11,430.67 357.15,435.38 383.96,440.08 400.08,444.79 404.05,449.5 395.51,454.2 375.24,458.91 345.08,463.61 307.78,468.32 266.74,473.03"/>
</g>
<g fill-opacity="0.4" stroke="none" stroke-width="1" fill="#ff0000">
<polygon points="85.72,329.29 94.14,321.38 102.56,317.88 110.98,319 119.4,324.68 127.82,334.59 136.24,348.11 144.66,364.46 153.08,382.66 161.5,401.61 169.92,420.19 178.34,437.29 186.76,451.89 195.18,463.11 203.6,470.3 212.02,473.01 220.44,471.09 228.86,464.65 237.28,454.08 245.7,440 254.12,423.26 262.53,404.86 270.95,385.89 279.37,367.49 287.79,350.75 296.21,336.67 304.63,326.1 313.05,319.66 321.47,317.74 329.89,320.45 338.31,327.64 346.73,338.86 355.15,353.46 363.57,370.56 371.99,389.14 380.41,408.09 388.83,426.29 397.25,442.64 405.67,456.16 414.09,466.07 422.51,471.75 430.93,472.87 439.35,469.37 447.77,461.46 456.19,449.6 464.61,434.5 473.03,417.07 473.03,473.03 60.46,473.03 60.46,373.68 68.88,356.25 77.3,341.15"/>
</g>
<g stroke-width="0.62" fill="none">
<polyline fill="none" points="60.46,373.68 68.88,356.25 77.3,341.15 85.72,329.29 94.14,321.38 102.56,317.88 110.98,319 119.4,324.68 127.82,334.59 136.24,348.11 144.66,364.46 153.08,382.66 161.5,401.61 169.92,420.19 178.34,437.29 186.76,451.89 195.18,463.11 203.6,470.3 212.02,473.01 220.44,471.09 228.86,464.65 237.28,454.08 245.7,440 254.12,423.26 262.53,404.86 270.95,385.89 279.37,367.49 287.79,350.75 296.21,336.67 304.63,326.1 313.05,319.66 321.47,317.74 329.89,320.45 338.31,327.64 346.73,338.86 355.15,353.46 363.57,370.56 371.99,389.14 380.41,408.09 388.83,426.29 397.25,442.64 405.67,456.16 414.09,466.07 422.51,471.75 430.93,472.87 439.35,469.37 447.77,461.46 456.19,449.6 464.61,434.5 473.03,417.07"/>
</g>
<g stroke="#800080" stroke-width="3.75" fill="none">
<polyline fill="none" points="60.46,440.29 68.88,433.84 77.3,426.46 85.72,418.11 94.14,408.75 102.56,398.35 110.98,386.92 119.4,374.48 127.82,361.08 136.24,346.81 144.66,331.79 153.08,316.16 161.5,300.1 169.92,283.83 178.34,267.56 186.76,251.57 195.18,236.11 203.6,221.47 212.02,207.91 220.44,195.71 228.86,185.12 237.28,176.36 245.7,169.61 254.12,165.03 262.53,162.71 270.95,162.71 279.37,165.03 287.79,169.61 296.21,176.36 304.63,185.12 313.05,195.71 321.47,207.91 329.89,221.47 338.31,236.11 346.73,251.57 355.15,267.56 363.57,283.83 371.99,300.1 380.41,316.16 388.83,331.79 397.25,346.81 405.67,361.08 414.09,374.48 422.51,386.92 430.93,398.35 439.35,408.75 447.77,418.11 456.19,426.46 464.61,433.84 473.03,440.29"/>
</g>
</g>
<g clip-path="url(#c0)">
<g stroke-width="0.62" stroke-linecap="butt" fill="none">
<path d="M60.46,473.03l0,-465.91"/>
<path d="M60.46,473.03l3.75,0M60.46,434.2l3.75,0M60.46,395.37l3.75,0M60.46,356.55l3.75,0M60.46,317.72l3.75,0M60.46,278.9l3.75,0M60.46,240.07l3.75,0M60.46,201.24l3.75,0M60.46,162.42l3.75,0M60.46,123.59l3.75,0M60.46,84.77l3.75,0M60.46,45.94l3.75,0M60.46,7.11l3.75,0"/>
<path d="M60.46,473.03l7.5,0M60.46,395.37l7.5,0M60.46,317.72l7.5,0M60.46,240.07l7.5,0M60.46,162.42l7.5,0M60.46,84.77l7.5,0M60.46,7.11l7.5,0"/>
</g>
<g stroke-width="1" transform="matrix(0 -1 1 0 30.46 271.07)" fill="none">
<path d="m10.03,-3.2l0.28,0.06l-0.98,3.14l-8.98,0l0,-0.31l0.44,0c0.49,0,0.84,-0.16,1.06,-0.48c0.11,-0.18,0.17,-0.6,0.17,-1.27l0,-7.47c0,-0.73,-0.08,-1.18,-0.23,-1.36c-0.23,-0.25,-0.56,-0.37,-1,-0.37l-0.44,0l0,-0.33l5.25,0l0,0.33c-0.61,-0.01,-1.04,0.04,-1.29,0.16c-0.24,0.12,-0.41,0.27,-0.51,0.45c-0.09,0.18,-0.14,0.62,-0.14,1.3l0,7.28c0,0.48,0.05,0.81,0.14,0.98c0.06,0.11,0.17,0.2,0.31,0.26c0.15,0.06,0.59,0.09,1.33,0.09l0.86,0c0.89,0,1.51,-0.07,1.87,-0.2c0.36,-0.13,0.69,-0.36,0.98,-0.7c0.3,-0.33,0.59,-0.86,0.88,-1.58m2.83,-1.67c0,1.16,0.28,2.07,0.84,2.73c0.57,0.66,1.24,0.98,2.02,0.98c0.51,0,0.96,-0.14,1.34,-0.42c0.38,-0.28,0.7,-0.77,0.95,-1.45l0.27,0.17c-0.11,0.78,-0.46,1.49,-1.04,2.13c-0.58,0.64,-1.3,0.96,-2.16,0.96c-0.94,0,-1.74,-0.36,-2.41,-1.09c-0.67,-0.73,-1,-1.71,-1,-2.95c0,-1.33,0.34,-2.37,1.02,-3.12c0.68,-0.75,1.54,-1.12,2.59,-1.12c0.87,0,1.59,0.29,2.16,0.87c0.56,0.58,0.84,1.35,0.84,2.32l-5.41,0m0,-0.5l3.62,0c-0.03,-0.5,-0.09,-0.85,-0.17,-1.06c-0.15,-0.31,-0.36,-0.56,-0.64,-0.74c-0.28,-0.18,-0.58,-0.27,-0.89,-0.27c-0.47,0,-0.89,0.18,-1.27,0.55c-0.37,0.36,-0.59,0.87,-0.66,1.53m9.75,-1.84l0,5.16c0,0.73,0.08,1.19,0.23,1.37c0.21,0.25,0.49,0.37,0.84,0.37l0.72,0l0,0.31l-4.69,0l0,-0.31l0.36,0c0.23,0,0.44,-0.06,0.62,-0.17c0.19,-0.11,0.32,-0.27,0.39,-0.46c0.07,-0.19,0.11,-0.57,0.11,-1.12l0,-5.16l-1.53,0l0,-0.61l1.53,0l0,-0.52c0,-0.78,0.12,-1.44,0.37,-1.98c0.25,-0.54,0.63,-0.98,1.15,-1.31c0.52,-0.33,1.09,-0.5,1.73,-0.5c0.6,0,1.16,0.2,1.66,0.59c0.33,0.25,0.5,0.54,0.5,0.86c0,0.17,-0.08,0.33,-0.23,0.48c-0.15,0.15,-0.31,0.23,-0.48,0.23c-0.14,0,-0.28,-0.05,-0.42,-0.14c-0.15,-0.09,-0.32,-0.29,-0.53,-0.6c-0.21,-0.31,-0.4,-0.52,-0.58,-0.63c-0.18,-0.1,-0.37,-0.16,-0.59,-0.16c-0.26,0,-0.48,0.07,-0.66,0.21c-0.18,0.14,-0.31,0.36,-0.39,0.65c-0.08,0.29,-0.12,1.05,-0.12,2.27l0,0.56l2.02,0l0,0.61l-2.02,0m5.2,-3.19l0,2.58l1.84,0l0,0.59l-1.84,0l0,5.08c0,0.51,0.07,0.85,0.22,1.03c0.15,0.18,0.33,0.27,0.56,0.27c0.19,0,0.37,-0.06,0.55,-0.18c0.18,-0.12,0.31,-0.29,0.41,-0.52l0.34,0c-0.2,0.56,-0.48,0.98,-0.84,1.27c-0.36,0.28,-0.74,0.42,-1.14,0.42c-0.26,0,-0.52,-0.07,-0.77,-0.22c-0.25,-0.15,-0.43,-0.35,-0.55,-0.62c-0.12,-0.27,-0.18,-0.69,-0.18,-1.25l0,-5.27l-1.23,0l0,-0.28c0.31,-0.12,0.63,-0.34,0.96,-0.63c0.33,-0.3,0.62,-0.65,0.88,-1.07c0.12,-0.21,0.31,-0.6,0.55,-1.19l0.25,0m12.17,9.28c-0.8,0.61,-1.31,0.97,-1.52,1.08c-0.3,0.14,-0.63,0.2,-0.98,0.2c-0.54,0,-0.99,-0.18,-1.34,-0.55c-0.35,-0.37,-0.52,-0.86,-0.52,-1.46c0,-0.37,0.08,-0.7,0.25,-0.98c0.24,-0.39,0.65,-0.75,1.23,-1.09c0.58,-0.34,1.54,-0.76,2.88,-1.25l0,-0.31c0,-0.78,-0.12,-1.32,-0.37,-1.6c-0.25,-0.29,-0.61,-0.43,-1.08,-0.43c-0.36,0,-0.65,0.09,-0.86,0.28c-0.22,0.2,-0.33,0.42,-0.33,0.67l0.02,0.5c0,0.26,-0.07,0.46,-0.2,0.6c-0.13,0.14,-0.3,0.21,-0.52,0.21c-0.21,0,-0.38,-0.07,-0.52,-0.22c-0.14,-0.15,-0.2,-0.35,-0.2,-0.61c0,-0.49,0.25,-0.94,0.75,-1.35c0.5,-0.41,1.2,-0.62,2.11,-0.62c0.7,0,1.27,0.12,1.72,0.36c0.33,0.18,0.58,0.45,0.73,0.83c0.1,0.24,0.16,0.74,0.16,1.5l0,2.66c0,0.75,0.02,1.21,0.05,1.37c0.03,0.17,0.08,0.28,0.14,0.34c0.06,0.06,0.14,0.09,0.22,0.09c0.09,0,0.18,-0.02,0.25,-0.06c0.11,-0.07,0.34,-0.28,0.69,-0.62l0,0.48c-0.64,0.85,-1.24,1.28,-1.83,1.28c-0.28,0,-0.51,-0.1,-0.67,-0.29c-0.17,-0.19,-0.25,-0.52,-0.25,-0.99m0,-0.56l0,-2.98c-0.86,0.34,-1.42,0.59,-1.67,0.73c-0.45,0.25,-0.77,0.51,-0.96,0.78c-0.19,0.27,-0.29,0.57,-0.29,0.91c0,0.41,0.12,0.74,0.37,1.02c0.24,0.27,0.52,0.41,0.84,0.41c0.44,0,1.01,-0.29,1.72,-0.86m3.25,-6.14l3.67,0l0,0.31c-0.23,0,-0.39,0.04,-0.48,0.12c-0.09,0.08,-0.14,0.19,-0.14,0.31c0,0.14,0.1,0.35,0.3,0.64c0.06,0.08,0.16,0.22,0.28,0.42l0.56,0.89l0.64,-0.89c0.41,-0.56,0.61,-0.92,0.61,-1.06c0,-0.12,-0.05,-0.23,-0.14,-0.31c-0.09,-0.08,-0.25,-0.12,-0.47,-0.12l0,-0.31l2.64,0l0,0.31c-0.28,0.02,-0.52,0.1,-0.72,0.23c-0.28,0.2,-0.66,0.62,-1.14,1.27l-1.08,1.42l1.95,2.81c0.48,0.69,0.82,1.1,1.02,1.24c0.2,0.14,0.47,0.22,0.79,0.23l0,0.31l-3.69,0l0,-0.31c0.26,0,0.46,-0.06,0.59,-0.17c0.11,-0.07,0.17,-0.18,0.17,-0.31c0,-0.12,-0.18,-0.45,-0.55,-0.98l-1.16,-1.67l-1.25,1.67c-0.39,0.51,-0.58,0.82,-0.58,0.92c0,0.14,0.07,0.26,0.2,0.37c0.13,0.11,0.32,0.17,0.57,0.18l0,0.31l-2.55,0l0,-0.31c0.2,-0.02,0.37,-0.09,0.53,-0.2c0.22,-0.17,0.58,-0.59,1.09,-1.27l1.64,-2.19l-1.48,-2.16c-0.43,-0.61,-0.76,-1,-0.98,-1.16c-0.23,-0.16,-0.52,-0.23,-0.86,-0.23l0,-0.31m10.3,-4.33c0.24,0,0.45,0.09,0.62,0.26c0.17,0.17,0.26,0.38,0.26,0.62c0,0.24,-0.09,0.44,-0.26,0.61c-0.17,0.17,-0.38,0.25,-0.62,0.25c-0.24,0,-0.44,-0.08,-0.61,-0.25c-0.17,-0.17,-0.25,-0.37,-0.25,-0.61c0,-0.24,0.08,-0.45,0.25,-0.62c0.17,-0.17,0.37,-0.26,0.61,-0.26m0.72,4.09l0,6.3c0,0.49,0.03,0.82,0.1,0.98c0.07,0.16,0.17,0.28,0.31,0.36c0.14,0.08,0.4,0.12,0.77,0.12l0,0.31l-3.81,0l0,-0.31c0.39,0,0.64,-0.04,0.77,-0.11c0.13,-0.07,0.23,-0.2,0.31,-0.37c0.08,-0.17,0.12,-0.5,0.12,-0.98l0,-3.02c0,-0.85,-0.03,-1.41,-0.08,-1.66c-0.04,-0.18,-0.1,-0.3,-0.19,-0.37c-0.08,-0.07,-0.2,-0.11,-0.34,-0.11c-0.17,0,-0.36,0.04,-0.59,0.12l-0.11,-0.3l2.36,-0.97l0.37,0m6.36,0l0,2.67l-0.28,0c-0.22,-0.83,-0.5,-1.4,-0.84,-1.7c-0.34,-0.3,-0.77,-0.45,-1.29,-0.45c-0.41,0,-0.73,0.1,-0.98,0.31c-0.24,0.21,-0.37,0.44,-0.37,0.7c0,0.31,0.09,0.58,0.28,0.81c0.18,0.24,0.54,0.49,1.08,0.75l1.23,0.61c1.16,0.56,1.73,1.3,1.73,2.22c0,0.72,-0.27,1.29,-0.8,1.73c-0.54,0.43,-1.14,0.65,-1.8,0.65c-0.48,0,-1.03,-0.08,-1.64,-0.25c-0.19,-0.06,-0.34,-0.09,-0.45,-0.09c-0.14,0,-0.24,0.08,-0.31,0.23l-0.28,0l0,-2.8l0.28,0c0.16,0.79,0.46,1.39,0.91,1.8c0.45,0.41,0.96,0.61,1.51,0.61c0.4,0,0.72,-0.11,0.97,-0.34c0.25,-0.23,0.37,-0.51,0.37,-0.83c0,-0.4,-0.14,-0.73,-0.41,-1c-0.28,-0.27,-0.83,-0.61,-1.66,-1.02c-0.83,-0.41,-1.37,-0.78,-1.63,-1.11c-0.25,-0.32,-0.37,-0.73,-0.37,-1.23c0,-0.65,0.22,-1.18,0.66,-1.62c0.44,-0.43,1.01,-0.65,1.72,-0.65c0.3,0,0.67,0.07,1.11,0.2c0.29,0.08,0.49,0.12,0.59,0.12c0.08,0,0.15,-0.02,0.2,-0.06c0.05,-0.04,0.11,-0.13,0.19,-0.27l0.28,0" fill="#000000" stroke="none" fill-opacity="1"/>
</g>
<g stroke-width="1" fill="none">
<path d="m49.08,473.3c0,-1.32,0.2,-2.46,0.6,-3.41c0.4,-0.95,0.93,-1.66,1.59,-2.13c0.52,-0.37,1.05,-0.56,1.59,-0.56c0.9,0,1.69,0.45,2.39,1.36c0.89,1.12,1.33,2.65,1.33,4.56c0,1.34,-0.19,2.49,-0.58,3.43c-0.39,0.94,-0.88,1.62,-1.48,2.05c-0.6,0.42,-1.18,0.63,-1.73,0.63c-1.1,0,-2.03,-0.65,-2.77,-1.95c-0.62,-1.1,-0.94,-2.43,-0.94,-3.97m1.69,0.2c0,1.59,0.19,2.9,0.58,3.91c0.33,0.85,0.82,1.28,1.45,1.28c0.31,0,0.63,-0.14,0.96,-0.41c0.33,-0.28,0.58,-0.74,0.76,-1.4c0.26,-0.98,0.39,-2.36,0.39,-4.14c0,-1.32,-0.14,-2.43,-0.41,-3.31c-0.21,-0.65,-0.47,-1.11,-0.8,-1.39c-0.24,-0.19,-0.52,-0.28,-0.84,-0.28c-0.4,0,-0.74,0.18,-1.05,0.53c-0.41,0.47,-0.68,1.21,-0.83,2.23c-0.15,1.02,-0.22,2.01,-0.22,2.99" fill="#000000" stroke="none" fill-opacity="1"/>
<path d="m56.05,389.77l-0.66,1.45l-3.5,0l-0.75,1.56c1.51,0.22,2.7,0.78,3.58,1.69c0.76,0.77,1.14,1.68,1.14,2.73c0,0.6,-0.12,1.17,-0.37,1.69c-0.24,0.52,-0.56,0.96,-0.94,1.33c-0.38,0.36,-0.8,0.66,-1.26,0.87c-0.66,0.31,-1.33,0.47,-2.02,0.47c-0.7,0,-1.2,-0.12,-1.52,-0.35c-0.31,-0.23,-0.47,-0.5,-0.47,-0.79c0,-0.16,0.07,-0.29,0.2,-0.41c0.13,-0.12,0.29,-0.18,0.49,-0.18c0.15,0,0.27,0.02,0.38,0.06c0.11,0.04,0.3,0.16,0.57,0.34c0.43,0.3,0.86,0.45,1.3,0.45c0.67,0,1.25,-0.25,1.76,-0.76c0.51,-0.51,0.76,-1.12,0.76,-1.84c0,-0.71,-0.22,-1.36,-0.67,-1.97c-0.45,-0.6,-1.07,-1.07,-1.86,-1.41c-0.62,-0.26,-1.47,-0.41,-2.55,-0.44l2.22,-4.52l4.16,0" fill="#000000" stroke="none" fill-opacity="1"/>
<path d="m41.5,313.27l2.83,-1.37l0.28,0l0,9.78c0,0.66,0.03,1.06,0.08,1.22c0.05,0.16,0.16,0.28,0.34,0.37c0.17,0.09,0.52,0.14,1.04,0.15l0,0.31l-4.36,0l0,-0.31c0.55,-0.01,0.91,-0.06,1.07,-0.14c0.16,-0.08,0.27,-0.2,0.34,-0.34c0.06,-0.14,0.09,-0.56,0.09,-1.26l0,-6.25c0,-0.84,-0.03,-1.39,-0.09,-1.62c-0.04,-0.18,-0.11,-0.31,-0.22,-0.4c-0.1,-0.09,-0.23,-0.13,-0.37,-0.13c-0.21,0,-0.51,0.09,-0.89,0.27l-0.12,-0.27m7.58,4.73c0,-1.32,0.2,-2.46,0.6,-3.41c0.4,-0.95,0.93,-1.66,1.59,-2.13c0.52,-0.37,1.05,-0.56,1.59,-0.56c0.9,0,1.69,0.45,2.39,1.36c0.89,1.12,1.33,2.65,1.33,4.56c0,1.34,-0.19,2.49,-0.58,3.43c-0.39,0.94,-0.88,1.62,-1.48,2.05c-0.6,0.42,-1.18,0.63,-1.73,0.63c-1.1,0,-2.03,-0.65,-2.77,-1.95c-0.62,-1.1,-0.94,-2.43,-0.94,-3.97m1.69,0.2c0,1.59,0.19,2.9,0.58,3.91c0.33,0.85,0.82,1.28,1.45,1.28c0.31,0,0.63,-0.14,0.96,-0.41c0.33,-0.28,0.58,-0.74,0.76,-1.4c0.26,-0.98,0.39,-2.36,0.39,-4.14c0,-1.32,-0.14,-2.43,-0.41,-3.31c-0.21,-0.65,-0.47,-1.11,-0.8,-1.39c-0.24,-0.19,-0.52,-0.28,-0.84,-0.28c-0.4,0,-0.74,0.18,-1.05,0.53c-0.41,0.47,-0.68,1.21,-0.83,2.23c-0.15,1.02,-0.22,2.01,-0.22,2.99" fill="#000000" stroke="none" fill-opacity="1"/>
<path d="m41.5,235.61l2.83,-1.37l0.28,0l0,9.78c0,0.66,0.03,1.06,0.08,1.22c0.05,0.16,0.16,0.28,0.34,0.37c0.17,0.09,0.52,0.14,1.04,0.15l0,0.31l-4.36,0l0,-0.31c0.55,-0.01,0.91,-0.06,1.07,-0.14c0.16,-0.08,0.27,-0.2,0.34,-0.34c0.06,-0.14,0.09,-0.56,0.09,-1.26l0,-6.25c0,-0.84,-0.03,-1.39,-0.09,-1.62c-0.04,-0.18,-0.11,-0.31,-0.22,-0.4c-0.1,-0.09,-0.23,-0.13,-0.37,-0.13c-0.21,0,-0.51,0.09,-0.89,0.27l-0.12,-0.27m14.55,-1.14l-0.66,1.45l-3.5,0l-0.75,1.56c1.51,0.22,2.7,0.78,3.58,1.69c0.76,0.77,1.14,1.68,1.14,2.73c0,0.6,-0.12,1.17,-0.37,1.69c-0.24,0.52,-0.56,0.96,-0.94,1.33c-0.38,0.36,-0.8,0.66,-1.26,0.87c-0.66,0.31,-1.33,0.47,-2.02,0.47c-0.7,0,-1.2,-0.12,-1.52,-0.35c-0.31,-0.23,-0.47,-0.5,-0.47,-0.79c0,-0.16,0.07,-0.29,0.2,-0.41c0.13,-0.12,0.29,-0.18,0.49,-0.18c0.15,0,0.27,0.02,0.38,0.06c0.11,0.04,0.3,0.16,0.57,0.34c0.43,0.3,0.86,0.45,1.3,0.45c0.67,0,1.25,-0.25,1.76,-0.76c0.51,-0.51,0.76,-1.12,0.76,-1.84c0,-0.71,-0.22,-1.36,-0.67,-1.97c-0.45,-0.6,-1.07,-1.07,-1.86,-1.41c-0.62,-0.26,-1.47,-0.41,-2.55,-0.44l2.22,-4.52l4.16,0" fill="#000000" stroke="none" fill-opacity="1"/>
<path d="m47.48,166.17l-0.81,2.23l-6.84,0l0,-0.31c2.01,-1.83,3.43,-3.33,4.25,-4.49c0.82,-1.16,1.23,-2.23,1.23,-3.2c0,-0.73,-0.23,-1.33,-0.68,-1.8c-0.45,-0.47,-0.99,-0.71,-1.62,-0.71c-0.57,0,-1.09,0.17,-1.54,0.5c-0.45,0.33,-0.78,0.82,-0.99,1.47l-0.33,0c0.15,-1.06,0.51,-1.87,1.1,-2.44c0.59,-0.56,1.33,-0.84,2.21,-0.84c0.94,0,1.72,0.3,2.35,0.91c0.63,0.6,0.95,1.32,0.95,2.14c0,0.58,-0.14,1.17,-0.41,1.75c-0.43,0.93,-1.11,1.91,-2.05,2.94c-1.43,1.55,-2.31,2.48,-2.66,2.8l3.02,0c0.61,0,1.05,-0.02,1.3,-0.06c0.25,-0.04,0.47,-0.13,0.67,-0.27c0.2,-0.14,0.37,-0.34,0.52,-0.6l0.33,0m1.59,-3.48c0,-1.32,0.2,-2.46,0.6,-3.41c0.4,-0.95,0.93,-1.66,1.59,-2.13c0.52,-0.37,1.05,-0.56,1.59,-0.56c0.9,0,1.69,0.45,2.39,1.36c0.89,1.12,1.33,2.65,1.33,4.56c0,1.34,-0.19,2.49,-0.58,3.43c-0.39,0.94,-0.88,1.62,-1.48,2.05c-0.6,0.42,-1.18,0.63,-1.73,0.63c-1.1,0,-2.03,-0.65,-2.77,-1.95c-0.62,-1.1,-0.94,-2.43,-0.94,-3.97m1.69,0.2c0,1.59,0.19,2.9,0.58,3.91c0.33,0.85,0.82,1.28,1.45,1.28c0.31,0,0.63,-0.14,0.96,-0.41c0.33,-0.28,0.58,-0.74,0.76,-1.4c0.26,-0.98,0.39,-2.36,0.39,-4.14c0,-1.32,-0.14,-2.43,-0.41,-3.31c-0.21,-0.65,-0.47,-1.11,-0.8,-1.39c-0.24,-0.19,-0.52,-0.28,-0.84,-0.28c-0.4,0,-0.74,0.18,-1.05,0.53c-0.41,0.47,-0.68,1.21,-0.83,2.23c-0.15,1.02,-0.22,2.01,-0.22,2.99" fill="#000000" stroke="none" fill-opacity="1"/>
<path d="m47.48,88.52l-0.81,2.23l-6.84,0l0,-0.31c2.01,-1.83,3.43,-3.33,4.25,-4.49c0.82,-1.16,1.23,-2.23,1.23,-3.2c0,-0.73,-0.23,-1.33,-0.68,-1.8c-0.45,-0.47,-0.99,-0.71,-1.62,-0.71c-0.57,0,-1.09,0.17,-1.54,0.5c-0.45,0.33,-0.78,0.82,-0.99,1.47l-0.33,0c0.15,-1.06,0.51,-1.87,1.1,-2.44c0.59,-0.56,1.33,-0.84,2.21,-0.84c0.94,0,1.72,0.3,2.35,0.91c0.63,0.6,0.95,1.32,0.95,2.14c0,0.58,-0.14,1.17,-0.41,1.75c-0.43,0.93,-1.11,1.91,-2.05,2.94c-1.43,1.55,-2.31,2.48,-2.66,2.8l3.02,0c0.61,0,1.05,-0.02,1.3,-0.06c0.25,-0.04,0.47,-0.13,0.67,-0.27c0.2,-0.14,0.37,-0.34,0.52,-0.6l0.33,0m8.56,-9.36l-0.66,1.45l-3.5,0l-0.75,1.56c1.51,0.22,2.7,0.78,3.58,1.69c0.76,0.77,1.14,1.68,1.14,2.73c0,0.6,-0.12,1.17,-0.37,1.69c-0.24,0.52,-0.56,0.96,-0.94,1.33c-0.38,0.36,-0.8,0.66,-1.26,0.87c-0.66,0.31,-1.33,0.47,-2.02,0.47c-0.7,0,-1.2,-0.12,-1.52,-0.35c-0.31,-0.23,-0.47,-0.5,-0.47,-0.79c0,-0.16,0.07,-0.29,0.2,-0.41c0.13,-0.12,0.29,-0.18,0.49,-0.18c0.15,0,0.27,0.02,0.38,0.06c0.11,0.04,0.3,0.16,0.57,0.34c0.43,0.3,0.86,0.45,1.3,0.45c0.67,0,1.25,-0.25,1.76,-0.76c0.51,-0.51,0.76,-1.12,0.76,-1.84c0,-0.71,-0.22,-1.36,-0.67,-1.97c-0.45,-0.6,-1.07,-1.07,-1.86,-1.41c-0.62,-0.26,-1.47,-0.41,-2.55,-0.44l2.22,-4.52l4.16,0" fill="#000000" stroke="none" fill-opacity="1"/>
<path d="m40.34,6.62c0.33,-0.78,0.75,-1.39,1.25,-1.81c0.5,-0.43,1.13,-0.64,1.89,-0.64c0.93,0,1.64,0.3,2.12,0.91c0.37,0.45,0.56,0.93,0.56,1.45c0,0.83,-0.53,1.7,-1.58,2.61c0.71,0.28,1.24,0.68,1.61,1.2c0.36,0.52,0.55,1.12,0.55,1.82c0,1.01,-0.32,1.88,-0.95,2.61c-0.83,0.96,-2.04,1.44,-3.62,1.44c-0.77,0,-1.3,-0.1,-1.59,-0.29c-0.29,-0.19,-0.43,-0.4,-0.43,-0.62c0,-0.17,0.07,-0.31,0.2,-0.44c0.14,-0.12,0.3,-0.19,0.48,-0.19c0.15,0,0.29,0.02,0.44,0.06c0.09,0.03,0.31,0.14,0.66,0.31c0.34,0.18,0.58,0.29,0.72,0.33c0.21,0.06,0.43,0.09,0.67,0.09c0.58,0,1.09,-0.23,1.52,-0.68c0.43,-0.45,0.64,-0.99,0.64,-1.6c0,-0.45,-0.1,-0.89,-0.3,-1.31c-0.15,-0.32,-0.31,-0.57,-0.48,-0.73c-0.25,-0.23,-0.59,-0.43,-1.02,-0.62c-0.43,-0.18,-0.86,-0.27,-1.3,-0.27l-0.28,0l0,-0.25c0.45,-0.06,0.9,-0.23,1.35,-0.49c0.45,-0.27,0.78,-0.59,0.99,-0.97c0.21,-0.38,0.31,-0.79,0.31,-1.24c0,-0.58,-0.18,-1.06,-0.55,-1.42c-0.37,-0.36,-0.83,-0.55,-1.37,-0.55c-0.89,0,-1.62,0.47,-2.22,1.42l-0.28,-0.12m8.73,3.66c0,-1.32,0.2,-2.46,0.6,-3.41c0.4,-0.95,0.93,-1.66,1.59,-2.13c0.52,-0.37,1.05,-0.56,1.59,-0.56c0.9,0,1.69,0.45,2.39,1.36c0.89,1.12,1.33,2.65,1.33,4.56c0,1.34,-0.19,2.49,-0.58,3.43c-0.39,0.94,-0.88,1.62,-1.48,2.05c-0.6,0.42,-1.18,0.63,-1.73,0.63c-1.1,0,-2.03,-0.65,-2.77,-1.95c-0.62,-1.1,-0.94,-2.43,-0.94,-3.97m1.69,0.2c0,1.59,0.19,2.9,0.58,3.91c0.33,0.85,0.82,1.28,1.45,1.28c0.31,0,0.63,-0.14,0.96,-0.41c0.33,-0.28,0.58,-0.74,0.76,-1.4c0.26,-0.98,0.39,-2.36,0.39,-4.14c0,-1.32,-0.14,-2.43,-0.41,-3.31c-0.21,-0.65,-0.47,-1.11,-0.8,-1.39c-0.24,-0.19,-0.52,-0.28,-0.84,-0.28c-0.4,0,-0.74,0.18,-1.05,0.53c-0.41,0.47,-0.68,1.21,-0.83,2.23c-0.15,1.02,-0.22,2.01,-0.22,2.99" fill="#000000" stroke="none" fill-opacity="1"/>
</g>
<g stroke-width="0.62" stroke-linecap="butt" fill="none">
<path d="M60.46,473.03l412.56,0"/>
<path d="M60.46,473.03l0,-3.75M94.84,473.03l0,-3.75M129.22,473.03l0,-3.75M163.6,473.03l0,-3.75M197.98,473.03l0,-3.75M232.36,473.03l0,-3.75M266.74,473.03l0,-3.75M301.12,473.03l0,-3.75M335.51,473.03l0,-3.75M369.89,473.03l0,-3.75M404.27,473.03l0,-3.75M438.65,473.03l0,-3.75M473.03,473.03l0,-3.75"/>
<path d="M60.46,473.03l0,-7.5M129.22,473.03l0,-7.5M197.98,473.03l0,-7.5M266.74,473.03l0,-7.5M335.51,473.03l0,-7.5M404.27,473.03l0,-7.5M473.03,473.03l0,-7.5"/>
<path d="M60.46,7.11l412.56,0"/>
<path d="M60.46,7.11l0,3.75M94.84,7.11l0,3.75M129.22,7.11l0,3.75M163.6,7.11l0,3.75M197.98,7.11l0,3.75M232.36,7.11l0,3.75M266.74,7.11l0,3.75M301.12,7.11l0,3.75M335.51,7.11l0,3.75M369.89,7.11l0,3.75M404.27,7.11l0,3.75M438.65,7.11l0,3.75M473.03,7.11l0,3.75"/>
<path d="M60.46,7.11l0,7.5M129.22,7.11l0,7.5M197.98,7.11l0,7.5M266.74,7.11l0,7.5M335.51,7.11l0,7.5M404.27,7.11l0,7.5M473.03,7.11l0,7.5"/>
</g>
<g stroke-width="1" fill="none">
<path d="m249.77,506.28c0.28,0.3,0.49,0.6,0.64,0.89c0.09,0.21,0.26,0.74,0.5,1.61l0.75,-1.12c0.2,-0.27,0.44,-0.53,0.73,-0.78c0.29,-0.25,0.54,-0.42,0.76,-0.5c0.14,-0.06,0.29,-0.09,0.45,-0.09c0.24,0,0.43,0.07,0.58,0.2c0.15,0.13,0.22,0.29,0.22,0.48c0,0.22,-0.04,0.37,-0.12,0.45c-0.17,0.14,-0.35,0.2,-0.55,0.2c-0.12,0,-0.26,-0.03,-0.39,-0.08c-0.27,-0.08,-0.45,-0.12,-0.53,-0.12c-0.14,0,-0.3,0.08,-0.48,0.23c-0.35,0.29,-0.78,0.86,-1.27,1.72l0.69,2.94c0.11,0.45,0.21,0.72,0.28,0.8c0.07,0.09,0.15,0.13,0.22,0.13c0.12,0,0.27,-0.06,0.42,-0.19c0.31,-0.27,0.58,-0.61,0.8,-1.03l0.31,0.16c-0.36,0.67,-0.82,1.22,-1.37,1.67c-0.31,0.25,-0.58,0.37,-0.8,0.37c-0.31,0,-0.56,-0.18,-0.75,-0.53c-0.12,-0.23,-0.37,-1.19,-0.75,-2.87c-0.89,1.54,-1.6,2.54,-2.14,2.98c-0.34,0.28,-0.68,0.42,-1,0.42c-0.23,0,-0.44,-0.08,-0.62,-0.25c-0.14,-0.12,-0.2,-0.29,-0.2,-0.5c0,-0.19,0.06,-0.34,0.19,-0.47c0.12,-0.12,0.28,-0.19,0.45,-0.19c0.19,0,0.38,0.09,0.58,0.27c0.16,0.14,0.27,0.2,0.34,0.2c0.07,0,0.16,-0.05,0.27,-0.14c0.27,-0.22,0.64,-0.68,1.1,-1.4c0.46,-0.71,0.76,-1.23,0.9,-1.55c-0.35,-1.39,-0.54,-2.12,-0.56,-2.2c-0.14,-0.36,-0.31,-0.62,-0.52,-0.78c-0.21,-0.16,-0.52,-0.23,-0.93,-0.23c-0.12,0,-0.28,0.01,-0.45,0.02l0,-0.3l2.28,-0.41" fill="#000000" stroke="none" fill-opacity="1"/>
<path d="m264.72,512.89c-0.8,0.61,-1.31,0.97,-1.52,1.08c-0.3,0.14,-0.63,0.2,-0.98,0.2c-0.54,0,-0.99,-0.18,-1.34,-0.55c-0.35,-0.37,-0.52,-0.86,-0.52,-1.46c0,-0.37,0.08,-0.7,0.25,-0.98c0.24,-0.39,0.65,-0.75,1.23,-1.09c0.58,-0.34,1.54,-0.76,2.88,-1.25l0,-0.31c0,-0.78,-0.12,-1.32,-0.37,-1.6c-0.25,-0.29,-0.61,-0.43,-1.08,-0.43c-0.36,0,-0.65,0.09,-0.86,0.28c-0.22,0.2,-0.33,0.42,-0.33,0.67l0.02,0.5c0,0.26,-0.07,0.46,-0.2,0.6c-0.13,0.14,-0.3,0.21,-0.52,0.21c-0.21,0,-0.38,-0.07,-0.52,-0.22c-0.14,-0.15,-0.2,-0.35,-0.2,-0.61c0,-0.49,0.25,-0.94,0.75,-1.35c0.5,-0.41,1.2,-0.62,2.11,-0.62c0.7,0,1.27,0.12,1.72,0.36c0.33,0.18,0.58,0.45,0.73,0.83c0.1,0.24,0.16,0.74,0.16,1.5l0,2.66c0,0.75,0.02,1.21,0.05,1.37c0.03,0.17,0.08,0.28,0.14,0.34c0.06,0.06,0.14,0.09,0.22,0.09c0.09,0,0.18,-0.02,0.25,-0.06c0.11,-0.07,0.34,-0.28,0.69,-0.62l0,0.48c-0.64,0.85,-1.24,1.28,-1.83,1.28c-0.28,0,-0.51,-0.1,-0.67,-0.29c-0.17,-0.19,-0.25,-0.52,-0.25,-0.99m0,-0.56l0,-2.98c-0.86,0.34,-1.42,0.59,-1.67,0.73c-0.45,0.25,-0.77,0.51,-0.96,0.78c-0.19,0.27,-0.29,0.57,-0.29,0.91c0,0.41,0.12,0.74,0.37,1.02c0.24,0.27,0.52,0.41,0.84,0.41c0.44,0,1.01,-0.29,1.72,-0.86m3.25,-6.14l3.67,0l0,0.31c-0.23,0,-0.39,0.04,-0.48,0.12c-0.09,0.08,-0.14,0.19,-0.14,0.31c0,0.14,0.1,0.35,0.3,0.64c0.06,0.08,0.16,0.22,0.28,0.42l0.56,0.89l0.64,-0.89c0.41,-0.56,0.61,-0.92,0.61,-1.06c0,-0.12,-0.05,-0.23,-0.14,-0.31c-0.09,-0.08,-0.25,-0.12,-0.47,-0.12l0,-0.31l2.64,0l0,0.31c-0.28,0.02,-0.52,0.1,-0.72,0.23c-0.28,0.2,-0.66,0.62,-1.14,1.27l-1.08,1.42l1.95,2.81c0.48,0.69,0.82,1.1,1.02,1.24c0.2,0.14,0.47,0.22,0.79,0.23l0,0.31l-3.69,0l0,-0.31c0.26,0,0.46,-0.06,0.59,-0.17c0.11,-0.07,0.17,-0.18,0.17,-0.31c0,-0.12,-0.18,-0.45,-0.55,-0.98l-1.16,-1.67l-1.25,1.67c-0.39,0.51,-0.58,0.82,-0.58,0.92c0,0.14,0.07,0.26,0.2,0.37c0.13,0.11,0.32,0.17,0.57,0.18l0,0.31l-2.55,0l0,-0.31c0.2,-0.02,0.37,-0.09,0.53,-0.2c0.22,-0.17,0.58,-0.59,1.09,-1.27l1.64,-2.19l-1.48,-2.16c-0.43,-0.61,-0.76,-1,-0.98,-1.16c-0.23,-0.16,-0.52,-0.23,-0.86,-0.23l0,-0.31m10.3,-4.33c0.24,0,0.45,0.09,0.62,0.26c0.17,0.17,0.26,0.38,0.26,0.62c0,0.24,-0.09,0.44,-0.26,0.61c-0.17,0.17,-0.38,0.25,-0.62,0.25c-0.24,0,-0.44,-0.08,-0.61,-0.25c-0.17,-0.17,-0.25,-0.37,-0.25,-0.61c0,-0.24,0.08,-0.45,0.25,-0.62c0.17,-0.17,0.37,-0.26,0.61,-0.26m0.72,4.09l0,6.3c0,0.49,0.03,0.82,0.1,0.98c0.07,0.16,0.17,0.28,0.31,0.36c0.14,0.08,0.4,0.12,0.77,0.12l0,0.31l-3.81,0l0,-0.31c0.39,0,0.64,-0.04,0.77,-0.11c0.13,-0.07,0.23,-0.2,0.31,-0.37c0.08,-0.17,0.12,-0.5,0.12,-0.98l0,-3.02c0,-0.85,-0.03,-1.41,-0.08,-1.66c-0.04,-0.18,-0.1,-0.3,-0.19,-0.37c-0.08,-0.07,-0.2,-0.11,-0.34,-0.11c-0.17,0,-0.36,0.04,-0.59,0.12l-0.11,-0.3l2.36,-0.97l0.37,0m6.36,0l0,2.67l-0.28,0c-0.22,-0.83,-0.5,-1.4,-0.84,-1.7c-0.34,-0.3,-0.77,-0.45,-1.29,-0.45c-0.41,0,-0.73,0.1,-0.98,0.31c-0.24,0.21,-0.37,0.44,-0.37,0.7c0,0.31,0.09,0.58,0.28,0.81c0.18,0.24,0.54,0.49,1.08,0.75l1.23,0.61c1.16,0.56,1.73,1.3,1.73,2.22c0,0.72,-0.27,1.29,-0.8,1.73c-0.54,0.43,-1.14,0.65,-1.8,0.65c-0.48,0,-1.03,-0.08,-1.64,-0.25c-0.19,-0.06,-0.34,-0.09,-0.45,-0.09c-0.14,0,-0.24,0.08,-0.31,0.23l-0.28,0l0,-2.8l0.28,0c0.16,0.79,0.46,1.39,0.91,1.8c0.45,0.41,0.96,0.61,1.51,0.61c0.4,0,0.72,-0.11,0.97,-0.34c0.25,-0.23,0.37,-0.51,0.37,-0.83c0,-0.4,-0.14,-0.73,-0.41,-1c-0.28,-0.27,-0.83,-0.61,-1.66,-1.02c-0.83,-0.41,-1.37,-0.78,-1.63,-1.11c-0.25,-0.32,-0.37,-0.73,-0.37,-1.23c0,-0.65,0.22,-1.18,0.66,-1.62c0.44,-0.43,1.01,-0.65,1.72,-0.65c0.3,0,0.67,0.07,1.11,0.2c0.29,0.08,0.49,0.12,0.59,0.12c0.08,0,0.15,-0.02,0.2,-0.06c0.05,-0.04,0.11,-0.13,0.19,-0.27l0.28,0" fill="#000000" stroke="none" fill-opacity="1"/>
<path d="m53.48,486.55l-9.22,0l0,-0.7l9.22,0l0,0.7m2.52,-4.98l2.83,-1.37l0.28,0l0,9.78c0,0.66,0.03,1.06,0.08,1.22c0.05,0.16,0.16,0.28,0.34,0.37c0.17,0.09,0.52,0.14,1.04,0.15l0,0.31l-4.36,0l0,-0.31c0.55,-0.01,0.91,-0.06,1.07,-0.14c0.16,-0.08,0.27,-0.2,0.34,-0.34c0.06,-0.14,0.09,-0.56,0.09,-1.26l0,-6.25c0,-0.84,-0.03,-1.39,-0.09,-1.62c-0.04,-0.18,-0.11,-0.31,-0.22,-0.4c-0.1,-0.09,-0.23,-0.13,-0.37,-0.13c-0.21,0,-0.51,0.09,-0.89,0.27l-0.12,-0.27m9.14,8.8c0.27,0,0.5,0.09,0.68,0.27c0.18,0.18,0.27,0.41,0.27,0.68c0,0.26,-0.09,0.48,-0.28,0.66c-0.19,0.18,-0.41,0.27,-0.67,0.27c-0.26,0,-0.48,-0.09,-0.67,-0.27c-0.19,-0.18,-0.28,-0.4,-0.28,-0.66c0,-0.27,0.09,-0.5,0.28,-0.68c0.19,-0.18,0.41,-0.27,0.67,-0.27m10.41,-9.94l-0.66,1.45l-3.5,0l-0.75,1.56c1.51,0.22,2.7,0.78,3.58,1.69c0.76,0.77,1.14,1.68,1.14,2.73c0,0.6,-0.12,1.17,-0.37,1.69c-0.24,0.52,-0.56,0.96,-0.94,1.33c-0.38,0.36,-0.8,0.66,-1.26,0.87c-0.66,0.31,-1.33,0.47,-2.02,0.47c-0.7,0,-1.2,-0.12,-1.52,-0.35c-0.31,-0.23,-0.47,-0.5,-0.47,-0.79c0,-0.16,0.07,-0.29,0.2,-0.41c0.13,-0.12,0.29,-0.18,0.49,-0.18c0.15,0,0.27,0.02,0.38,0.06c0.11,0.04,0.3,0.16,0.57,0.34c0.43,0.3,0.86,0.45,1.3,0.45c0.67,0,1.25,-0.25,1.76,-0.76c0.51,-0.51,0.76,-1.12,0.76,-1.84c0,-0.71,-0.22,-1.36,-0.67,-1.97c-0.45,-0.6,-1.07,-1.07,-1.86,-1.41c-0.62,-0.26,-1.47,-0.41,-2.55,-0.44l2.22,-4.52l4.16,0" fill="#000000" stroke="none" fill-opacity="1"/>
<path d="m129.25,486.55l-9.22,0l0,-0.7l9.22,0l0,0.7m2.52,-4.98l2.83,-1.37l0.28,0l0,9.78c0,0.66,0.03,1.06,0.08,1.22c0.05,0.16,0.16,0.28,0.34,0.37c0.17,0.09,0.52,0.14,1.04,0.15l0,0.31l-4.36,0l0,-0.31c0.55,-0.01,0.91,-0.06,1.07,-0.14c0.16,-0.08,0.27,-0.2,0.34,-0.34c0.06,-0.14,0.09,-0.56,0.09,-1.26l0,-6.25c0,-0.84,-0.03,-1.39,-0.09,-1.62c-0.04,-0.18,-0.11,-0.31,-0.22,-0.4c-0.1,-0.09,-0.23,-0.13,-0.37,-0.13c-0.21,0,-0.51,0.09,-0.89,0.27l-0.12,-0.27" fill="#000000" stroke="none" fill-opacity="1"/>
<path d="m191,486.55l-9.22,0l0,-0.7l9.22,0l0,0.7m1.09,-0.25c0,-1.32,0.2,-2.46,0.6,-3.41c0.4,-0.95,0.93,-1.66,1.59,-2.13c0.52,-0.37,1.05,-0.56,1.59,-0.56c0.9,0,1.69,0.45,2.39,1.36c0.89,1.12,1.33,2.65,1.33,4.56c0,1.34,-0.19,2.49,-0.58,3.43c-0.39,0.94,-0.88,1.62,-1.48,2.05c-0.6,0.42,-1.18,0.63,-1.73,0.63c-1.1,0,-2.03,-0.65,-2.77,-1.95c-0.62,-1.1,-0.94,-2.43,-0.94,-3.97m1.69,0.2c0,1.59,0.19,2.9,0.58,3.91c0.33,0.85,0.82,1.28,1.45,1.28c0.31,0,0.63,-0.14,0.96,-0.41c0.33,-0.28,0.58,-0.74,0.76,-1.4c0.26,-0.98,0.39,-2.36,0.39,-4.14c0,-1.32,-0.14,-2.43,-0.41,-3.31c-0.21,-0.65,-0.47,-1.11,-0.8,-1.39c-0.24,-0.19,-0.52,-0.28,-0.84,-0.28c-0.4,0,-0.74,0.18,-1.05,0.53c-0.41,0.47,-0.68,1.21,-0.83,2.23c-0.15,1.02,-0.22,2.01,-0.22,2.99m8.87,3.86c0.27,0,0.5,0.09,0.68,0.27c0.18,0.18,0.27,0.41,0.27,0.68c0,0.26,-0.09,0.48,-0.28,0.66c-0.19,0.18,-0.41,0.27,-0.67,0.27c-0.26,0,-0.48,-0.09,-0.67,-0.27c-0.19,-0.18,-0.28,-0.4,-0.28,-0.66c0,-0.27,0.09,-0.5,0.28,-0.68c0.19,-0.18,0.41,-0.27,0.67,-0.27m10.41,-9.94l-0.66,1.45l-3.5,0l-0.75,1.56c1.51,0.22,2.7,0.78,3.58,1.69c0.76,0.77,1.14,1.68,1.14,2.73c0,0.6,-0.12,1.17,-0.37,1.69c-0.24,0.52,-0.56,0.96,-0.94,1.33c-0.38,0.36,-0.8,0.66,-1.26,0.87c-0.66,0.31,-1.33,0.47,-2.02,0.47c-0.7,0,-1.2,-0.12,-1.52,-0.35c-0.31,-0.23,-0.47,-0.5,-0.47,-0.79c0,-0.16,0.07,-0.29,0.2,-0.41c0.13,-0.12,0.29,-0.18,0.49,-0.18c0.15,0,0.27,0.02,0.38,0.06c0.11,0.04,0.3,0.16,0.57,0.34c0.43,0.3,0.86,0.45,1.3,0.45c0.67,0,1.25,-0.25,1.76,-0.76c0.51,-0.51,0.76,-1.12,0.76,-1.84c0,-0.71,-0.22,-1.36,-0.67,-1.97c-0.45,-0.6,-1.07,-1.07,-1.86,-1.41c-0.62,-0.26,-1.47,-0.41,-2.55,-0.44l2.22,-4.52l4.16,0" fill="#000000" stroke="none" fill-opacity="1"/>
<path d="m262.86,486.3c0,-1.32,0.2,-2.46,0.6,-3.41c0.4,-0.95,0.93,-1.66,1.59,-2.13c0.52,-0.37,1.05,-0.56,1.59,-0.56c0.9,0,1.69,0.45,2.39,1.36c0.89,1.12,1.33,2.65,1.33,4.56c0,1.34,-0.19,2.49,-0.58,3.43c-0.39,0.94,-0.88,1.62,-1.48,2.05c-0.6,0.42,-1.18,0.63,-1.73,0.63c-1.1,0,-2.03,-0.65,-2.77,-1.95c-0.62,-1.1,-0.94,-2.43,-0.94,-3.97m1.69,0.2c0,1.59,0.19,2.9,0.58,3.91c0.33,0.85,0.82,1.28,1.45,1.28c0.31,0,0.63,-0.14,0.96,-0.41c0.33,-0.28,0.58,-0.74,0.76,-1.4c0.26,-0.98,0.39,-2.36,0.39,-4.14c0,-1.32,-0.14,-2.43,-0.41,-3.31c-0.21,-0.65,-0.47,-1.11,-0.8,-1.39c-0.24,-0.19,-0.52,-0.28,-0.84,-0.28c-0.4,0,-0.74,0.18,-1.05,0.53c-0.41,0.47,-0.68,1.21,-0.83,2.23c-0.15,1.02,-0.22,2.01,-0.22,2.99" fill="#000000" stroke="none" fill-opacity="1"/>
<path d="m324.62,486.3c0,-1.32,0.2,-2.46,0.6,-3.41c0.4,-0.95,0.93,-1.66,1.59,-2.13c0.52,-0.37,1.05,-0.56,1.59,-0.56c0.9,0,1.69,0.45,2.39,1.36c0.89,1.12,1.33,2.65,1.33,4.56c0,1.34,-0.19,2.49,-0.58,3.43c-0.39,0.94,-0.88,1.62,-1.48,2.05c-0.6,0.42,-1.18,0.63,-1.73,0.63c-1.1,0,-2.03,-0.65,-2.77,-1.95c-0.62,-1.1,-0.94,-2.43,-0.94,-3.97m1.69,0.2c0,1.59,0.19,2.9,0.58,3.91c0.33,0.85,0.82,1.28,1.45,1.28c0.31,0,0.63,-0.14,0.96,-0.41c0.33,-0.28,0.58,-0.74,0.76,-1.4c0.26,-0.98,0.39,-2.36,0.39,-4.14c0,-1.32,-0.14,-2.43,-0.41,-3.31c-0.21,-0.65,-0.47,-1.11,-0.8,-1.39c-0.24,-0.19,-0.52,-0.28,-0.84,-0.28c-0.4,0,-0.74,0.18,-1.05,0.53c-0.41,0.47,-0.68,1.21,-0.83,2.23c-0.15,1.02,-0.22,2.01,-0.22,2.99m8.87,3.86c0.27,0,0.5,0.09,0.68,0.27c0.18,0.18,0.27,0.41,0.27,0.68c0,0.26,-0.09,0.48,-0.28,0.66c-0.19,0.18,-0.41,0.27,-0.67,0.27c-0.26,0,-0.48,-0.09,-0.67,-0.27c-0.19,-0.18,-0.28,-0.4,-0.28,-0.66c0,-0.27,0.09,-0.5,0.28,-0.68c0.19,-0.18,0.41,-0.27,0.67,-0.27m10.41,-9.94l-0.66,1.45l-3.5,0l-0.75,1.56c1.51,0.22,2.7,0.78,3.58,1.69c0.76,0.77,1.14,1.68,1.14,2.73c0,0.6,-0.12,1.17,-0.37,1.69c-0.24,0.52,-0.56,0.96,-0.94,1.33c-0.38,0.36,-0.8,0.66,-1.26,0.87c-0.66,0.31,-1.33,0.47,-2.02,0.47c-0.7,0,-1.2,-0.12,-1.52,-0.35c-0.31,-0.23,-0.47,-0.5,-0.47,-0.79c0,-0.16,0.07,-0.29,0.2,-0.41c0.13,-0.12,0.29,-0.18,0.49,-0.18c0.15,0,0.27,0.02,0.38,0.06c0.11,0.04,0.3,0.16,0.57,0.34c0.43,0.3,0.86,0.45,1.3,0.45c0.67,0,1.25,-0.25,1.76,-0.76c0.51,-0.51,0.76,-1.12,0.76,-1.84c0,-0.71,-0.22,-1.36,-0.67,-1.97c-0.45,-0.6,-1.07,-1.07,-1.86,-1.41c-0.62,-0.26,-1.47,-0.41,-2.55,-0.44l2.22,-4.52l4.16,0" fill="#000000" stroke="none" fill-opacity="1"/>
<path d="m401.81,481.56l2.83,-1.37l0.28,0l0,9.78c0,0.66,0.03,1.06,0.08,1.22c0.05,0.16,0.16,0.28,0.34,0.37c0.17,0.09,0.52,0.14,1.04,0.15l0,0.31l-4.36,0l0,-0.31c0.55,-0.01,0.91,-0.06,1.07,-0.14c0.16,-0.08,0.27,-0.2,0.34,-0.34c0.06,-0.14,0.09,-0.56,0.09,-1.26l0,-6.25c0,-0.84,-0.03,-1.39,-0.09,-1.62c-0.04,-0.18,-0.11,-0.31,-0.22,-0.4c-0.1,-0.09,-0.23,-0.13,-0.37,-0.13c-0.21,0,-0.51,0.09,-0.89,0.27l-0.12,-0.27" fill="#000000" stroke="none" fill-opacity="1"/>
<path d="m463.56,481.56l2.83,-1.37l0.28,0l0,9.78c0,0.66,0.03,1.06,0.08,1.22c0.05,0.16,0.16,0.28,0.34,0.37c0.17,0.09,0.52,0.14,1.04,0.15l0,0.31l-4.36,0l0,-0.31c0.55,-0.01,0.91,-0.06,1.07,-0.14c0.16,-0.08,0.27,-0.2,0.34,-0.34c0.06,-0.14,0.09,-0.56,0.09,-1.26l0,-6.25c0,-0.84,-0.03,-1.39,-0.09,-1.62c-0.04,-0.18,-0.11,-0.31,-0.22,-0.4c-0.1,-0.09,-0.23,-0.13,-0.37,-0.13c-0.21,0,-0.51,0.09,-0.89,0.27l-0.12,-0.27m9.14,8.8c0.27,0,0.5,0.09,0.68,0.27c0.18,0.18,0.27,0.41,0.27,0.68c0,0.26,-0.09,0.48,-0.28,0.66c-0.19,0.18,-0.41,0.27,-0.67,0.27c-0.26,0,-0.48,-0.09,-0.67,-0.27c-0.19,-0.18,-0.28,-0.4,-0.28,-0.66c0,-0.27,0.09,-0.5,0.28,-0.68c0.19,-0.18,0.41,-0.27,0.67,-0.27m10.41,-9.94l-0.66,1.45l-3.5,0l-0.75,1.56c1.51,0.22,2.7,0.78,3.58,1.69c0.76,0.77,1.14,1.68,1.14,2.73c0,0.6,-0.12,1.17,-0.37,1.69c-0.24,0.52,-0.56,0.96,-0.94,1.33c-0.38,0.36,-0.8,0.66,-1.26,0.87c-0.66,0.31,-1.33,0.47,-2.02,0.47c-0.7,0,-1.2,-0.12,-1.52,-0.35c-0.31,-0.23,-0.47,-0.5,-0.47,-0.79c0,-0.16,0.07,-0.29,0.2,-0.41c0.13,-0.12,0.29,-0.18,0.49,-0.18c0.15,0,0.27,0.02,0.38,0.06c0.11,0.04,0.3,0.16,0.57,0.34c0.43,0.3,0.86,0.45,1.3,0.45c0.67,0,1.25,-0.25,1.76,-0.76c0.51,-0.51,0.76,-1.12,0.76,-1.84c0,-0.71,-0.22,-1.36,-0.67,-1.97c-0.45,-0.6,-1.07,-1.07,-1.86,-1.41c-0.62,-0.26,-1.47,-0.41,-2.55,-0.44l2.22,-4.52l4.16,0" fill="#000000" stroke="none" fill-opacity="1"/>
</g>
</g>
</g>
<defs>
<clipPath id="c0"><path d="m0,0l533.49,0l0,533.49l-533.49,0l0,-533.49"/></clipPath>
<clipPath id="c1"><path d="m60.46,7.11l412.56,0l0,465.91l-412.56,0l0,-465.91"/></clipPath>
</defs>
</svg>
