<?xml version="1.0" standalone="no"?>
<!DOCTYPE svg PUBLIC "-//W3C//DTD SVG 1.1//EN"
  "http://www.w3.org/Graphics/SVG/1.1/DTD/svg11.dtd">
<svg width="533.49px" height="533.49px" version="1.1"
    xmlns="http://www.w3.org/2000/svg"
    xmlns:xlink="http://www.w3.org/1999/xlink">
<desc>Veusz output document</desc>
<defs>
<clipPath id="c0">
<path d="m0,0l533.49,0l0,533.49l-533.49,0l0,-533.49"/>
</clipPath>
<clipPath id="c1">
<path d="m28.45,28.45l476.58,0l0,476.58l-476.58,0l0,-476.58"/>
</clipPath>
<clipPath id="c2">
<path d="m216.49,57.63l9.73,9.73l9.73,9.73l9.73,9.73l9.73,9.73l9.73,9.73l9.73,9.73l9.73,9.73l9.73,9.73l9.73,9.73l9.73,9.73l9.73,9.73l9.73,9.73l9.73,9.73l9.73,9.73l9.73,9.73l9.73,9.73l9.73,9.73l9.73,9.73l9.73,9.73l9.73,9.73l9.73,9.73l9.73,9.73l9.73,9.73l9.73,9.73l9.73,9.73l9.73,9.73l9.73,9.73l9.73,9.73l9.73,9.73l6.48,6.48l0,158.86l0,-476.58l-317.72,0l9.73,9.73l9.73,9.73l9.73,9.73"/>
</clipPath>
<clipPath id="c3">
<path d="m295.92,57.63l9.73,9.73l9.73,9.73l9.73,9.73l9.73,9.73l9.73,9.73l9.73,9.73l9.73,9.73l9.73,9.73l9.73,9.73l9.73,9.73l9.73,9.73l9.73,9.73l9.73,9.73l9.73,9.73l9.73,9.73l9.73,9.73l9.73,9.73l9.73,9.73l9.73,9.73l9.73,9.73l9.73,9.73l4.86,4.86l0,238.29l0,-476.58l-238.29,0l9.73,9.73l9.73,9.73l9.73,9.73"/>
</clipPath>
<clipPath id="c4">
<path d="m266.74,147.6l79.43,0l79.43,-79.43l79.43,79.43l0,357.44l-476.58,0l0,-79.43l79.43,-119.15l79.43,-39.72"/>
</clipPath>
<clipPath id="c5">
<path d="m266.74,187.31l79.43,0l79.43,-79.43l79.43,79.43l0,317.72l-476.58,0l0,-39.72l79.43,-119.15l79.43,-39.72"/>
</clipPath>
<clipPath id="c6">
<path d="m43.04,281.33l9.73,9.73l9.73,9.73l9.73,9.73l9.73,9.73l9.73,9.73l9.73,9.73l9.73,9.73l9.73,9.73l9.73,9.73l9.73,9.73l9.73,9.73l9.73,9.73l9.73,9.73l9.73,9.73l9.73,9.73l9.73,9.73l9.73,9.73l9.73,9.73l9.73,9.73l9.73,9.73l9.73,9.73l9.73,9.73l9.73,9.73l-238.29,0l0,-476.58l0,238.29l4.86,4.86l9.73,9.73"/>
</clipPath>
<clipPath id="c7">
<path d="m107.88,425.61l39.72,0l0,-39.72l39.72,0l39.72,0l0,-79.43l39.72,0l39.72,0l0,-39.72l39.72,0l39.72,0l0,-119.15l39.72,0l39.72,0l0,238.29l39.72,0l0,119.15l-476.58,0l39.72,0l0,-79.43"/>
</clipPath>
</defs>
<g stroke-linejoin="bevel" stroke-linecap="square" stroke="#000000" fill-rule="evenodd">
<g clip-path="url(#c0)">
<g fill="#ffffff" stroke-width="1.25">
<path d="m28.45,28.45l476.58,0l0,476.58l-476.58,0l0,-476.58"/>
</g>
<g fill="none" stroke="#008000" stroke-width="1">
<path d="m215.39,20.76l0,-1.16l2.09,0l0,-14.06l-2.09,0l0,-1.18l6.4,0l0,1.18l-2.09,0l0,5.67l8.5,0l0,-5.67l-2.09,0l0,-1.18l6.4,0l0,1.18l-2.09,0l0,14.06l2.09,0l0,1.16l-6.4,0l0,-1.16l2.09,0l0,-7.05l-8.5,0l0,7.05l2.09,0l0,1.16l-6.4,0m27.31,-3.67l0,-2.47l-2.6,0c-1,0,-1.75,0.22,-2.24,0.65c-0.49,0.43,-0.74,1.09,-0.74,1.99c0,0.81,0.25,1.46,0.75,1.93c0.5,0.48,1.17,0.71,2.02,0.71c0.84,0,1.52,-0.26,2.04,-0.78c0.52,-0.52,0.77,-1.2,0.77,-2.03m2.02,-3.63l0,6.13l1.8,0l0,1.16l-3.82,0l0,-1.26c-0.45,0.54,-0.96,0.94,-1.55,1.2c-0.59,0.26,-1.27,0.38,-2.06,0.38c-1.3,0,-2.32,-0.34,-3.09,-1.03c-0.76,-0.69,-1.14,-1.62,-1.14,-2.79c0,-1.21,0.44,-2.15,1.31,-2.81c0.87,-0.67,2.1,-1,3.69,-1l2.83,0l0,-0.8c0,-0.89,-0.27,-1.57,-0.81,-2.06c-0.54,-0.49,-1.29,-0.73,-2.27,-0.73c-0.81,0,-1.45,0.18,-1.92,0.55c-0.48,0.37,-0.77,0.91,-0.89,1.63l-1.04,0l0,-2.36c0.7,-0.3,1.39,-0.52,2.05,-0.67c0.66,-0.15,1.31,-0.22,1.94,-0.22c1.62,0,2.85,0.4,3.7,1.2c0.85,0.8,1.27,1.97,1.27,3.5m4.85,-3.21l-1.78,0l0,-1.17l1.78,0l0,-3.63l2.03,0l0,3.63l3.8,0l0,1.17l-3.8,0l0,7.42c0,0.99,0.1,1.62,0.29,1.9c0.19,0.28,0.54,0.42,1.06,0.42c0.53,0,0.91,-0.16,1.15,-0.47c0.24,-0.31,0.37,-0.82,0.38,-1.51l1.53,0c-0.06,1.06,-0.35,1.84,-0.87,2.33c-0.52,0.49,-1.31,0.74,-2.37,0.74c-1.16,0,-1.99,-0.26,-2.47,-0.77c-0.48,-0.52,-0.72,-1.39,-0.72,-2.63l0,-7.42m18.14,7c-0.29,1.24,-0.83,2.19,-1.65,2.85c-0.81,0.65,-1.86,0.98,-3.15,0.98c-1.7,0,-3.06,-0.56,-4.1,-1.69c-1.03,-1.12,-1.55,-2.62,-1.55,-4.48c0,-1.87,0.52,-3.36,1.55,-4.48c1.03,-1.12,2.4,-1.67,4.1,-1.67c0.74,0,1.48,0.09,2.21,0.26c0.73,0.17,1.47,0.43,2.21,0.79l0,2.99l-1.18,0c-0.15,-1.02,-0.49,-1.77,-1,-2.24c-0.52,-0.47,-1.25,-0.7,-2.21,-0.7c-1.09,0,-1.91,0.42,-2.47,1.27c-0.56,0.85,-0.84,2.11,-0.84,3.8c0,1.69,0.28,2.95,0.83,3.8c0.55,0.85,1.38,1.27,2.48,1.27c0.87,0,1.57,-0.23,2.09,-0.68c0.52,-0.45,0.87,-1.14,1.07,-2.05l1.63,0m1.95,3.5l0,-1.16l1.82,0l0,-14.77l-1.93,0l0,-1.17l3.96,0l0,7.49c0.37,-0.79,0.86,-1.39,1.45,-1.79c0.6,-0.4,1.29,-0.6,2.08,-0.6c1.29,0,2.24,0.37,2.84,1.11c0.61,0.74,0.91,1.89,0.91,3.46l0,6.26l1.8,0l0,1.16l-5.58,0l0,-1.16l1.75,0l0,-5.62c0,-1.43,-0.17,-2.4,-0.52,-2.93c-0.35,-0.52,-0.97,-0.79,-1.86,-0.79c-0.94,0,-1.65,0.34,-2.14,1.02c-0.49,0.68,-0.74,1.67,-0.74,2.98l0,5.34l1.76,0l0,1.16l-5.6,0" fill="#008000" stroke="none" fill-opacity="1"/>
</g>
<g fill="none" stroke-width="1">
<path d="m285.43,5.45c0,-0.34,0.12,-0.63,0.37,-0.88c0.25,-0.25,0.54,-0.37,0.89,-0.37c0.34,0,0.63,0.12,0.87,0.37c0.25,0.25,0.37,0.54,0.37,0.88c0,0.34,-0.12,0.64,-0.36,0.88c-0.24,0.24,-0.53,0.36,-0.88,0.36c-0.34,0,-0.64,-0.12,-0.89,-0.36c-0.25,-0.24,-0.37,-0.53,-0.37,-0.88m2.58,14.14l1.91,0l0,1.16l-5.87,0l0,-1.16l1.93,0l0,-9.34l-1.93,0l0,-1.17l3.96,0l0,10.51m3.35,1.16l0,-1.16l1.82,0l0,-9.34l-1.93,0l0,-1.17l3.96,0l0,2.08c0.37,-0.79,0.86,-1.39,1.45,-1.79c0.6,-0.4,1.29,-0.6,2.08,-0.6c1.29,0,2.24,0.37,2.84,1.11c0.61,0.74,0.91,1.89,0.91,3.46l0,6.26l1.8,0l0,1.16l-5.58,0l0,-1.16l1.75,0l0,-5.62c0,-1.43,-0.18,-2.41,-0.53,-2.94c-0.35,-0.53,-0.97,-0.8,-1.86,-0.8c-0.94,0,-1.65,0.34,-2.14,1.03c-0.49,0.68,-0.74,1.68,-0.74,2.99l0,5.34l1.76,0l0,1.16l-5.6,0m25.39,-10.5l0,10.25c0,1.68,-0.46,2.97,-1.38,3.88c-0.92,0.91,-2.24,1.37,-3.95,1.37c-0.77,0,-1.5,-0.07,-2.21,-0.21c-0.7,-0.14,-1.38,-0.35,-2.02,-0.63l0,-2.45l1.05,0c0.13,0.76,0.44,1.32,0.93,1.67c0.49,0.35,1.19,0.53,2.11,0.53c1.19,0,2.06,-0.34,2.61,-1.01c0.55,-0.67,0.83,-1.72,0.83,-3.16l0,-1.57c-0.4,0.73,-0.9,1.27,-1.51,1.62c-0.61,0.35,-1.37,0.52,-2.27,0.52c-1.44,0,-2.61,-0.57,-3.52,-1.71c-0.91,-1.14,-1.37,-2.62,-1.37,-4.46c0,-1.83,0.45,-3.31,1.36,-4.45c0.91,-1.14,2.08,-1.7,3.53,-1.7c0.9,0,1.66,0.17,2.27,0.52c0.61,0.35,1.12,0.89,1.51,1.62l0,-1.82l3.95,0l0,1.17l-1.93,0m-2.02,4.09c0,-1.4,-0.27,-2.47,-0.81,-3.21c-0.54,-0.74,-1.32,-1.11,-2.35,-1.11c-1.04,0,-1.83,0.41,-2.36,1.23c-0.53,0.82,-0.8,2.04,-0.8,3.66c0,1.61,0.27,2.83,0.8,3.66c0.53,0.83,1.32,1.24,2.36,1.24c1.02,0,1.81,-0.37,2.35,-1.1c0.54,-0.74,0.81,-1.81,0.81,-3.21l0,-1.15" fill="#000000" stroke="none" fill-opacity="1"/>
</g>
</g>
<g clip-path="url(#c2)">
<g fill="none" stroke="#5500ff" stroke-width="0.62">
<path d="M186.67,335.82l6.3,10.9M186.67,323.32l13.51,23.4M186.67,310.82l20.73,35.9M186.67,298.32l27.95,48.4M186.67,285.82l35.16,60.9M186.67,273.32l42.38,73.4M186.67,260.82l49.6,85.9M186.67,248.32l56.81,98.4M186.67,235.82l64.03,110.9M186.67,223.33l71.25,123.4M186.67,210.83l78.46,135.9M186.67,198.33l85.68,148.4M186.67,185.83l92.9,160.9M186.67,173.33l100.11,173.4M186.67,160.83l107.33,185.9M186.67,148.33l114.55,198.4M186.67,135.83l121.76,210.9M186.67,123.33l128.98,223.4M186.67,110.83l136.2,235.89M186.67,98.33l143.41,248.39M186.67,85.83l150.63,260.89M186.67,73.33l157.85,273.39M186.67,60.83l165.06,285.89M186.67,48.33l172.28,298.39M186.67,35.83l179.5,310.89M189.3,27.87l184.09,318.85M196.51,27.87l184.09,318.85M203.73,27.87l184.09,318.85M210.95,27.87l184.09,318.85M218.16,27.87l184.09,318.85M225.38,27.87l184.09,318.85M232.6,27.87l184.09,318.85M239.81,27.87l184.09,318.85M247.03,27.87l184.09,318.85M254.25,27.87l184.09,318.85M261.46,27.87l184.09,318.85M268.68,27.87l184.09,318.85M275.9,27.87l184.09,318.85M283.11,27.87l184.09,318.85M290.33,27.87l184.09,318.85M297.55,27.87l184.09,318.85M304.77,27.87l184.09,318.85M311.98,27.87l184.09,318.85M319.2,27.87l184.09,318.85M326.42,27.87l179.21,310.39M333.63,27.87l171.99,297.89M340.85,27.87l164.78,285.39M348.07,27.87l157.56,272.89M355.28,27.87l150.34,260.39M362.5,27.87l143.13,247.89M369.72,27.87l135.91,235.39M376.93,27.87l128.69,222.89M384.15,27.87l121.48,210.4M391.37,27.87l114.26,197.9M398.58,27.87l107.04,185.4M405.8,27.87l99.83,172.9M413.02,27.87l92.61,160.4M420.23,27.87l85.39,147.9M427.45,27.87l78.17,135.4M434.67,27.87l70.96,122.9M441.88,27.87l63.74,110.4M449.1,27.87l56.52,97.9M456.32,27.87l49.31,85.4M463.53,27.87l42.09,72.9M470.75,27.87l34.87,60.4M477.97,27.87l27.66,47.9M485.18,27.87l20.44,35.4M492.4,27.87l13.22,22.9M499.62,27.87l6.01,10.4"/>
<path d="M193.19,27.87l-6.52,11.29M200.41,27.87l-13.73,23.79M207.63,27.87l-20.95,36.29M214.84,27.87l-28.17,48.79M222.06,27.87l-35.38,61.29M229.28,27.87l-42.6,73.79M236.49,27.87l-49.82,86.28M243.71,27.87l-57.03,98.78M250.93,27.87l-64.25,111.28M258.14,27.87l-71.47,123.78M265.36,27.87l-78.69,136.28M272.58,27.87l-85.9,148.78M279.79,27.87l-93.12,161.28M287.01,27.87l-100.34,173.78M294.23,27.87l-107.55,186.28M301.44,27.87l-114.77,198.78M308.66,27.87l-121.99,211.28M315.88,27.87l-129.2,223.78M323.09,27.87l-136.42,236.28M330.31,27.87l-143.64,248.78M337.53,27.87l-150.85,261.28M344.74,27.87l-158.07,273.78M351.96,27.87l-165.29,286.28M359.18,27.87l-172.5,298.78M366.39,27.87l-179.72,311.27M373.61,27.87l-184.09,318.85M380.83,27.87l-184.09,318.85M388.05,27.87l-184.09,318.85M395.26,27.87l-184.09,318.85M402.48,27.87l-184.09,318.85M409.7,27.87l-184.09,318.85M416.91,27.87l-184.09,318.85M424.13,27.87l-184.09,318.85M431.35,27.87l-184.09,318.85M438.56,27.87l-184.09,318.85M445.78,27.87l-184.09,318.85M453,27.87l-184.09,318.85M460.21,27.87l-184.09,318.85M467.43,27.87l-184.09,318.85M474.65,27.87l-184.09,318.85M481.86,27.87l-184.09,318.85M489.08,27.87l-184.09,318.85M496.3,27.87l-184.09,318.85M503.51,27.87l-184.09,318.85M505.62,36.72l-178.99,310.01M505.62,49.22l-171.77,297.51M505.62,61.72l-164.55,285.01M505.62,74.22l-157.34,272.51M505.62,86.72l-150.12,260.01M505.62,99.21l-142.9,247.51M505.62,111.71l-135.69,235.01M505.62,124.21l-128.47,222.51M505.62,136.71l-121.25,210.01M505.62,149.21l-114.04,197.51M505.62,161.71l-106.82,185.01M505.62,174.21l-99.6,172.51M505.62,186.71l-92.39,160.01M505.62,199.21l-85.17,147.51M505.62,211.71l-77.95,135.02M505.62,224.21l-70.74,122.52M505.62,236.71l-63.52,110.02M505.62,249.21l-56.3,97.52M505.62,261.71l-49.09,85.02M505.62,274.21l-41.87,72.52M505.62,286.71l-34.65,60.02M505.62,299.21l-27.44,47.52M505.62,311.71l-20.22,35.02M505.62,324.2l-13,22.52M505.62,336.7l-5.79,10.02"/>
</g>
</g>
<g clip-path="url(#c1)">
<g fill="none" stroke="#5500ff" stroke-width="0.62">
<polyline fill="none" points="187.31,28.45 197.04,38.18 206.77,47.91 216.49,57.63 226.22,67.36 235.94,77.08 245.67,86.81 255.4,96.54 265.12,106.26 274.85,115.99 284.58,125.71 294.3,135.44 304.03,145.17 313.75,154.89 323.48,164.62 333.21,174.35 342.93,184.07 352.66,193.8 362.39,203.52 372.11,213.25 381.84,222.98 391.56,232.7 401.29,242.43 411.02,252.16 420.74,261.88 430.47,271.61 440.2,281.33 449.92,291.06 459.65,300.79 469.37,310.51 479.1,320.24 488.83,329.96 498.55,339.69 505.66,346.8"/>
</g>
<g fill="#008000" stroke="none" stroke-width="1">
<path d="m295.92,57.63l9.73,9.73l9.73,9.73l9.73,9.73l9.73,9.73l9.73,9.73l9.73,9.73l9.73,9.73l9.73,9.73l9.73,9.73l9.73,9.73l9.73,9.73l9.73,9.73l9.73,9.73l9.73,9.73l9.73,9.73l9.73,9.73l9.73,9.73l9.73,9.73l9.73,9.73l9.73,9.73l9.73,9.73l4.86,4.86l0,238.29l0,-476.58l-238.29,0l9.73,9.73l9.73,9.73"/>
</g>
</g>
<g clip-path="url(#c3)">
<g fill="none" stroke="#00ff7f" stroke-width="0.31">
<path d="M505.31,31.25l-238.92,0M505.31,37.5l-238.92,0M505.31,43.75l-238.92,0M505.31,50l-238.92,0M505.31,56.25l-238.92,0M505.31,62.5l-238.92,0M505.31,68.75l-238.92,0M505.31,75l-238.92,0M505.31,81.25l-238.92,0M505.31,87.5l-238.92,0M505.31,93.75l-238.92,0M505.31,100l-238.92,0M505.31,106.25l-238.92,0M505.31,112.5l-238.92,0M505.31,118.75l-238.92,0M505.31,125l-238.92,0M505.31,131.25l-238.92,0M505.31,137.5l-238.92,0M505.31,143.75l-238.92,0M505.31,150l-238.92,0M505.31,156.25l-238.92,0M505.31,162.5l-238.92,0M505.31,168.75l-238.92,0M505.31,175l-238.92,0M505.31,181.25l-238.92,0M505.31,187.5l-238.92,0M505.31,193.75l-238.92,0M505.31,200l-238.92,0M505.31,206.25l-238.92,0M505.31,212.5l-238.92,0M505.31,218.75l-238.92,0M505.31,225l-238.92,0M505.31,231.25l-238.92,0M505.31,237.5l-238.92,0M505.31,243.75l-238.92,0M505.31,250l-238.92,0M505.31,256.25l-238.92,0M505.31,262.5l-238.92,0"/>
<path d="M505.31,33.02l-238.92,0M505.31,39.27l-238.92,0M505.31,45.52l-238.92,0M505.31,51.77l-238.92,0M505.31,58.02l-238.92,0M505.31,64.27l-238.92,0M505.31,70.52l-238.92,0M505.31,76.77l-238.92,0M505.31,83.02l-238.92,0M505.31,89.27l-238.92,0M505.31,95.52l-238.92,0M505.31,101.77l-238.92,0M505.31,108.02l-238.92,0M505.31,114.27l-238.92,0M505.31,120.52l-238.92,0M505.31,126.77l-238.92,0M505.31,133.02l-238.92,0M505.31,139.27l-238.92,0M505.31,145.52l-238.92,0M505.31,151.77l-238.92,0M505.31,158.02l-238.92,0M505.31,164.27l-238.92,0M505.31,170.52l-238.92,0M505.31,176.77l-238.92,0M505.31,183.02l-238.92,0M505.31,189.27l-238.92,0M505.31,195.52l-238.92,0M505.31,201.77l-238.92,0M505.31,208.02l-238.92,0M505.31,214.27l-238.92,0M505.31,220.52l-238.92,0M505.31,226.77l-238.92,0M505.31,233.02l-238.92,0M505.31,239.27l-238.92,0M505.31,245.52l-238.92,0M505.31,251.77l-238.92,0M505.31,258.02l-238.92,0M505.31,264.27l-238.92,0"/>
</g>
</g>
<g clip-path="url(#c1)">
<g fill="none" stroke="#008000" stroke-width="0.62">
<polyline fill="none" points="266.74,28.45 276.47,38.18 286.2,47.91 295.92,57.63 305.65,67.36 315.38,77.08 325.1,86.81 334.83,96.54 344.55,106.26 354.28,115.99 364.01,125.71 373.73,135.44 383.46,145.17 393.19,154.89 402.91,164.62 412.64,174.35 422.36,184.07 432.09,193.8 441.82,203.52 451.54,213.25 461.27,222.98 470.99,232.7 480.72,242.43 490.45,252.16 500.17,261.88 505.66,267.37"/>
</g>
<g fill="#ffffff" stroke="none" stroke-width="1">
<path d="m266.74,147.6l79.43,0l79.43,-79.43l79.43,79.43l0,357.44l-476.58,0l0,-79.43l79.43,-119.15l79.43,-39.72"/>
</g>
</g>
<g clip-path="url(#c4)">
<g fill="none" stroke="#808080" stroke-width="0.62">
<path d="M505.62,71.25l-477.75,0M505.62,75l-477.75,0M505.62,78.75l-477.75,0M505.62,82.5l-477.75,0M505.62,86.25l-477.75,0M505.62,90l-477.75,0M505.62,93.75l-477.75,0M505.62,97.5l-477.75,0M505.62,101.25l-477.75,0M505.62,105l-477.75,0M505.62,108.75l-477.75,0M505.62,112.5l-477.75,0M505.62,116.25l-477.75,0M505.62,120l-477.75,0M505.62,123.75l-477.75,0M505.62,127.5l-477.75,0M505.62,131.25l-477.75,0M505.62,135l-477.75,0M505.62,138.75l-477.75,0M505.62,142.5l-477.75,0M505.62,146.25l-477.75,0M505.62,150l-477.75,0M505.62,153.75l-477.75,0M505.62,157.5l-477.75,0M505.62,161.25l-477.75,0M505.62,165l-477.75,0M505.62,168.75l-477.75,0M505.62,172.5l-477.75,0M505.62,176.25l-477.75,0M505.62,180l-477.75,0M505.62,183.75l-477.75,0M505.62,187.5l-477.75,0M505.62,191.25l-477.75,0M505.62,195l-477.75,0M505.62,198.75l-477.75,0M505.62,202.5l-477.75,0M505.62,206.25l-477.75,0M505.62,210l-477.75,0M505.62,213.75l-477.75,0M505.62,217.5l-477.75,0M505.62,221.25l-477.75,0M505.62,225l-477.75,0M505.62,228.75l-477.75,0M505.62,232.5l-477.75,0M505.62,236.25l-477.75,0M505.62,240l-477.75,0M505.62,243.75l-477.75,0M505.62,247.5l-477.75,0M505.62,251.25l-477.75,0M505.62,255l-477.75,0M505.62,258.75l-477.75,0M505.62,262.5l-477.75,0M505.62,266.25l-477.75,0M505.62,270l-477.75,0M505.62,273.75l-477.75,0M505.62,277.5l-477.75,0M505.62,281.25l-477.75,0M505.62,285l-477.75,0M505.62,288.75l-477.75,0M505.62,292.5l-477.75,0M505.62,296.25l-477.75,0M505.62,300l-477.75,0M505.62,303.75l-477.75,0M505.62,307.5l-477.75,0M505.62,311.25l-477.75,0M505.62,315l-477.75,0M505.62,318.75l-477.75,0M505.62,322.5l-477.75,0M505.62,326.25l-477.75,0M505.62,330l-477.75,0M505.62,333.75l-477.75,0M505.62,337.5l-477.75,0M505.62,341.25l-477.75,0M505.62,345l-477.75,0M505.62,348.75l-477.75,0M505.62,352.5l-477.75,0M505.62,356.25l-477.75,0M505.62,360l-477.75,0M505.62,363.75l-477.75,0M505.62,367.5l-477.75,0M505.62,371.25l-477.75,0M505.62,375l-477.75,0M505.62,378.75l-477.75,0M505.62,382.5l-477.75,0M505.62,386.25l-477.75,0M505.62,390l-477.75,0M505.62,393.75l-477.75,0M505.62,397.5l-477.75,0M505.62,401.25l-477.75,0M505.62,405l-477.75,0M505.62,408.75l-477.75,0M505.62,412.5l-477.75,0M505.62,416.25l-477.75,0M505.62,420l-477.75,0M505.62,423.75l-477.75,0M505.62,427.5l-477.75,0M505.62,431.25l-477.75,0M505.62,435l-477.75,0M505.62,438.75l-477.75,0M505.62,442.5l-477.75,0M505.62,446.25l-477.75,0M505.62,450l-477.75,0M505.62,453.75l-477.75,0M505.62,457.5l-477.75,0M505.62,461.25l-477.75,0M505.62,465l-477.75,0M505.62,468.75l-477.75,0M505.62,472.5l-477.75,0M505.62,476.25l-477.75,0M505.62,480l-477.75,0M505.62,483.75l-477.75,0M505.62,487.5l-477.75,0M505.62,491.25l-477.75,0M505.62,495l-477.75,0M505.62,498.75l-477.75,0M505.62,502.5l-477.75,0"/>
</g>
</g>
<g clip-path="url(#c1)">
<g fill="none" stroke="#808080" stroke-width="1.25">
<polyline fill="none" points="28.45,425.61 107.88,306.46 187.31,266.74 266.74,147.6 346.18,147.6 425.61,68.17 505.04,147.6"/>
</g>
<g fill="#ffffff" stroke="none" stroke-width="1">
<path d="m266.74,187.31l79.43,0l79.43,-79.43l79.43,79.43l0,317.72l-476.58,0l0,-39.72l79.43,-119.15l79.43,-39.72"/>
</g>
</g>
<g clip-path="url(#c5)">
<g fill="none" stroke="#ff0000" stroke-dasharray="2.5,1.25" stroke-width="0.62">
<path d="M27.87,505.17l0.46,0.46M27.87,496.33l9.3,9.3M27.87,487.49l18.13,18.13M27.87,478.65l26.97,26.97M27.87,469.81l35.81,35.81M27.87,460.97l44.65,44.65M27.87,452.13l53.49,53.49M27.87,443.3l62.33,62.33M27.87,434.46l71.17,71.17M27.87,425.62l80.01,80.01M27.87,416.78l88.84,88.84M27.87,407.94l97.68,97.68M27.87,399.1l106.52,106.52M27.87,390.26l115.36,115.36M27.87,381.42l124.2,124.2M27.87,372.59l133.04,133.04M27.87,363.75l141.88,141.88M27.87,354.91l150.72,150.72M27.87,346.07l159.55,159.55M27.87,337.23l168.39,168.39M27.87,328.39l177.23,177.23M27.87,319.55l186.07,186.07M27.87,310.71l194.91,194.91M27.87,301.88l203.75,203.75M27.87,293.04l212.59,212.59M27.87,284.2l221.43,221.43M27.87,275.36l230.26,230.26M27.87,266.52l239.1,239.1M27.87,257.68l247.94,247.94M27.87,248.84l256.78,256.78M27.87,240l265.62,265.62M27.87,231.17l274.46,274.46M27.87,222.33l283.3,283.3M27.87,213.49l292.14,292.14M27.87,204.65l300.97,300.97M27.87,195.81l309.81,309.81M27.87,186.97l318.65,318.65M27.87,178.13l327.49,327.49M27.87,169.29l336.33,336.33M27.87,160.46l345.17,345.17M27.87,151.62l354.01,354.01M27.87,142.78l362.85,362.85M27.87,133.94l371.68,371.68M27.87,125.1l380.52,380.52M27.87,116.26l389.36,389.36M27.87,107.42l398.2,398.2M36.66,107.37l398.25,398.25M45.5,107.37l398.25,398.25M54.34,107.37l398.25,398.25M63.18,107.37l398.25,398.25M72.02,107.37l398.25,398.25M80.86,107.37l398.25,398.25M89.7,107.37l398.25,398.25M98.54,107.37l398.25,398.25M107.37,107.37l398.25,398.25M116.21,107.37l389.41,389.41M125.05,107.37l380.57,380.57M133.89,107.37l371.73,371.73M142.73,107.37l362.89,362.89M151.57,107.37l354.06,354.06M160.41,107.37l345.22,345.22M169.25,107.37l336.38,336.38M178.08,107.37l327.54,327.54M186.92,107.37l318.7,318.7M195.76,107.37l309.86,309.86M204.6,107.37l301.02,301.02M213.44,107.37l292.18,292.18M222.28,107.37l283.35,283.35M231.12,107.37l274.51,274.51M239.96,107.37l265.67,265.67M248.79,107.37l256.83,256.83M257.63,107.37l247.99,247.99M266.47,107.37l239.15,239.15M275.31,107.37l230.31,230.31M284.15,107.37l221.47,221.47M292.99,107.37l212.64,212.64M301.83,107.37l203.8,203.8M310.67,107.37l194.96,194.96M319.5,107.37l186.12,186.12M328.34,107.37l177.28,177.28M337.18,107.37l168.44,168.44M346.02,107.37l159.6,159.6M354.86,107.37l150.76,150.76M363.7,107.37l141.93,141.93M372.54,107.37l133.09,133.09M381.38,107.37l124.25,124.25M390.21,107.37l115.41,115.41M399.05,107.37l106.57,106.57M407.89,107.37l97.73,97.73M416.73,107.37l88.89,88.89M425.57,107.37l80.05,80.05M434.41,107.37l71.22,71.22M443.25,107.37l62.38,62.38M452.09,107.37l53.54,53.54M460.92,107.37l44.7,44.7M469.76,107.37l35.86,35.86M478.6,107.37l27.02,27.02M487.44,107.37l18.18,18.18M496.28,107.37l9.34,9.34M505.12,107.37l0.51,0.51"/>
</g>
</g>
<g clip-path="url(#c1)">
<g fill="none" stroke="#ff0000" stroke-width="1.25">
<polyline fill="none" points="28.45,465.32 107.88,346.18 187.31,306.46 266.74,187.31 346.18,187.31 425.61,107.88 505.04,187.31"/>
</g>
</g>
<g clip-path="url(#c6)">
<g fill="none" stroke="#ff00ff" stroke-width="0.62">
<path d="M31.25,266.17l0,239.45M37.5,266.17l0,239.45M43.75,266.17l0,239.45M50,266.17l0,239.45M56.25,266.17l0,239.45M62.5,266.17l0,239.45M68.75,266.17l0,239.45M75,266.17l0,239.45M81.25,266.17l0,239.45M87.5,266.17l0,239.45M93.75,266.17l0,239.45M100,266.17l0,239.45M106.25,266.17l0,239.45M112.5,266.17l0,239.45M118.75,266.17l0,239.45M125,266.17l0,239.45M131.25,266.17l0,239.45M137.5,266.17l0,239.45M143.75,266.17l0,239.45M150,266.17l0,239.45M156.25,266.17l0,239.45M162.5,266.17l0,239.45M168.75,266.17l0,239.45M175,266.17l0,239.45M181.25,266.17l0,239.45M187.5,266.17l0,239.45M193.75,266.17l0,239.45M200,266.17l0,239.45M206.25,266.17l0,239.45M212.5,266.17l0,239.45M218.75,266.17l0,239.45M225,266.17l0,239.45M231.25,266.17l0,239.45M237.5,266.17l0,239.45M243.75,266.17l0,239.45M250,266.17l0,239.45M256.25,266.17l0,239.45M262.5,266.17l0,239.45"/>
<path d="M27.87,505.17l0.46,0.46M27.87,496.33l9.3,9.3M27.87,487.49l18.13,18.13M27.87,478.65l26.97,26.97M27.87,469.81l35.81,35.81M27.87,460.97l44.65,44.65M27.87,452.13l53.49,53.49M27.87,443.3l62.33,62.33M27.87,434.46l71.17,71.17M27.87,425.62l80.01,80.01M27.87,416.78l88.84,88.84M27.87,407.94l97.68,97.68M27.87,399.1l106.52,106.52M27.87,390.26l115.36,115.36M27.87,381.42l124.2,124.2M27.87,372.59l133.04,133.04M27.87,363.75l141.88,141.88M27.87,354.91l150.72,150.72M27.87,346.07l159.55,159.55M27.87,337.23l168.39,168.39M27.87,328.39l177.23,177.23M27.87,319.55l186.07,186.07M27.87,310.71l194.91,194.91M27.87,301.88l203.75,203.75M27.87,293.04l212.59,212.59M27.87,284.2l221.43,221.43M27.87,275.36l230.26,230.26M27.87,266.52l239.1,239.1M36.37,266.17l230.86,230.86M45.21,266.17l222.02,222.02M54.04,266.17l213.18,213.18M62.88,266.17l204.34,204.34M71.72,266.17l195.5,195.5M80.56,266.17l186.66,186.66M89.4,266.17l177.82,177.82M98.24,266.17l168.99,168.99M107.08,266.17l160.15,160.15M115.92,266.17l151.31,151.31M124.75,266.17l142.47,142.47M133.59,266.17l133.63,133.63M142.43,266.17l124.79,124.79M151.27,266.17l115.95,115.95M160.11,266.17l107.11,107.11M168.95,266.17l98.28,98.28M177.79,266.17l89.44,89.44M186.63,266.17l80.6,80.6M195.46,266.17l71.76,71.76M204.3,266.17l62.92,62.92M213.14,266.17l54.08,54.08M221.98,266.17l45.24,45.24M230.82,266.17l36.4,36.4M239.66,266.17l27.57,27.57M248.5,266.17l18.73,18.73M257.34,266.17l9.89,9.89M266.17,266.17l1.05,1.05"/>
</g>
</g>
<g clip-path="url(#c1)">
<g fill="none" stroke="#ff00ff" stroke-width="1.25">
<polyline fill="none" points="27.2,265.49 33.32,271.61 43.04,281.33 52.77,291.06 62.49,300.79 72.22,310.51 81.95,320.24 91.67,329.96 101.4,339.69 111.13,349.42 120.85,359.14 130.58,368.87 140.3,378.6 150.03,388.32 159.76,398.05 169.48,407.77 179.21,417.5 188.94,427.23 198.66,436.95 208.39,446.68 218.11,456.41 227.84,466.13 237.57,475.86 247.29,485.58 257.02,495.31 266.74,505.04"/>
</g>
<g fill="#ffffff" stroke="none" stroke-width="1">
<path d="m107.88,425.61l39.72,0l0,-39.72l39.72,0l39.72,0l0,-79.43l39.72,0l39.72,0l0,-39.72l39.72,0l39.72,0l0,-119.15l39.72,0l39.72,0l0,238.29l39.72,0l0,119.15l-476.58,0l39.72,0l0,-79.43"/>
</g>
</g>
<g clip-path="url(#c7)">
<g fill="none" stroke="#0000ff" stroke-width="0.62">
<path d="M75.76,146.97l-8.19,8.19M86.37,146.97l-18.79,18.79M96.97,146.97l-29.4,29.4M107.58,146.97l-40.01,40.01M118.19,146.97l-50.61,50.61M128.79,146.97l-61.22,61.22M139.4,146.97l-71.83,71.83M150.01,146.97l-82.43,82.43M160.61,146.97l-93.04,93.04M171.22,146.97l-103.64,103.64M181.83,146.97l-114.25,114.25M192.43,146.97l-124.86,124.86M203.04,146.97l-135.46,135.46M213.65,146.97l-146.07,146.07M224.25,146.97l-156.68,156.68M234.86,146.97l-167.28,167.28M245.47,146.97l-177.89,177.89M256.07,146.97l-188.5,188.5M266.68,146.97l-199.1,199.1M277.28,146.97l-209.71,209.71M287.89,146.97l-220.32,220.32M298.5,146.97l-230.92,230.92M309.1,146.97l-241.53,241.53M319.71,146.97l-252.14,252.14M330.32,146.97l-262.74,262.74M340.92,146.97l-273.35,273.35M351.53,146.97l-283.96,283.96M362.14,146.97l-294.56,294.56M372.74,146.97l-305.17,305.17M383.35,146.97l-315.77,315.77M393.96,146.97l-326.38,326.38M404.56,146.97l-336.99,336.99M415.17,146.97l-347.59,347.59M425.78,146.97l-358.2,358.2M436.38,146.97l-358.65,358.65M446.99,146.97l-358.65,358.65M457.6,146.97l-358.65,358.65M468.2,146.97l-358.65,358.65M478.81,146.97l-358.65,358.65M489.41,146.97l-358.65,358.65M500.02,146.97l-358.65,358.65M505.62,151.98l-353.65,353.65M505.62,162.58l-343.04,343.04M505.62,173.19l-332.43,332.43M505.62,183.8l-321.83,321.83M505.62,194.4l-311.22,311.22M505.62,205.01l-300.61,300.61M505.62,215.62l-290.01,290.01M505.62,226.22l-279.4,279.4M505.62,236.83l-268.79,268.79M505.62,247.44l-258.19,258.19M505.62,258.04l-247.58,247.58M505.62,268.65l-236.98,236.98M505.62,279.26l-226.37,226.37M505.62,289.86l-215.76,215.76M505.62,300.47l-205.16,205.16M505.62,311.08l-194.55,194.55M505.62,321.68l-183.94,183.94M505.62,332.29l-173.34,173.34M505.62,342.89l-162.73,162.73M505.62,353.5l-152.12,152.12M505.62,364.11l-141.52,141.52M505.62,374.71l-130.91,130.91M505.62,385.32l-120.3,120.3M505.62,395.93l-109.7,109.7M505.62,406.53l-99.09,99.09M505.62,417.14l-88.48,88.48M505.62,427.75l-77.88,77.88M505.62,438.35l-67.27,67.27M505.62,448.96l-56.66,56.66M505.62,459.57l-46.06,46.06M505.62,470.17l-35.45,35.45M505.62,480.78l-24.85,24.85M505.62,491.39l-14.24,14.24M505.62,501.99l-3.63,3.63"/>
</g>
</g>
<g clip-path="url(#c1)">
<g fill="none" stroke="#0000ff" stroke-width="1.25">
<polyline fill="none" points="28.45,505.04 68.17,505.04 68.17,425.61 107.88,425.61 147.6,425.61 147.6,385.89 187.31,385.89 227.03,385.89 227.03,306.46 266.74,306.46 306.46,306.46 306.46,266.74 346.18,266.74 385.89,266.74 385.89,147.6 425.61,147.6 465.32,147.6 465.32,385.89 505.04,385.89"/>
</g>
</g>
<g clip-path="url(#c0)">
<g fill="none" stroke-linecap="butt" stroke-width="0.62">
<path d="M28.45,505.04l0,-476.58"/>
<path d="M28.45,505.04l7.5,0M28.45,425.61l7.5,0M28.45,346.18l7.5,0M28.45,266.74l7.5,0M28.45,187.31l7.5,0M28.45,107.88l7.5,0M28.45,28.45l7.5,0"/>
<path d="M505.04,505.04l0,-476.58"/>
<path d="M505.04,505.04l-7.5,0M505.04,425.61l-7.5,0M505.04,346.18l-7.5,0M505.04,266.74l-7.5,0M505.04,187.31l-7.5,0M505.04,107.88l-7.5,0M505.04,28.45l-7.5,0"/>
</g>
<g fill="none" stroke-width="1">
<path d="m18.91,511.09c0.87,0,1.52,-0.48,1.96,-1.44c0.43,-0.96,0.65,-2.4,0.65,-4.33c0,-1.94,-0.22,-3.38,-0.65,-4.34c-0.43,-0.96,-1.09,-1.44,-1.96,-1.44c-0.87,0,-1.52,0.48,-1.96,1.44c-0.43,0.96,-0.65,2.4,-0.65,4.34c0,1.93,0.22,3.38,0.65,4.33c0.43,0.96,1.09,1.44,1.96,1.44m0,0.85c-1.38,0,-2.47,-0.58,-3.24,-1.74c-0.78,-1.16,-1.17,-2.79,-1.17,-4.87c0,-2.09,0.39,-3.72,1.17,-4.88c0.78,-1.16,1.86,-1.74,3.24,-1.74c1.39,0,2.47,0.58,3.25,1.74c0.77,1.16,1.16,2.79,1.16,4.88c0,2.08,-0.39,3.71,-1.16,4.87c-0.77,1.16,-1.86,1.74,-3.25,1.74" fill="#000000" stroke="none" fill-opacity="1"/>
<path d="m15.59,422.54l-0.96,0l0,-2.27c0.61,-0.32,1.22,-0.57,1.84,-0.74c0.62,-0.17,1.22,-0.26,1.82,-0.26c1.33,0,2.38,0.32,3.14,0.97c0.77,0.64,1.15,1.52,1.15,2.62c0,1.25,-0.87,2.74,-2.62,4.48c-0.14,0.13,-0.24,0.23,-0.31,0.3l-3.22,3.22l5.32,0l0,-1.57l1,0l0,2.97l-8.23,0l0,-0.93l3.87,-3.86c0.85,-0.85,1.46,-1.64,1.83,-2.35c0.36,-0.72,0.55,-1.47,0.55,-2.25c0,-0.86,-0.22,-1.53,-0.67,-2.02c-0.45,-0.48,-1.06,-0.73,-1.85,-0.73c-0.81,0,-1.44,0.2,-1.89,0.61c-0.44,0.4,-0.71,1.01,-0.79,1.82" fill="#000000" stroke="none" fill-opacity="1"/>
<path d="m19.46,348.5l0,-6.78l-4.36,6.78l4.36,0m3.76,4.32l-5.81,0l0,-0.91l2.05,0l0,-2.5l-5.57,0l0,-0.93l5.59,-8.65l1.69,0l0,8.67l2.44,0l0,0.91l-2.44,0l0,2.5l2.05,0l0,0.91" fill="#000000" stroke="none" fill-opacity="1"/>
<path d="m19.08,272.8c0.8,0,1.42,-0.29,1.85,-0.88c0.43,-0.59,0.65,-1.44,0.65,-2.54c0,-1.11,-0.22,-1.95,-0.65,-2.54c-0.43,-0.59,-1.05,-0.88,-1.85,-0.88c-0.81,0,-1.44,0.28,-1.86,0.85c-0.43,0.57,-0.64,1.39,-0.64,2.47c0,1.13,0.22,2,0.65,2.61c0.43,0.61,1.05,0.91,1.85,0.91m-2.79,-6.42c0.39,-0.43,0.83,-0.75,1.32,-0.96c0.49,-0.21,1.04,-0.32,1.66,-0.32c1.27,0,2.27,0.38,3.01,1.14c0.74,0.76,1.11,1.81,1.11,3.13c0,1.29,-0.4,2.33,-1.19,3.11c-0.79,0.78,-1.86,1.17,-3.18,1.17c-1.44,0,-2.55,-0.54,-3.32,-1.61c-0.77,-1.07,-1.16,-2.61,-1.16,-4.6c0,-2.23,0.46,-3.96,1.38,-5.19c0.92,-1.22,2.21,-1.84,3.88,-1.84c0.45,0,0.92,0.04,1.42,0.13c0.5,0.09,1,0.21,1.52,0.39l0,2.1l-0.97,0c-0.07,-0.57,-0.29,-1.01,-0.66,-1.32c-0.37,-0.3,-0.87,-0.45,-1.49,-0.45c-1.11,0,-1.93,0.42,-2.47,1.26c-0.54,0.84,-0.82,2.12,-0.84,3.86" fill="#000000" stroke="none" fill-opacity="1"/>
<path d="m21.5,190.48c0,-0.91,-0.23,-1.62,-0.68,-2.12c-0.45,-0.5,-1.09,-0.76,-1.91,-0.76c-0.82,0,-1.46,0.25,-1.91,0.76c-0.45,0.5,-0.68,1.21,-0.68,2.12c0,0.92,0.23,1.63,0.68,2.13c0.45,0.5,1.09,0.76,1.91,0.76c0.82,0,1.46,-0.25,1.91,-0.76c0.45,-0.5,0.68,-1.21,0.68,-2.13m-0.35,-6.2c0,-0.77,-0.2,-1.38,-0.59,-1.81c-0.39,-0.43,-0.94,-0.65,-1.65,-0.65c-0.7,0,-1.25,0.22,-1.64,0.65c-0.4,0.43,-0.59,1.04,-0.59,1.81c0,0.78,0.2,1.39,0.59,1.82c0.4,0.43,0.94,0.65,1.64,0.65c0.71,0,1.26,-0.22,1.65,-0.65c0.39,-0.43,0.59,-1.04,0.59,-1.82m-0.92,2.89c0.97,0.13,1.72,0.49,2.26,1.07c0.54,0.58,0.81,1.33,0.81,2.24c0,1.2,-0.38,2.12,-1.14,2.76c-0.76,0.65,-1.84,0.97,-3.26,0.97c-1.41,0,-2.49,-0.32,-3.25,-0.97c-0.76,-0.65,-1.14,-1.57,-1.14,-2.76c0,-0.91,0.27,-1.65,0.81,-2.24c0.54,-0.58,1.3,-0.94,2.27,-1.07c-0.86,-0.15,-1.52,-0.48,-1.98,-0.98c-0.46,-0.5,-0.69,-1.14,-0.69,-1.91c0,-1.02,0.35,-1.83,1.06,-2.42c0.71,-0.59,1.68,-0.89,2.91,-0.89c1.24,0,2.21,0.3,2.91,0.89c0.71,0.59,1.06,1.4,1.06,2.42c0,0.77,-0.23,1.41,-0.69,1.91c-0.46,0.5,-1.12,0.82,-1.97,0.98" fill="#000000" stroke="none" fill-opacity="1"/>
<path d="m4.74,114.53l0,-0.91l2.22,0l0,-10.61l-2.57,1.67l0,-1.12l3.11,-2.02l1.18,0l0,12.08l2.22,0l0,0.91l-6.16,0m14.18,-0.6c0.87,0,1.52,-0.48,1.96,-1.44c0.43,-0.96,0.65,-2.4,0.65,-4.33c0,-1.94,-0.22,-3.38,-0.65,-4.34c-0.43,-0.96,-1.09,-1.44,-1.96,-1.44c-0.87,0,-1.52,0.48,-1.96,1.44c-0.43,0.96,-0.65,2.4,-0.65,4.34c0,1.93,0.22,3.38,0.65,4.33c0.43,0.96,1.09,1.44,1.96,1.44m0,0.85c-1.38,0,-2.47,-0.58,-3.24,-1.74c-0.78,-1.16,-1.17,-2.79,-1.17,-4.87c0,-2.09,0.39,-3.72,1.17,-4.88c0.78,-1.16,1.86,-1.74,3.24,-1.74c1.39,0,2.47,0.58,3.25,1.74c0.77,1.16,1.16,2.79,1.16,4.88c0,2.08,-0.39,3.71,-1.16,4.87c-0.77,1.16,-1.86,1.74,-3.25,1.74" fill="#000000" stroke="none" fill-opacity="1"/>
<path d="m4.74,35.1l0,-0.91l2.22,0l0,-10.61l-2.57,1.67l0,-1.12l3.11,-2.02l1.18,0l0,12.08l2.22,0l0,0.91l-6.16,0m10.85,-9.72l-0.96,0l0,-2.27c0.61,-0.32,1.22,-0.57,1.84,-0.74c0.62,-0.17,1.22,-0.26,1.82,-0.26c1.33,0,2.38,0.32,3.14,0.97c0.77,0.64,1.15,1.52,1.15,2.62c0,1.25,-0.87,2.74,-2.62,4.48c-0.14,0.13,-0.24,0.23,-0.31,0.3l-3.22,3.22l5.32,0l0,-1.57l1,0l0,2.97l-8.23,0l0,-0.93l3.87,-3.86c0.85,-0.85,1.46,-1.64,1.83,-2.35c0.36,-0.72,0.55,-1.47,0.55,-2.25c0,-0.86,-0.22,-1.53,-0.67,-2.02c-0.45,-0.48,-1.06,-0.73,-1.85,-0.73c-0.81,0,-1.44,0.2,-1.89,0.61c-0.44,0.4,-0.71,1.01,-0.79,1.82" fill="#000000" stroke="none" fill-opacity="1"/>
</g>
<g fill="none" stroke-linecap="butt" stroke-width="0.62">
<path d="M28.45,505.04l476.58,0"/>
<path d="M28.45,505.04l0,-7.5M107.88,505.04l0,-7.5M187.31,505.04l0,-7.5M266.74,505.04l0,-7.5M346.18,505.04l0,-7.5M425.61,505.04l0,-7.5M505.04,505.04l0,-7.5"/>
<path d="M28.45,28.45l476.58,0"/>
<path d="M28.45,28.45l0,7.5M107.88,28.45l0,7.5M187.31,28.45l0,7.5M266.74,28.45l0,7.5M346.18,28.45l0,7.5M425.61,28.45l0,7.5M505.04,28.45l0,7.5"/>
</g>
<g fill="none" stroke-width="1">
<path d="m25.39,525.34l0,-0.91l2.22,0l0,-10.61l-2.57,1.67l0,-1.12l3.11,-2.02l1.18,0l0,12.08l2.22,0l0,0.91l-6.16,0" fill="#000000" stroke="none" fill-opacity="1"/>
<path d="m104.57,515.62l-0.96,0l0,-2.27c0.61,-0.32,1.22,-0.57,1.84,-0.74c0.62,-0.17,1.22,-0.26,1.82,-0.26c1.33,0,2.38,0.32,3.14,0.97c0.77,0.64,1.15,1.52,1.15,2.62c0,1.25,-0.87,2.74,-2.62,4.48c-0.14,0.13,-0.24,0.23,-0.31,0.3l-3.22,3.22l5.32,0l0,-1.57l1,0l0,2.97l-8.23,0l0,-0.93l3.87,-3.86c0.85,-0.85,1.46,-1.64,1.83,-2.35c0.36,-0.72,0.55,-1.47,0.55,-2.25c0,-0.86,-0.22,-1.53,-0.67,-2.02c-0.45,-0.48,-1.06,-0.73,-1.85,-0.73c-0.81,0,-1.44,0.2,-1.89,0.61c-0.44,0.4,-0.71,1.01,-0.79,1.82" fill="#000000" stroke="none" fill-opacity="1"/>
<path d="m183.46,513.12c0.67,-0.25,1.31,-0.44,1.92,-0.57c0.61,-0.13,1.19,-0.2,1.72,-0.2c1.25,0,2.22,0.27,2.92,0.81c0.7,0.54,1.05,1.29,1.05,2.24c0,0.77,-0.24,1.41,-0.73,1.93c-0.48,0.52,-1.17,0.86,-2.06,1.05c1.05,0.15,1.86,0.53,2.44,1.14c0.58,0.61,0.87,1.41,0.87,2.38c0,1.19,-0.4,2.1,-1.2,2.74c-0.8,0.64,-1.95,0.95,-3.46,0.95c-0.67,0,-1.32,-0.07,-1.95,-0.21c-0.63,-0.14,-1.27,-0.36,-1.89,-0.65l0,-2.48l0.96,0c0.06,0.82,0.33,1.44,0.83,1.86c0.5,0.42,1.19,0.63,2.09,0.63c0.87,0,1.56,-0.25,2.06,-0.76c0.5,-0.5,0.76,-1.19,0.76,-2.07c0,-1,-0.26,-1.76,-0.78,-2.28c-0.52,-0.52,-1.28,-0.77,-2.28,-0.77l-0.81,0l0,-0.87l0.43,0c1,0,1.74,-0.21,2.24,-0.62c0.5,-0.41,0.75,-1.04,0.75,-1.87c0,-0.75,-0.21,-1.32,-0.62,-1.71c-0.41,-0.4,-1,-0.59,-1.77,-0.59c-0.77,0,-1.37,0.18,-1.79,0.55c-0.42,0.36,-0.67,0.91,-0.75,1.62l-0.96,0l0,-2.25" fill="#000000" stroke="none" fill-opacity="1"/>
<path d="m267.3,521.01l0,-6.78l-4.36,6.78l4.36,0m3.76,4.32l-5.81,0l0,-0.91l2.05,0l0,-2.5l-5.57,0l0,-0.93l5.59,-8.65l1.69,0l0,8.67l2.44,0l0,0.91l-2.44,0l0,2.5l2.05,0l0,0.91" fill="#000000" stroke="none" fill-opacity="1"/>
<path d="m349.43,512.58l0,1.4l-5.85,0l0,3.66c0.3,-0.21,0.64,-0.36,1.04,-0.46c0.4,-0.1,0.84,-0.15,1.33,-0.15c1.38,0,2.47,0.38,3.26,1.15c0.8,0.76,1.2,1.81,1.2,3.13c0,1.35,-0.4,2.4,-1.21,3.16c-0.81,0.76,-1.94,1.13,-3.4,1.13c-0.59,0,-1.19,-0.07,-1.8,-0.21c-0.62,-0.14,-1.24,-0.36,-1.89,-0.65l0,-2.48l0.97,0c0.05,0.81,0.31,1.43,0.77,1.85c0.46,0.43,1.11,0.64,1.95,0.64c0.9,0,1.59,-0.3,2.08,-0.89c0.48,-0.59,0.73,-1.44,0.73,-2.56c0,-1.11,-0.24,-1.95,-0.72,-2.54c-0.48,-0.59,-1.17,-0.88,-2.08,-0.88c-0.51,0,-0.96,0.09,-1.35,0.27c-0.39,0.18,-0.74,0.46,-1.04,0.85l-0.73,0l0,-6.41l6.75,0" fill="#000000" stroke="none" fill-opacity="1"/>
<path d="m425.78,524.74c0.8,0,1.42,-0.29,1.85,-0.88c0.43,-0.59,0.65,-1.44,0.65,-2.54c0,-1.11,-0.22,-1.95,-0.65,-2.54c-0.43,-0.59,-1.05,-0.88,-1.85,-0.88c-0.81,0,-1.44,0.28,-1.86,0.85c-0.43,0.57,-0.64,1.39,-0.64,2.47c0,1.13,0.22,2,0.65,2.61c0.43,0.61,1.05,0.91,1.85,0.91m-2.79,-6.42c0.39,-0.43,0.83,-0.75,1.32,-0.96c0.49,-0.21,1.04,-0.32,1.66,-0.32c1.27,0,2.27,0.38,3.01,1.14c0.74,0.76,1.11,1.81,1.11,3.13c0,1.29,-0.4,2.33,-1.19,3.11c-0.79,0.78,-1.86,1.17,-3.18,1.17c-1.44,0,-2.55,-0.54,-3.32,-1.61c-0.77,-1.07,-1.16,-2.61,-1.16,-4.6c0,-2.23,0.46,-3.96,1.38,-5.19c0.92,-1.22,2.21,-1.84,3.88,-1.84c0.45,0,0.92,0.04,1.42,0.13c0.5,0.09,1,0.21,1.52,0.39l0,2.1l-0.97,0c-0.07,-0.57,-0.29,-1.01,-0.66,-1.32c-0.37,-0.3,-0.87,-0.45,-1.49,-0.45c-1.11,0,-1.93,0.42,-2.47,1.26c-0.54,0.84,-0.82,2.12,-0.84,3.86" fill="#000000" stroke="none" fill-opacity="1"/>
<path d="m509.35,513.45l-4.99,11.89l-1.27,0l4.76,-11.36l-5.9,0l0,1.57l-1,0l0,-2.97l8.4,0l0,0.87" fill="#000000" stroke="none" fill-opacity="1"/>
</g>
</g>
</g>
</svg>
