<?xml version="1.0" standalone="no"?>
<!DOCTYPE svg PUBLIC "-//W3C//DTD SVG 1.1//EN" 
  "http://www.w3.org/Graphics/SVG/1.1/DTD/svg11.dtd">
<svg width="533.49px" height="533.49px" version="1.1"
     xmlns="http://www.w3.org/2000/svg"
     xmlns:xlink="http://www.w3.org/1999/xlink">
<desc>Veusz output document</desc>
<g stroke-linejoin="bevel" stroke-linecap="square" stroke="#000000" fill-rule="evenodd">
<g clip-path="url(#c0)">
<g stroke-width="0.62" fill="#ffffff">
<path d="m60.46,7.11l465.91,0l0,465.91l-465.91,0l0,-465.91"/>
</g>
<g stroke-width="1" transform="matrix(0 1 -1 0 456.49 69.07)" fill="none">
<path d="m9.14,-27.39l0,11.45l6.37,0c1.65,0,2.74,-0.25,3.3,-0.75c0.75,-0.66,1.17,-1.81,1.25,-3.45l0.78,0l0,10.08l-0.78,0c-0.2,-1.41,-0.4,-2.31,-0.59,-2.72c-0.26,-0.49,-0.68,-0.88,-1.27,-1.16c-0.58,-0.29,-1.48,-0.43,-2.69,-0.43l-6.37,0l0,9.55c0,1.28,0.06,2.06,0.17,2.34c0.11,0.28,0.32,0.5,0.6,0.66c0.29,0.17,0.83,0.25,1.62,0.25l4.92,0c1.64,0,2.82,-0.11,3.56,-0.34c0.74,-0.23,1.45,-0.68,2.14,-1.34c0.89,-0.89,1.79,-2.22,2.7,-4l0.86,0l-2.5,7.27l-22.33,0l0,-0.8l1.03,0c0.69,0,1.33,-0.16,1.94,-0.48c0.46,-0.23,0.77,-0.57,0.94,-1.02c0.17,-0.45,0.25,-1.39,0.25,-2.8l0,-18.81c0,-1.84,-0.19,-2.98,-0.56,-3.41c-0.51,-0.56,-1.36,-0.84,-2.56,-0.84l-1.03,0l0,-0.8l22.33,0l0.33,6.34l-0.84,0c-0.29,-1.52,-0.62,-2.57,-0.98,-3.14c-0.36,-0.57,-0.9,-1.01,-1.61,-1.3c-0.57,-0.22,-1.58,-0.33,-3.02,-0.33l-7.95,0m18.44,7.83l9.2,0l0,0.78c-0.58,0,-0.99,0.1,-1.23,0.3c-0.23,0.2,-0.35,0.47,-0.35,0.79c0,0.34,0.25,0.87,0.75,1.58c0.16,0.23,0.39,0.58,0.7,1.06l1.39,2.23l1.59,-2.23c1.03,-1.41,1.55,-2.29,1.55,-2.66c0,-0.3,-0.12,-0.56,-0.37,-0.77c-0.24,-0.21,-0.64,-0.31,-1.18,-0.31l0,-0.78l6.62,0l0,0.78c-0.7,0.04,-1.3,0.23,-1.81,0.58c-0.7,0.49,-1.65,1.54,-2.86,3.16l-2.67,3.58l4.87,7c1.19,1.73,2.04,2.77,2.55,3.12c0.52,0.35,1.18,0.54,1.99,0.59l0,0.77l-9.23,0l0,-0.77c0.65,0,1.15,-0.15,1.5,-0.44c0.27,-0.2,0.41,-0.46,0.41,-0.78c0,-0.33,-0.46,-1.16,-1.37,-2.48l-2.86,-4.19l-3.14,4.19c-0.97,1.3,-1.45,2.07,-1.45,2.31c0,0.34,0.16,0.65,0.48,0.93c0.32,0.28,0.8,0.43,1.44,0.46l0,0.77l-6.39,0l0,-0.77c0.52,-0.07,0.97,-0.25,1.36,-0.53c0.54,-0.42,1.45,-1.47,2.73,-3.17l4.09,-5.44l-3.72,-5.39c-1.05,-1.54,-1.87,-2.51,-2.45,-2.9c-0.58,-0.39,-1.3,-0.59,-2.16,-0.59l0,-0.78m33.87,16.75c-2.01,1.55,-3.27,2.45,-3.78,2.69c-0.77,0.35,-1.59,0.53,-2.45,0.53c-1.35,0,-2.47,-0.46,-3.34,-1.39c-0.87,-0.93,-1.31,-2.15,-1.31,-3.66c0,-0.95,0.21,-1.77,0.64,-2.47c0.58,-0.97,1.6,-1.88,3.04,-2.73c1.44,-0.85,3.85,-1.9,7.21,-3.12l0,-0.77c0,-1.95,-0.31,-3.29,-0.93,-4.02c-0.62,-0.73,-1.52,-1.09,-2.7,-1.09c-0.9,0,-1.61,0.24,-2.14,0.73c-0.54,0.48,-0.81,1.03,-0.81,1.66l0.05,1.25c0,0.65,-0.17,1.15,-0.51,1.51c-0.34,0.36,-0.77,0.54,-1.3,0.54c-0.53,0,-0.96,-0.18,-1.3,-0.55c-0.33,-0.37,-0.5,-0.88,-0.5,-1.52c0,-1.22,0.62,-2.34,1.87,-3.37c1.25,-1.03,3.01,-1.54,5.28,-1.54c1.73,0,3.15,0.29,4.27,0.87c0.84,0.44,1.46,1.12,1.86,2.06c0.26,0.61,0.39,1.87,0.39,3.77l0,6.64c0,1.86,0.03,3.01,0.1,3.43c0.07,0.42,0.18,0.7,0.35,0.84c0.17,0.14,0.35,0.21,0.56,0.21c0.23,0,0.43,-0.05,0.61,-0.14c0.29,-0.19,0.86,-0.71,1.72,-1.56l0,1.2c-1.59,2.14,-3.11,3.2,-4.56,3.2c-0.7,0,-1.26,-0.24,-1.67,-0.73c-0.42,-0.48,-0.63,-1.31,-0.64,-2.48m0,-1.39l0,-7.45c-2.15,0.85,-3.54,1.46,-4.17,1.81c-1.12,0.62,-1.93,1.28,-2.41,1.96c-0.48,0.68,-0.73,1.43,-0.73,2.24c0,1.02,0.31,1.87,0.92,2.55c0.61,0.68,1.32,1.02,2.12,1.02c1.08,0,2.51,-0.71,4.27,-2.12m14.72,-11.78c1.43,-1.42,2.27,-2.23,2.53,-2.45c0.64,-0.54,1.32,-0.96,2.06,-1.26c0.74,-0.3,1.47,-0.45,2.2,-0.45c1.23,0,2.28,0.35,3.16,1.06c0.88,0.71,1.47,1.74,1.77,3.09c1.47,-1.71,2.71,-2.83,3.72,-3.36c1.01,-0.53,2.05,-0.8,3.11,-0.8c1.04,0,1.97,0.27,2.77,0.8c0.81,0.53,1.45,1.4,1.91,2.61c0.31,0.83,0.47,2.13,0.47,3.89l0,8.42c0,1.23,0.09,2.07,0.28,2.52c0.14,0.31,0.4,0.58,0.78,0.8c0.39,0.22,1.02,0.34,1.89,0.34l0,0.77l-9.66,0l0,-0.77l0.41,0c0.83,0,1.48,-0.17,1.95,-0.5c0.33,-0.23,0.57,-0.59,0.72,-1.08c0.05,-0.25,0.08,-0.94,0.08,-2.08l0,-8.42c0,-1.59,-0.19,-2.72,-0.58,-3.37c-0.55,-0.91,-1.44,-1.36,-2.67,-1.36c-0.75,0,-1.51,0.19,-2.27,0.56c-0.77,0.37,-1.68,1.08,-2.76,2.11l-0.05,0.23l0.05,0.92l0,9.33c0,1.34,0.07,2.18,0.22,2.5c0.15,0.32,0.43,0.6,0.84,0.82c0.42,0.22,1.12,0.34,2.11,0.34l0,0.77l-9.89,0l0,-0.77c1.08,0,1.83,-0.13,2.23,-0.38c0.41,-0.26,0.69,-0.64,0.84,-1.16c0.07,-0.24,0.11,-0.94,0.11,-2.11l0,-8.42c0,-1.59,-0.23,-2.74,-0.7,-3.44c-0.62,-0.91,-1.5,-1.36,-2.62,-1.36c-0.77,0,-1.54,0.2,-2.3,0.61c-1.18,0.64,-2.09,1.34,-2.73,2.12l0,10.48c0,1.28,0.09,2.11,0.27,2.5c0.18,0.39,0.45,0.67,0.8,0.87c0.35,0.19,1.05,0.29,2.12,0.29l0,0.77l-9.67,0l0,-0.77c0.9,0,1.52,-0.1,1.87,-0.29c0.35,-0.19,0.62,-0.5,0.81,-0.92c0.19,-0.42,0.28,-1.24,0.28,-2.45l0,-7.48c0,-2.15,-0.07,-3.53,-0.2,-4.16c-0.09,-0.47,-0.25,-0.79,-0.46,-0.97c-0.21,-0.18,-0.51,-0.27,-0.88,-0.27c-0.4,0,-0.87,0.1,-1.42,0.31l-0.33,-0.77l5.91,-2.39l0.91,0l0,4.16m24.78,-1.64l6.03,-2.44l0.81,0l0,4.58c1.01,-1.73,2.02,-2.94,3.04,-3.62c1.02,-0.69,2.09,-1.03,3.21,-1.03c1.97,0,3.61,0.77,4.92,2.3c1.6,1.89,2.41,4.34,2.41,7.36c0,3.37,-0.97,6.17,-2.91,8.37c-1.59,1.8,-3.6,2.7,-6.02,2.7c-1.05,0,-1.96,-0.15,-2.73,-0.44c-0.57,-0.22,-1.21,-0.65,-1.92,-1.28l0,5.95c0,1.34,0.08,2.2,0.24,2.55c0.16,0.36,0.45,0.65,0.85,0.86c0.41,0.21,1.15,0.32,2.22,0.32l0,0.8l-10.27,0l0,-0.8l0.55,0c0.78,0.02,1.45,-0.12,2,-0.44c0.27,-0.17,0.48,-0.42,0.63,-0.77c0.15,-0.34,0.23,-1.23,0.23,-2.66l0,-18.5c0,-1.27,-0.06,-2.08,-0.17,-2.42c-0.11,-0.34,-0.3,-0.6,-0.55,-0.77c-0.25,-0.17,-0.59,-0.25,-1.02,-0.25c-0.34,0,-0.78,0.1,-1.3,0.3l-0.27,-0.69m6.84,3.39l0,7.31c0,1.58,0.06,2.62,0.19,3.12c0.2,0.82,0.68,1.55,1.46,2.17c0.78,0.62,1.76,0.94,2.95,0.94c1.42,0,2.57,-0.55,3.45,-1.66c1.16,-1.46,1.73,-3.51,1.73,-6.14c0,-2.99,-0.66,-5.29,-1.97,-6.89c-0.91,-1.11,-1.99,-1.67,-3.25,-1.67c-0.68,0,-1.35,0.17,-2.03,0.52c-0.51,0.25,-1.35,1.02,-2.53,2.3m22.3,-16.14l0,25.95c0,1.23,0.09,2.04,0.27,2.44c0.18,0.4,0.45,0.7,0.82,0.91c0.37,0.21,1.07,0.31,2.09,0.31l0,0.77l-9.59,0l0,-0.77c0.9,0,1.51,-0.09,1.84,-0.28c0.33,-0.19,0.58,-0.49,0.77,-0.92c0.18,-0.43,0.27,-1.24,0.27,-2.45l0,-17.78c0,-2.2,-0.05,-3.55,-0.15,-4.05c-0.1,-0.51,-0.26,-0.85,-0.48,-1.04c-0.22,-0.19,-0.5,-0.28,-0.84,-0.28c-0.37,0,-0.84,0.11,-1.41,0.34l-0.37,-0.75l5.84,-2.39l0.95,0m8.56,18.17c-0.01,2.91,0.69,5.19,2.11,6.84c1.43,1.65,3.1,2.47,5.03,2.47c1.28,0,2.4,-0.35,3.34,-1.05c0.95,-0.7,1.74,-1.91,2.37,-3.62l0.66,0.42c-0.29,1.96,-1.16,3.74,-2.59,5.34c-1.44,1.6,-3.24,2.4,-5.41,2.4c-2.35,0,-4.37,-0.91,-6.04,-2.74c-1.67,-1.83,-2.51,-4.29,-2.51,-7.38c0,-3.34,0.86,-5.95,2.57,-7.83c1.71,-1.87,3.87,-2.81,6.46,-2.81c2.2,0,4,0.72,5.41,2.17c1.41,1.45,2.11,3.38,2.11,5.8l-13.52,0m0,-1.23l9.06,0c-0.07,-1.25,-0.22,-2.13,-0.45,-2.64c-0.35,-0.8,-0.89,-1.43,-1.59,-1.89c-0.71,-0.46,-1.44,-0.69,-2.2,-0.69c-1.19,0,-2.25,0.46,-3.18,1.38c-0.93,0.92,-1.48,2.2,-1.63,3.84" fill="#000000" stroke="none" fill-opacity="1"/>
<path d="m176.84,-30.37l-6,20.73c2.58,-3.9,4.6,-6.48,6.05,-7.77c1.45,-1.28,2.84,-1.92,4.16,-1.92c0.69,0,1.26,0.23,1.72,0.7c0.46,0.47,0.69,1.09,0.69,1.87c0,0.94,-0.2,2.08,-0.61,3.42l-2.61,8.95c-0.32,1.08,-0.48,1.68,-0.48,1.8c0,0.2,0.06,0.36,0.18,0.48c0.12,0.12,0.26,0.19,0.41,0.19c0.19,0,0.4,-0.09,0.64,-0.27c0.81,-0.64,1.62,-1.51,2.42,-2.61l0.66,0.41c-0.48,0.75,-1.15,1.58,-2.02,2.48c-0.86,0.91,-1.61,1.53,-2.23,1.88c-0.62,0.35,-1.17,0.52,-1.65,0.52c-0.53,0,-0.96,-0.17,-1.3,-0.5c-0.33,-0.33,-0.5,-0.77,-0.5,-1.3c0,-0.62,0.25,-1.79,0.75,-3.5l2.45,-8.55c0.31,-1.07,0.47,-1.91,0.47,-2.52c0,-0.29,-0.09,-0.52,-0.27,-0.7c-0.18,-0.17,-0.41,-0.26,-0.69,-0.26c-0.42,0,-0.89,0.16,-1.42,0.47c-0.97,0.6,-2.08,1.72,-3.34,3.34c-0.34,0.44,-1.48,2.22,-3.42,5.34c-0.59,0.99,-1.08,2.08,-1.47,3.27l-1.37,4.37l-3.2,0l7.03,-24.44l0.75,-2.66c0,-0.36,-0.15,-0.69,-0.46,-0.98c-0.31,-0.29,-0.68,-0.43,-1.12,-0.43c-0.26,0,-0.66,0.04,-1.19,0.12l-0.44,0.06l0,-0.83l7.39,-1.23m18.94,2.56c0.6,0,1.11,0.21,1.52,0.62c0.41,0.41,0.62,0.92,0.62,1.52c0,0.58,-0.21,1.08,-0.63,1.5c-0.42,0.42,-0.92,0.62,-1.51,0.62c-0.58,0,-1.09,-0.21,-1.51,-0.62c-0.42,-0.42,-0.63,-0.92,-0.63,-1.5c0,-0.6,0.21,-1.11,0.62,-1.52c0.42,-0.41,0.92,-0.62,1.52,-0.62m0.28,8.48l-4.23,14.97c-0.28,1.01,-0.42,1.61,-0.42,1.81c0,0.23,0.07,0.42,0.2,0.56c0.14,0.15,0.3,0.22,0.48,0.22c0.21,0,0.46,-0.11,0.77,-0.34c0.81,-0.65,1.63,-1.56,2.45,-2.73l0.75,0.48c-0.97,1.48,-2.11,2.72,-3.42,3.73c-0.97,0.76,-1.9,1.14,-2.78,1.14c-0.58,0,-1.06,-0.17,-1.43,-0.52c-0.37,-0.35,-0.55,-0.79,-0.55,-1.32c0,-0.52,0.18,-1.4,0.53,-2.62l2.78,-9.56c0.46,-1.57,0.69,-2.56,0.69,-2.95c0,-0.31,-0.11,-0.57,-0.33,-0.77c-0.22,-0.2,-0.52,-0.3,-0.91,-0.3c-0.31,0,-0.96,0.08,-1.95,0.23l0,-0.84l7.37,-1.19m17.81,0l-1.31,6.55l-0.78,0c-0.07,-1.91,-0.48,-3.29,-1.22,-4.16c-0.74,-0.87,-1.66,-1.3,-2.75,-1.3c-0.89,0,-1.59,0.24,-2.11,0.73c-0.52,0.48,-0.78,1.07,-0.78,1.76c0,0.47,0.1,0.92,0.31,1.34c0.21,0.43,0.66,1.03,1.36,1.8c1.84,2.02,3.04,3.54,3.58,4.57c0.54,1.03,0.81,2,0.81,2.91c0,1.48,-0.61,2.79,-1.84,3.94c-1.23,1.15,-2.79,1.72,-4.67,1.72c-1.02,0,-2.2,-0.24,-3.55,-0.73c-0.47,-0.17,-0.83,-0.25,-1.08,-0.25c-0.65,0,-1.13,0.33,-1.45,0.98l-0.8,0l1.3,-6.92l0.8,0c0.08,2.17,0.53,3.7,1.34,4.59c0.81,0.9,1.92,1.34,3.33,1.34c1.08,0,1.94,-0.3,2.58,-0.91c0.64,-0.6,0.95,-1.35,0.95,-2.23c0,-0.57,-0.11,-1.1,-0.34,-1.58c-0.4,-0.85,-1.23,-2.04,-2.51,-3.55c-1.28,-1.51,-2.1,-2.64,-2.46,-3.4c-0.36,-0.76,-0.55,-1.51,-0.55,-2.26c0,-1.39,0.5,-2.55,1.51,-3.51c1.01,-0.95,2.3,-1.43,3.88,-1.43c0.46,0,0.87,0.04,1.23,0.11c0.2,0.04,0.66,0.2,1.4,0.48c0.73,0.28,1.22,0.41,1.46,0.41c0.61,0,1.13,-0.33,1.55,-1l0.81,0m12.48,-5.3l-1.66,5.81l3.34,0l-0.36,1.34l-3.33,0l-3.67,12.59c-0.41,1.35,-0.61,2.23,-0.61,2.62c0,0.25,0.06,0.44,0.17,0.56c0.11,0.12,0.25,0.19,0.41,0.19c0.35,0,0.83,-0.25,1.42,-0.75c0.33,-0.28,1.09,-1.16,2.28,-2.62l0.7,0.53c-1.31,1.92,-2.55,3.27,-3.72,4.05c-0.8,0.54,-1.6,0.81,-2.41,0.81c-0.64,0,-1.15,-0.2,-1.55,-0.59c-0.4,-0.39,-0.59,-0.89,-0.59,-1.51c0,-0.77,0.23,-1.95,0.69,-3.53l3.56,-12.36l-3.23,0l0.22,-0.84c1.57,-0.43,2.88,-1.06,3.91,-1.91c1.04,-0.84,2.2,-2.31,3.48,-4.41l0.94,0m20.87,11.98c0,2.14,-0.57,4.25,-1.7,6.34c-1.14,2.09,-2.71,3.75,-4.73,4.98c-2.02,1.22,-3.98,1.84,-5.89,1.84c-1.95,0,-3.54,-0.62,-4.77,-1.87c-1.23,-1.24,-1.85,-2.86,-1.85,-4.84c0,-2.09,0.6,-4.2,1.8,-6.3c1.2,-2.11,2.81,-3.78,4.83,-5c2.02,-1.22,3.96,-1.84,5.84,-1.84c1.89,0,3.44,0.62,4.66,1.86c1.22,1.24,1.83,2.85,1.83,4.83m-3.55,-1.48c0,-1.32,-0.33,-2.34,-0.98,-3.04c-0.65,-0.7,-1.49,-1.05,-2.51,-1.05c-2.09,0,-4.02,1.5,-5.78,4.49c-1.76,2.99,-2.64,5.98,-2.64,8.95c0,1.35,0.34,2.4,1.03,3.12c0.69,0.73,1.55,1.09,2.58,1.09c2.01,0,3.9,-1.49,5.66,-4.47c1.76,-2.98,2.64,-6.01,2.64,-9.09m28.11,-3.89l-0.62,2.23l-3.56,0c0.27,0.76,0.41,1.48,0.41,2.16c0,1.87,-0.8,3.55,-2.39,5.02c-1.61,1.47,-3.82,2.28,-6.62,2.44c-1.51,0.46,-2.65,1,-3.41,1.62c-0.28,0.23,-0.42,0.46,-0.42,0.7c0,0.28,0.13,0.54,0.38,0.77c0.26,0.23,0.9,0.48,1.95,0.73l4.14,0.95c2.29,0.54,3.81,1.18,4.56,1.92c0.72,0.76,1.08,1.63,1.08,2.61c0,1.17,-0.43,2.23,-1.29,3.2c-0.86,0.97,-2.12,1.73,-3.78,2.27c-1.66,0.55,-3.49,0.82,-5.49,0.82c-1.77,0,-3.38,-0.21,-4.84,-0.62c-1.45,-0.42,-2.49,-0.98,-3.12,-1.7c-0.62,-0.71,-0.94,-1.45,-0.94,-2.21c0,-0.6,0.2,-1.24,0.61,-1.9c0.41,-0.66,0.92,-1.21,1.53,-1.63c0.37,-0.27,1.46,-0.92,3.27,-1.94c-0.66,-0.51,-0.98,-1.07,-0.98,-1.69c0,-0.56,0.29,-1.16,0.87,-1.8c0.58,-0.64,1.8,-1.35,3.66,-2.12c-1.57,-0.3,-2.82,-0.96,-3.73,-1.97c-0.92,-1.01,-1.37,-2.14,-1.37,-3.37c0,-2.02,0.89,-3.83,2.66,-5.42c1.77,-1.59,4.13,-2.39,7.08,-2.39c1.07,0,1.95,0.11,2.63,0.32c0.68,0.21,1.35,0.54,1.99,0.99l5.77,0m-7.42,3.36c0,-1.14,-0.32,-2.03,-0.95,-2.69c-0.63,-0.66,-1.46,-0.98,-2.49,-0.98c-1.6,0,-2.93,0.81,-3.98,2.42c-1.05,1.61,-1.57,3.3,-1.57,5.05c0,1.1,0.33,2.01,1,2.7c0.67,0.7,1.48,1.05,2.44,1.05c0.75,0,1.48,-0.21,2.19,-0.62c0.71,-0.42,1.3,-0.99,1.79,-1.71c0.48,-0.72,0.87,-1.65,1.15,-2.77c0.28,-1.12,0.42,-1.94,0.42,-2.44m-10.23,14.66c-1.15,0.53,-2.02,1.21,-2.61,2.03c-0.59,0.82,-0.89,1.64,-0.89,2.44c0,0.94,0.43,1.71,1.28,2.33c1.23,0.89,3.03,1.33,5.39,1.33c2.03,0,3.77,-0.35,5.22,-1.04c1.45,-0.69,2.17,-1.59,2.17,-2.68c0,-0.56,-0.27,-1.09,-0.8,-1.59c-0.54,-0.49,-1.57,-0.9,-3.1,-1.21c-0.84,-0.18,-3.06,-0.71,-6.66,-1.61m19.14,-18.14l7.37,-1.19l-3.08,10.37c2.49,-4.26,4.76,-7.23,6.8,-8.92c1.16,-0.97,2.09,-1.45,2.81,-1.45c0.47,0,0.84,0.14,1.11,0.41c0.27,0.28,0.41,0.68,0.41,1.21c0,0.94,-0.24,1.83,-0.72,2.69c-0.34,0.64,-0.83,0.95,-1.47,0.95c-0.33,0,-0.62,-0.11,-0.85,-0.32c-0.23,-0.21,-0.38,-0.54,-0.43,-0.98c-0.03,-0.27,-0.1,-0.45,-0.2,-0.53c-0.11,-0.11,-0.25,-0.17,-0.41,-0.17c-0.24,0,-0.46,0.06,-0.67,0.17c-0.37,0.2,-0.94,0.75,-1.69,1.66c-1.19,1.4,-2.47,3.21,-3.86,5.44c-0.59,0.94,-1.1,1.99,-1.53,3.17c-0.59,1.62,-0.94,2.6,-1.03,2.94l-0.67,2.69l-3.28,0l3.95,-13.27c0.46,-1.54,0.69,-2.64,0.69,-3.3c0,-0.25,-0.1,-0.46,-0.31,-0.64c-0.29,-0.22,-0.67,-0.33,-1.14,-0.33c-0.3,0,-0.85,0.06,-1.64,0.19l-0.16,-0.8m35.25,-1.19l-4.17,14.48l-0.47,1.94c-0.04,0.19,-0.06,0.34,-0.06,0.47c0,0.23,0.07,0.43,0.22,0.59c0.11,0.14,0.26,0.2,0.42,0.2c0.19,0,0.43,-0.11,0.73,-0.34c0.55,-0.42,1.29,-1.27,2.22,-2.56l0.72,0.52c-0.98,1.48,-1.99,2.61,-3.03,3.38c-1.04,0.78,-2,1.16,-2.87,1.16c-0.61,0,-1.08,-0.15,-1.38,-0.46c-0.31,-0.31,-0.46,-0.75,-0.46,-1.34c0,-0.7,0.16,-1.61,0.47,-2.75l0.45,-1.61c-1.86,2.44,-3.58,4.14,-5.16,5.11c-1.12,0.7,-2.23,1.05,-3.31,1.05c-1.03,0,-1.92,-0.43,-2.68,-1.3c-0.76,-0.86,-1.13,-2.05,-1.13,-3.56c0,-2.26,0.68,-4.65,2.04,-7.16c1.36,-2.52,3.09,-4.52,5.18,-6.02c1.64,-1.2,3.18,-1.8,4.62,-1.8c0.87,0,1.6,0.23,2.18,0.68c0.58,0.45,1.01,1.21,1.3,2.26l0.77,-2.42l3.41,-0.52m-7.61,1.11c-0.91,0,-1.87,0.43,-2.91,1.28c-1.45,1.21,-2.74,3,-3.87,5.38c-1.14,2.38,-1.7,4.53,-1.7,6.45c0,0.97,0.24,1.73,0.73,2.3c0.48,0.56,1.04,0.84,1.68,0.84c1.55,0,3.24,-1.15,5.06,-3.44c2.43,-3.04,3.64,-6.17,3.64,-9.37c0,-1.21,-0.23,-2.08,-0.7,-2.62c-0.47,-0.54,-1.11,-0.81,-1.92,-0.81m18.56,-1.11l-2.78,9.62c1.24,-2.26,2.3,-3.96,3.17,-5.09c1.35,-1.77,2.67,-3.06,3.95,-3.86c0.75,-0.45,1.54,-0.67,2.36,-0.67c0.72,0,1.31,0.23,1.78,0.68c0.47,0.45,0.7,1.04,0.7,1.76c0,0.7,-0.17,1.61,-0.5,2.73l-1.52,5.42c2.32,-4.34,4.53,-7.39,6.61,-9.14c1.16,-0.97,2.3,-1.45,3.42,-1.45c0.66,0,1.19,0.22,1.61,0.67c0.42,0.45,0.62,1.14,0.62,2.08c0,0.82,-0.12,1.7,-0.37,2.62l-2.36,8.31c-0.51,1.81,-0.77,2.82,-0.77,3.02c0,0.2,0.06,0.37,0.19,0.52c0.08,0.09,0.2,0.14,0.34,0.14c0.15,0,0.4,-0.14,0.75,-0.41c0.81,-0.62,1.57,-1.45,2.28,-2.47l0.7,0.44c-0.35,0.57,-0.98,1.36,-1.88,2.35c-0.9,0.99,-1.67,1.67,-2.31,2.03c-0.64,0.36,-1.23,0.54,-1.77,0.54c-0.5,0,-0.92,-0.17,-1.26,-0.52c-0.34,-0.34,-0.51,-0.77,-0.51,-1.27c0,-0.68,0.3,-2.05,0.89,-4.12l1.94,-6.84c0.44,-1.58,0.67,-2.46,0.7,-2.64c0.04,-0.27,0.06,-0.53,0.06,-0.78c0,-0.35,-0.08,-0.63,-0.23,-0.83c-0.17,-0.21,-0.36,-0.31,-0.58,-0.31c-0.59,0,-1.22,0.31,-1.89,0.92c-1.97,1.81,-3.81,4.35,-5.52,7.61c-1.12,2.15,-2.18,4.9,-3.17,8.27l-3.22,0l3.66,-12.92c0.4,-1.4,0.59,-2.33,0.59,-2.8c0,-0.39,-0.08,-0.67,-0.23,-0.86c-0.16,-0.19,-0.35,-0.28,-0.58,-0.28c-0.47,0,-0.97,0.17,-1.5,0.52c-0.85,0.55,-1.95,1.74,-3.3,3.56c-1.34,1.82,-2.39,3.57,-3.12,5.23c-0.35,0.79,-1.2,3.31,-2.55,7.55l-3.16,0l3.95,-13.84l0.52,-1.8c0.09,-0.27,0.14,-0.47,0.14,-0.59c0,-0.31,-0.14,-0.59,-0.43,-0.84c-0.29,-0.25,-0.65,-0.37,-1.09,-0.37c-0.19,0,-0.7,0.08,-1.53,0.25l-0.2,-0.78l7.37,-1.34" fill="#000000" stroke="none" fill-opacity="1"/>
</g>
</g>
<g clip-path="url(#c1)">
<g stroke-width="1" stroke="none" stroke-linecap="butt" fill="none">
<path d="M60.46,473.03l0,-1.86M62.79,473.03l0,-1.86M65.12,473.03l0,-1.86M67.45,473.03l0,-1.86M69.78,473.03l0,-1.86M72.11,473.03l0,-1.86M74.44,473.03l0,-1.86M76.77,473.03l0,-1.86M79.1,473.03l0,-1.86M81.43,473.03l0,-1.86M83.76,473.03l0,-1.86M86.09,473.03l0,-1.86M88.42,473.03l0,-1.86M90.75,473.03l0,-1.86M93.08,472.48l0,-2.63M95.41,473.03l0,-1.86M97.74,473.03l0,-1.86M100.06,473.03l0,-1.86M102.39,473.03l0,-1.86M104.72,473.03l0,-1.86M107.05,473.03l0,-1.86M109.38,473.03l0,-1.86M111.71,473.03l0,-1.86M114.04,473.03l0,-1.86M116.37,471.85l0,-3.22M118.7,472.48l0,-2.63M121.03,473.03l0,-1.86M123.36,473.03l0,-1.86M125.69,473.03l0,-1.86M128.02,473.03l0,-1.86M130.35,472.48l0,-2.63M132.68,472.48l0,-2.63M135.01,471.17l0,-3.72M137.34,472.48l0,-2.63M139.67,473.03l0,-1.86M142,472.48l0,-2.63M144.33,472.48l0,-2.63M146.66,468.98l0,-4.92M148.99,470.46l0,-4.16M151.32,471.85l0,-3.22M153.64,468.98l0,-4.92M155.97,464.29l0,-6.71M158.3,468.22l0,-5.26M160.63,466.67l0,-5.88M162.96,466.67l0,-5.88M165.29,466.67l0,-5.88M167.62,465.88l0,-6.17M169.95,462.68l0,-7.2M172.28,463.49l0,-6.96M174.61,457.76l0,-8.52M176.94,461.87l0,-7.44M179.27,460.23l0,-7.89M181.6,456.1l0,-8.92M183.93,445.98l0,-11M186.26,454.43l0,-9.3M188.59,441.71l0,-11.76M190.92,438.28l0,-12.34M193.25,440.85l0,-11.91M195.58,426.17l0,-14.16M197.91,434.83l0,-12.89M200.24,423.56l0,-14.53M202.57,423.56l0,-14.53M204.9,406.07l0,-16.74M207.22,407.83l0,-16.53M209.55,394.63l0,-18.03M211.88,387.56l0,-18.78M214.21,391.1l0,-18.41M216.54,365.4l0,-20.96M218.87,359.18l0,-21.53M221.2,370.73l0,-20.46M223.53,358.29l0,-21.61M225.86,327.95l0,-24.18M228.19,332.42l0,-23.82M230.52,327.95l0,-24.18M232.85,310.05l0,-25.57M235.18,305.57l0,-25.91M237.51,281.33l0,-27.65M239.84,288.52l0,-27.14M242.17,283.13l0,-27.52M244.5,266.04l0,-28.69M246.83,244.43l0,-30.11M249.16,261.54l0,-28.99M251.49,235.41l0,-30.67M253.82,216.46l0,-31.84M256.15,211.05l0,-32.16M258.48,203.82l0,-32.59M260.81,207.43l0,-32.38M263.13,168.56l0,-34.6M265.46,159.51l0,-35.09M267.79,197.5l0,-32.96M270.12,173.99l0,-34.3M272.45,128.71l0,-36.73M274.78,161.32l0,-34.99M277.11,123.27l0,-37.01M279.44,89.7l0,-38.7M281.77,148.64l0,-35.68M284.1,110.57l0,-37.66M286.43,103.31l0,-38.03M288.76,121.45l0,-37.11M291.09,118.73l0,-37.25M293.42,109.66l0,-37.71M295.75,120.55l0,-37.15M298.08,89.7l0,-38.7M300.41,100.59l0,-38.16M302.74,155.88l0,-35.29M305.07,119.64l0,-37.2M307.4,142.3l0,-36.02M309.73,134.14l0,-36.45M312.06,168.56l0,-34.6M314.39,180.32l0,-33.94M316.71,145.92l0,-35.82M319.04,167.65l0,-34.65M321.37,177.6l0,-34.09M323.7,165.84l0,-34.75M326.03,213.76l0,-32M328.36,217.37l0,-31.78M330.69,239.92l0,-30.39M333.02,263.34l0,-28.87M335.35,238.12l0,-30.51M337.68,251.64l0,-29.64M340.01,263.34l0,-28.87M342.34,273.24l0,-28.21M344.67,303.77l0,-26.04M347,305.57l0,-25.91M349.33,312.74l0,-25.37M351.66,317.21l0,-25.02M353.99,338.67l0,-23.3M356.32,344.03l0,-22.86M358.65,365.4l0,-20.96M360.98,352.94l0,-22.09M363.31,364.51l0,-21.04M365.64,376.05l0,-19.95M367.97,384.91l0,-19.06M370.29,392.86l0,-18.22M372.62,409.58l0,-16.32M374.95,387.56l0,-18.78M377.28,420.95l0,-14.88M379.61,409.58l0,-16.32M381.94,426.17l0,-14.16M384.27,419.2l0,-15.11M386.6,425.3l0,-14.29M388.93,438.28l0,-12.34M391.26,438.28l0,-12.34M393.59,445.98l0,-11M395.92,456.1l0,-8.92M398.25,440.85l0,-11.91M400.58,446.83l0,-10.85M402.91,450.22l0,-10.19M405.24,460.23l0,-7.89M407.57,465.09l0,-6.44M409.9,461.87l0,-7.44M412.23,462.68l0,-7.2M414.56,461.87l0,-7.44M416.89,467.45l0,-5.58M419.22,461.05l0,-7.67M421.55,471.17l0,-3.72M423.87,469.73l0,-4.56M426.2,468.22l0,-5.26M428.53,466.67l0,-5.88M430.86,468.98l0,-4.92M433.19,470.46l0,-4.16M435.52,471.17l0,-3.72M437.85,469.73l0,-4.56M440.18,471.85l0,-3.22M442.51,472.48l0,-2.63M444.84,470.46l0,-4.16M447.17,471.85l0,-3.22M449.5,471.17l0,-3.72M451.83,472.48l0,-2.63M454.16,472.48l0,-2.63M456.49,471.85l0,-3.22M458.82,471.85l0,-3.22M461.15,472.48l0,-2.63M463.48,472.48l0,-2.63M465.81,473.03l0,-1.86M468.14,473.03l0,-1.86M470.47,473.03l0,-1.86M472.8,473.03l0,-1.86M475.13,473.03l0,-1.86M477.46,473.03l0,-1.86M479.78,472.48l0,-2.63M482.11,473.03l0,-1.86M484.44,473.03l0,-1.86M486.77,473.03l0,-1.86M489.1,473.03l0,-1.86M491.43,473.03l0,-1.86M493.76,473.03l0,-1.86M496.09,473.03l0,-1.86M498.42,473.03l0,-1.86M500.75,473.03l0,-1.86M503.08,473.03l0,-1.86M505.41,473.03l0,-1.86M507.74,473.03l0,-1.86M510.07,473.03l0,-1.86M512.4,473.03l0,-1.86M514.73,473.03l0,-1.86M517.06,473.03l0,-1.86M519.39,473.03l0,-1.86M521.72,473.03l0,-1.86M524.05,473.03l0,-1.86"/>
</g>
<g stroke="none" stroke-width="1" fill="#90ee90">
<polygon points="63.96,472.1 65.12,472.1 66.29,472.1 67.45,472.1 68.62,472.1 69.78,472.1 70.95,472.1 72.11,472.1 73.27,472.1 74.44,472.1 75.6,472.1 76.77,472.1 77.93,472.1 79.1,472.1 80.26,472.1 81.43,472.1 82.59,472.1 83.76,472.1 84.92,472.1 86.09,472.1 87.25,472.1 88.42,472.1 89.58,472.1 90.75,472.1 91.91,472.1 91.91,471.17 93.08,471.17 94.24,471.17 94.24,472.1 95.41,472.1 96.57,472.1 97.74,472.1 98.9,472.1 100.06,472.1 101.23,472.1 102.39,472.1 103.56,472.1 104.72,472.1 105.89,472.1 107.05,472.1 108.22,472.1 109.38,472.1 110.55,472.1 111.71,472.1 112.88,472.1 114.04,472.1 115.21,472.1 115.21,470.24 116.37,470.24 117.54,470.24 117.54,471.17 118.7,471.17 119.87,471.17 119.87,472.1 121.03,472.1 122.2,472.1 123.36,472.1 124.53,472.1 125.69,472.1 126.85,472.1 128.02,472.1 129.18,472.1 129.18,471.17 130.35,471.17 131.51,471.17 132.68,471.17 133.84,471.17 133.84,469.31 135.01,469.31 136.17,469.31 136.17,471.17 137.34,471.17 138.5,471.17 138.5,472.1 139.67,472.1 140.83,472.1 140.83,471.17 142,471.17 143.16,471.17 144.33,471.17 145.49,471.17 145.49,466.52 146.66,466.52 147.82,466.52 147.82,468.38 148.99,468.38 150.15,468.38 150.15,470.24 151.32,470.24 152.48,470.24 152.48,466.52 153.64,466.52 154.81,466.52 154.81,460.94 155.97,460.94 157.14,460.94 157.14,465.59 158.3,465.59 159.47,465.59 159.47,463.73 160.63,463.73 161.8,463.73 162.96,463.73 164.13,463.73 165.29,463.73 166.46,463.73 166.46,462.8 167.62,462.8 168.79,462.8 168.79,459.08 169.95,459.08 171.12,459.08 171.12,460.01 172.28,460.01 173.45,460.01 173.45,453.5 174.61,453.5 175.78,453.5 175.78,458.15 176.94,458.15 178.11,458.15 178.11,456.29 179.27,456.29 180.43,456.29 180.43,451.64 181.6,451.64 182.76,451.64 182.76,440.48 183.93,440.48 185.09,440.48 185.09,449.78 186.26,449.78 187.42,449.78 187.42,435.83 188.59,435.83 189.75,435.83 189.75,432.11 190.92,432.11 192.08,432.11 192.08,434.9 193.25,434.9 194.41,434.9 194.41,419.09 195.58,419.09 196.74,419.09 196.74,428.39 197.91,428.39 199.07,428.39 199.07,416.3 200.24,416.3 201.4,416.3 202.57,416.3 203.73,416.3 203.73,397.7 204.9,397.7 206.06,397.7 206.06,399.56 207.22,399.56 208.39,399.56 208.39,385.61 209.55,385.61 210.72,385.61 210.72,378.17 211.88,378.17 213.05,378.17 213.05,381.89 214.21,381.89 215.38,381.89 215.38,354.92 216.54,354.92 217.71,354.92 217.71,348.41 218.87,348.41 220.04,348.41 220.04,360.5 221.2,360.5 222.37,360.5 222.37,347.48 223.53,347.48 224.7,347.48 224.7,315.86 225.86,315.86 227.03,315.86 227.03,320.51 228.19,320.51 229.36,320.51 229.36,315.86 230.52,315.86 231.69,315.86 231.69,297.26 232.85,297.26 234.02,297.26 234.02,292.61 235.18,292.61 236.34,292.61 236.34,267.5 237.51,267.5 238.67,267.5 238.67,274.94 239.84,274.94 241,274.94 241,269.36 242.17,269.36 243.33,269.36 243.33,251.69 244.5,251.69 245.66,251.69 245.66,229.38 246.83,229.38 247.99,229.38 247.99,247.04 249.16,247.04 250.32,247.04 250.32,220.08 251.49,220.08 252.65,220.08 252.65,200.55 253.82,200.55 254.98,200.55 254.98,194.97 256.15,194.97 257.31,194.97 257.31,187.53 258.48,187.53 259.64,187.53 259.64,191.25 260.81,191.25 261.97,191.25 261.97,151.26 263.13,151.26 264.3,151.26 264.3,141.96 265.46,141.96 266.63,141.96 266.63,181.02 267.79,181.02 268.96,181.02 268.96,156.84 270.12,156.84 271.29,156.84 271.29,110.34 272.45,110.34 273.62,110.34 273.62,143.82 274.78,143.82 275.95,143.82 275.95,104.76 277.11,104.76 278.28,104.76 278.28,70.35 279.44,70.35 280.61,70.35 280.61,130.8 281.77,130.8 282.94,130.8 282.94,91.74 284.1,91.74 285.27,91.74 285.27,84.3 286.43,84.3 287.6,84.3 287.6,102.9 288.76,102.9 289.92,102.9 289.92,100.11 291.09,100.11 292.25,100.11 292.25,90.81 293.42,90.81 294.58,90.81 294.58,101.97 295.75,101.97 296.91,101.97 296.91,70.35 298.08,70.35 299.24,70.35 299.24,81.51 300.41,81.51 301.57,81.51 301.57,138.24 302.74,138.24 303.9,138.24 303.9,101.04 305.07,101.04 306.23,101.04 306.23,124.29 307.4,124.29 308.56,124.29 308.56,115.92 309.73,115.92 310.89,115.92 310.89,151.26 312.06,151.26 313.22,151.26 313.22,163.35 314.39,163.35 315.55,163.35 315.55,128.01 316.71,128.01 317.88,128.01 317.88,150.33 319.04,150.33 320.21,150.33 320.21,160.56 321.37,160.56 322.54,160.56 322.54,148.47 323.7,148.47 324.87,148.47 324.87,197.76 326.03,197.76 327.2,197.76 327.2,201.48 328.36,201.48 329.53,201.48 329.53,224.73 330.69,224.73 331.86,224.73 331.86,248.9 333.02,248.9 334.19,248.9 334.19,222.87 335.35,222.87 336.52,222.87 336.52,236.82 337.68,236.82 338.85,236.82 338.85,248.9 340.01,248.9 341.18,248.9 341.18,259.13 342.34,259.13 343.5,259.13 343.5,290.75 344.67,290.75 345.83,290.75 345.83,292.61 347,292.61 348.16,292.61 348.16,300.05 349.33,300.05 350.49,300.05 350.49,304.7 351.66,304.7 352.82,304.7 352.82,327.02 353.99,327.02 355.15,327.02 355.15,332.6 356.32,332.6 357.48,332.6 357.48,354.92 358.65,354.92 359.81,354.92 359.81,341.9 360.98,341.9 362.14,341.9 362.14,353.99 363.31,353.99 364.47,353.99 364.47,366.08 365.64,366.08 366.8,366.08 366.8,375.38 367.97,375.38 369.13,375.38 369.13,383.75 370.29,383.75 371.46,383.75 371.46,401.42 372.62,401.42 373.79,401.42 373.79,378.17 374.95,378.17 376.12,378.17 376.12,413.51 377.28,413.51 378.45,413.51 378.45,401.42 379.61,401.42 380.78,401.42 380.78,419.09 381.94,419.09 383.11,419.09 383.11,411.65 384.27,411.65 385.44,411.65 385.44,418.16 386.6,418.16 387.77,418.16 387.77,432.11 388.93,432.11 390.1,432.11 391.26,432.11 392.43,432.11 392.43,440.48 393.59,440.48 394.76,440.48 394.76,451.64 395.92,451.64 397.08,451.64 397.08,434.9 398.25,434.9 399.41,434.9 399.41,441.41 400.58,441.41 401.74,441.41 401.74,445.13 402.91,445.13 404.07,445.13 404.07,456.29 405.24,456.29 406.4,456.29 406.4,461.87 407.57,461.87 408.73,461.87 408.73,458.15 409.9,458.15 411.06,458.15 411.06,459.08 412.23,459.08 413.39,459.08 413.39,458.15 414.56,458.15 415.72,458.15 415.72,464.66 416.89,464.66 418.05,464.66 418.05,457.22 419.22,457.22 420.38,457.22 420.38,469.31 421.55,469.31 422.71,469.31 422.71,467.45 423.87,467.45 425.04,467.45 425.04,465.59 426.2,465.59 427.37,465.59 427.37,463.73 428.53,463.73 429.7,463.73 429.7,466.52 430.86,466.52 432.03,466.52 432.03,468.38 433.19,468.38 434.36,468.38 434.36,469.31 435.52,469.31 436.69,469.31 436.69,467.45 437.85,467.45 439.02,467.45 439.02,470.24 440.18,470.24 441.35,470.24 441.35,471.17 442.51,471.17 443.68,471.17 443.68,468.38 444.84,468.38 446.01,468.38 446.01,470.24 447.17,470.24 448.34,470.24 448.34,469.31 449.5,469.31 450.66,469.31 450.66,471.17 451.83,471.17 452.99,471.17 454.16,471.17 455.32,471.17 455.32,470.24 456.49,470.24 457.65,470.24 458.82,470.24 459.98,470.24 459.98,471.17 461.15,471.17 462.31,471.17 463.48,471.17 464.64,471.17 464.64,472.1 465.81,472.1 466.97,472.1 468.14,472.1 469.3,472.1 470.47,472.1 471.63,472.1 472.8,472.1 473.96,472.1 475.13,472.1 476.29,472.1 477.46,472.1 478.62,472.1 478.62,471.17 479.78,471.17 480.95,471.17 480.95,472.1 482.11,472.1 483.28,472.1 484.44,472.1 485.61,472.1 486.77,472.1 487.94,472.1 489.1,472.1 490.27,472.1 491.43,472.1 492.6,472.1 493.76,472.1 494.93,472.1 496.09,472.1 497.26,472.1 498.42,472.1 499.59,472.1 500.75,472.1 501.92,472.1 503.08,472.1 504.25,472.1 505.41,472.1 506.57,472.1 507.74,472.1 508.9,472.1 510.07,472.1 511.23,472.1 512.4,472.1 513.56,472.1 514.73,472.1 515.89,472.1 517.06,472.1 518.22,472.1 519.39,472.1 520.55,472.1 521.72,472.1 522.88,472.1 524.05,472.1 525.21,472.1 526.38,472.1 526.38,473.03 60.46,473.03 60.46,472.1 61.63,472.1 62.79,472.1"/>
</g>
<g stroke-width="0.62" fill="#90ee90">
<polyline fill="none" points="60.46,472.1 61.63,472.1 62.79,472.1 63.96,472.1 65.12,472.1 66.29,472.1 67.45,472.1 68.62,472.1 69.78,472.1 70.95,472.1 72.11,472.1 73.27,472.1 74.44,472.1 75.6,472.1 76.77,472.1 77.93,472.1 79.1,472.1 80.26,472.1 81.43,472.1 82.59,472.1 83.76,472.1 84.92,472.1 86.09,472.1 87.25,472.1 88.42,472.1 89.58,472.1 90.75,472.1 91.91,472.1 91.91,471.17 93.08,471.17 94.24,471.17 94.24,472.1 95.41,472.1 96.57,472.1 97.74,472.1 98.9,472.1 100.06,472.1 101.23,472.1 102.39,472.1 103.56,472.1 104.72,472.1 105.89,472.1 107.05,472.1 108.22,472.1 109.38,472.1 110.55,472.1 111.71,472.1 112.88,472.1 114.04,472.1 115.21,472.1 115.21,470.24 116.37,470.24 117.54,470.24 117.54,471.17 118.7,471.17 119.87,471.17 119.87,472.1 121.03,472.1 122.2,472.1 123.36,472.1 124.53,472.1 125.69,472.1 126.85,472.1 128.02,472.1 129.18,472.1 129.18,471.17 130.35,471.17 131.51,471.17 132.68,471.17 133.84,471.17 133.84,469.31 135.01,469.31 136.17,469.31 136.17,471.17 137.34,471.17 138.5,471.17 138.5,472.1 139.67,472.1 140.83,472.1 140.83,471.17 142,471.17 143.16,471.17 144.33,471.17 145.49,471.17 145.49,466.52 146.66,466.52 147.82,466.52 147.82,468.38 148.99,468.38 150.15,468.38 150.15,470.24 151.32,470.24 152.48,470.24 152.48,466.52 153.64,466.52 154.81,466.52 154.81,460.94 155.97,460.94 157.14,460.94 157.14,465.59 158.3,465.59 159.47,465.59 159.47,463.73 160.63,463.73 161.8,463.73 162.96,463.73 164.13,463.73 165.29,463.73 166.46,463.73 166.46,462.8 167.62,462.8 168.79,462.8 168.79,459.08 169.95,459.08 171.12,459.08 171.12,460.01 172.28,460.01 173.45,460.01 173.45,453.5 174.61,453.5 175.78,453.5 175.78,458.15 176.94,458.15 178.11,458.15 178.11,456.29 179.27,456.29 180.43,456.29 180.43,451.64 181.6,451.64 182.76,451.64 182.76,440.48 183.93,440.48 185.09,440.48 185.09,449.78 186.26,449.78 187.42,449.78 187.42,435.83 188.59,435.83 189.75,435.83 189.75,432.11 190.92,432.11 192.08,432.11 192.08,434.9 193.25,434.9 194.41,434.9 194.41,419.09 195.58,419.09 196.74,419.09 196.74,428.39 197.91,428.39 199.07,428.39 199.07,416.3 200.24,416.3 201.4,416.3 202.57,416.3 203.73,416.3 203.73,397.7 204.9,397.7 206.06,397.7 206.06,399.56 207.22,399.56 208.39,399.56 208.39,385.61 209.55,385.61 210.72,385.61 210.72,378.17 211.88,378.17 213.05,378.17 213.05,381.89 214.21,381.89 215.38,381.89 215.38,354.92 216.54,354.92 217.71,354.92 217.71,348.41 218.87,348.41 220.04,348.41 220.04,360.5 221.2,360.5 222.37,360.5 222.37,347.48 223.53,347.48 224.7,347.48 224.7,315.86 225.86,315.86 227.03,315.86 227.03,320.51 228.19,320.51 229.36,320.51 229.36,315.86 230.52,315.86 231.69,315.86 231.69,297.26 232.85,297.26 234.02,297.26 234.02,292.61 235.18,292.61 236.34,292.61 236.34,267.5 237.51,267.5 238.67,267.5 238.67,274.94 239.84,274.94 241,274.94 241,269.36 242.17,269.36 243.33,269.36 243.33,251.69 244.5,251.69 245.66,251.69 245.66,229.38 246.83,229.38 247.99,229.38 247.99,247.04 249.16,247.04 250.32,247.04 250.32,220.08 251.49,220.08 252.65,220.08 252.65,200.55 253.82,200.55 254.98,200.55 254.98,194.97 256.15,194.97 257.31,194.97 257.31,187.53 258.48,187.53 259.64,187.53 259.64,191.25 260.81,191.25 261.97,191.25 261.97,151.26 263.13,151.26 264.3,151.26 264.3,141.96 265.46,141.96 266.63,141.96 266.63,181.02 267.79,181.02 268.96,181.02 268.96,156.84 270.12,156.84 271.29,156.84 271.29,110.34 272.45,110.34 273.62,110.34 273.62,143.82 274.78,143.82 275.95,143.82 275.95,104.76 277.11,104.76 278.28,104.76 278.28,70.35 279.44,70.35 280.61,70.35 280.61,130.8 281.77,130.8 282.94,130.8 282.94,91.74 284.1,91.74 285.27,91.74 285.27,84.3 286.43,84.3 287.6,84.3 287.6,102.9 288.76,102.9 289.92,102.9 289.92,100.11 291.09,100.11 292.25,100.11 292.25,90.81 293.42,90.81 294.58,90.81 294.58,101.97 295.75,101.97 296.91,101.97 296.91,70.35 298.08,70.35 299.24,70.35 299.24,81.51 300.41,81.51 301.57,81.51 301.57,138.24 302.74,138.24 303.9,138.24 303.9,101.04 305.07,101.04 306.23,101.04 306.23,124.29 307.4,124.29 308.56,124.29 308.56,115.92 309.73,115.92 310.89,115.92 310.89,151.26 312.06,151.26 313.22,151.26 313.22,163.35 314.39,163.35 315.55,163.35 315.55,128.01 316.71,128.01 317.88,128.01 317.88,150.33 319.04,150.33 320.21,150.33 320.21,160.56 321.37,160.56 322.54,160.56 322.54,148.47 323.7,148.47 324.87,148.47 324.87,197.76 326.03,197.76 327.2,197.76 327.2,201.48 328.36,201.48 329.53,201.48 329.53,224.73 330.69,224.73 331.86,224.73 331.86,248.9 333.02,248.9 334.19,248.9 334.19,222.87 335.35,222.87 336.52,222.87 336.52,236.82 337.68,236.82 338.85,236.82 338.85,248.9 340.01,248.9 341.18,248.9 341.18,259.13 342.34,259.13 343.5,259.13 343.5,290.75 344.67,290.75 345.83,290.75 345.83,292.61 347,292.61 348.16,292.61 348.16,300.05 349.33,300.05 350.49,300.05 350.49,304.7 351.66,304.7 352.82,304.7 352.82,327.02 353.99,327.02 355.15,327.02 355.15,332.6 356.32,332.6 357.48,332.6 357.48,354.92 358.65,354.92 359.81,354.92 359.81,341.9 360.98,341.9 362.14,341.9 362.14,353.99 363.31,353.99 364.47,353.99 364.47,366.08 365.64,366.08 366.8,366.08 366.8,375.38 367.97,375.38 369.13,375.38 369.13,383.75 370.29,383.75 371.46,383.75 371.46,401.42 372.62,401.42 373.79,401.42 373.79,378.17 374.95,378.17 376.12,378.17 376.12,413.51 377.28,413.51 378.45,413.51 378.45,401.42 379.61,401.42 380.78,401.42 380.78,419.09 381.94,419.09 383.11,419.09 383.11,411.65 384.27,411.65 385.44,411.65 385.44,418.16 386.6,418.16 387.77,418.16 387.77,432.11 388.93,432.11 390.1,432.11 391.26,432.11 392.43,432.11 392.43,440.48 393.59,440.48 394.76,440.48 394.76,451.64 395.92,451.64 397.08,451.64 397.08,434.9 398.25,434.9 399.41,434.9 399.41,441.41 400.58,441.41 401.74,441.41 401.74,445.13 402.91,445.13 404.07,445.13 404.07,456.29 405.24,456.29 406.4,456.29 406.4,461.87 407.57,461.87 408.73,461.87 408.73,458.15 409.9,458.15 411.06,458.15 411.06,459.08 412.23,459.08 413.39,459.08 413.39,458.15 414.56,458.15 415.72,458.15 415.72,464.66 416.89,464.66 418.05,464.66 418.05,457.22 419.22,457.22 420.38,457.22 420.38,469.31 421.55,469.31 422.71,469.31 422.71,467.45 423.87,467.45 425.04,467.45 425.04,465.59 426.2,465.59 427.37,465.59 427.37,463.73 428.53,463.73 429.7,463.73 429.7,466.52 430.86,466.52 432.03,466.52 432.03,468.38 433.19,468.38 434.36,468.38 434.36,469.31 435.52,469.31 436.69,469.31 436.69,467.45 437.85,467.45 439.02,467.45 439.02,470.24 440.18,470.24 441.35,470.24 441.35,471.17 442.51,471.17 443.68,471.17 443.68,468.38 444.84,468.38 446.01,468.38 446.01,470.24 447.17,470.24 448.34,470.24 448.34,469.31 449.5,469.31 450.66,469.31 450.66,471.17 451.83,471.17 452.99,471.17 454.16,471.17 455.32,471.17 455.32,470.24 456.49,470.24 457.65,470.24 458.82,470.24 459.98,470.24 459.98,471.17 461.15,471.17 462.31,471.17 463.48,471.17 464.64,471.17 464.64,472.1 465.81,472.1 466.97,472.1 468.14,472.1 469.3,472.1 470.47,472.1 471.63,472.1 472.8,472.1 473.96,472.1 475.13,472.1 476.29,472.1 477.46,472.1 478.62,472.1 478.62,471.17 479.78,471.17 480.95,471.17 480.95,472.1 482.11,472.1 483.28,472.1 484.44,472.1 485.61,472.1 486.77,472.1 487.94,472.1 489.1,472.1 490.27,472.1 491.43,472.1 492.6,472.1 493.76,472.1 494.93,472.1 496.09,472.1 497.26,472.1 498.42,472.1 499.59,472.1 500.75,472.1 501.92,472.1 503.08,472.1 504.25,472.1 505.41,472.1 506.57,472.1 507.74,472.1 508.9,472.1 510.07,472.1 511.23,472.1 512.4,472.1 513.56,472.1 514.73,472.1 515.89,472.1 517.06,472.1 518.22,472.1 519.39,472.1 520.55,472.1 521.72,472.1 522.88,472.1 524.05,472.1 525.21,472.1 526.38,472.1 527,472.1"/>
</g>
</g>
<g clip-path="url(#c0)">
<g stroke="none" stroke-width="1" fill="#ffffff">
<path d="m78.46,25.11l181.57,0l0,54l-181.57,0l0,-54"/>
</g>
<g stroke-width="0.62" fill="none">
<path d="m78.46,25.11l181.57,0l0,54l-181.57,0l0,-54"/>
</g>
<g stroke="#0000ff" stroke-width="0.62" fill="none">
<path d="M96.46,43.11l35.57,0"/>
</g>
<g stroke-width="1" fill="none">
<path d="m153.08,38.72l0,3.91l1.81,0c0.42,0,0.72,-0.09,0.91,-0.27c0.19,-0.18,0.32,-0.54,0.38,-1.09l0.28,0l0,3.36l-0.28,0c0,-0.39,-0.05,-0.67,-0.15,-0.85c-0.1,-0.18,-0.23,-0.32,-0.4,-0.41c-0.17,-0.09,-0.42,-0.13,-0.75,-0.13l-1.81,0l0,3.11c0,0.51,0.04,0.84,0.11,1c0.04,0.12,0.14,0.23,0.3,0.31c0.22,0.12,0.44,0.19,0.67,0.19l0.36,0l0,0.27l-4.27,0l0,-0.27l0.36,0c0.41,0,0.7,-0.12,0.89,-0.36c0.11,-0.16,0.17,-0.54,0.17,-1.14l0,-6.41c0,-0.5,-0.03,-0.83,-0.09,-1c-0.04,-0.12,-0.14,-0.23,-0.3,-0.31c-0.21,-0.11,-0.43,-0.17,-0.67,-0.17l-0.36,0l0,-0.28l7.39,0l0.11,2.19l-0.27,0c-0.12,-0.46,-0.27,-0.8,-0.44,-1.02c-0.17,-0.22,-0.37,-0.38,-0.62,-0.48c-0.25,-0.1,-0.63,-0.15,-1.14,-0.15l-2.2,0m7.11,-1.03c0.21,0,0.39,0.07,0.53,0.22c0.15,0.15,0.22,0.32,0.22,0.53c0,0.2,-0.07,0.37,-0.22,0.52c-0.15,0.15,-0.32,0.23,-0.53,0.23c-0.2,0,-0.37,-0.08,-0.52,-0.23c-0.15,-0.15,-0.23,-0.33,-0.23,-0.52c0,-0.21,0.07,-0.39,0.22,-0.53c0.15,-0.15,0.32,-0.22,0.53,-0.22m0.61,3.52l0,5.39c0,0.42,0.03,0.7,0.09,0.84c0.06,0.14,0.15,0.24,0.27,0.31c0.12,0.07,0.34,0.1,0.65,0.1l0,0.27l-3.25,0l0,-0.27c0.32,0,0.54,-0.03,0.66,-0.09c0.11,-0.06,0.2,-0.17,0.27,-0.31c0.06,-0.15,0.09,-0.43,0.09,-0.84l0,-2.59c0,-0.72,-0.02,-1.19,-0.06,-1.41c-0.03,-0.16,-0.08,-0.27,-0.16,-0.33c-0.07,-0.06,-0.17,-0.09,-0.3,-0.09c-0.15,0,-0.31,0.04,-0.5,0.11l-0.11,-0.27l2.03,-0.81l0.31,0m2.64,-2l0,2.2l1.56,0l0,0.5l-1.56,0l0,4.36c0,0.44,0.06,0.73,0.19,0.88c0.12,0.15,0.28,0.23,0.47,0.23c0.17,0,0.33,-0.05,0.48,-0.16c0.15,-0.1,0.27,-0.25,0.35,-0.44l0.28,0c-0.17,0.48,-0.41,0.84,-0.72,1.08c-0.31,0.24,-0.64,0.36,-0.97,0.36c-0.23,0,-0.45,-0.06,-0.66,-0.19c-0.21,-0.12,-0.37,-0.3,-0.48,-0.53c-0.1,-0.23,-0.16,-0.59,-0.16,-1.08l0,-4.52l-1.06,0l0,-0.23c0.27,-0.1,0.55,-0.29,0.83,-0.55c0.28,-0.26,0.53,-0.56,0.75,-0.91c0.11,-0.19,0.27,-0.53,0.47,-1.02l0.23,0m8,0l0,2.2l1.56,0l0,0.5l-1.56,0l0,4.36c0,0.44,0.06,0.73,0.19,0.88c0.12,0.15,0.28,0.23,0.47,0.23c0.17,0,0.33,-0.05,0.48,-0.16c0.15,-0.1,0.27,-0.25,0.35,-0.44l0.28,0c-0.17,0.48,-0.41,0.84,-0.72,1.08c-0.31,0.24,-0.64,0.36,-0.97,0.36c-0.23,0,-0.45,-0.06,-0.66,-0.19c-0.21,-0.12,-0.37,-0.3,-0.48,-0.53c-0.1,-0.23,-0.16,-0.59,-0.16,-1.08l0,-4.52l-1.06,0l0,-0.23c0.27,-0.1,0.55,-0.29,0.83,-0.55c0.28,-0.26,0.53,-0.56,0.75,-0.91c0.11,-0.19,0.27,-0.53,0.47,-1.02l0.23,0m5.33,2c1.02,0,1.84,0.39,2.45,1.16c0.52,0.66,0.78,1.41,0.78,2.27c0,0.6,-0.15,1.21,-0.44,1.83c-0.29,0.61,-0.69,1.08,-1.2,1.39c-0.51,0.31,-1.07,0.47,-1.68,0.47c-1.01,0,-1.81,-0.4,-2.41,-1.2c-0.51,-0.68,-0.77,-1.44,-0.77,-2.28c0,-0.62,0.15,-1.24,0.46,-1.84c0.31,-0.6,0.71,-1.05,1.21,-1.34c0.5,-0.29,1.03,-0.44,1.58,-0.44m-0.23,0.47c-0.25,0,-0.51,0.08,-0.77,0.23c-0.27,0.16,-0.48,0.43,-0.63,0.81c-0.16,0.39,-0.23,0.88,-0.23,1.48c0,0.98,0.19,1.82,0.58,2.53c0.39,0.71,0.9,1.06,1.53,1.06c0.47,0,0.86,-0.2,1.17,-0.59c0.31,-0.39,0.47,-1.07,0.47,-2.02c0,-1.19,-0.26,-2.12,-0.78,-2.81c-0.34,-0.47,-0.79,-0.7,-1.33,-0.7m9.92,-3.98l0,4.91c0.54,-0.59,0.97,-0.97,1.29,-1.14c0.32,-0.17,0.64,-0.25,0.96,-0.25c0.37,0,0.7,0.1,0.98,0.31c0.28,0.21,0.48,0.54,0.6,0.98c0.09,0.31,0.14,0.89,0.14,1.72l0,2.37c0,0.43,0.04,0.72,0.11,0.87c0.04,0.11,0.12,0.21,0.24,0.27c0.12,0.07,0.34,0.1,0.65,0.1l0,0.27l-3.3,0l0,-0.27l0.16,0c0.31,0,0.53,-0.05,0.65,-0.14c0.12,-0.09,0.21,-0.23,0.26,-0.42c0.01,-0.07,0.02,-0.3,0.02,-0.69l0,-2.37c0,-0.73,-0.04,-1.21,-0.11,-1.44c-0.07,-0.23,-0.19,-0.4,-0.36,-0.52c-0.17,-0.11,-0.37,-0.17,-0.61,-0.17c-0.24,0,-0.49,0.06,-0.74,0.19c-0.26,0.12,-0.57,0.38,-0.93,0.77l0,3.55c0,0.46,0.03,0.74,0.08,0.86c0.05,0.11,0.15,0.21,0.29,0.28c0.14,0.07,0.38,0.11,0.71,0.11l0,0.27l-3.31,0l0,-0.27c0.29,0,0.53,-0.05,0.7,-0.14c0.09,-0.04,0.17,-0.13,0.23,-0.27c0.06,-0.14,0.09,-0.42,0.09,-0.84l0,-6.08c0,-0.76,-0.02,-1.23,-0.05,-1.41c-0.04,-0.18,-0.09,-0.3,-0.16,-0.36c-0.07,-0.06,-0.17,-0.09,-0.3,-0.09c-0.1,0,-0.27,0.04,-0.5,0.11l-0.11,-0.25l2.02,-0.83l0.33,0m6.73,0c0.21,0,0.39,0.07,0.53,0.22c0.15,0.15,0.22,0.32,0.22,0.53c0,0.2,-0.07,0.37,-0.22,0.52c-0.15,0.15,-0.32,0.23,-0.53,0.23c-0.2,0,-0.37,-0.08,-0.52,-0.23c-0.15,-0.15,-0.23,-0.33,-0.23,-0.52c0,-0.21,0.07,-0.39,0.22,-0.53c0.15,-0.15,0.32,-0.22,0.53,-0.22m0.61,3.52l0,5.39c0,0.42,0.03,0.7,0.09,0.84c0.06,0.14,0.15,0.24,0.27,0.31c0.12,0.07,0.34,0.1,0.65,0.1l0,0.27l-3.25,0l0,-0.27c0.32,0,0.54,-0.03,0.66,-0.09c0.11,-0.06,0.2,-0.17,0.27,-0.31c0.06,-0.15,0.09,-0.43,0.09,-0.84l0,-2.59c0,-0.72,-0.02,-1.19,-0.06,-1.41c-0.03,-0.16,-0.08,-0.27,-0.16,-0.33c-0.07,-0.06,-0.17,-0.09,-0.3,-0.09c-0.15,0,-0.31,0.04,-0.5,0.11l-0.11,-0.27l2.03,-0.81l0.31,0m5.03,0l0,2.28l-0.25,0c-0.19,-0.72,-0.43,-1.21,-0.72,-1.46c-0.29,-0.26,-0.66,-0.38,-1.11,-0.38c-0.33,0,-0.61,0.09,-0.82,0.27c-0.21,0.18,-0.32,0.37,-0.32,0.59c0,0.28,0.08,0.52,0.23,0.7c0.16,0.21,0.46,0.42,0.92,0.64l1.08,0.52c0.99,0.49,1.48,1.13,1.48,1.92c0,0.6,-0.23,1.09,-0.7,1.47c-0.46,0.37,-0.98,0.56,-1.55,0.56c-0.41,0,-0.87,-0.07,-1.41,-0.22c-0.16,-0.05,-0.29,-0.08,-0.39,-0.08c-0.11,0,-0.2,0.07,-0.27,0.2l-0.23,0l0,-2.41l0.23,0c0.14,0.69,0.4,1.2,0.78,1.55c0.39,0.34,0.82,0.52,1.3,0.52c0.34,0,0.62,-0.1,0.83,-0.3c0.21,-0.2,0.31,-0.43,0.31,-0.7c0,-0.34,-0.12,-0.63,-0.35,-0.86c-0.23,-0.23,-0.71,-0.52,-1.41,-0.87c-0.71,-0.35,-1.17,-0.66,-1.39,-0.95c-0.22,-0.28,-0.33,-0.64,-0.33,-1.06c0,-0.55,0.19,-1.01,0.57,-1.38c0.38,-0.37,0.87,-0.55,1.46,-0.55c0.27,0,0.59,0.06,0.97,0.17c0.25,0.07,0.41,0.11,0.48,0.11c0.08,0,0.15,-0.02,0.19,-0.05c0.04,-0.04,0.09,-0.11,0.16,-0.23l0.25,0m3.61,-2l0,2.2l1.56,0l0,0.5l-1.56,0l0,4.36c0,0.44,0.06,0.73,0.19,0.88c0.12,0.15,0.28,0.23,0.47,0.23c0.17,0,0.33,-0.05,0.48,-0.16c0.15,-0.1,0.27,-0.25,0.35,-0.44l0.28,0c-0.17,0.48,-0.41,0.84,-0.72,1.08c-0.31,0.24,-0.64,0.36,-0.97,0.36c-0.23,0,-0.45,-0.06,-0.66,-0.19c-0.21,-0.12,-0.37,-0.3,-0.48,-0.53c-0.1,-0.23,-0.16,-0.59,-0.16,-1.08l0,-4.52l-1.06,0l0,-0.23c0.27,-0.1,0.55,-0.29,0.83,-0.55c0.28,-0.26,0.53,-0.56,0.75,-0.91c0.11,-0.19,0.27,-0.53,0.47,-1.02l0.23,0m5.33,2c1.02,0,1.84,0.39,2.45,1.16c0.52,0.66,0.78,1.41,0.78,2.27c0,0.6,-0.15,1.21,-0.44,1.83c-0.29,0.61,-0.69,1.08,-1.2,1.39c-0.51,0.31,-1.07,0.47,-1.68,0.47c-1.01,0,-1.81,-0.4,-2.41,-1.2c-0.51,-0.68,-0.77,-1.44,-0.77,-2.28c0,-0.62,0.15,-1.24,0.46,-1.84c0.31,-0.6,0.71,-1.05,1.21,-1.34c0.5,-0.29,1.03,-0.44,1.58,-0.44m-0.23,0.47c-0.25,0,-0.51,0.08,-0.77,0.23c-0.27,0.16,-0.48,0.43,-0.63,0.81c-0.16,0.39,-0.23,0.88,-0.23,1.48c0,0.98,0.19,1.82,0.58,2.53c0.39,0.71,0.9,1.06,1.53,1.06c0.47,0,0.86,-0.2,1.17,-0.59c0.31,-0.39,0.47,-1.07,0.47,-2.02c0,-1.19,-0.26,-2.12,-0.78,-2.81c-0.34,-0.47,-0.79,-0.7,-1.33,-0.7m5.75,3.98c-0.42,-0.2,-0.73,-0.48,-0.95,-0.84c-0.22,-0.36,-0.33,-0.75,-0.33,-1.18c0,-0.67,0.25,-1.24,0.75,-1.72c0.5,-0.48,1.14,-0.72,1.92,-0.72c0.65,0,1.2,0.16,1.67,0.47l1.42,0c0.21,0,0.33,0.01,0.36,0.02c0.03,0.01,0.06,0.03,0.08,0.06c0.03,0.04,0.05,0.12,0.05,0.23c0,0.12,-0.02,0.21,-0.05,0.27c-0.01,0.02,-0.03,0.04,-0.07,0.05c-0.04,0.02,-0.16,0.02,-0.37,0.02l-0.87,0c0.27,0.35,0.41,0.8,0.41,1.34c0,0.62,-0.24,1.16,-0.72,1.61c-0.48,0.45,-1.12,0.67,-1.92,0.67c-0.33,0,-0.67,-0.05,-1.02,-0.16c-0.22,0.19,-0.36,0.35,-0.44,0.49c-0.07,0.14,-0.11,0.26,-0.11,0.35c0,0.08,0.04,0.16,0.12,0.24c0.08,0.08,0.24,0.13,0.48,0.16c0.14,0.02,0.47,0.04,1.02,0.06c1.01,0.02,1.66,0.05,1.95,0.09c0.46,0.06,0.82,0.23,1.09,0.51c0.27,0.28,0.41,0.61,0.41,1.01c0,0.55,-0.26,1.07,-0.78,1.56c-0.76,0.71,-1.75,1.06,-2.97,1.06c-0.95,0,-1.74,-0.21,-2.39,-0.64c-0.36,-0.24,-0.55,-0.49,-0.55,-0.75c0,-0.12,0.03,-0.24,0.08,-0.36c0.08,-0.18,0.26,-0.43,0.52,-0.75c0.03,-0.04,0.28,-0.31,0.73,-0.8c-0.25,-0.15,-0.43,-0.28,-0.53,-0.4c-0.1,-0.12,-0.16,-0.26,-0.16,-0.41c0,-0.17,0.07,-0.36,0.21,-0.59c0.14,-0.23,0.46,-0.56,0.96,-0.98m1.27,-4.11c-0.35,0,-0.65,0.15,-0.9,0.44c-0.24,0.29,-0.37,0.73,-0.37,1.33c0,0.77,0.17,1.37,0.5,1.8c0.25,0.32,0.57,0.48,0.97,0.48c0.36,0,0.67,-0.14,0.91,-0.42c0.24,-0.28,0.36,-0.72,0.36,-1.31c0,-0.77,-0.17,-1.38,-0.5,-1.83c-0.25,-0.32,-0.57,-0.48,-0.97,-0.48m-1.34,6.56c-0.23,0.25,-0.4,0.48,-0.52,0.7c-0.11,0.21,-0.17,0.41,-0.17,0.6c0,0.23,0.14,0.43,0.42,0.61c0.49,0.3,1.19,0.45,2.11,0.45c0.89,0,1.54,-0.16,1.95,-0.47c0.42,-0.31,0.62,-0.64,0.62,-0.98c0,-0.26,-0.12,-0.44,-0.37,-0.55c-0.25,-0.1,-0.76,-0.17,-1.52,-0.19c-1.09,-0.03,-1.94,-0.09,-2.53,-0.17m7.25,-6.91l0,1.52c0.56,-1.01,1.14,-1.52,1.72,-1.52c0.27,0,0.49,0.08,0.67,0.24c0.18,0.16,0.27,0.35,0.27,0.57c0,0.19,-0.07,0.35,-0.2,0.48c-0.13,0.14,-0.28,0.2,-0.45,0.2c-0.18,0,-0.37,-0.09,-0.59,-0.26c-0.21,-0.17,-0.37,-0.26,-0.46,-0.26c-0.09,0,-0.19,0.05,-0.3,0.16c-0.22,0.2,-0.44,0.53,-0.67,0.98l0,3.22c0,0.36,0.05,0.65,0.14,0.84c0.06,0.12,0.17,0.23,0.34,0.32c0.16,0.09,0.39,0.13,0.7,0.13l0,0.27l-3.44,0l0,-0.27c0.34,0,0.6,-0.05,0.77,-0.16c0.11,-0.08,0.2,-0.21,0.25,-0.37c0.02,-0.08,0.03,-0.32,0.03,-0.72l0,-2.59c0,-0.78,-0.02,-1.25,-0.05,-1.4c-0.03,-0.15,-0.09,-0.26,-0.17,-0.33c-0.08,-0.07,-0.19,-0.1,-0.31,-0.1c-0.16,0,-0.33,0.04,-0.52,0.11l-0.08,-0.27l2.03,-0.81l0.31,0m6.83,5.94c-0.69,0.53,-1.12,0.84,-1.3,0.92c-0.26,0.12,-0.54,0.19,-0.84,0.19c-0.46,0,-0.84,-0.16,-1.14,-0.48c-0.3,-0.32,-0.45,-0.74,-0.45,-1.26c0,-0.32,0.07,-0.6,0.22,-0.84c0.21,-0.33,0.56,-0.65,1.05,-0.94c0.49,-0.29,1.32,-0.65,2.46,-1.08l0,-0.25c0,-0.68,-0.1,-1.14,-0.31,-1.38c-0.21,-0.24,-0.52,-0.37,-0.92,-0.37c-0.31,0,-0.56,0.08,-0.73,0.23c-0.19,0.17,-0.28,0.36,-0.28,0.58l0.02,0.42c0,0.23,-0.06,0.4,-0.17,0.52c-0.11,0.12,-0.27,0.18,-0.45,0.18c-0.18,0,-0.32,-0.06,-0.44,-0.19c-0.11,-0.12,-0.17,-0.3,-0.17,-0.52c0,-0.43,0.21,-0.82,0.64,-1.16c0.43,-0.35,1.03,-0.52,1.81,-0.52c0.59,0,1.08,0.1,1.45,0.3c0.29,0.16,0.51,0.4,0.64,0.72c0.09,0.21,0.14,0.64,0.14,1.28l0,2.28c0,0.64,0.01,1.03,0.03,1.17c0.02,0.15,0.06,0.24,0.12,0.29c0.06,0.05,0.12,0.07,0.2,0.07c0.08,0,0.15,-0.02,0.2,-0.05c0.1,-0.06,0.3,-0.24,0.59,-0.53l0,0.41c-0.54,0.73,-1.06,1.09,-1.56,1.09c-0.24,0,-0.43,-0.08,-0.57,-0.24c-0.14,-0.16,-0.22,-0.45,-0.23,-0.85m0,-0.47l0,-2.56c-0.73,0.29,-1.2,0.5,-1.42,0.62c-0.39,0.22,-0.66,0.45,-0.83,0.68c-0.17,0.23,-0.25,0.49,-0.25,0.76c0,0.35,0.1,0.65,0.31,0.88c0.21,0.23,0.45,0.35,0.73,0.35c0.36,0,0.85,-0.24,1.45,-0.73m5.2,-4.05c0.48,-0.49,0.77,-0.77,0.86,-0.84c0.22,-0.18,0.46,-0.32,0.71,-0.42c0.26,-0.1,0.51,-0.16,0.76,-0.16c0.42,0,0.78,0.12,1.08,0.37c0.3,0.24,0.51,0.6,0.61,1.05c0.5,-0.58,0.92,-0.97,1.27,-1.15c0.35,-0.18,0.71,-0.27,1.07,-0.27c0.35,0,0.67,0.09,0.95,0.27c0.28,0.18,0.5,0.48,0.66,0.9c0.1,0.28,0.16,0.72,0.16,1.33l0,2.89c0,0.42,0.03,0.7,0.09,0.86c0.05,0.11,0.14,0.21,0.27,0.28c0.13,0.07,0.35,0.11,0.65,0.11l0,0.27l-3.31,0l0,-0.27l0.14,0c0.28,0,0.51,-0.06,0.67,-0.17c0.1,-0.07,0.18,-0.2,0.23,-0.37c0.02,-0.08,0.03,-0.32,0.03,-0.7l0,-2.89c0,-0.54,-0.07,-0.93,-0.2,-1.16c-0.19,-0.31,-0.49,-0.47,-0.91,-0.47c-0.26,0,-0.52,0.07,-0.78,0.2c-0.26,0.13,-0.58,0.37,-0.95,0.73l-0.02,0.08l0.02,0.31l0,3.2c0,0.46,0.03,0.74,0.08,0.86c0.05,0.11,0.15,0.21,0.29,0.28c0.14,0.07,0.38,0.11,0.73,0.11l0,0.27l-3.39,0l0,-0.27c0.37,0,0.63,-0.04,0.77,-0.13c0.14,-0.09,0.23,-0.22,0.28,-0.4c0.03,-0.08,0.05,-0.32,0.05,-0.72l0,-2.89c0,-0.54,-0.08,-0.93,-0.25,-1.17c-0.21,-0.31,-0.51,-0.47,-0.89,-0.47c-0.27,0,-0.53,0.07,-0.78,0.2c-0.41,0.22,-0.72,0.46,-0.94,0.73l0,3.59c0,0.44,0.03,0.72,0.09,0.85c0.06,0.13,0.15,0.23,0.27,0.3c0.12,0.07,0.36,0.1,0.73,0.1l0,0.27l-3.31,0l0,-0.27c0.31,0,0.53,-0.03,0.65,-0.1c0.12,-0.07,0.21,-0.17,0.27,-0.31c0.06,-0.14,0.09,-0.42,0.09,-0.84l0,-2.56c0,-0.74,-0.02,-1.22,-0.06,-1.44c-0.03,-0.16,-0.08,-0.27,-0.16,-0.33c-0.07,-0.06,-0.18,-0.09,-0.31,-0.09c-0.14,0,-0.3,0.04,-0.48,0.11l-0.11,-0.27l2.02,-0.81l0.33,0l0,1.42" fill="#000000" stroke="none" fill-opacity="1"/>
</g>
</g>
<g clip-path="url(#c2)">
<g stroke="none" stroke-width="1" fill="none">
<path d="M114.25,53.91l0,14.4"/>
<path d="M114.25,61.11l0,0"/>
</g>
<g stroke-width="0.62" fill="none">
<path d="M96.46,61.11l35.57,0"/>
</g>
</g>
<g clip-path="url(#c0)">
<g stroke-width="1" fill="none">
<path d="m153.09,60.78l4.62,0l0,-2.84c0,-0.5,-0.03,-0.83,-0.09,-1c-0.05,-0.12,-0.16,-0.23,-0.31,-0.31c-0.21,-0.11,-0.43,-0.17,-0.67,-0.17l-0.34,0l0,-0.28l4.25,0l0,0.28l-0.36,0c-0.23,0,-0.45,0.05,-0.67,0.16c-0.16,0.08,-0.26,0.2,-0.31,0.36c-0.05,0.16,-0.08,0.48,-0.08,0.97l0,6.41c0,0.51,0.03,0.84,0.09,1c0.04,0.12,0.14,0.23,0.3,0.31c0.22,0.12,0.44,0.19,0.67,0.19l0.36,0l0,0.27l-4.25,0l0,-0.27l0.34,0c0.41,0,0.7,-0.12,0.89,-0.36c0.12,-0.16,0.19,-0.54,0.19,-1.14l0,-3.02l-4.62,0l0,3.02c0,0.51,0.03,0.84,0.09,1c0.05,0.12,0.16,0.23,0.31,0.31c0.21,0.12,0.43,0.19,0.67,0.19l0.36,0l0,0.27l-4.27,0l0,-0.27l0.36,0c0.41,0,0.7,-0.12,0.89,-0.36c0.11,-0.16,0.17,-0.54,0.17,-1.14l0,-6.41c0,-0.5,-0.03,-0.83,-0.09,-1c-0.04,-0.12,-0.14,-0.23,-0.3,-0.31c-0.22,-0.11,-0.44,-0.17,-0.67,-0.17l-0.36,0l0,-0.28l4.27,0l0,0.28l-0.36,0c-0.24,0,-0.46,0.05,-0.67,0.16c-0.15,0.08,-0.25,0.2,-0.31,0.36c-0.06,0.16,-0.09,0.48,-0.09,0.97l0,2.84m10.09,-5.09c0.21,0,0.39,0.07,0.53,0.22c0.15,0.15,0.22,0.32,0.22,0.53c0,0.2,-0.07,0.37,-0.22,0.52c-0.15,0.15,-0.32,0.23,-0.53,0.23c-0.2,0,-0.37,-0.08,-0.52,-0.23c-0.15,-0.15,-0.23,-0.33,-0.23,-0.52c0,-0.21,0.07,-0.39,0.22,-0.53c0.15,-0.15,0.32,-0.22,0.53,-0.22m0.61,3.52l0,5.39c0,0.42,0.03,0.7,0.09,0.84c0.06,0.14,0.15,0.24,0.27,0.31c0.12,0.07,0.34,0.1,0.65,0.1l0,0.27l-3.25,0l0,-0.27c0.32,0,0.54,-0.03,0.66,-0.09c0.11,-0.06,0.2,-0.17,0.27,-0.31c0.06,-0.15,0.09,-0.43,0.09,-0.84l0,-2.59c0,-0.72,-0.02,-1.19,-0.06,-1.41c-0.03,-0.16,-0.08,-0.27,-0.16,-0.33c-0.07,-0.06,-0.17,-0.09,-0.3,-0.09c-0.15,0,-0.31,0.04,-0.5,0.11l-0.11,-0.27l2.03,-0.81l0.31,0m5.03,0l0,2.28l-0.25,0c-0.19,-0.72,-0.43,-1.21,-0.72,-1.46c-0.29,-0.26,-0.66,-0.38,-1.11,-0.38c-0.33,0,-0.61,0.09,-0.82,0.27c-0.21,0.18,-0.32,0.37,-0.32,0.59c0,0.28,0.08,0.52,0.23,0.7c0.16,0.21,0.46,0.42,0.92,0.64l1.08,0.52c0.99,0.49,1.48,1.13,1.48,1.92c0,0.6,-0.23,1.09,-0.7,1.47c-0.46,0.37,-0.98,0.56,-1.55,0.56c-0.41,0,-0.87,-0.07,-1.41,-0.22c-0.16,-0.05,-0.29,-0.08,-0.39,-0.08c-0.11,0,-0.2,0.07,-0.27,0.2l-0.23,0l0,-2.41l0.23,0c0.14,0.69,0.4,1.2,0.78,1.55c0.39,0.34,0.82,0.52,1.3,0.52c0.34,0,0.62,-0.1,0.83,-0.3c0.21,-0.2,0.31,-0.43,0.31,-0.7c0,-0.34,-0.12,-0.63,-0.35,-0.86c-0.23,-0.23,-0.71,-0.52,-1.41,-0.87c-0.71,-0.35,-1.17,-0.66,-1.39,-0.95c-0.22,-0.28,-0.33,-0.64,-0.33,-1.06c0,-0.55,0.19,-1.01,0.57,-1.38c0.38,-0.37,0.87,-0.55,1.46,-0.55c0.27,0,0.59,0.06,0.97,0.17c0.25,0.07,0.41,0.11,0.48,0.11c0.08,0,0.15,-0.02,0.19,-0.05c0.04,-0.04,0.09,-0.11,0.16,-0.23l0.25,0m3.61,-2l0,2.2l1.56,0l0,0.5l-1.56,0l0,4.36c0,0.44,0.06,0.73,0.19,0.88c0.12,0.15,0.28,0.23,0.47,0.23c0.17,0,0.33,-0.05,0.48,-0.16c0.15,-0.1,0.27,-0.25,0.35,-0.44l0.28,0c-0.17,0.48,-0.41,0.84,-0.72,1.08c-0.31,0.24,-0.64,0.36,-0.97,0.36c-0.23,0,-0.45,-0.06,-0.66,-0.19c-0.21,-0.12,-0.37,-0.3,-0.48,-0.53c-0.1,-0.23,-0.16,-0.59,-0.16,-1.08l0,-4.52l-1.06,0l0,-0.23c0.27,-0.1,0.55,-0.29,0.83,-0.55c0.28,-0.26,0.53,-0.56,0.75,-0.91c0.11,-0.19,0.27,-0.53,0.47,-1.02l0.23,0m5.33,2c1.02,0,1.84,0.39,2.45,1.16c0.52,0.66,0.78,1.41,0.78,2.27c0,0.6,-0.15,1.21,-0.44,1.83c-0.29,0.61,-0.69,1.08,-1.2,1.39c-0.51,0.31,-1.07,0.47,-1.68,0.47c-1.01,0,-1.81,-0.4,-2.41,-1.2c-0.51,-0.68,-0.77,-1.44,-0.77,-2.28c0,-0.62,0.15,-1.24,0.46,-1.84c0.31,-0.6,0.71,-1.05,1.21,-1.34c0.5,-0.29,1.03,-0.44,1.58,-0.44m-0.23,0.47c-0.25,0,-0.51,0.08,-0.77,0.23c-0.27,0.16,-0.48,0.43,-0.63,0.81c-0.16,0.39,-0.23,0.88,-0.23,1.48c0,0.98,0.19,1.82,0.58,2.53c0.39,0.71,0.9,1.06,1.53,1.06c0.47,0,0.86,-0.2,1.17,-0.59c0.31,-0.39,0.47,-1.07,0.47,-2.02c0,-1.19,-0.26,-2.12,-0.78,-2.81c-0.34,-0.47,-0.79,-0.7,-1.33,-0.7m5.75,3.98c-0.42,-0.2,-0.73,-0.48,-0.95,-0.84c-0.22,-0.36,-0.33,-0.75,-0.33,-1.18c0,-0.67,0.25,-1.24,0.75,-1.72c0.5,-0.48,1.14,-0.72,1.92,-0.72c0.65,0,1.2,0.16,1.67,0.47l1.42,0c0.21,0,0.33,0.01,0.36,0.02c0.03,0.01,0.06,0.03,0.08,0.06c0.03,0.04,0.05,0.12,0.05,0.23c0,0.12,-0.02,0.21,-0.05,0.27c-0.01,0.02,-0.03,0.04,-0.07,0.05c-0.04,0.02,-0.16,0.02,-0.37,0.02l-0.87,0c0.27,0.35,0.41,0.8,0.41,1.34c0,0.62,-0.24,1.16,-0.72,1.61c-0.48,0.45,-1.12,0.67,-1.92,0.67c-0.33,0,-0.67,-0.05,-1.02,-0.16c-0.22,0.19,-0.36,0.35,-0.44,0.49c-0.07,0.14,-0.11,0.26,-0.11,0.35c0,0.08,0.04,0.16,0.12,0.24c0.08,0.08,0.24,0.13,0.48,0.16c0.14,0.02,0.47,0.04,1.02,0.06c1.01,0.02,1.66,0.05,1.95,0.09c0.46,0.06,0.82,0.23,1.09,0.51c0.27,0.28,0.41,0.61,0.41,1.01c0,0.55,-0.26,1.07,-0.78,1.56c-0.76,0.71,-1.75,1.06,-2.97,1.06c-0.95,0,-1.74,-0.21,-2.39,-0.64c-0.36,-0.24,-0.55,-0.49,-0.55,-0.75c0,-0.12,0.03,-0.24,0.08,-0.36c0.08,-0.18,0.26,-0.43,0.52,-0.75c0.03,-0.04,0.28,-0.31,0.73,-0.8c-0.25,-0.15,-0.43,-0.28,-0.53,-0.4c-0.1,-0.12,-0.16,-0.26,-0.16,-0.41c0,-0.17,0.07,-0.36,0.21,-0.59c0.14,-0.23,0.46,-0.56,0.96,-0.98m1.27,-4.11c-0.35,0,-0.65,0.15,-0.9,0.44c-0.24,0.29,-0.37,0.73,-0.37,1.33c0,0.77,0.17,1.37,0.5,1.8c0.25,0.32,0.57,0.48,0.97,0.48c0.36,0,0.67,-0.14,0.91,-0.42c0.24,-0.28,0.36,-0.72,0.36,-1.31c0,-0.77,-0.17,-1.38,-0.5,-1.83c-0.25,-0.32,-0.57,-0.48,-0.97,-0.48m-1.34,6.56c-0.23,0.25,-0.4,0.48,-0.52,0.7c-0.11,0.21,-0.17,0.41,-0.17,0.6c0,0.23,0.14,0.43,0.42,0.61c0.49,0.3,1.19,0.45,2.11,0.45c0.89,0,1.54,-0.16,1.95,-0.47c0.42,-0.31,0.62,-0.64,0.62,-0.98c0,-0.26,-0.12,-0.44,-0.37,-0.55c-0.25,-0.1,-0.76,-0.17,-1.52,-0.19c-1.09,-0.03,-1.94,-0.09,-2.53,-0.17m7.25,-6.91l0,1.52c0.56,-1.01,1.14,-1.52,1.72,-1.52c0.27,0,0.49,0.08,0.67,0.24c0.18,0.16,0.27,0.35,0.27,0.57c0,0.19,-0.07,0.35,-0.2,0.48c-0.13,0.14,-0.28,0.2,-0.45,0.2c-0.18,0,-0.37,-0.09,-0.59,-0.26c-0.21,-0.17,-0.37,-0.26,-0.46,-0.26c-0.09,0,-0.19,0.05,-0.3,0.16c-0.22,0.2,-0.44,0.53,-0.67,0.98l0,3.22c0,0.36,0.05,0.65,0.14,0.84c0.06,0.12,0.17,0.23,0.34,0.32c0.16,0.09,0.39,0.13,0.7,0.13l0,0.27l-3.44,0l0,-0.27c0.34,0,0.6,-0.05,0.77,-0.16c0.11,-0.08,0.2,-0.21,0.25,-0.37c0.02,-0.08,0.03,-0.32,0.03,-0.72l0,-2.59c0,-0.78,-0.02,-1.25,-0.05,-1.4c-0.03,-0.15,-0.09,-0.26,-0.17,-0.33c-0.08,-0.07,-0.19,-0.1,-0.31,-0.1c-0.16,0,-0.33,0.04,-0.52,0.11l-0.08,-0.27l2.03,-0.81l0.31,0m6.83,5.94c-0.69,0.53,-1.12,0.84,-1.3,0.92c-0.26,0.12,-0.54,0.19,-0.84,0.19c-0.46,0,-0.84,-0.16,-1.14,-0.48c-0.3,-0.32,-0.45,-0.74,-0.45,-1.26c0,-0.32,0.07,-0.6,0.22,-0.84c0.21,-0.33,0.56,-0.65,1.05,-0.94c0.49,-0.29,1.32,-0.65,2.46,-1.08l0,-0.25c0,-0.68,-0.1,-1.14,-0.31,-1.38c-0.21,-0.24,-0.52,-0.37,-0.92,-0.37c-0.31,0,-0.56,0.08,-0.73,0.23c-0.19,0.17,-0.28,0.36,-0.28,0.58l0.02,0.42c0,0.23,-0.06,0.4,-0.17,0.52c-0.11,0.12,-0.27,0.18,-0.45,0.18c-0.18,0,-0.32,-0.06,-0.44,-0.19c-0.11,-0.12,-0.17,-0.3,-0.17,-0.52c0,-0.43,0.21,-0.82,0.64,-1.16c0.43,-0.35,1.03,-0.52,1.81,-0.52c0.59,0,1.08,0.1,1.45,0.3c0.29,0.16,0.51,0.4,0.64,0.72c0.09,0.21,0.14,0.64,0.14,1.28l0,2.28c0,0.64,0.01,1.03,0.03,1.17c0.02,0.15,0.06,0.24,0.12,0.29c0.06,0.05,0.12,0.07,0.2,0.07c0.08,0,0.15,-0.02,0.2,-0.05c0.1,-0.06,0.3,-0.24,0.59,-0.53l0,0.41c-0.54,0.73,-1.06,1.09,-1.56,1.09c-0.24,0,-0.43,-0.08,-0.57,-0.24c-0.14,-0.16,-0.22,-0.45,-0.23,-0.85m0,-0.47l0,-2.56c-0.73,0.29,-1.2,0.5,-1.42,0.62c-0.39,0.22,-0.66,0.45,-0.83,0.68c-0.17,0.23,-0.25,0.49,-0.25,0.76c0,0.35,0.1,0.65,0.31,0.88c0.21,0.23,0.45,0.35,0.73,0.35c0.36,0,0.85,-0.24,1.45,-0.73m5.2,-4.05c0.48,-0.49,0.77,-0.77,0.86,-0.84c0.22,-0.18,0.46,-0.32,0.71,-0.42c0.26,-0.1,0.51,-0.16,0.76,-0.16c0.42,0,0.78,0.12,1.08,0.37c0.3,0.24,0.51,0.6,0.61,1.05c0.5,-0.58,0.92,-0.97,1.27,-1.15c0.35,-0.18,0.71,-0.27,1.07,-0.27c0.35,0,0.67,0.09,0.95,0.27c0.28,0.18,0.5,0.48,0.66,0.9c0.1,0.28,0.16,0.72,0.16,1.33l0,2.89c0,0.42,0.03,0.7,0.09,0.86c0.05,0.11,0.14,0.21,0.27,0.28c0.13,0.07,0.35,0.11,0.65,0.11l0,0.27l-3.31,0l0,-0.27l0.14,0c0.28,0,0.51,-0.06,0.67,-0.17c0.1,-0.07,0.18,-0.2,0.23,-0.37c0.02,-0.08,0.03,-0.32,0.03,-0.7l0,-2.89c0,-0.54,-0.07,-0.93,-0.2,-1.16c-0.19,-0.31,-0.49,-0.47,-0.91,-0.47c-0.26,0,-0.52,0.07,-0.78,0.2c-0.26,0.13,-0.58,0.37,-0.95,0.73l-0.02,0.08l0.02,0.31l0,3.2c0,0.46,0.03,0.74,0.08,0.86c0.05,0.11,0.15,0.21,0.29,0.28c0.14,0.07,0.38,0.11,0.73,0.11l0,0.27l-3.39,0l0,-0.27c0.37,0,0.63,-0.04,0.77,-0.13c0.14,-0.09,0.23,-0.22,0.28,-0.4c0.03,-0.08,0.05,-0.32,0.05,-0.72l0,-2.89c0,-0.54,-0.08,-0.93,-0.25,-1.17c-0.21,-0.31,-0.51,-0.47,-0.89,-0.47c-0.27,0,-0.53,0.07,-0.78,0.2c-0.41,0.22,-0.72,0.46,-0.94,0.73l0,3.59c0,0.44,0.03,0.72,0.09,0.85c0.06,0.13,0.15,0.23,0.27,0.3c0.12,0.07,0.36,0.1,0.73,0.1l0,0.27l-3.31,0l0,-0.27c0.31,0,0.53,-0.03,0.65,-0.1c0.12,-0.07,0.21,-0.17,0.27,-0.31c0.06,-0.14,0.09,-0.42,0.09,-0.84l0,-2.56c0,-0.74,-0.02,-1.22,-0.06,-1.44c-0.03,-0.16,-0.08,-0.27,-0.16,-0.33c-0.07,-0.06,-0.18,-0.09,-0.31,-0.09c-0.14,0,-0.3,0.04,-0.48,0.11l-0.11,-0.27l2.02,-0.81l0.33,0l0,1.42" fill="#000000" stroke="none" fill-opacity="1"/>
</g>
</g>
<g clip-path="url(#c1)">
<g stroke="#0000ff" stroke-width="0.62" fill="none">
<polyline fill="none" points="60.46,472.1 69.97,472.09 79.48,472.09 88.99,472.07 98.5,472.03 108,471.95 117.51,471.77 127.02,471.4 136.53,470.69 146.04,469.37 155.55,467.01 165.06,463.01 174.56,456.53 184.07,446.53 193.58,431.83 203.09,411.29 212.6,384.06 222.11,349.9 231.61,309.46 241.12,264.56 250.63,218.18 260.14,174.23 269.65,137.07 279.16,110.8 288.66,98.52 298.17,101.74 307.68,120.06 317.19,151.26 326.7,191.75 336.21,237.21 345.72,283.42 355.22,326.77 364.73,364.78 374.24,396.11 383.75,420.51 393.26,438.52 402.77,451.14 412.27,459.56 421.78,464.9 431.29,468.14 440.8,470.01 450.31,471.04 459.82,471.59 469.33,471.86 478.83,471.99 488.34,472.05 497.85,472.08 507.36,472.09 516.87,472.09 526.38,472.1"/>
</g>
</g>
<g clip-path="url(#c0)">
<g stroke-width="0.62" stroke-linecap="butt" fill="none">
<path d="M60.46,473.03l0,-465.91"/>
<path d="M60.46,472.1l3.75,0M60.46,453.5l3.75,0M60.46,434.9l3.75,0M60.46,416.3l3.75,0M60.46,397.7l3.75,0M60.46,379.1l3.75,0M60.46,360.5l3.75,0M60.46,341.9l3.75,0M60.46,323.3l3.75,0M60.46,304.7l3.75,0M60.46,286.1l3.75,0M60.46,267.5l3.75,0M60.46,248.9l3.75,0M60.46,230.31l3.75,0M60.46,211.71l3.75,0M60.46,193.11l3.75,0M60.46,174.51l3.75,0M60.46,155.91l3.75,0M60.46,137.31l3.75,0M60.46,118.71l3.75,0M60.46,100.11l3.75,0M60.46,81.51l3.75,0M60.46,62.91l3.75,0M60.46,44.31l3.75,0M60.46,25.71l3.75,0M60.46,7.11l3.75,0"/>
<path d="M60.46,472.1l7.5,0M60.46,379.1l7.5,0M60.46,286.1l7.5,0M60.46,193.11l7.5,0M60.46,100.11l7.5,0M60.46,7.11l7.5,0"/>
<path d="M526.38,473.03l0,-465.91"/>
<path d="M526.38,472.1l-3.75,0M526.38,453.5l-3.75,0M526.38,434.9l-3.75,0M526.38,416.3l-3.75,0M526.38,397.7l-3.75,0M526.38,379.1l-3.75,0M526.38,360.5l-3.75,0M526.38,341.9l-3.75,0M526.38,323.3l-3.75,0M526.38,304.7l-3.75,0M526.38,286.1l-3.75,0M526.38,267.5l-3.75,0M526.38,248.9l-3.75,0M526.38,230.31l-3.75,0M526.38,211.71l-3.75,0M526.38,193.11l-3.75,0M526.38,174.51l-3.75,0M526.38,155.91l-3.75,0M526.38,137.31l-3.75,0M526.38,118.71l-3.75,0M526.38,100.11l-3.75,0M526.38,81.51l-3.75,0M526.38,62.91l-3.75,0M526.38,44.31l-3.75,0M526.38,25.71l-3.75,0M526.38,7.11l-3.75,0"/>
<path d="M526.38,472.1l-7.5,0M526.38,379.1l-7.5,0M526.38,286.1l-7.5,0M526.38,193.11l-7.5,0M526.38,100.11l-7.5,0M526.38,7.11l-7.5,0"/>
</g>
<g stroke-width="1" transform="matrix(0 -1 1 0 21.46 270.07)" fill="none">
<path d="m0.3,0l0,-0.31l0.44,0c0.49,0,0.84,-0.16,1.05,-0.47c0.12,-0.19,0.19,-0.61,0.19,-1.27l0,-7.48c0,-0.73,-0.08,-1.18,-0.25,-1.36c-0.22,-0.25,-0.55,-0.37,-0.98,-0.37l-0.44,0l0,-0.33l4.72,0c1.73,0,3.05,0.2,3.95,0.59c0.91,0.4,1.63,1.05,2.18,1.97c0.55,0.92,0.82,1.97,0.82,3.17c0,1.61,-0.49,2.96,-1.47,4.05c-1.09,1.21,-2.77,1.81,-5.02,1.81l-5.19,0m3.31,-0.84c0.72,0.17,1.32,0.25,1.81,0.25c1.32,0,2.42,-0.47,3.29,-1.4c0.87,-0.93,1.3,-2.19,1.3,-3.77c0,-1.6,-0.43,-2.87,-1.3,-3.79c-0.87,-0.92,-1.99,-1.38,-3.35,-1.38c-0.51,0,-1.09,0.08,-1.75,0.25l0,9.84m12.23,-7.22l0,1.77c0.65,-1.18,1.32,-1.77,2.02,-1.77c0.31,0,0.57,0.1,0.77,0.29c0.2,0.19,0.3,0.41,0.3,0.66c0,0.22,-0.07,0.41,-0.22,0.56c-0.15,0.16,-0.32,0.23,-0.53,0.23c-0.2,0,-0.42,-0.1,-0.67,-0.3c-0.25,-0.2,-0.43,-0.3,-0.55,-0.3c-0.1,0,-0.22,0.06,-0.34,0.17c-0.25,0.23,-0.51,0.61,-0.78,1.16l0,3.75c0,0.44,0.05,0.77,0.16,0.98c0.07,0.16,0.2,0.28,0.39,0.38c0.19,0.1,0.46,0.15,0.81,0.15l0,0.31l-4,0l0,-0.31c0.4,0,0.69,-0.06,0.87,-0.19c0.15,-0.08,0.25,-0.23,0.31,-0.44c0.02,-0.09,0.03,-0.37,0.03,-0.83l0,-3.03c0,-0.91,-0.02,-1.45,-0.05,-1.62c-0.04,-0.18,-0.1,-0.3,-0.2,-0.38c-0.1,-0.08,-0.22,-0.12,-0.37,-0.12c-0.18,0,-0.37,0.04,-0.59,0.12l-0.09,-0.3l2.37,-0.97l0.36,0m8.14,6.94c-0.8,0.61,-1.31,0.97,-1.52,1.08c-0.3,0.14,-0.63,0.2,-0.98,0.2c-0.54,0,-0.99,-0.18,-1.34,-0.55c-0.35,-0.37,-0.52,-0.86,-0.52,-1.46c0,-0.37,0.08,-0.7,0.25,-0.98c0.24,-0.39,0.65,-0.75,1.23,-1.09c0.58,-0.34,1.54,-0.76,2.88,-1.25l0,-0.31c0,-0.78,-0.12,-1.32,-0.37,-1.6c-0.25,-0.29,-0.61,-0.43,-1.08,-0.43c-0.36,0,-0.65,0.09,-0.86,0.28c-0.22,0.2,-0.33,0.42,-0.33,0.67l0.02,0.5c0,0.26,-0.07,0.46,-0.2,0.6c-0.13,0.14,-0.3,0.21,-0.52,0.21c-0.21,0,-0.38,-0.07,-0.52,-0.22c-0.14,-0.15,-0.2,-0.35,-0.2,-0.61c0,-0.49,0.25,-0.94,0.75,-1.35c0.5,-0.41,1.2,-0.62,2.11,-0.62c0.7,0,1.27,0.12,1.72,0.36c0.33,0.18,0.58,0.45,0.73,0.83c0.1,0.24,0.16,0.74,0.16,1.5l0,2.66c0,0.75,0.02,1.21,0.05,1.37c0.03,0.17,0.08,0.28,0.14,0.34c0.06,0.06,0.14,0.09,0.22,0.09c0.09,0,0.18,-0.02,0.25,-0.06c0.11,-0.07,0.34,-0.28,0.69,-0.62l0,0.48c-0.64,0.85,-1.24,1.28,-1.83,1.28c-0.28,0,-0.51,-0.1,-0.67,-0.29c-0.17,-0.19,-0.25,-0.52,-0.25,-0.99m0,-0.56l0,-2.98c-0.86,0.34,-1.42,0.59,-1.67,0.73c-0.45,0.25,-0.77,0.51,-0.96,0.78c-0.19,0.27,-0.29,0.57,-0.29,0.91c0,0.41,0.12,0.74,0.37,1.02c0.24,0.27,0.52,0.41,0.84,0.41c0.44,0,1.01,-0.29,1.72,-0.86m5.66,-1.17c-0.48,-0.23,-0.85,-0.55,-1.1,-0.97c-0.26,-0.42,-0.38,-0.88,-0.38,-1.39c0,-0.78,0.29,-1.45,0.87,-2.01c0.58,-0.56,1.33,-0.84,2.23,-0.84c0.75,0,1.4,0.18,1.95,0.55l1.66,0c0.24,0,0.38,0.01,0.42,0.02c0.04,0.02,0.07,0.04,0.08,0.07c0.04,0.05,0.06,0.15,0.06,0.28c0,0.15,-0.02,0.24,-0.05,0.3c-0.02,0.03,-0.05,0.06,-0.09,0.08c-0.04,0.02,-0.18,0.03,-0.42,0.03l-1.02,0c0.31,0.41,0.47,0.93,0.47,1.56c0,0.73,-0.28,1.35,-0.84,1.87c-0.56,0.52,-1.3,0.78,-2.24,0.78c-0.39,0,-0.78,-0.06,-1.19,-0.17c-0.25,0.22,-0.42,0.41,-0.51,0.57c-0.09,0.16,-0.13,0.3,-0.13,0.41c0,0.09,0.05,0.18,0.14,0.27c0.09,0.09,0.28,0.15,0.55,0.2c0.16,0.02,0.56,0.04,1.2,0.06c1.17,0.03,1.93,0.07,2.28,0.12c0.53,0.07,0.95,0.27,1.27,0.59c0.31,0.32,0.47,0.71,0.47,1.18c0,0.65,-0.3,1.25,-0.91,1.81c-0.89,0.83,-2.04,1.25,-3.47,1.25c-1.1,0,-2.04,-0.25,-2.8,-0.75c-0.43,-0.28,-0.64,-0.58,-0.64,-0.89c0,-0.14,0.03,-0.27,0.09,-0.41c0.1,-0.21,0.31,-0.5,0.61,-0.87c0.03,-0.05,0.32,-0.36,0.86,-0.92c-0.29,-0.18,-0.5,-0.34,-0.62,-0.48c-0.12,-0.14,-0.19,-0.3,-0.19,-0.48c0,-0.2,0.08,-0.43,0.25,-0.7c0.17,-0.27,0.54,-0.65,1.12,-1.14m1.48,-4.78c-0.42,0,-0.77,0.17,-1.05,0.5c-0.29,0.33,-0.43,0.85,-0.43,1.55c0,0.9,0.19,1.59,0.58,2.09c0.3,0.37,0.68,0.56,1.12,0.56c0.44,0,0.8,-0.16,1.08,-0.48c0.28,-0.32,0.42,-0.83,0.42,-1.53c0,-0.91,-0.2,-1.61,-0.59,-2.12c-0.29,-0.37,-0.67,-0.56,-1.12,-0.56m-1.56,7.64c-0.27,0.29,-0.47,0.56,-0.61,0.81c-0.14,0.25,-0.2,0.48,-0.2,0.69c0,0.28,0.16,0.52,0.48,0.72c0.57,0.35,1.4,0.53,2.47,0.53c1.03,0,1.79,-0.18,2.27,-0.54c0.48,-0.36,0.73,-0.75,0.73,-1.16c0,-0.29,-0.15,-0.5,-0.44,-0.62c-0.29,-0.12,-0.87,-0.2,-1.75,-0.22c-1.28,-0.04,-2.27,-0.11,-2.95,-0.2m9.81,-8.06c1.19,0,2.14,0.45,2.86,1.36c0.6,0.77,0.91,1.65,0.91,2.64c0,0.7,-0.17,1.41,-0.5,2.12c-0.33,0.72,-0.8,1.26,-1.39,1.62c-0.59,0.36,-1.25,0.55,-1.97,0.55c-1.18,0,-2.11,-0.47,-2.81,-1.41c-0.58,-0.79,-0.87,-1.68,-0.87,-2.67c0,-0.71,0.18,-1.42,0.53,-2.13c0.35,-0.71,0.82,-1.24,1.41,-1.58c0.58,-0.34,1.2,-0.51,1.84,-0.51m-0.27,0.56c-0.3,0,-0.6,0.09,-0.91,0.27c-0.3,0.18,-0.55,0.49,-0.74,0.95c-0.19,0.45,-0.29,1.03,-0.29,1.74c0,1.14,0.23,2.11,0.68,2.94c0.45,0.82,1.05,1.23,1.8,1.23c0.55,0,1.01,-0.23,1.36,-0.68c0.35,-0.45,0.53,-1.24,0.53,-2.35c0,-1.39,-0.3,-2.48,-0.89,-3.28c-0.41,-0.54,-0.92,-0.81,-1.55,-0.81m7.72,1.09c0.92,-1.1,1.79,-1.66,2.62,-1.66c0.43,0,0.79,0.11,1.1,0.32c0.31,0.21,0.55,0.57,0.73,1.05c0.14,0.34,0.2,0.87,0.2,1.58l0,3.34c0,0.49,0.04,0.82,0.11,1c0.06,0.15,0.16,0.26,0.3,0.34c0.14,0.08,0.4,0.12,0.77,0.12l0,0.31l-3.87,0l0,-0.31l0.17,0c0.36,0,0.62,-0.05,0.77,-0.16c0.15,-0.11,0.24,-0.27,0.3,-0.49c0.02,-0.08,0.03,-0.35,0.03,-0.8l0,-3.2c0,-0.72,-0.09,-1.24,-0.27,-1.55c-0.18,-0.32,-0.49,-0.48,-0.93,-0.48c-0.68,0,-1.35,0.37,-2.03,1.11l0,4.12c0,0.53,0.03,0.86,0.09,0.98c0.08,0.17,0.19,0.29,0.33,0.36c0.14,0.07,0.42,0.11,0.86,0.11l0,0.31l-3.87,0l0,-0.31l0.17,0c0.4,0,0.66,-0.1,0.8,-0.3c0.14,-0.2,0.21,-0.59,0.21,-1.15l0,-2.91c0,-0.94,-0.02,-1.51,-0.06,-1.72c-0.04,-0.21,-0.11,-0.35,-0.2,-0.42c-0.09,-0.07,-0.21,-0.11,-0.37,-0.11c-0.16,0,-0.34,0.04,-0.56,0.12l-0.12,-0.3l2.36,-0.97l0.36,0l0,1.66m11.78,-1.66l0,2.67l-0.28,0c-0.22,-0.83,-0.5,-1.4,-0.84,-1.7c-0.34,-0.3,-0.77,-0.45,-1.29,-0.45c-0.41,0,-0.73,0.1,-0.98,0.31c-0.24,0.21,-0.37,0.44,-0.37,0.7c0,0.31,0.09,0.58,0.28,0.81c0.18,0.24,0.54,0.49,1.08,0.75l1.23,0.61c1.16,0.56,1.73,1.3,1.73,2.22c0,0.72,-0.27,1.29,-0.8,1.73c-0.54,0.43,-1.14,0.65,-1.8,0.65c-0.48,0,-1.03,-0.08,-1.64,-0.25c-0.19,-0.06,-0.34,-0.09,-0.45,-0.09c-0.14,0,-0.24,0.08,-0.31,0.23l-0.28,0l0,-2.8l0.28,0c0.16,0.79,0.46,1.39,0.91,1.8c0.45,0.41,0.96,0.61,1.51,0.61c0.4,0,0.72,-0.11,0.97,-0.34c0.25,-0.23,0.37,-0.51,0.37,-0.83c0,-0.4,-0.14,-0.73,-0.41,-1c-0.28,-0.27,-0.83,-0.61,-1.66,-1.02c-0.83,-0.41,-1.37,-0.78,-1.63,-1.11c-0.25,-0.32,-0.37,-0.73,-0.37,-1.23c0,-0.65,0.22,-1.18,0.66,-1.62c0.44,-0.43,1.01,-0.65,1.72,-0.65c0.3,0,0.67,0.07,1.11,0.2c0.29,0.08,0.49,0.12,0.59,0.12c0.08,0,0.15,-0.02,0.2,-0.06c0.05,-0.04,0.11,-0.13,0.19,-0.27l0.28,0" fill="#000000" stroke="none" fill-opacity="1"/>
</g>
<g stroke-width="1" fill="none">
<path d="m49.08,472.37c0,-1.32,0.2,-2.46,0.6,-3.41c0.4,-0.95,0.93,-1.66,1.59,-2.13c0.52,-0.37,1.05,-0.56,1.59,-0.56c0.9,0,1.69,0.45,2.39,1.36c0.89,1.12,1.33,2.65,1.33,4.56c0,1.34,-0.19,2.49,-0.58,3.43c-0.39,0.94,-0.88,1.62,-1.48,2.05c-0.6,0.42,-1.18,0.63,-1.73,0.63c-1.1,0,-2.03,-0.65,-2.77,-1.95c-0.62,-1.1,-0.94,-2.43,-0.94,-3.97m1.69,0.2c0,1.59,0.19,2.9,0.58,3.91c0.33,0.85,0.82,1.28,1.45,1.28c0.31,0,0.63,-0.14,0.96,-0.41c0.33,-0.28,0.58,-0.74,0.76,-1.4c0.26,-0.98,0.39,-2.36,0.39,-4.14c0,-1.32,-0.14,-2.43,-0.41,-3.31c-0.21,-0.65,-0.47,-1.11,-0.8,-1.39c-0.24,-0.19,-0.52,-0.28,-0.84,-0.28c-0.4,0,-0.74,0.18,-1.05,0.53c-0.41,0.47,-0.68,1.21,-0.83,2.23c-0.15,1.02,-0.22,2.01,-0.22,2.99" fill="#000000" stroke="none" fill-opacity="1"/>
<path d="m32.5,374.64l2.83,-1.37l0.28,0l0,9.78c0,0.66,0.03,1.06,0.08,1.22c0.05,0.16,0.16,0.28,0.34,0.37c0.17,0.09,0.52,0.14,1.04,0.15l0,0.31l-4.36,0l0,-0.31c0.55,-0.01,0.91,-0.06,1.07,-0.14c0.16,-0.08,0.27,-0.2,0.34,-0.34c0.06,-0.14,0.09,-0.56,0.09,-1.26l0,-6.25c0,-0.84,-0.03,-1.39,-0.09,-1.62c-0.04,-0.18,-0.11,-0.31,-0.22,-0.4c-0.1,-0.09,-0.23,-0.13,-0.37,-0.13c-0.21,0,-0.51,0.09,-0.89,0.27l-0.12,-0.27m7.58,4.73c0,-1.32,0.2,-2.46,0.6,-3.41c0.4,-0.95,0.93,-1.66,1.59,-2.13c0.52,-0.37,1.05,-0.56,1.59,-0.56c0.9,0,1.69,0.45,2.39,1.36c0.89,1.12,1.33,2.65,1.33,4.56c0,1.34,-0.19,2.49,-0.58,3.43c-0.39,0.94,-0.88,1.62,-1.48,2.05c-0.6,0.42,-1.18,0.63,-1.73,0.63c-1.1,0,-2.03,-0.65,-2.77,-1.95c-0.62,-1.1,-0.94,-2.43,-0.94,-3.97m1.69,0.2c0,1.59,0.19,2.9,0.58,3.91c0.33,0.85,0.82,1.28,1.45,1.28c0.31,0,0.63,-0.14,0.96,-0.41c0.33,-0.28,0.58,-0.74,0.76,-1.4c0.26,-0.98,0.39,-2.36,0.39,-4.14c0,-1.32,-0.14,-2.43,-0.41,-3.31c-0.21,-0.65,-0.47,-1.11,-0.8,-1.39c-0.24,-0.19,-0.52,-0.28,-0.84,-0.28c-0.4,0,-0.74,0.18,-1.05,0.53c-0.41,0.47,-0.68,1.21,-0.83,2.23c-0.15,1.02,-0.22,2.01,-0.22,2.99m7.31,-0.2c0,-1.32,0.2,-2.46,0.6,-3.41c0.4,-0.95,0.93,-1.66,1.59,-2.13c0.52,-0.37,1.05,-0.56,1.59,-0.56c0.9,0,1.69,0.45,2.39,1.36c0.89,1.12,1.33,2.65,1.33,4.56c0,1.34,-0.19,2.49,-0.58,3.43c-0.39,0.94,-0.88,1.62,-1.48,2.05c-0.6,0.42,-1.18,0.63,-1.73,0.63c-1.1,0,-2.03,-0.65,-2.77,-1.95c-0.62,-1.1,-0.94,-2.43,-0.94,-3.97m1.69,0.2c0,1.59,0.19,2.9,0.58,3.91c0.33,0.85,0.82,1.28,1.45,1.28c0.31,0,0.63,-0.14,0.96,-0.41c0.33,-0.28,0.58,-0.74,0.76,-1.4c0.26,-0.98,0.39,-2.36,0.39,-4.14c0,-1.32,-0.14,-2.43,-0.41,-3.31c-0.21,-0.65,-0.47,-1.11,-0.8,-1.39c-0.24,-0.19,-0.52,-0.28,-0.84,-0.28c-0.4,0,-0.74,0.18,-1.05,0.53c-0.41,0.47,-0.68,1.21,-0.83,2.23c-0.15,1.02,-0.22,2.01,-0.22,2.99" fill="#000000" stroke="none" fill-opacity="1"/>
<path d="m38.48,289.86l-0.81,2.23l-6.84,0l0,-0.31c2.01,-1.83,3.43,-3.33,4.25,-4.49c0.82,-1.16,1.23,-2.23,1.23,-3.2c0,-0.73,-0.23,-1.33,-0.68,-1.8c-0.45,-0.47,-0.99,-0.71,-1.62,-0.71c-0.57,0,-1.09,0.17,-1.54,0.5c-0.45,0.33,-0.78,0.82,-0.99,1.47l-0.33,0c0.15,-1.06,0.51,-1.87,1.1,-2.44c0.59,-0.56,1.33,-0.84,2.21,-0.84c0.94,0,1.72,0.3,2.35,0.91c0.63,0.6,0.95,1.32,0.95,2.14c0,0.58,-0.14,1.17,-0.41,1.75c-0.43,0.93,-1.11,1.91,-2.05,2.94c-1.43,1.55,-2.31,2.48,-2.66,2.8l3.02,0c0.61,0,1.05,-0.02,1.3,-0.06c0.25,-0.04,0.47,-0.13,0.67,-0.27c0.2,-0.14,0.37,-0.34,0.52,-0.6l0.33,0m1.59,-3.48c0,-1.32,0.2,-2.46,0.6,-3.41c0.4,-0.95,0.93,-1.66,1.59,-2.13c0.52,-0.37,1.05,-0.56,1.59,-0.56c0.9,0,1.69,0.45,2.39,1.36c0.89,1.12,1.33,2.65,1.33,4.56c0,1.34,-0.19,2.49,-0.58,3.43c-0.39,0.94,-0.88,1.62,-1.48,2.05c-0.6,0.42,-1.18,0.63,-1.73,0.63c-1.1,0,-2.03,-0.65,-2.77,-1.95c-0.62,-1.1,-0.94,-2.43,-0.94,-3.97m1.69,0.2c0,1.59,0.19,2.9,0.58,3.91c0.33,0.85,0.82,1.28,1.45,1.28c0.31,0,0.63,-0.14,0.96,-0.41c0.33,-0.28,0.58,-0.74,0.76,-1.4c0.26,-0.98,0.39,-2.36,0.39,-4.14c0,-1.32,-0.14,-2.43,-0.41,-3.31c-0.21,-0.65,-0.47,-1.11,-0.8,-1.39c-0.24,-0.19,-0.52,-0.28,-0.84,-0.28c-0.4,0,-0.74,0.18,-1.05,0.53c-0.41,0.47,-0.68,1.21,-0.83,2.23c-0.15,1.02,-0.22,2.01,-0.22,2.99m7.31,-0.2c0,-1.32,0.2,-2.46,0.6,-3.41c0.4,-0.95,0.93,-1.66,1.59,-2.13c0.52,-0.37,1.05,-0.56,1.59,-0.56c0.9,0,1.69,0.45,2.39,1.36c0.89,1.12,1.33,2.65,1.33,4.56c0,1.34,-0.19,2.49,-0.58,3.43c-0.39,0.94,-0.88,1.62,-1.48,2.05c-0.6,0.42,-1.18,0.63,-1.73,0.63c-1.1,0,-2.03,-0.65,-2.77,-1.95c-0.62,-1.1,-0.94,-2.43,-0.94,-3.97m1.69,0.2c0,1.59,0.19,2.9,0.58,3.91c0.33,0.85,0.82,1.28,1.45,1.28c0.31,0,0.63,-0.14,0.96,-0.41c0.33,-0.28,0.58,-0.74,0.76,-1.4c0.26,-0.98,0.39,-2.36,0.39,-4.14c0,-1.32,-0.14,-2.43,-0.41,-3.31c-0.21,-0.65,-0.47,-1.11,-0.8,-1.39c-0.24,-0.19,-0.52,-0.28,-0.84,-0.28c-0.4,0,-0.74,0.18,-1.05,0.53c-0.41,0.47,-0.68,1.21,-0.83,2.23c-0.15,1.02,-0.22,2.01,-0.22,2.99" fill="#000000" stroke="none" fill-opacity="1"/>
<path d="m31.34,189.72c0.33,-0.78,0.75,-1.39,1.25,-1.81c0.5,-0.43,1.13,-0.64,1.89,-0.64c0.93,0,1.64,0.3,2.12,0.91c0.37,0.45,0.56,0.93,0.56,1.45c0,0.83,-0.53,1.7,-1.58,2.61c0.71,0.28,1.24,0.68,1.61,1.2c0.36,0.52,0.55,1.12,0.55,1.82c0,1.01,-0.32,1.88,-0.95,2.61c-0.83,0.96,-2.04,1.44,-3.62,1.44c-0.77,0,-1.3,-0.1,-1.59,-0.29c-0.29,-0.19,-0.43,-0.4,-0.43,-0.62c0,-0.17,0.07,-0.31,0.2,-0.44c0.14,-0.12,0.3,-0.19,0.48,-0.19c0.15,0,0.29,0.02,0.44,0.06c0.09,0.03,0.31,0.14,0.66,0.31c0.34,0.18,0.58,0.29,0.72,0.33c0.21,0.06,0.43,0.09,0.67,0.09c0.58,0,1.09,-0.23,1.52,-0.68c0.43,-0.45,0.64,-0.99,0.64,-1.6c0,-0.45,-0.1,-0.89,-0.3,-1.31c-0.15,-0.32,-0.31,-0.57,-0.48,-0.73c-0.25,-0.23,-0.59,-0.43,-1.02,-0.62c-0.43,-0.18,-0.86,-0.27,-1.3,-0.27l-0.28,0l0,-0.25c0.45,-0.06,0.9,-0.23,1.35,-0.49c0.45,-0.27,0.78,-0.59,0.99,-0.97c0.21,-0.38,0.31,-0.79,0.31,-1.24c0,-0.58,-0.18,-1.06,-0.55,-1.42c-0.37,-0.36,-0.83,-0.55,-1.37,-0.55c-0.89,0,-1.62,0.47,-2.22,1.42l-0.28,-0.12m8.73,3.66c0,-1.32,0.2,-2.46,0.6,-3.41c0.4,-0.95,0.93,-1.66,1.59,-2.13c0.52,-0.37,1.05,-0.56,1.59,-0.56c0.9,0,1.69,0.45,2.39,1.36c0.89,1.12,1.33,2.65,1.33,4.56c0,1.34,-0.19,2.49,-0.58,3.43c-0.39,0.94,-0.88,1.62,-1.48,2.05c-0.6,0.42,-1.18,0.63,-1.73,0.63c-1.1,0,-2.03,-0.65,-2.77,-1.95c-0.62,-1.1,-0.94,-2.43,-0.94,-3.97m1.69,0.2c0,1.59,0.19,2.9,0.58,3.91c0.33,0.85,0.82,1.28,1.45,1.28c0.31,0,0.63,-0.14,0.96,-0.41c0.33,-0.28,0.58,-0.74,0.76,-1.4c0.26,-0.98,0.39,-2.36,0.39,-4.14c0,-1.32,-0.14,-2.43,-0.41,-3.31c-0.21,-0.65,-0.47,-1.11,-0.8,-1.39c-0.24,-0.19,-0.52,-0.28,-0.84,-0.28c-0.4,0,-0.74,0.18,-1.05,0.53c-0.41,0.47,-0.68,1.21,-0.83,2.23c-0.15,1.02,-0.22,2.01,-0.22,2.99m7.31,-0.2c0,-1.32,0.2,-2.46,0.6,-3.41c0.4,-0.95,0.93,-1.66,1.59,-2.13c0.52,-0.37,1.05,-0.56,1.59,-0.56c0.9,0,1.69,0.45,2.39,1.36c0.89,1.12,1.33,2.65,1.33,4.56c0,1.34,-0.19,2.49,-0.58,3.43c-0.39,0.94,-0.88,1.62,-1.48,2.05c-0.6,0.42,-1.18,0.63,-1.73,0.63c-1.1,0,-2.03,-0.65,-2.77,-1.95c-0.62,-1.1,-0.94,-2.43,-0.94,-3.97m1.69,0.2c0,1.59,0.19,2.9,0.58,3.91c0.33,0.85,0.82,1.28,1.45,1.28c0.31,0,0.63,-0.14,0.96,-0.41c0.33,-0.28,0.58,-0.74,0.76,-1.4c0.26,-0.98,0.39,-2.36,0.39,-4.14c0,-1.32,-0.14,-2.43,-0.41,-3.31c-0.21,-0.65,-0.47,-1.11,-0.8,-1.39c-0.24,-0.19,-0.52,-0.28,-0.84,-0.28c-0.4,0,-0.74,0.18,-1.05,0.53c-0.41,0.47,-0.68,1.21,-0.83,2.23c-0.15,1.02,-0.22,2.01,-0.22,2.99" fill="#000000" stroke="none" fill-opacity="1"/>
<path d="m38.59,101.84l0,1.2l-1.55,0l0,3.06l-1.42,0l0,-3.06l-4.89,0l0,-1.09l5.36,-7.67l0.95,0l0,7.56l1.55,0m-2.97,0l0,-5.75l-4.06,5.75l4.06,0m4.45,-1.45c0,-1.32,0.2,-2.46,0.6,-3.41c0.4,-0.95,0.93,-1.66,1.59,-2.13c0.52,-0.37,1.05,-0.56,1.59,-0.56c0.9,0,1.69,0.45,2.39,1.36c0.89,1.12,1.33,2.65,1.33,4.56c0,1.34,-0.19,2.49,-0.58,3.43c-0.39,0.94,-0.88,1.62,-1.48,2.05c-0.6,0.42,-1.18,0.63,-1.73,0.63c-1.1,0,-2.03,-0.65,-2.77,-1.95c-0.62,-1.1,-0.94,-2.43,-0.94,-3.97m1.69,0.2c0,1.59,0.19,2.9,0.58,3.91c0.33,0.85,0.82,1.28,1.45,1.28c0.31,0,0.63,-0.14,0.96,-0.41c0.33,-0.28,0.58,-0.74,0.76,-1.4c0.26,-0.98,0.39,-2.36,0.39,-4.14c0,-1.32,-0.14,-2.43,-0.41,-3.31c-0.21,-0.65,-0.47,-1.11,-0.8,-1.39c-0.24,-0.19,-0.52,-0.28,-0.84,-0.28c-0.4,0,-0.74,0.18,-1.05,0.53c-0.41,0.47,-0.68,1.21,-0.83,2.23c-0.15,1.02,-0.22,2.01,-0.22,2.99m7.31,-0.2c0,-1.32,0.2,-2.46,0.6,-3.41c0.4,-0.95,0.93,-1.66,1.59,-2.13c0.52,-0.37,1.05,-0.56,1.59,-0.56c0.9,0,1.69,0.45,2.39,1.36c0.89,1.12,1.33,2.65,1.33,4.56c0,1.34,-0.19,2.49,-0.58,3.43c-0.39,0.94,-0.88,1.62,-1.48,2.05c-0.6,0.42,-1.18,0.63,-1.73,0.63c-1.1,0,-2.03,-0.65,-2.77,-1.95c-0.62,-1.1,-0.94,-2.43,-0.94,-3.97m1.69,0.2c0,1.59,0.19,2.9,0.58,3.91c0.33,0.85,0.82,1.28,1.45,1.28c0.31,0,0.63,-0.14,0.96,-0.41c0.33,-0.28,0.58,-0.74,0.76,-1.4c0.26,-0.98,0.39,-2.36,0.39,-4.14c0,-1.32,-0.14,-2.43,-0.41,-3.31c-0.21,-0.65,-0.47,-1.11,-0.8,-1.39c-0.24,-0.19,-0.52,-0.28,-0.84,-0.28c-0.4,0,-0.74,0.18,-1.05,0.53c-0.41,0.47,-0.68,1.21,-0.83,2.23c-0.15,1.02,-0.22,2.01,-0.22,2.99" fill="#000000" stroke="none" fill-opacity="1"/>
<path d="m38.05,4.41l-0.66,1.45l-3.5,0l-0.75,1.56c1.51,0.22,2.7,0.78,3.58,1.69c0.76,0.77,1.14,1.68,1.14,2.73c0,0.6,-0.12,1.17,-0.37,1.69c-0.24,0.52,-0.56,0.96,-0.94,1.33c-0.38,0.36,-0.8,0.66,-1.26,0.87c-0.66,0.31,-1.33,0.47,-2.02,0.47c-0.7,0,-1.2,-0.12,-1.52,-0.35c-0.31,-0.23,-0.47,-0.5,-0.47,-0.79c0,-0.16,0.07,-0.29,0.2,-0.41c0.13,-0.12,0.29,-0.18,0.49,-0.18c0.15,0,0.27,0.02,0.38,0.06c0.11,0.04,0.3,0.16,0.57,0.34c0.43,0.3,0.86,0.45,1.3,0.45c0.67,0,1.25,-0.25,1.76,-0.76c0.51,-0.51,0.76,-1.12,0.76,-1.84c0,-0.71,-0.22,-1.36,-0.67,-1.97c-0.45,-0.6,-1.07,-1.07,-1.86,-1.41c-0.62,-0.26,-1.47,-0.41,-2.55,-0.44l2.22,-4.52l4.16,0m2.03,5.87c0,-1.32,0.2,-2.46,0.6,-3.41c0.4,-0.95,0.93,-1.66,1.59,-2.13c0.52,-0.37,1.05,-0.56,1.59,-0.56c0.9,0,1.69,0.45,2.39,1.36c0.89,1.12,1.33,2.65,1.33,4.56c0,1.34,-0.19,2.49,-0.58,3.43c-0.39,0.94,-0.88,1.62,-1.48,2.05c-0.6,0.42,-1.18,0.63,-1.73,0.63c-1.1,0,-2.03,-0.65,-2.77,-1.95c-0.62,-1.1,-0.94,-2.43,-0.94,-3.97m1.69,0.2c0,1.59,0.19,2.9,0.58,3.91c0.33,0.85,0.82,1.28,1.45,1.28c0.31,0,0.63,-0.14,0.96,-0.41c0.33,-0.28,0.58,-0.74,0.76,-1.4c0.26,-0.98,0.39,-2.36,0.39,-4.14c0,-1.32,-0.14,-2.43,-0.41,-3.31c-0.21,-0.65,-0.47,-1.11,-0.8,-1.39c-0.24,-0.19,-0.52,-0.28,-0.84,-0.28c-0.4,0,-0.74,0.18,-1.05,0.53c-0.41,0.47,-0.68,1.21,-0.83,2.23c-0.15,1.02,-0.22,2.01,-0.22,2.99m7.31,-0.2c0,-1.32,0.2,-2.46,0.6,-3.41c0.4,-0.95,0.93,-1.66,1.59,-2.13c0.52,-0.37,1.05,-0.56,1.59,-0.56c0.9,0,1.69,0.45,2.39,1.36c0.89,1.12,1.33,2.65,1.33,4.56c0,1.34,-0.19,2.49,-0.58,3.43c-0.39,0.94,-0.88,1.62,-1.48,2.05c-0.6,0.42,-1.18,0.63,-1.73,0.63c-1.1,0,-2.03,-0.65,-2.77,-1.95c-0.62,-1.1,-0.94,-2.43,-0.94,-3.97m1.69,0.2c0,1.59,0.19,2.9,0.58,3.91c0.33,0.85,0.82,1.28,1.45,1.28c0.31,0,0.63,-0.14,0.96,-0.41c0.33,-0.28,0.58,-0.74,0.76,-1.4c0.26,-0.98,0.39,-2.36,0.39,-4.14c0,-1.32,-0.14,-2.43,-0.41,-3.31c-0.21,-0.65,-0.47,-1.11,-0.8,-1.39c-0.24,-0.19,-0.52,-0.28,-0.84,-0.28c-0.4,0,-0.74,0.18,-1.05,0.53c-0.41,0.47,-0.68,1.21,-0.83,2.23c-0.15,1.02,-0.22,2.01,-0.22,2.99" fill="#000000" stroke="none" fill-opacity="1"/>
</g>
<g stroke-width="0.62" stroke-linecap="butt" fill="none">
<path d="M60.46,473.03l465.91,0"/>
<path d="M60.46,473.03l0,-3.75M83.76,473.03l0,-3.75M107.05,473.03l0,-3.75M130.35,473.03l0,-3.75M153.64,473.03l0,-3.75M176.94,473.03l0,-3.75M200.24,473.03l0,-3.75M223.53,473.03l0,-3.75M246.83,473.03l0,-3.75M270.12,473.03l0,-3.75M293.42,473.03l0,-3.75M316.71,473.03l0,-3.75M340.01,473.03l0,-3.75M363.31,473.03l0,-3.75M386.6,473.03l0,-3.75M409.9,473.03l0,-3.75M433.19,473.03l0,-3.75M456.49,473.03l0,-3.75M479.78,473.03l0,-3.75M503.08,473.03l0,-3.75M526.38,473.03l0,-3.75"/>
<path d="M60.46,473.03l0,-7.5M176.94,473.03l0,-7.5M293.42,473.03l0,-7.5M409.9,473.03l0,-7.5M526.38,473.03l0,-7.5"/>
<path d="M60.46,7.11l465.91,0"/>
<path d="M60.46,7.11l0,3.75M83.76,7.11l0,3.75M107.05,7.11l0,3.75M130.35,7.11l0,3.75M153.64,7.11l0,3.75M176.94,7.11l0,3.75M200.24,7.11l0,3.75M223.53,7.11l0,3.75M246.83,7.11l0,3.75M270.12,7.11l0,3.75M293.42,7.11l0,3.75M316.71,7.11l0,3.75M340.01,7.11l0,3.75M363.31,7.11l0,3.75M386.6,7.11l0,3.75M409.9,7.11l0,3.75M433.19,7.11l0,3.75M456.49,7.11l0,3.75M479.78,7.11l0,3.75M503.08,7.11l0,3.75M526.38,7.11l0,3.75"/>
<path d="M60.46,7.11l0,7.5M176.94,7.11l0,7.5M293.42,7.11l0,7.5M409.9,7.11l0,7.5M526.38,7.11l0,7.5"/>
</g>
<g stroke-width="1" fill="none">
<path d="m259.28,502.42l0,0.33c-0.3,0,-0.55,0.05,-0.73,0.16c-0.19,0.1,-0.36,0.31,-0.53,0.61c-0.11,0.2,-0.3,0.67,-0.55,1.42l-3.22,9.34l-0.34,0l-2.64,-7.41l-2.62,7.41l-0.31,0l-3.44,-9.62c-0.26,-0.72,-0.42,-1.14,-0.48,-1.27c-0.11,-0.22,-0.27,-0.38,-0.47,-0.48c-0.2,-0.1,-0.46,-0.16,-0.8,-0.16l0,-0.33l4.28,0l0,0.33l-0.2,0c-0.3,0,-0.53,0.07,-0.69,0.2c-0.16,0.14,-0.23,0.3,-0.23,0.5c0,0.2,0.12,0.66,0.37,1.37l2.28,6.5l1.92,-5.53l-0.34,-0.97l-0.28,-0.78c-0.11,-0.29,-0.24,-0.54,-0.39,-0.75c-0.07,-0.11,-0.17,-0.21,-0.28,-0.28c-0.15,-0.1,-0.29,-0.18,-0.42,-0.22c-0.11,-0.03,-0.29,-0.05,-0.52,-0.05l0,-0.33l4.52,0l0,0.33l-0.31,0c-0.32,0,-0.56,0.07,-0.7,0.2c-0.15,0.14,-0.22,0.32,-0.22,0.55c0,0.29,0.13,0.8,0.39,1.53l2.22,6.3l2.2,-6.39c0.25,-0.71,0.37,-1.2,0.37,-1.47c0,-0.12,-0.04,-0.24,-0.12,-0.36c-0.08,-0.11,-0.19,-0.2,-0.31,-0.25c-0.22,-0.07,-0.5,-0.11,-0.84,-0.11l0,-0.33l3.45,0m2.16,-0.56c0.24,0,0.45,0.09,0.62,0.26c0.17,0.17,0.26,0.38,0.26,0.62c0,0.24,-0.09,0.44,-0.26,0.61c-0.17,0.17,-0.38,0.25,-0.62,0.25c-0.24,0,-0.44,-0.08,-0.61,-0.25c-0.17,-0.17,-0.25,-0.37,-0.25,-0.61c0,-0.24,0.08,-0.45,0.25,-0.62c0.17,-0.17,0.37,-0.26,0.61,-0.26m0.72,4.09l0,6.3c0,0.49,0.03,0.82,0.1,0.98c0.07,0.16,0.17,0.28,0.31,0.36c0.14,0.08,0.4,0.12,0.77,0.12l0,0.31l-3.81,0l0,-0.31c0.39,0,0.64,-0.04,0.77,-0.11c0.13,-0.07,0.23,-0.2,0.31,-0.37c0.08,-0.17,0.12,-0.5,0.12,-0.98l0,-3.02c0,-0.85,-0.03,-1.41,-0.08,-1.66c-0.04,-0.18,-0.1,-0.3,-0.19,-0.37c-0.08,-0.07,-0.2,-0.11,-0.34,-0.11c-0.17,0,-0.36,0.04,-0.59,0.12l-0.11,-0.3l2.36,-0.97l0.37,0m3.58,1.66c0.92,-1.1,1.79,-1.66,2.62,-1.66c0.43,0,0.79,0.11,1.1,0.32c0.31,0.21,0.55,0.57,0.73,1.05c0.14,0.34,0.2,0.87,0.2,1.58l0,3.34c0,0.49,0.04,0.82,0.11,1c0.06,0.15,0.16,0.26,0.3,0.34c0.14,0.08,0.4,0.12,0.77,0.12l0,0.31l-3.87,0l0,-0.31l0.17,0c0.36,0,0.62,-0.05,0.77,-0.16c0.15,-0.11,0.24,-0.27,0.3,-0.49c0.02,-0.08,0.03,-0.35,0.03,-0.8l0,-3.2c0,-0.72,-0.09,-1.24,-0.27,-1.55c-0.18,-0.32,-0.49,-0.48,-0.93,-0.48c-0.68,0,-1.35,0.37,-2.03,1.11l0,4.12c0,0.53,0.03,0.86,0.09,0.98c0.08,0.17,0.19,0.29,0.33,0.36c0.14,0.07,0.42,0.11,0.86,0.11l0,0.31l-3.87,0l0,-0.31l0.17,0c0.4,0,0.66,-0.1,0.8,-0.3c0.14,-0.2,0.21,-0.59,0.21,-1.15l0,-2.91c0,-0.94,-0.02,-1.51,-0.06,-1.72c-0.04,-0.21,-0.11,-0.35,-0.2,-0.42c-0.09,-0.07,-0.21,-0.11,-0.37,-0.11c-0.16,0,-0.34,0.04,-0.56,0.12l-0.12,-0.3l2.36,-0.97l0.36,0l0,1.66m8.81,3.55c-0.48,-0.23,-0.85,-0.55,-1.1,-0.97c-0.26,-0.42,-0.38,-0.88,-0.38,-1.39c0,-0.78,0.29,-1.45,0.87,-2.01c0.58,-0.56,1.33,-0.84,2.23,-0.84c0.75,0,1.4,0.18,1.95,0.55l1.66,0c0.24,0,0.38,0.01,0.42,0.02c0.04,0.02,0.07,0.04,0.08,0.07c0.04,0.05,0.06,0.15,0.06,0.28c0,0.15,-0.02,0.24,-0.05,0.3c-0.02,0.03,-0.05,0.06,-0.09,0.08c-0.04,0.02,-0.18,0.03,-0.42,0.03l-1.02,0c0.31,0.41,0.47,0.93,0.47,1.56c0,0.73,-0.28,1.35,-0.84,1.87c-0.56,0.52,-1.3,0.78,-2.24,0.78c-0.39,0,-0.78,-0.06,-1.19,-0.17c-0.25,0.22,-0.42,0.41,-0.51,0.57c-0.09,0.16,-0.13,0.3,-0.13,0.41c0,0.09,0.05,0.18,0.14,0.27c0.09,0.09,0.28,0.15,0.55,0.2c0.16,0.02,0.56,0.04,1.2,0.06c1.17,0.03,1.93,0.07,2.28,0.12c0.53,0.07,0.95,0.27,1.27,0.59c0.31,0.32,0.47,0.71,0.47,1.18c0,0.65,-0.3,1.25,-0.91,1.81c-0.89,0.83,-2.04,1.25,-3.47,1.25c-1.1,0,-2.04,-0.25,-2.8,-0.75c-0.43,-0.28,-0.64,-0.58,-0.64,-0.89c0,-0.14,0.03,-0.27,0.09,-0.41c0.1,-0.21,0.31,-0.5,0.61,-0.87c0.03,-0.05,0.32,-0.36,0.86,-0.92c-0.29,-0.18,-0.5,-0.34,-0.62,-0.48c-0.12,-0.14,-0.19,-0.3,-0.19,-0.48c0,-0.2,0.08,-0.43,0.25,-0.7c0.17,-0.27,0.54,-0.65,1.12,-1.14m1.48,-4.78c-0.42,0,-0.77,0.17,-1.05,0.5c-0.29,0.33,-0.43,0.85,-0.43,1.55c0,0.9,0.19,1.59,0.58,2.09c0.3,0.37,0.68,0.56,1.12,0.56c0.44,0,0.8,-0.16,1.08,-0.48c0.28,-0.32,0.42,-0.83,0.42,-1.53c0,-0.91,-0.2,-1.61,-0.59,-2.12c-0.29,-0.37,-0.67,-0.56,-1.12,-0.56m-1.56,7.64c-0.27,0.29,-0.47,0.56,-0.61,0.81c-0.14,0.25,-0.2,0.48,-0.2,0.69c0,0.28,0.16,0.52,0.48,0.72c0.57,0.35,1.4,0.53,2.47,0.53c1.03,0,1.79,-0.18,2.27,-0.54c0.48,-0.36,0.73,-0.75,0.73,-1.16c0,-0.29,-0.15,-0.5,-0.44,-0.62c-0.29,-0.12,-0.87,-0.2,-1.75,-0.22c-1.28,-0.04,-2.27,-0.11,-2.95,-0.2m11.05,-8.06l0,2.67l-0.28,0c-0.22,-0.83,-0.5,-1.4,-0.84,-1.7c-0.34,-0.3,-0.77,-0.45,-1.29,-0.45c-0.41,0,-0.73,0.1,-0.98,0.31c-0.24,0.21,-0.37,0.44,-0.37,0.7c0,0.31,0.09,0.58,0.28,0.81c0.18,0.24,0.54,0.49,1.08,0.75l1.23,0.61c1.16,0.56,1.73,1.3,1.73,2.22c0,0.72,-0.27,1.29,-0.8,1.73c-0.54,0.43,-1.14,0.65,-1.8,0.65c-0.48,0,-1.03,-0.08,-1.64,-0.25c-0.19,-0.06,-0.34,-0.09,-0.45,-0.09c-0.14,0,-0.24,0.08,-0.31,0.23l-0.28,0l0,-2.8l0.28,0c0.16,0.79,0.46,1.39,0.91,1.8c0.45,0.41,0.96,0.61,1.51,0.61c0.4,0,0.72,-0.11,0.97,-0.34c0.25,-0.23,0.37,-0.51,0.37,-0.83c0,-0.4,-0.14,-0.73,-0.41,-1c-0.28,-0.27,-0.83,-0.61,-1.66,-1.02c-0.83,-0.41,-1.37,-0.78,-1.63,-1.11c-0.25,-0.32,-0.37,-0.73,-0.37,-1.23c0,-0.65,0.22,-1.18,0.66,-1.62c0.44,-0.43,1.01,-0.65,1.72,-0.65c0.3,0,0.67,0.07,1.11,0.2c0.29,0.08,0.49,0.12,0.59,0.12c0.08,0,0.15,-0.02,0.2,-0.06c0.05,-0.04,0.11,-0.13,0.19,-0.27l0.28,0m1.37,1.02l2.41,-0.98l0.33,0l0,1.84c0.41,-0.7,0.81,-1.18,1.22,-1.46c0.41,-0.28,0.83,-0.41,1.28,-0.41c0.79,0,1.45,0.31,1.97,0.92c0.65,0.76,0.97,1.74,0.97,2.94c0,1.35,-0.39,2.47,-1.17,3.36c-0.64,0.72,-1.44,1.08,-2.41,1.08c-0.42,0,-0.78,-0.06,-1.09,-0.17c-0.23,-0.08,-0.48,-0.26,-0.77,-0.52l0,2.39c0,0.53,0.03,0.87,0.09,1.02c0.06,0.15,0.18,0.26,0.34,0.34c0.17,0.08,0.46,0.12,0.89,0.12l0,0.33l-4.11,0l0,-0.33l0.22,0c0.31,0.01,0.58,-0.05,0.8,-0.17c0.11,-0.06,0.2,-0.16,0.26,-0.3c0.06,-0.14,0.09,-0.5,0.09,-1.07l0,-7.39c0,-0.51,-0.02,-0.83,-0.07,-0.97c-0.05,-0.14,-0.12,-0.24,-0.22,-0.3c-0.1,-0.07,-0.23,-0.1,-0.4,-0.1c-0.14,0,-0.31,0.04,-0.53,0.11l-0.09,-0.27m2.73,1.36l0,2.92c0,0.64,0.03,1.05,0.08,1.25c0.07,0.32,0.27,0.61,0.58,0.86c0.31,0.25,0.7,0.37,1.17,0.37c0.57,0,1.04,-0.22,1.39,-0.66c0.46,-0.58,0.69,-1.4,0.69,-2.45c0,-1.2,-0.26,-2.12,-0.78,-2.77c-0.36,-0.44,-0.8,-0.66,-1.3,-0.66c-0.27,0,-0.54,0.07,-0.81,0.2c-0.21,0.1,-0.55,0.41,-1.02,0.92m11.27,4.56c-0.8,0.61,-1.31,0.97,-1.52,1.08c-0.3,0.14,-0.63,0.2,-0.98,0.2c-0.54,0,-0.99,-0.18,-1.34,-0.55c-0.35,-0.37,-0.52,-0.86,-0.52,-1.46c0,-0.37,0.08,-0.7,0.25,-0.98c0.24,-0.39,0.65,-0.75,1.23,-1.09c0.58,-0.34,1.54,-0.76,2.88,-1.25l0,-0.31c0,-0.78,-0.12,-1.32,-0.37,-1.6c-0.25,-0.29,-0.61,-0.43,-1.08,-0.43c-0.36,0,-0.65,0.09,-0.86,0.28c-0.22,0.2,-0.33,0.42,-0.33,0.67l0.02,0.5c0,0.26,-0.07,0.46,-0.2,0.6c-0.13,0.14,-0.3,0.21,-0.52,0.21c-0.21,0,-0.38,-0.07,-0.52,-0.22c-0.14,-0.15,-0.2,-0.35,-0.2,-0.61c0,-0.49,0.25,-0.94,0.75,-1.35c0.5,-0.41,1.2,-0.62,2.11,-0.62c0.7,0,1.27,0.12,1.72,0.36c0.33,0.18,0.58,0.45,0.73,0.83c0.1,0.24,0.16,0.74,0.16,1.5l0,2.66c0,0.75,0.02,1.21,0.05,1.37c0.03,0.17,0.08,0.28,0.14,0.34c0.06,0.06,0.14,0.09,0.22,0.09c0.09,0,0.18,-0.02,0.25,-0.06c0.11,-0.07,0.34,-0.28,0.69,-0.62l0,0.48c-0.64,0.85,-1.24,1.28,-1.83,1.28c-0.28,0,-0.51,-0.1,-0.67,-0.29c-0.17,-0.19,-0.25,-0.52,-0.25,-0.99m0,-0.56l0,-2.98c-0.86,0.34,-1.42,0.59,-1.67,0.73c-0.45,0.25,-0.77,0.51,-0.96,0.78c-0.19,0.27,-0.29,0.57,-0.29,0.91c0,0.41,0.12,0.74,0.37,1.02c0.24,0.27,0.52,0.41,0.84,0.41c0.44,0,1.01,-0.29,1.72,-0.86m5.84,-4.72c0.92,-1.1,1.79,-1.66,2.62,-1.66c0.43,0,0.79,0.11,1.1,0.32c0.31,0.21,0.55,0.57,0.73,1.05c0.14,0.34,0.2,0.87,0.2,1.58l0,3.34c0,0.49,0.04,0.82,0.11,1c0.06,0.15,0.16,0.26,0.3,0.34c0.14,0.08,0.4,0.12,0.77,0.12l0,0.31l-3.87,0l0,-0.31l0.17,0c0.36,0,0.62,-0.05,0.77,-0.16c0.15,-0.11,0.24,-0.27,0.3,-0.49c0.02,-0.08,0.03,-0.35,0.03,-0.8l0,-3.2c0,-0.72,-0.09,-1.24,-0.27,-1.55c-0.18,-0.32,-0.49,-0.48,-0.93,-0.48c-0.68,0,-1.35,0.37,-2.03,1.11l0,4.12c0,0.53,0.03,0.86,0.09,0.98c0.08,0.17,0.19,0.29,0.33,0.36c0.14,0.07,0.42,0.11,0.86,0.11l0,0.31l-3.87,0l0,-0.31l0.17,0c0.4,0,0.66,-0.1,0.8,-0.3c0.14,-0.2,0.21,-0.59,0.21,-1.15l0,-2.91c0,-0.94,-0.02,-1.51,-0.06,-1.72c-0.04,-0.21,-0.11,-0.35,-0.2,-0.42c-0.09,-0.07,-0.21,-0.11,-0.37,-0.11c-0.16,0,-0.34,0.04,-0.56,0.12l-0.12,-0.3l2.36,-0.97l0.36,0l0,1.66m16.61,9.83l0,0.33c-0.86,-0.44,-1.58,-0.95,-2.16,-1.53c-0.82,-0.82,-1.46,-1.8,-1.9,-2.92c-0.44,-1.12,-0.66,-2.29,-0.66,-3.5c0,-1.76,0.43,-3.37,1.3,-4.83c0.87,-1.46,2.01,-2.5,3.41,-3.12l0,0.36c-0.7,0.39,-1.27,0.92,-1.73,1.59c-0.45,0.68,-0.79,1.53,-1.02,2.56c-0.22,1.03,-0.34,2.1,-0.34,3.22c0,1.22,0.1,2.33,0.3,3.33c0.15,0.78,0.32,1.41,0.53,1.89c0.21,0.48,0.49,0.94,0.85,1.37c0.36,0.44,0.83,0.85,1.4,1.25m3.44,-9.81c0.56,-0.57,0.9,-0.9,1,-0.98c0.26,-0.22,0.54,-0.39,0.84,-0.51c0.3,-0.12,0.59,-0.18,0.88,-0.18c0.49,0,0.91,0.14,1.27,0.43c0.35,0.29,0.59,0.7,0.7,1.24c0.58,-0.69,1.08,-1.14,1.48,-1.35c0.41,-0.21,0.82,-0.32,1.25,-0.32c0.42,0,0.79,0.11,1.11,0.32c0.32,0.21,0.58,0.57,0.77,1.05c0.12,0.33,0.19,0.85,0.19,1.55l0,3.37c0,0.49,0.04,0.82,0.11,1c0.05,0.12,0.16,0.23,0.31,0.32c0.16,0.09,0.41,0.13,0.75,0.13l0,0.31l-3.86,0l0,-0.31l0.16,0c0.34,0,0.61,-0.06,0.8,-0.19c0.12,-0.09,0.22,-0.24,0.28,-0.44c0.02,-0.09,0.03,-0.37,0.03,-0.83l0,-3.37c0,-0.64,-0.08,-1.08,-0.23,-1.34c-0.22,-0.36,-0.57,-0.55,-1.06,-0.55c-0.3,0,-0.61,0.08,-0.91,0.23c-0.31,0.15,-0.67,0.43,-1.1,0.84l-0.02,0.09l0.02,0.37l0,3.73c0,0.53,0.03,0.86,0.09,0.99c0.06,0.13,0.17,0.24,0.34,0.33c0.17,0.09,0.45,0.13,0.84,0.13l0,0.31l-3.95,0l0,-0.31c0.44,0,0.74,-0.05,0.9,-0.15c0.16,-0.1,0.27,-0.25,0.34,-0.46c0.03,-0.09,0.05,-0.37,0.05,-0.84l0,-3.37c0,-0.64,-0.09,-1.09,-0.28,-1.37c-0.26,-0.36,-0.61,-0.55,-1.06,-0.55c-0.3,0,-0.6,0.08,-0.91,0.25c-0.48,0.25,-0.84,0.53,-1.09,0.84l0,4.2c0,0.51,0.03,0.84,0.1,1c0.07,0.16,0.17,0.27,0.31,0.34c0.14,0.07,0.42,0.11,0.85,0.11l0,0.31l-3.86,0l0,-0.31c0.35,0,0.6,-0.04,0.74,-0.11c0.14,-0.07,0.25,-0.2,0.33,-0.37c0.08,-0.17,0.12,-0.5,0.12,-0.98l0,-3c0,-0.85,-0.03,-1.41,-0.08,-1.66c-0.04,-0.19,-0.11,-0.32,-0.2,-0.39c-0.09,-0.07,-0.21,-0.11,-0.35,-0.11c-0.16,0,-0.34,0.04,-0.56,0.12l-0.14,-0.3l2.36,-0.97l0.37,0l0,1.67m11.52,-5.41l0,-0.36c0.86,0.43,1.59,0.93,2.17,1.52c0.81,0.83,1.44,1.81,1.88,2.93c0.44,1.12,0.66,2.28,0.66,3.49c0,1.77,-0.43,3.38,-1.3,4.84c-0.87,1.45,-2.01,2.5,-3.41,3.13l0,-0.33c0.7,-0.39,1.27,-0.91,1.73,-1.59c0.45,-0.67,0.79,-1.52,1.01,-2.55c0.22,-1.03,0.33,-2.11,0.33,-3.23c0,-1.22,-0.09,-2.33,-0.28,-3.33c-0.14,-0.78,-0.31,-1.41,-0.52,-1.88c-0.21,-0.47,-0.5,-0.93,-0.85,-1.37c-0.35,-0.44,-0.82,-0.86,-1.41,-1.27" fill="#000000" stroke="none" fill-opacity="1"/>
<path d="m56.58,486.3c0,-1.32,0.2,-2.46,0.6,-3.41c0.4,-0.95,0.93,-1.66,1.59,-2.13c0.52,-0.37,1.05,-0.56,1.59,-0.56c0.9,0,1.69,0.45,2.39,1.36c0.89,1.12,1.33,2.65,1.33,4.56c0,1.34,-0.19,2.49,-0.58,3.43c-0.39,0.94,-0.88,1.62,-1.48,2.05c-0.6,0.42,-1.18,0.63,-1.73,0.63c-1.1,0,-2.03,-0.65,-2.77,-1.95c-0.62,-1.1,-0.94,-2.43,-0.94,-3.97m1.69,0.2c0,1.59,0.19,2.9,0.58,3.91c0.33,0.85,0.82,1.28,1.45,1.28c0.31,0,0.63,-0.14,0.96,-0.41c0.33,-0.28,0.58,-0.74,0.76,-1.4c0.26,-0.98,0.39,-2.36,0.39,-4.14c0,-1.32,-0.14,-2.43,-0.41,-3.31c-0.21,-0.65,-0.47,-1.11,-0.8,-1.39c-0.24,-0.19,-0.52,-0.28,-0.84,-0.28c-0.4,0,-0.74,0.18,-1.05,0.53c-0.41,0.47,-0.68,1.21,-0.83,2.23c-0.15,1.02,-0.22,2.01,-0.22,2.99" fill="#000000" stroke="none" fill-opacity="1"/>
<path d="m175.53,480.42l-0.66,1.45l-3.5,0l-0.75,1.56c1.51,0.22,2.7,0.78,3.58,1.69c0.76,0.77,1.14,1.68,1.14,2.73c0,0.6,-0.12,1.17,-0.37,1.69c-0.24,0.52,-0.56,0.96,-0.94,1.33c-0.38,0.36,-0.8,0.66,-1.26,0.87c-0.66,0.31,-1.33,0.47,-2.02,0.47c-0.7,0,-1.2,-0.12,-1.52,-0.35c-0.31,-0.23,-0.47,-0.5,-0.47,-0.79c0,-0.16,0.07,-0.29,0.2,-0.41c0.13,-0.12,0.29,-0.18,0.49,-0.18c0.15,0,0.27,0.02,0.38,0.06c0.11,0.04,0.3,0.16,0.57,0.34c0.43,0.3,0.86,0.45,1.3,0.45c0.67,0,1.25,-0.25,1.76,-0.76c0.51,-0.51,0.76,-1.12,0.76,-1.84c0,-0.71,-0.22,-1.36,-0.67,-1.97c-0.45,-0.6,-1.07,-1.07,-1.86,-1.41c-0.62,-0.26,-1.47,-0.41,-2.55,-0.44l2.22,-4.52l4.16,0m2.03,5.87c0,-1.32,0.2,-2.46,0.6,-3.41c0.4,-0.95,0.93,-1.66,1.59,-2.13c0.52,-0.37,1.05,-0.56,1.59,-0.56c0.9,0,1.69,0.45,2.39,1.36c0.89,1.12,1.33,2.65,1.33,4.56c0,1.34,-0.19,2.49,-0.58,3.43c-0.39,0.94,-0.88,1.62,-1.48,2.05c-0.6,0.42,-1.18,0.63,-1.73,0.63c-1.1,0,-2.03,-0.65,-2.77,-1.95c-0.62,-1.1,-0.94,-2.43,-0.94,-3.97m1.69,0.2c0,1.59,0.19,2.9,0.58,3.91c0.33,0.85,0.82,1.28,1.45,1.28c0.31,0,0.63,-0.14,0.96,-0.41c0.33,-0.28,0.58,-0.74,0.76,-1.4c0.26,-0.98,0.39,-2.36,0.39,-4.14c0,-1.32,-0.14,-2.43,-0.41,-3.31c-0.21,-0.65,-0.47,-1.11,-0.8,-1.39c-0.24,-0.19,-0.52,-0.28,-0.84,-0.28c-0.4,0,-0.74,0.18,-1.05,0.53c-0.41,0.47,-0.68,1.21,-0.83,2.23c-0.15,1.02,-0.22,2.01,-0.22,2.99" fill="#000000" stroke="none" fill-opacity="1"/>
<path d="m281.95,481.56l2.83,-1.37l0.28,0l0,9.78c0,0.66,0.03,1.06,0.08,1.22c0.05,0.16,0.16,0.28,0.34,0.37c0.17,0.09,0.52,0.14,1.04,0.15l0,0.31l-4.36,0l0,-0.31c0.55,-0.01,0.91,-0.06,1.07,-0.14c0.16,-0.08,0.27,-0.2,0.34,-0.34c0.06,-0.14,0.09,-0.56,0.09,-1.26l0,-6.25c0,-0.84,-0.03,-1.39,-0.09,-1.62c-0.04,-0.18,-0.11,-0.31,-0.22,-0.4c-0.1,-0.09,-0.23,-0.13,-0.37,-0.13c-0.21,0,-0.51,0.09,-0.89,0.27l-0.12,-0.27m7.58,4.73c0,-1.32,0.2,-2.46,0.6,-3.41c0.4,-0.95,0.93,-1.66,1.59,-2.13c0.52,-0.37,1.05,-0.56,1.59,-0.56c0.9,0,1.69,0.45,2.39,1.36c0.89,1.12,1.33,2.65,1.33,4.56c0,1.34,-0.19,2.49,-0.58,3.43c-0.39,0.94,-0.88,1.62,-1.48,2.05c-0.6,0.42,-1.18,0.63,-1.73,0.63c-1.1,0,-2.03,-0.65,-2.77,-1.95c-0.62,-1.1,-0.94,-2.43,-0.94,-3.97m1.69,0.2c0,1.59,0.19,2.9,0.58,3.91c0.33,0.85,0.82,1.28,1.45,1.28c0.31,0,0.63,-0.14,0.96,-0.41c0.33,-0.28,0.58,-0.74,0.76,-1.4c0.26,-0.98,0.39,-2.36,0.39,-4.14c0,-1.32,-0.14,-2.43,-0.41,-3.31c-0.21,-0.65,-0.47,-1.11,-0.8,-1.39c-0.24,-0.19,-0.52,-0.28,-0.84,-0.28c-0.4,0,-0.74,0.18,-1.05,0.53c-0.41,0.47,-0.68,1.21,-0.83,2.23c-0.15,1.02,-0.22,2.01,-0.22,2.99m7.31,-0.2c0,-1.32,0.2,-2.46,0.6,-3.41c0.4,-0.95,0.93,-1.66,1.59,-2.13c0.52,-0.37,1.05,-0.56,1.59,-0.56c0.9,0,1.69,0.45,2.39,1.36c0.89,1.12,1.33,2.65,1.33,4.56c0,1.34,-0.19,2.49,-0.58,3.43c-0.39,0.94,-0.88,1.62,-1.48,2.05c-0.6,0.42,-1.18,0.63,-1.73,0.63c-1.1,0,-2.03,-0.65,-2.77,-1.95c-0.62,-1.1,-0.94,-2.43,-0.94,-3.97m1.69,0.2c0,1.59,0.19,2.9,0.58,3.91c0.33,0.85,0.82,1.28,1.45,1.28c0.31,0,0.63,-0.14,0.96,-0.41c0.33,-0.28,0.58,-0.74,0.76,-1.4c0.26,-0.98,0.39,-2.36,0.39,-4.14c0,-1.32,-0.14,-2.43,-0.41,-3.31c-0.21,-0.65,-0.47,-1.11,-0.8,-1.39c-0.24,-0.19,-0.52,-0.28,-0.84,-0.28c-0.4,0,-0.74,0.18,-1.05,0.53c-0.41,0.47,-0.68,1.21,-0.83,2.23c-0.15,1.02,-0.22,2.01,-0.22,2.99" fill="#000000" stroke="none" fill-opacity="1"/>
<path d="m398.44,481.56l2.83,-1.37l0.28,0l0,9.78c0,0.66,0.03,1.06,0.08,1.22c0.05,0.16,0.16,0.28,0.34,0.37c0.17,0.09,0.52,0.14,1.04,0.15l0,0.31l-4.36,0l0,-0.31c0.55,-0.01,0.91,-0.06,1.07,-0.14c0.16,-0.08,0.27,-0.2,0.34,-0.34c0.06,-0.14,0.09,-0.56,0.09,-1.26l0,-6.25c0,-0.84,-0.03,-1.39,-0.09,-1.62c-0.04,-0.18,-0.11,-0.31,-0.22,-0.4c-0.1,-0.09,-0.23,-0.13,-0.37,-0.13c-0.21,0,-0.51,0.09,-0.89,0.27l-0.12,-0.27m14.55,-1.14l-0.66,1.45l-3.5,0l-0.75,1.56c1.51,0.22,2.7,0.78,3.58,1.69c0.76,0.77,1.14,1.68,1.14,2.73c0,0.6,-0.12,1.17,-0.37,1.69c-0.24,0.52,-0.56,0.96,-0.94,1.33c-0.38,0.36,-0.8,0.66,-1.26,0.87c-0.66,0.31,-1.33,0.47,-2.02,0.47c-0.7,0,-1.2,-0.12,-1.52,-0.35c-0.31,-0.23,-0.47,-0.5,-0.47,-0.79c0,-0.16,0.07,-0.29,0.2,-0.41c0.13,-0.12,0.29,-0.18,0.49,-0.18c0.15,0,0.27,0.02,0.38,0.06c0.11,0.04,0.3,0.16,0.57,0.34c0.43,0.3,0.86,0.45,1.3,0.45c0.67,0,1.25,-0.25,1.76,-0.76c0.51,-0.51,0.76,-1.12,0.76,-1.84c0,-0.71,-0.22,-1.36,-0.67,-1.97c-0.45,-0.6,-1.07,-1.07,-1.86,-1.41c-0.62,-0.26,-1.47,-0.41,-2.55,-0.44l2.22,-4.52l4.16,0m2.03,5.87c0,-1.32,0.2,-2.46,0.6,-3.41c0.4,-0.95,0.93,-1.66,1.59,-2.13c0.52,-0.37,1.05,-0.56,1.59,-0.56c0.9,0,1.69,0.45,2.39,1.36c0.89,1.12,1.33,2.65,1.33,4.56c0,1.34,-0.19,2.49,-0.58,3.43c-0.39,0.94,-0.88,1.62,-1.48,2.05c-0.6,0.42,-1.18,0.63,-1.73,0.63c-1.1,0,-2.03,-0.65,-2.77,-1.95c-0.62,-1.1,-0.94,-2.43,-0.94,-3.97m1.69,0.2c0,1.59,0.19,2.9,0.58,3.91c0.33,0.85,0.82,1.28,1.45,1.28c0.31,0,0.63,-0.14,0.96,-0.41c0.33,-0.28,0.58,-0.74,0.76,-1.4c0.26,-0.98,0.39,-2.36,0.39,-4.14c0,-1.32,-0.14,-2.43,-0.41,-3.31c-0.21,-0.65,-0.47,-1.11,-0.8,-1.39c-0.24,-0.19,-0.52,-0.28,-0.84,-0.28c-0.4,0,-0.74,0.18,-1.05,0.53c-0.41,0.47,-0.68,1.21,-0.83,2.23c-0.15,1.02,-0.22,2.01,-0.22,2.99" fill="#000000" stroke="none" fill-opacity="1"/>
<path d="m514.52,489.78l-0.81,2.23l-6.84,0l0,-0.31c2.01,-1.83,3.43,-3.33,4.25,-4.49c0.82,-1.16,1.23,-2.23,1.23,-3.2c0,-0.73,-0.23,-1.33,-0.68,-1.8c-0.45,-0.47,-0.99,-0.71,-1.62,-0.71c-0.57,0,-1.09,0.17,-1.54,0.5c-0.45,0.33,-0.78,0.82,-0.99,1.47l-0.33,0c0.15,-1.06,0.51,-1.87,1.1,-2.44c0.59,-0.56,1.33,-0.84,2.21,-0.84c0.94,0,1.72,0.3,2.35,0.91c0.63,0.6,0.95,1.32,0.95,2.14c0,0.58,-0.14,1.17,-0.41,1.75c-0.43,0.93,-1.11,1.91,-2.05,2.94c-1.43,1.55,-2.31,2.48,-2.66,2.8l3.02,0c0.61,0,1.05,-0.02,1.3,-0.06c0.25,-0.04,0.47,-0.13,0.67,-0.27c0.2,-0.14,0.37,-0.34,0.52,-0.6l0.33,0m1.59,-3.48c0,-1.32,0.2,-2.46,0.6,-3.41c0.4,-0.95,0.93,-1.66,1.59,-2.13c0.52,-0.37,1.05,-0.56,1.59,-0.56c0.9,0,1.69,0.45,2.39,1.36c0.89,1.12,1.33,2.65,1.33,4.56c0,1.34,-0.19,2.49,-0.58,3.43c-0.39,0.94,-0.88,1.62,-1.48,2.05c-0.6,0.42,-1.18,0.63,-1.73,0.63c-1.1,0,-2.03,-0.65,-2.77,-1.95c-0.62,-1.1,-0.94,-2.43,-0.94,-3.97m1.69,0.2c0,1.59,0.19,2.9,0.58,3.91c0.33,0.85,0.82,1.28,1.45,1.28c0.31,0,0.63,-0.14,0.96,-0.41c0.33,-0.28,0.58,-0.74,0.76,-1.4c0.26,-0.98,0.39,-2.36,0.39,-4.14c0,-1.32,-0.14,-2.43,-0.41,-3.31c-0.21,-0.65,-0.47,-1.11,-0.8,-1.39c-0.24,-0.19,-0.52,-0.28,-0.84,-0.28c-0.4,0,-0.74,0.18,-1.05,0.53c-0.41,0.47,-0.68,1.21,-0.83,2.23c-0.15,1.02,-0.22,2.01,-0.22,2.99m7.31,-0.2c0,-1.32,0.2,-2.46,0.6,-3.41c0.4,-0.95,0.93,-1.66,1.59,-2.13c0.52,-0.37,1.05,-0.56,1.59,-0.56c0.9,0,1.69,0.45,2.39,1.36c0.89,1.12,1.33,2.65,1.33,4.56c0,1.34,-0.19,2.49,-0.58,3.43c-0.39,0.94,-0.88,1.62,-1.48,2.05c-0.6,0.42,-1.18,0.63,-1.73,0.63c-1.1,0,-2.03,-0.65,-2.77,-1.95c-0.62,-1.1,-0.94,-2.43,-0.94,-3.97m1.69,0.2c0,1.59,0.19,2.9,0.58,3.91c0.33,0.85,0.82,1.28,1.45,1.28c0.31,0,0.63,-0.14,0.96,-0.41c0.33,-0.28,0.58,-0.74,0.76,-1.4c0.26,-0.98,0.39,-2.36,0.39,-4.14c0,-1.32,-0.14,-2.43,-0.41,-3.31c-0.21,-0.65,-0.47,-1.11,-0.8,-1.39c-0.24,-0.19,-0.52,-0.28,-0.84,-0.28c-0.4,0,-0.74,0.18,-1.05,0.53c-0.41,0.47,-0.68,1.21,-0.83,2.23c-0.15,1.02,-0.22,2.01,-0.22,2.99" fill="#000000" stroke="none" fill-opacity="1"/>
</g>
</g>
</g>
<defs>
<clipPath id="c0"><path d="m0,0l533.49,0l0,533.49l-533.49,0l0,-533.49"/></clipPath>
<clipPath id="c1"><path d="m60.46,7.11l465.91,0l0,465.91l-465.91,0l0,-465.91"/></clipPath>
<clipPath id="c2"><path d="m96.46,52.11l35.57,0l0,18l-35.57,0l0,-18"/></clipPath>
</defs>
</svg>
