<?xml version="1.0" standalone="no"?>
<!DOCTYPE svg PUBLIC "-//W3C//DTD SVG 1.1//EN"
  "http://www.w3.org/Graphics/SVG/1.1/DTD/svg11.dtd">
<svg width="531.49px" height="531.49px" version="1.1"
    xmlns="http://www.w3.org/2000/svg"
    xmlns:xlink="http://www.w3.org/1999/xlink">
<desc>Veusz output document</desc>
<defs>
<clipPath id="c0">
<path d="m0,0l531.49,0l0,531.49l-531.49,0l0,-531.49"/>
</clipPath>
<clipPath id="c1">
<path d="m60.23,60.23l411.02,0l0,411.02l-411.02,0l0,-411.02"/>
</clipPath>
<clipPath id="c2">
<path d="m60.23,265.74l411.02,0l0,205.51l-411.02,0l0,-205.51"/>
</clipPath>
<clipPath id="c3">
<path d="m60.23,60.23l205.51,0l0,411.02l-205.51,0l0,-411.02"/>
</clipPath>
</defs>
<g stroke-linejoin="bevel" stroke-linecap="square" stroke="#000000" fill-rule="evenodd">
<g clip-path="url(#c0)">
<g fill="#ffffff" stroke-width="0.62">
<path d="m60.23,60.23l411.02,0l0,411.02l-411.02,0l0,-411.02"/>
</g>
</g>
<g clip-path="url(#c1)">
<g fill="#ffffff" stroke-linejoin="miter" stroke-width="0.62">
<g transform="translate(299.15,307.83)">
<path d="m0,10.6l10.6,-10.6l-10.6,-10.6l-10.6,10.6l10.6,10.6" id="p0"/>
</g>
<use xlink:href="#p0" x="105" y="244.62"/>
<use xlink:href="#p0" x="309.87" y="196.19"/>
<use xlink:href="#p0" x="166.99" y="325.59"/>
<use xlink:href="#p0" x="193.21" y="234.89"/>
<use xlink:href="#p0" x="293.45" y="377.86"/>
<use xlink:href="#p0" x="264.2" y="297.65"/>
<use xlink:href="#p0" x="355.22" y="219.85"/>
<use xlink:href="#p0" x="125.37" y="227.25"/>
<use xlink:href="#p0" x="244.09" y="281.4"/>
<use xlink:href="#p0" x="231.73" y="355.39"/>
<use xlink:href="#p0" x="175.53" y="397.8"/>
<use xlink:href="#p0" x="217.89" y="297.51"/>
<use xlink:href="#p0" x="274.71" y="295.27"/>
<use xlink:href="#p0" x="354.08" y="304.14"/>
<use xlink:href="#p0" x="282.38" y="369.61"/>
<use xlink:href="#p0" x="187.97" y="336.69"/>
<use xlink:href="#p0" x="83.99" y="244.94"/>
<use xlink:href="#p0" x="207.61" y="199.31"/>
<use xlink:href="#p0" x="260.62" y="165.38"/>
<use xlink:href="#p0" x="304.71" y="172.33"/>
<use xlink:href="#p0" x="359.67" y="317.4"/>
<use xlink:href="#p0" x="174.01" y="345.21"/>
<use xlink:href="#p0" x="256.54" y="264.72"/>
<use xlink:href="#p0" x="415.46" y="224.42"/>
<use xlink:href="#p0" x="388.54" y="306.32"/>
<use xlink:href="#p0" x="237.61" y="286.46"/>
<use xlink:href="#p0" x="374.7" y="316.39"/>
<use xlink:href="#p0" x="251.2" y="257.76"/>
<use xlink:href="#p0" x="157.69" y="362.97"/>
<use xlink:href="#p0" x="262.66" y="199.11"/>
<use xlink:href="#p0" x="267.26" y="424.51"/>
<use xlink:href="#p0" x="345.62" y="255.76"/>
<use xlink:href="#p0" x="426.54" y="338.7"/>
<use xlink:href="#p0" x="401.33" y="298.33"/>
<use xlink:href="#p0" x="205.41" y="314.52"/>
<use xlink:href="#p0" x="298.6" y="293.99"/>
<use xlink:href="#p0" x="270.9" y="152.15"/>
<use xlink:href="#p0" x="268.94" y="373.9"/>
<use xlink:href="#p0" x="341.78" y="115.33"/>
<use xlink:href="#p0" x="261.86" y="212.42"/>
<use xlink:href="#p0" x="312.95" y="235.45"/>
<use xlink:href="#p0" x="279.73" y="160.22"/>
<use xlink:href="#p0" x="221.51" y="216.99"/>
<use xlink:href="#p0" x="227.52" y="311.23"/>
<use xlink:href="#p0" x="238.43" y="213.24"/>
<use xlink:href="#p0" x="137.01" y="145.1"/>
<use xlink:href="#p0" x="232.92" y="196.87"/>
<use xlink:href="#p0" x="318.76" y="252.38"/>
</g>
</g>
<g clip-path="url(#c2)">
<g fill="none" stroke="#ff00ff" stroke-width="2.5">
<polyline fill="none" points="60.23,467.23 97.6,467.23 97.6,459.17 134.96,459.17 134.96,447.08 172.33,447.08 172.33,422.9 209.69,422.9 209.69,390.66 247.06,390.66 247.06,342.31 284.43,342.31 284.43,314.1 321.79,314.1 321.79,297.98 359.16,297.98 359.16,285.89 396.52,285.89 396.52,273.8 433.89,273.8 471.25,273.8"/>
</g>
<g fill="none" stroke="none" stroke-linecap="butt" stroke-width="1">
<path d="M60.23,467.23l37.36,0M97.6,459.17l37.36,0M134.96,447.08l37.36,0M172.33,422.9l37.36,0M209.69,390.66l37.36,0M247.06,342.31l37.36,0M284.43,314.1l37.36,0M321.79,297.98l37.36,0M359.16,285.89l37.36,0M396.52,273.8l37.36,0M433.89,273.8l37.36,0"/>
</g>
</g>
<g clip-path="url(#c0)">
<g fill="none" stroke-linecap="butt" stroke-width="0.62">
<path d="M471.25,471.25l0,-205.51"/>
<path d="M471.25,471.25l-3.75,0M471.25,461.18l-3.75,0M471.25,451.11l-3.75,0M471.25,441.03l-3.75,0M471.25,430.96l-3.75,0M471.25,420.88l-3.75,0M471.25,410.81l-3.75,0M471.25,400.74l-3.75,0M471.25,390.66l-3.75,0M471.25,380.59l-3.75,0M471.25,370.51l-3.75,0M471.25,360.44l-3.75,0M471.25,350.37l-3.75,0M471.25,340.29l-3.75,0M471.25,330.22l-3.75,0M471.25,320.14l-3.75,0M471.25,310.07l-3.75,0M471.25,300l-3.75,0M471.25,289.92l-3.75,0M471.25,279.85l-3.75,0M471.25,269.77l-3.75,0"/>
<path d="M471.25,471.25l-7.5,0M471.25,430.96l-7.5,0M471.25,390.66l-7.5,0M471.25,350.37l-7.5,0M471.25,310.07l-7.5,0M471.25,269.77l-7.5,0"/>
</g>
<g fill="none" stroke-width="1">
<g transform="matrix(0 1 -1 0 515.15 315.35)">
<g stroke="none" fill="#000000" fill-opacity="1" font-family="Bitstream Vera Sans" font-size="17.5">
<text x="0" y="0" textLength="106.3">X histogram</text>
</g>
</g>
<g stroke="none" fill="#000000" fill-opacity="1" font-family="Bitstream Vera Sans" font-size="17.5">
<text x="475.25" y="477.9" textLength="11.1">0</text>
<text x="475.25" y="437.61" textLength="27.8">0.2</text>
<text x="475.25" y="397.31" textLength="27.8">0.4</text>
<text x="475.25" y="357.02" textLength="27.8">0.6</text>
<text x="475.25" y="316.72" textLength="27.8">0.8</text>
<text x="475.25" y="276.42" textLength="11.1">1</text>
</g>
</g>
</g>
<g clip-path="url(#c2)">
<g fill="none" stroke="#0000ff" stroke-width="2.5">
<polyline fill="none" points="60.23,462.21 97.6,462.21 97.6,453.16 134.96,453.16 134.96,444.12 172.33,444.12 172.33,416.98 209.69,416.98 209.69,398.89 247.06,398.89 247.06,362.7 284.43,362.7 284.43,407.93 321.79,407.93 321.79,435.07 359.16,435.07 359.16,444.12 396.52,444.12 433.89,444.12 433.89,471.25 471.25,471.25"/>
</g>
<g fill="none" stroke="none" stroke-linecap="butt" stroke-width="1">
<path d="M60.23,462.21l37.36,0M97.6,453.16l37.36,0M134.96,444.12l37.36,0M172.33,416.98l37.36,0M209.69,398.89l37.36,0M247.06,362.7l37.36,0M284.43,407.93l37.36,0M321.79,435.07l37.36,0M359.16,444.12l37.36,0M396.52,444.12l37.36,0M433.89,471.25l37.36,0"/>
</g>
</g>
<g clip-path="url(#c3)">
<g fill="none" stroke="#00ff00" stroke-width="2.5">
<polyline fill="none" points="60.23,471.25 60.23,433.89 68.29,433.89 68.29,396.52 84.41,396.52 84.41,359.16 104.56,359.16 104.56,321.79 156.94,321.79 156.94,284.43 181.12,284.43 181.12,247.06 221.42,247.06 221.42,209.69 241.57,209.69 241.57,172.33 257.68,172.33 257.68,134.96 261.71,134.96 261.71,97.6 261.71,60.23"/>
</g>
<g fill="none" stroke="none" stroke-linecap="butt" stroke-width="1">
<path d="M60.23,471.25l0,-37.36M68.29,433.89l0,-37.36M84.41,396.52l0,-37.36M104.56,359.16l0,-37.36M156.94,321.79l0,-37.36M181.12,284.43l0,-37.36M221.42,247.06l0,-37.36M241.57,209.69l0,-37.36M257.68,172.33l0,-37.36M261.71,134.96l0,-37.36M261.71,97.6l0,-37.36"/>
</g>
</g>
<g clip-path="url(#c0)">
<g fill="none" stroke-linecap="butt" stroke-width="0.62">
<path d="M60.23,60.23l205.51,0"/>
<path d="M60.23,60.23l0,3.75M70.31,60.23l0,3.75M80.38,60.23l0,3.75M90.45,60.23l0,3.75M100.53,60.23l0,3.75M110.6,60.23l0,3.75M120.68,60.23l0,3.75M130.75,60.23l0,3.75M140.82,60.23l0,3.75M150.9,60.23l0,3.75M160.97,60.23l0,3.75M171.05,60.23l0,3.75M181.12,60.23l0,3.75M191.19,60.23l0,3.75M201.27,60.23l0,3.75M211.34,60.23l0,3.75M221.42,60.23l0,3.75M231.49,60.23l0,3.75M241.57,60.23l0,3.75M251.64,60.23l0,3.75M261.71,60.23l0,3.75"/>
<path d="M60.23,60.23l0,7.5M100.53,60.23l0,7.5M140.82,60.23l0,7.5M181.12,60.23l0,7.5M221.42,60.23l0,7.5M261.71,60.23l0,7.5"/>
</g>
<g fill="none" stroke-width="1">
<g stroke="none" fill="#000000" fill-opacity="1" font-family="Bitstream Vera Sans" font-size="17.5">
<text x="110.49" y="27.83" textLength="105">Y histogram</text>
<text x="54.68" y="56.23" textLength="11.1">0</text>
<text x="86.63" y="56.23" textLength="27.8">0.2</text>
<text x="126.92" y="56.23" textLength="27.8">0.4</text>
<text x="167.22" y="56.23" textLength="27.8">0.6</text>
<text x="207.52" y="56.23" textLength="27.8">0.8</text>
<text x="256.16" y="56.23" textLength="11.1">1</text>
</g>
</g>
</g>
<g clip-path="url(#c3)">
<g fill="none" stroke="#ff0000" stroke-width="2.5">
<polyline fill="none" points="60.23,471.25 60.23,433.89 77.96,433.89 77.96,396.52 95.69,396.52 95.69,359.16 104.56,359.16 104.56,321.79 175.48,321.79 175.48,284.43 113.42,284.43 113.42,247.06 148.88,247.06 148.88,209.69 104.56,209.69 104.56,172.33 95.69,172.33 95.69,134.96 69.1,134.96 69.1,97.6 60.23,97.6 60.23,60.23"/>
</g>
<g fill="none" stroke="none" stroke-linecap="butt" stroke-width="1">
<path d="M60.23,471.25l0,-37.36M77.96,433.89l0,-37.36M95.69,396.52l0,-37.36M104.56,359.16l0,-37.36M175.48,321.79l0,-37.36M113.42,284.43l0,-37.36M148.88,247.06l0,-37.36M104.56,209.69l0,-37.36M95.69,172.33l0,-37.36M69.1,134.96l0,-37.36M60.23,97.6l0,-37.36"/>
</g>
</g>
<g clip-path="url(#c0)">
<g fill="none" stroke-linecap="butt" stroke-width="0.62">
<path d="M60.23,471.25l0,-411.02"/>
<path d="M60.23,463.03l3.75,0M60.23,446.59l3.75,0M60.23,430.15l3.75,0M60.23,413.71l3.75,0M60.23,397.27l3.75,0M60.23,380.83l3.75,0M60.23,364.39l3.75,0M60.23,347.95l3.75,0M60.23,331.51l3.75,0M60.23,315.07l3.75,0M60.23,298.62l3.75,0M60.23,282.18l3.75,0M60.23,265.74l3.75,0M60.23,249.3l3.75,0M60.23,232.86l3.75,0M60.23,216.42l3.75,0M60.23,199.98l3.75,0M60.23,183.54l3.75,0M60.23,167.1l3.75,0M60.23,150.66l3.75,0M60.23,134.22l3.75,0M60.23,117.77l3.75,0M60.23,101.33l3.75,0M60.23,84.89l3.75,0M60.23,68.45l3.75,0"/>
<path d="M60.23,430.15l7.5,0M60.23,347.95l7.5,0M60.23,265.74l7.5,0M60.23,183.54l7.5,0M60.23,101.33l7.5,0"/>
</g>
<g fill="none" stroke-width="1">
<g transform="matrix(0 -1 1 0 18.33 297.84)">
<g stroke="none" fill="#000000" fill-opacity="1" font-family="Bitstream Vera Sans" font-size="17.5">
<text x="0" y="0" textLength="64.2">Y value</text>
</g>
</g>
<g stroke="none" fill="#000000" fill-opacity="1" font-family="Bitstream Vera Sans" font-size="17.5">
<text x="30.43" y="436.8" textLength="25.8">−2</text>
<text x="30.43" y="354.6" textLength="25.8">−1</text>
<text x="45.13" y="272.39" textLength="11.1">0</text>
<text x="45.13" y="190.19" textLength="11.1">1</text>
<text x="45.13" y="107.98" textLength="11.1">2</text>
</g>
</g>
<g fill="none" stroke-linecap="butt" stroke-width="0.62">
<path d="M60.23,471.25l411.02,0"/>
<path d="M68.45,471.25l0,-3.75M84.89,471.25l0,-3.75M101.33,471.25l0,-3.75M117.77,471.25l0,-3.75M134.22,471.25l0,-3.75M150.66,471.25l0,-3.75M167.1,471.25l0,-3.75M183.54,471.25l0,-3.75M199.98,471.25l0,-3.75M216.42,471.25l0,-3.75M232.86,471.25l0,-3.75M249.3,471.25l0,-3.75M265.74,471.25l0,-3.75M282.18,471.25l0,-3.75M298.62,471.25l0,-3.75M315.07,471.25l0,-3.75M331.51,471.25l0,-3.75M347.95,471.25l0,-3.75M364.39,471.25l0,-3.75M380.83,471.25l0,-3.75M397.27,471.25l0,-3.75M413.71,471.25l0,-3.75M430.15,471.25l0,-3.75M446.59,471.25l0,-3.75M463.03,471.25l0,-3.75"/>
<path d="M101.33,471.25l0,-7.5M183.54,471.25l0,-7.5M265.74,471.25l0,-7.5M347.95,471.25l0,-7.5M430.15,471.25l0,-7.5"/>
</g>
<g fill="none" stroke-width="1">
<g stroke="none" fill="#000000" fill-opacity="1" font-family="Bitstream Vera Sans" font-size="17.5">
<text x="232.99" y="515.85" textLength="65.5">X value</text>
<text x="88.43" y="491.55" textLength="25.8">−2</text>
<text x="170.64" y="491.55" textLength="25.8">−1</text>
<text x="260.19" y="491.55" textLength="11.1">0</text>
<text x="342.4" y="491.55" textLength="11.1">1</text>
<text x="424.6" y="491.55" textLength="11.1">2</text>
</g>
</g>
</g>
</g>
</svg>
