<?xml version="1.0" standalone="no"?>
<!DOCTYPE svg PUBLIC "-//W3C//DTD SVG 1.1//EN" 
  "http://www.w3.org/Graphics/SVG/1.1/DTD/svg11.dtd">
<svg width="341.43px" height="293.42px" version="1.1"
     xmlns="http://www.w3.org/2000/svg"
     xmlns:xlink="http://www.w3.org/1999/xlink">
<desc>Veusz output document</desc>
<g stroke-linejoin="bevel" stroke-linecap="square" stroke="#000000" fill-rule="evenodd">
<g clip-path="url(#c0)">
<g stroke="none" stroke-width="1" fill="#ffffff">
<path d="m62.24,5.8l275.07,0l0,282.75l-275.07,0l0,-282.75"/>
</g>
</g>
<g clip-path="url(#c1)">
<g stroke="#ff0000" stroke-width="1.25" stroke-dasharray="2.5,5.0" fill="none">
<polyline fill="none" points="108.77,273.79 112.76,273.57 118.38,273.23 123.99,272.84 129.6,272.4 135.22,271.9 140.83,271.35 146.44,270.71 152.06,270 157.67,269.2 163.29,268.29 168.9,267.26 174.51,266.1 180.13,264.8 185.74,263.32 191.35,261.65 196.97,259.77 202.58,257.64 208.19,255.24 213.81,252.53 219.42,249.47 225.04,246.01 230.65,242.1 236.26,237.7 241.88,232.72 247.49,227.1 253.1,220.75 258.72,213.58 264.33,205.49 269.94,196.35 275.56,186.03 281.17,174.38 286.78,161.23 292.4,146.37 298.01,129.59 303.63,110.65 309.24,89.26 314.85,65.11 320.47,37.84 322.95,24.23"/>
</g>
</g>
<g clip-path="url(#c0)">
<g stroke-width="0.62" stroke-linecap="butt" fill="none">
<path d="M86.76,276.23l0,-250.75"/>
<path d="M86.76,276.23l3.75,0M86.76,263.69l3.75,0M86.76,251.15l3.75,0M86.76,238.62l3.75,0M86.76,226.08l3.75,0M86.76,213.54l3.75,0M86.76,201l3.75,0M86.76,188.47l3.75,0M86.76,175.93l3.75,0M86.76,163.39l3.75,0M86.76,150.85l3.75,0M86.76,138.32l3.75,0M86.76,125.78l3.75,0M86.76,113.24l3.75,0M86.76,100.7l3.75,0M86.76,88.16l3.75,0M86.76,75.63l3.75,0M86.76,63.09l3.75,0M86.76,50.55l3.75,0M86.76,38.01l3.75,0M86.76,25.48l3.75,0"/>
<path d="M86.76,276.23l7.5,0M86.76,226.08l7.5,0M86.76,175.93l7.5,0M86.76,125.78l7.5,0M86.76,75.63l7.5,0M86.76,25.48l7.5,0"/>
</g>
<g stroke-width="1" fill="none">
<path d="m16.55,141.11c0.19,0.33,0.32,0.64,0.4,0.93c0.08,0.29,0.15,0.85,0.23,1.7l0.37,4.2c0.34,-0.41,0.84,-1.06,1.48,-1.95c0.31,-0.43,0.7,-1.02,1.16,-1.77c0.28,-0.46,0.45,-0.78,0.52,-0.95c0.03,-0.09,0.05,-0.19,0.05,-0.28c0,-0.06,-0.02,-0.11,-0.05,-0.16c-0.04,-0.04,-0.14,-0.09,-0.3,-0.14c-0.17,-0.05,-0.31,-0.15,-0.42,-0.3c-0.11,-0.15,-0.17,-0.31,-0.17,-0.5c0,-0.24,0.07,-0.43,0.2,-0.57c0.14,-0.14,0.31,-0.21,0.52,-0.21c0.25,0,0.46,0.1,0.64,0.31c0.18,0.21,0.27,0.49,0.27,0.86c0,0.45,-0.15,0.96,-0.46,1.54c-0.31,0.58,-0.9,1.47,-1.77,2.66c-0.87,1.2,-1.94,2.51,-3.19,3.92c-0.86,0.97,-1.51,1.58,-1.92,1.84c-0.42,0.26,-0.77,0.38,-1.06,0.38c-0.18,0,-0.33,-0.07,-0.47,-0.2c-0.14,-0.14,-0.2,-0.29,-0.2,-0.47c0,-0.22,0.09,-0.42,0.28,-0.6c0.19,-0.18,0.39,-0.27,0.61,-0.27c0.11,0,0.21,0.03,0.28,0.08c0.04,0.02,0.09,0.1,0.14,0.23c0.05,0.14,0.1,0.22,0.16,0.27c0.03,0.03,0.06,0.05,0.09,0.05c0.04,0,0.1,-0.03,0.19,-0.08c0.31,-0.2,0.68,-0.51,1.09,-0.92c0.54,-0.56,0.95,-1.02,1.22,-1.37l-0.48,-5.42c-0.08,-0.89,-0.2,-1.43,-0.36,-1.62c-0.16,-0.2,-0.42,-0.3,-0.8,-0.3c-0.12,0,-0.34,0.02,-0.64,0.06l-0.08,-0.33l2.5,-0.61" fill="#000000" stroke="none" fill-opacity="1"/>
<path d="m22.45,144.27l4.42,0l0,1.3l-4.42,0l0,-1.3m10.28,3.45c-0.8,0.61,-1.31,0.97,-1.52,1.08c-0.3,0.14,-0.63,0.2,-0.98,0.2c-0.54,0,-0.99,-0.18,-1.34,-0.55c-0.35,-0.37,-0.52,-0.86,-0.52,-1.46c0,-0.37,0.08,-0.7,0.25,-0.98c0.24,-0.39,0.65,-0.75,1.23,-1.09c0.58,-0.34,1.54,-0.76,2.88,-1.25l0,-0.31c0,-0.78,-0.12,-1.32,-0.37,-1.6c-0.25,-0.29,-0.61,-0.43,-1.08,-0.43c-0.36,0,-0.65,0.09,-0.86,0.28c-0.22,0.2,-0.33,0.42,-0.33,0.67l0.02,0.5c0,0.26,-0.07,0.46,-0.2,0.6c-0.13,0.14,-0.3,0.21,-0.52,0.21c-0.21,0,-0.38,-0.07,-0.52,-0.22c-0.14,-0.15,-0.2,-0.35,-0.2,-0.61c0,-0.49,0.25,-0.94,0.75,-1.35c0.5,-0.41,1.2,-0.62,2.11,-0.62c0.7,0,1.27,0.12,1.72,0.36c0.33,0.18,0.58,0.45,0.73,0.83c0.1,0.24,0.16,0.74,0.16,1.5l0,2.66c0,0.75,0.02,1.21,0.05,1.37c0.03,0.17,0.08,0.28,0.14,0.34c0.06,0.06,0.14,0.09,0.22,0.09c0.09,0,0.18,-0.02,0.25,-0.06c0.11,-0.07,0.34,-0.28,0.69,-0.62l0,0.48c-0.64,0.85,-1.24,1.28,-1.83,1.28c-0.28,0,-0.51,-0.1,-0.67,-0.29c-0.17,-0.19,-0.25,-0.52,-0.25,-0.99m0,-0.56l0,-2.98c-0.86,0.34,-1.42,0.59,-1.67,0.73c-0.45,0.25,-0.77,0.51,-0.96,0.78c-0.19,0.27,-0.29,0.57,-0.29,0.91c0,0.41,0.12,0.74,0.37,1.02c0.24,0.27,0.52,0.41,0.84,0.41c0.44,0,1.01,-0.29,1.72,-0.86m3.25,-6.14l3.67,0l0,0.31c-0.23,0,-0.39,0.04,-0.48,0.12c-0.09,0.08,-0.14,0.19,-0.14,0.31c0,0.14,0.1,0.35,0.3,0.64c0.06,0.08,0.16,0.22,0.28,0.42l0.56,0.89l0.64,-0.89c0.41,-0.56,0.61,-0.92,0.61,-1.06c0,-0.12,-0.05,-0.23,-0.14,-0.31c-0.09,-0.08,-0.25,-0.12,-0.47,-0.12l0,-0.31l2.64,0l0,0.31c-0.28,0.02,-0.52,0.1,-0.72,0.23c-0.28,0.2,-0.66,0.62,-1.14,1.27l-1.08,1.42l1.95,2.81c0.48,0.69,0.82,1.1,1.02,1.24c0.2,0.14,0.47,0.22,0.79,0.23l0,0.31l-3.69,0l0,-0.31c0.26,0,0.46,-0.06,0.59,-0.17c0.11,-0.07,0.17,-0.18,0.17,-0.31c0,-0.12,-0.18,-0.45,-0.55,-0.98l-1.16,-1.67l-1.25,1.67c-0.39,0.51,-0.58,0.82,-0.58,0.92c0,0.14,0.07,0.26,0.2,0.37c0.13,0.11,0.32,0.17,0.57,0.18l0,0.31l-2.55,0l0,-0.31c0.2,-0.02,0.37,-0.09,0.53,-0.2c0.22,-0.17,0.58,-0.59,1.09,-1.27l1.64,-2.19l-1.48,-2.16c-0.43,-0.61,-0.76,-1,-0.98,-1.16c-0.23,-0.16,-0.52,-0.23,-0.86,-0.23l0,-0.31m10.3,-4.33c0.24,0,0.45,0.09,0.62,0.26c0.17,0.17,0.26,0.38,0.26,0.62c0,0.24,-0.09,0.44,-0.26,0.61c-0.17,0.17,-0.38,0.25,-0.62,0.25c-0.24,0,-0.44,-0.08,-0.61,-0.25c-0.17,-0.17,-0.25,-0.37,-0.25,-0.61c0,-0.24,0.08,-0.45,0.25,-0.62c0.17,-0.17,0.37,-0.26,0.61,-0.26m0.72,4.09l0,6.3c0,0.49,0.03,0.82,0.1,0.98c0.07,0.16,0.17,0.28,0.31,0.36c0.14,0.08,0.4,0.12,0.77,0.12l0,0.31l-3.81,0l0,-0.31c0.39,0,0.64,-0.04,0.77,-0.11c0.13,-0.07,0.23,-0.2,0.31,-0.37c0.08,-0.17,0.12,-0.5,0.12,-0.98l0,-3.02c0,-0.85,-0.03,-1.41,-0.08,-1.66c-0.04,-0.18,-0.1,-0.3,-0.19,-0.37c-0.08,-0.07,-0.2,-0.11,-0.34,-0.11c-0.17,0,-0.36,0.04,-0.59,0.12l-0.11,-0.3l2.36,-0.97l0.37,0m6.36,0l0,2.67l-0.28,0c-0.22,-0.83,-0.5,-1.4,-0.84,-1.7c-0.34,-0.3,-0.77,-0.45,-1.29,-0.45c-0.41,0,-0.73,0.1,-0.98,0.31c-0.24,0.21,-0.37,0.44,-0.37,0.7c0,0.31,0.09,0.58,0.28,0.81c0.18,0.24,0.54,0.49,1.08,0.75l1.23,0.61c1.16,0.56,1.73,1.3,1.73,2.22c0,0.72,-0.27,1.29,-0.8,1.73c-0.54,0.43,-1.14,0.65,-1.8,0.65c-0.48,0,-1.03,-0.08,-1.64,-0.25c-0.19,-0.06,-0.34,-0.09,-0.45,-0.09c-0.14,0,-0.24,0.08,-0.31,0.23l-0.28,0l0,-2.8l0.28,0c0.16,0.79,0.46,1.39,0.91,1.8c0.45,0.41,0.96,0.61,1.51,0.61c0.4,0,0.72,-0.11,0.97,-0.34c0.25,-0.23,0.37,-0.51,0.37,-0.83c0,-0.4,-0.14,-0.73,-0.41,-1c-0.28,-0.27,-0.83,-0.61,-1.66,-1.02c-0.83,-0.41,-1.37,-0.78,-1.63,-1.11c-0.25,-0.32,-0.37,-0.73,-0.37,-1.23c0,-0.65,0.22,-1.18,0.66,-1.62c0.44,-0.43,1.01,-0.65,1.72,-0.65c0.3,0,0.67,0.07,1.11,0.2c0.29,0.08,0.49,0.12,0.59,0.12c0.08,0,0.15,-0.02,0.2,-0.06c0.05,-0.04,0.11,-0.13,0.19,-0.27l0.28,0" fill="#000000" stroke="none" fill-opacity="1"/>
<path d="m16.19,172.27l0,0.33c-0.86,-0.44,-1.58,-0.95,-2.16,-1.53c-0.82,-0.82,-1.46,-1.8,-1.9,-2.92c-0.44,-1.12,-0.66,-2.29,-0.66,-3.5c0,-1.76,0.43,-3.37,1.3,-4.83c0.87,-1.46,2.01,-2.5,3.41,-3.12l0,0.36c-0.7,0.39,-1.27,0.92,-1.73,1.59c-0.45,0.68,-0.79,1.53,-1.02,2.56c-0.22,1.03,-0.34,2.1,-0.34,3.22c0,1.22,0.1,2.33,0.3,3.33c0.15,0.78,0.32,1.41,0.53,1.89c0.21,0.48,0.49,0.94,0.85,1.37c0.36,0.44,0.83,0.85,1.4,1.25m7.75,-6.39c-0.21,1.03,-0.62,1.82,-1.23,2.37c-0.61,0.55,-1.3,0.83,-2.05,0.83c-0.89,0,-1.66,-0.37,-2.32,-1.12c-0.66,-0.74,-0.99,-1.75,-0.99,-3.02c0,-1.23,0.37,-2.23,1.1,-3c0.73,-0.77,1.61,-1.16,2.63,-1.16c0.77,0,1.4,0.2,1.9,0.61c0.49,0.41,0.74,0.83,0.74,1.28c0,0.21,-0.07,0.38,-0.21,0.52c-0.14,0.14,-0.34,0.2,-0.59,0.2c-0.33,0,-0.58,-0.11,-0.75,-0.33c-0.1,-0.11,-0.17,-0.34,-0.2,-0.68c-0.03,-0.34,-0.15,-0.6,-0.34,-0.77c-0.2,-0.17,-0.47,-0.25,-0.83,-0.25c-0.56,0,-1.02,0.21,-1.37,0.62c-0.46,0.56,-0.69,1.3,-0.69,2.22c0,0.94,0.23,1.76,0.69,2.48c0.46,0.71,1.08,1.07,1.86,1.07c0.55,0,1.05,-0.19,1.5,-0.58c0.31,-0.26,0.62,-0.73,0.92,-1.42l0.23,0.12m3.69,-3.42c0.56,-0.57,0.9,-0.9,1,-0.98c0.26,-0.22,0.54,-0.39,0.84,-0.51c0.3,-0.12,0.59,-0.18,0.88,-0.18c0.49,0,0.91,0.14,1.27,0.43c0.35,0.29,0.59,0.7,0.7,1.24c0.58,-0.69,1.08,-1.14,1.48,-1.35c0.41,-0.21,0.82,-0.32,1.25,-0.32c0.42,0,0.79,0.11,1.11,0.32c0.32,0.21,0.58,0.57,0.77,1.05c0.12,0.33,0.19,0.85,0.19,1.55l0,3.37c0,0.49,0.04,0.82,0.11,1c0.05,0.12,0.16,0.23,0.31,0.32c0.16,0.09,0.41,0.13,0.75,0.13l0,0.31l-3.86,0l0,-0.31l0.16,0c0.34,0,0.61,-0.06,0.8,-0.19c0.12,-0.09,0.22,-0.24,0.28,-0.44c0.02,-0.09,0.03,-0.37,0.03,-0.83l0,-3.37c0,-0.64,-0.08,-1.08,-0.23,-1.34c-0.22,-0.36,-0.57,-0.55,-1.06,-0.55c-0.3,0,-0.61,0.08,-0.91,0.23c-0.31,0.15,-0.67,0.43,-1.1,0.84l-0.02,0.09l0.02,0.37l0,3.73c0,0.53,0.03,0.86,0.09,0.99c0.06,0.13,0.17,0.24,0.34,0.33c0.17,0.09,0.45,0.13,0.84,0.13l0,0.31l-3.95,0l0,-0.31c0.44,0,0.74,-0.05,0.9,-0.15c0.16,-0.1,0.27,-0.25,0.34,-0.46c0.03,-0.09,0.05,-0.37,0.05,-0.84l0,-3.37c0,-0.64,-0.09,-1.09,-0.28,-1.37c-0.26,-0.36,-0.61,-0.55,-1.06,-0.55c-0.3,0,-0.6,0.08,-0.91,0.25c-0.48,0.25,-0.84,0.53,-1.09,0.84l0,4.2c0,0.51,0.03,0.84,0.1,1c0.07,0.16,0.17,0.27,0.31,0.34c0.14,0.07,0.42,0.11,0.85,0.11l0,0.31l-3.86,0l0,-0.31c0.35,0,0.6,-0.04,0.74,-0.11c0.14,-0.07,0.25,-0.2,0.33,-0.37c0.08,-0.17,0.12,-0.5,0.12,-0.98l0,-3c0,-0.85,-0.03,-1.41,-0.08,-1.66c-0.04,-0.19,-0.11,-0.32,-0.2,-0.39c-0.09,-0.07,-0.21,-0.11,-0.35,-0.11c-0.16,0,-0.34,0.04,-0.56,0.12l-0.14,-0.3l2.36,-0.97l0.37,0l0,1.67" fill="#000000" stroke="none" fill-opacity="1"/>
<path d="m39.17,158.09l2.66,0l0,0.78l-2.66,0l0,-0.78m4.11,-2.87c0.2,-0.47,0.45,-0.83,0.75,-1.09c0.3,-0.26,0.68,-0.38,1.14,-0.38c0.55,0,0.98,0.18,1.28,0.55c0.22,0.27,0.33,0.56,0.33,0.86c0,0.51,-0.32,1.04,-0.95,1.58c0.43,0.17,0.75,0.4,0.97,0.71c0.22,0.31,0.33,0.67,0.33,1.1c0,0.59,-0.19,1.11,-0.58,1.56c-0.49,0.57,-1.21,0.86,-2.16,0.86c-0.47,0,-0.79,-0.06,-0.96,-0.17c-0.17,-0.11,-0.26,-0.24,-0.26,-0.37c0,-0.1,0.04,-0.19,0.12,-0.27c0.08,-0.07,0.18,-0.11,0.28,-0.11c0.09,0,0.18,0.01,0.27,0.03c0.06,0.02,0.2,0.09,0.4,0.2c0.2,0.11,0.35,0.17,0.43,0.2c0.12,0.03,0.26,0.05,0.41,0.05c0.34,0,0.65,-0.14,0.91,-0.41c0.26,-0.27,0.39,-0.59,0.39,-0.95c0,-0.27,-0.06,-0.53,-0.19,-0.78c-0.08,-0.2,-0.18,-0.34,-0.3,-0.44c-0.15,-0.15,-0.35,-0.27,-0.6,-0.38c-0.26,-0.11,-0.51,-0.16,-0.77,-0.16l-0.17,0l0,-0.16c0.27,-0.03,0.54,-0.13,0.81,-0.29c0.27,-0.16,0.47,-0.35,0.59,-0.58c0.12,-0.22,0.19,-0.47,0.19,-0.74c0,-0.35,-0.11,-0.64,-0.34,-0.86c-0.22,-0.22,-0.5,-0.33,-0.82,-0.33c-0.53,0,-0.97,0.29,-1.33,0.86l-0.17,-0.08" fill="#000000" stroke="none" fill-opacity="1"/>
<path d="m49.14,157.05l0,-0.36c0.86,0.43,1.59,0.93,2.17,1.52c0.81,0.83,1.44,1.81,1.88,2.93c0.44,1.12,0.66,2.28,0.66,3.49c0,1.77,-0.43,3.38,-1.3,4.84c-0.87,1.45,-2.01,2.5,-3.41,3.13l0,-0.33c0.7,-0.39,1.27,-0.91,1.73,-1.59c0.45,-0.67,0.79,-1.52,1.01,-2.55c0.22,-1.03,0.33,-2.11,0.33,-3.23c0,-1.22,-0.09,-2.33,-0.28,-3.33c-0.14,-0.78,-0.31,-1.41,-0.52,-1.88c-0.21,-0.47,-0.5,-0.93,-0.85,-1.37c-0.35,-0.44,-0.82,-0.86,-1.41,-1.27" fill="#000000" stroke="none" fill-opacity="1"/>
<path d="m75.37,276.5c0,-1.32,0.2,-2.46,0.6,-3.41c0.4,-0.95,0.93,-1.66,1.59,-2.13c0.52,-0.37,1.05,-0.56,1.59,-0.56c0.9,0,1.69,0.45,2.39,1.36c0.89,1.12,1.33,2.65,1.33,4.56c0,1.34,-0.19,2.49,-0.58,3.43c-0.39,0.94,-0.88,1.62,-1.48,2.05c-0.6,0.42,-1.18,0.63,-1.73,0.63c-1.1,0,-2.03,-0.65,-2.77,-1.95c-0.62,-1.1,-0.94,-2.43,-0.94,-3.97m1.69,0.2c0,1.59,0.19,2.9,0.58,3.91c0.33,0.85,0.82,1.28,1.45,1.28c0.31,0,0.63,-0.14,0.96,-0.41c0.33,-0.28,0.58,-0.74,0.76,-1.4c0.26,-0.98,0.39,-2.36,0.39,-4.14c0,-1.32,-0.14,-2.43,-0.41,-3.31c-0.21,-0.65,-0.47,-1.11,-0.8,-1.39c-0.24,-0.19,-0.52,-0.28,-0.84,-0.28c-0.4,0,-0.74,0.18,-1.05,0.53c-0.41,0.47,-0.68,1.21,-0.83,2.23c-0.15,1.02,-0.22,2.01,-0.22,2.99" fill="#000000" stroke="none" fill-opacity="1"/>
<path d="m61.37,226.36c0,-1.32,0.2,-2.46,0.6,-3.41c0.4,-0.95,0.93,-1.66,1.59,-2.13c0.52,-0.37,1.05,-0.56,1.59,-0.56c0.9,0,1.69,0.45,2.39,1.36c0.89,1.12,1.33,2.65,1.33,4.56c0,1.34,-0.19,2.49,-0.58,3.43c-0.39,0.94,-0.88,1.62,-1.48,2.05c-0.6,0.42,-1.18,0.63,-1.73,0.63c-1.1,0,-2.03,-0.65,-2.77,-1.95c-0.62,-1.1,-0.94,-2.43,-0.94,-3.97m1.69,0.2c0,1.59,0.19,2.9,0.58,3.91c0.33,0.85,0.82,1.28,1.45,1.28c0.31,0,0.63,-0.14,0.96,-0.41c0.33,-0.28,0.58,-0.74,0.76,-1.4c0.26,-0.98,0.39,-2.36,0.39,-4.14c0,-1.32,-0.14,-2.43,-0.41,-3.31c-0.21,-0.65,-0.47,-1.11,-0.8,-1.39c-0.24,-0.19,-0.52,-0.28,-0.84,-0.28c-0.4,0,-0.74,0.18,-1.05,0.53c-0.41,0.47,-0.68,1.21,-0.83,2.23c-0.15,1.02,-0.22,2.01,-0.22,2.99m8.87,3.86c0.27,0,0.5,0.09,0.68,0.27c0.18,0.18,0.27,0.41,0.27,0.68c0,0.26,-0.09,0.48,-0.28,0.66c-0.19,0.18,-0.41,0.27,-0.67,0.27c-0.26,0,-0.48,-0.09,-0.67,-0.27c-0.19,-0.18,-0.28,-0.4,-0.28,-0.66c0,-0.27,0.09,-0.5,0.28,-0.68c0.19,-0.18,0.41,-0.27,0.67,-0.27m10.84,-0.58l-0.81,2.23l-6.84,0l0,-0.31c2.01,-1.83,3.43,-3.33,4.25,-4.49c0.82,-1.16,1.23,-2.23,1.23,-3.2c0,-0.73,-0.23,-1.33,-0.68,-1.8c-0.45,-0.47,-0.99,-0.71,-1.62,-0.71c-0.57,0,-1.09,0.17,-1.54,0.5c-0.45,0.33,-0.78,0.82,-0.99,1.47l-0.33,0c0.15,-1.06,0.51,-1.87,1.1,-2.44c0.59,-0.56,1.33,-0.84,2.21,-0.84c0.94,0,1.72,0.3,2.35,0.91c0.63,0.6,0.95,1.32,0.95,2.14c0,0.58,-0.14,1.17,-0.41,1.75c-0.43,0.93,-1.11,1.91,-2.05,2.94c-1.43,1.55,-2.31,2.48,-2.66,2.8l3.02,0c0.61,0,1.05,-0.02,1.3,-0.06c0.25,-0.04,0.47,-0.13,0.67,-0.27c0.2,-0.14,0.37,-0.34,0.52,-0.6l0.33,0" fill="#000000" stroke="none" fill-opacity="1"/>
<path d="m61.37,176.2c0,-1.32,0.2,-2.46,0.6,-3.41c0.4,-0.95,0.93,-1.66,1.59,-2.13c0.52,-0.37,1.05,-0.56,1.59,-0.56c0.9,0,1.69,0.45,2.39,1.36c0.89,1.12,1.33,2.65,1.33,4.56c0,1.34,-0.19,2.49,-0.58,3.43c-0.39,0.94,-0.88,1.62,-1.48,2.05c-0.6,0.42,-1.18,0.63,-1.73,0.63c-1.1,0,-2.03,-0.65,-2.77,-1.95c-0.62,-1.1,-0.94,-2.43,-0.94,-3.97m1.69,0.2c0,1.59,0.19,2.9,0.58,3.91c0.33,0.85,0.82,1.28,1.45,1.28c0.31,0,0.63,-0.14,0.96,-0.41c0.33,-0.28,0.58,-0.74,0.76,-1.4c0.26,-0.98,0.39,-2.36,0.39,-4.14c0,-1.32,-0.14,-2.43,-0.41,-3.31c-0.21,-0.65,-0.47,-1.11,-0.8,-1.39c-0.24,-0.19,-0.52,-0.28,-0.84,-0.28c-0.4,0,-0.74,0.18,-1.05,0.53c-0.41,0.47,-0.68,1.21,-0.83,2.23c-0.15,1.02,-0.22,2.01,-0.22,2.99m8.87,3.86c0.27,0,0.5,0.09,0.68,0.27c0.18,0.18,0.27,0.41,0.27,0.68c0,0.26,-0.09,0.48,-0.28,0.66c-0.19,0.18,-0.41,0.27,-0.67,0.27c-0.26,0,-0.48,-0.09,-0.67,-0.27c-0.19,-0.18,-0.28,-0.4,-0.28,-0.66c0,-0.27,0.09,-0.5,0.28,-0.68c0.19,-0.18,0.41,-0.27,0.67,-0.27m10.95,-2.61l0,1.2l-1.55,0l0,3.06l-1.42,0l0,-3.06l-4.89,0l0,-1.09l5.36,-7.67l0.95,0l0,7.56l1.55,0m-2.97,0l0,-5.75l-4.06,5.75l4.06,0" fill="#000000" stroke="none" fill-opacity="1"/>
<path d="m61.37,126.05c0,-1.32,0.2,-2.46,0.6,-3.41c0.4,-0.95,0.93,-1.66,1.59,-2.13c0.52,-0.37,1.05,-0.56,1.59,-0.56c0.9,0,1.69,0.45,2.39,1.36c0.89,1.12,1.33,2.65,1.33,4.56c0,1.34,-0.19,2.49,-0.58,3.43c-0.39,0.94,-0.88,1.62,-1.48,2.05c-0.6,0.42,-1.18,0.63,-1.73,0.63c-1.1,0,-2.03,-0.65,-2.77,-1.95c-0.62,-1.1,-0.94,-2.43,-0.94,-3.97m1.69,0.2c0,1.59,0.19,2.9,0.58,3.91c0.33,0.85,0.82,1.28,1.45,1.28c0.31,0,0.63,-0.14,0.96,-0.41c0.33,-0.28,0.58,-0.74,0.76,-1.4c0.26,-0.98,0.39,-2.36,0.39,-4.14c0,-1.32,-0.14,-2.43,-0.41,-3.31c-0.21,-0.65,-0.47,-1.11,-0.8,-1.39c-0.24,-0.19,-0.52,-0.28,-0.84,-0.28c-0.4,0,-0.74,0.18,-1.05,0.53c-0.41,0.47,-0.68,1.21,-0.83,2.23c-0.15,1.02,-0.22,2.01,-0.22,2.99m8.87,3.86c0.27,0,0.5,0.09,0.68,0.27c0.18,0.18,0.27,0.41,0.27,0.68c0,0.26,-0.09,0.48,-0.28,0.66c-0.19,0.18,-0.41,0.27,-0.67,0.27c-0.26,0,-0.48,-0.09,-0.67,-0.27c-0.19,-0.18,-0.28,-0.4,-0.28,-0.66c0,-0.27,0.09,-0.5,0.28,-0.68c0.19,-0.18,0.41,-0.27,0.67,-0.27m10.66,-10.17l0,0.31c-0.75,0.07,-1.36,0.22,-1.84,0.45c-0.47,0.23,-0.95,0.57,-1.41,1.03c-0.47,0.46,-0.85,0.97,-1.16,1.54c-0.3,0.57,-0.56,1.24,-0.77,2.02c0.82,-0.56,1.65,-0.84,2.47,-0.84c0.79,0,1.48,0.32,2.06,0.95c0.58,0.64,0.87,1.46,0.87,2.47c0,0.97,-0.3,1.85,-0.89,2.64c-0.7,0.97,-1.63,1.45,-2.8,1.45c-0.79,0,-1.46,-0.26,-2.02,-0.78c-1.08,-1.02,-1.62,-2.34,-1.62,-3.97c0,-1.03,0.21,-2.02,0.62,-2.95c0.42,-0.94,1.01,-1.77,1.78,-2.49c0.77,-0.72,1.51,-1.21,2.22,-1.46c0.71,-0.25,1.36,-0.37,1.97,-0.37l0.5,0m-5.31,5.98c-0.1,0.77,-0.16,1.39,-0.16,1.86c0,0.55,0.1,1.15,0.3,1.79c0.2,0.64,0.5,1.15,0.9,1.52c0.29,0.26,0.65,0.39,1.06,0.39c0.5,0,0.94,-0.23,1.33,-0.7c0.39,-0.46,0.58,-1.13,0.58,-1.99c0,-0.98,-0.19,-1.83,-0.58,-2.54c-0.39,-0.71,-0.93,-1.07,-1.64,-1.07c-0.22,0,-0.45,0.05,-0.7,0.14c-0.25,0.09,-0.61,0.29,-1.09,0.59" fill="#000000" stroke="none" fill-opacity="1"/>
<path d="m61.37,75.91c0,-1.32,0.2,-2.46,0.6,-3.41c0.4,-0.95,0.93,-1.66,1.59,-2.13c0.52,-0.37,1.05,-0.56,1.59,-0.56c0.9,0,1.69,0.45,2.39,1.36c0.89,1.12,1.33,2.65,1.33,4.56c0,1.34,-0.19,2.49,-0.58,3.43c-0.39,0.94,-0.88,1.62,-1.48,2.05c-0.6,0.42,-1.18,0.63,-1.73,0.63c-1.1,0,-2.03,-0.65,-2.77,-1.95c-0.62,-1.1,-0.94,-2.43,-0.94,-3.97m1.69,0.2c0,1.59,0.19,2.9,0.58,3.91c0.33,0.85,0.82,1.28,1.45,1.28c0.31,0,0.63,-0.14,0.96,-0.41c0.33,-0.28,0.58,-0.74,0.76,-1.4c0.26,-0.98,0.39,-2.36,0.39,-4.14c0,-1.32,-0.14,-2.43,-0.41,-3.31c-0.21,-0.65,-0.47,-1.11,-0.8,-1.39c-0.24,-0.19,-0.52,-0.28,-0.84,-0.28c-0.4,0,-0.74,0.18,-1.05,0.53c-0.41,0.47,-0.68,1.21,-0.83,2.23c-0.15,1.02,-0.22,2.01,-0.22,2.99m8.87,3.86c0.27,0,0.5,0.09,0.68,0.27c0.18,0.18,0.27,0.41,0.27,0.68c0,0.26,-0.09,0.48,-0.28,0.66c-0.19,0.18,-0.41,0.27,-0.67,0.27c-0.26,0,-0.48,-0.09,-0.67,-0.27c-0.19,-0.18,-0.28,-0.4,-0.28,-0.66c0,-0.27,0.09,-0.5,0.28,-0.68c0.19,-0.18,0.41,-0.27,0.67,-0.27m6.17,-4.19c-0.92,-0.75,-1.51,-1.35,-1.77,-1.8c-0.27,-0.45,-0.4,-0.92,-0.4,-1.41c0,-0.75,0.29,-1.4,0.87,-1.95c0.58,-0.55,1.35,-0.82,2.31,-0.82c0.94,0,1.69,0.25,2.26,0.76c0.57,0.51,0.85,1.09,0.85,1.74c0,0.43,-0.15,0.87,-0.46,1.32c-0.31,0.45,-0.95,0.98,-1.93,1.59c1.01,0.78,1.68,1.39,2,1.83c0.43,0.58,0.64,1.2,0.64,1.84c0,0.81,-0.31,1.51,-0.93,2.09c-0.62,0.58,-1.43,0.87,-2.45,0.87c-1.09,0,-1.95,-0.34,-2.56,-1.03c-0.49,-0.55,-0.73,-1.16,-0.73,-1.81c0,-0.51,0.17,-1.02,0.52,-1.52c0.34,-0.51,0.94,-1.07,1.78,-1.68m1.34,-0.91c0.68,-0.61,1.11,-1.1,1.29,-1.45c0.18,-0.35,0.27,-0.76,0.27,-1.22c0,-0.59,-0.17,-1.06,-0.5,-1.4c-0.33,-0.34,-0.79,-0.51,-1.37,-0.51c-0.58,0,-1.06,0.17,-1.42,0.5c-0.36,0.33,-0.55,0.73,-0.55,1.19c0,0.29,0.08,0.59,0.23,0.88c0.15,0.3,0.37,0.58,0.65,0.85l1.41,1.16m-0.94,1.23c-0.48,0.41,-0.83,0.84,-1.06,1.31c-0.23,0.47,-0.34,0.97,-0.34,1.52c0,0.74,0.2,1.33,0.61,1.77c0.41,0.44,0.92,0.66,1.53,0.66c0.61,0,1.11,-0.17,1.48,-0.52c0.37,-0.35,0.55,-0.77,0.55,-1.27c0,-0.41,-0.1,-0.77,-0.31,-1.09c-0.41,-0.6,-1.22,-1.4,-2.45,-2.37" fill="#000000" stroke="none" fill-opacity="1"/>
<path d="m76.8,21.02l2.83,-1.37l0.28,0l0,9.78c0,0.66,0.03,1.06,0.08,1.22c0.05,0.16,0.16,0.28,0.34,0.37c0.17,0.09,0.52,0.14,1.04,0.15l0,0.31l-4.36,0l0,-0.31c0.55,-0.01,0.91,-0.06,1.07,-0.14c0.16,-0.08,0.27,-0.2,0.34,-0.34c0.06,-0.14,0.09,-0.56,0.09,-1.26l0,-6.25c0,-0.84,-0.03,-1.39,-0.09,-1.62c-0.04,-0.18,-0.11,-0.31,-0.22,-0.4c-0.1,-0.09,-0.23,-0.13,-0.37,-0.13c-0.21,0,-0.51,0.09,-0.89,0.27l-0.12,-0.27" fill="#000000" stroke="none" fill-opacity="1"/>
</g>
<g stroke-width="0.62" stroke-linecap="butt" fill="none">
<path d="M110.02,153.84l212.78,0"/>
<path d="M142.05,153.84l0,-3.75M160.78,153.84l0,-3.75M174.07,153.84l0,-3.75M184.38,153.84l0,-3.75M192.81,153.84l0,-3.75M199.93,153.84l0,-3.75M206.1,153.84l0,-3.75M211.54,153.84l0,-3.75M248.44,153.84l0,-3.75M267.17,153.84l0,-3.75M280.46,153.84l0,-3.75M290.78,153.84l0,-3.75M299.2,153.84l0,-3.75M306.32,153.84l0,-3.75M312.49,153.84l0,-3.75M317.93,153.84l0,-3.75"/>
<path d="M110.02,153.84l0,-7.5M216.41,153.84l0,-7.5M322.8,153.84l0,-7.5"/>
</g>
<g stroke-width="1" fill="none">
<path d="m198.94,187.09c0.28,0.3,0.49,0.6,0.64,0.89c0.09,0.21,0.26,0.74,0.5,1.61l0.75,-1.12c0.2,-0.27,0.44,-0.53,0.73,-0.78c0.29,-0.25,0.54,-0.42,0.76,-0.5c0.14,-0.06,0.29,-0.09,0.45,-0.09c0.24,0,0.43,0.07,0.58,0.2c0.15,0.13,0.22,0.29,0.22,0.48c0,0.22,-0.04,0.37,-0.12,0.45c-0.17,0.14,-0.35,0.2,-0.55,0.2c-0.12,0,-0.26,-0.03,-0.39,-0.08c-0.27,-0.08,-0.45,-0.12,-0.53,-0.12c-0.14,0,-0.3,0.08,-0.48,0.23c-0.35,0.29,-0.78,0.86,-1.27,1.72l0.69,2.94c0.11,0.45,0.21,0.72,0.28,0.8c0.07,0.09,0.15,0.13,0.22,0.13c0.12,0,0.27,-0.06,0.42,-0.19c0.31,-0.27,0.58,-0.61,0.8,-1.03l0.31,0.16c-0.36,0.67,-0.82,1.22,-1.37,1.67c-0.31,0.25,-0.58,0.37,-0.8,0.37c-0.31,0,-0.56,-0.18,-0.75,-0.53c-0.12,-0.23,-0.37,-1.19,-0.75,-2.87c-0.89,1.54,-1.6,2.54,-2.14,2.98c-0.34,0.28,-0.68,0.42,-1,0.42c-0.23,0,-0.44,-0.08,-0.62,-0.25c-0.14,-0.12,-0.2,-0.29,-0.2,-0.5c0,-0.19,0.06,-0.34,0.19,-0.47c0.12,-0.12,0.28,-0.19,0.45,-0.19c0.19,0,0.38,0.09,0.58,0.27c0.16,0.14,0.27,0.2,0.34,0.2c0.07,0,0.16,-0.05,0.27,-0.14c0.27,-0.22,0.64,-0.68,1.1,-1.4c0.46,-0.71,0.76,-1.23,0.9,-1.55c-0.35,-1.39,-0.54,-2.12,-0.56,-2.2c-0.14,-0.36,-0.31,-0.62,-0.52,-0.78c-0.21,-0.16,-0.52,-0.23,-0.93,-0.23c-0.12,0,-0.28,0.01,-0.45,0.02l0,-0.3l2.28,-0.41" fill="#000000" stroke="none" fill-opacity="1"/>
<path d="m204.61,190.25l4.42,0l0,1.3l-4.42,0l0,-1.3m10.28,3.45c-0.8,0.61,-1.31,0.97,-1.52,1.08c-0.3,0.14,-0.63,0.2,-0.98,0.2c-0.54,0,-0.99,-0.18,-1.34,-0.55c-0.35,-0.37,-0.52,-0.86,-0.52,-1.46c0,-0.37,0.08,-0.7,0.25,-0.98c0.24,-0.39,0.65,-0.75,1.23,-1.09c0.58,-0.34,1.54,-0.76,2.88,-1.25l0,-0.31c0,-0.78,-0.12,-1.32,-0.37,-1.6c-0.25,-0.29,-0.61,-0.43,-1.08,-0.43c-0.36,0,-0.65,0.09,-0.86,0.28c-0.22,0.2,-0.33,0.42,-0.33,0.67l0.02,0.5c0,0.26,-0.07,0.46,-0.2,0.6c-0.13,0.14,-0.3,0.21,-0.52,0.21c-0.21,0,-0.38,-0.07,-0.52,-0.22c-0.14,-0.15,-0.2,-0.35,-0.2,-0.61c0,-0.49,0.25,-0.94,0.75,-1.35c0.5,-0.41,1.2,-0.62,2.11,-0.62c0.7,0,1.27,0.12,1.72,0.36c0.33,0.18,0.58,0.45,0.73,0.83c0.1,0.24,0.16,0.74,0.16,1.5l0,2.66c0,0.75,0.02,1.21,0.05,1.37c0.03,0.17,0.08,0.28,0.14,0.34c0.06,0.06,0.14,0.09,0.22,0.09c0.09,0,0.18,-0.02,0.25,-0.06c0.11,-0.07,0.34,-0.28,0.69,-0.62l0,0.48c-0.64,0.85,-1.24,1.28,-1.83,1.28c-0.28,0,-0.51,-0.1,-0.67,-0.29c-0.17,-0.19,-0.25,-0.52,-0.25,-0.99m0,-0.56l0,-2.98c-0.86,0.34,-1.42,0.59,-1.67,0.73c-0.45,0.25,-0.77,0.51,-0.96,0.78c-0.19,0.27,-0.29,0.57,-0.29,0.91c0,0.41,0.12,0.74,0.37,1.02c0.24,0.27,0.52,0.41,0.84,0.41c0.44,0,1.01,-0.29,1.72,-0.86m3.25,-6.14l3.67,0l0,0.31c-0.23,0,-0.39,0.04,-0.48,0.12c-0.09,0.08,-0.14,0.19,-0.14,0.31c0,0.14,0.1,0.35,0.3,0.64c0.06,0.08,0.16,0.22,0.28,0.42l0.56,0.89l0.64,-0.89c0.41,-0.56,0.61,-0.92,0.61,-1.06c0,-0.12,-0.05,-0.23,-0.14,-0.31c-0.09,-0.08,-0.25,-0.12,-0.47,-0.12l0,-0.31l2.64,0l0,0.31c-0.28,0.02,-0.52,0.1,-0.72,0.23c-0.28,0.2,-0.66,0.62,-1.14,1.27l-1.08,1.42l1.95,2.81c0.48,0.69,0.82,1.1,1.02,1.24c0.2,0.14,0.47,0.22,0.79,0.23l0,0.31l-3.69,0l0,-0.31c0.26,0,0.46,-0.06,0.59,-0.17c0.11,-0.07,0.17,-0.18,0.17,-0.31c0,-0.12,-0.18,-0.45,-0.55,-0.98l-1.16,-1.67l-1.25,1.67c-0.39,0.51,-0.58,0.82,-0.58,0.92c0,0.14,0.07,0.26,0.2,0.37c0.13,0.11,0.32,0.17,0.57,0.18l0,0.31l-2.55,0l0,-0.31c0.2,-0.02,0.37,-0.09,0.53,-0.2c0.22,-0.17,0.58,-0.59,1.09,-1.27l1.64,-2.19l-1.48,-2.16c-0.43,-0.61,-0.76,-1,-0.98,-1.16c-0.23,-0.16,-0.52,-0.23,-0.86,-0.23l0,-0.31m10.3,-4.33c0.24,0,0.45,0.09,0.62,0.26c0.17,0.17,0.26,0.38,0.26,0.62c0,0.24,-0.09,0.44,-0.26,0.61c-0.17,0.17,-0.38,0.25,-0.62,0.25c-0.24,0,-0.44,-0.08,-0.61,-0.25c-0.17,-0.17,-0.25,-0.37,-0.25,-0.61c0,-0.24,0.08,-0.45,0.25,-0.62c0.17,-0.17,0.37,-0.26,0.61,-0.26m0.72,4.09l0,6.3c0,0.49,0.03,0.82,0.1,0.98c0.07,0.16,0.17,0.28,0.31,0.36c0.14,0.08,0.4,0.12,0.77,0.12l0,0.31l-3.81,0l0,-0.31c0.39,0,0.64,-0.04,0.77,-0.11c0.13,-0.07,0.23,-0.2,0.31,-0.37c0.08,-0.17,0.12,-0.5,0.12,-0.98l0,-3.02c0,-0.85,-0.03,-1.41,-0.08,-1.66c-0.04,-0.18,-0.1,-0.3,-0.19,-0.37c-0.08,-0.07,-0.2,-0.11,-0.34,-0.11c-0.17,0,-0.36,0.04,-0.59,0.12l-0.11,-0.3l2.36,-0.97l0.37,0m6.36,0l0,2.67l-0.28,0c-0.22,-0.83,-0.5,-1.4,-0.84,-1.7c-0.34,-0.3,-0.77,-0.45,-1.29,-0.45c-0.41,0,-0.73,0.1,-0.98,0.31c-0.24,0.21,-0.37,0.44,-0.37,0.7c0,0.31,0.09,0.58,0.28,0.81c0.18,0.24,0.54,0.49,1.08,0.75l1.23,0.61c1.16,0.56,1.73,1.3,1.73,2.22c0,0.72,-0.27,1.29,-0.8,1.73c-0.54,0.43,-1.14,0.65,-1.8,0.65c-0.48,0,-1.03,-0.08,-1.64,-0.25c-0.19,-0.06,-0.34,-0.09,-0.45,-0.09c-0.14,0,-0.24,0.08,-0.31,0.23l-0.28,0l0,-2.8l0.28,0c0.16,0.79,0.46,1.39,0.91,1.8c0.45,0.41,0.96,0.61,1.51,0.61c0.4,0,0.72,-0.11,0.97,-0.34c0.25,-0.23,0.37,-0.51,0.37,-0.83c0,-0.4,-0.14,-0.73,-0.41,-1c-0.28,-0.27,-0.83,-0.61,-1.66,-1.02c-0.83,-0.41,-1.37,-0.78,-1.63,-1.11c-0.25,-0.32,-0.37,-0.73,-0.37,-1.23c0,-0.65,0.22,-1.18,0.66,-1.62c0.44,-0.43,1.01,-0.65,1.72,-0.65c0.3,0,0.67,0.07,1.11,0.2c0.29,0.08,0.49,0.12,0.59,0.12c0.08,0,0.15,-0.02,0.2,-0.06c0.05,-0.04,0.11,-0.13,0.19,-0.27l0.28,0" fill="#000000" stroke="none" fill-opacity="1"/>
<path d="m204.84,218.25l0,0.33c-0.86,-0.44,-1.58,-0.95,-2.16,-1.53c-0.82,-0.82,-1.46,-1.8,-1.9,-2.92c-0.44,-1.12,-0.66,-2.29,-0.66,-3.5c0,-1.76,0.43,-3.37,1.3,-4.83c0.87,-1.46,2.01,-2.5,3.41,-3.12l0,0.36c-0.7,0.39,-1.27,0.92,-1.73,1.59c-0.45,0.68,-0.79,1.53,-1.02,2.56c-0.22,1.03,-0.34,2.1,-0.34,3.22c0,1.22,0.1,2.33,0.3,3.33c0.15,0.78,0.32,1.41,0.53,1.89c0.21,0.48,0.49,0.94,0.85,1.37c0.36,0.44,0.83,0.85,1.4,1.25m2.42,-8.3c0,1.16,0.28,2.07,0.84,2.73c0.57,0.66,1.24,0.98,2.02,0.98c0.51,0,0.96,-0.14,1.34,-0.42c0.38,-0.28,0.7,-0.77,0.95,-1.45l0.27,0.17c-0.11,0.78,-0.46,1.49,-1.04,2.13c-0.58,0.64,-1.3,0.96,-2.16,0.96c-0.94,0,-1.74,-0.36,-2.41,-1.09c-0.67,-0.73,-1,-1.71,-1,-2.95c0,-1.33,0.34,-2.37,1.02,-3.12c0.68,-0.75,1.54,-1.12,2.59,-1.12c0.87,0,1.59,0.29,2.16,0.87c0.56,0.58,0.84,1.35,0.84,2.32l-5.41,0m0,-0.5l3.62,0c-0.03,-0.5,-0.09,-0.85,-0.17,-1.06c-0.15,-0.31,-0.36,-0.56,-0.64,-0.74c-0.28,-0.18,-0.58,-0.27,-0.89,-0.27c-0.47,0,-0.89,0.18,-1.27,0.55c-0.37,0.36,-0.59,0.87,-0.66,1.53m8.98,-2.69l0,1.77c0.65,-1.18,1.32,-1.77,2.02,-1.77c0.31,0,0.57,0.1,0.77,0.29c0.2,0.19,0.3,0.41,0.3,0.66c0,0.22,-0.07,0.41,-0.22,0.56c-0.15,0.16,-0.32,0.23,-0.53,0.23c-0.2,0,-0.42,-0.1,-0.67,-0.3c-0.25,-0.2,-0.43,-0.3,-0.55,-0.3c-0.1,0,-0.22,0.06,-0.34,0.17c-0.25,0.23,-0.51,0.61,-0.78,1.16l0,3.75c0,0.44,0.05,0.77,0.16,0.98c0.07,0.16,0.2,0.28,0.39,0.38c0.19,0.1,0.46,0.15,0.81,0.15l0,0.31l-4,0l0,-0.31c0.4,0,0.69,-0.06,0.87,-0.19c0.15,-0.08,0.25,-0.23,0.31,-0.44c0.02,-0.09,0.03,-0.37,0.03,-0.83l0,-3.03c0,-0.91,-0.02,-1.45,-0.05,-1.62c-0.04,-0.18,-0.1,-0.3,-0.2,-0.38c-0.1,-0.08,-0.22,-0.12,-0.37,-0.12c-0.18,0,-0.37,0.04,-0.59,0.12l-0.09,-0.3l2.37,-0.97l0.36,0m5.8,5.2c-0.48,-0.23,-0.85,-0.55,-1.1,-0.97c-0.26,-0.42,-0.38,-0.88,-0.38,-1.39c0,-0.78,0.29,-1.45,0.87,-2.01c0.58,-0.56,1.33,-0.84,2.23,-0.84c0.75,0,1.4,0.18,1.95,0.55l1.66,0c0.24,0,0.38,0.01,0.42,0.02c0.04,0.02,0.07,0.04,0.08,0.07c0.04,0.05,0.06,0.15,0.06,0.28c0,0.15,-0.02,0.24,-0.05,0.3c-0.02,0.03,-0.05,0.06,-0.09,0.08c-0.04,0.02,-0.18,0.03,-0.42,0.03l-1.02,0c0.31,0.41,0.47,0.93,0.47,1.56c0,0.73,-0.28,1.35,-0.84,1.87c-0.56,0.52,-1.3,0.78,-2.24,0.78c-0.39,0,-0.78,-0.06,-1.19,-0.17c-0.25,0.22,-0.42,0.41,-0.51,0.57c-0.09,0.16,-0.13,0.3,-0.13,0.41c0,0.09,0.05,0.18,0.14,0.27c0.09,0.09,0.28,0.15,0.55,0.2c0.16,0.02,0.56,0.04,1.2,0.06c1.17,0.03,1.93,0.07,2.28,0.12c0.53,0.07,0.95,0.27,1.27,0.59c0.31,0.32,0.47,0.71,0.47,1.18c0,0.65,-0.3,1.25,-0.91,1.81c-0.89,0.83,-2.04,1.25,-3.47,1.25c-1.1,0,-2.04,-0.25,-2.8,-0.75c-0.43,-0.28,-0.64,-0.58,-0.64,-0.89c0,-0.14,0.03,-0.27,0.09,-0.41c0.1,-0.21,0.31,-0.5,0.61,-0.87c0.03,-0.05,0.32,-0.36,0.86,-0.92c-0.29,-0.18,-0.5,-0.34,-0.62,-0.48c-0.12,-0.14,-0.19,-0.3,-0.19,-0.48c0,-0.2,0.08,-0.43,0.25,-0.7c0.17,-0.27,0.54,-0.65,1.12,-1.14m1.48,-4.78c-0.42,0,-0.77,0.17,-1.05,0.5c-0.29,0.33,-0.43,0.85,-0.43,1.55c0,0.9,0.19,1.59,0.58,2.09c0.3,0.37,0.68,0.56,1.12,0.56c0.44,0,0.8,-0.16,1.08,-0.48c0.28,-0.32,0.42,-0.83,0.42,-1.53c0,-0.91,-0.2,-1.61,-0.59,-2.12c-0.29,-0.37,-0.67,-0.56,-1.12,-0.56m-1.56,7.64c-0.27,0.29,-0.47,0.56,-0.61,0.81c-0.14,0.25,-0.2,0.48,-0.2,0.69c0,0.28,0.16,0.52,0.48,0.72c0.57,0.35,1.4,0.53,2.47,0.53c1.03,0,1.79,-0.18,2.27,-0.54c0.48,-0.36,0.73,-0.75,0.73,-1.16c0,-0.29,-0.15,-0.5,-0.44,-0.62c-0.29,-0.12,-0.87,-0.2,-1.75,-0.22c-1.28,-0.04,-2.27,-0.11,-2.95,-0.2m5.83,-11.8l0,-0.36c0.86,0.43,1.59,0.93,2.17,1.52c0.81,0.83,1.44,1.81,1.88,2.93c0.44,1.12,0.66,2.28,0.66,3.49c0,1.77,-0.43,3.38,-1.3,4.84c-0.87,1.45,-2.01,2.5,-3.41,3.13l0,-0.33c0.7,-0.39,1.27,-0.91,1.73,-1.59c0.45,-0.67,0.79,-1.52,1.01,-2.55c0.22,-1.03,0.33,-2.11,0.33,-3.23c0,-1.22,-0.09,-2.33,-0.28,-3.33c-0.14,-0.78,-0.31,-1.41,-0.52,-1.88c-0.21,-0.47,-0.5,-0.93,-0.85,-1.37c-0.35,-0.44,-0.82,-0.86,-1.41,-1.27" fill="#000000" stroke="none" fill-opacity="1"/>
<path d="m94.64,167.11c0,-1.32,0.2,-2.46,0.6,-3.41c0.4,-0.95,0.93,-1.66,1.59,-2.13c0.52,-0.37,1.05,-0.56,1.59,-0.56c0.9,0,1.69,0.45,2.39,1.36c0.89,1.12,1.33,2.65,1.33,4.56c0,1.34,-0.19,2.49,-0.58,3.43c-0.39,0.94,-0.88,1.62,-1.48,2.05c-0.6,0.42,-1.18,0.63,-1.73,0.63c-1.1,0,-2.03,-0.65,-2.77,-1.95c-0.62,-1.1,-0.94,-2.43,-0.94,-3.97m1.69,0.2c0,1.59,0.19,2.9,0.58,3.91c0.33,0.85,0.82,1.28,1.45,1.28c0.31,0,0.63,-0.14,0.96,-0.41c0.33,-0.28,0.58,-0.74,0.76,-1.4c0.26,-0.98,0.39,-2.36,0.39,-4.14c0,-1.32,-0.14,-2.43,-0.41,-3.31c-0.21,-0.65,-0.47,-1.11,-0.8,-1.39c-0.24,-0.19,-0.52,-0.28,-0.84,-0.28c-0.4,0,-0.74,0.18,-1.05,0.53c-0.41,0.47,-0.68,1.21,-0.83,2.23c-0.15,1.02,-0.22,2.01,-0.22,2.99m8.87,3.86c0.27,0,0.5,0.09,0.68,0.27c0.18,0.18,0.27,0.41,0.27,0.68c0,0.26,-0.09,0.48,-0.28,0.66c-0.19,0.18,-0.41,0.27,-0.67,0.27c-0.26,0,-0.48,-0.09,-0.67,-0.27c-0.19,-0.18,-0.28,-0.4,-0.28,-0.66c0,-0.27,0.09,-0.5,0.28,-0.68c0.19,-0.18,0.41,-0.27,0.67,-0.27m3.44,-4.06c0,-1.32,0.2,-2.46,0.6,-3.41c0.4,-0.95,0.93,-1.66,1.59,-2.13c0.52,-0.37,1.05,-0.56,1.59,-0.56c0.9,0,1.69,0.45,2.39,1.36c0.89,1.12,1.33,2.65,1.33,4.56c0,1.34,-0.19,2.49,-0.58,3.43c-0.39,0.94,-0.88,1.62,-1.48,2.05c-0.6,0.42,-1.18,0.63,-1.73,0.63c-1.1,0,-2.03,-0.65,-2.77,-1.95c-0.62,-1.1,-0.94,-2.43,-0.94,-3.97m1.69,0.2c0,1.59,0.19,2.9,0.58,3.91c0.33,0.85,0.82,1.28,1.45,1.28c0.31,0,0.63,-0.14,0.96,-0.41c0.33,-0.28,0.58,-0.74,0.76,-1.4c0.26,-0.98,0.39,-2.36,0.39,-4.14c0,-1.32,-0.14,-2.43,-0.41,-3.31c-0.21,-0.65,-0.47,-1.11,-0.8,-1.39c-0.24,-0.19,-0.52,-0.28,-0.84,-0.28c-0.4,0,-0.74,0.18,-1.05,0.53c-0.41,0.47,-0.68,1.21,-0.83,2.23c-0.15,1.02,-0.22,2.01,-0.22,2.99m8.73,-4.94l2.83,-1.37l0.28,0l0,9.78c0,0.66,0.03,1.06,0.08,1.22c0.05,0.16,0.16,0.28,0.34,0.37c0.17,0.09,0.52,0.14,1.04,0.15l0,0.31l-4.36,0l0,-0.31c0.55,-0.01,0.91,-0.06,1.07,-0.14c0.16,-0.08,0.27,-0.2,0.34,-0.34c0.06,-0.14,0.09,-0.56,0.09,-1.26l0,-6.25c0,-0.84,-0.03,-1.39,-0.09,-1.62c-0.04,-0.18,-0.11,-0.31,-0.22,-0.4c-0.1,-0.09,-0.23,-0.13,-0.37,-0.13c-0.21,0,-0.51,0.09,-0.89,0.27l-0.12,-0.27" fill="#000000" stroke="none" fill-opacity="1"/>
<path d="m205.53,167.11c0,-1.32,0.2,-2.46,0.6,-3.41c0.4,-0.95,0.93,-1.66,1.59,-2.13c0.52,-0.37,1.05,-0.56,1.59,-0.56c0.9,0,1.69,0.45,2.39,1.36c0.89,1.12,1.33,2.65,1.33,4.56c0,1.34,-0.19,2.49,-0.58,3.43c-0.39,0.94,-0.88,1.62,-1.48,2.05c-0.6,0.42,-1.18,0.63,-1.73,0.63c-1.1,0,-2.03,-0.65,-2.77,-1.95c-0.62,-1.1,-0.94,-2.43,-0.94,-3.97m1.69,0.2c0,1.59,0.19,2.9,0.58,3.91c0.33,0.85,0.82,1.28,1.45,1.28c0.31,0,0.63,-0.14,0.96,-0.41c0.33,-0.28,0.58,-0.74,0.76,-1.4c0.26,-0.98,0.39,-2.36,0.39,-4.14c0,-1.32,-0.14,-2.43,-0.41,-3.31c-0.21,-0.65,-0.47,-1.11,-0.8,-1.39c-0.24,-0.19,-0.52,-0.28,-0.84,-0.28c-0.4,0,-0.74,0.18,-1.05,0.53c-0.41,0.47,-0.68,1.21,-0.83,2.23c-0.15,1.02,-0.22,2.01,-0.22,2.99m8.87,3.86c0.27,0,0.5,0.09,0.68,0.27c0.18,0.18,0.27,0.41,0.27,0.68c0,0.26,-0.09,0.48,-0.28,0.66c-0.19,0.18,-0.41,0.27,-0.67,0.27c-0.26,0,-0.48,-0.09,-0.67,-0.27c-0.19,-0.18,-0.28,-0.4,-0.28,-0.66c0,-0.27,0.09,-0.5,0.28,-0.68c0.19,-0.18,0.41,-0.27,0.67,-0.27m4.86,-8.8l2.83,-1.37l0.28,0l0,9.78c0,0.66,0.03,1.06,0.08,1.22c0.05,0.16,0.16,0.28,0.34,0.37c0.17,0.09,0.52,0.14,1.04,0.15l0,0.31l-4.36,0l0,-0.31c0.55,-0.01,0.91,-0.06,1.07,-0.14c0.16,-0.08,0.27,-0.2,0.34,-0.34c0.06,-0.14,0.09,-0.56,0.09,-1.26l0,-6.25c0,-0.84,-0.03,-1.39,-0.09,-1.62c-0.04,-0.18,-0.11,-0.31,-0.22,-0.4c-0.1,-0.09,-0.23,-0.13,-0.37,-0.13c-0.21,0,-0.51,0.09,-0.89,0.27l-0.12,-0.27" fill="#000000" stroke="none" fill-opacity="1"/>
<path d="m320.34,162.37l2.83,-1.37l0.28,0l0,9.78c0,0.66,0.03,1.06,0.08,1.22c0.05,0.16,0.16,0.28,0.34,0.37c0.17,0.09,0.52,0.14,1.04,0.15l0,0.31l-4.36,0l0,-0.31c0.55,-0.01,0.91,-0.06,1.07,-0.14c0.16,-0.08,0.27,-0.2,0.34,-0.34c0.06,-0.14,0.09,-0.56,0.09,-1.26l0,-6.25c0,-0.84,-0.03,-1.39,-0.09,-1.62c-0.04,-0.18,-0.11,-0.31,-0.22,-0.4c-0.1,-0.09,-0.23,-0.13,-0.37,-0.13c-0.21,0,-0.51,0.09,-0.89,0.27l-0.12,-0.27" fill="#000000" stroke="none" fill-opacity="1"/>
</g>
</g>
</g>
<defs>
<clipPath id="c0"><path d="m0,0l341.43,0l0,293.42l-341.43,0l0,-293.42"/></clipPath>
<clipPath id="c1"><path d="m110.02,25.48l212.78,0l0,250.75l-212.78,0l0,-250.75"/></clipPath>
</defs>
</svg>
