<?xml version="1.0" standalone="no"?>
<!DOCTYPE svg PUBLIC "-//W3C//DTD SVG 1.1//EN" 
  "http://www.w3.org/Graphics/SVG/1.1/DTD/svg11.dtd">
<svg width="533.49px" height="533.49px" version="1.1"
     xmlns="http://www.w3.org/2000/svg"
     xmlns:xlink="http://www.w3.org/1999/xlink">
<desc>Veusz output document</desc>
<g stroke-linejoin="bevel" stroke-linecap="square" stroke="#000000" fill-rule="evenodd">
<g clip-path="url(#c0)">
<g stroke-width="0.62" fill="#ffffff">
<path d="m60.46,7.11l465.91,0l0,465.91l-465.91,0l0,-465.91"/>
</g>
</g>
<g clip-path="url(#c1)">
<g stroke-linejoin="miter" stroke-width="0.62" transform="translate(107.05, 467.2)" fill="none">
<path d="m-3.75,-3.75l7.5,0l0,7.5l-7.5,0l0,-7.5"/>
</g>
<g stroke-linejoin="miter" stroke-width="0.62" transform="translate(256.15, 467.2)" fill="none">
<path d="m-3.75,-3.75l7.5,0l0,7.5l-7.5,0l0,-7.5"/>
</g>
<g stroke-linejoin="miter" stroke-width="0.62" transform="translate(442.51, 292.49)" fill="none">
<path d="m-3.75,-3.75l7.5,0l0,7.5l-7.5,0l0,-7.5"/>
</g>
<g stroke="#ff0000" stroke-width="1" transform="matrix(0 1 -1 0 98.05 391.58)" fill="none">
<path d="m6.94,-1c-0.43,0.45,-0.85,0.77,-1.27,0.98c-0.42,0.2,-0.87,0.3,-1.36,0.3c-0.97,0,-1.82,-0.41,-2.55,-1.23c-0.73,-0.82,-1.09,-1.87,-1.09,-3.16c0,-1.28,0.4,-2.45,1.21,-3.52c0.81,-1.06,1.84,-1.59,3.1,-1.59c0.79,0,1.44,0.25,1.95,0.75l0,-1.66c0,-1.02,-0.02,-1.65,-0.07,-1.88c-0.05,-0.23,-0.12,-0.39,-0.23,-0.48c-0.1,-0.08,-0.23,-0.12,-0.39,-0.12c-0.17,0,-0.39,0.05,-0.67,0.16l-0.12,-0.34l2.66,-1.09l0.45,0l0,10.34c0,1.05,0.02,1.69,0.07,1.92c0.05,0.23,0.12,0.39,0.23,0.48c0.11,0.09,0.23,0.14,0.37,0.14c0.18,0,0.41,-0.06,0.7,-0.17l0.11,0.34l-2.66,1.11l-0.45,0l0,-1.28m0,-0.69l0,-4.61c-0.03,-0.45,-0.15,-0.85,-0.34,-1.22c-0.2,-0.36,-0.46,-0.64,-0.78,-0.82c-0.32,-0.18,-0.64,-0.27,-0.94,-0.27c-0.57,0,-1.08,0.26,-1.53,0.77c-0.59,0.68,-0.89,1.67,-0.89,2.97c0,1.31,0.29,2.32,0.86,3.02c0.57,0.7,1.21,1.05,1.91,1.05c0.59,0,1.17,-0.3,1.72,-0.89m8.75,0.39c-0.92,0.72,-1.49,1.13,-1.72,1.23c-0.35,0.17,-0.73,0.25,-1.12,0.25c-0.61,0,-1.12,-0.21,-1.52,-0.63c-0.4,-0.42,-0.6,-0.98,-0.6,-1.68c0,-0.44,0.09,-0.81,0.28,-1.12c0.27,-0.45,0.74,-0.87,1.4,-1.26c0.66,-0.39,1.76,-0.86,3.29,-1.41l0,-0.36c0,-0.9,-0.14,-1.51,-0.42,-1.84c-0.28,-0.33,-0.69,-0.49,-1.23,-0.49c-0.41,0,-0.73,0.11,-0.97,0.33c-0.25,0.22,-0.37,0.47,-0.37,0.77l0.02,0.56c0,0.3,-0.08,0.53,-0.23,0.7c-0.15,0.16,-0.35,0.24,-0.6,0.24c-0.24,0,-0.43,-0.09,-0.59,-0.26c-0.15,-0.17,-0.23,-0.4,-0.23,-0.7c0,-0.55,0.29,-1.06,0.86,-1.53c0.57,-0.47,1.37,-0.7,2.41,-0.7c0.79,0,1.44,0.13,1.95,0.39c0.39,0.21,0.67,0.53,0.84,0.95c0.12,0.28,0.19,0.85,0.19,1.72l0,3.03c0,0.85,0.02,1.38,0.05,1.57c0.03,0.19,0.08,0.32,0.16,0.38c0.07,0.06,0.16,0.09,0.27,0.09c0.1,0,0.19,-0.02,0.27,-0.06c0.14,-0.08,0.4,-0.32,0.8,-0.72l0,0.55c-0.73,0.98,-1.43,1.47,-2.09,1.47c-0.32,0,-0.58,-0.11,-0.77,-0.33c-0.19,-0.22,-0.29,-0.6,-0.3,-1.14m0,-0.62l0,-3.41c-0.98,0.39,-1.61,0.66,-1.89,0.83c-0.52,0.28,-0.89,0.58,-1.11,0.89c-0.22,0.31,-0.33,0.66,-0.33,1.03c0,0.47,0.14,0.86,0.41,1.16c0.28,0.31,0.6,0.46,0.96,0.46c0.5,0,1.15,-0.32,1.95,-0.97m6.53,-9.97l0,2.94l2.09,0l0,0.69l-2.09,0l0,5.8c0,0.58,0.08,0.98,0.25,1.18c0.17,0.2,0.38,0.3,0.64,0.3c0.22,0,0.43,-0.07,0.63,-0.2c0.2,-0.14,0.36,-0.33,0.46,-0.59l0.39,0c-0.23,0.64,-0.55,1.11,-0.97,1.44c-0.42,0.32,-0.85,0.48,-1.3,0.48c-0.3,0,-0.6,-0.08,-0.88,-0.25c-0.29,-0.17,-0.5,-0.4,-0.63,-0.71c-0.14,-0.31,-0.2,-0.78,-0.2,-1.43l0,-6.02l-1.41,0l0,-0.31c0.35,-0.15,0.72,-0.39,1.09,-0.73c0.37,-0.34,0.71,-0.75,1,-1.22c0.15,-0.25,0.35,-0.7,0.62,-1.36l0.3,0m7.47,10.59c-0.92,0.72,-1.49,1.13,-1.72,1.23c-0.35,0.17,-0.73,0.25,-1.12,0.25c-0.61,0,-1.12,-0.21,-1.52,-0.63c-0.4,-0.42,-0.6,-0.98,-0.6,-1.68c0,-0.44,0.09,-0.81,0.28,-1.12c0.27,-0.45,0.74,-0.87,1.4,-1.26c0.66,-0.39,1.76,-0.86,3.29,-1.41l0,-0.36c0,-0.9,-0.14,-1.51,-0.42,-1.84c-0.28,-0.33,-0.69,-0.49,-1.23,-0.49c-0.41,0,-0.73,0.11,-0.97,0.33c-0.25,0.22,-0.37,0.47,-0.37,0.77l0.02,0.56c0,0.3,-0.08,0.53,-0.23,0.7c-0.15,0.16,-0.35,0.24,-0.6,0.24c-0.24,0,-0.43,-0.09,-0.59,-0.26c-0.15,-0.17,-0.23,-0.4,-0.23,-0.7c0,-0.55,0.29,-1.06,0.86,-1.53c0.57,-0.47,1.37,-0.7,2.41,-0.7c0.79,0,1.44,0.13,1.95,0.39c0.39,0.21,0.67,0.53,0.84,0.95c0.12,0.28,0.19,0.85,0.19,1.72l0,3.03c0,0.85,0.02,1.38,0.05,1.57c0.03,0.19,0.08,0.32,0.16,0.38c0.07,0.06,0.16,0.09,0.27,0.09c0.1,0,0.19,-0.02,0.27,-0.06c0.14,-0.08,0.4,-0.32,0.8,-0.72l0,0.55c-0.73,0.98,-1.43,1.47,-2.09,1.47c-0.32,0,-0.58,-0.11,-0.77,-0.33c-0.19,-0.22,-0.29,-0.6,-0.3,-1.14m0,-0.62l0,-3.41c-0.98,0.39,-1.61,0.66,-1.89,0.83c-0.52,0.28,-0.89,0.58,-1.11,0.89c-0.22,0.31,-0.33,0.66,-0.33,1.03c0,0.47,0.14,0.86,0.41,1.16c0.28,0.31,0.6,0.46,0.96,0.46c0.5,0,1.15,-0.32,1.95,-0.97m9.72,-7.28l0,3.05l-0.33,0c-0.24,-0.96,-0.55,-1.61,-0.95,-1.96c-0.39,-0.35,-0.88,-0.52,-1.48,-0.52c-0.46,0,-0.83,0.12,-1.11,0.37c-0.28,0.24,-0.42,0.51,-0.42,0.8c0,0.36,0.1,0.68,0.31,0.94c0.21,0.26,0.62,0.54,1.23,0.84l1.42,0.7c1.32,0.64,1.98,1.48,1.98,2.55c0,0.81,-0.31,1.47,-0.92,1.97c-0.61,0.5,-1.3,0.75,-2.06,0.75c-0.55,0,-1.18,-0.1,-1.87,-0.3c-0.22,-0.07,-0.4,-0.11,-0.53,-0.11c-0.15,0,-0.26,0.09,-0.34,0.27l-0.33,0l0,-3.2l0.33,0c0.18,0.92,0.52,1.61,1.04,2.07c0.52,0.46,1.09,0.7,1.73,0.7c0.45,0,0.82,-0.13,1.1,-0.4c0.29,-0.27,0.43,-0.59,0.43,-0.96c0,-0.45,-0.16,-0.83,-0.48,-1.13c-0.32,-0.31,-0.95,-0.7,-1.89,-1.16c-0.94,-0.47,-1.56,-0.89,-1.85,-1.27c-0.29,-0.36,-0.44,-0.83,-0.44,-1.41c0,-0.73,0.25,-1.34,0.75,-1.84c0.5,-0.49,1.15,-0.74,1.95,-0.74c0.35,0,0.78,0.07,1.28,0.22c0.33,0.09,0.56,0.14,0.67,0.14c0.1,0,0.18,-0.02,0.24,-0.06c0.06,-0.04,0.12,-0.14,0.2,-0.3l0.33,0m3.72,3.62c0,1.33,0.32,2.37,0.97,3.12c0.66,0.76,1.42,1.14,2.3,1.14c0.58,0,1.09,-0.16,1.52,-0.48c0.43,-0.32,0.8,-0.87,1.1,-1.66l0.3,0.19c-0.14,0.9,-0.53,1.71,-1.19,2.45c-0.66,0.73,-1.48,1.1,-2.47,1.1c-1.08,0,-2.01,-0.42,-2.77,-1.26c-0.76,-0.84,-1.14,-1.97,-1.14,-3.38c0,-1.53,0.39,-2.72,1.17,-3.58c0.78,-0.85,1.77,-1.28,2.95,-1.28c1,0,1.82,0.33,2.47,0.99c0.65,0.66,0.97,1.54,0.97,2.65l-6.19,0m0,-0.56l4.14,0c-0.03,-0.57,-0.1,-0.98,-0.2,-1.22c-0.16,-0.36,-0.4,-0.65,-0.72,-0.86c-0.32,-0.21,-0.66,-0.31,-1.02,-0.31c-0.54,0,-1.03,0.21,-1.45,0.63c-0.43,0.42,-0.68,1.01,-0.75,1.76m10.09,-5.75l0,2.94l2.09,0l0,0.69l-2.09,0l0,5.8c0,0.58,0.08,0.98,0.25,1.18c0.17,0.2,0.38,0.3,0.64,0.3c0.22,0,0.43,-0.07,0.63,-0.2c0.2,-0.14,0.36,-0.33,0.46,-0.59l0.39,0c-0.23,0.64,-0.55,1.11,-0.97,1.44c-0.42,0.32,-0.85,0.48,-1.3,0.48c-0.3,0,-0.6,-0.08,-0.88,-0.25c-0.29,-0.17,-0.5,-0.4,-0.63,-0.71c-0.14,-0.31,-0.2,-0.78,-0.2,-1.43l0,-6.02l-1.41,0l0,-0.31c0.35,-0.15,0.72,-0.39,1.09,-0.73c0.37,-0.34,0.71,-0.75,1,-1.22c0.15,-0.25,0.35,-0.7,0.62,-1.36l0.3,0m15.95,9.34l-0.92,2.55l-7.81,0l0,-0.36c2.29,-2.09,3.91,-3.8,4.84,-5.13c0.94,-1.33,1.41,-2.54,1.41,-3.65c0,-0.84,-0.26,-1.53,-0.77,-2.07c-0.52,-0.54,-1.13,-0.8,-1.84,-0.8c-0.66,0,-1.24,0.19,-1.76,0.57c-0.52,0.38,-0.9,0.93,-1.15,1.66l-0.36,0c0.17,-1.2,0.59,-2.12,1.26,-2.77c0.67,-0.65,1.51,-0.97,2.52,-0.97c1.07,0,1.97,0.34,2.69,1.03c0.72,0.69,1.08,1.5,1.08,2.44c0,0.68,-0.16,1.35,-0.47,2.02c-0.48,1.05,-1.26,2.17,-2.34,3.36c-1.62,1.77,-2.64,2.84,-3.03,3.2l3.45,0c0.7,0,1.19,-0.03,1.48,-0.08c0.29,-0.05,0.54,-0.16,0.77,-0.32c0.23,-0.16,0.43,-0.39,0.59,-0.68l0.36,0" fill="#ff0000" stroke="none" fill-opacity="1"/>
</g>
<g stroke="#ff0000" stroke-width="1" transform="matrix(0 1 -1 0 247.15 391.58)" fill="none">
<path d="m6.94,-1c-0.43,0.45,-0.85,0.77,-1.27,0.98c-0.42,0.2,-0.87,0.3,-1.36,0.3c-0.97,0,-1.82,-0.41,-2.55,-1.23c-0.73,-0.82,-1.09,-1.87,-1.09,-3.16c0,-1.28,0.4,-2.45,1.21,-3.52c0.81,-1.06,1.84,-1.59,3.1,-1.59c0.79,0,1.44,0.25,1.95,0.75l0,-1.66c0,-1.02,-0.02,-1.65,-0.07,-1.88c-0.05,-0.23,-0.12,-0.39,-0.23,-0.48c-0.1,-0.08,-0.23,-0.12,-0.39,-0.12c-0.17,0,-0.39,0.05,-0.67,0.16l-0.12,-0.34l2.66,-1.09l0.45,0l0,10.34c0,1.05,0.02,1.69,0.07,1.92c0.05,0.23,0.12,0.39,0.23,0.48c0.11,0.09,0.23,0.14,0.37,0.14c0.18,0,0.41,-0.06,0.7,-0.17l0.11,0.34l-2.66,1.11l-0.45,0l0,-1.28m0,-0.69l0,-4.61c-0.03,-0.45,-0.15,-0.85,-0.34,-1.22c-0.2,-0.36,-0.46,-0.64,-0.78,-0.82c-0.32,-0.18,-0.64,-0.27,-0.94,-0.27c-0.57,0,-1.08,0.26,-1.53,0.77c-0.59,0.68,-0.89,1.67,-0.89,2.97c0,1.31,0.29,2.32,0.86,3.02c0.57,0.7,1.21,1.05,1.91,1.05c0.59,0,1.17,-0.3,1.72,-0.89m8.75,0.39c-0.92,0.72,-1.49,1.13,-1.72,1.23c-0.35,0.17,-0.73,0.25,-1.12,0.25c-0.61,0,-1.12,-0.21,-1.52,-0.63c-0.4,-0.42,-0.6,-0.98,-0.6,-1.68c0,-0.44,0.09,-0.81,0.28,-1.12c0.27,-0.45,0.74,-0.87,1.4,-1.26c0.66,-0.39,1.76,-0.86,3.29,-1.41l0,-0.36c0,-0.9,-0.14,-1.51,-0.42,-1.84c-0.28,-0.33,-0.69,-0.49,-1.23,-0.49c-0.41,0,-0.73,0.11,-0.97,0.33c-0.25,0.22,-0.37,0.47,-0.37,0.77l0.02,0.56c0,0.3,-0.08,0.53,-0.23,0.7c-0.15,0.16,-0.35,0.24,-0.6,0.24c-0.24,0,-0.43,-0.09,-0.59,-0.26c-0.15,-0.17,-0.23,-0.4,-0.23,-0.7c0,-0.55,0.29,-1.06,0.86,-1.53c0.57,-0.47,1.37,-0.7,2.41,-0.7c0.79,0,1.44,0.13,1.95,0.39c0.39,0.21,0.67,0.53,0.84,0.95c0.12,0.28,0.19,0.85,0.19,1.72l0,3.03c0,0.85,0.02,1.38,0.05,1.57c0.03,0.19,0.08,0.32,0.16,0.38c0.07,0.06,0.16,0.09,0.27,0.09c0.1,0,0.19,-0.02,0.27,-0.06c0.14,-0.08,0.4,-0.32,0.8,-0.72l0,0.55c-0.73,0.98,-1.43,1.47,-2.09,1.47c-0.32,0,-0.58,-0.11,-0.77,-0.33c-0.19,-0.22,-0.29,-0.6,-0.3,-1.14m0,-0.62l0,-3.41c-0.98,0.39,-1.61,0.66,-1.89,0.83c-0.52,0.28,-0.89,0.58,-1.11,0.89c-0.22,0.31,-0.33,0.66,-0.33,1.03c0,0.47,0.14,0.86,0.41,1.16c0.28,0.31,0.6,0.46,0.96,0.46c0.5,0,1.15,-0.32,1.95,-0.97m6.53,-9.97l0,2.94l2.09,0l0,0.69l-2.09,0l0,5.8c0,0.58,0.08,0.98,0.25,1.18c0.17,0.2,0.38,0.3,0.64,0.3c0.22,0,0.43,-0.07,0.63,-0.2c0.2,-0.14,0.36,-0.33,0.46,-0.59l0.39,0c-0.23,0.64,-0.55,1.11,-0.97,1.44c-0.42,0.32,-0.85,0.48,-1.3,0.48c-0.3,0,-0.6,-0.08,-0.88,-0.25c-0.29,-0.17,-0.5,-0.4,-0.63,-0.71c-0.14,-0.31,-0.2,-0.78,-0.2,-1.43l0,-6.02l-1.41,0l0,-0.31c0.35,-0.15,0.72,-0.39,1.09,-0.73c0.37,-0.34,0.71,-0.75,1,-1.22c0.15,-0.25,0.35,-0.7,0.62,-1.36l0.3,0m7.47,10.59c-0.92,0.72,-1.49,1.13,-1.72,1.23c-0.35,0.17,-0.73,0.25,-1.12,0.25c-0.61,0,-1.12,-0.21,-1.52,-0.63c-0.4,-0.42,-0.6,-0.98,-0.6,-1.68c0,-0.44,0.09,-0.81,0.28,-1.12c0.27,-0.45,0.74,-0.87,1.4,-1.26c0.66,-0.39,1.76,-0.86,3.29,-1.41l0,-0.36c0,-0.9,-0.14,-1.51,-0.42,-1.84c-0.28,-0.33,-0.69,-0.49,-1.23,-0.49c-0.41,0,-0.73,0.11,-0.97,0.33c-0.25,0.22,-0.37,0.47,-0.37,0.77l0.02,0.56c0,0.3,-0.08,0.53,-0.23,0.7c-0.15,0.16,-0.35,0.24,-0.6,0.24c-0.24,0,-0.43,-0.09,-0.59,-0.26c-0.15,-0.17,-0.23,-0.4,-0.23,-0.7c0,-0.55,0.29,-1.06,0.86,-1.53c0.57,-0.47,1.37,-0.7,2.41,-0.7c0.79,0,1.44,0.13,1.95,0.39c0.39,0.21,0.67,0.53,0.84,0.95c0.12,0.28,0.19,0.85,0.19,1.72l0,3.03c0,0.85,0.02,1.38,0.05,1.57c0.03,0.19,0.08,0.32,0.16,0.38c0.07,0.06,0.16,0.09,0.27,0.09c0.1,0,0.19,-0.02,0.27,-0.06c0.14,-0.08,0.4,-0.32,0.8,-0.72l0,0.55c-0.73,0.98,-1.43,1.47,-2.09,1.47c-0.32,0,-0.58,-0.11,-0.77,-0.33c-0.19,-0.22,-0.29,-0.6,-0.3,-1.14m0,-0.62l0,-3.41c-0.98,0.39,-1.61,0.66,-1.89,0.83c-0.52,0.28,-0.89,0.58,-1.11,0.89c-0.22,0.31,-0.33,0.66,-0.33,1.03c0,0.47,0.14,0.86,0.41,1.16c0.28,0.31,0.6,0.46,0.96,0.46c0.5,0,1.15,-0.32,1.95,-0.97m9.72,-7.28l0,3.05l-0.33,0c-0.24,-0.96,-0.55,-1.61,-0.95,-1.96c-0.39,-0.35,-0.88,-0.52,-1.48,-0.52c-0.46,0,-0.83,0.12,-1.11,0.37c-0.28,0.24,-0.42,0.51,-0.42,0.8c0,0.36,0.1,0.68,0.31,0.94c0.21,0.26,0.62,0.54,1.23,0.84l1.42,0.7c1.32,0.64,1.98,1.48,1.98,2.55c0,0.81,-0.31,1.47,-0.92,1.97c-0.61,0.5,-1.3,0.75,-2.06,0.75c-0.55,0,-1.18,-0.1,-1.87,-0.3c-0.22,-0.07,-0.4,-0.11,-0.53,-0.11c-0.15,0,-0.26,0.09,-0.34,0.27l-0.33,0l0,-3.2l0.33,0c0.18,0.92,0.52,1.61,1.04,2.07c0.52,0.46,1.09,0.7,1.73,0.7c0.45,0,0.82,-0.13,1.1,-0.4c0.29,-0.27,0.43,-0.59,0.43,-0.96c0,-0.45,-0.16,-0.83,-0.48,-1.13c-0.32,-0.31,-0.95,-0.7,-1.89,-1.16c-0.94,-0.47,-1.56,-0.89,-1.85,-1.27c-0.29,-0.36,-0.44,-0.83,-0.44,-1.41c0,-0.73,0.25,-1.34,0.75,-1.84c0.5,-0.49,1.15,-0.74,1.95,-0.74c0.35,0,0.78,0.07,1.28,0.22c0.33,0.09,0.56,0.14,0.67,0.14c0.1,0,0.18,-0.02,0.24,-0.06c0.06,-0.04,0.12,-0.14,0.2,-0.3l0.33,0m3.72,3.62c0,1.33,0.32,2.37,0.97,3.12c0.66,0.76,1.42,1.14,2.3,1.14c0.58,0,1.09,-0.16,1.52,-0.48c0.43,-0.32,0.8,-0.87,1.1,-1.66l0.3,0.19c-0.14,0.9,-0.53,1.71,-1.19,2.45c-0.66,0.73,-1.48,1.1,-2.47,1.1c-1.08,0,-2.01,-0.42,-2.77,-1.26c-0.76,-0.84,-1.14,-1.97,-1.14,-3.38c0,-1.53,0.39,-2.72,1.17,-3.58c0.78,-0.85,1.77,-1.28,2.95,-1.28c1,0,1.82,0.33,2.47,0.99c0.65,0.66,0.97,1.54,0.97,2.65l-6.19,0m0,-0.56l4.14,0c-0.03,-0.57,-0.1,-0.98,-0.2,-1.22c-0.16,-0.36,-0.4,-0.65,-0.72,-0.86c-0.32,-0.21,-0.66,-0.31,-1.02,-0.31c-0.54,0,-1.03,0.21,-1.45,0.63c-0.43,0.42,-0.68,1.01,-0.75,1.76m10.09,-5.75l0,2.94l2.09,0l0,0.69l-2.09,0l0,5.8c0,0.58,0.08,0.98,0.25,1.18c0.17,0.2,0.38,0.3,0.64,0.3c0.22,0,0.43,-0.07,0.63,-0.2c0.2,-0.14,0.36,-0.33,0.46,-0.59l0.39,0c-0.23,0.64,-0.55,1.11,-0.97,1.44c-0.42,0.32,-0.85,0.48,-1.3,0.48c-0.3,0,-0.6,-0.08,-0.88,-0.25c-0.29,-0.17,-0.5,-0.4,-0.63,-0.71c-0.14,-0.31,-0.2,-0.78,-0.2,-1.43l0,-6.02l-1.41,0l0,-0.31c0.35,-0.15,0.72,-0.39,1.09,-0.73c0.37,-0.34,0.71,-0.75,1,-1.22c0.15,-0.25,0.35,-0.7,0.62,-1.36l0.3,0m15.95,9.34l-0.92,2.55l-7.81,0l0,-0.36c2.29,-2.09,3.91,-3.8,4.84,-5.13c0.94,-1.33,1.41,-2.54,1.41,-3.65c0,-0.84,-0.26,-1.53,-0.77,-2.07c-0.52,-0.54,-1.13,-0.8,-1.84,-0.8c-0.66,0,-1.24,0.19,-1.76,0.57c-0.52,0.38,-0.9,0.93,-1.15,1.66l-0.36,0c0.17,-1.2,0.59,-2.12,1.26,-2.77c0.67,-0.65,1.51,-0.97,2.52,-0.97c1.07,0,1.97,0.34,2.69,1.03c0.72,0.69,1.08,1.5,1.08,2.44c0,0.68,-0.16,1.35,-0.47,2.02c-0.48,1.05,-1.26,2.17,-2.34,3.36c-1.62,1.77,-2.64,2.84,-3.03,3.2l3.45,0c0.7,0,1.19,-0.03,1.48,-0.08c0.29,-0.05,0.54,-0.16,0.77,-0.32c0.23,-0.16,0.43,-0.39,0.59,-0.68l0.36,0" fill="#ff0000" stroke="none" fill-opacity="1"/>
</g>
<g stroke="#ff0000" stroke-width="1" transform="matrix(0 1 -1 0 433.51 216.86)" fill="none">
<path d="m6.94,-1c-0.43,0.45,-0.85,0.77,-1.27,0.98c-0.42,0.2,-0.87,0.3,-1.36,0.3c-0.97,0,-1.82,-0.41,-2.55,-1.23c-0.73,-0.82,-1.09,-1.87,-1.09,-3.16c0,-1.28,0.4,-2.45,1.21,-3.52c0.81,-1.06,1.84,-1.59,3.1,-1.59c0.79,0,1.44,0.25,1.95,0.75l0,-1.66c0,-1.02,-0.02,-1.65,-0.07,-1.88c-0.05,-0.23,-0.12,-0.39,-0.23,-0.48c-0.1,-0.08,-0.23,-0.12,-0.39,-0.12c-0.17,0,-0.39,0.05,-0.67,0.16l-0.12,-0.34l2.66,-1.09l0.45,0l0,10.34c0,1.05,0.02,1.69,0.07,1.92c0.05,0.23,0.12,0.39,0.23,0.48c0.11,0.09,0.23,0.14,0.37,0.14c0.18,0,0.41,-0.06,0.7,-0.17l0.11,0.34l-2.66,1.11l-0.45,0l0,-1.28m0,-0.69l0,-4.61c-0.03,-0.45,-0.15,-0.85,-0.34,-1.22c-0.2,-0.36,-0.46,-0.64,-0.78,-0.82c-0.32,-0.18,-0.64,-0.27,-0.94,-0.27c-0.57,0,-1.08,0.26,-1.53,0.77c-0.59,0.68,-0.89,1.67,-0.89,2.97c0,1.31,0.29,2.32,0.86,3.02c0.57,0.7,1.21,1.05,1.91,1.05c0.59,0,1.17,-0.3,1.72,-0.89m8.75,0.39c-0.92,0.72,-1.49,1.13,-1.72,1.23c-0.35,0.17,-0.73,0.25,-1.12,0.25c-0.61,0,-1.12,-0.21,-1.52,-0.63c-0.4,-0.42,-0.6,-0.98,-0.6,-1.68c0,-0.44,0.09,-0.81,0.28,-1.12c0.27,-0.45,0.74,-0.87,1.4,-1.26c0.66,-0.39,1.76,-0.86,3.29,-1.41l0,-0.36c0,-0.9,-0.14,-1.51,-0.42,-1.84c-0.28,-0.33,-0.69,-0.49,-1.23,-0.49c-0.41,0,-0.73,0.11,-0.97,0.33c-0.25,0.22,-0.37,0.47,-0.37,0.77l0.02,0.56c0,0.3,-0.08,0.53,-0.23,0.7c-0.15,0.16,-0.35,0.24,-0.6,0.24c-0.24,0,-0.43,-0.09,-0.59,-0.26c-0.15,-0.17,-0.23,-0.4,-0.23,-0.7c0,-0.55,0.29,-1.06,0.86,-1.53c0.57,-0.47,1.37,-0.7,2.41,-0.7c0.79,0,1.44,0.13,1.95,0.39c0.39,0.21,0.67,0.53,0.84,0.95c0.12,0.28,0.19,0.85,0.19,1.72l0,3.03c0,0.85,0.02,1.38,0.05,1.57c0.03,0.19,0.08,0.32,0.16,0.38c0.07,0.06,0.16,0.09,0.27,0.09c0.1,0,0.19,-0.02,0.27,-0.06c0.14,-0.08,0.4,-0.32,0.8,-0.72l0,0.55c-0.73,0.98,-1.43,1.47,-2.09,1.47c-0.32,0,-0.58,-0.11,-0.77,-0.33c-0.19,-0.22,-0.29,-0.6,-0.3,-1.14m0,-0.62l0,-3.41c-0.98,0.39,-1.61,0.66,-1.89,0.83c-0.52,0.28,-0.89,0.58,-1.11,0.89c-0.22,0.31,-0.33,0.66,-0.33,1.03c0,0.47,0.14,0.86,0.41,1.16c0.28,0.31,0.6,0.46,0.96,0.46c0.5,0,1.15,-0.32,1.95,-0.97m6.53,-9.97l0,2.94l2.09,0l0,0.69l-2.09,0l0,5.8c0,0.58,0.08,0.98,0.25,1.18c0.17,0.2,0.38,0.3,0.64,0.3c0.22,0,0.43,-0.07,0.63,-0.2c0.2,-0.14,0.36,-0.33,0.46,-0.59l0.39,0c-0.23,0.64,-0.55,1.11,-0.97,1.44c-0.42,0.32,-0.85,0.48,-1.3,0.48c-0.3,0,-0.6,-0.08,-0.88,-0.25c-0.29,-0.17,-0.5,-0.4,-0.63,-0.71c-0.14,-0.31,-0.2,-0.78,-0.2,-1.43l0,-6.02l-1.41,0l0,-0.31c0.35,-0.15,0.72,-0.39,1.09,-0.73c0.37,-0.34,0.71,-0.75,1,-1.22c0.15,-0.25,0.35,-0.7,0.62,-1.36l0.3,0m7.47,10.59c-0.92,0.72,-1.49,1.13,-1.72,1.23c-0.35,0.17,-0.73,0.25,-1.12,0.25c-0.61,0,-1.12,-0.21,-1.52,-0.63c-0.4,-0.42,-0.6,-0.98,-0.6,-1.68c0,-0.44,0.09,-0.81,0.28,-1.12c0.27,-0.45,0.74,-0.87,1.4,-1.26c0.66,-0.39,1.76,-0.86,3.29,-1.41l0,-0.36c0,-0.9,-0.14,-1.51,-0.42,-1.84c-0.28,-0.33,-0.69,-0.49,-1.23,-0.49c-0.41,0,-0.73,0.11,-0.97,0.33c-0.25,0.22,-0.37,0.47,-0.37,0.77l0.02,0.56c0,0.3,-0.08,0.53,-0.23,0.7c-0.15,0.16,-0.35,0.24,-0.6,0.24c-0.24,0,-0.43,-0.09,-0.59,-0.26c-0.15,-0.17,-0.23,-0.4,-0.23,-0.7c0,-0.55,0.29,-1.06,0.86,-1.53c0.57,-0.47,1.37,-0.7,2.41,-0.7c0.79,0,1.44,0.13,1.95,0.39c0.39,0.21,0.67,0.53,0.84,0.95c0.12,0.28,0.19,0.85,0.19,1.72l0,3.03c0,0.85,0.02,1.38,0.05,1.57c0.03,0.19,0.08,0.32,0.16,0.38c0.07,0.06,0.16,0.09,0.27,0.09c0.1,0,0.19,-0.02,0.27,-0.06c0.14,-0.08,0.4,-0.32,0.8,-0.72l0,0.55c-0.73,0.98,-1.43,1.47,-2.09,1.47c-0.32,0,-0.58,-0.11,-0.77,-0.33c-0.19,-0.22,-0.29,-0.6,-0.3,-1.14m0,-0.62l0,-3.41c-0.98,0.39,-1.61,0.66,-1.89,0.83c-0.52,0.28,-0.89,0.58,-1.11,0.89c-0.22,0.31,-0.33,0.66,-0.33,1.03c0,0.47,0.14,0.86,0.41,1.16c0.28,0.31,0.6,0.46,0.96,0.46c0.5,0,1.15,-0.32,1.95,-0.97m9.72,-7.28l0,3.05l-0.33,0c-0.24,-0.96,-0.55,-1.61,-0.95,-1.96c-0.39,-0.35,-0.88,-0.52,-1.48,-0.52c-0.46,0,-0.83,0.12,-1.11,0.37c-0.28,0.24,-0.42,0.51,-0.42,0.8c0,0.36,0.1,0.68,0.31,0.94c0.21,0.26,0.62,0.54,1.23,0.84l1.42,0.7c1.32,0.64,1.98,1.48,1.98,2.55c0,0.81,-0.31,1.47,-0.92,1.97c-0.61,0.5,-1.3,0.75,-2.06,0.75c-0.55,0,-1.18,-0.1,-1.87,-0.3c-0.22,-0.07,-0.4,-0.11,-0.53,-0.11c-0.15,0,-0.26,0.09,-0.34,0.27l-0.33,0l0,-3.2l0.33,0c0.18,0.92,0.52,1.61,1.04,2.07c0.52,0.46,1.09,0.7,1.73,0.7c0.45,0,0.82,-0.13,1.1,-0.4c0.29,-0.27,0.43,-0.59,0.43,-0.96c0,-0.45,-0.16,-0.83,-0.48,-1.13c-0.32,-0.31,-0.95,-0.7,-1.89,-1.16c-0.94,-0.47,-1.56,-0.89,-1.85,-1.27c-0.29,-0.36,-0.44,-0.83,-0.44,-1.41c0,-0.73,0.25,-1.34,0.75,-1.84c0.5,-0.49,1.15,-0.74,1.95,-0.74c0.35,0,0.78,0.07,1.28,0.22c0.33,0.09,0.56,0.14,0.67,0.14c0.1,0,0.18,-0.02,0.24,-0.06c0.06,-0.04,0.12,-0.14,0.2,-0.3l0.33,0m3.72,3.62c0,1.33,0.32,2.37,0.97,3.12c0.66,0.76,1.42,1.14,2.3,1.14c0.58,0,1.09,-0.16,1.52,-0.48c0.43,-0.32,0.8,-0.87,1.1,-1.66l0.3,0.19c-0.14,0.9,-0.53,1.71,-1.19,2.45c-0.66,0.73,-1.48,1.1,-2.47,1.1c-1.08,0,-2.01,-0.42,-2.77,-1.26c-0.76,-0.84,-1.14,-1.97,-1.14,-3.38c0,-1.53,0.39,-2.72,1.17,-3.58c0.78,-0.85,1.77,-1.28,2.95,-1.28c1,0,1.82,0.33,2.47,0.99c0.65,0.66,0.97,1.54,0.97,2.65l-6.19,0m0,-0.56l4.14,0c-0.03,-0.57,-0.1,-0.98,-0.2,-1.22c-0.16,-0.36,-0.4,-0.65,-0.72,-0.86c-0.32,-0.21,-0.66,-0.31,-1.02,-0.31c-0.54,0,-1.03,0.21,-1.45,0.63c-0.43,0.42,-0.68,1.01,-0.75,1.76m10.09,-5.75l0,2.94l2.09,0l0,0.69l-2.09,0l0,5.8c0,0.58,0.08,0.98,0.25,1.18c0.17,0.2,0.38,0.3,0.64,0.3c0.22,0,0.43,-0.07,0.63,-0.2c0.2,-0.14,0.36,-0.33,0.46,-0.59l0.39,0c-0.23,0.64,-0.55,1.11,-0.97,1.44c-0.42,0.32,-0.85,0.48,-1.3,0.48c-0.3,0,-0.6,-0.08,-0.88,-0.25c-0.29,-0.17,-0.5,-0.4,-0.63,-0.71c-0.14,-0.31,-0.2,-0.78,-0.2,-1.43l0,-6.02l-1.41,0l0,-0.31c0.35,-0.15,0.72,-0.39,1.09,-0.73c0.37,-0.34,0.71,-0.75,1,-1.22c0.15,-0.25,0.35,-0.7,0.62,-1.36l0.3,0m15.95,9.34l-0.92,2.55l-7.81,0l0,-0.36c2.29,-2.09,3.91,-3.8,4.84,-5.13c0.94,-1.33,1.41,-2.54,1.41,-3.65c0,-0.84,-0.26,-1.53,-0.77,-2.07c-0.52,-0.54,-1.13,-0.8,-1.84,-0.8c-0.66,0,-1.24,0.19,-1.76,0.57c-0.52,0.38,-0.9,0.93,-1.15,1.66l-0.36,0c0.17,-1.2,0.59,-2.12,1.26,-2.77c0.67,-0.65,1.51,-0.97,2.52,-0.97c1.07,0,1.97,0.34,2.69,1.03c0.72,0.69,1.08,1.5,1.08,2.44c0,0.68,-0.16,1.35,-0.47,2.02c-0.48,1.05,-1.26,2.17,-2.34,3.36c-1.62,1.77,-2.64,2.84,-3.03,3.2l3.45,0c0.7,0,1.19,-0.03,1.48,-0.08c0.29,-0.05,0.54,-0.16,0.77,-0.32c0.23,-0.16,0.43,-0.39,0.59,-0.68l0.36,0" fill="#ff0000" stroke="none" fill-opacity="1"/>
</g>
<g stroke-linejoin="miter" stroke-width="0.62" transform="translate(153.64, 414.79)" fill="#000000">
<path d="m3.75,0c0,2.07,-1.68,3.75,-3.75,3.75c-2.07,0,-3.75,-1.68,-3.75,-3.75c0,-2.07,1.68,-3.75,3.75,-3.75c2.07,0,3.75,1.68,3.75,3.75"/>
</g>
<g stroke-linejoin="miter" stroke-width="0.62" transform="translate(246.83, 240.07)" fill="#000000">
<path d="m3.75,0c0,2.07,-1.68,3.75,-3.75,3.75c-2.07,0,-3.75,-1.68,-3.75,-3.75c0,-2.07,1.68,-3.75,3.75,-3.75c2.07,0,3.75,1.68,3.75,3.75"/>
</g>
<g stroke-linejoin="miter" stroke-width="0.62" transform="translate(340.01, 240.07)" fill="#000000">
<path d="m3.75,0c0,2.07,-1.68,3.75,-3.75,3.75c-2.07,0,-3.75,-1.68,-3.75,-3.75c0,-2.07,1.68,-3.75,3.75,-3.75c2.07,0,3.75,1.68,3.75,3.75"/>
</g>
<g stroke-linejoin="miter" stroke-width="0.62" transform="translate(433.19, 123.59)" fill="#000000">
<path d="m3.75,0c0,2.07,-1.68,3.75,-3.75,3.75c-2.07,0,-3.75,-1.68,-3.75,-3.75c0,-2.07,1.68,-3.75,3.75,-3.75c2.07,0,3.75,1.68,3.75,3.75"/>
</g>
<g stroke-width="1" fill="#000000">
<path d="m168.42,404.72l-5.12,0l-0.91,2.09c-0.22,0.51,-0.33,0.9,-0.33,1.16c0,0.2,0.1,0.37,0.29,0.52c0.19,0.15,0.61,0.25,1.24,0.3l0,0.36l-4.17,0l0,-0.36c0.55,-0.1,0.91,-0.23,1.08,-0.39c0.33,-0.31,0.7,-0.94,1.09,-1.89l4.67,-10.91l0.33,0l4.61,11.02c0.37,0.89,0.71,1.46,1.02,1.73c0.3,0.27,0.72,0.41,1.27,0.45l0,0.36l-5.22,0l0,-0.36c0.52,-0.03,0.87,-0.12,1.06,-0.27c0.19,-0.15,0.28,-0.33,0.28,-0.55c0,-0.29,-0.13,-0.74,-0.39,-1.36l-0.8,-1.91m-0.28,-0.72l-2.25,-5.36l-2.3,5.36l4.55,0m12.34,-6.73l0,2.94l2.09,0l0,0.69l-2.09,0l0,5.8c0,0.58,0.08,0.98,0.25,1.18c0.17,0.2,0.38,0.3,0.64,0.3c0.22,0,0.43,-0.07,0.63,-0.2c0.2,-0.14,0.36,-0.33,0.46,-0.59l0.39,0c-0.23,0.64,-0.55,1.11,-0.97,1.44c-0.42,0.32,-0.85,0.48,-1.3,0.48c-0.3,0,-0.6,-0.08,-0.88,-0.25c-0.29,-0.17,-0.5,-0.4,-0.63,-0.71c-0.14,-0.31,-0.2,-0.78,-0.2,-1.43l0,-6.02l-1.41,0l0,-0.31c0.35,-0.15,0.72,-0.39,1.09,-0.73c0.37,-0.34,0.71,-0.75,1,-1.22c0.15,-0.25,0.35,-0.7,0.62,-1.36l0.3,0m3.91,6.31c0,1.33,0.32,2.37,0.97,3.12c0.66,0.76,1.42,1.14,2.3,1.14c0.58,0,1.09,-0.16,1.52,-0.48c0.43,-0.32,0.8,-0.87,1.1,-1.66l0.3,0.19c-0.14,0.9,-0.53,1.71,-1.19,2.45c-0.66,0.73,-1.48,1.1,-2.47,1.1c-1.08,0,-2.01,-0.42,-2.77,-1.26c-0.76,-0.84,-1.14,-1.97,-1.14,-3.38c0,-1.53,0.39,-2.72,1.17,-3.58c0.78,-0.85,1.77,-1.28,2.95,-1.28c1,0,1.82,0.33,2.47,0.99c0.65,0.66,0.97,1.54,0.97,2.65l-6.19,0m0,-0.56l4.14,0c-0.03,-0.57,-0.1,-0.98,-0.2,-1.22c-0.16,-0.36,-0.4,-0.65,-0.72,-0.86c-0.32,-0.21,-0.66,-0.31,-1.02,-0.31c-0.54,0,-1.03,0.21,-1.45,0.63c-0.43,0.42,-0.68,1.01,-0.75,1.76m13.28,-3.06l0,3.05l-0.33,0c-0.24,-0.96,-0.55,-1.61,-0.95,-1.96c-0.39,-0.35,-0.88,-0.52,-1.48,-0.52c-0.46,0,-0.83,0.12,-1.11,0.37c-0.28,0.24,-0.42,0.51,-0.42,0.8c0,0.36,0.1,0.68,0.31,0.94c0.21,0.26,0.62,0.54,1.23,0.84l1.42,0.7c1.32,0.64,1.98,1.48,1.98,2.55c0,0.81,-0.31,1.47,-0.92,1.97c-0.61,0.5,-1.3,0.75,-2.06,0.75c-0.55,0,-1.18,-0.1,-1.87,-0.3c-0.22,-0.07,-0.4,-0.11,-0.53,-0.11c-0.15,0,-0.26,0.09,-0.34,0.27l-0.33,0l0,-3.2l0.33,0c0.18,0.92,0.52,1.61,1.04,2.07c0.52,0.46,1.09,0.7,1.73,0.7c0.45,0,0.82,-0.13,1.1,-0.4c0.29,-0.27,0.43,-0.59,0.43,-0.96c0,-0.45,-0.16,-0.83,-0.48,-1.13c-0.32,-0.31,-0.95,-0.7,-1.89,-1.16c-0.94,-0.47,-1.56,-0.89,-1.85,-1.27c-0.29,-0.36,-0.44,-0.83,-0.44,-1.41c0,-0.73,0.25,-1.34,0.75,-1.84c0.5,-0.49,1.15,-0.74,1.95,-0.74c0.35,0,0.78,0.07,1.28,0.22c0.33,0.09,0.56,0.14,0.67,0.14c0.1,0,0.18,-0.02,0.24,-0.06c0.06,-0.04,0.12,-0.14,0.2,-0.3l0.33,0m4.81,-2.69l0,2.94l2.09,0l0,0.69l-2.09,0l0,5.8c0,0.58,0.08,0.98,0.25,1.18c0.17,0.2,0.38,0.3,0.64,0.3c0.22,0,0.43,-0.07,0.63,-0.2c0.2,-0.14,0.36,-0.33,0.46,-0.59l0.39,0c-0.23,0.64,-0.55,1.11,-0.97,1.44c-0.42,0.32,-0.85,0.48,-1.3,0.48c-0.3,0,-0.6,-0.08,-0.88,-0.25c-0.29,-0.17,-0.5,-0.4,-0.63,-0.71c-0.14,-0.31,-0.2,-0.78,-0.2,-1.43l0,-6.02l-1.41,0l0,-0.31c0.35,-0.15,0.72,-0.39,1.09,-0.73c0.37,-0.34,0.71,-0.75,1,-1.22c0.15,-0.25,0.35,-0.7,0.62,-1.36l0.3,0" fill="#000000" stroke="none" fill-opacity="1"/>
<path d="m255.66,222.55l0,2.94l2.09,0l0,0.69l-2.09,0l0,5.8c0,0.58,0.08,0.98,0.25,1.18c0.17,0.2,0.38,0.3,0.64,0.3c0.22,0,0.43,-0.07,0.63,-0.2c0.2,-0.14,0.36,-0.33,0.46,-0.59l0.39,0c-0.23,0.64,-0.55,1.11,-0.97,1.44c-0.42,0.32,-0.85,0.48,-1.3,0.48c-0.3,0,-0.6,-0.08,-0.88,-0.25c-0.29,-0.17,-0.5,-0.4,-0.63,-0.71c-0.14,-0.31,-0.2,-0.78,-0.2,-1.43l0,-6.02l-1.41,0l0,-0.31c0.35,-0.15,0.72,-0.39,1.09,-0.73c0.37,-0.34,0.71,-0.75,1,-1.22c0.15,-0.25,0.35,-0.7,0.62,-1.36l0.3,0m3.91,6.31c0,1.33,0.32,2.37,0.97,3.12c0.66,0.76,1.42,1.14,2.3,1.14c0.58,0,1.09,-0.16,1.52,-0.48c0.43,-0.32,0.8,-0.87,1.1,-1.66l0.3,0.19c-0.14,0.9,-0.53,1.71,-1.19,2.45c-0.66,0.73,-1.48,1.1,-2.47,1.1c-1.08,0,-2.01,-0.42,-2.77,-1.26c-0.76,-0.84,-1.14,-1.97,-1.14,-3.38c0,-1.53,0.39,-2.72,1.17,-3.58c0.78,-0.85,1.77,-1.28,2.95,-1.28c1,0,1.82,0.33,2.47,0.99c0.65,0.66,0.97,1.54,0.97,2.65l-6.19,0m0,-0.56l4.14,0c-0.03,-0.57,-0.1,-0.98,-0.2,-1.22c-0.16,-0.36,-0.4,-0.65,-0.72,-0.86c-0.32,-0.21,-0.66,-0.31,-1.02,-0.31c-0.54,0,-1.03,0.21,-1.45,0.63c-0.43,0.42,-0.68,1.01,-0.75,1.76m13.28,-3.06l0,3.05l-0.33,0c-0.24,-0.96,-0.55,-1.61,-0.95,-1.96c-0.39,-0.35,-0.88,-0.52,-1.48,-0.52c-0.46,0,-0.83,0.12,-1.11,0.37c-0.28,0.24,-0.42,0.51,-0.42,0.8c0,0.36,0.1,0.68,0.31,0.94c0.21,0.26,0.62,0.54,1.23,0.84l1.42,0.7c1.32,0.64,1.98,1.48,1.98,2.55c0,0.81,-0.31,1.47,-0.92,1.97c-0.61,0.5,-1.3,0.75,-2.06,0.75c-0.55,0,-1.18,-0.1,-1.87,-0.3c-0.22,-0.07,-0.4,-0.11,-0.53,-0.11c-0.15,0,-0.26,0.09,-0.34,0.27l-0.33,0l0,-3.2l0.33,0c0.18,0.92,0.52,1.61,1.04,2.07c0.52,0.46,1.09,0.7,1.73,0.7c0.45,0,0.82,-0.13,1.1,-0.4c0.29,-0.27,0.43,-0.59,0.43,-0.96c0,-0.45,-0.16,-0.83,-0.48,-1.13c-0.32,-0.31,-0.95,-0.7,-1.89,-1.16c-0.94,-0.47,-1.56,-0.89,-1.85,-1.27c-0.29,-0.36,-0.44,-0.83,-0.44,-1.41c0,-0.73,0.25,-1.34,0.75,-1.84c0.5,-0.49,1.15,-0.74,1.95,-0.74c0.35,0,0.78,0.07,1.28,0.22c0.33,0.09,0.56,0.14,0.67,0.14c0.1,0,0.18,-0.02,0.24,-0.06c0.06,-0.04,0.12,-0.14,0.2,-0.3l0.33,0m4.81,-2.69l0,2.94l2.09,0l0,0.69l-2.09,0l0,5.8c0,0.58,0.08,0.98,0.25,1.18c0.17,0.2,0.38,0.3,0.64,0.3c0.22,0,0.43,-0.07,0.63,-0.2c0.2,-0.14,0.36,-0.33,0.46,-0.59l0.39,0c-0.23,0.64,-0.55,1.11,-0.97,1.44c-0.42,0.32,-0.85,0.48,-1.3,0.48c-0.3,0,-0.6,-0.08,-0.88,-0.25c-0.29,-0.17,-0.5,-0.4,-0.63,-0.71c-0.14,-0.31,-0.2,-0.78,-0.2,-1.43l0,-6.02l-1.41,0l0,-0.31c0.35,-0.15,0.72,-0.39,1.09,-0.73c0.37,-0.34,0.71,-0.75,1,-1.22c0.15,-0.25,0.35,-0.7,0.62,-1.36l0.3,0m10.95,9.34l-0.92,2.55l-7.81,0l0,-0.36c2.29,-2.09,3.91,-3.8,4.84,-5.13c0.94,-1.33,1.41,-2.54,1.41,-3.65c0,-0.84,-0.26,-1.53,-0.77,-2.07c-0.52,-0.54,-1.13,-0.8,-1.84,-0.8c-0.66,0,-1.24,0.19,-1.76,0.57c-0.52,0.38,-0.9,0.93,-1.15,1.66l-0.36,0c0.17,-1.2,0.59,-2.12,1.26,-2.77c0.67,-0.65,1.51,-0.97,2.52,-0.97c1.07,0,1.97,0.34,2.69,1.03c0.72,0.69,1.08,1.5,1.08,2.44c0,0.68,-0.16,1.35,-0.47,2.02c-0.48,1.05,-1.26,2.17,-2.34,3.36c-1.62,1.77,-2.64,2.84,-3.03,3.2l3.45,0c0.7,0,1.19,-0.03,1.48,-0.08c0.29,-0.05,0.54,-0.16,0.77,-0.32c0.23,-0.16,0.43,-0.39,0.59,-0.68l0.36,0" fill="#000000" stroke="none" fill-opacity="1"/>
<path d="m354.78,230l-5.12,0l-0.91,2.09c-0.22,0.51,-0.33,0.9,-0.33,1.16c0,0.2,0.1,0.37,0.29,0.52c0.19,0.15,0.61,0.25,1.24,0.3l0,0.36l-4.17,0l0,-0.36c0.55,-0.1,0.91,-0.23,1.08,-0.39c0.33,-0.31,0.7,-0.94,1.09,-1.89l4.67,-10.91l0.33,0l4.61,11.02c0.37,0.89,0.71,1.46,1.02,1.73c0.3,0.27,0.72,0.41,1.27,0.45l0,0.36l-5.22,0l0,-0.36c0.52,-0.03,0.87,-0.12,1.06,-0.27c0.19,-0.15,0.28,-0.33,0.28,-0.55c0,-0.29,-0.13,-0.74,-0.39,-1.36l-0.8,-1.91m-0.28,-0.72l-2.25,-5.36l-2.3,5.36l4.55,0" fill="#000000" stroke="none" fill-opacity="1"/>
<path d="m365.12,223.7l-0.55,1.53l-4.69,0l0,-0.22c1.37,-1.26,2.34,-2.29,2.91,-3.09c0.56,-0.8,0.84,-1.52,0.84,-2.18c0,-0.5,-0.15,-0.91,-0.46,-1.24c-0.31,-0.33,-0.68,-0.49,-1.12,-0.49c-0.39,0,-0.73,0.11,-1.05,0.34c-0.31,0.23,-0.54,0.57,-0.69,1.02l-0.22,0c0.1,-0.73,0.36,-1.29,0.76,-1.67c0.4,-0.39,0.9,-0.58,1.51,-0.58c0.65,0,1.18,0.21,1.62,0.62c0.43,0.41,0.65,0.9,0.65,1.46c0,0.41,-0.09,0.81,-0.28,1.22c-0.29,0.62,-0.76,1.29,-1.41,2c-0.97,1.06,-1.58,1.7,-1.83,1.92l2.08,0c0.43,0,0.72,-0.02,0.89,-0.05c0.17,-0.03,0.32,-0.09,0.46,-0.19c0.14,-0.09,0.26,-0.23,0.35,-0.41l0.22,0m0.94,-2.39c0,-0.91,0.14,-1.69,0.41,-2.34c0.27,-0.66,0.64,-1.15,1.09,-1.47c0.35,-0.25,0.72,-0.37,1.09,-0.37c0.6,0,1.15,0.31,1.64,0.94c0.6,0.76,0.91,1.8,0.91,3.12c0,0.92,-0.13,1.7,-0.4,2.34c-0.27,0.65,-0.6,1.11,-1.02,1.41c-0.41,0.29,-0.81,0.44,-1.2,0.44c-0.76,0,-1.39,-0.45,-1.89,-1.34c-0.43,-0.75,-0.64,-1.66,-0.64,-2.72m1.14,0.14c0,1.09,0.14,1.98,0.41,2.67c0.23,0.58,0.56,0.87,1,0.87c0.21,0,0.43,-0.09,0.66,-0.28c0.23,-0.19,0.4,-0.51,0.52,-0.95c0.18,-0.67,0.27,-1.61,0.27,-2.84c0,-0.91,-0.09,-1.66,-0.28,-2.27c-0.14,-0.45,-0.32,-0.77,-0.55,-0.95c-0.16,-0.12,-0.35,-0.19,-0.58,-0.19c-0.26,0,-0.49,0.12,-0.7,0.36c-0.28,0.32,-0.47,0.83,-0.58,1.52c-0.1,0.69,-0.16,1.38,-0.16,2.05m4.86,-0.14c0,-0.91,0.14,-1.69,0.41,-2.34c0.27,-0.66,0.64,-1.15,1.09,-1.47c0.35,-0.25,0.72,-0.37,1.09,-0.37c0.6,0,1.15,0.31,1.64,0.94c0.6,0.76,0.91,1.8,0.91,3.12c0,0.92,-0.13,1.7,-0.4,2.34c-0.27,0.65,-0.6,1.11,-1.02,1.41c-0.41,0.29,-0.81,0.44,-1.2,0.44c-0.76,0,-1.39,-0.45,-1.89,-1.34c-0.43,-0.75,-0.64,-1.66,-0.64,-2.72m1.14,0.14c0,1.09,0.14,1.98,0.41,2.67c0.23,0.58,0.56,0.87,1,0.87c0.21,0,0.43,-0.09,0.66,-0.28c0.23,-0.19,0.4,-0.51,0.52,-0.95c0.18,-0.67,0.27,-1.61,0.27,-2.84c0,-0.91,-0.09,-1.66,-0.28,-2.27c-0.14,-0.45,-0.32,-0.77,-0.55,-0.95c-0.16,-0.12,-0.35,-0.19,-0.58,-0.19c-0.26,0,-0.49,0.12,-0.7,0.36c-0.28,0.32,-0.47,0.83,-0.58,1.52c-0.1,0.69,-0.16,1.38,-0.16,2.05" fill="#000000" stroke="none" fill-opacity="1"/>
<path d="m446.52,109l1.66,0l-1.02,4.53c-0.19,0.85,-0.32,1.38,-0.39,1.58c0.26,1.2,0.64,1.8,1.12,1.8c0.59,0,0.9,-0.4,0.91,-1.2l0.36,0c-0.02,0.75,-0.16,1.36,-0.41,1.83c-0.26,0.47,-0.59,0.7,-1.01,0.7c-0.34,0,-0.6,-0.14,-0.77,-0.42c-0.17,-0.28,-0.36,-0.85,-0.55,-1.72c-0.68,1.43,-1.78,2.14,-3.31,2.14c-1.05,0,-1.89,-0.41,-2.51,-1.23c-0.62,-0.82,-0.93,-1.99,-0.93,-3.52c0,-1.49,0.34,-2.65,1.02,-3.48c0.68,-0.83,1.49,-1.25,2.45,-1.25c0.67,0,1.22,0.24,1.65,0.71c0.43,0.47,0.81,1.25,1.13,2.32l0.61,-2.78m-0.86,3.83c-0.31,-1.04,-0.66,-1.86,-1.03,-2.45c-0.37,-0.59,-0.83,-0.88,-1.36,-0.88c-1.19,0,-1.78,1.39,-1.78,4.17c0,2.65,0.57,3.97,1.7,3.97c0.99,0,1.72,-1.17,2.2,-3.5l0.27,-1.31" fill="#000000" stroke="none" fill-opacity="1"/>
<path d="m0,0" fill="#000000" stroke="none" fill-opacity="1"/>
<path d="m456.5,122.23l-1.61,0c0.23,-1.1,0.34,-2.1,0.34,-2.98l0,-10.64c0,-1.1,0.1,-1.93,0.3,-2.47c0.2,-0.54,0.59,-1.02,1.16,-1.44c0.58,-0.42,1.3,-0.62,2.16,-0.62c1.03,0,1.9,0.27,2.59,0.82c0.7,0.55,1.05,1.32,1.05,2.32c0,1.18,-0.56,2.14,-1.67,2.87c1.67,0.78,2.5,2.01,2.5,3.69c0,0.92,-0.22,1.73,-0.66,2.45c-0.44,0.72,-0.95,1.23,-1.52,1.54c-0.57,0.31,-1.26,0.46,-2.06,0.46c-0.92,0,-1.66,-0.34,-2.23,-1.03l0,1.81c0,1.25,-0.11,2.32,-0.34,3.22m0.34,-5.91c0.51,0.83,1.22,1.25,2.14,1.25c0.87,0,1.52,-0.32,1.93,-0.96c0.41,-0.64,0.62,-1.42,0.62,-2.34c0,-0.71,-0.14,-1.43,-0.41,-2.16c-0.27,-0.73,-0.62,-1.29,-1.05,-1.67c-0.39,0.09,-0.73,0.14,-1.05,0.14c-0.66,0,-0.98,-0.17,-0.98,-0.52c0,-0.31,0.28,-0.47,0.83,-0.47c0.34,0,0.77,0.08,1.28,0.23c0.47,-0.78,0.7,-1.63,0.7,-2.55c0,-0.82,-0.18,-1.45,-0.55,-1.88c-0.36,-0.43,-0.83,-0.65,-1.41,-0.65c-0.47,0,-0.87,0.13,-1.2,0.39c-0.33,0.26,-0.55,0.57,-0.68,0.93c-0.12,0.36,-0.19,0.95,-0.19,1.77l0,8.47" fill="#000000" stroke="none" fill-opacity="1"/>
<path d="m0,0" fill="#000000" stroke="none" fill-opacity="1"/>
<path d="m475.47,109l2,0l-3.91,8.22c0.09,0.89,0.14,1.66,0.14,2.31c0,1.82,-0.34,2.73,-1.02,2.73c-0.5,0,-0.75,-0.38,-0.75,-1.14c0,-1.01,0.36,-2.27,1.09,-3.78c-0.15,-0.94,-0.35,-2.07,-0.6,-3.39c-0.26,-1.32,-0.52,-2.27,-0.79,-2.84c-0.27,-0.57,-0.66,-0.86,-1.16,-0.86c-0.82,0,-1.26,0.61,-1.31,1.84l-0.36,0c0,-2.15,0.64,-3.22,1.92,-3.22c0.73,0,1.27,0.43,1.63,1.3c0.36,0.87,0.73,2.76,1.1,5.66l2,-6.84" fill="#000000" stroke="none" fill-opacity="1"/>
</g>
</g>
<g clip-path="url(#c0)">
<g stroke-width="0.62" stroke-linecap="butt" fill="none">
<path d="M60.46,473.03l0,-465.91"/>
<path d="M60.46,473.03l3.75,0M60.46,443.91l3.75,0M60.46,414.79l3.75,0M60.46,385.67l3.75,0M60.46,356.55l3.75,0M60.46,327.43l3.75,0M60.46,298.31l3.75,0M60.46,269.19l3.75,0M60.46,240.07l3.75,0M60.46,210.95l3.75,0M60.46,181.83l3.75,0M60.46,152.71l3.75,0M60.46,123.59l3.75,0M60.46,94.47l3.75,0M60.46,65.35l3.75,0M60.46,36.23l3.75,0M60.46,7.11l3.75,0"/>
<path d="M60.46,473.03l7.5,0M60.46,356.55l7.5,0M60.46,240.07l7.5,0M60.46,123.59l7.5,0M60.46,7.11l7.5,0"/>
<path d="M526.38,473.03l0,-465.91"/>
<path d="M526.38,473.03l-3.75,0M526.38,443.91l-3.75,0M526.38,414.79l-3.75,0M526.38,385.67l-3.75,0M526.38,356.55l-3.75,0M526.38,327.43l-3.75,0M526.38,298.31l-3.75,0M526.38,269.19l-3.75,0M526.38,240.07l-3.75,0M526.38,210.95l-3.75,0M526.38,181.83l-3.75,0M526.38,152.71l-3.75,0M526.38,123.59l-3.75,0M526.38,94.47l-3.75,0M526.38,65.35l-3.75,0M526.38,36.23l-3.75,0M526.38,7.11l-3.75,0"/>
<path d="M526.38,473.03l-7.5,0M526.38,356.55l-7.5,0M526.38,240.07l-7.5,0M526.38,123.59l-7.5,0M526.38,7.11l-7.5,0"/>
</g>
<g stroke-width="1" transform="matrix(0 -1 1 0 39.46 262.07)" fill="none">
<path d="m8.34,-11.59l4.03,0l0,0.33l-0.22,0c-0.15,0,-0.36,0.07,-0.65,0.2c-0.29,0.13,-0.55,0.32,-0.78,0.56c-0.23,0.24,-0.52,0.64,-0.85,1.2l-2.8,4.41l0,2.89c0,0.72,0.08,1.17,0.23,1.34c0.22,0.24,0.56,0.36,1.03,0.36l0.37,0l0,0.31l-4.92,0l0,-0.31l0.41,0c0.49,0,0.84,-0.15,1.05,-0.45c0.12,-0.18,0.19,-0.59,0.19,-1.25l0,-2.73l-3.19,-4.86c-0.37,-0.56,-0.63,-0.92,-0.76,-1.06c-0.13,-0.15,-0.41,-0.32,-0.84,-0.52c-0.11,-0.05,-0.28,-0.08,-0.5,-0.08l0,-0.33l4.97,0l0,0.33l-0.27,0c-0.27,0,-0.52,0.06,-0.74,0.19c-0.22,0.12,-0.34,0.31,-0.34,0.56c0,0.2,0.18,0.57,0.53,1.11l2.41,3.73l2.28,-3.58c0.34,-0.53,0.52,-0.93,0.52,-1.19c0,-0.17,-0.04,-0.31,-0.12,-0.44c-0.08,-0.12,-0.2,-0.22,-0.36,-0.29c-0.16,-0.07,-0.39,-0.1,-0.69,-0.1l0,-0.33m13.64,10.47c-0.8,0.61,-1.31,0.97,-1.52,1.08c-0.3,0.14,-0.63,0.2,-0.98,0.2c-0.54,0,-0.99,-0.18,-1.34,-0.55c-0.35,-0.37,-0.52,-0.86,-0.52,-1.46c0,-0.37,0.08,-0.7,0.25,-0.98c0.24,-0.39,0.65,-0.75,1.23,-1.09c0.58,-0.34,1.54,-0.76,2.88,-1.25l0,-0.31c0,-0.78,-0.12,-1.32,-0.37,-1.6c-0.25,-0.29,-0.61,-0.43,-1.08,-0.43c-0.36,0,-0.65,0.09,-0.86,0.28c-0.22,0.2,-0.33,0.42,-0.33,0.67l0.02,0.5c0,0.26,-0.07,0.46,-0.2,0.6c-0.13,0.14,-0.3,0.21,-0.52,0.21c-0.21,0,-0.38,-0.07,-0.52,-0.22c-0.14,-0.15,-0.2,-0.35,-0.2,-0.61c0,-0.49,0.25,-0.94,0.75,-1.35c0.5,-0.41,1.2,-0.62,2.11,-0.62c0.7,0,1.27,0.12,1.72,0.36c0.33,0.18,0.58,0.45,0.73,0.83c0.1,0.24,0.16,0.74,0.16,1.5l0,2.66c0,0.75,0.02,1.21,0.05,1.37c0.03,0.17,0.08,0.28,0.14,0.34c0.06,0.06,0.14,0.09,0.22,0.09c0.09,0,0.18,-0.02,0.25,-0.06c0.11,-0.07,0.34,-0.28,0.69,-0.62l0,0.48c-0.64,0.85,-1.24,1.28,-1.83,1.28c-0.28,0,-0.51,-0.1,-0.67,-0.29c-0.17,-0.19,-0.25,-0.52,-0.25,-0.99m0,-0.56l0,-2.98c-0.86,0.34,-1.42,0.59,-1.67,0.73c-0.45,0.25,-0.77,0.51,-0.96,0.78c-0.19,0.27,-0.29,0.57,-0.29,0.91c0,0.41,0.12,0.74,0.37,1.02c0.24,0.27,0.52,0.41,0.84,0.41c0.44,0,1.01,-0.29,1.72,-0.86m3.25,-6.14l3.67,0l0,0.31c-0.23,0,-0.39,0.04,-0.48,0.12c-0.09,0.08,-0.14,0.19,-0.14,0.31c0,0.14,0.1,0.35,0.3,0.64c0.06,0.08,0.16,0.22,0.28,0.42l0.56,0.89l0.64,-0.89c0.41,-0.56,0.61,-0.92,0.61,-1.06c0,-0.12,-0.05,-0.23,-0.14,-0.31c-0.09,-0.08,-0.25,-0.12,-0.47,-0.12l0,-0.31l2.64,0l0,0.31c-0.28,0.02,-0.52,0.1,-0.72,0.23c-0.28,0.2,-0.66,0.62,-1.14,1.27l-1.08,1.42l1.95,2.81c0.48,0.69,0.82,1.1,1.02,1.24c0.2,0.14,0.47,0.22,0.79,0.23l0,0.31l-3.69,0l0,-0.31c0.26,0,0.46,-0.06,0.59,-0.17c0.11,-0.07,0.17,-0.18,0.17,-0.31c0,-0.12,-0.18,-0.45,-0.55,-0.98l-1.16,-1.67l-1.25,1.67c-0.39,0.51,-0.58,0.82,-0.58,0.92c0,0.14,0.07,0.26,0.2,0.37c0.13,0.11,0.32,0.17,0.57,0.18l0,0.31l-2.55,0l0,-0.31c0.2,-0.02,0.37,-0.09,0.53,-0.2c0.22,-0.17,0.58,-0.59,1.09,-1.27l1.64,-2.19l-1.48,-2.16c-0.43,-0.61,-0.76,-1,-0.98,-1.16c-0.23,-0.16,-0.52,-0.23,-0.86,-0.23l0,-0.31m10.3,-4.33c0.24,0,0.45,0.09,0.62,0.26c0.17,0.17,0.26,0.38,0.26,0.62c0,0.24,-0.09,0.44,-0.26,0.61c-0.17,0.17,-0.38,0.25,-0.62,0.25c-0.24,0,-0.44,-0.08,-0.61,-0.25c-0.17,-0.17,-0.25,-0.37,-0.25,-0.61c0,-0.24,0.08,-0.45,0.25,-0.62c0.17,-0.17,0.37,-0.26,0.61,-0.26m0.72,4.09l0,6.3c0,0.49,0.03,0.82,0.1,0.98c0.07,0.16,0.17,0.28,0.31,0.36c0.14,0.08,0.4,0.12,0.77,0.12l0,0.31l-3.81,0l0,-0.31c0.39,0,0.64,-0.04,0.77,-0.11c0.13,-0.07,0.23,-0.2,0.31,-0.37c0.08,-0.17,0.12,-0.5,0.12,-0.98l0,-3.02c0,-0.85,-0.03,-1.41,-0.08,-1.66c-0.04,-0.18,-0.1,-0.3,-0.19,-0.37c-0.08,-0.07,-0.2,-0.11,-0.34,-0.11c-0.17,0,-0.36,0.04,-0.59,0.12l-0.11,-0.3l2.36,-0.97l0.37,0m6.36,0l0,2.67l-0.28,0c-0.22,-0.83,-0.5,-1.4,-0.84,-1.7c-0.34,-0.3,-0.77,-0.45,-1.29,-0.45c-0.41,0,-0.73,0.1,-0.98,0.31c-0.24,0.21,-0.37,0.44,-0.37,0.7c0,0.31,0.09,0.58,0.28,0.81c0.18,0.24,0.54,0.49,1.08,0.75l1.23,0.61c1.16,0.56,1.73,1.3,1.73,2.22c0,0.72,-0.27,1.29,-0.8,1.73c-0.54,0.43,-1.14,0.65,-1.8,0.65c-0.48,0,-1.03,-0.08,-1.64,-0.25c-0.19,-0.06,-0.34,-0.09,-0.45,-0.09c-0.14,0,-0.24,0.08,-0.31,0.23l-0.28,0l0,-2.8l0.28,0c0.16,0.79,0.46,1.39,0.91,1.8c0.45,0.41,0.96,0.61,1.51,0.61c0.4,0,0.72,-0.11,0.97,-0.34c0.25,-0.23,0.37,-0.51,0.37,-0.83c0,-0.4,-0.14,-0.73,-0.41,-1c-0.28,-0.27,-0.83,-0.61,-1.66,-1.02c-0.83,-0.41,-1.37,-0.78,-1.63,-1.11c-0.25,-0.32,-0.37,-0.73,-0.37,-1.23c0,-0.65,0.22,-1.18,0.66,-1.62c0.44,-0.43,1.01,-0.65,1.72,-0.65c0.3,0,0.67,0.07,1.11,0.2c0.29,0.08,0.49,0.12,0.59,0.12c0.08,0,0.15,-0.02,0.2,-0.06c0.05,-0.04,0.11,-0.13,0.19,-0.27l0.28,0" fill="#000000" stroke="none" fill-opacity="1"/>
</g>
<g stroke-width="1" fill="none">
<path d="m49.08,473.3c0,-1.32,0.2,-2.46,0.6,-3.41c0.4,-0.95,0.93,-1.66,1.59,-2.13c0.52,-0.37,1.05,-0.56,1.59,-0.56c0.9,0,1.69,0.45,2.39,1.36c0.89,1.12,1.33,2.65,1.33,4.56c0,1.34,-0.19,2.49,-0.58,3.43c-0.39,0.94,-0.88,1.62,-1.48,2.05c-0.6,0.42,-1.18,0.63,-1.73,0.63c-1.1,0,-2.03,-0.65,-2.77,-1.95c-0.62,-1.1,-0.94,-2.43,-0.94,-3.97m1.69,0.2c0,1.59,0.19,2.9,0.58,3.91c0.33,0.85,0.82,1.28,1.45,1.28c0.31,0,0.63,-0.14,0.96,-0.41c0.33,-0.28,0.58,-0.74,0.76,-1.4c0.26,-0.98,0.39,-2.36,0.39,-4.14c0,-1.32,-0.14,-2.43,-0.41,-3.31c-0.21,-0.65,-0.47,-1.11,-0.8,-1.39c-0.24,-0.19,-0.52,-0.28,-0.84,-0.28c-0.4,0,-0.74,0.18,-1.05,0.53c-0.41,0.47,-0.68,1.21,-0.83,2.23c-0.15,1.02,-0.22,2.01,-0.22,2.99" fill="#000000" stroke="none" fill-opacity="1"/>
<path d="m56.48,360.31l-0.81,2.23l-6.84,0l0,-0.31c2.01,-1.83,3.43,-3.33,4.25,-4.49c0.82,-1.16,1.23,-2.23,1.23,-3.2c0,-0.73,-0.23,-1.33,-0.68,-1.8c-0.45,-0.47,-0.99,-0.71,-1.62,-0.71c-0.57,0,-1.09,0.17,-1.54,0.5c-0.45,0.33,-0.78,0.82,-0.99,1.47l-0.33,0c0.15,-1.06,0.51,-1.87,1.1,-2.44c0.59,-0.56,1.33,-0.84,2.21,-0.84c0.94,0,1.72,0.3,2.35,0.91c0.63,0.6,0.95,1.32,0.95,2.14c0,0.58,-0.14,1.17,-0.41,1.75c-0.43,0.93,-1.11,1.91,-2.05,2.94c-1.43,1.55,-2.31,2.48,-2.66,2.8l3.02,0c0.61,0,1.05,-0.02,1.3,-0.06c0.25,-0.04,0.47,-0.13,0.67,-0.27c0.2,-0.14,0.37,-0.34,0.52,-0.6l0.33,0" fill="#000000" stroke="none" fill-opacity="1"/>
<path d="m56.59,241.8l0,1.2l-1.55,0l0,3.06l-1.42,0l0,-3.06l-4.89,0l0,-1.09l5.36,-7.67l0.95,0l0,7.56l1.55,0m-2.97,0l0,-5.75l-4.06,5.75l4.06,0" fill="#000000" stroke="none" fill-opacity="1"/>
<path d="m56.3,117.75l0,0.31c-0.75,0.07,-1.36,0.22,-1.84,0.45c-0.47,0.23,-0.95,0.57,-1.41,1.03c-0.47,0.46,-0.85,0.97,-1.16,1.54c-0.3,0.57,-0.56,1.24,-0.77,2.02c0.82,-0.56,1.65,-0.84,2.47,-0.84c0.79,0,1.48,0.32,2.06,0.95c0.58,0.64,0.87,1.46,0.87,2.47c0,0.97,-0.3,1.85,-0.89,2.64c-0.7,0.97,-1.63,1.45,-2.8,1.45c-0.79,0,-1.46,-0.26,-2.02,-0.78c-1.08,-1.02,-1.62,-2.34,-1.62,-3.97c0,-1.03,0.21,-2.02,0.62,-2.95c0.42,-0.94,1.01,-1.77,1.78,-2.49c0.77,-0.72,1.51,-1.21,2.22,-1.46c0.71,-0.25,1.36,-0.37,1.97,-0.37l0.5,0m-5.31,5.98c-0.1,0.77,-0.16,1.39,-0.16,1.86c0,0.55,0.1,1.15,0.3,1.79c0.2,0.64,0.5,1.15,0.9,1.52c0.29,0.26,0.65,0.39,1.06,0.39c0.5,0,0.94,-0.23,1.33,-0.7c0.39,-0.46,0.58,-1.13,0.58,-1.99c0,-0.98,-0.19,-1.83,-0.58,-2.54c-0.39,-0.71,-0.93,-1.07,-1.64,-1.07c-0.22,0,-0.45,0.05,-0.7,0.14c-0.25,0.09,-0.61,0.29,-1.09,0.59" fill="#000000" stroke="none" fill-opacity="1"/>
<path d="m51.81,10.16c-0.92,-0.75,-1.51,-1.35,-1.77,-1.8c-0.27,-0.45,-0.4,-0.92,-0.4,-1.41c0,-0.75,0.29,-1.4,0.87,-1.95c0.58,-0.55,1.35,-0.82,2.31,-0.82c0.94,0,1.69,0.25,2.26,0.76c0.57,0.51,0.85,1.09,0.85,1.74c0,0.43,-0.15,0.87,-0.46,1.32c-0.31,0.45,-0.95,0.98,-1.93,1.59c1.01,0.78,1.68,1.39,2,1.83c0.43,0.58,0.64,1.2,0.64,1.84c0,0.81,-0.31,1.51,-0.93,2.09c-0.62,0.58,-1.43,0.87,-2.45,0.87c-1.09,0,-1.95,-0.34,-2.56,-1.03c-0.49,-0.55,-0.73,-1.16,-0.73,-1.81c0,-0.51,0.17,-1.02,0.52,-1.52c0.34,-0.51,0.94,-1.07,1.78,-1.68m1.34,-0.91c0.68,-0.61,1.11,-1.1,1.29,-1.45c0.18,-0.35,0.27,-0.76,0.27,-1.22c0,-0.59,-0.17,-1.06,-0.5,-1.4c-0.33,-0.34,-0.79,-0.51,-1.37,-0.51c-0.58,0,-1.06,0.17,-1.42,0.5c-0.36,0.33,-0.55,0.73,-0.55,1.19c0,0.29,0.08,0.59,0.23,0.88c0.15,0.3,0.37,0.58,0.65,0.85l1.41,1.16m-0.94,1.23c-0.48,0.41,-0.83,0.84,-1.06,1.31c-0.23,0.47,-0.34,0.97,-0.34,1.52c0,0.74,0.2,1.33,0.61,1.77c0.41,0.44,0.92,0.66,1.53,0.66c0.61,0,1.11,-0.17,1.48,-0.52c0.37,-0.35,0.55,-0.77,0.55,-1.27c0,-0.41,-0.1,-0.77,-0.31,-1.09c-0.41,-0.6,-1.22,-1.4,-2.45,-2.37" fill="#000000" stroke="none" fill-opacity="1"/>
</g>
<g stroke-width="0.62" stroke-linecap="butt" fill="none">
<path d="M60.46,473.03l465.91,0"/>
<path d="M60.46,473.03l0,-3.75M79.1,473.03l0,-3.75M97.74,473.03l0,-3.75M116.37,473.03l0,-3.75M135.01,473.03l0,-3.75M153.64,473.03l0,-3.75M172.28,473.03l0,-3.75M190.92,473.03l0,-3.75M209.55,473.03l0,-3.75M228.19,473.03l0,-3.75M246.83,473.03l0,-3.75M265.46,473.03l0,-3.75M284.1,473.03l0,-3.75M302.74,473.03l0,-3.75M321.37,473.03l0,-3.75M340.01,473.03l0,-3.75M358.65,473.03l0,-3.75M377.28,473.03l0,-3.75M395.92,473.03l0,-3.75M414.56,473.03l0,-3.75M433.19,473.03l0,-3.75M451.83,473.03l0,-3.75M470.47,473.03l0,-3.75M489.1,473.03l0,-3.75M507.74,473.03l0,-3.75M526.38,473.03l0,-3.75"/>
<path d="M60.46,473.03l0,-7.5M153.64,473.03l0,-7.5M246.83,473.03l0,-7.5M340.01,473.03l0,-7.5M433.19,473.03l0,-7.5M526.38,473.03l0,-7.5"/>
<path d="M60.46,7.11l465.91,0"/>
<path d="M60.46,7.11l0,3.75M79.1,7.11l0,3.75M97.74,7.11l0,3.75M116.37,7.11l0,3.75M135.01,7.11l0,3.75M153.64,7.11l0,3.75M172.28,7.11l0,3.75M190.92,7.11l0,3.75M209.55,7.11l0,3.75M228.19,7.11l0,3.75M246.83,7.11l0,3.75M265.46,7.11l0,3.75M284.1,7.11l0,3.75M302.74,7.11l0,3.75M321.37,7.11l0,3.75M340.01,7.11l0,3.75M358.65,7.11l0,3.75M377.28,7.11l0,3.75M395.92,7.11l0,3.75M414.56,7.11l0,3.75M433.19,7.11l0,3.75M451.83,7.11l0,3.75M470.47,7.11l0,3.75M489.1,7.11l0,3.75M507.74,7.11l0,3.75M526.38,7.11l0,3.75"/>
<path d="M60.46,7.11l0,7.5M153.64,7.11l0,7.5M246.83,7.11l0,7.5M340.01,7.11l0,7.5M433.19,7.11l0,7.5M526.38,7.11l0,7.5"/>
</g>
<g stroke-width="1" fill="none">
<path d="m278.05,507.59l2.48,3.72c0.7,1.02,1.21,1.67,1.54,1.94c0.33,0.27,0.75,0.42,1.27,0.45l0,0.31l-4.98,0l0,-0.31c0.33,-0.01,0.58,-0.05,0.73,-0.11c0.12,-0.05,0.23,-0.13,0.3,-0.23c0.08,-0.1,0.12,-0.21,0.12,-0.31c0,-0.14,-0.03,-0.27,-0.08,-0.41c-0.04,-0.09,-0.2,-0.34,-0.47,-0.75l-1.97,-2.97l-2.42,3.11c-0.26,0.33,-0.42,0.55,-0.47,0.66c-0.05,0.11,-0.08,0.23,-0.08,0.35c0,0.18,0.08,0.33,0.23,0.45c0.16,0.12,0.45,0.19,0.87,0.21l0,0.31l-4.11,0l0,-0.31c0.29,-0.03,0.54,-0.09,0.75,-0.19c0.35,-0.15,0.69,-0.34,1.01,-0.59c0.32,-0.25,0.68,-0.64,1.1,-1.16l2.73,-3.45l-2.28,-3.34c-0.62,-0.91,-1.15,-1.5,-1.59,-1.78c-0.43,-0.28,-0.93,-0.43,-1.49,-0.44l0,-0.33l5.36,0l0,0.33c-0.46,0.01,-0.77,0.08,-0.94,0.21c-0.17,0.13,-0.25,0.28,-0.25,0.45c0,0.21,0.14,0.52,0.41,0.92l1.78,2.66l2.06,-2.61c0.24,-0.3,0.39,-0.51,0.44,-0.62c0.05,-0.11,0.08,-0.23,0.08,-0.36c0,-0.11,-0.04,-0.22,-0.11,-0.31c-0.08,-0.11,-0.19,-0.2,-0.32,-0.25c-0.13,-0.05,-0.4,-0.08,-0.8,-0.08l0,-0.33l4.11,0l0,0.33c-0.32,0.01,-0.59,0.06,-0.8,0.16c-0.31,0.12,-0.6,0.3,-0.85,0.52c-0.26,0.22,-0.62,0.63,-1.09,1.23l-2.3,2.94m15.84,5.3c-0.8,0.61,-1.31,0.97,-1.52,1.08c-0.3,0.14,-0.63,0.2,-0.98,0.2c-0.54,0,-0.99,-0.18,-1.34,-0.55c-0.35,-0.37,-0.52,-0.86,-0.52,-1.46c0,-0.37,0.08,-0.7,0.25,-0.98c0.24,-0.39,0.65,-0.75,1.23,-1.09c0.58,-0.34,1.54,-0.76,2.88,-1.25l0,-0.31c0,-0.78,-0.12,-1.32,-0.37,-1.6c-0.25,-0.29,-0.61,-0.43,-1.08,-0.43c-0.36,0,-0.65,0.09,-0.86,0.28c-0.22,0.2,-0.33,0.42,-0.33,0.67l0.02,0.5c0,0.26,-0.07,0.46,-0.2,0.6c-0.13,0.14,-0.3,0.21,-0.52,0.21c-0.21,0,-0.38,-0.07,-0.52,-0.22c-0.14,-0.15,-0.2,-0.35,-0.2,-0.61c0,-0.49,0.25,-0.94,0.75,-1.35c0.5,-0.41,1.2,-0.62,2.11,-0.62c0.7,0,1.27,0.12,1.72,0.36c0.33,0.18,0.58,0.45,0.73,0.83c0.1,0.24,0.16,0.74,0.16,1.5l0,2.66c0,0.75,0.02,1.21,0.05,1.37c0.03,0.17,0.08,0.28,0.14,0.34c0.06,0.06,0.14,0.09,0.22,0.09c0.09,0,0.18,-0.02,0.25,-0.06c0.11,-0.07,0.34,-0.28,0.69,-0.62l0,0.48c-0.64,0.85,-1.24,1.28,-1.83,1.28c-0.28,0,-0.51,-0.1,-0.67,-0.29c-0.17,-0.19,-0.25,-0.52,-0.25,-0.99m0,-0.56l0,-2.98c-0.86,0.34,-1.42,0.59,-1.67,0.73c-0.45,0.25,-0.77,0.51,-0.96,0.78c-0.19,0.27,-0.29,0.57,-0.29,0.91c0,0.41,0.12,0.74,0.37,1.02c0.24,0.27,0.52,0.41,0.84,0.41c0.44,0,1.01,-0.29,1.72,-0.86m3.25,-6.14l3.67,0l0,0.31c-0.23,0,-0.39,0.04,-0.48,0.12c-0.09,0.08,-0.14,0.19,-0.14,0.31c0,0.14,0.1,0.35,0.3,0.64c0.06,0.08,0.16,0.22,0.28,0.42l0.56,0.89l0.64,-0.89c0.41,-0.56,0.61,-0.92,0.61,-1.06c0,-0.12,-0.05,-0.23,-0.14,-0.31c-0.09,-0.08,-0.25,-0.12,-0.47,-0.12l0,-0.31l2.64,0l0,0.31c-0.28,0.02,-0.52,0.1,-0.72,0.23c-0.28,0.2,-0.66,0.62,-1.14,1.27l-1.08,1.42l1.95,2.81c0.48,0.69,0.82,1.1,1.02,1.24c0.2,0.14,0.47,0.22,0.79,0.23l0,0.31l-3.69,0l0,-0.31c0.26,0,0.46,-0.06,0.59,-0.17c0.11,-0.07,0.17,-0.18,0.17,-0.31c0,-0.12,-0.18,-0.45,-0.55,-0.98l-1.16,-1.67l-1.25,1.67c-0.39,0.51,-0.58,0.82,-0.58,0.92c0,0.14,0.07,0.26,0.2,0.37c0.13,0.11,0.32,0.17,0.57,0.18l0,0.31l-2.55,0l0,-0.31c0.2,-0.02,0.37,-0.09,0.53,-0.2c0.22,-0.17,0.58,-0.59,1.09,-1.27l1.64,-2.19l-1.48,-2.16c-0.43,-0.61,-0.76,-1,-0.98,-1.16c-0.23,-0.16,-0.52,-0.23,-0.86,-0.23l0,-0.31m10.3,-4.33c0.24,0,0.45,0.09,0.62,0.26c0.17,0.17,0.26,0.38,0.26,0.62c0,0.24,-0.09,0.44,-0.26,0.61c-0.17,0.17,-0.38,0.25,-0.62,0.25c-0.24,0,-0.44,-0.08,-0.61,-0.25c-0.17,-0.17,-0.25,-0.37,-0.25,-0.61c0,-0.24,0.08,-0.45,0.25,-0.62c0.17,-0.17,0.37,-0.26,0.61,-0.26m0.72,4.09l0,6.3c0,0.49,0.03,0.82,0.1,0.98c0.07,0.16,0.17,0.28,0.31,0.36c0.14,0.08,0.4,0.12,0.77,0.12l0,0.31l-3.81,0l0,-0.31c0.39,0,0.64,-0.04,0.77,-0.11c0.13,-0.07,0.23,-0.2,0.31,-0.37c0.08,-0.17,0.12,-0.5,0.12,-0.98l0,-3.02c0,-0.85,-0.03,-1.41,-0.08,-1.66c-0.04,-0.18,-0.1,-0.3,-0.19,-0.37c-0.08,-0.07,-0.2,-0.11,-0.34,-0.11c-0.17,0,-0.36,0.04,-0.59,0.12l-0.11,-0.3l2.36,-0.97l0.37,0m6.36,0l0,2.67l-0.28,0c-0.22,-0.83,-0.5,-1.4,-0.84,-1.7c-0.34,-0.3,-0.77,-0.45,-1.29,-0.45c-0.41,0,-0.73,0.1,-0.98,0.31c-0.24,0.21,-0.37,0.44,-0.37,0.7c0,0.31,0.09,0.58,0.28,0.81c0.18,0.24,0.54,0.49,1.08,0.75l1.23,0.61c1.16,0.56,1.73,1.3,1.73,2.22c0,0.72,-0.27,1.29,-0.8,1.73c-0.54,0.43,-1.14,0.65,-1.8,0.65c-0.48,0,-1.03,-0.08,-1.64,-0.25c-0.19,-0.06,-0.34,-0.09,-0.45,-0.09c-0.14,0,-0.24,0.08,-0.31,0.23l-0.28,0l0,-2.8l0.28,0c0.16,0.79,0.46,1.39,0.91,1.8c0.45,0.41,0.96,0.61,1.51,0.61c0.4,0,0.72,-0.11,0.97,-0.34c0.25,-0.23,0.37,-0.51,0.37,-0.83c0,-0.4,-0.14,-0.73,-0.41,-1c-0.28,-0.27,-0.83,-0.61,-1.66,-1.02c-0.83,-0.41,-1.37,-0.78,-1.63,-1.11c-0.25,-0.32,-0.37,-0.73,-0.37,-1.23c0,-0.65,0.22,-1.18,0.66,-1.62c0.44,-0.43,1.01,-0.65,1.72,-0.65c0.3,0,0.67,0.07,1.11,0.2c0.29,0.08,0.49,0.12,0.59,0.12c0.08,0,0.15,-0.02,0.2,-0.06c0.05,-0.04,0.11,-0.13,0.19,-0.27l0.28,0" fill="#000000" stroke="none" fill-opacity="1"/>
<path d="m56.58,486.3c0,-1.32,0.2,-2.46,0.6,-3.41c0.4,-0.95,0.93,-1.66,1.59,-2.13c0.52,-0.37,1.05,-0.56,1.59,-0.56c0.9,0,1.69,0.45,2.39,1.36c0.89,1.12,1.33,2.65,1.33,4.56c0,1.34,-0.19,2.49,-0.58,3.43c-0.39,0.94,-0.88,1.62,-1.48,2.05c-0.6,0.42,-1.18,0.63,-1.73,0.63c-1.1,0,-2.03,-0.65,-2.77,-1.95c-0.62,-1.1,-0.94,-2.43,-0.94,-3.97m1.69,0.2c0,1.59,0.19,2.9,0.58,3.91c0.33,0.85,0.82,1.28,1.45,1.28c0.31,0,0.63,-0.14,0.96,-0.41c0.33,-0.28,0.58,-0.74,0.76,-1.4c0.26,-0.98,0.39,-2.36,0.39,-4.14c0,-1.32,-0.14,-2.43,-0.41,-3.31c-0.21,-0.65,-0.47,-1.11,-0.8,-1.39c-0.24,-0.19,-0.52,-0.28,-0.84,-0.28c-0.4,0,-0.74,0.18,-1.05,0.53c-0.41,0.47,-0.68,1.21,-0.83,2.23c-0.15,1.02,-0.22,2.01,-0.22,2.99" fill="#000000" stroke="none" fill-opacity="1"/>
<path d="m151.19,481.56l2.83,-1.37l0.28,0l0,9.78c0,0.66,0.03,1.06,0.08,1.22c0.05,0.16,0.16,0.28,0.34,0.37c0.17,0.09,0.52,0.14,1.04,0.15l0,0.31l-4.36,0l0,-0.31c0.55,-0.01,0.91,-0.06,1.07,-0.14c0.16,-0.08,0.27,-0.2,0.34,-0.34c0.06,-0.14,0.09,-0.56,0.09,-1.26l0,-6.25c0,-0.84,-0.03,-1.39,-0.09,-1.62c-0.04,-0.18,-0.11,-0.31,-0.22,-0.4c-0.1,-0.09,-0.23,-0.13,-0.37,-0.13c-0.21,0,-0.51,0.09,-0.89,0.27l-0.12,-0.27" fill="#000000" stroke="none" fill-opacity="1"/>
<path d="m250.34,489.78l-0.81,2.23l-6.84,0l0,-0.31c2.01,-1.83,3.43,-3.33,4.25,-4.49c0.82,-1.16,1.23,-2.23,1.23,-3.2c0,-0.73,-0.23,-1.33,-0.68,-1.8c-0.45,-0.47,-0.99,-0.71,-1.62,-0.71c-0.57,0,-1.09,0.17,-1.54,0.5c-0.45,0.33,-0.78,0.82,-0.99,1.47l-0.33,0c0.15,-1.06,0.51,-1.87,1.1,-2.44c0.59,-0.56,1.33,-0.84,2.21,-0.84c0.94,0,1.72,0.3,2.35,0.91c0.63,0.6,0.95,1.32,0.95,2.14c0,0.58,-0.14,1.17,-0.41,1.75c-0.43,0.93,-1.11,1.91,-2.05,2.94c-1.43,1.55,-2.31,2.48,-2.66,2.8l3.02,0c0.61,0,1.05,-0.02,1.3,-0.06c0.25,-0.04,0.47,-0.13,0.67,-0.27c0.2,-0.14,0.37,-0.34,0.52,-0.6l0.33,0" fill="#000000" stroke="none" fill-opacity="1"/>
<path d="m336.39,482.64c0.33,-0.78,0.75,-1.39,1.25,-1.81c0.5,-0.43,1.13,-0.64,1.89,-0.64c0.93,0,1.64,0.3,2.12,0.91c0.37,0.45,0.56,0.93,0.56,1.45c0,0.83,-0.53,1.7,-1.58,2.61c0.71,0.28,1.24,0.68,1.61,1.2c0.36,0.52,0.55,1.12,0.55,1.82c0,1.01,-0.32,1.88,-0.95,2.61c-0.83,0.96,-2.04,1.44,-3.62,1.44c-0.77,0,-1.3,-0.1,-1.59,-0.29c-0.29,-0.19,-0.43,-0.4,-0.43,-0.62c0,-0.17,0.07,-0.31,0.2,-0.44c0.14,-0.12,0.3,-0.19,0.48,-0.19c0.15,0,0.29,0.02,0.44,0.06c0.09,0.03,0.31,0.14,0.66,0.31c0.34,0.18,0.58,0.29,0.72,0.33c0.21,0.06,0.43,0.09,0.67,0.09c0.58,0,1.09,-0.23,1.52,-0.68c0.43,-0.45,0.64,-0.99,0.64,-1.6c0,-0.45,-0.1,-0.89,-0.3,-1.31c-0.15,-0.32,-0.31,-0.57,-0.48,-0.73c-0.25,-0.23,-0.59,-0.43,-1.02,-0.62c-0.43,-0.18,-0.86,-0.27,-1.3,-0.27l-0.28,0l0,-0.25c0.45,-0.06,0.9,-0.23,1.35,-0.49c0.45,-0.27,0.78,-0.59,0.99,-0.97c0.21,-0.38,0.31,-0.79,0.31,-1.24c0,-0.58,-0.18,-1.06,-0.55,-1.42c-0.37,-0.36,-0.83,-0.55,-1.37,-0.55c-0.89,0,-1.62,0.47,-2.22,1.42l-0.28,-0.12" fill="#000000" stroke="none" fill-opacity="1"/>
<path d="m436.83,487.75l0,1.2l-1.55,0l0,3.06l-1.42,0l0,-3.06l-4.89,0l0,-1.09l5.36,-7.67l0.95,0l0,7.56l1.55,0m-2.97,0l0,-5.75l-4.06,5.75l4.06,0" fill="#000000" stroke="none" fill-opacity="1"/>
<path d="m529.47,480.42l-0.66,1.45l-3.5,0l-0.75,1.56c1.51,0.22,2.7,0.78,3.58,1.69c0.76,0.77,1.14,1.68,1.14,2.73c0,0.6,-0.12,1.17,-0.37,1.69c-0.24,0.52,-0.56,0.96,-0.94,1.33c-0.38,0.36,-0.8,0.66,-1.26,0.87c-0.66,0.31,-1.33,0.47,-2.02,0.47c-0.7,0,-1.2,-0.12,-1.52,-0.35c-0.31,-0.23,-0.47,-0.5,-0.47,-0.79c0,-0.16,0.07,-0.29,0.2,-0.41c0.13,-0.12,0.29,-0.18,0.49,-0.18c0.15,0,0.27,0.02,0.38,0.06c0.11,0.04,0.3,0.16,0.57,0.34c0.43,0.3,0.86,0.45,1.3,0.45c0.67,0,1.25,-0.25,1.76,-0.76c0.51,-0.51,0.76,-1.12,0.76,-1.84c0,-0.71,-0.22,-1.36,-0.67,-1.97c-0.45,-0.6,-1.07,-1.07,-1.86,-1.41c-0.62,-0.26,-1.47,-0.41,-2.55,-0.44l2.22,-4.52l4.16,0" fill="#000000" stroke="none" fill-opacity="1"/>
</g>
</g>
</g>
<defs>
<clipPath id="c0"><path d="m0,0l533.49,0l0,533.49l-533.49,0l0,-533.49"/></clipPath>
<clipPath id="c1"><path d="m60.46,7.11l465.91,0l0,465.91l-465.91,0l0,-465.91"/></clipPath>
</defs>
</svg>
