<?xml version="1.0" standalone="no"?>
<!DOCTYPE svg PUBLIC "-//W3C//DTD SVG 1.1//EN" 
  "http://www.w3.org/Graphics/SVG/1.1/DTD/svg11.dtd">
<svg width="533.49px" height="533.49px" version="1.1"
     xmlns="http://www.w3.org/2000/svg"
     xmlns:xlink="http://www.w3.org/1999/xlink">
<desc>Veusz output document</desc>
<g stroke-linejoin="bevel" stroke-linecap="square" stroke="#000000" fill-rule="evenodd">
<g clip-path="url(#c0)">
<g stroke-width="0.62" fill="#ffffff">
<path d="m60.46,7.11l465.91,0l0,465.91l-465.91,0l0,-465.91"/>
</g>
</g>
<g clip-path="url(#c1)">
<g stroke="#808080" stroke-width="0.62" fill="none">
<polyline fill="none" points="278.86,68.96 275.94,34.74"/>
</g>
<g stroke-linejoin="miter" stroke-width="0.62" transform="translate(278.86, 68.96)" fill="#800080">
<path d="m0,-6.25l0,6.25l6.25,0l0,-6.25l6.25,6.25l-6.25,6.25l0,-6.25l-6.25,0l0,6.25l0,-12.5"/>
</g>
<g stroke-linejoin="miter" stroke-width="0.62" transform="translate(275.94, 34.74)" fill="#800080">
<path d="m0,-6.25l0,6.25l6.25,0l0,-6.25l6.25,6.25l-6.25,6.25l0,-6.25l-6.25,0l0,6.25l0,-12.5"/>
</g>
<g stroke="#808080" stroke-width="0.62" fill="none">
<polyline fill="none" points="265.77,78.83 260.24,46.58"/>
</g>
<g stroke-linejoin="miter" stroke-width="0.62" transform="translate(265.77, 78.83)" fill="#90ee90">
<path d="m0,-6.25l0,6.25l-6.25,0l0,-6.25l-6.25,6.25l6.25,6.25l0,-6.25l6.25,0l0,6.25l0,-12.5"/>
</g>
<g stroke-linejoin="miter" stroke-width="0.62" transform="translate(260.24, 46.58)" fill="#90ee90">
<path d="m0,-6.25l0,6.25l-6.25,0l0,-6.25l-6.25,6.25l6.25,6.25l0,-6.25l6.25,0l0,6.25l0,-12.5"/>
</g>
<g stroke="#808080" stroke-width="0.62" fill="none">
<polyline fill="none" points="251.7,79.85 243.36,47.8"/>
</g>
<g stroke-linejoin="miter" stroke-width="0.62" transform="translate(251.7, 79.85)" fill="#00ffff">
<path d="m-6.25,0l6.25,0l0,6.25l-6.25,0l6.25,6.25l6.25,-6.25l-6.25,0l0,-6.25l6.25,0l-12.5,0"/>
</g>
<g stroke-linejoin="miter" stroke-width="0.62" transform="translate(243.36, 47.8)" fill="#00ffff">
<path d="m-6.25,0l6.25,0l0,6.25l-6.25,0l6.25,6.25l6.25,-6.25l-6.25,0l0,-6.25l6.25,0l-12.5,0"/>
</g>
<g stroke="#808080" stroke-width="0.62" fill="none">
<polyline fill="none" points="234.53,73.4 222.75,40.06"/>
</g>
<g stroke-linejoin="miter" stroke-width="0.62" transform="translate(234.53, 73.4)" fill="#0000ff">
<path d="m-6.25,0l6.25,0l0,-6.25l-6.25,0l6.25,-6.25l6.25,6.25l-6.25,0l0,6.25l6.25,0l-12.5,0"/>
</g>
<g stroke-linejoin="miter" stroke-width="0.62" transform="translate(222.75, 40.06)" fill="#0000ff">
<path d="m-6.25,0l6.25,0l0,-6.25l-6.25,0l6.25,-6.25l6.25,6.25l-6.25,0l0,6.25l6.25,0l-12.5,0"/>
</g>
<g stroke="#808080" stroke-width="0.62" fill="none">
<polyline fill="none" points="214.24,64.9 198.4,29.87"/>
</g>
<g stroke-linejoin="miter" stroke-width="0.62" transform="translate(214.24, 64.9)" fill="none">
<path d="m6.25,-6.25l6.25,6.25l-6.25,6.25m6.25,-6.25l-12.5,0m0,-6.25l0,12.5"/>
</g>
<g stroke-linejoin="miter" stroke-width="0.62" transform="translate(198.4, 29.87)" fill="none">
<path d="m6.25,-6.25l6.25,6.25l-6.25,6.25m6.25,-6.25l-12.5,0m0,-6.25l0,12.5"/>
</g>
<g stroke="#808080" stroke-width="0.62" fill="none">
<polyline fill="none" points="193.4,61.02 173.39,25.21"/>
</g>
<g stroke-linejoin="miter" stroke-width="0.62" transform="translate(193.4, 61.02)" fill="none">
<path d="m-6.25,-6.25l-6.25,6.25l6.25,6.25m-6.25,-6.25l12.5,0m0,-6.25l0,12.5"/>
</g>
<g stroke-linejoin="miter" stroke-width="0.62" transform="translate(173.39, 25.21)" fill="none">
<path d="m-6.25,-6.25l-6.25,6.25l6.25,6.25m-6.25,-6.25l12.5,0m0,-6.25l0,12.5"/>
</g>
<g stroke="#808080" stroke-width="0.62" fill="none">
<polyline fill="none" points="176.03,66.38 152.55,31.64"/>
</g>
<g stroke-linejoin="miter" stroke-width="0.62" transform="translate(176.03, 66.38)" fill="none">
<path d="m-6.25,6.25l6.25,6.25l6.25,-6.25m-6.25,-6.25l0,12.5m-6.25,-12.5l12.5,0"/>
</g>
<g stroke-linejoin="miter" stroke-width="0.62" transform="translate(152.55, 31.64)" fill="none">
<path d="m-6.25,6.25l6.25,6.25l6.25,-6.25m-6.25,-6.25l0,12.5m-6.25,-12.5l12.5,0"/>
</g>
<g stroke="#808080" stroke-width="0.62" fill="none">
<polyline fill="none" points="165.35,81.47 139.74,49.74"/>
</g>
<g stroke-linejoin="miter" stroke-width="0.62" transform="translate(165.35, 81.47)" fill="none">
<path d="m-6.25,-6.25l6.25,-6.25l6.25,6.25m-6.25,6.25l0,-12.5m-6.25,12.5l12.5,0"/>
</g>
<g stroke-linejoin="miter" stroke-width="0.62" transform="translate(139.74, 49.74)" fill="none">
<path d="m-6.25,-6.25l6.25,-6.25l6.25,6.25m-6.25,6.25l0,-12.5m-6.25,12.5l12.5,0"/>
</g>
<g stroke="#808080" stroke-width="0.62" fill="none">
<polyline fill="none" points="161.74,102.68 135.41,75.2"/>
</g>
<g stroke-linejoin="miter" stroke-width="0.62" transform="translate(161.74, 102.68)" fill="none">
<path d="m-6.25,-6.25l6.25,6.25l-6.25,6.25m-6.25,-6.25l12.5,0m0,-6.25l0,12.5"/>
</g>
<g stroke-linejoin="miter" stroke-width="0.62" transform="translate(135.41, 75.2)" fill="none">
<path d="m-6.25,-6.25l6.25,6.25l-6.25,6.25m-6.25,-6.25l12.5,0m0,-6.25l0,12.5"/>
</g>
<g stroke="#808080" stroke-width="0.62" fill="none">
<polyline fill="none" points="162.05,124.45 135.77,101.32"/>
</g>
<g stroke-linejoin="miter" stroke-width="0.62" transform="translate(162.05, 124.45)" fill="none">
<path d="m6.25,-6.25l-6.25,6.25l6.25,6.25m6.25,-6.25l-12.5,0m0,-6.25l0,12.5"/>
</g>
<g stroke-linejoin="miter" stroke-width="0.62" transform="translate(135.77, 101.32)" fill="none">
<path d="m6.25,-6.25l-6.25,6.25l6.25,6.25m6.25,-6.25l-12.5,0m0,-6.25l0,12.5"/>
</g>
<g stroke="#808080" stroke-width="0.62" fill="none">
<polyline fill="none" points="160.96,142.1 134.47,122.51"/>
</g>
<g stroke-linejoin="miter" stroke-width="0.62" transform="translate(160.96, 142.1)" fill="none">
<path d="m-6.25,-6.25l6.25,6.25l6.25,-6.25m-6.25,-6.25l0,12.5m-6.25,0l12.5,0"/>
</g>
<g stroke-linejoin="miter" stroke-width="0.62" transform="translate(134.47, 122.51)" fill="none">
<path d="m-6.25,-6.25l6.25,6.25l6.25,-6.25m-6.25,-6.25l0,12.5m-6.25,0l12.5,0"/>
</g>
<g stroke="#808080" stroke-width="0.62" fill="none">
<polyline fill="none" points="153.69,154.04 125.75,136.83"/>
</g>
<g stroke-linejoin="miter" stroke-width="0.62" transform="translate(153.69, 154.04)" fill="none">
<path d="m-6.25,6.25l6.25,-6.25l6.25,6.25m-6.25,6.25l0,-12.5m-6.25,0l12.5,0"/>
</g>
<g stroke-linejoin="miter" stroke-width="0.62" transform="translate(125.75, 136.83)" fill="none">
<path d="m-6.25,6.25l6.25,-6.25l6.25,6.25m-6.25,6.25l0,-12.5m-6.25,0l12.5,0"/>
</g>
<g stroke="#808080" stroke-width="0.62" fill="none">
<polyline fill="none" points="138.66,162.04 107.7,146.43"/>
</g>
<g stroke-linejoin="miter" stroke-width="0.62" transform="translate(138.66, 162.04)" fill="none">
<path d="m-6.25,6.25l6.25,6.25l6.25,-6.25m-6.25,-6.25l0,12.5"/>
</g>
<g stroke-linejoin="miter" stroke-width="0.62" transform="translate(107.7, 146.43)" fill="none">
<path d="m-6.25,6.25l6.25,6.25l6.25,-6.25m-6.25,-6.25l0,12.5"/>
</g>
<g stroke="#808080" stroke-width="0.62" fill="none">
<polyline fill="none" points="118.66,169.85 83.71,155.8"/>
</g>
<g stroke-linejoin="miter" stroke-width="0.62" transform="translate(118.66, 169.85)" fill="none">
<path d="m-6.25,-6.25l6.25,-6.25l6.25,6.25m-6.25,6.25l0,-12.5"/>
</g>
<g stroke-linejoin="miter" stroke-width="0.62" transform="translate(83.71, 155.8)" fill="none">
<path d="m-6.25,-6.25l6.25,-6.25l6.25,6.25m-6.25,6.25l0,-12.5"/>
</g>
<g stroke="#808080" stroke-width="0.62" fill="none">
<polyline fill="none" points="99.81,180.78 61.09,168.92"/>
</g>
<g stroke-linejoin="miter" stroke-width="0.62" transform="translate(99.81, 180.78)" fill="none">
<path d="m6.25,-6.25l6.25,6.25l-6.25,6.25m6.25,-6.25l-12.5,0"/>
</g>
<g stroke-linejoin="miter" stroke-width="0.62" transform="translate(61.09, 168.92)" fill="none">
<path d="m6.25,-6.25l6.25,6.25l-6.25,6.25m6.25,-6.25l-12.5,0"/>
</g>
<g stroke="#808080" stroke-width="0.62" fill="none">
<polyline fill="none" points="88.65,195.94 59.84,189.73"/>
</g>
<g stroke-linejoin="miter" stroke-width="0.62" transform="translate(88.65, 195.94)" fill="none">
<path d="m-6.25,-6.25l-6.25,6.25l6.25,6.25m-6.25,-6.25l12.5,0"/>
</g>
<g stroke="#808080" stroke-width="0.62" fill="none">
<polyline fill="none" points="88.89,213.88 59.84,210.16"/>
</g>
<g stroke-linejoin="miter" stroke-width="0.62" transform="translate(88.89, 213.88)" fill="none">
<path d="m-6.25,-6.25l6.25,6.25l6.25,-6.25m-6.25,-6.25l0,12.5"/>
</g>
<g stroke="#808080" stroke-width="0.62" fill="none">
<polyline fill="none" points="99.47,231.83 60.68,230.18"/>
</g>
<g stroke-linejoin="miter" stroke-width="0.62" transform="translate(99.47, 231.83)" fill="none">
<path d="m-6.25,6.25l6.25,-6.25l6.25,6.25m-6.25,6.25l0,-12.5"/>
</g>
<g stroke-linejoin="miter" stroke-width="0.62" transform="translate(60.68, 230.18)" fill="none">
<path d="m-6.25,6.25l6.25,-6.25l6.25,6.25m-6.25,6.25l0,-12.5"/>
</g>
<g stroke="#808080" stroke-width="0.62" fill="none">
<polyline fill="none" points="114.98,247.65 79.29,249.17"/>
</g>
<g stroke-linejoin="miter" stroke-width="0.62" transform="translate(114.98, 247.65)" fill="none">
<path d="m-6.25,-6.25l6.25,6.25l-6.25,6.25m-6.25,-6.25l12.5,0"/>
</g>
<g stroke-linejoin="miter" stroke-width="0.62" transform="translate(79.29, 249.17)" fill="none">
<path d="m-6.25,-6.25l6.25,6.25l-6.25,6.25m-6.25,-6.25l12.5,0"/>
</g>
<g stroke="#808080" stroke-width="0.62" fill="none">
<polyline fill="none" points="128.24,261.22 95.2,265.45"/>
</g>
<g stroke-linejoin="miter" stroke-width="0.62" transform="translate(128.24, 261.22)" fill="none">
<path d="m6.25,-6.25l-6.25,6.25l6.25,6.25m6.25,-6.25l-12.5,0"/>
</g>
<g stroke-linejoin="miter" stroke-width="0.62" transform="translate(95.2, 265.45)" fill="none">
<path d="m6.25,-6.25l-6.25,6.25l6.25,6.25m6.25,-6.25l-12.5,0"/>
</g>
<g stroke="#808080" stroke-width="0.62" fill="none">
<polyline fill="none" points="133.82,274.47 101.91,281.34"/>
</g>
<g stroke-linejoin="miter" stroke-width="0.62" transform="translate(133.82, 274.47)" fill="none">
<path d="m-6.25,0l3.12,0m9.37,0l-3.12,0"/>
</g>
<g stroke-linejoin="miter" stroke-width="0.62" transform="translate(101.91, 281.34)" fill="none">
<path d="m-6.25,0l3.12,0m9.37,0l-3.12,0"/>
</g>
<g stroke="#808080" stroke-width="0.62" fill="none">
<polyline fill="none" points="130.64,289.92 98.08,299.89"/>
</g>
<g stroke-linejoin="miter" stroke-width="0.62" transform="translate(130.64, 289.92)" fill="none">
<path d="m0,-6.25l0,3.12m0,9.37l0,-3.12"/>
</g>
<g stroke-linejoin="miter" stroke-width="0.62" transform="translate(98.08, 299.89)" fill="none">
<path d="m0,-6.25l0,3.12m0,9.37l0,-3.12"/>
</g>
<g stroke="#808080" stroke-width="0.62" fill="none">
<polyline fill="none" points="122.33,308.82 88.11,322.57"/>
</g>
<g stroke-linejoin="miter" stroke-width="0.62" transform="translate(122.33, 308.82)" fill="none">
<path d="m-6.25,0l12.5,0"/>
</g>
<g stroke-linejoin="miter" stroke-width="0.62" transform="translate(88.11, 322.57)" fill="none">
<path d="m-6.25,0l12.5,0"/>
</g>
<g stroke="#808080" stroke-width="0.62" fill="none">
<polyline fill="none" points="115.36,329.85 79.75,347.8"/>
</g>
<g stroke-linejoin="miter" stroke-width="0.62" transform="translate(115.36, 329.85)" fill="none">
<path d="m0,-6.25l0,12.5"/>
</g>
<g stroke-linejoin="miter" stroke-width="0.62" transform="translate(79.75, 347.8)" fill="none">
<path d="m0,-6.25l0,12.5"/>
</g>
<g stroke="#808080" stroke-width="0.62" fill="none">
<polyline fill="none" points="115.76,349.46 80.22,371.34"/>
</g>
<g stroke-linejoin="miter" stroke-width="0.62" transform="translate(115.76, 349.46)" fill="none">
<path d="m-6.25,0l3.12,0m9.37,0l-3.12,0m-3.12,-6.25l0,3.12m0,9.37l0,-3.12m-4.42,-7.54l2.21,2.21m6.63,6.63l-2.21,-2.21m2.21,-6.63l-2.21,2.21m-6.63,6.63l2.21,-2.21"/>
</g>
<g stroke-linejoin="miter" stroke-width="0.62" transform="translate(80.22, 371.34)" fill="none">
<path d="m-6.25,0l3.12,0m9.37,0l-3.12,0m-3.12,-6.25l0,3.12m0,9.37l0,-3.12m-4.42,-7.54l2.21,2.21m6.63,6.63l-2.21,-2.21m2.21,-6.63l-2.21,2.21m-6.63,6.63l2.21,-2.21"/>
</g>
<g stroke="#808080" stroke-width="0.62" fill="none">
<polyline fill="none" points="126.2,363.74 92.76,388.48"/>
</g>
<g stroke-linejoin="miter" stroke-width="0.62" transform="translate(126.2, 363.74)" fill="none">
<path d="m-4.42,-4.42l2.21,2.21m6.63,6.63l-2.21,-2.21m2.21,-6.63l-2.21,2.21m-6.63,6.63l2.21,-2.21"/>
</g>
<g stroke-linejoin="miter" stroke-width="0.62" transform="translate(92.76, 388.48)" fill="none">
<path d="m-4.42,-4.42l2.21,2.21m6.63,6.63l-2.21,-2.21m2.21,-6.63l-2.21,2.21m-6.63,6.63l2.21,-2.21"/>
</g>
<g stroke="#808080" stroke-width="0.62" fill="none">
<polyline fill="none" points="144.99,370.7 115.31,396.83"/>
</g>
<g stroke-linejoin="miter" stroke-width="0.62" transform="translate(144.99, 370.7)" fill="none">
<path d="m-6.25,0l3.12,0m9.37,0l-3.12,0m-3.12,-6.25l0,3.12m0,9.37l0,-3.12"/>
</g>
<g stroke-linejoin="miter" stroke-width="0.62" transform="translate(115.31, 396.83)" fill="none">
<path d="m-6.25,0l3.12,0m9.37,0l-3.12,0m-3.12,-6.25l0,3.12m0,9.37l0,-3.12"/>
</g>
<g stroke="#808080" stroke-width="0.62" fill="none">
<polyline fill="none" points="167.19,371.78 141.94,398.12"/>
</g>
<g stroke-linejoin="miter" stroke-width="0.62" transform="translate(167.19, 371.78)" fill="none">
<path d="m-4.42,-4.42l8.84,8.84m-8.84,0l8.84,-8.84"/>
</g>
<g stroke-linejoin="miter" stroke-width="0.62" transform="translate(141.94, 398.12)" fill="none">
<path d="m-4.42,-4.42l8.84,8.84m-8.84,0l8.84,-8.84"/>
</g>
<g stroke="#808080" stroke-width="0.62" fill="none">
<polyline fill="none" points="187.33,371.46 166.11,397.74"/>
</g>
<g stroke-linejoin="miter" stroke-width="0.62" transform="translate(187.33, 371.46)" fill="none">
<path d="m-6.25,0l12.5,0m-6.25,-6.25l0,12.5"/>
</g>
<g stroke-linejoin="miter" stroke-width="0.62" transform="translate(166.11, 397.74)" fill="none">
<path d="m-6.25,0l12.5,0m-6.25,-6.25l0,12.5"/>
</g>
<g stroke="#808080" stroke-width="0.62" fill="none">
<polyline fill="none" points="202.09,375.19 183.83,402.22"/>
</g>
<g stroke-linejoin="miter" stroke-width="0.62" transform="translate(202.09, 375.19)" fill="none">
<path d="m-4.42,-4.42l8.84,8.84m-8.84,0l8.84,-8.84m-10.67,4.42l12.5,0m-6.25,-6.25l0,12.5"/>
</g>
<g stroke-linejoin="miter" stroke-width="0.62" transform="translate(183.83, 402.22)" fill="none">
<path d="m-4.42,-4.42l8.84,8.84m-8.84,0l8.84,-8.84m-10.67,4.42l12.5,0m-6.25,-6.25l0,12.5"/>
</g>
<g stroke="#808080" stroke-width="0.62" fill="none">
<polyline fill="none" points="211.66,386.42 195.31,415.69"/>
</g>
<g stroke-linejoin="miter" stroke-width="0.62" transform="translate(211.66, 386.42)" fill="#800080">
<path d="m3.12,-3.12c0,1.73,-1.4,3.12,-3.12,3.12c-1.73,0,-3.12,-1.4,-3.12,-3.12c0,-1.73,1.4,-3.12,3.12,-3.12c1.73,0,3.12,1.4,3.12,3.12m0,6.25c0,1.73,-1.4,3.12,-3.12,3.12c-1.73,0,-3.12,-1.4,-3.12,-3.12c0,-1.73,1.4,-3.12,3.12,-3.12c1.73,0,3.12,1.4,3.12,3.12"/>
</g>
<g stroke-linejoin="miter" stroke-width="0.62" transform="translate(195.31, 415.69)" fill="#800080">
<path d="m3.12,-3.12c0,1.73,-1.4,3.12,-3.12,3.12c-1.73,0,-3.12,-1.4,-3.12,-3.12c0,-1.73,1.4,-3.12,3.12,-3.12c1.73,0,3.12,1.4,3.12,3.12m0,6.25c0,1.73,-1.4,3.12,-3.12,3.12c-1.73,0,-3.12,-1.4,-3.12,-3.12c0,-1.73,1.4,-3.12,3.12,-3.12c1.73,0,3.12,1.4,3.12,3.12"/>
</g>
<g stroke="#808080" stroke-width="0.62" fill="none">
<polyline fill="none" points="219.07,404.54 204.2,437.44"/>
</g>
<g stroke-linejoin="miter" stroke-width="0.62" transform="translate(219.07, 404.54)" fill="#90ee90">
<path d="m0,0c0,1.73,-1.4,3.12,-3.12,3.12c-1.73,0,-3.12,-1.4,-3.12,-3.12c0,-1.73,1.4,-3.12,3.12,-3.12c1.73,0,3.12,1.4,3.12,3.12m6.25,0c0,1.73,-1.4,3.12,-3.12,3.12c-1.73,0,-3.12,-1.4,-3.12,-3.12c0,-1.73,1.4,-3.12,3.12,-3.12c1.73,0,3.12,1.4,3.12,3.12"/>
</g>
<g stroke-linejoin="miter" stroke-width="0.62" transform="translate(204.2, 437.44)" fill="#90ee90">
<path d="m0,0c0,1.73,-1.4,3.12,-3.12,3.12c-1.73,0,-3.12,-1.4,-3.12,-3.12c0,-1.73,1.4,-3.12,3.12,-3.12c1.73,0,3.12,1.4,3.12,3.12m6.25,0c0,1.73,-1.4,3.12,-3.12,3.12c-1.73,0,-3.12,-1.4,-3.12,-3.12c0,-1.73,1.4,-3.12,3.12,-3.12c1.73,0,3.12,1.4,3.12,3.12"/>
</g>
<g stroke="#808080" stroke-width="0.62" fill="none">
<polyline fill="none" points="228.14,424.84 215.08,461.79"/>
</g>
<g stroke-linejoin="miter" stroke-width="0.62" transform="translate(228.14, 424.84)" fill="#00ffff">
<path d="m0,7.5l-1.69,-5.18l-5.44,0l4.41,-3.2l-1.69,-5.18l4.41,3.2l4.41,-3.2l-1.69,5.18l4.41,3.2l-5.44,0l-1.69,5.18"/>
</g>
<g stroke-linejoin="miter" stroke-width="0.62" transform="translate(215.08, 461.79)" fill="#00ffff">
<path d="m0,7.5l-1.69,-5.18l-5.44,0l4.41,-3.2l-1.69,-5.18l4.41,3.2l4.41,-3.2l-1.69,5.18l4.41,3.2l-5.44,0l-1.69,5.18"/>
</g>
<g stroke="#808080" stroke-width="0.62" fill="none">
<polyline fill="none" points="241.22,440.55 232.6,473.65"/>
</g>
<g stroke-linejoin="miter" stroke-width="0.62" transform="translate(241.22, 440.55)" fill="#0000ff">
<path d="m0,6.25l-1.19,-3.36l-3.22,1.53l1.53,-3.22l-3.36,-1.19l3.36,-1.19l-1.53,-3.22l3.22,1.53l1.19,-3.36l1.19,3.36l3.22,-1.53l-1.53,3.22l3.36,1.19l-3.36,1.19l1.53,3.22l-3.22,-1.53l-1.19,3.36"/>
</g>
<g stroke="#808080" stroke-width="0.62" fill="none">
<polyline fill="none" points="258.07,446.2 253.37,473.65"/>
</g>
<g stroke-linejoin="miter" stroke-width="0.62" transform="translate(258.07, 446.2)" fill="#ffc0cb">
<path d="m0,6.25l-1.56,-3.54l-3.85,0.42l2.29,-3.12l-2.29,-3.12l3.85,0.42l1.56,-3.54l1.56,3.54l3.85,-0.42l-2.29,3.12l2.29,3.12l-3.85,-0.42l-1.56,3.54"/>
</g>
<g stroke="#808080" stroke-width="0.62" fill="none">
<polyline fill="none" points="276.37,440.35 273.54,473.65"/>
</g>
<g stroke-linejoin="miter" stroke-width="0.62" transform="translate(276.37, 440.35)" fill="#800080">
<path d="m0,6.25l-2.21,-4.04l-4.04,-2.21l4.04,-2.21l2.21,-4.04l2.21,4.04l4.04,2.21l-4.04,2.21l-2.21,4.04"/>
</g>
<g stroke="#808080" stroke-width="0.62" fill="none">
<polyline fill="none" points="293.42,426.44 293.42,463.71"/>
</g>
<g stroke-linejoin="miter" stroke-width="0.62" transform="translate(293.42, 426.44)" fill="#90ee90">
<path d="m0,-6.25l1.08,5.62l4.33,3.75l-5.41,-1.87l-5.41,1.87l4.33,-3.75l1.08,-5.62"/>
</g>
<g stroke-linejoin="miter" stroke-width="0.62" transform="translate(293.42, 463.71)" fill="#90ee90">
<path d="m0,-6.25l1.08,5.62l4.33,3.75l-5.41,-1.87l-5.41,1.87l4.33,-3.75l1.08,-5.62"/>
</g>
<g stroke="#808080" stroke-width="0.62" fill="none">
<polyline fill="none" points="307.98,411.18 310.9,445.4"/>
</g>
<g stroke-linejoin="miter" stroke-width="0.62" transform="translate(307.98, 411.18)" fill="#00ffff">
<path d="m-6.25,-6.25l12.5,0l0,12.5l-12.5,0l0,-12.5m0,0l12.5,12.5m-12.5,0l12.5,-12.5"/>
</g>
<g stroke-linejoin="miter" stroke-width="0.62" transform="translate(310.9, 445.4)" fill="#00ffff">
<path d="m-6.25,-6.25l12.5,0l0,12.5l-12.5,0l0,-12.5m0,0l12.5,12.5m-12.5,0l12.5,-12.5"/>
</g>
<g stroke="#808080" stroke-width="0.62" fill="none">
<polyline fill="none" points="321.07,401.31 326.6,433.56"/>
</g>
<g stroke-linejoin="miter" stroke-width="0.62" transform="translate(321.07, 401.31)" fill="#0000ff">
<path d="m-6.25,-6.25l12.5,0l0,12.5l-12.5,0l0,-12.5m6.25,0l0,12.5m-6.25,-6.25l12.5,0"/>
</g>
<g stroke-linejoin="miter" stroke-width="0.62" transform="translate(326.6, 433.56)" fill="#0000ff">
<path d="m-6.25,-6.25l12.5,0l0,12.5l-12.5,0l0,-12.5m6.25,0l0,12.5m-6.25,-6.25l12.5,0"/>
</g>
<g stroke="#808080" stroke-width="0.62" fill="none">
<polyline fill="none" points="335.14,400.29 343.48,432.34"/>
</g>
<g stroke-linejoin="miter" stroke-width="0.62" transform="translate(335.14, 400.29)" fill="#ffc0cb">
<path d="m6.25,0c0,3.45,-2.8,6.25,-6.25,6.25c-3.45,0,-6.25,-2.8,-6.25,-6.25c0,-3.45,2.8,-6.25,6.25,-6.25c3.45,0,6.25,2.8,6.25,6.25m-10.67,-4.42l8.84,8.84m-8.84,0l8.84,-8.84"/>
</g>
<g stroke-linejoin="miter" stroke-width="0.62" transform="translate(343.48, 432.34)" fill="#ffc0cb">
<path d="m6.25,0c0,3.45,-2.8,6.25,-6.25,6.25c-3.45,0,-6.25,-2.8,-6.25,-6.25c0,-3.45,2.8,-6.25,6.25,-6.25c3.45,0,6.25,2.8,6.25,6.25m-10.67,-4.42l8.84,8.84m-8.84,0l8.84,-8.84"/>
</g>
<g stroke="#808080" stroke-width="0.62" fill="none">
<polyline fill="none" points="352.31,406.74 364.09,440.08"/>
</g>
<g stroke-linejoin="miter" stroke-width="0.62" transform="translate(352.31, 406.74)" fill="#800080">
<path d="m6.25,0c0,3.45,-2.8,6.25,-6.25,6.25c-3.45,0,-6.25,-2.8,-6.25,-6.25c0,-3.45,2.8,-6.25,6.25,-6.25c3.45,0,6.25,2.8,6.25,6.25m-6.25,-6.25l0,12.5m-6.25,-6.25l12.5,0"/>
</g>
<g stroke-linejoin="miter" stroke-width="0.62" transform="translate(364.09, 440.08)" fill="#800080">
<path d="m6.25,0c0,3.45,-2.8,6.25,-6.25,6.25c-3.45,0,-6.25,-2.8,-6.25,-6.25c0,-3.45,2.8,-6.25,6.25,-6.25c3.45,0,6.25,2.8,6.25,6.25m-6.25,-6.25l0,12.5m-6.25,-6.25l12.5,0"/>
</g>
<g stroke="#808080" stroke-width="0.62" fill="none">
<polyline fill="none" points="372.6,415.24 388.44,450.27"/>
</g>
<g stroke-linejoin="miter" stroke-width="0.62" transform="translate(372.6, 415.24)" fill="#90ee90">
<path d="m-3.54,5.31l3.54,-3.54l3.54,3.54l1.77,-1.77l-3.54,-3.54l3.54,-3.54l-1.77,-1.77l-3.54,3.54l-3.54,-3.54l-1.77,1.77l3.54,3.54l-3.54,3.54l1.77,1.77"/>
</g>
<g stroke-linejoin="miter" stroke-width="0.62" transform="translate(388.44, 450.27)" fill="#90ee90">
<path d="m-3.54,5.31l3.54,-3.54l3.54,3.54l1.77,-1.77l-3.54,-3.54l3.54,-3.54l-1.77,-1.77l-3.54,3.54l-3.54,-3.54l-1.77,1.77l3.54,3.54l-3.54,3.54l1.77,1.77"/>
</g>
<g stroke="#808080" stroke-width="0.62" fill="none">
<polyline fill="none" points="393.44,419.12 413.45,454.93"/>
</g>
<g stroke-linejoin="miter" stroke-width="0.62" transform="translate(393.44, 419.12)" fill="#00ffff">
<path d="m1.25,6.25l0,-5l5,0l0,-2.5l-5,0l0,-5l-2.5,0l0,5l-5,0l0,2.5l5,0l0,5l2.5,0"/>
</g>
<g stroke-linejoin="miter" stroke-width="0.62" transform="translate(413.45, 454.93)" fill="#00ffff">
<path d="m1.25,6.25l0,-5l5,0l0,-2.5l-5,0l0,-5l-2.5,0l0,5l-5,0l0,2.5l5,0l0,5l2.5,0"/>
</g>
<g stroke="#808080" stroke-width="0.62" fill="none">
<polyline fill="none" points="410.81,413.76 434.29,448.5"/>
</g>
<g stroke-linejoin="miter" stroke-width="0.62" transform="translate(410.81, 413.76)" fill="#0000ff">
<path d="m0,8.84l4.42,-8.84l-4.42,-8.84l-4.42,8.84l4.42,8.84"/>
</g>
<g stroke-linejoin="miter" stroke-width="0.62" transform="translate(434.29, 448.5)" fill="#0000ff">
<path d="m0,8.84l4.42,-8.84l-4.42,-8.84l-4.42,8.84l4.42,8.84"/>
</g>
<g stroke="#808080" stroke-width="0.62" fill="none">
<polyline fill="none" points="421.48,398.68 447.1,430.4"/>
</g>
<g stroke-linejoin="miter" stroke-width="0.62" transform="translate(421.48, 398.68)" fill="#ffc0cb">
<path d="m0,4.42l8.84,-4.42l-8.84,-4.42l-8.84,4.42l8.84,4.42"/>
</g>
<g stroke-linejoin="miter" stroke-width="0.62" transform="translate(447.1, 430.4)" fill="#ffc0cb">
<path d="m0,4.42l8.84,-4.42l-8.84,-4.42l-8.84,4.42l8.84,4.42"/>
</g>
<g stroke="#808080" stroke-width="0.62" fill="none">
<polyline fill="none" points="425.1,377.46 451.43,404.94"/>
</g>
<g stroke-linejoin="miter" stroke-width="0.62" transform="translate(425.1, 377.46)" fill="#800080">
<path d="m3.12,0c0,3.45,-1.4,6.25,-3.12,6.25c-1.73,0,-3.12,-2.8,-3.12,-6.25c0,-3.45,1.4,-6.25,3.12,-6.25c1.73,0,3.12,2.8,3.12,6.25"/>
</g>
<g stroke-linejoin="miter" stroke-width="0.62" transform="translate(451.43, 404.94)" fill="#800080">
<path d="m3.12,0c0,3.45,-1.4,6.25,-3.12,6.25c-1.73,0,-3.12,-2.8,-3.12,-6.25c0,-3.45,1.4,-6.25,3.12,-6.25c1.73,0,3.12,2.8,3.12,6.25"/>
</g>
<g stroke="#808080" stroke-width="0.62" fill="none">
<polyline fill="none" points="424.79,355.69 451.06,378.82"/>
</g>
<g stroke-linejoin="miter" stroke-width="0.62" transform="translate(424.79, 355.69)" fill="#90ee90">
<path d="m6.25,0c0,1.73,-2.8,3.12,-6.25,3.12c-3.45,0,-6.25,-1.4,-6.25,-3.12c0,-1.73,2.8,-3.12,6.25,-3.12c3.45,0,6.25,1.4,6.25,3.12"/>
</g>
<g stroke-linejoin="miter" stroke-width="0.62" transform="translate(451.06, 378.82)" fill="#90ee90">
<path d="m6.25,0c0,1.73,-2.8,3.12,-6.25,3.12c-3.45,0,-6.25,-1.4,-6.25,-3.12c0,-1.73,2.8,-3.12,6.25,-3.12c3.45,0,6.25,1.4,6.25,3.12"/>
</g>
<g stroke="#808080" stroke-width="0.62" fill="none">
<polyline fill="none" points="425.88,338.04 452.37,357.63"/>
</g>
<g stroke-linejoin="miter" stroke-width="0.62" transform="translate(425.88, 338.04)" fill="#00ffff">
<path d="m-6.25,6.25l6.25,-3.12l6.25,3.12l-3.12,-6.25l3.12,-6.25l-6.25,3.12l-6.25,-3.12l3.12,6.25l-3.12,6.25"/>
</g>
<g stroke-linejoin="miter" stroke-width="0.62" transform="translate(452.37, 357.63)" fill="#00ffff">
<path d="m-6.25,6.25l6.25,-3.12l6.25,3.12l-3.12,-6.25l3.12,-6.25l-6.25,3.12l-6.25,-3.12l3.12,6.25l-3.12,6.25"/>
</g>
<g stroke="#808080" stroke-width="0.62" fill="none">
<polyline fill="none" points="433.15,326.1 461.09,343.31"/>
</g>
<g stroke-linejoin="miter" stroke-width="0.62" transform="translate(433.15, 326.1)" fill="#0000ff">
<path d="m-6.25,-3.12c0,-1.73,1.4,-3.12,3.12,-3.12l6.25,0c1.73,0,3.12,1.4,3.12,3.12l0,6.25c0,1.73,-1.4,3.12,-3.12,3.12l-6.25,0c-1.73,0,-3.12,-1.4,-3.12,-3.12l0,-6.25"/>
</g>
<g stroke-linejoin="miter" stroke-width="0.62" transform="translate(461.09, 343.31)" fill="#0000ff">
<path d="m-6.25,-3.12c0,-1.73,1.4,-3.12,3.12,-3.12l6.25,0c1.73,0,3.12,1.4,3.12,3.12l0,6.25c0,1.73,-1.4,3.12,-3.12,3.12l-6.25,0c-1.73,0,-3.12,-1.4,-3.12,-3.12l0,-6.25"/>
</g>
<g stroke="#808080" stroke-width="0.62" fill="none">
<polyline fill="none" points="448.18,318.1 479.13,333.71"/>
</g>
<g stroke-linejoin="miter" stroke-width="0.62" transform="translate(448.18, 318.1)" fill="#ffc0cb">
<path d="m0,-7.5l7.13,5.18l-2.8,8.38l-8.67,0l-2.8,-8.38l7.13,-5.18m0,3.75l3.57,2.59l-1.4,4.19l-4.33,0l-1.4,-4.19l3.57,-2.59"/>
</g>
<g stroke-linejoin="miter" stroke-width="0.62" transform="translate(479.13, 333.71)" fill="#ffc0cb">
<path d="m0,-7.5l7.13,5.18l-2.8,8.38l-8.67,0l-2.8,-8.38l7.13,-5.18m0,3.75l3.57,2.59l-1.4,4.19l-4.33,0l-1.4,-4.19l3.57,-2.59"/>
</g>
<g stroke="#808080" stroke-width="0.62" fill="none">
<polyline fill="none" points="468.18,310.29 503.13,324.34"/>
</g>
<g stroke-linejoin="miter" stroke-width="0.62" transform="translate(468.18, 310.29)" fill="#800080">
<path d="m0,8.84l8.84,-8.84l-8.84,-8.84l-8.84,8.84l8.84,8.84m0,-4.42l4.42,-4.42l-4.42,-4.42l-4.42,4.42l4.42,4.42"/>
</g>
<g stroke-linejoin="miter" stroke-width="0.62" transform="translate(503.13, 324.34)" fill="#800080">
<path d="m0,8.84l8.84,-8.84l-8.84,-8.84l-8.84,8.84l8.84,8.84m0,-4.42l4.42,-4.42l-4.42,-4.42l-4.42,4.42l4.42,4.42"/>
</g>
<g stroke="#808080" stroke-width="0.62" fill="none">
<polyline fill="none" points="487.03,299.36 525.75,311.22"/>
</g>
<g stroke-linejoin="miter" stroke-width="0.62" transform="translate(487.03, 299.36)" fill="#90ee90">
<path d="m-6.25,-6.25l12.5,0l0,12.5l-12.5,0l0,-12.5m3.12,3.12l6.25,0l0,6.25l-6.25,0l0,-6.25"/>
</g>
<g stroke-linejoin="miter" stroke-width="0.62" transform="translate(525.75, 311.22)" fill="#90ee90">
<path d="m-6.25,-6.25l12.5,0l0,12.5l-12.5,0l0,-12.5m3.12,3.12l6.25,0l0,6.25l-6.25,0l0,-6.25"/>
</g>
<g stroke="#808080" stroke-width="0.62" fill="none">
<polyline fill="none" points="498.19,284.2 527,290.41"/>
</g>
<g stroke-linejoin="miter" stroke-width="0.62" transform="translate(498.19, 284.2)" fill="#00ffff">
<path d="m6.25,0c0,3.45,-2.8,6.25,-6.25,6.25c-3.45,0,-6.25,-2.8,-6.25,-6.25c0,-3.45,2.8,-6.25,6.25,-6.25c3.45,0,6.25,2.8,6.25,6.25m-3.12,0c0,1.73,-1.4,3.12,-3.12,3.12c-1.73,0,-3.12,-1.4,-3.12,-3.12c0,-1.73,1.4,-3.12,3.12,-3.12c1.73,0,3.12,1.4,3.12,3.12"/>
</g>
<g stroke="#808080" stroke-width="0.62" fill="none">
<polyline fill="none" points="497.95,266.26 527,269.98"/>
</g>
<g stroke-linejoin="miter" stroke-width="0.62" transform="translate(497.95, 266.26)" fill="#0000ff">
<path d="m6.25,0c0,3.45,-2.8,6.25,-6.25,6.25c-3.45,0,-6.25,-2.8,-6.25,-6.25c0,-3.45,2.8,-6.25,6.25,-6.25c3.45,0,6.25,2.8,6.25,6.25m-3.12,0c0,1.73,-1.4,3.12,-3.12,3.12c-1.73,0,-3.12,-1.4,-3.12,-3.12c0,-1.73,1.4,-3.12,3.12,-3.12c1.73,0,3.12,1.4,3.12,3.12" fill-rule="nonzero"/>
</g>
<g stroke="#808080" stroke-width="0.62" fill="none">
<polyline fill="none" points="487.37,248.31 526.16,249.96"/>
</g>
<g stroke-linejoin="miter" stroke-width="0.62" transform="translate(487.37, 248.31)" fill="#ffc0cb">
<path d="m6.25,0c0,3.45,-2.8,6.25,-6.25,6.25c-3.45,0,-6.25,-2.8,-6.25,-6.25c0,-3.45,2.8,-6.25,6.25,-6.25c3.45,0,6.25,2.8,6.25,6.25m-5.94,0c0,0.17,-0.14,0.31,-0.31,0.31c-0.17,0,-0.31,-0.14,-0.31,-0.31c0,-0.17,0.14,-0.31,0.31,-0.31c0.17,0,0.31,0.14,0.31,0.31" fill-rule="nonzero"/>
</g>
<g stroke-linejoin="miter" stroke-width="0.62" transform="translate(526.16, 249.96)" fill="#ffc0cb">
<path d="m6.25,0c0,3.45,-2.8,6.25,-6.25,6.25c-3.45,0,-6.25,-2.8,-6.25,-6.25c0,-3.45,2.8,-6.25,6.25,-6.25c3.45,0,6.25,2.8,6.25,6.25m-5.94,0c0,0.17,-0.14,0.31,-0.31,0.31c-0.17,0,-0.31,-0.14,-0.31,-0.31c0,-0.17,0.14,-0.31,0.31,-0.31c0.17,0,0.31,0.14,0.31,0.31" fill-rule="nonzero"/>
</g>
<g stroke="#808080" stroke-width="0.62" fill="none">
<polyline fill="none" points="471.86,232.49 507.55,230.97"/>
</g>
<g stroke-linejoin="miter" stroke-width="0.62" transform="translate(471.86, 232.49)" fill="#800080">
<path d="m0.31,0c0,0.17,-0.14,0.31,-0.31,0.31c-0.17,0,-0.31,-0.14,-0.31,-0.31c0,-0.17,0.14,-0.31,0.31,-0.31c0.17,0,0.31,0.14,0.31,0.31"/>
</g>
<g stroke-linejoin="miter" stroke-width="0.62" transform="translate(507.55, 230.97)" fill="#800080">
<path d="m0.31,0c0,0.17,-0.14,0.31,-0.31,0.31c-0.17,0,-0.31,-0.14,-0.31,-0.31c0,-0.17,0.14,-0.31,0.31,-0.31c0.17,0,0.31,0.14,0.31,0.31"/>
</g>
<g stroke="#808080" stroke-width="0.62" fill="none">
<polyline fill="none" points="458.6,218.92 491.63,214.69"/>
</g>
<g stroke-linejoin="miter" stroke-width="0.62" transform="translate(458.6, 218.92)" fill="#90ee90">
<path d="m7.5,0l-11.25,6.49l0,-12.99l11.25,6.49"/>
</g>
<g stroke-linejoin="miter" stroke-width="0.62" transform="translate(491.63, 214.69)" fill="#90ee90">
<path d="m7.5,0l-11.25,6.49l0,-12.99l11.25,6.49"/>
</g>
<g stroke="#808080" stroke-width="0.62" fill="none">
<polyline fill="none" points="453.01,205.67 484.93,198.8"/>
</g>
<g stroke-linejoin="miter" stroke-width="0.62" transform="translate(453.01, 205.67)" fill="#00ffff">
<path d="m-7.5,0l11.25,6.49l0,-12.99l-11.25,6.49"/>
</g>
<g stroke-linejoin="miter" stroke-width="0.62" transform="translate(484.93, 198.8)" fill="#00ffff">
<path d="m-7.5,0l11.25,6.49l0,-12.99l-11.25,6.49"/>
</g>
<g stroke="#808080" stroke-width="0.62" fill="none">
<polyline fill="none" points="456.2,190.22 488.76,180.25"/>
</g>
<g stroke-linejoin="miter" stroke-width="0.62" transform="translate(456.2, 190.22)" fill="#0000ff">
<path d="m0,7.5l6.49,-11.25l-12.99,0l6.49,11.25"/>
</g>
<g stroke-linejoin="miter" stroke-width="0.62" transform="translate(488.76, 180.25)" fill="#0000ff">
<path d="m0,7.5l6.49,-11.25l-12.99,0l6.49,11.25"/>
</g>
<g stroke="#808080" stroke-width="0.62" fill="none">
<polyline fill="none" points="464.51,171.32 498.73,157.57"/>
</g>
<g stroke-linejoin="miter" stroke-width="0.62" transform="translate(464.51, 171.32)" fill="#ffc0cb">
<path d="m0,-7.5l6.49,11.25l-12.99,0l6.49,-11.25"/>
</g>
<g stroke-linejoin="miter" stroke-width="0.62" transform="translate(498.73, 157.57)" fill="#ffc0cb">
<path d="m0,-7.5l6.49,11.25l-12.99,0l6.49,-11.25"/>
</g>
<g stroke="#808080" stroke-width="0.62" fill="none">
<polyline fill="none" points="471.48,150.29 507.09,132.34"/>
</g>
<g stroke-linejoin="miter" stroke-width="0.62" transform="translate(471.48, 150.29)" fill="#800080">
<path d="m-6.25,-6.25l0,12.5l12.5,-12.5l0,12.5l-12.5,-12.5"/>
</g>
<g stroke-linejoin="miter" stroke-width="0.62" transform="translate(507.09, 132.34)" fill="#800080">
<path d="m-6.25,-6.25l0,12.5l12.5,-12.5l0,12.5l-12.5,-12.5"/>
</g>
<g stroke="#808080" stroke-width="0.62" fill="none">
<polyline fill="none" points="471.08,130.68 506.61,108.8"/>
</g>
<g stroke-linejoin="miter" stroke-width="0.62" transform="translate(471.08, 130.68)" fill="#90ee90">
<path d="m-6.25,-6.25l12.5,0l-12.5,12.5l12.5,0l-12.5,-12.5"/>
</g>
<g stroke-linejoin="miter" stroke-width="0.62" transform="translate(506.61, 108.8)" fill="#90ee90">
<path d="m-6.25,-6.25l12.5,0l-12.5,12.5l12.5,0l-12.5,-12.5"/>
</g>
<g stroke="#808080" stroke-width="0.62" fill="none">
<polyline fill="none" points="460.64,116.4 494.08,91.66"/>
</g>
<g stroke-linejoin="miter" stroke-width="0.62" transform="translate(460.64, 116.4)" fill="#00ffff">
<path d="m2.59,6.25l3.66,-3.66l0,-5.17l-3.66,-3.66l-5.17,0l-3.66,3.66l0,5.17l3.66,3.66l5.17,0"/>
</g>
<g stroke-linejoin="miter" stroke-width="0.62" transform="translate(494.08, 91.66)" fill="#00ffff">
<path d="m2.59,6.25l3.66,-3.66l0,-5.17l-3.66,-3.66l-5.17,0l-3.66,3.66l0,5.17l3.66,3.66l5.17,0"/>
</g>
<g stroke="#808080" stroke-width="0.62" fill="none">
<polyline fill="none" points="441.85,109.44 471.53,83.31"/>
</g>
<g stroke-linejoin="miter" stroke-width="0.62" transform="translate(441.85, 109.44)" fill="#0000ff">
<path d="m0,6.25l5.41,-3.12l0,-6.25l-5.41,-3.12l-5.41,3.12l0,6.25l5.41,3.12"/>
</g>
<g stroke-linejoin="miter" stroke-width="0.62" transform="translate(471.53, 83.31)" fill="#0000ff">
<path d="m0,6.25l5.41,-3.12l0,-6.25l-5.41,-3.12l-5.41,3.12l0,6.25l5.41,3.12"/>
</g>
<g stroke="#808080" stroke-width="0.62" fill="none">
<polyline fill="none" points="419.65,108.36 444.89,82.02"/>
</g>
<g stroke-linejoin="miter" stroke-width="0.62" transform="translate(419.65, 108.36)" fill="#ffc0cb">
<path d="m0,-7.5l7.13,5.18l-2.8,8.38l-8.67,0l-2.8,-8.38l7.13,-5.18"/>
</g>
<g stroke-linejoin="miter" stroke-width="0.62" transform="translate(444.89, 82.02)" fill="#ffc0cb">
<path d="m0,-7.5l7.13,5.18l-2.8,8.38l-8.67,0l-2.8,-8.38l7.13,-5.18"/>
</g>
<g stroke="#808080" stroke-width="0.62" fill="none">
<polyline fill="none" points="399.51,108.68 420.73,82.4"/>
</g>
<g stroke-linejoin="miter" stroke-width="0.62" transform="translate(399.51, 108.68)" fill="#800080">
<path d="m-3.12,-6.25l6.25,0l0,12.5l-6.25,0l0,-12.5"/>
</g>
<g stroke-linejoin="miter" stroke-width="0.62" transform="translate(420.73, 82.4)" fill="#800080">
<path d="m-3.12,-6.25l6.25,0l0,12.5l-6.25,0l0,-12.5"/>
</g>
<g stroke="#808080" stroke-width="0.62" fill="none">
<polyline fill="none" points="384.75,104.95 403.01,77.92"/>
</g>
<g stroke-linejoin="miter" stroke-width="0.62" transform="translate(384.75, 104.95)" fill="#90ee90">
<path d="m-6.25,-3.12l12.5,0l0,6.25l-12.5,0l0,-6.25"/>
</g>
<g stroke-linejoin="miter" stroke-width="0.62" transform="translate(403.01, 77.92)" fill="#90ee90">
<path d="m-6.25,-3.12l12.5,0l0,6.25l-12.5,0l0,-6.25"/>
</g>
<g stroke="#808080" stroke-width="0.62" fill="none">
<polyline fill="none" points="375.17,93.72 391.53,64.45"/>
</g>
<g stroke-linejoin="miter" stroke-width="0.62" transform="translate(375.17, 93.72)" fill="#00ffff">
<path d="m0,-7.5l-1.69,5.18l-5.44,0l4.41,3.2l-1.69,5.18l4.41,-3.2l4.41,3.2l-1.69,-5.18l4.41,-3.2l-5.44,0l-1.69,-5.18"/>
</g>
<g stroke-linejoin="miter" stroke-width="0.62" transform="translate(391.53, 64.45)" fill="#00ffff">
<path d="m0,-7.5l-1.69,5.18l-5.44,0l4.41,3.2l-1.69,5.18l4.41,-3.2l4.41,3.2l-1.69,-5.18l4.41,-3.2l-5.44,0l-1.69,-5.18"/>
</g>
<g stroke="#808080" stroke-width="0.62" fill="none">
<polyline fill="none" points="367.77,75.6 382.63,42.7"/>
</g>
<g stroke-linejoin="miter" stroke-width="0.62" transform="translate(367.77, 75.6)" fill="#0000ff">
<path d="m2.5,6.25l0,-3.75l3.75,0l0,-5l-3.75,0l0,-3.75l-5,0l0,3.75l-3.75,0l0,5l3.75,0l0,3.75l5,0"/>
</g>
<g stroke-linejoin="miter" stroke-width="0.62" transform="translate(382.63, 42.7)" fill="#0000ff">
<path d="m2.5,6.25l0,-3.75l3.75,0l0,-5l-3.75,0l0,-3.75l-5,0l0,3.75l-3.75,0l0,5l3.75,0l0,3.75l5,0"/>
</g>
<g stroke="#808080" stroke-width="0.62" fill="none">
<polyline fill="none" points="358.7,55.3 371.76,18.35"/>
</g>
<g stroke-linejoin="miter" stroke-width="0.62" transform="translate(358.7, 55.3)" fill="#ffc0cb">
<path d="m-3.71,6.89l3.71,-3.71l3.71,3.71l3.18,-3.18l-3.71,-3.71l3.71,-3.71l-3.18,-3.18l-3.71,3.71l-3.71,-3.71l-3.18,3.18l3.71,3.71l-3.71,3.71l3.18,3.18"/>
</g>
<g stroke-linejoin="miter" stroke-width="0.62" transform="translate(371.76, 18.35)" fill="#ffc0cb">
<path d="m-3.71,6.89l3.71,-3.71l3.71,3.71l3.18,-3.18l-3.71,-3.71l3.71,-3.71l-3.18,-3.18l-3.71,3.71l-3.71,-3.71l-3.18,3.18l3.71,3.71l-3.71,3.71l3.18,3.18"/>
</g>
<g stroke="#808080" stroke-width="0.62" fill="none">
<polyline fill="none" points="345.62,39.59 354.24,6.49"/>
</g>
<g stroke-linejoin="miter" stroke-width="0.62" transform="translate(345.62, 39.59)" fill="#800080">
<path d="m-6.25,-6.25l12.5,0l0,12.5l-12.5,0l0,-12.5"/>
</g>
<g stroke="#808080" stroke-width="0.62" fill="none">
<polyline fill="none" points="328.76,33.94 333.47,6.49"/>
</g>
<g stroke-linejoin="miter" stroke-width="0.62" transform="translate(328.76, 33.94)" fill="#90ee90">
<path d="m0,8.84l8.84,-8.84l-8.84,-8.84l-8.84,8.84l8.84,8.84"/>
</g>
<g stroke="#808080" stroke-width="0.62" fill="none">
<polyline fill="none" points="310.47,39.79 313.3,6.49"/>
</g>
<g stroke-linejoin="miter" stroke-width="0.62" transform="translate(310.47, 39.79)" fill="#00ffff">
<path d="m6.25,0c0,3.45,-2.8,6.25,-6.25,6.25c-3.45,0,-6.25,-2.8,-6.25,-6.25c0,-3.45,2.8,-6.25,6.25,-6.25c3.45,0,6.25,2.8,6.25,6.25"/>
</g>
<g stroke="#808080" stroke-width="0.62" fill="none">
<polyline fill="none" points="293.42,53.7 293.42,16.43"/>
</g>
<g stroke="none" stroke-width="1" fill="#0000ff">
<polygon points="305.07,368.2 273.62,271.61 172.14,271.61 254.33,211.93 222.88,115.34 305.07,175.03 387.25,115.34 355.8,211.93 437.99,271.61 336.52,271.61"/>
</g>
<g fill-opacity="0.9" stroke="none" stroke-width="1" fill="#00ffff">
<polygon points="293.42,379.84 261.97,283.26 160.49,283.26 242.68,223.58 211.23,126.99 293.42,186.68 375.61,126.99 344.16,223.58 426.34,283.26 324.87,283.26"/>
</g>
</g>
<g clip-path="url(#c0)">
<g stroke-width="0.62" stroke-linecap="butt" fill="none">
<path d="M60.46,473.03l0,-465.91"/>
<path d="M60.46,473.03l-3.75,0M60.46,449.73l-3.75,0M60.46,426.44l-3.75,0M60.46,403.14l-3.75,0M60.46,379.84l-3.75,0M60.46,356.55l-3.75,0M60.46,333.25l-3.75,0M60.46,309.96l-3.75,0M60.46,286.66l-3.75,0M60.46,263.37l-3.75,0M60.46,240.07l-3.75,0M60.46,216.77l-3.75,0M60.46,193.48l-3.75,0M60.46,170.18l-3.75,0M60.46,146.89l-3.75,0M60.46,123.59l-3.75,0M60.46,100.3l-3.75,0M60.46,77l-3.75,0M60.46,53.7l-3.75,0M60.46,30.41l-3.75,0M60.46,7.11l-3.75,0"/>
<path d="M60.46,473.03l-7.5,0M60.46,356.55l-7.5,0M60.46,240.07l-7.5,0M60.46,123.59l-7.5,0M60.46,7.11l-7.5,0"/>
<path d="M526.38,473.03l0,-465.91"/>
<path d="M526.38,473.03l3.75,0M526.38,449.73l3.75,0M526.38,426.44l3.75,0M526.38,403.14l3.75,0M526.38,379.84l3.75,0M526.38,356.55l3.75,0M526.38,333.25l3.75,0M526.38,309.96l3.75,0M526.38,286.66l3.75,0M526.38,263.37l3.75,0M526.38,240.07l3.75,0M526.38,216.77l3.75,0M526.38,193.48l3.75,0M526.38,170.18l3.75,0M526.38,146.89l3.75,0M526.38,123.59l3.75,0M526.38,100.3l3.75,0M526.38,77l3.75,0M526.38,53.7l3.75,0M526.38,30.41l3.75,0M526.38,7.11l3.75,0"/>
<path d="M526.38,473.03l7.5,0M526.38,356.55l7.5,0M526.38,240.07l7.5,0M526.38,123.59l7.5,0M526.38,7.11l7.5,0"/>
</g>
<g stroke-width="1" transform="matrix(0 -1 1 0 21.96 340.07)" fill="none">
<path d="m6.41,-11.86c1.5,0,2.8,0.57,3.91,1.72c1.1,1.15,1.66,2.57,1.66,4.28c0,1.76,-0.56,3.22,-1.67,4.38c-1.11,1.16,-2.46,1.74,-4.03,1.74c-1.59,0,-2.93,-0.57,-4.02,-1.7c-1.09,-1.14,-1.63,-2.6,-1.63,-4.41c0,-1.83,0.63,-3.33,1.89,-4.5c1.08,-1.01,2.39,-1.52,3.91,-1.52m-0.17,0.62c-1.03,0,-1.86,0.39,-2.48,1.16c-0.78,0.96,-1.17,2.36,-1.17,4.2c0,1.9,0.4,3.35,1.2,4.37c0.62,0.77,1.45,1.16,2.47,1.16c1.08,0,1.98,-0.42,2.69,-1.27c0.71,-0.85,1.06,-2.18,1.06,-4.01c0,-1.99,-0.39,-3.47,-1.17,-4.44c-0.62,-0.78,-1.49,-1.17,-2.59,-1.17m14.17,3.41l0,4.75c0,0.91,0.02,1.46,0.06,1.66c0.04,0.2,0.11,0.34,0.2,0.42c0.09,0.08,0.2,0.12,0.33,0.12c0.18,0,0.38,-0.05,0.61,-0.16l0.11,0.31l-2.33,0.95l-0.39,0l0,-1.66c-0.68,0.73,-1.19,1.19,-1.54,1.37c-0.35,0.19,-0.72,0.28,-1.12,0.28c-0.44,0,-0.82,-0.12,-1.14,-0.37c-0.32,-0.25,-0.55,-0.58,-0.67,-0.98c-0.12,-0.4,-0.19,-0.97,-0.19,-1.7l0,-3.5c0,-0.36,-0.04,-0.62,-0.12,-0.76c-0.08,-0.14,-0.2,-0.25,-0.36,-0.33c-0.16,-0.08,-0.45,-0.12,-0.85,-0.12l0,-0.31l2.75,0l0,5.23c0,0.73,0.12,1.21,0.37,1.44c0.25,0.23,0.56,0.34,0.92,0.34c0.24,0,0.52,-0.08,0.83,-0.23c0.31,-0.15,0.68,-0.45,1.11,-0.88l0,-4.44c0,-0.45,-0.08,-0.75,-0.24,-0.91c-0.16,-0.16,-0.5,-0.24,-1.01,-0.25l0,-0.31l2.66,0m4.41,-2.58l0,2.58l1.84,0l0,0.59l-1.84,0l0,5.08c0,0.51,0.07,0.85,0.22,1.03c0.15,0.18,0.33,0.27,0.56,0.27c0.19,0,0.37,-0.06,0.55,-0.18c0.18,-0.12,0.31,-0.29,0.41,-0.52l0.34,0c-0.2,0.56,-0.48,0.98,-0.84,1.27c-0.36,0.28,-0.74,0.42,-1.14,0.42c-0.26,0,-0.52,-0.07,-0.77,-0.22c-0.25,-0.15,-0.43,-0.35,-0.55,-0.62c-0.12,-0.27,-0.18,-0.69,-0.18,-1.25l0,-5.27l-1.23,0l0,-0.28c0.31,-0.12,0.63,-0.34,0.96,-0.63c0.33,-0.3,0.62,-0.65,0.88,-1.07c0.12,-0.21,0.31,-0.6,0.55,-1.19l0.25,0m2.3,2.58l3.28,0l0,0.31c-0.3,0.02,-0.5,0.08,-0.59,0.16c-0.09,0.09,-0.14,0.21,-0.14,0.37c0,0.18,0.05,0.39,0.14,0.64l1.69,4.5l1.67,-3.66l-0.44,-1.16c-0.14,-0.34,-0.32,-0.58,-0.55,-0.7c-0.12,-0.08,-0.35,-0.14,-0.69,-0.16l0,-0.31l3.72,0l0,0.31c-0.41,0.02,-0.7,0.1,-0.87,0.23c-0.11,0.08,-0.17,0.22,-0.17,0.42c0,0.11,0.03,0.23,0.08,0.36l1.77,4.48l1.66,-4.33c0.11,-0.3,0.17,-0.55,0.17,-0.73c0,-0.1,-0.05,-0.2,-0.16,-0.29c-0.11,-0.09,-0.33,-0.14,-0.66,-0.15l0,-0.31l2.47,0l0,0.31c-0.49,0.07,-0.85,0.41,-1.09,1.02l-2.61,6.73l-0.34,0l-1.97,-5l-2.28,5l-0.31,0l-2.52,-6.58c-0.16,-0.42,-0.32,-0.7,-0.48,-0.84c-0.16,-0.15,-0.41,-0.26,-0.76,-0.33l0,-0.31m17.87,6.7c-0.8,0.61,-1.31,0.97,-1.52,1.08c-0.3,0.14,-0.63,0.2,-0.98,0.2c-0.54,0,-0.99,-0.18,-1.34,-0.55c-0.35,-0.37,-0.52,-0.86,-0.52,-1.46c0,-0.37,0.08,-0.7,0.25,-0.98c0.24,-0.39,0.65,-0.75,1.23,-1.09c0.58,-0.34,1.54,-0.76,2.88,-1.25l0,-0.31c0,-0.78,-0.12,-1.32,-0.37,-1.6c-0.25,-0.29,-0.61,-0.43,-1.08,-0.43c-0.36,0,-0.65,0.09,-0.86,0.28c-0.22,0.2,-0.33,0.42,-0.33,0.67l0.02,0.5c0,0.26,-0.07,0.46,-0.2,0.6c-0.13,0.14,-0.3,0.21,-0.52,0.21c-0.21,0,-0.38,-0.07,-0.52,-0.22c-0.14,-0.15,-0.2,-0.35,-0.2,-0.61c0,-0.49,0.25,-0.94,0.75,-1.35c0.5,-0.41,1.2,-0.62,2.11,-0.62c0.7,0,1.27,0.12,1.72,0.36c0.33,0.18,0.58,0.45,0.73,0.83c0.1,0.24,0.16,0.74,0.16,1.5l0,2.66c0,0.75,0.02,1.21,0.05,1.37c0.03,0.17,0.08,0.28,0.14,0.34c0.06,0.06,0.14,0.09,0.22,0.09c0.09,0,0.18,-0.02,0.25,-0.06c0.11,-0.07,0.34,-0.28,0.69,-0.62l0,0.48c-0.64,0.85,-1.24,1.28,-1.83,1.28c-0.28,0,-0.51,-0.1,-0.67,-0.29c-0.17,-0.19,-0.25,-0.52,-0.25,-0.99m0,-0.56l0,-2.98c-0.86,0.34,-1.42,0.59,-1.67,0.73c-0.45,0.25,-0.77,0.51,-0.96,0.78c-0.19,0.27,-0.29,0.57,-0.29,0.91c0,0.41,0.12,0.74,0.37,1.02c0.24,0.27,0.52,0.41,0.84,0.41c0.44,0,1.01,-0.29,1.72,-0.86m5.86,-6.37l0,1.77c0.65,-1.18,1.32,-1.77,2.02,-1.77c0.31,0,0.57,0.1,0.77,0.29c0.2,0.19,0.3,0.41,0.3,0.66c0,0.22,-0.07,0.41,-0.22,0.56c-0.15,0.16,-0.32,0.23,-0.53,0.23c-0.2,0,-0.42,-0.1,-0.67,-0.3c-0.25,-0.2,-0.43,-0.3,-0.55,-0.3c-0.1,0,-0.22,0.06,-0.34,0.17c-0.25,0.23,-0.51,0.61,-0.78,1.16l0,3.75c0,0.44,0.05,0.77,0.16,0.98c0.07,0.16,0.2,0.28,0.39,0.38c0.19,0.1,0.46,0.15,0.81,0.15l0,0.31l-4,0l0,-0.31c0.4,0,0.69,-0.06,0.87,-0.19c0.15,-0.08,0.25,-0.23,0.31,-0.44c0.02,-0.09,0.03,-0.37,0.03,-0.83l0,-3.03c0,-0.91,-0.02,-1.45,-0.05,-1.62c-0.04,-0.18,-0.1,-0.3,-0.2,-0.38c-0.1,-0.08,-0.22,-0.12,-0.37,-0.12c-0.18,0,-0.37,0.04,-0.59,0.12l-0.09,-0.3l2.37,-0.97l0.36,0m9.23,7.19c-0.39,0.4,-0.76,0.68,-1.12,0.85c-0.36,0.17,-0.76,0.26,-1.17,0.26c-0.85,0,-1.6,-0.36,-2.24,-1.07c-0.64,-0.71,-0.96,-1.63,-0.96,-2.76c0,-1.11,0.35,-2.14,1.06,-3.07c0.71,-0.93,1.61,-1.4,2.72,-1.4c0.7,0,1.27,0.22,1.72,0.66l0,-1.45c0,-0.89,-0.02,-1.43,-0.06,-1.64c-0.04,-0.21,-0.11,-0.35,-0.2,-0.42c-0.09,-0.07,-0.21,-0.11,-0.34,-0.11c-0.15,0,-0.34,0.05,-0.59,0.14l-0.11,-0.3l2.33,-0.97l0.39,0l0,9.05c0,0.93,0.02,1.49,0.06,1.69c0.04,0.2,0.11,0.34,0.2,0.42c0.09,0.08,0.2,0.12,0.33,0.12c0.16,0,0.36,-0.05,0.62,-0.16l0.09,0.31l-2.33,0.95l-0.39,0l0,-1.11m0,-0.61l0,-4.03c-0.03,-0.39,-0.13,-0.74,-0.3,-1.05c-0.17,-0.32,-0.4,-0.56,-0.68,-0.72c-0.28,-0.16,-0.56,-0.24,-0.83,-0.24c-0.5,0,-0.95,0.22,-1.34,0.67c-0.52,0.59,-0.78,1.46,-0.78,2.59c0,1.16,0.25,2.04,0.76,2.65c0.51,0.61,1.07,0.91,1.68,0.91c0.51,0,1.01,-0.26,1.5,-0.78m10.73,-8.92l0,2.58l1.84,0l0,0.59l-1.84,0l0,5.08c0,0.51,0.07,0.85,0.22,1.03c0.15,0.18,0.33,0.27,0.56,0.27c0.19,0,0.37,-0.06,0.55,-0.18c0.18,-0.12,0.31,-0.29,0.41,-0.52l0.34,0c-0.2,0.56,-0.48,0.98,-0.84,1.27c-0.36,0.28,-0.74,0.42,-1.14,0.42c-0.26,0,-0.52,-0.07,-0.77,-0.22c-0.25,-0.15,-0.43,-0.35,-0.55,-0.62c-0.12,-0.27,-0.18,-0.69,-0.18,-1.25l0,-5.27l-1.23,0l0,-0.28c0.31,-0.12,0.63,-0.34,0.96,-0.63c0.33,-0.3,0.62,-0.65,0.88,-1.07c0.12,-0.21,0.31,-0.6,0.55,-1.19l0.25,0m4.72,-1.75c0.24,0,0.45,0.09,0.62,0.26c0.17,0.17,0.26,0.38,0.26,0.62c0,0.24,-0.09,0.44,-0.26,0.61c-0.17,0.17,-0.38,0.25,-0.62,0.25c-0.24,0,-0.44,-0.08,-0.61,-0.25c-0.17,-0.17,-0.25,-0.37,-0.25,-0.61c0,-0.24,0.08,-0.45,0.25,-0.62c0.17,-0.17,0.37,-0.26,0.61,-0.26m0.72,4.09l0,6.3c0,0.49,0.03,0.82,0.1,0.98c0.07,0.16,0.17,0.28,0.31,0.36c0.14,0.08,0.4,0.12,0.77,0.12l0,0.31l-3.81,0l0,-0.31c0.39,0,0.64,-0.04,0.77,-0.11c0.13,-0.07,0.23,-0.2,0.31,-0.37c0.08,-0.17,0.12,-0.5,0.12,-0.98l0,-3.02c0,-0.85,-0.03,-1.41,-0.08,-1.66c-0.04,-0.18,-0.1,-0.3,-0.19,-0.37c-0.08,-0.07,-0.2,-0.11,-0.34,-0.11c-0.17,0,-0.36,0.04,-0.59,0.12l-0.11,-0.3l2.36,-0.97l0.37,0m7.94,5.09c-0.21,1.03,-0.62,1.82,-1.23,2.37c-0.61,0.55,-1.3,0.83,-2.05,0.83c-0.89,0,-1.66,-0.37,-2.32,-1.12c-0.66,-0.74,-0.99,-1.75,-0.99,-3.02c0,-1.23,0.37,-2.23,1.1,-3c0.73,-0.77,1.61,-1.16,2.63,-1.16c0.77,0,1.4,0.2,1.9,0.61c0.49,0.41,0.74,0.83,0.74,1.28c0,0.21,-0.07,0.38,-0.21,0.52c-0.14,0.14,-0.34,0.2,-0.59,0.2c-0.33,0,-0.58,-0.11,-0.75,-0.33c-0.1,-0.11,-0.17,-0.34,-0.2,-0.68c-0.03,-0.34,-0.15,-0.6,-0.34,-0.77c-0.2,-0.17,-0.47,-0.25,-0.83,-0.25c-0.56,0,-1.02,0.21,-1.37,0.62c-0.46,0.56,-0.69,1.3,-0.69,2.22c0,0.94,0.23,1.76,0.69,2.48c0.46,0.71,1.08,1.07,1.86,1.07c0.55,0,1.05,-0.19,1.5,-0.58c0.31,-0.26,0.62,-0.73,0.92,-1.42l0.23,0.12m3.67,-9.19l0,7.8l2,-1.81c0.42,-0.4,0.66,-0.64,0.73,-0.73c0.04,-0.07,0.06,-0.15,0.06,-0.22c0,-0.1,-0.05,-0.2,-0.14,-0.28c-0.09,-0.08,-0.25,-0.13,-0.47,-0.14l0,-0.28l3.41,0l0,0.28c-0.47,0.01,-0.86,0.08,-1.17,0.21c-0.31,0.13,-0.65,0.36,-1.02,0.7l-2.02,1.86l2.02,2.53c0.55,0.7,0.93,1.14,1.12,1.33c0.27,0.27,0.51,0.45,0.72,0.53c0.15,0.05,0.4,0.08,0.75,0.08l0,0.31l-3.81,0l0,-0.31c0.22,0,0.37,-0.03,0.45,-0.09c0.08,-0.06,0.12,-0.15,0.12,-0.25c0,-0.14,-0.11,-0.35,-0.34,-0.64l-2.41,-3.06l0,2.59c0,0.51,0.04,0.85,0.11,1.01c0.07,0.16,0.17,0.28,0.3,0.34c0.13,0.07,0.41,0.1,0.85,0.1l0,0.31l-3.98,0l0,-0.31c0.41,0,0.71,-0.05,0.91,-0.14c0.11,-0.06,0.2,-0.16,0.27,-0.3c0.08,-0.19,0.12,-0.51,0.12,-0.97l0,-7.12c0,-0.91,-0.02,-1.46,-0.05,-1.66c-0.04,-0.2,-0.1,-0.34,-0.2,-0.42c-0.09,-0.08,-0.21,-0.12,-0.36,-0.12c-0.11,0,-0.29,0.05,-0.53,0.16l-0.16,-0.3l2.33,-0.97l0.39,0m11.75,4.09l0,2.67l-0.28,0c-0.22,-0.83,-0.5,-1.4,-0.84,-1.7c-0.34,-0.3,-0.77,-0.45,-1.29,-0.45c-0.41,0,-0.73,0.1,-0.98,0.31c-0.24,0.21,-0.37,0.44,-0.37,0.7c0,0.31,0.09,0.58,0.28,0.81c0.18,0.24,0.54,0.49,1.08,0.75l1.23,0.61c1.16,0.56,1.73,1.3,1.73,2.22c0,0.72,-0.27,1.29,-0.8,1.73c-0.54,0.43,-1.14,0.65,-1.8,0.65c-0.48,0,-1.03,-0.08,-1.64,-0.25c-0.19,-0.06,-0.34,-0.09,-0.45,-0.09c-0.14,0,-0.24,0.08,-0.31,0.23l-0.28,0l0,-2.8l0.28,0c0.16,0.79,0.46,1.39,0.91,1.8c0.45,0.41,0.96,0.61,1.51,0.61c0.4,0,0.72,-0.11,0.97,-0.34c0.25,-0.23,0.37,-0.51,0.37,-0.83c0,-0.4,-0.14,-0.73,-0.41,-1c-0.28,-0.27,-0.83,-0.61,-1.66,-1.02c-0.83,-0.41,-1.37,-0.78,-1.63,-1.11c-0.25,-0.32,-0.37,-0.73,-0.37,-1.23c0,-0.65,0.22,-1.18,0.66,-1.62c0.44,-0.43,1.01,-0.65,1.72,-0.65c0.3,0,0.67,0.07,1.11,0.2c0.29,0.08,0.49,0.12,0.59,0.12c0.08,0,0.15,-0.02,0.2,-0.06c0.05,-0.04,0.11,-0.13,0.19,-0.27l0.28,0m10.77,0c1.19,0,2.14,0.45,2.86,1.36c0.6,0.77,0.91,1.65,0.91,2.64c0,0.7,-0.17,1.41,-0.5,2.12c-0.33,0.72,-0.8,1.26,-1.39,1.62c-0.59,0.36,-1.25,0.55,-1.97,0.55c-1.18,0,-2.11,-0.47,-2.81,-1.41c-0.58,-0.79,-0.87,-1.68,-0.87,-2.67c0,-0.71,0.18,-1.42,0.53,-2.13c0.35,-0.71,0.82,-1.24,1.41,-1.58c0.58,-0.34,1.2,-0.51,1.84,-0.51m-0.27,0.56c-0.3,0,-0.6,0.09,-0.91,0.27c-0.3,0.18,-0.55,0.49,-0.74,0.95c-0.19,0.45,-0.29,1.03,-0.29,1.74c0,1.14,0.23,2.11,0.68,2.94c0.45,0.82,1.05,1.23,1.8,1.23c0.55,0,1.01,-0.23,1.36,-0.68c0.35,-0.45,0.53,-1.24,0.53,-2.35c0,-1.39,-0.3,-2.48,-0.89,-3.28c-0.41,-0.54,-0.92,-0.81,-1.55,-0.81m7.72,1.09c0.92,-1.1,1.79,-1.66,2.62,-1.66c0.43,0,0.79,0.11,1.1,0.32c0.31,0.21,0.55,0.57,0.73,1.05c0.14,0.34,0.2,0.87,0.2,1.58l0,3.34c0,0.49,0.04,0.82,0.11,1c0.06,0.15,0.16,0.26,0.3,0.34c0.14,0.08,0.4,0.12,0.77,0.12l0,0.31l-3.87,0l0,-0.31l0.17,0c0.36,0,0.62,-0.05,0.77,-0.16c0.15,-0.11,0.24,-0.27,0.3,-0.49c0.02,-0.08,0.03,-0.35,0.03,-0.8l0,-3.2c0,-0.72,-0.09,-1.24,-0.27,-1.55c-0.18,-0.32,-0.49,-0.48,-0.93,-0.48c-0.68,0,-1.35,0.37,-2.03,1.11l0,4.12c0,0.53,0.03,0.86,0.09,0.98c0.08,0.17,0.19,0.29,0.33,0.36c0.14,0.07,0.42,0.11,0.86,0.11l0,0.31l-3.87,0l0,-0.31l0.17,0c0.4,0,0.66,-0.1,0.8,-0.3c0.14,-0.2,0.21,-0.59,0.21,-1.15l0,-2.91c0,-0.94,-0.02,-1.51,-0.06,-1.72c-0.04,-0.21,-0.11,-0.35,-0.2,-0.42c-0.09,-0.07,-0.21,-0.11,-0.37,-0.11c-0.16,0,-0.34,0.04,-0.56,0.12l-0.12,-0.3l2.36,-0.97l0.36,0l0,1.66m13.98,-4l0,2.58l1.84,0l0,0.59l-1.84,0l0,5.08c0,0.51,0.07,0.85,0.22,1.03c0.15,0.18,0.33,0.27,0.56,0.27c0.19,0,0.37,-0.06,0.55,-0.18c0.18,-0.12,0.31,-0.29,0.41,-0.52l0.34,0c-0.2,0.56,-0.48,0.98,-0.84,1.27c-0.36,0.28,-0.74,0.42,-1.14,0.42c-0.26,0,-0.52,-0.07,-0.77,-0.22c-0.25,-0.15,-0.43,-0.35,-0.55,-0.62c-0.12,-0.27,-0.18,-0.69,-0.18,-1.25l0,-5.27l-1.23,0l0,-0.28c0.31,-0.12,0.63,-0.34,0.96,-0.63c0.33,-0.3,0.62,-0.65,0.88,-1.07c0.12,-0.21,0.31,-0.6,0.55,-1.19l0.25,0m5.03,-1.75l0,5.73c0.64,-0.7,1.14,-1.15,1.51,-1.34c0.37,-0.2,0.74,-0.3,1.1,-0.3c0.45,0,0.83,0.12,1.15,0.37c0.32,0.24,0.55,0.63,0.71,1.16c0.11,0.36,0.17,1.03,0.17,2l0,2.77c0,0.49,0.04,0.83,0.11,1.02c0.06,0.14,0.16,0.24,0.3,0.32c0.14,0.08,0.39,0.12,0.75,0.12l0,0.31l-3.84,0l0,-0.31l0.17,0c0.36,0,0.62,-0.05,0.77,-0.16c0.15,-0.11,0.24,-0.27,0.3,-0.49c0.02,-0.09,0.03,-0.36,0.03,-0.8l0,-2.77c0,-0.85,-0.04,-1.42,-0.13,-1.69c-0.09,-0.27,-0.23,-0.47,-0.42,-0.61c-0.19,-0.14,-0.43,-0.2,-0.71,-0.2c-0.27,0,-0.56,0.08,-0.86,0.23c-0.3,0.15,-0.67,0.45,-1.09,0.9l0,4.14c0,0.53,0.03,0.86,0.09,0.99c0.06,0.13,0.17,0.24,0.34,0.33c0.16,0.09,0.44,0.13,0.84,0.13l0,0.31l-3.87,0l0,-0.31c0.34,0,0.61,-0.05,0.81,-0.16c0.11,-0.06,0.21,-0.17,0.27,-0.33c0.07,-0.16,0.1,-0.48,0.1,-0.97l0,-7.09c0,-0.89,-0.02,-1.43,-0.06,-1.64c-0.04,-0.21,-0.11,-0.35,-0.2,-0.42c-0.09,-0.07,-0.21,-0.11,-0.35,-0.11c-0.12,0,-0.32,0.05,-0.58,0.14l-0.12,-0.3l2.34,-0.97l0.39,0m8.69,0c0.24,0,0.45,0.09,0.62,0.26c0.17,0.17,0.26,0.38,0.26,0.62c0,0.24,-0.09,0.44,-0.26,0.61c-0.17,0.17,-0.38,0.25,-0.62,0.25c-0.24,0,-0.44,-0.08,-0.61,-0.25c-0.17,-0.17,-0.25,-0.37,-0.25,-0.61c0,-0.24,0.08,-0.45,0.25,-0.62c0.17,-0.17,0.37,-0.26,0.61,-0.26m0.72,4.09l0,6.3c0,0.49,0.03,0.82,0.1,0.98c0.07,0.16,0.17,0.28,0.31,0.36c0.14,0.08,0.4,0.12,0.77,0.12l0,0.31l-3.81,0l0,-0.31c0.39,0,0.64,-0.04,0.77,-0.11c0.13,-0.07,0.23,-0.2,0.31,-0.37c0.08,-0.17,0.12,-0.5,0.12,-0.98l0,-3.02c0,-0.85,-0.03,-1.41,-0.08,-1.66c-0.04,-0.18,-0.1,-0.3,-0.19,-0.37c-0.08,-0.07,-0.2,-0.11,-0.34,-0.11c-0.17,0,-0.36,0.04,-0.59,0.12l-0.11,-0.3l2.36,-0.97l0.37,0m6.36,0l0,2.67l-0.28,0c-0.22,-0.83,-0.5,-1.4,-0.84,-1.7c-0.34,-0.3,-0.77,-0.45,-1.29,-0.45c-0.41,0,-0.73,0.1,-0.98,0.31c-0.24,0.21,-0.37,0.44,-0.37,0.7c0,0.31,0.09,0.58,0.28,0.81c0.18,0.24,0.54,0.49,1.08,0.75l1.23,0.61c1.16,0.56,1.73,1.3,1.73,2.22c0,0.72,-0.27,1.29,-0.8,1.73c-0.54,0.43,-1.14,0.65,-1.8,0.65c-0.48,0,-1.03,-0.08,-1.64,-0.25c-0.19,-0.06,-0.34,-0.09,-0.45,-0.09c-0.14,0,-0.24,0.08,-0.31,0.23l-0.28,0l0,-2.8l0.28,0c0.16,0.79,0.46,1.39,0.91,1.8c0.45,0.41,0.96,0.61,1.51,0.61c0.4,0,0.72,-0.11,0.97,-0.34c0.25,-0.23,0.37,-0.51,0.37,-0.83c0,-0.4,-0.14,-0.73,-0.41,-1c-0.28,-0.27,-0.83,-0.61,-1.66,-1.02c-0.83,-0.41,-1.37,-0.78,-1.63,-1.11c-0.25,-0.32,-0.37,-0.73,-0.37,-1.23c0,-0.65,0.22,-1.18,0.66,-1.62c0.44,-0.43,1.01,-0.65,1.72,-0.65c0.3,0,0.67,0.07,1.11,0.2c0.29,0.08,0.49,0.12,0.59,0.12c0.08,0,0.15,-0.02,0.2,-0.06c0.05,-0.04,0.11,-0.13,0.19,-0.27l0.28,0m6.5,0.23l3.64,0l0,0.31l-0.17,0c-0.26,0,-0.46,0.06,-0.59,0.17c-0.13,0.11,-0.2,0.25,-0.2,0.41c0,0.23,0.09,0.54,0.28,0.94l1.91,3.94l1.75,-4.33c0.1,-0.23,0.16,-0.46,0.16,-0.69c0,-0.1,-0.02,-0.18,-0.06,-0.23c-0.04,-0.06,-0.11,-0.11,-0.21,-0.15c-0.1,-0.04,-0.27,-0.05,-0.52,-0.05l0,-0.31l2.55,0l0,0.31c-0.21,0.02,-0.37,0.07,-0.48,0.14c-0.11,0.07,-0.24,0.2,-0.37,0.39c-0.05,0.07,-0.15,0.29,-0.28,0.66l-3.19,7.81c-0.31,0.75,-0.72,1.32,-1.22,1.71c-0.5,0.39,-0.98,0.59,-1.44,0.59c-0.33,0,-0.61,-0.1,-0.83,-0.29c-0.22,-0.19,-0.33,-0.42,-0.33,-0.68c0,-0.23,0.08,-0.42,0.23,-0.56c0.16,-0.15,0.37,-0.22,0.66,-0.22c0.19,0,0.44,0.06,0.77,0.19c0.23,0.08,0.37,0.12,0.42,0.12c0.18,0,0.36,-0.09,0.56,-0.27c0.2,-0.18,0.4,-0.52,0.61,-1.03l0.56,-1.36l-2.81,-5.91c-0.08,-0.18,-0.22,-0.4,-0.42,-0.66c-0.14,-0.2,-0.25,-0.33,-0.34,-0.39c-0.14,-0.09,-0.34,-0.18,-0.62,-0.25l0,-0.31m18.87,6.7c-0.8,0.61,-1.31,0.97,-1.52,1.08c-0.3,0.14,-0.63,0.2,-0.98,0.2c-0.54,0,-0.99,-0.18,-1.34,-0.55c-0.35,-0.37,-0.52,-0.86,-0.52,-1.46c0,-0.37,0.08,-0.7,0.25,-0.98c0.24,-0.39,0.65,-0.75,1.23,-1.09c0.58,-0.34,1.54,-0.76,2.88,-1.25l0,-0.31c0,-0.78,-0.12,-1.32,-0.37,-1.6c-0.25,-0.29,-0.61,-0.43,-1.08,-0.43c-0.36,0,-0.65,0.09,-0.86,0.28c-0.22,0.2,-0.33,0.42,-0.33,0.67l0.02,0.5c0,0.26,-0.07,0.46,-0.2,0.6c-0.13,0.14,-0.3,0.21,-0.52,0.21c-0.21,0,-0.38,-0.07,-0.52,-0.22c-0.14,-0.15,-0.2,-0.35,-0.2,-0.61c0,-0.49,0.25,-0.94,0.75,-1.35c0.5,-0.41,1.2,-0.62,2.11,-0.62c0.7,0,1.27,0.12,1.72,0.36c0.33,0.18,0.58,0.45,0.73,0.83c0.1,0.24,0.16,0.74,0.16,1.5l0,2.66c0,0.75,0.02,1.21,0.05,1.37c0.03,0.17,0.08,0.28,0.14,0.34c0.06,0.06,0.14,0.09,0.22,0.09c0.09,0,0.18,-0.02,0.25,-0.06c0.11,-0.07,0.34,-0.28,0.69,-0.62l0,0.48c-0.64,0.85,-1.24,1.28,-1.83,1.28c-0.28,0,-0.51,-0.1,-0.67,-0.29c-0.17,-0.19,-0.25,-0.52,-0.25,-0.99m0,-0.56l0,-2.98c-0.86,0.34,-1.42,0.59,-1.67,0.73c-0.45,0.25,-0.77,0.51,-0.96,0.78c-0.19,0.27,-0.29,0.57,-0.29,0.91c0,0.41,0.12,0.74,0.37,1.02c0.24,0.27,0.52,0.41,0.84,0.41c0.44,0,1.01,-0.29,1.72,-0.86m3.25,-6.14l3.67,0l0,0.31c-0.23,0,-0.39,0.04,-0.48,0.12c-0.09,0.08,-0.14,0.19,-0.14,0.31c0,0.14,0.1,0.35,0.3,0.64c0.06,0.08,0.16,0.22,0.28,0.42l0.56,0.89l0.64,-0.89c0.41,-0.56,0.61,-0.92,0.61,-1.06c0,-0.12,-0.05,-0.23,-0.14,-0.31c-0.09,-0.08,-0.25,-0.12,-0.47,-0.12l0,-0.31l2.64,0l0,0.31c-0.28,0.02,-0.52,0.1,-0.72,0.23c-0.28,0.2,-0.66,0.62,-1.14,1.27l-1.08,1.42l1.95,2.81c0.48,0.69,0.82,1.1,1.02,1.24c0.2,0.14,0.47,0.22,0.79,0.23l0,0.31l-3.69,0l0,-0.31c0.26,0,0.46,-0.06,0.59,-0.17c0.11,-0.07,0.17,-0.18,0.17,-0.31c0,-0.12,-0.18,-0.45,-0.55,-0.98l-1.16,-1.67l-1.25,1.67c-0.39,0.51,-0.58,0.82,-0.58,0.92c0,0.14,0.07,0.26,0.2,0.37c0.13,0.11,0.32,0.17,0.57,0.18l0,0.31l-2.55,0l0,-0.31c0.2,-0.02,0.37,-0.09,0.53,-0.2c0.22,-0.17,0.58,-0.59,1.09,-1.27l1.64,-2.19l-1.48,-2.16c-0.43,-0.61,-0.76,-1,-0.98,-1.16c-0.23,-0.16,-0.52,-0.23,-0.86,-0.23l0,-0.31m10.3,-4.33c0.24,0,0.45,0.09,0.62,0.26c0.17,0.17,0.26,0.38,0.26,0.62c0,0.24,-0.09,0.44,-0.26,0.61c-0.17,0.17,-0.38,0.25,-0.62,0.25c-0.24,0,-0.44,-0.08,-0.61,-0.25c-0.17,-0.17,-0.25,-0.37,-0.25,-0.61c0,-0.24,0.08,-0.45,0.25,-0.62c0.17,-0.17,0.37,-0.26,0.61,-0.26m0.72,4.09l0,6.3c0,0.49,0.03,0.82,0.1,0.98c0.07,0.16,0.17,0.28,0.31,0.36c0.14,0.08,0.4,0.12,0.77,0.12l0,0.31l-3.81,0l0,-0.31c0.39,0,0.64,-0.04,0.77,-0.11c0.13,-0.07,0.23,-0.2,0.31,-0.37c0.08,-0.17,0.12,-0.5,0.12,-0.98l0,-3.02c0,-0.85,-0.03,-1.41,-0.08,-1.66c-0.04,-0.18,-0.1,-0.3,-0.19,-0.37c-0.08,-0.07,-0.2,-0.11,-0.34,-0.11c-0.17,0,-0.36,0.04,-0.59,0.12l-0.11,-0.3l2.36,-0.97l0.37,0m6.36,0l0,2.67l-0.28,0c-0.22,-0.83,-0.5,-1.4,-0.84,-1.7c-0.34,-0.3,-0.77,-0.45,-1.29,-0.45c-0.41,0,-0.73,0.1,-0.98,0.31c-0.24,0.21,-0.37,0.44,-0.37,0.7c0,0.31,0.09,0.58,0.28,0.81c0.18,0.24,0.54,0.49,1.08,0.75l1.23,0.61c1.16,0.56,1.73,1.3,1.73,2.22c0,0.72,-0.27,1.29,-0.8,1.73c-0.54,0.43,-1.14,0.65,-1.8,0.65c-0.48,0,-1.03,-0.08,-1.64,-0.25c-0.19,-0.06,-0.34,-0.09,-0.45,-0.09c-0.14,0,-0.24,0.08,-0.31,0.23l-0.28,0l0,-2.8l0.28,0c0.16,0.79,0.46,1.39,0.91,1.8c0.45,0.41,0.96,0.61,1.51,0.61c0.4,0,0.72,-0.11,0.97,-0.34c0.25,-0.23,0.37,-0.51,0.37,-0.83c0,-0.4,-0.14,-0.73,-0.41,-1c-0.28,-0.27,-0.83,-0.61,-1.66,-1.02c-0.83,-0.41,-1.37,-0.78,-1.63,-1.11c-0.25,-0.32,-0.37,-0.73,-0.37,-1.23c0,-0.65,0.22,-1.18,0.66,-1.62c0.44,-0.43,1.01,-0.65,1.72,-0.65c0.3,0,0.67,0.07,1.11,0.2c0.29,0.08,0.49,0.12,0.59,0.12c0.08,0,0.15,-0.02,0.2,-0.06c0.05,-0.04,0.11,-0.13,0.19,-0.27l0.28,0" fill="#000000" stroke="none" fill-opacity="1"/>
</g>
<g stroke-width="1" fill="none">
<path d="m40.48,473.55l-9.22,0l0,-0.7l9.22,0l0,0.7m8.5,3.23l-0.81,2.23l-6.84,0l0,-0.31c2.01,-1.83,3.43,-3.33,4.25,-4.49c0.82,-1.16,1.23,-2.23,1.23,-3.2c0,-0.73,-0.23,-1.33,-0.68,-1.8c-0.45,-0.47,-0.99,-0.71,-1.62,-0.71c-0.57,0,-1.09,0.17,-1.54,0.5c-0.45,0.33,-0.78,0.82,-0.99,1.47l-0.33,0c0.15,-1.06,0.51,-1.87,1.1,-2.44c0.59,-0.56,1.33,-0.84,2.21,-0.84c0.94,0,1.72,0.3,2.35,0.91c0.63,0.6,0.95,1.32,0.95,2.14c0,0.58,-0.14,1.17,-0.41,1.75c-0.43,0.93,-1.11,1.91,-2.05,2.94c-1.43,1.55,-2.31,2.48,-2.66,2.8l3.02,0c0.61,0,1.05,-0.02,1.3,-0.06c0.25,-0.04,0.47,-0.13,0.67,-0.27c0.2,-0.14,0.37,-0.34,0.52,-0.6l0.33,0" fill="#000000" stroke="none" fill-opacity="1"/>
<path d="m40.48,357.08l-9.22,0l0,-0.7l9.22,0l0,0.7m2.52,-4.98l2.83,-1.37l0.28,0l0,9.78c0,0.66,0.03,1.06,0.08,1.22c0.05,0.16,0.16,0.28,0.34,0.37c0.17,0.09,0.52,0.14,1.04,0.15l0,0.31l-4.36,0l0,-0.31c0.55,-0.01,0.91,-0.06,1.07,-0.14c0.16,-0.08,0.27,-0.2,0.34,-0.34c0.06,-0.14,0.09,-0.56,0.09,-1.26l0,-6.25c0,-0.84,-0.03,-1.39,-0.09,-1.62c-0.04,-0.18,-0.11,-0.31,-0.22,-0.4c-0.1,-0.09,-0.23,-0.13,-0.37,-0.13c-0.21,0,-0.51,0.09,-0.89,0.27l-0.12,-0.27" fill="#000000" stroke="none" fill-opacity="1"/>
<path d="m41.58,240.34c0,-1.32,0.2,-2.46,0.6,-3.41c0.4,-0.95,0.93,-1.66,1.59,-2.13c0.52,-0.37,1.05,-0.56,1.59,-0.56c0.9,0,1.69,0.45,2.39,1.36c0.89,1.12,1.33,2.65,1.33,4.56c0,1.34,-0.19,2.49,-0.58,3.43c-0.39,0.94,-0.88,1.62,-1.48,2.05c-0.6,0.42,-1.18,0.63,-1.73,0.63c-1.1,0,-2.03,-0.65,-2.77,-1.95c-0.62,-1.1,-0.94,-2.43,-0.94,-3.97m1.69,0.2c0,1.59,0.19,2.9,0.58,3.91c0.33,0.85,0.82,1.28,1.45,1.28c0.31,0,0.63,-0.14,0.96,-0.41c0.33,-0.28,0.58,-0.74,0.76,-1.4c0.26,-0.98,0.39,-2.36,0.39,-4.14c0,-1.32,-0.14,-2.43,-0.41,-3.31c-0.21,-0.65,-0.47,-1.11,-0.8,-1.39c-0.24,-0.19,-0.52,-0.28,-0.84,-0.28c-0.4,0,-0.74,0.18,-1.05,0.53c-0.41,0.47,-0.68,1.21,-0.83,2.23c-0.15,1.02,-0.22,2.01,-0.22,2.99" fill="#000000" stroke="none" fill-opacity="1"/>
<path d="m43,119.12l2.83,-1.37l0.28,0l0,9.78c0,0.66,0.03,1.06,0.08,1.22c0.05,0.16,0.16,0.28,0.34,0.37c0.17,0.09,0.52,0.14,1.04,0.15l0,0.31l-4.36,0l0,-0.31c0.55,-0.01,0.91,-0.06,1.07,-0.14c0.16,-0.08,0.27,-0.2,0.34,-0.34c0.06,-0.14,0.09,-0.56,0.09,-1.26l0,-6.25c0,-0.84,-0.03,-1.39,-0.09,-1.62c-0.04,-0.18,-0.11,-0.31,-0.22,-0.4c-0.1,-0.09,-0.23,-0.13,-0.37,-0.13c-0.21,0,-0.51,0.09,-0.89,0.27l-0.12,-0.27" fill="#000000" stroke="none" fill-opacity="1"/>
<path d="m48.98,13.77l-0.81,2.23l-6.84,0l0,-0.31c2.01,-1.83,3.43,-3.33,4.25,-4.49c0.82,-1.16,1.23,-2.23,1.23,-3.2c0,-0.73,-0.23,-1.33,-0.68,-1.8c-0.45,-0.47,-0.99,-0.71,-1.62,-0.71c-0.57,0,-1.09,0.17,-1.54,0.5c-0.45,0.33,-0.78,0.82,-0.99,1.47l-0.33,0c0.15,-1.06,0.51,-1.87,1.1,-2.44c0.59,-0.56,1.33,-0.84,2.21,-0.84c0.94,0,1.72,0.3,2.35,0.91c0.63,0.6,0.95,1.32,0.95,2.14c0,0.58,-0.14,1.17,-0.41,1.75c-0.43,0.93,-1.11,1.91,-2.05,2.94c-1.43,1.55,-2.31,2.48,-2.66,2.8l3.02,0c0.61,0,1.05,-0.02,1.3,-0.06c0.25,-0.04,0.47,-0.13,0.67,-0.27c0.2,-0.14,0.37,-0.34,0.52,-0.6l0.33,0" fill="#000000" stroke="none" fill-opacity="1"/>
</g>
<g stroke-width="0.62" stroke-linecap="butt" fill="none">
<path d="M60.46,473.03l465.91,0"/>
<path d="M60.46,473.03l0,3.75M83.76,473.03l0,3.75M107.05,473.03l0,3.75M130.35,473.03l0,3.75M153.64,473.03l0,3.75M176.94,473.03l0,3.75M200.24,473.03l0,3.75M223.53,473.03l0,3.75M246.83,473.03l0,3.75M270.12,473.03l0,3.75M293.42,473.03l0,3.75M316.71,473.03l0,3.75M340.01,473.03l0,3.75M363.31,473.03l0,3.75M386.6,473.03l0,3.75M409.9,473.03l0,3.75M433.19,473.03l0,3.75M456.49,473.03l0,3.75M479.78,473.03l0,3.75M503.08,473.03l0,3.75M526.38,473.03l0,3.75"/>
<path d="M60.46,473.03l0,7.5M176.94,473.03l0,7.5M293.42,473.03l0,7.5M409.9,473.03l0,7.5M526.38,473.03l0,7.5"/>
<path d="M60.46,7.11l465.91,0"/>
<path d="M60.46,7.11l0,-3.75M83.76,7.11l0,-3.75M107.05,7.11l0,-3.75M130.35,7.11l0,-3.75M153.64,7.11l0,-3.75M176.94,7.11l0,-3.75M200.24,7.11l0,-3.75M223.53,7.11l0,-3.75M246.83,7.11l0,-3.75M270.12,7.11l0,-3.75M293.42,7.11l0,-3.75M316.71,7.11l0,-3.75M340.01,7.11l0,-3.75M363.31,7.11l0,-3.75M386.6,7.11l0,-3.75M409.9,7.11l0,-3.75M433.19,7.11l0,-3.75M456.49,7.11l0,-3.75M479.78,7.11l0,-3.75M503.08,7.11l0,-3.75M526.38,7.11l0,-3.75"/>
<path d="M60.46,7.11l0,-7.5M176.94,7.11l0,-7.5M293.42,7.11l0,-7.5M409.9,7.11l0,-7.5M526.38,7.11l0,-7.5"/>
</g>
<g stroke-width="1" fill="none">
<path d="m200.31,509.66c1.5,0,2.8,0.57,3.91,1.72c1.1,1.15,1.66,2.57,1.66,4.28c0,1.76,-0.56,3.22,-1.67,4.38c-1.11,1.16,-2.46,1.74,-4.03,1.74c-1.59,0,-2.93,-0.57,-4.02,-1.7c-1.09,-1.14,-1.63,-2.6,-1.63,-4.41c0,-1.83,0.63,-3.33,1.89,-4.5c1.08,-1.01,2.39,-1.52,3.91,-1.52m-0.17,0.62c-1.03,0,-1.86,0.39,-2.48,1.16c-0.78,0.96,-1.17,2.36,-1.17,4.2c0,1.9,0.4,3.35,1.2,4.37c0.62,0.77,1.45,1.16,2.47,1.16c1.08,0,1.98,-0.42,2.69,-1.27c0.71,-0.85,1.06,-2.18,1.06,-4.01c0,-1.99,-0.39,-3.47,-1.17,-4.44c-0.62,-0.78,-1.49,-1.17,-2.59,-1.17m14.17,3.41l0,4.75c0,0.91,0.02,1.46,0.06,1.66c0.04,0.2,0.11,0.34,0.2,0.42c0.09,0.08,0.2,0.12,0.33,0.12c0.18,0,0.38,-0.05,0.61,-0.16l0.11,0.31l-2.33,0.95l-0.39,0l0,-1.66c-0.68,0.73,-1.19,1.19,-1.54,1.37c-0.35,0.19,-0.72,0.28,-1.12,0.28c-0.44,0,-0.82,-0.12,-1.14,-0.37c-0.32,-0.25,-0.55,-0.58,-0.67,-0.98c-0.12,-0.4,-0.19,-0.97,-0.19,-1.7l0,-3.5c0,-0.36,-0.04,-0.62,-0.12,-0.76c-0.08,-0.14,-0.2,-0.25,-0.36,-0.33c-0.16,-0.08,-0.45,-0.12,-0.85,-0.12l0,-0.31l2.75,0l0,5.23c0,0.73,0.12,1.21,0.37,1.44c0.25,0.23,0.56,0.34,0.92,0.34c0.24,0,0.52,-0.08,0.83,-0.23c0.31,-0.15,0.68,-0.45,1.11,-0.88l0,-4.44c0,-0.45,-0.08,-0.75,-0.24,-0.91c-0.16,-0.16,-0.5,-0.24,-1.01,-0.25l0,-0.31l2.66,0m4.41,-2.58l0,2.58l1.84,0l0,0.59l-1.84,0l0,5.08c0,0.51,0.07,0.85,0.22,1.03c0.15,0.18,0.33,0.27,0.56,0.27c0.19,0,0.37,-0.06,0.55,-0.18c0.18,-0.12,0.31,-0.29,0.41,-0.52l0.34,0c-0.2,0.56,-0.48,0.98,-0.84,1.27c-0.36,0.28,-0.74,0.42,-1.14,0.42c-0.26,0,-0.52,-0.07,-0.77,-0.22c-0.25,-0.15,-0.43,-0.35,-0.55,-0.62c-0.12,-0.27,-0.18,-0.69,-0.18,-1.25l0,-5.27l-1.23,0l0,-0.28c0.31,-0.12,0.63,-0.34,0.96,-0.63c0.33,-0.3,0.62,-0.65,0.88,-1.07c0.12,-0.21,0.31,-0.6,0.55,-1.19l0.25,0m2.3,2.58l3.28,0l0,0.31c-0.3,0.02,-0.5,0.08,-0.59,0.16c-0.09,0.09,-0.14,0.21,-0.14,0.37c0,0.18,0.05,0.39,0.14,0.64l1.69,4.5l1.67,-3.66l-0.44,-1.16c-0.14,-0.34,-0.32,-0.58,-0.55,-0.7c-0.12,-0.08,-0.35,-0.14,-0.69,-0.16l0,-0.31l3.72,0l0,0.31c-0.41,0.02,-0.7,0.1,-0.87,0.23c-0.11,0.08,-0.17,0.22,-0.17,0.42c0,0.11,0.03,0.23,0.08,0.36l1.77,4.48l1.66,-4.33c0.11,-0.3,0.17,-0.55,0.17,-0.73c0,-0.1,-0.05,-0.2,-0.16,-0.29c-0.11,-0.09,-0.33,-0.14,-0.66,-0.15l0,-0.31l2.47,0l0,0.31c-0.49,0.07,-0.85,0.41,-1.09,1.02l-2.61,6.73l-0.34,0l-1.97,-5l-2.28,5l-0.31,0l-2.52,-6.58c-0.16,-0.42,-0.32,-0.7,-0.48,-0.84c-0.16,-0.15,-0.41,-0.26,-0.76,-0.33l0,-0.31m17.87,6.7c-0.8,0.61,-1.31,0.97,-1.52,1.08c-0.3,0.14,-0.63,0.2,-0.98,0.2c-0.54,0,-0.99,-0.18,-1.34,-0.55c-0.35,-0.37,-0.52,-0.86,-0.52,-1.46c0,-0.37,0.08,-0.7,0.25,-0.98c0.24,-0.39,0.65,-0.75,1.23,-1.09c0.58,-0.34,1.54,-0.76,2.88,-1.25l0,-0.31c0,-0.78,-0.12,-1.32,-0.37,-1.6c-0.25,-0.29,-0.61,-0.43,-1.08,-0.43c-0.36,0,-0.65,0.09,-0.86,0.28c-0.22,0.2,-0.33,0.42,-0.33,0.67l0.02,0.5c0,0.26,-0.07,0.46,-0.2,0.6c-0.13,0.14,-0.3,0.21,-0.52,0.21c-0.21,0,-0.38,-0.07,-0.52,-0.22c-0.14,-0.15,-0.2,-0.35,-0.2,-0.61c0,-0.49,0.25,-0.94,0.75,-1.35c0.5,-0.41,1.2,-0.62,2.11,-0.62c0.7,0,1.27,0.12,1.72,0.36c0.33,0.18,0.58,0.45,0.73,0.83c0.1,0.24,0.16,0.74,0.16,1.5l0,2.66c0,0.75,0.02,1.21,0.05,1.37c0.03,0.17,0.08,0.28,0.14,0.34c0.06,0.06,0.14,0.09,0.22,0.09c0.09,0,0.18,-0.02,0.25,-0.06c0.11,-0.07,0.34,-0.28,0.69,-0.62l0,0.48c-0.64,0.85,-1.24,1.28,-1.83,1.28c-0.28,0,-0.51,-0.1,-0.67,-0.29c-0.17,-0.19,-0.25,-0.52,-0.25,-0.99m0,-0.56l0,-2.98c-0.86,0.34,-1.42,0.59,-1.67,0.73c-0.45,0.25,-0.77,0.51,-0.96,0.78c-0.19,0.27,-0.29,0.57,-0.29,0.91c0,0.41,0.12,0.74,0.37,1.02c0.24,0.27,0.52,0.41,0.84,0.41c0.44,0,1.01,-0.29,1.72,-0.86m5.86,-6.37l0,1.77c0.65,-1.18,1.32,-1.77,2.02,-1.77c0.31,0,0.57,0.1,0.77,0.29c0.2,0.19,0.3,0.41,0.3,0.66c0,0.22,-0.07,0.41,-0.22,0.56c-0.15,0.16,-0.32,0.23,-0.53,0.23c-0.2,0,-0.42,-0.1,-0.67,-0.3c-0.25,-0.2,-0.43,-0.3,-0.55,-0.3c-0.1,0,-0.22,0.06,-0.34,0.17c-0.25,0.23,-0.51,0.61,-0.78,1.16l0,3.75c0,0.44,0.05,0.77,0.16,0.98c0.07,0.16,0.2,0.28,0.39,0.38c0.19,0.1,0.46,0.15,0.81,0.15l0,0.31l-4,0l0,-0.31c0.4,0,0.69,-0.06,0.87,-0.19c0.15,-0.08,0.25,-0.23,0.31,-0.44c0.02,-0.09,0.03,-0.37,0.03,-0.83l0,-3.03c0,-0.91,-0.02,-1.45,-0.05,-1.62c-0.04,-0.18,-0.1,-0.3,-0.2,-0.38c-0.1,-0.08,-0.22,-0.12,-0.37,-0.12c-0.18,0,-0.37,0.04,-0.59,0.12l-0.09,-0.3l2.37,-0.97l0.36,0m9.23,7.19c-0.39,0.4,-0.76,0.68,-1.12,0.85c-0.36,0.17,-0.76,0.26,-1.17,0.26c-0.85,0,-1.6,-0.36,-2.24,-1.07c-0.64,-0.71,-0.96,-1.63,-0.96,-2.76c0,-1.11,0.35,-2.14,1.06,-3.07c0.71,-0.93,1.61,-1.4,2.72,-1.4c0.7,0,1.27,0.22,1.72,0.66l0,-1.45c0,-0.89,-0.02,-1.43,-0.06,-1.64c-0.04,-0.21,-0.11,-0.35,-0.2,-0.42c-0.09,-0.07,-0.21,-0.11,-0.34,-0.11c-0.15,0,-0.34,0.05,-0.59,0.14l-0.11,-0.3l2.33,-0.97l0.39,0l0,9.05c0,0.93,0.02,1.49,0.06,1.69c0.04,0.2,0.11,0.34,0.2,0.42c0.09,0.08,0.2,0.12,0.33,0.12c0.16,0,0.36,-0.05,0.62,-0.16l0.09,0.31l-2.33,0.95l-0.39,0l0,-1.11m0,-0.61l0,-4.03c-0.03,-0.39,-0.13,-0.74,-0.3,-1.05c-0.17,-0.32,-0.4,-0.56,-0.68,-0.72c-0.28,-0.16,-0.56,-0.24,-0.83,-0.24c-0.5,0,-0.95,0.22,-1.34,0.67c-0.52,0.59,-0.78,1.46,-0.78,2.59c0,1.16,0.25,2.04,0.76,2.65c0.51,0.61,1.07,0.91,1.68,0.91c0.51,0,1.01,-0.26,1.5,-0.78m10.73,-8.92l0,2.58l1.84,0l0,0.59l-1.84,0l0,5.08c0,0.51,0.07,0.85,0.22,1.03c0.15,0.18,0.33,0.27,0.56,0.27c0.19,0,0.37,-0.06,0.55,-0.18c0.18,-0.12,0.31,-0.29,0.41,-0.52l0.34,0c-0.2,0.56,-0.48,0.98,-0.84,1.27c-0.36,0.28,-0.74,0.42,-1.14,0.42c-0.26,0,-0.52,-0.07,-0.77,-0.22c-0.25,-0.15,-0.43,-0.35,-0.55,-0.62c-0.12,-0.27,-0.18,-0.69,-0.18,-1.25l0,-5.27l-1.23,0l0,-0.28c0.31,-0.12,0.63,-0.34,0.96,-0.63c0.33,-0.3,0.62,-0.65,0.88,-1.07c0.12,-0.21,0.31,-0.6,0.55,-1.19l0.25,0m4.72,-1.75c0.24,0,0.45,0.09,0.62,0.26c0.17,0.17,0.26,0.38,0.26,0.62c0,0.24,-0.09,0.44,-0.26,0.61c-0.17,0.17,-0.38,0.25,-0.62,0.25c-0.24,0,-0.44,-0.08,-0.61,-0.25c-0.17,-0.17,-0.25,-0.37,-0.25,-0.61c0,-0.24,0.08,-0.45,0.25,-0.62c0.17,-0.17,0.37,-0.26,0.61,-0.26m0.72,4.09l0,6.3c0,0.49,0.03,0.82,0.1,0.98c0.07,0.16,0.17,0.28,0.31,0.36c0.14,0.08,0.4,0.12,0.77,0.12l0,0.31l-3.81,0l0,-0.31c0.39,0,0.64,-0.04,0.77,-0.11c0.13,-0.07,0.23,-0.2,0.31,-0.37c0.08,-0.17,0.12,-0.5,0.12,-0.98l0,-3.02c0,-0.85,-0.03,-1.41,-0.08,-1.66c-0.04,-0.18,-0.1,-0.3,-0.19,-0.37c-0.08,-0.07,-0.2,-0.11,-0.34,-0.11c-0.17,0,-0.36,0.04,-0.59,0.12l-0.11,-0.3l2.36,-0.97l0.37,0m7.94,5.09c-0.21,1.03,-0.62,1.82,-1.23,2.37c-0.61,0.55,-1.3,0.83,-2.05,0.83c-0.89,0,-1.66,-0.37,-2.32,-1.12c-0.66,-0.74,-0.99,-1.75,-0.99,-3.02c0,-1.23,0.37,-2.23,1.1,-3c0.73,-0.77,1.61,-1.16,2.63,-1.16c0.77,0,1.4,0.2,1.9,0.61c0.49,0.41,0.74,0.83,0.74,1.28c0,0.21,-0.07,0.38,-0.21,0.52c-0.14,0.14,-0.34,0.2,-0.59,0.2c-0.33,0,-0.58,-0.11,-0.75,-0.33c-0.1,-0.11,-0.17,-0.34,-0.2,-0.68c-0.03,-0.34,-0.15,-0.6,-0.34,-0.77c-0.2,-0.17,-0.47,-0.25,-0.83,-0.25c-0.56,0,-1.02,0.21,-1.37,0.62c-0.46,0.56,-0.69,1.3,-0.69,2.22c0,0.94,0.23,1.76,0.69,2.48c0.46,0.71,1.08,1.07,1.86,1.07c0.55,0,1.05,-0.19,1.5,-0.58c0.31,-0.26,0.62,-0.73,0.92,-1.42l0.23,0.12m3.67,-9.19l0,7.8l2,-1.81c0.42,-0.4,0.66,-0.64,0.73,-0.73c0.04,-0.07,0.06,-0.15,0.06,-0.22c0,-0.1,-0.05,-0.2,-0.14,-0.28c-0.09,-0.08,-0.25,-0.13,-0.47,-0.14l0,-0.28l3.41,0l0,0.28c-0.47,0.01,-0.86,0.08,-1.17,0.21c-0.31,0.13,-0.65,0.36,-1.02,0.7l-2.02,1.86l2.02,2.53c0.55,0.7,0.93,1.14,1.12,1.33c0.27,0.27,0.51,0.45,0.72,0.53c0.15,0.05,0.4,0.08,0.75,0.08l0,0.31l-3.81,0l0,-0.31c0.22,0,0.37,-0.03,0.45,-0.09c0.08,-0.06,0.12,-0.15,0.12,-0.25c0,-0.14,-0.11,-0.35,-0.34,-0.64l-2.41,-3.06l0,2.59c0,0.51,0.04,0.85,0.11,1.01c0.07,0.16,0.17,0.28,0.3,0.34c0.13,0.07,0.41,0.1,0.85,0.1l0,0.31l-3.98,0l0,-0.31c0.41,0,0.71,-0.05,0.91,-0.14c0.11,-0.06,0.2,-0.16,0.27,-0.3c0.08,-0.19,0.12,-0.51,0.12,-0.97l0,-7.12c0,-0.91,-0.02,-1.46,-0.05,-1.66c-0.04,-0.2,-0.1,-0.34,-0.2,-0.42c-0.09,-0.08,-0.21,-0.12,-0.36,-0.12c-0.11,0,-0.29,0.05,-0.53,0.16l-0.16,-0.3l2.33,-0.97l0.39,0m11.75,4.09l0,2.67l-0.28,0c-0.22,-0.83,-0.5,-1.4,-0.84,-1.7c-0.34,-0.3,-0.77,-0.45,-1.29,-0.45c-0.41,0,-0.73,0.1,-0.98,0.31c-0.24,0.21,-0.37,0.44,-0.37,0.7c0,0.31,0.09,0.58,0.28,0.81c0.18,0.24,0.54,0.49,1.08,0.75l1.23,0.61c1.16,0.56,1.73,1.3,1.73,2.22c0,0.72,-0.27,1.29,-0.8,1.73c-0.54,0.43,-1.14,0.65,-1.8,0.65c-0.48,0,-1.03,-0.08,-1.64,-0.25c-0.19,-0.06,-0.34,-0.09,-0.45,-0.09c-0.14,0,-0.24,0.08,-0.31,0.23l-0.28,0l0,-2.8l0.28,0c0.16,0.79,0.46,1.39,0.91,1.8c0.45,0.41,0.96,0.61,1.51,0.61c0.4,0,0.72,-0.11,0.97,-0.34c0.25,-0.23,0.37,-0.51,0.37,-0.83c0,-0.4,-0.14,-0.73,-0.41,-1c-0.28,-0.27,-0.83,-0.61,-1.66,-1.02c-0.83,-0.41,-1.37,-0.78,-1.63,-1.11c-0.25,-0.32,-0.37,-0.73,-0.37,-1.23c0,-0.65,0.22,-1.18,0.66,-1.62c0.44,-0.43,1.01,-0.65,1.72,-0.65c0.3,0,0.67,0.07,1.11,0.2c0.29,0.08,0.49,0.12,0.59,0.12c0.08,0,0.15,-0.02,0.2,-0.06c0.05,-0.04,0.11,-0.13,0.19,-0.27l0.28,0m10.77,0c1.19,0,2.14,0.45,2.86,1.36c0.6,0.77,0.91,1.65,0.91,2.64c0,0.7,-0.17,1.41,-0.5,2.12c-0.33,0.72,-0.8,1.26,-1.39,1.62c-0.59,0.36,-1.25,0.55,-1.97,0.55c-1.18,0,-2.11,-0.47,-2.81,-1.41c-0.58,-0.79,-0.87,-1.68,-0.87,-2.67c0,-0.71,0.18,-1.42,0.53,-2.13c0.35,-0.71,0.82,-1.24,1.41,-1.58c0.58,-0.34,1.2,-0.51,1.84,-0.51m-0.27,0.56c-0.3,0,-0.6,0.09,-0.91,0.27c-0.3,0.18,-0.55,0.49,-0.74,0.95c-0.19,0.45,-0.29,1.03,-0.29,1.74c0,1.14,0.23,2.11,0.68,2.94c0.45,0.82,1.05,1.23,1.8,1.23c0.55,0,1.01,-0.23,1.36,-0.68c0.35,-0.45,0.53,-1.24,0.53,-2.35c0,-1.39,-0.3,-2.48,-0.89,-3.28c-0.41,-0.54,-0.92,-0.81,-1.55,-0.81m7.72,1.09c0.92,-1.1,1.79,-1.66,2.62,-1.66c0.43,0,0.79,0.11,1.1,0.32c0.31,0.21,0.55,0.57,0.73,1.05c0.14,0.34,0.2,0.87,0.2,1.58l0,3.34c0,0.49,0.04,0.82,0.11,1c0.06,0.15,0.16,0.26,0.3,0.34c0.14,0.08,0.4,0.12,0.77,0.12l0,0.31l-3.87,0l0,-0.31l0.17,0c0.36,0,0.62,-0.05,0.77,-0.16c0.15,-0.11,0.24,-0.27,0.3,-0.49c0.02,-0.08,0.03,-0.35,0.03,-0.8l0,-3.2c0,-0.72,-0.09,-1.24,-0.27,-1.55c-0.18,-0.32,-0.49,-0.48,-0.93,-0.48c-0.68,0,-1.35,0.37,-2.03,1.11l0,4.12c0,0.53,0.03,0.86,0.09,0.98c0.08,0.17,0.19,0.29,0.33,0.36c0.14,0.07,0.42,0.11,0.86,0.11l0,0.31l-3.87,0l0,-0.31l0.17,0c0.4,0,0.66,-0.1,0.8,-0.3c0.14,-0.2,0.21,-0.59,0.21,-1.15l0,-2.91c0,-0.94,-0.02,-1.51,-0.06,-1.72c-0.04,-0.21,-0.11,-0.35,-0.2,-0.42c-0.09,-0.07,-0.21,-0.11,-0.37,-0.11c-0.16,0,-0.34,0.04,-0.56,0.12l-0.12,-0.3l2.36,-0.97l0.36,0l0,1.66m13.98,-4l0,2.58l1.84,0l0,0.59l-1.84,0l0,5.08c0,0.51,0.07,0.85,0.22,1.03c0.15,0.18,0.33,0.27,0.56,0.27c0.19,0,0.37,-0.06,0.55,-0.18c0.18,-0.12,0.31,-0.29,0.41,-0.52l0.34,0c-0.2,0.56,-0.48,0.98,-0.84,1.27c-0.36,0.28,-0.74,0.42,-1.14,0.42c-0.26,0,-0.52,-0.07,-0.77,-0.22c-0.25,-0.15,-0.43,-0.35,-0.55,-0.62c-0.12,-0.27,-0.18,-0.69,-0.18,-1.25l0,-5.27l-1.23,0l0,-0.28c0.31,-0.12,0.63,-0.34,0.96,-0.63c0.33,-0.3,0.62,-0.65,0.88,-1.07c0.12,-0.21,0.31,-0.6,0.55,-1.19l0.25,0m5.03,-1.75l0,5.73c0.64,-0.7,1.14,-1.15,1.51,-1.34c0.37,-0.2,0.74,-0.3,1.1,-0.3c0.45,0,0.83,0.12,1.15,0.37c0.32,0.24,0.55,0.63,0.71,1.16c0.11,0.36,0.17,1.03,0.17,2l0,2.77c0,0.49,0.04,0.83,0.11,1.02c0.06,0.14,0.16,0.24,0.3,0.32c0.14,0.08,0.39,0.12,0.75,0.12l0,0.31l-3.84,0l0,-0.31l0.17,0c0.36,0,0.62,-0.05,0.77,-0.16c0.15,-0.11,0.24,-0.27,0.3,-0.49c0.02,-0.09,0.03,-0.36,0.03,-0.8l0,-2.77c0,-0.85,-0.04,-1.42,-0.13,-1.69c-0.09,-0.27,-0.23,-0.47,-0.42,-0.61c-0.19,-0.14,-0.43,-0.2,-0.71,-0.2c-0.27,0,-0.56,0.08,-0.86,0.23c-0.3,0.15,-0.67,0.45,-1.09,0.9l0,4.14c0,0.53,0.03,0.86,0.09,0.99c0.06,0.13,0.17,0.24,0.34,0.33c0.16,0.09,0.44,0.13,0.84,0.13l0,0.31l-3.87,0l0,-0.31c0.34,0,0.61,-0.05,0.81,-0.16c0.11,-0.06,0.21,-0.17,0.27,-0.33c0.07,-0.16,0.1,-0.48,0.1,-0.97l0,-7.09c0,-0.89,-0.02,-1.43,-0.06,-1.64c-0.04,-0.21,-0.11,-0.35,-0.2,-0.42c-0.09,-0.07,-0.21,-0.11,-0.35,-0.11c-0.12,0,-0.32,0.05,-0.58,0.14l-0.12,-0.3l2.34,-0.97l0.39,0m8.69,0c0.24,0,0.45,0.09,0.62,0.26c0.17,0.17,0.26,0.38,0.26,0.62c0,0.24,-0.09,0.44,-0.26,0.61c-0.17,0.17,-0.38,0.25,-0.62,0.25c-0.24,0,-0.44,-0.08,-0.61,-0.25c-0.17,-0.17,-0.25,-0.37,-0.25,-0.61c0,-0.24,0.08,-0.45,0.25,-0.62c0.17,-0.17,0.37,-0.26,0.61,-0.26m0.72,4.09l0,6.3c0,0.49,0.03,0.82,0.1,0.98c0.07,0.16,0.17,0.28,0.31,0.36c0.14,0.08,0.4,0.12,0.77,0.12l0,0.31l-3.81,0l0,-0.31c0.39,0,0.64,-0.04,0.77,-0.11c0.13,-0.07,0.23,-0.2,0.31,-0.37c0.08,-0.17,0.12,-0.5,0.12,-0.98l0,-3.02c0,-0.85,-0.03,-1.41,-0.08,-1.66c-0.04,-0.18,-0.1,-0.3,-0.19,-0.37c-0.08,-0.07,-0.2,-0.11,-0.34,-0.11c-0.17,0,-0.36,0.04,-0.59,0.12l-0.11,-0.3l2.36,-0.97l0.37,0m6.36,0l0,2.67l-0.28,0c-0.22,-0.83,-0.5,-1.4,-0.84,-1.7c-0.34,-0.3,-0.77,-0.45,-1.29,-0.45c-0.41,0,-0.73,0.1,-0.98,0.31c-0.24,0.21,-0.37,0.44,-0.37,0.7c0,0.31,0.09,0.58,0.28,0.81c0.18,0.24,0.54,0.49,1.08,0.75l1.23,0.61c1.16,0.56,1.73,1.3,1.73,2.22c0,0.72,-0.27,1.29,-0.8,1.73c-0.54,0.43,-1.14,0.65,-1.8,0.65c-0.48,0,-1.03,-0.08,-1.64,-0.25c-0.19,-0.06,-0.34,-0.09,-0.45,-0.09c-0.14,0,-0.24,0.08,-0.31,0.23l-0.28,0l0,-2.8l0.28,0c0.16,0.79,0.46,1.39,0.91,1.8c0.45,0.41,0.96,0.61,1.51,0.61c0.4,0,0.72,-0.11,0.97,-0.34c0.25,-0.23,0.37,-0.51,0.37,-0.83c0,-0.4,-0.14,-0.73,-0.41,-1c-0.28,-0.27,-0.83,-0.61,-1.66,-1.02c-0.83,-0.41,-1.37,-0.78,-1.63,-1.11c-0.25,-0.32,-0.37,-0.73,-0.37,-1.23c0,-0.65,0.22,-1.18,0.66,-1.62c0.44,-0.43,1.01,-0.65,1.72,-0.65c0.3,0,0.67,0.07,1.11,0.2c0.29,0.08,0.49,0.12,0.59,0.12c0.08,0,0.15,-0.02,0.2,-0.06c0.05,-0.04,0.11,-0.13,0.19,-0.27l0.28,0m6.62,0.23l3.67,0l0,0.31c-0.23,0,-0.39,0.04,-0.48,0.12c-0.09,0.08,-0.14,0.19,-0.14,0.31c0,0.14,0.1,0.35,0.3,0.64c0.06,0.08,0.16,0.22,0.28,0.42l0.56,0.89l0.64,-0.89c0.41,-0.56,0.61,-0.92,0.61,-1.06c0,-0.12,-0.05,-0.23,-0.14,-0.31c-0.09,-0.08,-0.25,-0.12,-0.47,-0.12l0,-0.31l2.64,0l0,0.31c-0.28,0.02,-0.52,0.1,-0.72,0.23c-0.28,0.2,-0.66,0.62,-1.14,1.27l-1.08,1.42l1.95,2.81c0.48,0.69,0.82,1.1,1.02,1.24c0.2,0.14,0.47,0.22,0.79,0.23l0,0.31l-3.69,0l0,-0.31c0.26,0,0.46,-0.06,0.59,-0.17c0.11,-0.07,0.17,-0.18,0.17,-0.31c0,-0.12,-0.18,-0.45,-0.55,-0.98l-1.16,-1.67l-1.25,1.67c-0.39,0.51,-0.58,0.82,-0.58,0.92c0,0.14,0.07,0.26,0.2,0.37c0.13,0.11,0.32,0.17,0.57,0.18l0,0.31l-2.55,0l0,-0.31c0.2,-0.02,0.37,-0.09,0.53,-0.2c0.22,-0.17,0.58,-0.59,1.09,-1.27l1.64,-2.19l-1.48,-2.16c-0.43,-0.61,-0.76,-1,-0.98,-1.16c-0.23,-0.16,-0.52,-0.23,-0.86,-0.23l0,-0.31m17.75,6.7c-0.8,0.61,-1.31,0.97,-1.52,1.08c-0.3,0.14,-0.63,0.2,-0.98,0.2c-0.54,0,-0.99,-0.18,-1.34,-0.55c-0.35,-0.37,-0.52,-0.86,-0.52,-1.46c0,-0.37,0.08,-0.7,0.25,-0.98c0.24,-0.39,0.65,-0.75,1.23,-1.09c0.58,-0.34,1.54,-0.76,2.88,-1.25l0,-0.31c0,-0.78,-0.12,-1.32,-0.37,-1.6c-0.25,-0.29,-0.61,-0.43,-1.08,-0.43c-0.36,0,-0.65,0.09,-0.86,0.28c-0.22,0.2,-0.33,0.42,-0.33,0.67l0.02,0.5c0,0.26,-0.07,0.46,-0.2,0.6c-0.13,0.14,-0.3,0.21,-0.52,0.21c-0.21,0,-0.38,-0.07,-0.52,-0.22c-0.14,-0.15,-0.2,-0.35,-0.2,-0.61c0,-0.49,0.25,-0.94,0.75,-1.35c0.5,-0.41,1.2,-0.62,2.11,-0.62c0.7,0,1.27,0.12,1.72,0.36c0.33,0.18,0.58,0.45,0.73,0.83c0.1,0.24,0.16,0.74,0.16,1.5l0,2.66c0,0.75,0.02,1.21,0.05,1.37c0.03,0.17,0.08,0.28,0.14,0.34c0.06,0.06,0.14,0.09,0.22,0.09c0.09,0,0.18,-0.02,0.25,-0.06c0.11,-0.07,0.34,-0.28,0.69,-0.62l0,0.48c-0.64,0.85,-1.24,1.28,-1.83,1.28c-0.28,0,-0.51,-0.1,-0.67,-0.29c-0.17,-0.19,-0.25,-0.52,-0.25,-0.99m0,-0.56l0,-2.98c-0.86,0.34,-1.42,0.59,-1.67,0.73c-0.45,0.25,-0.77,0.51,-0.96,0.78c-0.19,0.27,-0.29,0.57,-0.29,0.91c0,0.41,0.12,0.74,0.37,1.02c0.24,0.27,0.52,0.41,0.84,0.41c0.44,0,1.01,-0.29,1.72,-0.86m3.25,-6.14l3.67,0l0,0.31c-0.23,0,-0.39,0.04,-0.48,0.12c-0.09,0.08,-0.14,0.19,-0.14,0.31c0,0.14,0.1,0.35,0.3,0.64c0.06,0.08,0.16,0.22,0.28,0.42l0.56,0.89l0.64,-0.89c0.41,-0.56,0.61,-0.92,0.61,-1.06c0,-0.12,-0.05,-0.23,-0.14,-0.31c-0.09,-0.08,-0.25,-0.12,-0.47,-0.12l0,-0.31l2.64,0l0,0.31c-0.28,0.02,-0.52,0.1,-0.72,0.23c-0.28,0.2,-0.66,0.62,-1.14,1.27l-1.08,1.42l1.95,2.81c0.48,0.69,0.82,1.1,1.02,1.24c0.2,0.14,0.47,0.22,0.79,0.23l0,0.31l-3.69,0l0,-0.31c0.26,0,0.46,-0.06,0.59,-0.17c0.11,-0.07,0.17,-0.18,0.17,-0.31c0,-0.12,-0.18,-0.45,-0.55,-0.98l-1.16,-1.67l-1.25,1.67c-0.39,0.51,-0.58,0.82,-0.58,0.92c0,0.14,0.07,0.26,0.2,0.37c0.13,0.11,0.32,0.17,0.57,0.18l0,0.31l-2.55,0l0,-0.31c0.2,-0.02,0.37,-0.09,0.53,-0.2c0.22,-0.17,0.58,-0.59,1.09,-1.27l1.64,-2.19l-1.48,-2.16c-0.43,-0.61,-0.76,-1,-0.98,-1.16c-0.23,-0.16,-0.52,-0.23,-0.86,-0.23l0,-0.31m10.3,-4.33c0.24,0,0.45,0.09,0.62,0.26c0.17,0.17,0.26,0.38,0.26,0.62c0,0.24,-0.09,0.44,-0.26,0.61c-0.17,0.17,-0.38,0.25,-0.62,0.25c-0.24,0,-0.44,-0.08,-0.61,-0.25c-0.17,-0.17,-0.25,-0.37,-0.25,-0.61c0,-0.24,0.08,-0.45,0.25,-0.62c0.17,-0.17,0.37,-0.26,0.61,-0.26m0.72,4.09l0,6.3c0,0.49,0.03,0.82,0.1,0.98c0.07,0.16,0.17,0.28,0.31,0.36c0.14,0.08,0.4,0.12,0.77,0.12l0,0.31l-3.81,0l0,-0.31c0.39,0,0.64,-0.04,0.77,-0.11c0.13,-0.07,0.23,-0.2,0.31,-0.37c0.08,-0.17,0.12,-0.5,0.12,-0.98l0,-3.02c0,-0.85,-0.03,-1.41,-0.08,-1.66c-0.04,-0.18,-0.1,-0.3,-0.19,-0.37c-0.08,-0.07,-0.2,-0.11,-0.34,-0.11c-0.17,0,-0.36,0.04,-0.59,0.12l-0.11,-0.3l2.36,-0.97l0.37,0m6.36,0l0,2.67l-0.28,0c-0.22,-0.83,-0.5,-1.4,-0.84,-1.7c-0.34,-0.3,-0.77,-0.45,-1.29,-0.45c-0.41,0,-0.73,0.1,-0.98,0.31c-0.24,0.21,-0.37,0.44,-0.37,0.7c0,0.31,0.09,0.58,0.28,0.81c0.18,0.24,0.54,0.49,1.08,0.75l1.23,0.61c1.16,0.56,1.73,1.3,1.73,2.22c0,0.72,-0.27,1.29,-0.8,1.73c-0.54,0.43,-1.14,0.65,-1.8,0.65c-0.48,0,-1.03,-0.08,-1.64,-0.25c-0.19,-0.06,-0.34,-0.09,-0.45,-0.09c-0.14,0,-0.24,0.08,-0.31,0.23l-0.28,0l0,-2.8l0.28,0c0.16,0.79,0.46,1.39,0.91,1.8c0.45,0.41,0.96,0.61,1.51,0.61c0.4,0,0.72,-0.11,0.97,-0.34c0.25,-0.23,0.37,-0.51,0.37,-0.83c0,-0.4,-0.14,-0.73,-0.41,-1c-0.28,-0.27,-0.83,-0.61,-1.66,-1.02c-0.83,-0.41,-1.37,-0.78,-1.63,-1.11c-0.25,-0.32,-0.37,-0.73,-0.37,-1.23c0,-0.65,0.22,-1.18,0.66,-1.62c0.44,-0.43,1.01,-0.65,1.72,-0.65c0.3,0,0.67,0.07,1.11,0.2c0.29,0.08,0.49,0.12,0.59,0.12c0.08,0,0.15,-0.02,0.2,-0.06c0.05,-0.04,0.11,-0.13,0.19,-0.27l0.28,0" fill="#000000" stroke="none" fill-opacity="1"/>
<path d="m60.48,494.05l-9.22,0l0,-0.7l9.22,0l0,0.7m8.5,3.23l-0.81,2.23l-6.84,0l0,-0.31c2.01,-1.83,3.43,-3.33,4.25,-4.49c0.82,-1.16,1.23,-2.23,1.23,-3.2c0,-0.73,-0.23,-1.33,-0.68,-1.8c-0.45,-0.47,-0.99,-0.71,-1.62,-0.71c-0.57,0,-1.09,0.17,-1.54,0.5c-0.45,0.33,-0.78,0.82,-0.99,1.47l-0.33,0c0.15,-1.06,0.51,-1.87,1.1,-2.44c0.59,-0.56,1.33,-0.84,2.21,-0.84c0.94,0,1.72,0.3,2.35,0.91c0.63,0.6,0.95,1.32,0.95,2.14c0,0.58,-0.14,1.17,-0.41,1.75c-0.43,0.93,-1.11,1.91,-2.05,2.94c-1.43,1.55,-2.31,2.48,-2.66,2.8l3.02,0c0.61,0,1.05,-0.02,1.3,-0.06c0.25,-0.04,0.47,-0.13,0.67,-0.27c0.2,-0.14,0.37,-0.34,0.52,-0.6l0.33,0" fill="#000000" stroke="none" fill-opacity="1"/>
<path d="m176.97,494.05l-9.22,0l0,-0.7l9.22,0l0,0.7m2.52,-4.98l2.83,-1.37l0.28,0l0,9.78c0,0.66,0.03,1.06,0.08,1.22c0.05,0.16,0.16,0.28,0.34,0.37c0.17,0.09,0.52,0.14,1.04,0.15l0,0.31l-4.36,0l0,-0.31c0.55,-0.01,0.91,-0.06,1.07,-0.14c0.16,-0.08,0.27,-0.2,0.34,-0.34c0.06,-0.14,0.09,-0.56,0.09,-1.26l0,-6.25c0,-0.84,-0.03,-1.39,-0.09,-1.62c-0.04,-0.18,-0.11,-0.31,-0.22,-0.4c-0.1,-0.09,-0.23,-0.13,-0.37,-0.13c-0.21,0,-0.51,0.09,-0.89,0.27l-0.12,-0.27" fill="#000000" stroke="none" fill-opacity="1"/>
<path d="m289.53,493.8c0,-1.32,0.2,-2.46,0.6,-3.41c0.4,-0.95,0.93,-1.66,1.59,-2.13c0.52,-0.37,1.05,-0.56,1.59,-0.56c0.9,0,1.69,0.45,2.39,1.36c0.89,1.12,1.33,2.65,1.33,4.56c0,1.34,-0.19,2.49,-0.58,3.43c-0.39,0.94,-0.88,1.62,-1.48,2.05c-0.6,0.42,-1.18,0.63,-1.73,0.63c-1.1,0,-2.03,-0.65,-2.77,-1.95c-0.62,-1.1,-0.94,-2.43,-0.94,-3.97m1.69,0.2c0,1.59,0.19,2.9,0.58,3.91c0.33,0.85,0.82,1.28,1.45,1.28c0.31,0,0.63,-0.14,0.96,-0.41c0.33,-0.28,0.58,-0.74,0.76,-1.4c0.26,-0.98,0.39,-2.36,0.39,-4.14c0,-1.32,-0.14,-2.43,-0.41,-3.31c-0.21,-0.65,-0.47,-1.11,-0.8,-1.39c-0.24,-0.19,-0.52,-0.28,-0.84,-0.28c-0.4,0,-0.74,0.18,-1.05,0.53c-0.41,0.47,-0.68,1.21,-0.83,2.23c-0.15,1.02,-0.22,2.01,-0.22,2.99" fill="#000000" stroke="none" fill-opacity="1"/>
<path d="m407.44,489.06l2.83,-1.37l0.28,0l0,9.78c0,0.66,0.03,1.06,0.08,1.22c0.05,0.16,0.16,0.28,0.34,0.37c0.17,0.09,0.52,0.14,1.04,0.15l0,0.31l-4.36,0l0,-0.31c0.55,-0.01,0.91,-0.06,1.07,-0.14c0.16,-0.08,0.27,-0.2,0.34,-0.34c0.06,-0.14,0.09,-0.56,0.09,-1.26l0,-6.25c0,-0.84,-0.03,-1.39,-0.09,-1.62c-0.04,-0.18,-0.11,-0.31,-0.22,-0.4c-0.1,-0.09,-0.23,-0.13,-0.37,-0.13c-0.21,0,-0.51,0.09,-0.89,0.27l-0.12,-0.27" fill="#000000" stroke="none" fill-opacity="1"/>
<path d="m529.91,497.28l-0.81,2.23l-6.84,0l0,-0.31c2.01,-1.83,3.43,-3.33,4.25,-4.49c0.82,-1.16,1.23,-2.23,1.23,-3.2c0,-0.73,-0.23,-1.33,-0.68,-1.8c-0.45,-0.47,-0.99,-0.71,-1.62,-0.71c-0.57,0,-1.09,0.17,-1.54,0.5c-0.45,0.33,-0.78,0.82,-0.99,1.47l-0.33,0c0.15,-1.06,0.51,-1.87,1.1,-2.44c0.59,-0.56,1.33,-0.84,2.21,-0.84c0.94,0,1.72,0.3,2.35,0.91c0.63,0.6,0.95,1.32,0.95,2.14c0,0.58,-0.14,1.17,-0.41,1.75c-0.43,0.93,-1.11,1.91,-2.05,2.94c-1.43,1.55,-2.31,2.48,-2.66,2.8l3.02,0c0.61,0,1.05,-0.02,1.3,-0.06c0.25,-0.04,0.47,-0.13,0.67,-0.27c0.2,-0.14,0.37,-0.34,0.52,-0.6l0.33,0" fill="#000000" stroke="none" fill-opacity="1"/>
</g>
</g>
</g>
<defs>
<clipPath id="c0"><path d="m0,0l533.49,0l0,533.49l-533.49,0l0,-533.49"/></clipPath>
<clipPath id="c1"><path d="m60.46,7.11l465.91,0l0,465.91l-465.91,0l0,-465.91"/></clipPath>
</defs>
</svg>
