<?xml version="1.0" standalone="no"?>
<!DOCTYPE svg PUBLIC "-//W3C//DTD SVG 1.1//EN" 
  "http://www.w3.org/Graphics/SVG/1.1/DTD/svg11.dtd">
<svg width="533.49px" height="533.49px" version="1.1"
     xmlns="http://www.w3.org/2000/svg"
     xmlns:xlink="http://www.w3.org/1999/xlink">
<desc>Veusz output document</desc>
<g stroke-linejoin="bevel" stroke-linecap="square" stroke="#000000" fill-rule="evenodd">
<g clip-path="url(#c0)">
<g stroke-width="0.62" fill="#ffffff">
<path d="m60.46,7.11l465.91,0l0,465.91l-465.91,0l0,-465.91"/>
</g>
</g>
<g clip-path="url(#c1)">
<g stroke="#20f020" stroke-width="2.5" fill="none">
<polyline fill="none" points="60.46,193.48 69.97,193.48 79.48,193.48 88.99,193.48 98.5,193.48 108,193.48 117.51,193.48 127.02,193.48 136.53,193.48 146.04,193.48 155.55,193.48 165.06,193.48 174.56,193.48 184.07,193.48 193.58,193.48 203.09,193.48 212.6,193.48 222.11,193.48 231.61,193.48 241.12,193.48 250.63,193.48 260.14,193.48 269.65,193.48 279.16,193.48 288.66,193.48 298.17,193.48 307.68,193.48 317.19,193.48 326.7,193.48 336.21,193.48 345.72,193.48 355.22,193.48 364.73,193.48 374.24,193.48 383.75,193.48 393.26,193.48 402.77,193.48 412.27,193.48 421.78,193.48 431.29,193.48 440.8,193.48 450.31,193.48 459.82,193.48 469.33,193.48 478.83,193.48 488.34,193.48 497.85,193.48 507.36,193.48 516.87,193.48 526.38,193.48"/>
</g>
</g>
<g clip-path="url(#c0)">
<g stroke-width="1" fill="none">
<path d="m228.37,37.16l0.19,3.87l-0.47,0c-0.09,-0.69,-0.22,-1.18,-0.37,-1.47c-0.25,-0.47,-0.58,-0.82,-1,-1.04c-0.42,-0.22,-0.97,-0.34,-1.66,-0.34l-2.33,0l0,12.64c0,1.02,0.11,1.66,0.33,1.91c0.31,0.34,0.79,0.52,1.42,0.52l0.58,0l0,0.45l-7.02,0l0,-0.45l0.58,0c0.71,0,1.21,-0.21,1.5,-0.64c0.18,-0.26,0.27,-0.85,0.27,-1.78l0,-12.64l-1.98,0c-0.78,0,-1.33,0.06,-1.66,0.17c-0.43,0.16,-0.79,0.45,-1.09,0.89c-0.3,0.44,-0.48,1.03,-0.54,1.78l-0.47,0l0.2,-3.87l13.52,0m3.59,-0.81l0,8.17c0.91,-0.99,1.62,-1.62,2.15,-1.91c0.53,-0.28,1.05,-0.42,1.59,-0.42c0.64,0,1.18,0.17,1.64,0.52c0.46,0.35,0.8,0.9,1.02,1.65c0.16,0.52,0.23,1.47,0.23,2.86l0,3.95c0,0.71,0.06,1.19,0.17,1.45c0.07,0.2,0.21,0.35,0.41,0.47c0.2,0.11,0.56,0.17,1.08,0.17l0,0.44l-5.5,0l0,-0.44l0.27,0c0.52,0,0.88,-0.08,1.09,-0.24c0.2,-0.16,0.35,-0.39,0.43,-0.7c0.02,-0.14,0.03,-0.52,0.03,-1.16l0,-3.95c0,-1.22,-0.06,-2.02,-0.19,-2.4c-0.12,-0.38,-0.33,-0.67,-0.6,-0.86c-0.28,-0.19,-0.61,-0.29,-1.01,-0.29c-0.4,0,-0.81,0.1,-1.24,0.31c-0.43,0.21,-0.95,0.64,-1.55,1.28l0,5.91c0,0.77,0.04,1.25,0.13,1.44c0.09,0.19,0.25,0.34,0.48,0.47c0.23,0.12,0.63,0.19,1.2,0.19l0,0.44l-5.55,0l0,-0.44c0.5,0,0.89,-0.08,1.17,-0.23c0.17,-0.08,0.3,-0.24,0.39,-0.47c0.09,-0.23,0.14,-0.69,0.14,-1.39l0,-10.11c0,-1.28,-0.03,-2.07,-0.09,-2.36c-0.06,-0.29,-0.15,-0.49,-0.27,-0.6c-0.12,-0.11,-0.3,-0.16,-0.52,-0.16c-0.17,0,-0.44,0.07,-0.83,0.2l-0.17,-0.42l3.34,-1.37l0.56,0m11.59,10.39c0,1.66,0.41,2.96,1.22,3.91c0.81,0.95,1.77,1.42,2.86,1.42c0.74,0,1.38,-0.2,1.91,-0.61c0.54,-0.41,0.99,-1.1,1.37,-2.08l0.37,0.25c-0.18,1.11,-0.67,2.13,-1.49,3.05c-0.82,0.92,-1.85,1.37,-3.09,1.37c-1.34,0,-2.49,-0.52,-3.45,-1.57c-0.96,-1.05,-1.44,-2.45,-1.44,-4.21c0,-1.92,0.49,-3.41,1.48,-4.48c0.98,-1.07,2.22,-1.61,3.7,-1.61c1.25,0,2.28,0.41,3.09,1.24c0.81,0.83,1.21,1.93,1.21,3.32l-7.73,0m0,-0.7l5.19,0c-0.04,-0.72,-0.13,-1.22,-0.27,-1.52c-0.2,-0.46,-0.5,-0.82,-0.91,-1.08c-0.41,-0.26,-0.83,-0.39,-1.27,-0.39c-0.68,0,-1.28,0.26,-1.81,0.79c-0.53,0.53,-0.84,1.26,-0.94,2.2m17.95,-9.7c0.35,0,0.65,0.12,0.9,0.37c0.24,0.24,0.37,0.54,0.37,0.9c0,0.34,-0.12,0.64,-0.37,0.87c-0.24,0.24,-0.54,0.36,-0.9,0.36c-0.34,0,-0.64,-0.12,-0.87,-0.36c-0.24,-0.24,-0.36,-0.53,-0.36,-0.87c0,-0.35,0.12,-0.65,0.36,-0.9c0.24,-0.24,0.53,-0.37,0.87,-0.37m1.05,5.86l0,11.27c0,1.91,-0.41,3.32,-1.22,4.25c-0.81,0.93,-1.87,1.39,-3.17,1.39c-0.74,0,-1.29,-0.13,-1.65,-0.4c-0.36,-0.27,-0.54,-0.54,-0.54,-0.84c0,-0.28,0.1,-0.52,0.3,-0.73c0.2,-0.2,0.43,-0.3,0.7,-0.3c0.22,0,0.44,0.05,0.66,0.16c0.14,0.06,0.4,0.27,0.8,0.62c0.4,0.35,0.73,0.53,1,0.53c0.19,0,0.37,-0.08,0.56,-0.23c0.19,-0.15,0.33,-0.4,0.42,-0.76c0.09,-0.35,0.14,-1.12,0.14,-2.31l0,-7.95c0,-1.23,-0.04,-2.02,-0.11,-2.37c-0.06,-0.26,-0.15,-0.44,-0.27,-0.55c-0.12,-0.1,-0.29,-0.16,-0.51,-0.16c-0.23,0,-0.51,0.06,-0.83,0.19l-0.17,-0.44l3.37,-1.37l0.52,0m8.59,0c1.7,0,3.06,0.65,4.08,1.94c0.87,1.09,1.31,2.35,1.31,3.78c0,1,-0.24,2.01,-0.73,3.04c-0.48,1.03,-1.15,1.8,-1.98,2.32c-0.84,0.52,-1.78,0.78,-2.82,0.78c-1.68,0,-3.02,-0.67,-4.02,-2.02c-0.83,-1.14,-1.25,-2.41,-1.25,-3.81c0,-1.02,0.26,-2.04,0.77,-3.05c0.51,-1.02,1.18,-1.77,2.01,-2.25c0.83,-0.48,1.71,-0.73,2.63,-0.73m-0.37,0.8c-0.44,0,-0.87,0.13,-1.3,0.38c-0.43,0.26,-0.78,0.71,-1.05,1.35c-0.27,0.65,-0.41,1.47,-0.41,2.48c0,1.62,0.32,3.03,0.97,4.2c0.65,1.18,1.5,1.77,2.56,1.77c0.79,0,1.44,-0.33,1.95,-0.98c0.51,-0.65,0.77,-1.77,0.77,-3.35c0,-1.99,-0.43,-3.55,-1.28,-4.69c-0.57,-0.78,-1.31,-1.17,-2.2,-1.17m7.27,-0.47l5.22,0l0,0.45l-0.25,0c-0.37,0,-0.65,0.08,-0.84,0.24c-0.18,0.16,-0.27,0.36,-0.27,0.59c0,0.32,0.14,0.77,0.41,1.33l2.72,5.64l2.5,-6.19c0.15,-0.33,0.22,-0.66,0.22,-0.98c0,-0.15,-0.03,-0.26,-0.09,-0.33c-0.06,-0.09,-0.16,-0.17,-0.3,-0.22c-0.14,-0.05,-0.38,-0.08,-0.73,-0.08l0,-0.45l3.64,0l0,0.45c-0.3,0.03,-0.54,0.1,-0.7,0.2c-0.17,0.1,-0.34,0.28,-0.53,0.55c-0.07,0.11,-0.21,0.43,-0.42,0.94l-4.55,11.16c-0.44,1.08,-1.01,1.9,-1.73,2.45c-0.71,0.55,-1.4,0.83,-2.05,0.83c-0.49,0,-0.89,-0.14,-1.2,-0.41c-0.31,-0.28,-0.46,-0.59,-0.46,-0.95c0,-0.34,0.11,-0.62,0.34,-0.83c0.22,-0.21,0.53,-0.31,0.93,-0.31c0.26,0,0.62,0.09,1.09,0.27c0.32,0.12,0.53,0.19,0.61,0.19c0.24,0,0.51,-0.12,0.8,-0.37c0.29,-0.25,0.58,-0.74,0.87,-1.47l0.8,-1.94l-4.02,-8.44c-0.12,-0.25,-0.32,-0.56,-0.59,-0.94c-0.2,-0.28,-0.36,-0.47,-0.5,-0.58c-0.19,-0.12,-0.49,-0.24,-0.91,-0.34l0,-0.45m25.11,-0.33c1.7,0,3.06,0.65,4.08,1.94c0.87,1.09,1.31,2.35,1.31,3.78c0,1,-0.24,2.01,-0.73,3.04c-0.48,1.03,-1.15,1.8,-1.98,2.32c-0.84,0.52,-1.78,0.78,-2.82,0.78c-1.68,0,-3.02,-0.67,-4.02,-2.02c-0.83,-1.14,-1.25,-2.41,-1.25,-3.81c0,-1.02,0.26,-2.04,0.77,-3.05c0.51,-1.02,1.18,-1.77,2.01,-2.25c0.83,-0.48,1.71,-0.73,2.63,-0.73m-0.37,0.8c-0.44,0,-0.87,0.13,-1.3,0.38c-0.43,0.26,-0.78,0.71,-1.05,1.35c-0.27,0.65,-0.41,1.47,-0.41,2.48c0,1.62,0.32,3.03,0.97,4.2c0.65,1.18,1.5,1.77,2.56,1.77c0.79,0,1.44,-0.33,1.95,-0.98c0.51,-0.65,0.77,-1.77,0.77,-3.35c0,-1.99,-0.43,-3.55,-1.28,-4.69c-0.57,-0.78,-1.31,-1.17,-2.2,-1.17m12.28,0.42l0,7.34c0,1.04,0.11,1.7,0.34,1.97c0.29,0.36,0.69,0.55,1.2,0.55l1.02,0l0,0.44l-6.69,0l0,-0.44l0.5,0c0.33,0,0.63,-0.08,0.9,-0.24c0.27,-0.16,0.45,-0.38,0.55,-0.66c0.1,-0.28,0.16,-0.82,0.16,-1.61l0,-7.34l-2.17,0l0,-0.89l2.17,0l0,-0.73c0,-1.11,0.18,-2.06,0.54,-2.83c0.36,-0.77,0.91,-1.39,1.64,-1.87c0.73,-0.47,1.56,-0.71,2.48,-0.71c0.85,0,1.64,0.28,2.36,0.83c0.47,0.36,0.7,0.78,0.7,1.23c0,0.24,-0.1,0.47,-0.31,0.68c-0.21,0.21,-0.44,0.32,-0.69,0.32c-0.19,0,-0.39,-0.07,-0.59,-0.2c-0.21,-0.13,-0.46,-0.42,-0.76,-0.86c-0.3,-0.44,-0.58,-0.74,-0.84,-0.9c-0.25,-0.16,-0.53,-0.23,-0.83,-0.23c-0.37,0,-0.69,0.1,-0.95,0.3c-0.26,0.2,-0.45,0.51,-0.56,0.93c-0.11,0.42,-0.17,1.5,-0.17,3.24l0,0.8l2.87,0l0,0.89l-2.87,0m8.81,0.22l3.45,-1.39l0.45,0l0,2.62c0.58,-0.99,1.17,-1.68,1.75,-2.08c0.58,-0.4,1.19,-0.59,1.83,-0.59c1.12,0,2.06,0.44,2.81,1.33c0.92,1.07,1.37,2.47,1.37,4.19c0,1.94,-0.55,3.54,-1.66,4.8c-0.91,1.03,-2.05,1.55,-3.44,1.55c-0.6,0,-1.12,-0.09,-1.56,-0.27c-0.32,-0.11,-0.69,-0.35,-1.11,-0.72l0,3.41c0,0.76,0.05,1.24,0.14,1.45c0.09,0.21,0.26,0.37,0.49,0.49c0.23,0.12,0.66,0.18,1.27,0.18l0,0.45l-5.86,0l0,-0.45l0.3,0c0.45,0.01,0.83,-0.07,1.16,-0.25c0.15,-0.09,0.26,-0.24,0.35,-0.44c0.09,-0.2,0.13,-0.7,0.13,-1.52l0,-10.58c0,-0.72,-0.03,-1.18,-0.1,-1.37c-0.07,-0.2,-0.17,-0.34,-0.31,-0.44c-0.14,-0.09,-0.34,-0.14,-0.59,-0.14c-0.19,0,-0.43,0.05,-0.73,0.16l-0.16,-0.39m3.91,1.95l0,4.17c0,0.91,0.04,1.5,0.11,1.78c0.11,0.47,0.4,0.88,0.84,1.24c0.45,0.36,1.01,0.54,1.67,0.54c0.82,0,1.48,-0.32,1.98,-0.95c0.66,-0.83,0.98,-2,0.98,-3.5c0,-1.71,-0.37,-3.03,-1.12,-3.95c-0.52,-0.62,-1.14,-0.94,-1.84,-0.94c-0.4,0,-0.79,0.09,-1.17,0.28c-0.29,0.15,-0.78,0.59,-1.45,1.33m13.75,-9.23l0,14.83c0,0.7,0.05,1.16,0.16,1.39c0.1,0.23,0.26,0.4,0.47,0.52c0.21,0.12,0.6,0.18,1.19,0.18l0,0.44l-5.48,0l0,-0.44c0.51,0,0.86,-0.05,1.05,-0.16c0.19,-0.1,0.33,-0.28,0.44,-0.52c0.1,-0.24,0.16,-0.72,0.16,-1.41l0,-10.16c0,-1.26,-0.03,-2.03,-0.09,-2.32c-0.06,-0.29,-0.15,-0.48,-0.27,-0.59c-0.12,-0.11,-0.28,-0.16,-0.47,-0.16c-0.22,0,-0.49,0.07,-0.81,0.2l-0.2,-0.42l3.33,-1.37l0.55,0m7.62,5.84c1.7,0,3.06,0.65,4.08,1.94c0.87,1.09,1.31,2.35,1.31,3.78c0,1,-0.24,2.01,-0.73,3.04c-0.48,1.03,-1.15,1.8,-1.98,2.32c-0.84,0.52,-1.78,0.78,-2.82,0.78c-1.68,0,-3.02,-0.67,-4.02,-2.02c-0.83,-1.14,-1.25,-2.41,-1.25,-3.81c0,-1.02,0.26,-2.04,0.77,-3.05c0.51,-1.02,1.18,-1.77,2.01,-2.25c0.83,-0.48,1.71,-0.73,2.63,-0.73m-0.37,0.8c-0.44,0,-0.87,0.13,-1.3,0.38c-0.43,0.26,-0.78,0.71,-1.05,1.35c-0.27,0.65,-0.41,1.47,-0.41,2.48c0,1.62,0.32,3.03,0.97,4.2c0.65,1.18,1.5,1.77,2.56,1.77c0.79,0,1.44,-0.33,1.95,-0.98c0.51,-0.65,0.77,-1.77,0.77,-3.35c0,-1.99,-0.43,-3.55,-1.28,-4.69c-0.57,-0.78,-1.31,-1.17,-2.2,-1.17m11.16,-4.14l0,3.67l2.61,0l0,0.86l-2.61,0l0,7.25c0,0.73,0.1,1.22,0.31,1.47c0.21,0.25,0.47,0.37,0.8,0.37c0.27,0,0.53,-0.08,0.78,-0.25c0.25,-0.17,0.44,-0.41,0.58,-0.73l0.48,0c-0.28,0.79,-0.68,1.39,-1.2,1.8c-0.52,0.41,-1.06,0.61,-1.62,0.61c-0.37,0,-0.74,-0.1,-1.09,-0.31c-0.35,-0.21,-0.62,-0.51,-0.79,-0.89c-0.17,-0.39,-0.26,-0.98,-0.26,-1.8l0,-7.52l-1.77,0l0,-0.41c0.45,-0.18,0.9,-0.48,1.37,-0.91c0.46,-0.43,0.88,-0.93,1.26,-1.52c0.19,-0.31,0.45,-0.88,0.78,-1.7l0.37,0m10.98,3.34l0,3.81l-0.41,0c-0.31,-1.2,-0.71,-2.01,-1.2,-2.45c-0.48,-0.43,-1.1,-0.65,-1.85,-0.65c-0.56,0,-1.02,0.15,-1.37,0.45c-0.35,0.3,-0.53,0.64,-0.53,1c0,0.46,0.13,0.85,0.39,1.17c0.26,0.33,0.78,0.69,1.55,1.06l1.78,0.87c1.65,0.8,2.47,1.86,2.47,3.19c0,1.01,-0.38,1.83,-1.15,2.45c-0.77,0.62,-1.63,0.94,-2.59,0.94c-0.68,0,-1.46,-0.12,-2.34,-0.37c-0.26,-0.07,-0.48,-0.11,-0.66,-0.11c-0.19,0,-0.33,0.1,-0.44,0.31l-0.41,0l0,-4l0.41,0c0.23,1.15,0.66,2.01,1.3,2.59c0.64,0.58,1.36,0.87,2.16,0.87c0.56,0,1.02,-0.17,1.37,-0.5c0.35,-0.33,0.53,-0.73,0.53,-1.19c0,-0.56,-0.2,-1.03,-0.59,-1.41c-0.4,-0.38,-1.18,-0.86,-2.37,-1.45c-1.18,-0.59,-1.96,-1.12,-2.32,-1.59c-0.36,-0.47,-0.55,-1.06,-0.55,-1.77c0,-0.92,0.32,-1.68,0.95,-2.3c0.63,-0.62,1.45,-0.93,2.45,-0.93c0.45,0,0.98,0.09,1.61,0.28c0.42,0.12,0.69,0.19,0.83,0.19c0.12,0,0.22,-0.03,0.3,-0.09c0.07,-0.06,0.16,-0.18,0.27,-0.38l0.41,0" fill="#000000" stroke="none" fill-opacity="1"/>
</g>
</g>
<g clip-path="url(#c1)">
<g stroke-width="0.62" stroke-linecap="butt" fill="none">
<path d="M60.46,240.52l0,-22.36M83.76,287.11l0,-22.36M107.05,32.19l0,-22.36M130.35,82.57l0,-22.36M153.64,171.48l0,-22.36M176.94,205.77l0,-22.36M200.24,259.83l0,-22.36M223.53,319.05l0,-22.36M246.83,138.45l0,-22.36M270.12,463.69l0,-22.36M293.42,300.5l0,-22.36M316.71,333.37l0,-22.36M340.01,339.93l0,-22.36M363.31,202.36l0,-22.36M386.6,363.59l0,-22.36M409.9,311.97l0,-22.36M433.19,296.82l0,-22.36M456.49,336.78l0,-22.36M479.78,220.48l0,-22.36M503.08,327.14l0,-22.36"/>
</g>
<g stroke-width="0.62" stroke-dasharray="2.5,1.25" fill="none">
<polyline fill="none" points="60.46,229.34 83.76,275.93 107.05,21.01 130.35,71.38 153.64,160.3 176.94,194.59 200.24,248.64 223.53,307.87 246.83,127.27 270.12,452.51 293.42,289.32 316.71,322.19 340.01,328.74 363.31,191.18 386.6,352.41 409.9,300.79 433.19,285.64 456.49,325.6 479.78,209.3 503.08,315.96"/>
</g>
<g stroke-linejoin="miter" stroke-width="0.62" transform="translate(60.46, 229.34)" fill="#0000ff">
<path d="m-3.75,-3.75l7.5,0l0,7.5l-7.5,0l0,-7.5"/>
</g>
<g stroke-linejoin="miter" stroke-width="0.62" transform="translate(83.76, 275.93)" fill="#0000ff">
<path d="m-3.75,-3.75l7.5,0l0,7.5l-7.5,0l0,-7.5"/>
</g>
<g stroke-linejoin="miter" stroke-width="0.62" transform="translate(107.05, 21.01)" fill="#0000ff">
<path d="m-3.75,-3.75l7.5,0l0,7.5l-7.5,0l0,-7.5"/>
</g>
<g stroke-linejoin="miter" stroke-width="0.62" transform="translate(130.35, 71.38)" fill="#0000ff">
<path d="m-3.75,-3.75l7.5,0l0,7.5l-7.5,0l0,-7.5"/>
</g>
<g stroke-linejoin="miter" stroke-width="0.62" transform="translate(153.64, 160.3)" fill="#0000ff">
<path d="m-3.75,-3.75l7.5,0l0,7.5l-7.5,0l0,-7.5"/>
</g>
<g stroke-linejoin="miter" stroke-width="0.62" transform="translate(176.94, 194.59)" fill="#0000ff">
<path d="m-3.75,-3.75l7.5,0l0,7.5l-7.5,0l0,-7.5"/>
</g>
<g stroke-linejoin="miter" stroke-width="0.62" transform="translate(200.24, 248.64)" fill="#0000ff">
<path d="m-3.75,-3.75l7.5,0l0,7.5l-7.5,0l0,-7.5"/>
</g>
<g stroke-linejoin="miter" stroke-width="0.62" transform="translate(223.53, 307.87)" fill="#0000ff">
<path d="m-3.75,-3.75l7.5,0l0,7.5l-7.5,0l0,-7.5"/>
</g>
<g stroke-linejoin="miter" stroke-width="0.62" transform="translate(246.83, 127.27)" fill="#0000ff">
<path d="m-3.75,-3.75l7.5,0l0,7.5l-7.5,0l0,-7.5"/>
</g>
<g stroke-linejoin="miter" stroke-width="0.62" transform="translate(270.12, 452.51)" fill="#0000ff">
<path d="m-3.75,-3.75l7.5,0l0,7.5l-7.5,0l0,-7.5"/>
</g>
<g stroke-linejoin="miter" stroke-width="0.62" transform="translate(293.42, 289.32)" fill="#0000ff">
<path d="m-3.75,-3.75l7.5,0l0,7.5l-7.5,0l0,-7.5"/>
</g>
<g stroke-linejoin="miter" stroke-width="0.62" transform="translate(316.71, 322.19)" fill="#0000ff">
<path d="m-3.75,-3.75l7.5,0l0,7.5l-7.5,0l0,-7.5"/>
</g>
<g stroke-linejoin="miter" stroke-width="0.62" transform="translate(340.01, 328.74)" fill="#0000ff">
<path d="m-3.75,-3.75l7.5,0l0,7.5l-7.5,0l0,-7.5"/>
</g>
<g stroke-linejoin="miter" stroke-width="0.62" transform="translate(363.31, 191.18)" fill="#0000ff">
<path d="m-3.75,-3.75l7.5,0l0,7.5l-7.5,0l0,-7.5"/>
</g>
<g stroke-linejoin="miter" stroke-width="0.62" transform="translate(386.6, 352.41)" fill="#0000ff">
<path d="m-3.75,-3.75l7.5,0l0,7.5l-7.5,0l0,-7.5"/>
</g>
<g stroke-linejoin="miter" stroke-width="0.62" transform="translate(409.9, 300.79)" fill="#0000ff">
<path d="m-3.75,-3.75l7.5,0l0,7.5l-7.5,0l0,-7.5"/>
</g>
<g stroke-linejoin="miter" stroke-width="0.62" transform="translate(433.19, 285.64)" fill="#0000ff">
<path d="m-3.75,-3.75l7.5,0l0,7.5l-7.5,0l0,-7.5"/>
</g>
<g stroke-linejoin="miter" stroke-width="0.62" transform="translate(456.49, 325.6)" fill="#0000ff">
<path d="m-3.75,-3.75l7.5,0l0,7.5l-7.5,0l0,-7.5"/>
</g>
<g stroke-linejoin="miter" stroke-width="0.62" transform="translate(479.78, 209.3)" fill="#0000ff">
<path d="m-3.75,-3.75l7.5,0l0,7.5l-7.5,0l0,-7.5"/>
</g>
<g stroke-linejoin="miter" stroke-width="0.62" transform="translate(503.08, 315.96)" fill="#0000ff">
<path d="m-3.75,-3.75l7.5,0l0,7.5l-7.5,0l0,-7.5"/>
</g>
<g stroke-width="0.62" stroke-dasharray="0.625,1.25" fill="none">
<polyline fill="none" points="60.46,259.24 83.76,205.13 107.05,250.58 130.35,314.22 153.64,246.73 176.94,220.94 200.24,227.4 223.53,211.55 246.83,260.19 270.12,219.24 293.42,254.05 316.71,231.57 340.01,285.32 363.31,173.11 386.6,155.63 409.9,259.85 433.19,156.26 456.49,120.23 479.78,225.6 503.08,153.32"/>
</g>
<g stroke-linejoin="miter" stroke-width="0.62" transform="translate(60.46, 259.24)" fill="#ff0000">
<path d="m0,5.3l5.3,-5.3l-5.3,-5.3l-5.3,5.3l5.3,5.3"/>
</g>
<g stroke-linejoin="miter" stroke-width="0.62" transform="translate(83.76, 205.13)" fill="#ff0000">
<path d="m0,5.3l5.3,-5.3l-5.3,-5.3l-5.3,5.3l5.3,5.3"/>
</g>
<g stroke-linejoin="miter" stroke-width="0.62" transform="translate(107.05, 250.58)" fill="#ff0000">
<path d="m0,5.3l5.3,-5.3l-5.3,-5.3l-5.3,5.3l5.3,5.3"/>
</g>
<g stroke-linejoin="miter" stroke-width="0.62" transform="translate(130.35, 314.22)" fill="#ff0000">
<path d="m0,5.3l5.3,-5.3l-5.3,-5.3l-5.3,5.3l5.3,5.3"/>
</g>
<g stroke-linejoin="miter" stroke-width="0.62" transform="translate(153.64, 246.73)" fill="#ff0000">
<path d="m0,5.3l5.3,-5.3l-5.3,-5.3l-5.3,5.3l5.3,5.3"/>
</g>
<g stroke-linejoin="miter" stroke-width="0.62" transform="translate(176.94, 220.94)" fill="#ff0000">
<path d="m0,5.3l5.3,-5.3l-5.3,-5.3l-5.3,5.3l5.3,5.3"/>
</g>
<g stroke-linejoin="miter" stroke-width="0.62" transform="translate(200.24, 227.4)" fill="#ff0000">
<path d="m0,5.3l5.3,-5.3l-5.3,-5.3l-5.3,5.3l5.3,5.3"/>
</g>
<g stroke-linejoin="miter" stroke-width="0.62" transform="translate(223.53, 211.55)" fill="#ff0000">
<path d="m0,5.3l5.3,-5.3l-5.3,-5.3l-5.3,5.3l5.3,5.3"/>
</g>
<g stroke-linejoin="miter" stroke-width="0.62" transform="translate(246.83, 260.19)" fill="#ff0000">
<path d="m0,5.3l5.3,-5.3l-5.3,-5.3l-5.3,5.3l5.3,5.3"/>
</g>
<g stroke-linejoin="miter" stroke-width="0.62" transform="translate(270.12, 219.24)" fill="#ff0000">
<path d="m0,5.3l5.3,-5.3l-5.3,-5.3l-5.3,5.3l5.3,5.3"/>
</g>
<g stroke-linejoin="miter" stroke-width="0.62" transform="translate(293.42, 254.05)" fill="#ff0000">
<path d="m0,5.3l5.3,-5.3l-5.3,-5.3l-5.3,5.3l5.3,5.3"/>
</g>
<g stroke-linejoin="miter" stroke-width="0.62" transform="translate(316.71, 231.57)" fill="#ff0000">
<path d="m0,5.3l5.3,-5.3l-5.3,-5.3l-5.3,5.3l5.3,5.3"/>
</g>
<g stroke-linejoin="miter" stroke-width="0.62" transform="translate(340.01, 285.32)" fill="#ff0000">
<path d="m0,5.3l5.3,-5.3l-5.3,-5.3l-5.3,5.3l5.3,5.3"/>
</g>
<g stroke-linejoin="miter" stroke-width="0.62" transform="translate(363.31, 173.11)" fill="#ff0000">
<path d="m0,5.3l5.3,-5.3l-5.3,-5.3l-5.3,5.3l5.3,5.3"/>
</g>
<g stroke-linejoin="miter" stroke-width="0.62" transform="translate(386.6, 155.63)" fill="#ff0000">
<path d="m0,5.3l5.3,-5.3l-5.3,-5.3l-5.3,5.3l5.3,5.3"/>
</g>
<g stroke-linejoin="miter" stroke-width="0.62" transform="translate(409.9, 259.85)" fill="#ff0000">
<path d="m0,5.3l5.3,-5.3l-5.3,-5.3l-5.3,5.3l5.3,5.3"/>
</g>
<g stroke-linejoin="miter" stroke-width="0.62" transform="translate(433.19, 156.26)" fill="#ff0000">
<path d="m0,5.3l5.3,-5.3l-5.3,-5.3l-5.3,5.3l5.3,5.3"/>
</g>
<g stroke-linejoin="miter" stroke-width="0.62" transform="translate(456.49, 120.23)" fill="#ff0000">
<path d="m0,5.3l5.3,-5.3l-5.3,-5.3l-5.3,5.3l5.3,5.3"/>
</g>
<g stroke-linejoin="miter" stroke-width="0.62" transform="translate(479.78, 225.6)" fill="#ff0000">
<path d="m0,5.3l5.3,-5.3l-5.3,-5.3l-5.3,5.3l5.3,5.3"/>
</g>
<g stroke-linejoin="miter" stroke-width="0.62" transform="translate(503.08, 153.32)" fill="#ff0000">
<path d="m0,5.3l5.3,-5.3l-5.3,-5.3l-5.3,5.3l5.3,5.3"/>
</g>
<g stroke-width="0.62" fill="none">
<polyline fill="none" points="60.46,318.82 83.76,241.45 107.05,349.39 130.35,191.96 153.64,286.63 176.94,312.63 200.24,319.35 223.53,312.49 246.83,295.82 270.12,310.59 293.42,342.04 316.71,313.28 340.01,283.44 363.31,329.74 386.6,322.35 409.9,284.42 433.19,324.97 456.49,275.65 479.78,300.14 503.08,277.44"/>
</g>
<g stroke-linejoin="miter" stroke-width="0.62" transform="translate(60.46, 318.82)" fill="#000000">
<path d="m3.75,0c0,2.07,-1.68,3.75,-3.75,3.75c-2.07,0,-3.75,-1.68,-3.75,-3.75c0,-2.07,1.68,-3.75,3.75,-3.75c2.07,0,3.75,1.68,3.75,3.75"/>
</g>
<g stroke-linejoin="miter" stroke-width="0.62" transform="translate(83.76, 241.45)" fill="#000000">
<path d="m3.75,0c0,2.07,-1.68,3.75,-3.75,3.75c-2.07,0,-3.75,-1.68,-3.75,-3.75c0,-2.07,1.68,-3.75,3.75,-3.75c2.07,0,3.75,1.68,3.75,3.75"/>
</g>
<g stroke-linejoin="miter" stroke-width="0.62" transform="translate(107.05, 349.39)" fill="#000000">
<path d="m3.75,0c0,2.07,-1.68,3.75,-3.75,3.75c-2.07,0,-3.75,-1.68,-3.75,-3.75c0,-2.07,1.68,-3.75,3.75,-3.75c2.07,0,3.75,1.68,3.75,3.75"/>
</g>
<g stroke-linejoin="miter" stroke-width="0.62" transform="translate(130.35, 191.96)" fill="#000000">
<path d="m3.75,0c0,2.07,-1.68,3.75,-3.75,3.75c-2.07,0,-3.75,-1.68,-3.75,-3.75c0,-2.07,1.68,-3.75,3.75,-3.75c2.07,0,3.75,1.68,3.75,3.75"/>
</g>
<g stroke-linejoin="miter" stroke-width="0.62" transform="translate(153.64, 286.63)" fill="#000000">
<path d="m3.75,0c0,2.07,-1.68,3.75,-3.75,3.75c-2.07,0,-3.75,-1.68,-3.75,-3.75c0,-2.07,1.68,-3.75,3.75,-3.75c2.07,0,3.75,1.68,3.75,3.75"/>
</g>
<g stroke-linejoin="miter" stroke-width="0.62" transform="translate(176.94, 312.63)" fill="#000000">
<path d="m3.75,0c0,2.07,-1.68,3.75,-3.75,3.75c-2.07,0,-3.75,-1.68,-3.75,-3.75c0,-2.07,1.68,-3.75,3.75,-3.75c2.07,0,3.75,1.68,3.75,3.75"/>
</g>
<g stroke-linejoin="miter" stroke-width="0.62" transform="translate(200.24, 319.35)" fill="#000000">
<path d="m3.75,0c0,2.07,-1.68,3.75,-3.75,3.75c-2.07,0,-3.75,-1.68,-3.75,-3.75c0,-2.07,1.68,-3.75,3.75,-3.75c2.07,0,3.75,1.68,3.75,3.75"/>
</g>
<g stroke-linejoin="miter" stroke-width="0.62" transform="translate(223.53, 312.49)" fill="#000000">
<path d="m3.75,0c0,2.07,-1.68,3.75,-3.75,3.75c-2.07,0,-3.75,-1.68,-3.75,-3.75c0,-2.07,1.68,-3.75,3.75,-3.75c2.07,0,3.75,1.68,3.75,3.75"/>
</g>
<g stroke-linejoin="miter" stroke-width="0.62" transform="translate(246.83, 295.82)" fill="#000000">
<path d="m3.75,0c0,2.07,-1.68,3.75,-3.75,3.75c-2.07,0,-3.75,-1.68,-3.75,-3.75c0,-2.07,1.68,-3.75,3.75,-3.75c2.07,0,3.75,1.68,3.75,3.75"/>
</g>
<g stroke-linejoin="miter" stroke-width="0.62" transform="translate(270.12, 310.59)" fill="#000000">
<path d="m3.75,0c0,2.07,-1.68,3.75,-3.75,3.75c-2.07,0,-3.75,-1.68,-3.75,-3.75c0,-2.07,1.68,-3.75,3.75,-3.75c2.07,0,3.75,1.68,3.75,3.75"/>
</g>
<g stroke-linejoin="miter" stroke-width="0.62" transform="translate(293.42, 342.04)" fill="#000000">
<path d="m3.75,0c0,2.07,-1.68,3.75,-3.75,3.75c-2.07,0,-3.75,-1.68,-3.75,-3.75c0,-2.07,1.68,-3.75,3.75,-3.75c2.07,0,3.75,1.68,3.75,3.75"/>
</g>
<g stroke-linejoin="miter" stroke-width="0.62" transform="translate(316.71, 313.28)" fill="#000000">
<path d="m3.75,0c0,2.07,-1.68,3.75,-3.75,3.75c-2.07,0,-3.75,-1.68,-3.75,-3.75c0,-2.07,1.68,-3.75,3.75,-3.75c2.07,0,3.75,1.68,3.75,3.75"/>
</g>
<g stroke-linejoin="miter" stroke-width="0.62" transform="translate(340.01, 283.44)" fill="#000000">
<path d="m3.75,0c0,2.07,-1.68,3.75,-3.75,3.75c-2.07,0,-3.75,-1.68,-3.75,-3.75c0,-2.07,1.68,-3.75,3.75,-3.75c2.07,0,3.75,1.68,3.75,3.75"/>
</g>
<g stroke-linejoin="miter" stroke-width="0.62" transform="translate(363.31, 329.74)" fill="#000000">
<path d="m3.75,0c0,2.07,-1.68,3.75,-3.75,3.75c-2.07,0,-3.75,-1.68,-3.75,-3.75c0,-2.07,1.68,-3.75,3.75,-3.75c2.07,0,3.75,1.68,3.75,3.75"/>
</g>
<g stroke-linejoin="miter" stroke-width="0.62" transform="translate(386.6, 322.35)" fill="#000000">
<path d="m3.75,0c0,2.07,-1.68,3.75,-3.75,3.75c-2.07,0,-3.75,-1.68,-3.75,-3.75c0,-2.07,1.68,-3.75,3.75,-3.75c2.07,0,3.75,1.68,3.75,3.75"/>
</g>
<g stroke-linejoin="miter" stroke-width="0.62" transform="translate(409.9, 284.42)" fill="#000000">
<path d="m3.75,0c0,2.07,-1.68,3.75,-3.75,3.75c-2.07,0,-3.75,-1.68,-3.75,-3.75c0,-2.07,1.68,-3.75,3.75,-3.75c2.07,0,3.75,1.68,3.75,3.75"/>
</g>
<g stroke-linejoin="miter" stroke-width="0.62" transform="translate(433.19, 324.97)" fill="#000000">
<path d="m3.75,0c0,2.07,-1.68,3.75,-3.75,3.75c-2.07,0,-3.75,-1.68,-3.75,-3.75c0,-2.07,1.68,-3.75,3.75,-3.75c2.07,0,3.75,1.68,3.75,3.75"/>
</g>
<g stroke-linejoin="miter" stroke-width="0.62" transform="translate(456.49, 275.65)" fill="#000000">
<path d="m3.75,0c0,2.07,-1.68,3.75,-3.75,3.75c-2.07,0,-3.75,-1.68,-3.75,-3.75c0,-2.07,1.68,-3.75,3.75,-3.75c2.07,0,3.75,1.68,3.75,3.75"/>
</g>
<g stroke-linejoin="miter" stroke-width="0.62" transform="translate(479.78, 300.14)" fill="#000000">
<path d="m3.75,0c0,2.07,-1.68,3.75,-3.75,3.75c-2.07,0,-3.75,-1.68,-3.75,-3.75c0,-2.07,1.68,-3.75,3.75,-3.75c2.07,0,3.75,1.68,3.75,3.75"/>
</g>
<g stroke-linejoin="miter" stroke-width="0.62" transform="translate(503.08, 277.44)" fill="#000000">
<path d="m3.75,0c0,2.07,-1.68,3.75,-3.75,3.75c-2.07,0,-3.75,-1.68,-3.75,-3.75c0,-2.07,1.68,-3.75,3.75,-3.75c2.07,0,3.75,1.68,3.75,3.75"/>
</g>
</g>
<g clip-path="url(#c0)">
<g stroke="none" stroke-width="1" fill="#f0f0f0">
<path d="m336.81,353.03l169.57,0l0,100l-169.57,0l0,-100"/>
</g>
<g stroke-width="0.62" fill="none">
<path d="m336.81,353.03l169.57,0l0,100l-169.57,0l0,-100"/>
</g>
</g>
<g clip-path="url(#c2)">
<g stroke-width="0.62" fill="none">
<path d="M374.59,373.03l0,0"/>
<path d="M374.59,373.03l0,0"/>
<path d="M356.81,373.03l35.57,0"/>
</g>
<g stroke-linejoin="miter" stroke-width="0.62" transform="translate(374.59, 373.03)" fill="#000000">
<path d="m3.75,0c0,2.07,-1.68,3.75,-3.75,3.75c-2.07,0,-3.75,-1.68,-3.75,-3.75c0,-2.07,1.68,-3.75,3.75,-3.75c2.07,0,3.75,1.68,3.75,3.75"/>
</g>
</g>
<g clip-path="url(#c0)">
<g stroke-width="1" fill="none">
<path d="m424.8,367.42l0,0.33c-0.41,0.07,-0.71,0.2,-0.92,0.39c-0.3,0.28,-0.57,0.71,-0.81,1.28l-4.05,9.86l-0.31,0l-4.34,-9.98c-0.22,-0.52,-0.37,-0.84,-0.47,-0.95c-0.14,-0.17,-0.31,-0.3,-0.52,-0.41c-0.21,-0.1,-0.49,-0.17,-0.84,-0.19l0,-0.33l4.73,0l0,0.33c-0.54,0.05,-0.89,0.14,-1.05,0.27c-0.16,0.13,-0.23,0.29,-0.23,0.49c0,0.29,0.13,0.74,0.39,1.34l2.95,6.8l2.73,-6.72c0.26,-0.66,0.39,-1.11,0.39,-1.37c0,-0.17,-0.08,-0.33,-0.24,-0.48c-0.16,-0.15,-0.44,-0.26,-0.84,-0.32c-0.03,0,-0.08,-0.01,-0.14,-0.02l0,-0.33l3.56,0m2.56,10.47c-0.8,0.61,-1.31,0.97,-1.52,1.08c-0.3,0.14,-0.63,0.2,-0.98,0.2c-0.54,0,-0.99,-0.18,-1.34,-0.55c-0.35,-0.37,-0.52,-0.86,-0.52,-1.46c0,-0.37,0.08,-0.7,0.25,-0.98c0.24,-0.39,0.65,-0.75,1.23,-1.09c0.58,-0.34,1.54,-0.76,2.88,-1.25l0,-0.31c0,-0.78,-0.12,-1.32,-0.37,-1.6c-0.25,-0.29,-0.61,-0.43,-1.08,-0.43c-0.36,0,-0.65,0.09,-0.86,0.28c-0.22,0.2,-0.33,0.42,-0.33,0.67l0.02,0.5c0,0.26,-0.07,0.46,-0.2,0.6c-0.13,0.14,-0.3,0.21,-0.52,0.21c-0.21,0,-0.38,-0.07,-0.52,-0.22c-0.14,-0.15,-0.2,-0.35,-0.2,-0.61c0,-0.49,0.25,-0.94,0.75,-1.35c0.5,-0.41,1.2,-0.62,2.11,-0.62c0.7,0,1.27,0.12,1.72,0.36c0.33,0.18,0.58,0.45,0.73,0.83c0.1,0.24,0.16,0.74,0.16,1.5l0,2.66c0,0.75,0.02,1.21,0.05,1.37c0.03,0.17,0.08,0.28,0.14,0.34c0.06,0.06,0.14,0.09,0.22,0.09c0.09,0,0.18,-0.02,0.25,-0.06c0.11,-0.07,0.34,-0.28,0.69,-0.62l0,0.48c-0.64,0.85,-1.24,1.28,-1.83,1.28c-0.28,0,-0.51,-0.1,-0.67,-0.29c-0.17,-0.19,-0.25,-0.52,-0.25,-0.99m0,-0.56l0,-2.98c-0.86,0.34,-1.42,0.59,-1.67,0.73c-0.45,0.25,-0.77,0.51,-0.96,0.78c-0.19,0.27,-0.29,0.57,-0.29,0.91c0,0.41,0.12,0.74,0.37,1.02c0.24,0.27,0.52,0.41,0.84,0.41c0.44,0,1.01,-0.29,1.72,-0.86m6.25,-10.47l0,10.39c0,0.49,0.04,0.81,0.11,0.97c0.07,0.16,0.18,0.28,0.33,0.36c0.15,0.08,0.42,0.12,0.83,0.12l0,0.31l-3.83,0l0,-0.31c0.35,0,0.6,-0.04,0.73,-0.11c0.13,-0.07,0.23,-0.2,0.3,-0.37c0.07,-0.17,0.11,-0.5,0.11,-0.98l0,-7.11c0,-0.89,-0.02,-1.43,-0.05,-1.63c-0.04,-0.2,-0.1,-0.34,-0.19,-0.41c-0.09,-0.07,-0.2,-0.11,-0.34,-0.11c-0.15,0,-0.33,0.05,-0.56,0.14l-0.16,-0.3l2.34,-0.97l0.37,0m3.62,0l0,7.8l2,-1.81c0.42,-0.4,0.66,-0.64,0.73,-0.73c0.04,-0.07,0.06,-0.15,0.06,-0.22c0,-0.1,-0.05,-0.2,-0.14,-0.28c-0.09,-0.08,-0.25,-0.13,-0.47,-0.14l0,-0.28l3.41,0l0,0.28c-0.47,0.01,-0.86,0.08,-1.17,0.21c-0.31,0.13,-0.65,0.36,-1.02,0.7l-2.02,1.86l2.02,2.53c0.55,0.7,0.93,1.14,1.12,1.33c0.27,0.27,0.51,0.45,0.72,0.53c0.15,0.05,0.4,0.08,0.75,0.08l0,0.31l-3.81,0l0,-0.31c0.22,0,0.37,-0.03,0.45,-0.09c0.08,-0.06,0.12,-0.15,0.12,-0.25c0,-0.14,-0.11,-0.35,-0.34,-0.64l-2.41,-3.06l0,2.59c0,0.51,0.04,0.85,0.11,1.01c0.07,0.16,0.17,0.28,0.3,0.34c0.13,0.07,0.41,0.1,0.85,0.1l0,0.31l-3.98,0l0,-0.31c0.41,0,0.71,-0.05,0.91,-0.14c0.11,-0.06,0.2,-0.16,0.27,-0.3c0.08,-0.19,0.12,-0.51,0.12,-0.97l0,-7.12c0,-0.91,-0.02,-1.46,-0.05,-1.66c-0.04,-0.2,-0.1,-0.34,-0.2,-0.42c-0.09,-0.08,-0.21,-0.12,-0.36,-0.12c-0.11,0,-0.29,0.05,-0.53,0.16l-0.16,-0.3l2.33,-0.97l0.39,0m6.25,4.33l3.64,0l0,0.31l-0.17,0c-0.26,0,-0.46,0.06,-0.59,0.17c-0.13,0.11,-0.2,0.25,-0.2,0.41c0,0.23,0.09,0.54,0.28,0.94l1.91,3.94l1.75,-4.33c0.1,-0.23,0.16,-0.46,0.16,-0.69c0,-0.1,-0.02,-0.18,-0.06,-0.23c-0.04,-0.06,-0.11,-0.11,-0.21,-0.15c-0.1,-0.04,-0.27,-0.05,-0.52,-0.05l0,-0.31l2.55,0l0,0.31c-0.21,0.02,-0.37,0.07,-0.48,0.14c-0.11,0.07,-0.24,0.2,-0.37,0.39c-0.05,0.07,-0.15,0.29,-0.28,0.66l-3.19,7.81c-0.31,0.75,-0.72,1.32,-1.22,1.71c-0.5,0.39,-0.98,0.59,-1.44,0.59c-0.33,0,-0.61,-0.1,-0.83,-0.29c-0.22,-0.19,-0.33,-0.42,-0.33,-0.68c0,-0.23,0.08,-0.42,0.23,-0.56c0.16,-0.15,0.37,-0.22,0.66,-0.22c0.19,0,0.44,0.06,0.77,0.19c0.23,0.08,0.37,0.12,0.42,0.12c0.18,0,0.36,-0.09,0.56,-0.27c0.2,-0.18,0.4,-0.52,0.61,-1.03l0.56,-1.36l-2.81,-5.91c-0.08,-0.18,-0.22,-0.4,-0.42,-0.66c-0.14,-0.2,-0.25,-0.33,-0.34,-0.39c-0.14,-0.09,-0.34,-0.18,-0.62,-0.25l0,-0.31m11.73,-0.23l0,1.77c0.65,-1.18,1.32,-1.77,2.02,-1.77c0.31,0,0.57,0.1,0.77,0.29c0.2,0.19,0.3,0.41,0.3,0.66c0,0.22,-0.07,0.41,-0.22,0.56c-0.15,0.16,-0.32,0.23,-0.53,0.23c-0.2,0,-0.42,-0.1,-0.67,-0.3c-0.25,-0.2,-0.43,-0.3,-0.55,-0.3c-0.1,0,-0.22,0.06,-0.34,0.17c-0.25,0.23,-0.51,0.61,-0.78,1.16l0,3.75c0,0.44,0.05,0.77,0.16,0.98c0.07,0.16,0.2,0.28,0.39,0.38c0.19,0.1,0.46,0.15,0.81,0.15l0,0.31l-4,0l0,-0.31c0.4,0,0.69,-0.06,0.87,-0.19c0.15,-0.08,0.25,-0.23,0.31,-0.44c0.02,-0.09,0.03,-0.37,0.03,-0.83l0,-3.03c0,-0.91,-0.02,-1.45,-0.05,-1.62c-0.04,-0.18,-0.1,-0.3,-0.2,-0.38c-0.1,-0.08,-0.22,-0.12,-0.37,-0.12c-0.18,0,-0.37,0.04,-0.59,0.12l-0.09,-0.3l2.37,-0.97l0.36,0m5.69,-4.09c0.24,0,0.45,0.09,0.62,0.26c0.17,0.17,0.26,0.38,0.26,0.62c0,0.24,-0.09,0.44,-0.26,0.61c-0.17,0.17,-0.38,0.25,-0.62,0.25c-0.24,0,-0.44,-0.08,-0.61,-0.25c-0.17,-0.17,-0.25,-0.37,-0.25,-0.61c0,-0.24,0.08,-0.45,0.25,-0.62c0.17,-0.17,0.37,-0.26,0.61,-0.26m0.72,4.09l0,6.3c0,0.49,0.03,0.82,0.1,0.98c0.07,0.16,0.17,0.28,0.31,0.36c0.14,0.08,0.4,0.12,0.77,0.12l0,0.31l-3.81,0l0,-0.31c0.39,0,0.64,-0.04,0.77,-0.11c0.13,-0.07,0.23,-0.2,0.31,-0.37c0.08,-0.17,0.12,-0.5,0.12,-0.98l0,-3.02c0,-0.85,-0.03,-1.41,-0.08,-1.66c-0.04,-0.18,-0.1,-0.3,-0.19,-0.37c-0.08,-0.07,-0.2,-0.11,-0.34,-0.11c-0.17,0,-0.36,0.04,-0.59,0.12l-0.11,-0.3l2.36,-0.97l0.37,0m2.61,3.19c0,1.16,0.28,2.07,0.84,2.73c0.57,0.66,1.24,0.98,2.02,0.98c0.51,0,0.96,-0.14,1.34,-0.42c0.38,-0.28,0.7,-0.77,0.95,-1.45l0.27,0.17c-0.11,0.78,-0.46,1.49,-1.04,2.13c-0.58,0.64,-1.3,0.96,-2.16,0.96c-0.94,0,-1.74,-0.36,-2.41,-1.09c-0.67,-0.73,-1,-1.71,-1,-2.95c0,-1.33,0.34,-2.37,1.02,-3.12c0.68,-0.75,1.54,-1.12,2.59,-1.12c0.87,0,1.59,0.29,2.16,0.87c0.56,0.58,0.84,1.35,0.84,2.32l-5.41,0m0,-0.5l3.62,0c-0.03,-0.5,-0.09,-0.85,-0.17,-1.06c-0.15,-0.31,-0.36,-0.56,-0.64,-0.74c-0.28,-0.18,-0.58,-0.27,-0.89,-0.27c-0.47,0,-0.89,0.18,-1.27,0.55c-0.37,0.36,-0.59,0.87,-0.66,1.53m11.75,-2.69l0,2.67l-0.28,0c-0.22,-0.83,-0.5,-1.4,-0.84,-1.7c-0.34,-0.3,-0.77,-0.45,-1.29,-0.45c-0.41,0,-0.73,0.1,-0.98,0.31c-0.24,0.21,-0.37,0.44,-0.37,0.7c0,0.31,0.09,0.58,0.28,0.81c0.18,0.24,0.54,0.49,1.08,0.75l1.23,0.61c1.16,0.56,1.73,1.3,1.73,2.22c0,0.72,-0.27,1.29,-0.8,1.73c-0.54,0.43,-1.14,0.65,-1.8,0.65c-0.48,0,-1.03,-0.08,-1.64,-0.25c-0.19,-0.06,-0.34,-0.09,-0.45,-0.09c-0.14,0,-0.24,0.08,-0.31,0.23l-0.28,0l0,-2.8l0.28,0c0.16,0.79,0.46,1.39,0.91,1.8c0.45,0.41,0.96,0.61,1.51,0.61c0.4,0,0.72,-0.11,0.97,-0.34c0.25,-0.23,0.37,-0.51,0.37,-0.83c0,-0.4,-0.14,-0.73,-0.41,-1c-0.28,-0.27,-0.83,-0.61,-1.66,-1.02c-0.83,-0.41,-1.37,-0.78,-1.63,-1.11c-0.25,-0.32,-0.37,-0.73,-0.37,-1.23c0,-0.65,0.22,-1.18,0.66,-1.62c0.44,-0.43,1.01,-0.65,1.72,-0.65c0.3,0,0.67,0.07,1.11,0.2c0.29,0.08,0.49,0.12,0.59,0.12c0.08,0,0.15,-0.02,0.2,-0.06c0.05,-0.04,0.11,-0.13,0.19,-0.27l0.28,0" fill="#000000" stroke="none" fill-opacity="1"/>
</g>
</g>
<g clip-path="url(#c3)">
<g stroke-width="0.62" fill="none">
<path d="M374.59,393.03l0,0"/>
<path d="M374.59,393.03l0,0"/>
</g>
<g stroke-width="0.62" stroke-dasharray="0.625,1.25" fill="none">
<path d="M356.81,393.03l35.57,0"/>
</g>
<g stroke-linejoin="miter" stroke-width="0.62" transform="translate(374.59, 393.03)" fill="#ff0000">
<path d="m0,5.3l5.3,-5.3l-5.3,-5.3l-5.3,5.3l5.3,5.3"/>
</g>
</g>
<g clip-path="url(#c0)">
<g stroke-width="1" fill="none">
<path d="m420.41,387.16l0,4.02l-0.33,0c-0.1,-0.77,-0.29,-1.38,-0.55,-1.84c-0.26,-0.45,-0.64,-0.82,-1.12,-1.09c-0.49,-0.27,-1,-0.41,-1.53,-0.41c-0.59,0,-1.08,0.18,-1.47,0.55c-0.39,0.36,-0.58,0.78,-0.58,1.23c0,0.35,0.12,0.68,0.36,0.97c0.35,0.43,1.2,0.99,2.53,1.7c1.08,0.58,1.82,1.03,2.22,1.34c0.4,0.31,0.7,0.68,0.91,1.09c0.21,0.42,0.32,0.86,0.32,1.33c0,0.87,-0.34,1.63,-1.02,2.27c-0.68,0.64,-1.56,0.95,-2.63,0.95c-0.33,0,-0.65,-0.03,-0.94,-0.08c-0.18,-0.03,-0.54,-0.14,-1.1,-0.31c-0.56,-0.18,-0.91,-0.27,-1.05,-0.27c-0.15,0,-0.26,0.04,-0.34,0.12c-0.08,0.08,-0.15,0.26,-0.19,0.53l-0.31,0l0,-3.97l0.31,0c0.16,0.82,0.36,1.44,0.61,1.86c0.25,0.42,0.63,0.76,1.15,1.03c0.52,0.27,1.08,0.41,1.7,0.41c0.71,0,1.27,-0.19,1.68,-0.56c0.41,-0.37,0.62,-0.82,0.62,-1.33c0,-0.28,-0.08,-0.57,-0.23,-0.86c-0.16,-0.29,-0.4,-0.56,-0.72,-0.81c-0.23,-0.18,-0.84,-0.54,-1.83,-1.09c-0.99,-0.55,-1.69,-0.99,-2.11,-1.33c-0.42,-0.33,-0.73,-0.7,-0.95,-1.09c-0.22,-0.4,-0.33,-0.83,-0.33,-1.31c0,-0.83,0.32,-1.55,0.96,-2.16c0.64,-0.6,1.45,-0.91,2.43,-0.91c0.61,0,1.27,0.15,1.95,0.45c0.32,0.15,0.55,0.22,0.69,0.22c0.15,0,0.27,-0.04,0.36,-0.13c0.09,-0.09,0.17,-0.27,0.22,-0.54l0.33,0m2.08,4.03l3.28,0l0,0.31c-0.3,0.02,-0.5,0.08,-0.59,0.16c-0.09,0.09,-0.14,0.21,-0.14,0.37c0,0.18,0.05,0.39,0.14,0.64l1.69,4.5l1.67,-3.66l-0.44,-1.16c-0.14,-0.34,-0.32,-0.58,-0.55,-0.7c-0.12,-0.08,-0.35,-0.14,-0.69,-0.16l0,-0.31l3.72,0l0,0.31c-0.41,0.02,-0.7,0.1,-0.87,0.23c-0.11,0.08,-0.17,0.22,-0.17,0.42c0,0.11,0.03,0.23,0.08,0.36l1.77,4.48l1.66,-4.33c0.11,-0.3,0.17,-0.55,0.17,-0.73c0,-0.1,-0.05,-0.2,-0.16,-0.29c-0.11,-0.09,-0.33,-0.14,-0.66,-0.15l0,-0.31l2.47,0l0,0.31c-0.49,0.07,-0.85,0.41,-1.09,1.02l-2.61,6.73l-0.34,0l-1.97,-5l-2.28,5l-0.31,0l-2.52,-6.58c-0.16,-0.42,-0.32,-0.7,-0.48,-0.84c-0.16,-0.15,-0.41,-0.26,-0.76,-0.33l0,-0.31m15.42,-4.33c0.24,0,0.45,0.09,0.62,0.26c0.17,0.17,0.26,0.38,0.26,0.62c0,0.24,-0.09,0.44,-0.26,0.61c-0.17,0.17,-0.38,0.25,-0.62,0.25c-0.24,0,-0.44,-0.08,-0.61,-0.25c-0.17,-0.17,-0.25,-0.37,-0.25,-0.61c0,-0.24,0.08,-0.45,0.25,-0.62c0.17,-0.17,0.37,-0.26,0.61,-0.26m0.72,4.09l0,6.3c0,0.49,0.03,0.82,0.1,0.98c0.07,0.16,0.17,0.28,0.31,0.36c0.14,0.08,0.4,0.12,0.77,0.12l0,0.31l-3.81,0l0,-0.31c0.39,0,0.64,-0.04,0.77,-0.11c0.13,-0.07,0.23,-0.2,0.31,-0.37c0.08,-0.17,0.12,-0.5,0.12,-0.98l0,-3.02c0,-0.85,-0.03,-1.41,-0.08,-1.66c-0.04,-0.18,-0.1,-0.3,-0.19,-0.37c-0.08,-0.07,-0.2,-0.11,-0.34,-0.11c-0.17,0,-0.36,0.04,-0.59,0.12l-0.11,-0.3l2.36,-0.97l0.37,0m3.58,1.66c0.92,-1.1,1.79,-1.66,2.62,-1.66c0.43,0,0.79,0.11,1.1,0.32c0.31,0.21,0.55,0.57,0.73,1.05c0.14,0.34,0.2,0.87,0.2,1.58l0,3.34c0,0.49,0.04,0.82,0.11,1c0.06,0.15,0.16,0.26,0.3,0.34c0.14,0.08,0.4,0.12,0.77,0.12l0,0.31l-3.87,0l0,-0.31l0.17,0c0.36,0,0.62,-0.05,0.77,-0.16c0.15,-0.11,0.24,-0.27,0.3,-0.49c0.02,-0.08,0.03,-0.35,0.03,-0.8l0,-3.2c0,-0.72,-0.09,-1.24,-0.27,-1.55c-0.18,-0.32,-0.49,-0.48,-0.93,-0.48c-0.68,0,-1.35,0.37,-2.03,1.11l0,4.12c0,0.53,0.03,0.86,0.09,0.98c0.08,0.17,0.19,0.29,0.33,0.36c0.14,0.07,0.42,0.11,0.86,0.11l0,0.31l-3.87,0l0,-0.31l0.17,0c0.4,0,0.66,-0.1,0.8,-0.3c0.14,-0.2,0.21,-0.59,0.21,-1.15l0,-2.91c0,-0.94,-0.02,-1.51,-0.06,-1.72c-0.04,-0.21,-0.11,-0.35,-0.2,-0.42c-0.09,-0.07,-0.21,-0.11,-0.37,-0.11c-0.16,0,-0.34,0.04,-0.56,0.12l-0.12,-0.3l2.36,-0.97l0.36,0l0,1.66m12.25,5.53c-0.39,0.4,-0.76,0.68,-1.12,0.85c-0.36,0.17,-0.76,0.26,-1.17,0.26c-0.85,0,-1.6,-0.36,-2.24,-1.07c-0.64,-0.71,-0.96,-1.63,-0.96,-2.76c0,-1.11,0.35,-2.14,1.06,-3.07c0.71,-0.93,1.61,-1.4,2.72,-1.4c0.7,0,1.27,0.22,1.72,0.66l0,-1.45c0,-0.89,-0.02,-1.43,-0.06,-1.64c-0.04,-0.21,-0.11,-0.35,-0.2,-0.42c-0.09,-0.07,-0.21,-0.11,-0.34,-0.11c-0.15,0,-0.34,0.05,-0.59,0.14l-0.11,-0.3l2.33,-0.97l0.39,0l0,9.05c0,0.93,0.02,1.49,0.06,1.69c0.04,0.2,0.11,0.34,0.2,0.42c0.09,0.08,0.2,0.12,0.33,0.12c0.16,0,0.36,-0.05,0.62,-0.16l0.09,0.31l-2.33,0.95l-0.39,0l0,-1.11m0,-0.61l0,-4.03c-0.03,-0.39,-0.13,-0.74,-0.3,-1.05c-0.17,-0.32,-0.4,-0.56,-0.68,-0.72c-0.28,-0.16,-0.56,-0.24,-0.83,-0.24c-0.5,0,-0.95,0.22,-1.34,0.67c-0.52,0.59,-0.78,1.46,-0.78,2.59c0,1.16,0.25,2.04,0.76,2.65c0.51,0.61,1.07,0.91,1.68,0.91c0.51,0,1.01,-0.26,1.5,-0.78m7.3,-6.58c1.19,0,2.14,0.45,2.86,1.36c0.6,0.77,0.91,1.65,0.91,2.64c0,0.7,-0.17,1.41,-0.5,2.12c-0.33,0.72,-0.8,1.26,-1.39,1.62c-0.59,0.36,-1.25,0.55,-1.97,0.55c-1.18,0,-2.11,-0.47,-2.81,-1.41c-0.58,-0.79,-0.87,-1.68,-0.87,-2.67c0,-0.71,0.18,-1.42,0.53,-2.13c0.35,-0.71,0.82,-1.24,1.41,-1.58c0.58,-0.34,1.2,-0.51,1.84,-0.51m-0.27,0.56c-0.3,0,-0.6,0.09,-0.91,0.27c-0.3,0.18,-0.55,0.49,-0.74,0.95c-0.19,0.45,-0.29,1.03,-0.29,1.74c0,1.14,0.23,2.11,0.68,2.94c0.45,0.82,1.05,1.23,1.8,1.23c0.55,0,1.01,-0.23,1.36,-0.68c0.35,-0.45,0.53,-1.24,0.53,-2.35c0,-1.39,-0.3,-2.48,-0.89,-3.28c-0.41,-0.54,-0.92,-0.81,-1.55,-0.81m7.72,1.09c0.92,-1.1,1.79,-1.66,2.62,-1.66c0.43,0,0.79,0.11,1.1,0.32c0.31,0.21,0.55,0.57,0.73,1.05c0.14,0.34,0.2,0.87,0.2,1.58l0,3.34c0,0.49,0.04,0.82,0.11,1c0.06,0.15,0.16,0.26,0.3,0.34c0.14,0.08,0.4,0.12,0.77,0.12l0,0.31l-3.87,0l0,-0.31l0.17,0c0.36,0,0.62,-0.05,0.77,-0.16c0.15,-0.11,0.24,-0.27,0.3,-0.49c0.02,-0.08,0.03,-0.35,0.03,-0.8l0,-3.2c0,-0.72,-0.09,-1.24,-0.27,-1.55c-0.18,-0.32,-0.49,-0.48,-0.93,-0.48c-0.68,0,-1.35,0.37,-2.03,1.11l0,4.12c0,0.53,0.03,0.86,0.09,0.98c0.08,0.17,0.19,0.29,0.33,0.36c0.14,0.07,0.42,0.11,0.86,0.11l0,0.31l-3.87,0l0,-0.31l0.17,0c0.4,0,0.66,-0.1,0.8,-0.3c0.14,-0.2,0.21,-0.59,0.21,-1.15l0,-2.91c0,-0.94,-0.02,-1.51,-0.06,-1.72c-0.04,-0.21,-0.11,-0.35,-0.2,-0.42c-0.09,-0.07,-0.21,-0.11,-0.37,-0.11c-0.16,0,-0.34,0.04,-0.56,0.12l-0.12,-0.3l2.36,-0.97l0.36,0l0,1.66" fill="#000000" stroke="none" fill-opacity="1"/>
</g>
</g>
<g clip-path="url(#c4)">
<g stroke-width="0.62" fill="none">
<path d="M374.59,405.03l0,16"/>
<path d="M374.59,413.03l0,0"/>
</g>
<g stroke-width="0.62" stroke-dasharray="2.5,1.25" fill="none">
<path d="M356.81,413.03l35.57,0"/>
</g>
<g stroke-linejoin="miter" stroke-width="0.62" transform="translate(374.59, 413.03)" fill="#0000ff">
<path d="m-3.75,-3.75l7.5,0l0,7.5l-7.5,0l0,-7.5"/>
</g>
</g>
<g clip-path="url(#c0)">
<g stroke-width="1" fill="none">
<path d="m412.67,419.02l0,-0.31l0.44,0c0.49,0,0.84,-0.16,1.05,-0.47c0.12,-0.19,0.19,-0.61,0.19,-1.27l0,-7.48c0,-0.73,-0.08,-1.18,-0.25,-1.36c-0.22,-0.25,-0.55,-0.37,-0.98,-0.37l-0.44,0l0,-0.33l4.72,0c1.73,0,3.05,0.2,3.95,0.59c0.91,0.4,1.63,1.05,2.18,1.97c0.55,0.92,0.82,1.97,0.82,3.17c0,1.61,-0.49,2.96,-1.47,4.05c-1.09,1.21,-2.77,1.81,-5.02,1.81l-5.19,0m3.31,-0.84c0.72,0.17,1.32,0.25,1.81,0.25c1.32,0,2.42,-0.47,3.29,-1.4c0.87,-0.93,1.3,-2.19,1.3,-3.77c0,-1.6,-0.43,-2.87,-1.3,-3.79c-0.87,-0.92,-1.99,-1.38,-3.35,-1.38c-0.51,0,-1.09,0.08,-1.75,0.25l0,9.84m11.92,-11.31c0.24,0,0.45,0.09,0.62,0.26c0.17,0.17,0.26,0.38,0.26,0.62c0,0.24,-0.09,0.44,-0.26,0.61c-0.17,0.17,-0.38,0.25,-0.62,0.25c-0.24,0,-0.44,-0.08,-0.61,-0.25c-0.17,-0.17,-0.25,-0.37,-0.25,-0.61c0,-0.24,0.08,-0.45,0.25,-0.62c0.17,-0.17,0.37,-0.26,0.61,-0.26m0.72,4.09l0,6.3c0,0.49,0.03,0.82,0.1,0.98c0.07,0.16,0.17,0.28,0.31,0.36c0.14,0.08,0.4,0.12,0.77,0.12l0,0.31l-3.81,0l0,-0.31c0.39,0,0.64,-0.04,0.77,-0.11c0.13,-0.07,0.23,-0.2,0.31,-0.37c0.08,-0.17,0.12,-0.5,0.12,-0.98l0,-3.02c0,-0.85,-0.03,-1.41,-0.08,-1.66c-0.04,-0.18,-0.1,-0.3,-0.19,-0.37c-0.08,-0.07,-0.2,-0.11,-0.34,-0.11c-0.17,0,-0.36,0.04,-0.59,0.12l-0.11,-0.3l2.36,-0.97l0.37,0m6.36,0l0,2.67l-0.28,0c-0.22,-0.83,-0.5,-1.4,-0.84,-1.7c-0.34,-0.3,-0.77,-0.45,-1.29,-0.45c-0.41,0,-0.73,0.1,-0.98,0.31c-0.24,0.21,-0.37,0.44,-0.37,0.7c0,0.31,0.09,0.58,0.28,0.81c0.18,0.24,0.54,0.49,1.08,0.75l1.23,0.61c1.16,0.56,1.73,1.3,1.73,2.22c0,0.72,-0.27,1.29,-0.8,1.73c-0.54,0.43,-1.14,0.65,-1.8,0.65c-0.48,0,-1.03,-0.08,-1.64,-0.25c-0.19,-0.06,-0.34,-0.09,-0.45,-0.09c-0.14,0,-0.24,0.08,-0.31,0.23l-0.28,0l0,-2.8l0.28,0c0.16,0.79,0.46,1.39,0.91,1.8c0.45,0.41,0.96,0.61,1.51,0.61c0.4,0,0.72,-0.11,0.97,-0.34c0.25,-0.23,0.37,-0.51,0.37,-0.83c0,-0.4,-0.14,-0.73,-0.41,-1c-0.28,-0.27,-0.83,-0.61,-1.66,-1.02c-0.83,-0.41,-1.37,-0.78,-1.63,-1.11c-0.25,-0.32,-0.37,-0.73,-0.37,-1.23c0,-0.65,0.22,-1.18,0.66,-1.62c0.44,-0.43,1.01,-0.65,1.72,-0.65c0.3,0,0.67,0.07,1.11,0.2c0.29,0.08,0.49,0.12,0.59,0.12c0.08,0,0.15,-0.02,0.2,-0.06c0.05,-0.04,0.11,-0.13,0.19,-0.27l0.28,0m8.58,5.09c-0.21,1.03,-0.62,1.82,-1.23,2.37c-0.61,0.55,-1.3,0.83,-2.05,0.83c-0.89,0,-1.66,-0.37,-2.32,-1.12c-0.66,-0.74,-0.99,-1.75,-0.99,-3.02c0,-1.23,0.37,-2.23,1.1,-3c0.73,-0.77,1.61,-1.16,2.63,-1.16c0.77,0,1.4,0.2,1.9,0.61c0.49,0.41,0.74,0.83,0.74,1.28c0,0.21,-0.07,0.38,-0.21,0.52c-0.14,0.14,-0.34,0.2,-0.59,0.2c-0.33,0,-0.58,-0.11,-0.75,-0.33c-0.1,-0.11,-0.17,-0.34,-0.2,-0.68c-0.03,-0.34,-0.15,-0.6,-0.34,-0.77c-0.2,-0.17,-0.47,-0.25,-0.83,-0.25c-0.56,0,-1.02,0.21,-1.37,0.62c-0.46,0.56,-0.69,1.3,-0.69,2.22c0,0.94,0.23,1.76,0.69,2.48c0.46,0.71,1.08,1.07,1.86,1.07c0.55,0,1.05,-0.19,1.5,-0.58c0.31,-0.26,0.62,-0.73,0.92,-1.42l0.23,0.12m0.92,-4.86l3.28,0l0,0.31c-0.3,0.02,-0.5,0.08,-0.59,0.16c-0.09,0.09,-0.14,0.21,-0.14,0.37c0,0.18,0.05,0.39,0.14,0.64l1.69,4.5l1.67,-3.66l-0.44,-1.16c-0.14,-0.34,-0.32,-0.58,-0.55,-0.7c-0.12,-0.08,-0.35,-0.14,-0.69,-0.16l0,-0.31l3.72,0l0,0.31c-0.41,0.02,-0.7,0.1,-0.87,0.23c-0.11,0.08,-0.17,0.22,-0.17,0.42c0,0.11,0.03,0.23,0.08,0.36l1.77,4.48l1.66,-4.33c0.11,-0.3,0.17,-0.55,0.17,-0.73c0,-0.1,-0.05,-0.2,-0.16,-0.29c-0.11,-0.09,-0.33,-0.14,-0.66,-0.15l0,-0.31l2.47,0l0,0.31c-0.49,0.07,-0.85,0.41,-1.09,1.02l-2.61,6.73l-0.34,0l-1.97,-5l-2.28,5l-0.31,0l-2.52,-6.58c-0.16,-0.42,-0.32,-0.7,-0.48,-0.84c-0.16,-0.15,-0.41,-0.26,-0.76,-0.33l0,-0.31m17.27,-0.23c1.19,0,2.14,0.45,2.86,1.36c0.6,0.77,0.91,1.65,0.91,2.64c0,0.7,-0.17,1.41,-0.5,2.12c-0.33,0.72,-0.8,1.26,-1.39,1.62c-0.59,0.36,-1.25,0.55,-1.97,0.55c-1.18,0,-2.11,-0.47,-2.81,-1.41c-0.58,-0.79,-0.87,-1.68,-0.87,-2.67c0,-0.71,0.18,-1.42,0.53,-2.13c0.35,-0.71,0.82,-1.24,1.41,-1.58c0.58,-0.34,1.2,-0.51,1.84,-0.51m-0.27,0.56c-0.3,0,-0.6,0.09,-0.91,0.27c-0.3,0.18,-0.55,0.49,-0.74,0.95c-0.19,0.45,-0.29,1.03,-0.29,1.74c0,1.14,0.23,2.11,0.68,2.94c0.45,0.82,1.05,1.23,1.8,1.23c0.55,0,1.01,-0.23,1.36,-0.68c0.35,-0.45,0.53,-1.24,0.53,-2.35c0,-1.39,-0.3,-2.48,-0.89,-3.28c-0.41,-0.54,-0.92,-0.81,-1.55,-0.81m7.73,-0.56l0,1.77c0.65,-1.18,1.32,-1.77,2.02,-1.77c0.31,0,0.57,0.1,0.77,0.29c0.2,0.19,0.3,0.41,0.3,0.66c0,0.22,-0.07,0.41,-0.22,0.56c-0.15,0.16,-0.32,0.23,-0.53,0.23c-0.2,0,-0.42,-0.1,-0.67,-0.3c-0.25,-0.2,-0.43,-0.3,-0.55,-0.3c-0.1,0,-0.22,0.06,-0.34,0.17c-0.25,0.23,-0.51,0.61,-0.78,1.16l0,3.75c0,0.44,0.05,0.77,0.16,0.98c0.07,0.16,0.2,0.28,0.39,0.38c0.19,0.1,0.46,0.15,0.81,0.15l0,0.31l-4,0l0,-0.31c0.4,0,0.69,-0.06,0.87,-0.19c0.15,-0.08,0.25,-0.23,0.31,-0.44c0.02,-0.09,0.03,-0.37,0.03,-0.83l0,-3.03c0,-0.91,-0.02,-1.45,-0.05,-1.62c-0.04,-0.18,-0.1,-0.3,-0.2,-0.38c-0.1,-0.08,-0.22,-0.12,-0.37,-0.12c-0.18,0,-0.37,0.04,-0.59,0.12l-0.09,-0.3l2.37,-0.97l0.36,0m6.39,-4.09l0,10.39c0,0.49,0.04,0.81,0.11,0.97c0.07,0.16,0.18,0.28,0.33,0.36c0.15,0.08,0.42,0.12,0.83,0.12l0,0.31l-3.83,0l0,-0.31c0.35,0,0.6,-0.04,0.73,-0.11c0.13,-0.07,0.23,-0.2,0.3,-0.37c0.07,-0.17,0.11,-0.5,0.11,-0.98l0,-7.11c0,-0.89,-0.02,-1.43,-0.05,-1.63c-0.04,-0.2,-0.1,-0.34,-0.19,-0.41c-0.09,-0.07,-0.2,-0.11,-0.34,-0.11c-0.15,0,-0.33,0.05,-0.56,0.14l-0.16,-0.3l2.34,-0.97l0.37,0m6.84,11.28c-0.39,0.4,-0.76,0.68,-1.12,0.85c-0.36,0.17,-0.76,0.26,-1.17,0.26c-0.85,0,-1.6,-0.36,-2.24,-1.07c-0.64,-0.71,-0.96,-1.63,-0.96,-2.76c0,-1.11,0.35,-2.14,1.06,-3.07c0.71,-0.93,1.61,-1.4,2.72,-1.4c0.7,0,1.27,0.22,1.72,0.66l0,-1.45c0,-0.89,-0.02,-1.43,-0.06,-1.64c-0.04,-0.21,-0.11,-0.35,-0.2,-0.42c-0.09,-0.07,-0.21,-0.11,-0.34,-0.11c-0.15,0,-0.34,0.05,-0.59,0.14l-0.11,-0.3l2.33,-0.97l0.39,0l0,9.05c0,0.93,0.02,1.49,0.06,1.69c0.04,0.2,0.11,0.34,0.2,0.42c0.09,0.08,0.2,0.12,0.33,0.12c0.16,0,0.36,-0.05,0.62,-0.16l0.09,0.31l-2.33,0.95l-0.39,0l0,-1.11m0,-0.61l0,-4.03c-0.03,-0.39,-0.13,-0.74,-0.3,-1.05c-0.17,-0.32,-0.4,-0.56,-0.68,-0.72c-0.28,-0.16,-0.56,-0.24,-0.83,-0.24c-0.5,0,-0.95,0.22,-1.34,0.67c-0.52,0.59,-0.78,1.46,-0.78,2.59c0,1.16,0.25,2.04,0.76,2.65c0.51,0.61,1.07,0.91,1.68,0.91c0.51,0,1.01,-0.26,1.5,-0.78" fill="#000000" stroke="none" fill-opacity="1"/>
</g>
<g stroke="#20f020" stroke-width="2.5" fill="none">
<path d="M356.81,433.03l35.57,0"/>
</g>
<g stroke-width="1" fill="none">
<path d="m419.53,439.02l-4.47,-9.75l0,7.73c0,0.72,0.07,1.17,0.22,1.34c0.22,0.24,0.55,0.36,1,0.36l0.42,0l0,0.31l-4.03,0l0,-0.31l0.41,0c0.49,0,0.84,-0.15,1.05,-0.45c0.12,-0.18,0.19,-0.59,0.19,-1.25l0,-7.56c0,-0.51,-0.06,-0.88,-0.17,-1.11c-0.08,-0.17,-0.23,-0.3,-0.45,-0.41c-0.21,-0.11,-0.55,-0.16,-1.02,-0.16l0,-0.33l3.28,0l4.2,9.08l4.12,-9.08l3.28,0l0,0.33l-0.39,0c-0.5,0,-0.85,0.15,-1.06,0.44c-0.12,0.19,-0.19,0.6,-0.19,1.25l0,7.56c0,0.72,0.08,1.17,0.25,1.34c0.21,0.24,0.54,0.36,1,0.36l0.39,0l0,0.31l-4.92,0l0,-0.31l0.42,0c0.49,0,0.83,-0.15,1.03,-0.45c0.12,-0.18,0.19,-0.59,0.19,-1.25l0,-7.73l-4.47,9.75l-0.28,0m13.22,-8.06c1.19,0,2.14,0.45,2.86,1.36c0.6,0.77,0.91,1.65,0.91,2.64c0,0.7,-0.17,1.41,-0.5,2.12c-0.33,0.72,-0.8,1.26,-1.39,1.62c-0.59,0.36,-1.25,0.55,-1.97,0.55c-1.18,0,-2.11,-0.47,-2.81,-1.41c-0.58,-0.79,-0.87,-1.68,-0.87,-2.67c0,-0.71,0.18,-1.42,0.53,-2.13c0.35,-0.71,0.82,-1.24,1.41,-1.58c0.58,-0.34,1.2,-0.51,1.84,-0.51m-0.27,0.56c-0.3,0,-0.6,0.09,-0.91,0.27c-0.3,0.18,-0.55,0.49,-0.74,0.95c-0.19,0.45,-0.29,1.03,-0.29,1.74c0,1.14,0.23,2.11,0.68,2.94c0.45,0.82,1.05,1.23,1.8,1.23c0.55,0,1.01,-0.23,1.36,-0.68c0.35,-0.45,0.53,-1.24,0.53,-2.35c0,-1.39,-0.3,-2.48,-0.89,-3.28c-0.41,-0.54,-0.92,-0.81,-1.55,-0.81m10.97,6.62c-0.39,0.4,-0.76,0.68,-1.12,0.85c-0.36,0.17,-0.76,0.26,-1.17,0.26c-0.85,0,-1.6,-0.36,-2.24,-1.07c-0.64,-0.71,-0.96,-1.63,-0.96,-2.76c0,-1.11,0.35,-2.14,1.06,-3.07c0.71,-0.93,1.61,-1.4,2.72,-1.4c0.7,0,1.27,0.22,1.72,0.66l0,-1.45c0,-0.89,-0.02,-1.43,-0.06,-1.64c-0.04,-0.21,-0.11,-0.35,-0.2,-0.42c-0.09,-0.07,-0.21,-0.11,-0.34,-0.11c-0.15,0,-0.34,0.05,-0.59,0.14l-0.11,-0.3l2.33,-0.97l0.39,0l0,9.05c0,0.93,0.02,1.49,0.06,1.69c0.04,0.2,0.11,0.34,0.2,0.42c0.09,0.08,0.2,0.12,0.33,0.12c0.16,0,0.36,-0.05,0.62,-0.16l0.09,0.31l-2.33,0.95l-0.39,0l0,-1.11m0,-0.61l0,-4.03c-0.03,-0.39,-0.13,-0.74,-0.3,-1.05c-0.17,-0.32,-0.4,-0.56,-0.68,-0.72c-0.28,-0.16,-0.56,-0.24,-0.83,-0.24c-0.5,0,-0.95,0.22,-1.34,0.67c-0.52,0.59,-0.78,1.46,-0.78,2.59c0,1.16,0.25,2.04,0.76,2.65c0.51,0.61,1.07,0.91,1.68,0.91c0.51,0,1.01,-0.26,1.5,-0.78m4.78,-3.39c0,1.16,0.28,2.07,0.84,2.73c0.57,0.66,1.24,0.98,2.02,0.98c0.51,0,0.96,-0.14,1.34,-0.42c0.38,-0.28,0.7,-0.77,0.95,-1.45l0.27,0.17c-0.11,0.78,-0.46,1.49,-1.04,2.13c-0.58,0.64,-1.3,0.96,-2.16,0.96c-0.94,0,-1.74,-0.36,-2.41,-1.09c-0.67,-0.73,-1,-1.71,-1,-2.95c0,-1.33,0.34,-2.37,1.02,-3.12c0.68,-0.75,1.54,-1.12,2.59,-1.12c0.87,0,1.59,0.29,2.16,0.87c0.56,0.58,0.84,1.35,0.84,2.32l-5.41,0m0,-0.5l3.62,0c-0.03,-0.5,-0.09,-0.85,-0.17,-1.06c-0.15,-0.31,-0.36,-0.56,-0.64,-0.74c-0.28,-0.18,-0.58,-0.27,-0.89,-0.27c-0.47,0,-0.89,0.18,-1.27,0.55c-0.37,0.36,-0.59,0.87,-0.66,1.53m9.37,-6.78l0,10.39c0,0.49,0.04,0.81,0.11,0.97c0.07,0.16,0.18,0.28,0.33,0.36c0.15,0.08,0.42,0.12,0.83,0.12l0,0.31l-3.83,0l0,-0.31c0.35,0,0.6,-0.04,0.73,-0.11c0.13,-0.07,0.23,-0.2,0.3,-0.37c0.07,-0.17,0.11,-0.5,0.11,-0.98l0,-7.11c0,-0.89,-0.02,-1.43,-0.05,-1.63c-0.04,-0.2,-0.1,-0.34,-0.19,-0.41c-0.09,-0.07,-0.2,-0.11,-0.34,-0.11c-0.15,0,-0.33,0.05,-0.56,0.14l-0.16,-0.3l2.34,-0.97l0.37,0" fill="#000000" stroke="none" fill-opacity="1"/>
</g>
<g stroke-width="0.62" stroke-linecap="butt" fill="none">
<path d="M60.46,473.03l0,-465.91"/>
<path d="M60.46,473.03l3.75,0M60.46,454.39l3.75,0M60.46,435.75l3.75,0M60.46,417.12l3.75,0M60.46,398.48l3.75,0M60.46,379.84l3.75,0M60.46,361.21l3.75,0M60.46,342.57l3.75,0M60.46,323.93l3.75,0M60.46,305.3l3.75,0M60.46,286.66l3.75,0M60.46,268.02l3.75,0M60.46,249.39l3.75,0M60.46,230.75l3.75,0M60.46,212.12l3.75,0M60.46,193.48l3.75,0M60.46,174.84l3.75,0M60.46,156.21l3.75,0M60.46,137.57l3.75,0M60.46,118.93l3.75,0M60.46,100.3l3.75,0M60.46,81.66l3.75,0M60.46,63.02l3.75,0M60.46,44.39l3.75,0M60.46,25.75l3.75,0M60.46,7.11l3.75,0"/>
<path d="M60.46,473.03l7.5,0M60.46,379.84l7.5,0M60.46,286.66l7.5,0M60.46,193.48l7.5,0M60.46,100.3l7.5,0M60.46,7.11l7.5,0"/>
<path d="M526.38,473.03l0,-465.91"/>
<path d="M526.38,473.03l-3.75,0M526.38,454.39l-3.75,0M526.38,435.75l-3.75,0M526.38,417.12l-3.75,0M526.38,398.48l-3.75,0M526.38,379.84l-3.75,0M526.38,361.21l-3.75,0M526.38,342.57l-3.75,0M526.38,323.93l-3.75,0M526.38,305.3l-3.75,0M526.38,286.66l-3.75,0M526.38,268.02l-3.75,0M526.38,249.39l-3.75,0M526.38,230.75l-3.75,0M526.38,212.12l-3.75,0M526.38,193.48l-3.75,0M526.38,174.84l-3.75,0M526.38,156.21l-3.75,0M526.38,137.57l-3.75,0M526.38,118.93l-3.75,0M526.38,100.3l-3.75,0M526.38,81.66l-3.75,0M526.38,63.02l-3.75,0M526.38,44.39l-3.75,0M526.38,25.75l-3.75,0M526.38,7.11l-3.75,0"/>
<path d="M526.38,473.03l-7.5,0M526.38,379.84l-7.5,0M526.38,286.66l-7.5,0M526.38,193.48l-7.5,0M526.38,100.3l-7.5,0M526.38,7.11l-7.5,0"/>
</g>
<g stroke-width="1" transform="matrix(0 -1 1 0 16 277.57)" fill="none">
<path d="m0.3,0l0,-0.31l0.44,0c0.49,0,0.84,-0.16,1.05,-0.47c0.12,-0.19,0.19,-0.61,0.19,-1.27l0,-7.48c0,-0.73,-0.08,-1.18,-0.25,-1.36c-0.22,-0.25,-0.55,-0.37,-0.98,-0.37l-0.44,0l0,-0.33l4.72,0c1.73,0,3.05,0.2,3.95,0.59c0.91,0.4,1.63,1.05,2.18,1.97c0.55,0.92,0.82,1.97,0.82,3.17c0,1.61,-0.49,2.96,-1.47,4.05c-1.09,1.21,-2.77,1.81,-5.02,1.81l-5.19,0m3.31,-0.84c0.72,0.17,1.32,0.25,1.81,0.25c1.32,0,2.42,-0.47,3.29,-1.4c0.87,-0.93,1.3,-2.19,1.3,-3.77c0,-1.6,-0.43,-2.87,-1.3,-3.79c-0.87,-0.92,-1.99,-1.38,-3.35,-1.38c-0.51,0,-1.09,0.08,-1.75,0.25l0,9.84m11.25,-4.03c0,1.16,0.28,2.07,0.84,2.73c0.57,0.66,1.24,0.98,2.02,0.98c0.51,0,0.96,-0.14,1.34,-0.42c0.38,-0.28,0.7,-0.77,0.95,-1.45l0.27,0.17c-0.11,0.78,-0.46,1.49,-1.04,2.13c-0.58,0.64,-1.3,0.96,-2.16,0.96c-0.94,0,-1.74,-0.36,-2.41,-1.09c-0.67,-0.73,-1,-1.71,-1,-2.95c0,-1.33,0.34,-2.37,1.02,-3.12c0.68,-0.75,1.54,-1.12,2.59,-1.12c0.87,0,1.59,0.29,2.16,0.87c0.56,0.58,0.84,1.35,0.84,2.32l-5.41,0m0,-0.5l3.62,0c-0.03,-0.5,-0.09,-0.85,-0.17,-1.06c-0.15,-0.31,-0.36,-0.56,-0.64,-0.74c-0.28,-0.18,-0.58,-0.27,-0.89,-0.27c-0.47,0,-0.89,0.18,-1.27,0.55c-0.37,0.36,-0.59,0.87,-0.66,1.53m11.12,4.25c-0.8,0.61,-1.31,0.97,-1.52,1.08c-0.3,0.14,-0.63,0.2,-0.98,0.2c-0.54,0,-0.99,-0.18,-1.34,-0.55c-0.35,-0.37,-0.52,-0.86,-0.52,-1.46c0,-0.37,0.08,-0.7,0.25,-0.98c0.24,-0.39,0.65,-0.75,1.23,-1.09c0.58,-0.34,1.54,-0.76,2.88,-1.25l0,-0.31c0,-0.78,-0.12,-1.32,-0.37,-1.6c-0.25,-0.29,-0.61,-0.43,-1.08,-0.43c-0.36,0,-0.65,0.09,-0.86,0.28c-0.22,0.2,-0.33,0.42,-0.33,0.67l0.02,0.5c0,0.26,-0.07,0.46,-0.2,0.6c-0.13,0.14,-0.3,0.21,-0.52,0.21c-0.21,0,-0.38,-0.07,-0.52,-0.22c-0.14,-0.15,-0.2,-0.35,-0.2,-0.61c0,-0.49,0.25,-0.94,0.75,-1.35c0.5,-0.41,1.2,-0.62,2.11,-0.62c0.7,0,1.27,0.12,1.72,0.36c0.33,0.18,0.58,0.45,0.73,0.83c0.1,0.24,0.16,0.74,0.16,1.5l0,2.66c0,0.75,0.02,1.21,0.05,1.37c0.03,0.17,0.08,0.28,0.14,0.34c0.06,0.06,0.14,0.09,0.22,0.09c0.09,0,0.18,-0.02,0.25,-0.06c0.11,-0.07,0.34,-0.28,0.69,-0.62l0,0.48c-0.64,0.85,-1.24,1.28,-1.83,1.28c-0.28,0,-0.51,-0.1,-0.67,-0.29c-0.17,-0.19,-0.25,-0.52,-0.25,-0.99m0,-0.56l0,-2.98c-0.86,0.34,-1.42,0.59,-1.67,0.73c-0.45,0.25,-0.77,0.51,-0.96,0.78c-0.19,0.27,-0.29,0.57,-0.29,0.91c0,0.41,0.12,0.74,0.37,1.02c0.24,0.27,0.52,0.41,0.84,0.41c0.44,0,1.01,-0.29,1.72,-0.86m5.83,-8.72l0,2.58l1.84,0l0,0.59l-1.84,0l0,5.08c0,0.51,0.07,0.85,0.22,1.03c0.15,0.18,0.33,0.27,0.56,0.27c0.19,0,0.37,-0.06,0.55,-0.18c0.18,-0.12,0.31,-0.29,0.41,-0.52l0.34,0c-0.2,0.56,-0.48,0.98,-0.84,1.27c-0.36,0.28,-0.74,0.42,-1.14,0.42c-0.26,0,-0.52,-0.07,-0.77,-0.22c-0.25,-0.15,-0.43,-0.35,-0.55,-0.62c-0.12,-0.27,-0.18,-0.69,-0.18,-1.25l0,-5.27l-1.23,0l0,-0.28c0.31,-0.12,0.63,-0.34,0.96,-0.63c0.33,-0.3,0.62,-0.65,0.88,-1.07c0.12,-0.21,0.31,-0.6,0.55,-1.19l0.25,0m5.03,-1.75l0,5.73c0.64,-0.7,1.14,-1.15,1.51,-1.34c0.37,-0.2,0.74,-0.3,1.1,-0.3c0.45,0,0.83,0.12,1.15,0.37c0.32,0.24,0.55,0.63,0.71,1.16c0.11,0.36,0.17,1.03,0.17,2l0,2.77c0,0.49,0.04,0.83,0.11,1.02c0.06,0.14,0.16,0.24,0.3,0.32c0.14,0.08,0.39,0.12,0.75,0.12l0,0.31l-3.84,0l0,-0.31l0.17,0c0.36,0,0.62,-0.05,0.77,-0.16c0.15,-0.11,0.24,-0.27,0.3,-0.49c0.02,-0.09,0.03,-0.36,0.03,-0.8l0,-2.77c0,-0.85,-0.04,-1.42,-0.13,-1.69c-0.09,-0.27,-0.23,-0.47,-0.42,-0.61c-0.19,-0.14,-0.43,-0.2,-0.71,-0.2c-0.27,0,-0.56,0.08,-0.86,0.23c-0.3,0.15,-0.67,0.45,-1.09,0.9l0,4.14c0,0.53,0.03,0.86,0.09,0.99c0.06,0.13,0.17,0.24,0.34,0.33c0.16,0.09,0.44,0.13,0.84,0.13l0,0.31l-3.87,0l0,-0.31c0.34,0,0.61,-0.05,0.81,-0.16c0.11,-0.06,0.21,-0.17,0.27,-0.33c0.07,-0.16,0.1,-0.48,0.1,-0.97l0,-7.09c0,-0.89,-0.02,-1.43,-0.06,-1.64c-0.04,-0.21,-0.11,-0.35,-0.2,-0.42c-0.09,-0.07,-0.21,-0.11,-0.35,-0.11c-0.12,0,-0.32,0.05,-0.58,0.14l-0.12,-0.3l2.34,-0.97l0.39,0m14,4.09l0,1.77c0.65,-1.18,1.32,-1.77,2.02,-1.77c0.31,0,0.57,0.1,0.77,0.29c0.2,0.19,0.3,0.41,0.3,0.66c0,0.22,-0.07,0.41,-0.22,0.56c-0.15,0.16,-0.32,0.23,-0.53,0.23c-0.2,0,-0.42,-0.1,-0.67,-0.3c-0.25,-0.2,-0.43,-0.3,-0.55,-0.3c-0.1,0,-0.22,0.06,-0.34,0.17c-0.25,0.23,-0.51,0.61,-0.78,1.16l0,3.75c0,0.44,0.05,0.77,0.16,0.98c0.07,0.16,0.2,0.28,0.39,0.38c0.19,0.1,0.46,0.15,0.81,0.15l0,0.31l-4,0l0,-0.31c0.4,0,0.69,-0.06,0.87,-0.19c0.15,-0.08,0.25,-0.23,0.31,-0.44c0.02,-0.09,0.03,-0.37,0.03,-0.83l0,-3.03c0,-0.91,-0.02,-1.45,-0.05,-1.62c-0.04,-0.18,-0.1,-0.3,-0.2,-0.38c-0.1,-0.08,-0.22,-0.12,-0.37,-0.12c-0.18,0,-0.37,0.04,-0.59,0.12l-0.09,-0.3l2.37,-0.97l0.36,0m8.14,6.94c-0.8,0.61,-1.31,0.97,-1.52,1.08c-0.3,0.14,-0.63,0.2,-0.98,0.2c-0.54,0,-0.99,-0.18,-1.34,-0.55c-0.35,-0.37,-0.52,-0.86,-0.52,-1.46c0,-0.37,0.08,-0.7,0.25,-0.98c0.24,-0.39,0.65,-0.75,1.23,-1.09c0.58,-0.34,1.54,-0.76,2.88,-1.25l0,-0.31c0,-0.78,-0.12,-1.32,-0.37,-1.6c-0.25,-0.29,-0.61,-0.43,-1.08,-0.43c-0.36,0,-0.65,0.09,-0.86,0.28c-0.22,0.2,-0.33,0.42,-0.33,0.67l0.02,0.5c0,0.26,-0.07,0.46,-0.2,0.6c-0.13,0.14,-0.3,0.21,-0.52,0.21c-0.21,0,-0.38,-0.07,-0.52,-0.22c-0.14,-0.15,-0.2,-0.35,-0.2,-0.61c0,-0.49,0.25,-0.94,0.75,-1.35c0.5,-0.41,1.2,-0.62,2.11,-0.62c0.7,0,1.27,0.12,1.72,0.36c0.33,0.18,0.58,0.45,0.73,0.83c0.1,0.24,0.16,0.74,0.16,1.5l0,2.66c0,0.75,0.02,1.21,0.05,1.37c0.03,0.17,0.08,0.28,0.14,0.34c0.06,0.06,0.14,0.09,0.22,0.09c0.09,0,0.18,-0.02,0.25,-0.06c0.11,-0.07,0.34,-0.28,0.69,-0.62l0,0.48c-0.64,0.85,-1.24,1.28,-1.83,1.28c-0.28,0,-0.51,-0.1,-0.67,-0.29c-0.17,-0.19,-0.25,-0.52,-0.25,-0.99m0,-0.56l0,-2.98c-0.86,0.34,-1.42,0.59,-1.67,0.73c-0.45,0.25,-0.77,0.51,-0.96,0.78c-0.19,0.27,-0.29,0.57,-0.29,0.91c0,0.41,0.12,0.74,0.37,1.02c0.24,0.27,0.52,0.41,0.84,0.41c0.44,0,1.01,-0.29,1.72,-0.86m5.83,-8.72l0,2.58l1.84,0l0,0.59l-1.84,0l0,5.08c0,0.51,0.07,0.85,0.22,1.03c0.15,0.18,0.33,0.27,0.56,0.27c0.19,0,0.37,-0.06,0.55,-0.18c0.18,-0.12,0.31,-0.29,0.41,-0.52l0.34,0c-0.2,0.56,-0.48,0.98,-0.84,1.27c-0.36,0.28,-0.74,0.42,-1.14,0.42c-0.26,0,-0.52,-0.07,-0.77,-0.22c-0.25,-0.15,-0.43,-0.35,-0.55,-0.62c-0.12,-0.27,-0.18,-0.69,-0.18,-1.25l0,-5.27l-1.23,0l0,-0.28c0.31,-0.12,0.63,-0.34,0.96,-0.63c0.33,-0.3,0.62,-0.65,0.88,-1.07c0.12,-0.21,0.31,-0.6,0.55,-1.19l0.25,0m4.05,5.53c0,1.16,0.28,2.07,0.84,2.73c0.57,0.66,1.24,0.98,2.02,0.98c0.51,0,0.96,-0.14,1.34,-0.42c0.38,-0.28,0.7,-0.77,0.95,-1.45l0.27,0.17c-0.11,0.78,-0.46,1.49,-1.04,2.13c-0.58,0.64,-1.3,0.96,-2.16,0.96c-0.94,0,-1.74,-0.36,-2.41,-1.09c-0.67,-0.73,-1,-1.71,-1,-2.95c0,-1.33,0.34,-2.37,1.02,-3.12c0.68,-0.75,1.54,-1.12,2.59,-1.12c0.87,0,1.59,0.29,2.16,0.87c0.56,0.58,0.84,1.35,0.84,2.32l-5.41,0m0,-0.5l3.62,0c-0.03,-0.5,-0.09,-0.85,-0.17,-1.06c-0.15,-0.31,-0.36,-0.56,-0.64,-0.74c-0.28,-0.18,-0.58,-0.27,-0.89,-0.27c-0.47,0,-0.89,0.18,-1.27,0.55c-0.37,0.36,-0.59,0.87,-0.66,1.53" fill="#000000" stroke="none" fill-opacity="1"/>
</g>
<g stroke-width="1" fill="none">
<path d="m47.98,473.55l-9.22,0l0,-0.7l9.22,0l0,0.7m8.06,-6.12l-0.66,1.45l-3.5,0l-0.75,1.56c1.51,0.22,2.7,0.78,3.58,1.69c0.76,0.77,1.14,1.68,1.14,2.73c0,0.6,-0.12,1.17,-0.37,1.69c-0.24,0.52,-0.56,0.96,-0.94,1.33c-0.38,0.36,-0.8,0.66,-1.26,0.87c-0.66,0.31,-1.33,0.47,-2.02,0.47c-0.7,0,-1.2,-0.12,-1.52,-0.35c-0.31,-0.23,-0.47,-0.5,-0.47,-0.79c0,-0.16,0.07,-0.29,0.2,-0.41c0.13,-0.12,0.29,-0.18,0.49,-0.18c0.15,0,0.27,0.02,0.38,0.06c0.11,0.04,0.3,0.16,0.57,0.34c0.43,0.3,0.86,0.45,1.3,0.45c0.67,0,1.25,-0.25,1.76,-0.76c0.51,-0.51,0.76,-1.12,0.76,-1.84c0,-0.71,-0.22,-1.36,-0.67,-1.97c-0.45,-0.6,-1.07,-1.07,-1.86,-1.41c-0.62,-0.26,-1.47,-0.41,-2.55,-0.44l2.22,-4.52l4.16,0" fill="#000000" stroke="none" fill-opacity="1"/>
<path d="m33.98,380.37l-9.22,0l0,-0.7l9.22,0l0,0.7m8.5,3.23l-0.81,2.23l-6.84,0l0,-0.31c2.01,-1.83,3.43,-3.33,4.25,-4.49c0.82,-1.16,1.23,-2.23,1.23,-3.2c0,-0.73,-0.23,-1.33,-0.68,-1.8c-0.45,-0.47,-0.99,-0.71,-1.62,-0.71c-0.57,0,-1.09,0.17,-1.54,0.5c-0.45,0.33,-0.78,0.82,-0.99,1.47l-0.33,0c0.15,-1.06,0.51,-1.87,1.1,-2.44c0.59,-0.56,1.33,-0.84,2.21,-0.84c0.94,0,1.72,0.3,2.35,0.91c0.63,0.6,0.95,1.32,0.95,2.14c0,0.58,-0.14,1.17,-0.41,1.75c-0.43,0.93,-1.11,1.91,-2.05,2.94c-1.43,1.55,-2.31,2.48,-2.66,2.8l3.02,0c0.61,0,1.05,-0.02,1.3,-0.06c0.25,-0.04,0.47,-0.13,0.67,-0.27c0.2,-0.14,0.37,-0.34,0.52,-0.6l0.33,0m3.16,0.58c0.27,0,0.5,0.09,0.68,0.27c0.18,0.18,0.27,0.41,0.27,0.68c0,0.26,-0.09,0.48,-0.28,0.66c-0.19,0.18,-0.41,0.27,-0.67,0.27c-0.26,0,-0.48,-0.09,-0.67,-0.27c-0.19,-0.18,-0.28,-0.4,-0.28,-0.66c0,-0.27,0.09,-0.5,0.28,-0.68c0.19,-0.18,0.41,-0.27,0.67,-0.27m10.41,-9.94l-0.66,1.45l-3.5,0l-0.75,1.56c1.51,0.22,2.7,0.78,3.58,1.69c0.76,0.77,1.14,1.68,1.14,2.73c0,0.6,-0.12,1.17,-0.37,1.69c-0.24,0.52,-0.56,0.96,-0.94,1.33c-0.38,0.36,-0.8,0.66,-1.26,0.87c-0.66,0.31,-1.33,0.47,-2.02,0.47c-0.7,0,-1.2,-0.12,-1.52,-0.35c-0.31,-0.23,-0.47,-0.5,-0.47,-0.79c0,-0.16,0.07,-0.29,0.2,-0.41c0.13,-0.12,0.29,-0.18,0.49,-0.18c0.15,0,0.27,0.02,0.38,0.06c0.11,0.04,0.3,0.16,0.57,0.34c0.43,0.3,0.86,0.45,1.3,0.45c0.67,0,1.25,-0.25,1.76,-0.76c0.51,-0.51,0.76,-1.12,0.76,-1.84c0,-0.71,-0.22,-1.36,-0.67,-1.97c-0.45,-0.6,-1.07,-1.07,-1.86,-1.41c-0.62,-0.26,-1.47,-0.41,-2.55,-0.44l2.22,-4.52l4.16,0" fill="#000000" stroke="none" fill-opacity="1"/>
<path d="m49.08,286.94c0,-1.32,0.2,-2.46,0.6,-3.41c0.4,-0.95,0.93,-1.66,1.59,-2.13c0.52,-0.37,1.05,-0.56,1.59,-0.56c0.9,0,1.69,0.45,2.39,1.36c0.89,1.12,1.33,2.65,1.33,4.56c0,1.34,-0.19,2.49,-0.58,3.43c-0.39,0.94,-0.88,1.62,-1.48,2.05c-0.6,0.42,-1.18,0.63,-1.73,0.63c-1.1,0,-2.03,-0.65,-2.77,-1.95c-0.62,-1.1,-0.94,-2.43,-0.94,-3.97m1.69,0.2c0,1.59,0.19,2.9,0.58,3.91c0.33,0.85,0.82,1.28,1.45,1.28c0.31,0,0.63,-0.14,0.96,-0.41c0.33,-0.28,0.58,-0.74,0.76,-1.4c0.26,-0.98,0.39,-2.36,0.39,-4.14c0,-1.32,-0.14,-2.43,-0.41,-3.31c-0.21,-0.65,-0.47,-1.11,-0.8,-1.39c-0.24,-0.19,-0.52,-0.28,-0.84,-0.28c-0.4,0,-0.74,0.18,-1.05,0.53c-0.41,0.47,-0.68,1.21,-0.83,2.23c-0.15,1.02,-0.22,2.01,-0.22,2.99" fill="#000000" stroke="none" fill-opacity="1"/>
<path d="m42.48,197.23l-0.81,2.23l-6.84,0l0,-0.31c2.01,-1.83,3.43,-3.33,4.25,-4.49c0.82,-1.16,1.23,-2.23,1.23,-3.2c0,-0.73,-0.23,-1.33,-0.68,-1.8c-0.45,-0.47,-0.99,-0.71,-1.62,-0.71c-0.57,0,-1.09,0.17,-1.54,0.5c-0.45,0.33,-0.78,0.82,-0.99,1.47l-0.33,0c0.15,-1.06,0.51,-1.87,1.1,-2.44c0.59,-0.56,1.33,-0.84,2.21,-0.84c0.94,0,1.72,0.3,2.35,0.91c0.63,0.6,0.95,1.32,0.95,2.14c0,0.58,-0.14,1.17,-0.41,1.75c-0.43,0.93,-1.11,1.91,-2.05,2.94c-1.43,1.55,-2.31,2.48,-2.66,2.8l3.02,0c0.61,0,1.05,-0.02,1.3,-0.06c0.25,-0.04,0.47,-0.13,0.67,-0.27c0.2,-0.14,0.37,-0.34,0.52,-0.6l0.33,0m3.16,0.58c0.27,0,0.5,0.09,0.68,0.27c0.18,0.18,0.27,0.41,0.27,0.68c0,0.26,-0.09,0.48,-0.28,0.66c-0.19,0.18,-0.41,0.27,-0.67,0.27c-0.26,0,-0.48,-0.09,-0.67,-0.27c-0.19,-0.18,-0.28,-0.4,-0.28,-0.66c0,-0.27,0.09,-0.5,0.28,-0.68c0.19,-0.18,0.41,-0.27,0.67,-0.27m10.41,-9.94l-0.66,1.45l-3.5,0l-0.75,1.56c1.51,0.22,2.7,0.78,3.58,1.69c0.76,0.77,1.14,1.68,1.14,2.73c0,0.6,-0.12,1.17,-0.37,1.69c-0.24,0.52,-0.56,0.96,-0.94,1.33c-0.38,0.36,-0.8,0.66,-1.26,0.87c-0.66,0.31,-1.33,0.47,-2.02,0.47c-0.7,0,-1.2,-0.12,-1.52,-0.35c-0.31,-0.23,-0.47,-0.5,-0.47,-0.79c0,-0.16,0.07,-0.29,0.2,-0.41c0.13,-0.12,0.29,-0.18,0.49,-0.18c0.15,0,0.27,0.02,0.38,0.06c0.11,0.04,0.3,0.16,0.57,0.34c0.43,0.3,0.86,0.45,1.3,0.45c0.67,0,1.25,-0.25,1.76,-0.76c0.51,-0.51,0.76,-1.12,0.76,-1.84c0,-0.71,-0.22,-1.36,-0.67,-1.97c-0.45,-0.6,-1.07,-1.07,-1.86,-1.41c-0.62,-0.26,-1.47,-0.41,-2.55,-0.44l2.22,-4.52l4.16,0" fill="#000000" stroke="none" fill-opacity="1"/>
<path d="m56.05,94.69l-0.66,1.45l-3.5,0l-0.75,1.56c1.51,0.22,2.7,0.78,3.58,1.69c0.76,0.77,1.14,1.68,1.14,2.73c0,0.6,-0.12,1.17,-0.37,1.69c-0.24,0.52,-0.56,0.96,-0.94,1.33c-0.38,0.36,-0.8,0.66,-1.26,0.87c-0.66,0.31,-1.33,0.47,-2.02,0.47c-0.7,0,-1.2,-0.12,-1.52,-0.35c-0.31,-0.23,-0.47,-0.5,-0.47,-0.79c0,-0.16,0.07,-0.29,0.2,-0.41c0.13,-0.12,0.29,-0.18,0.49,-0.18c0.15,0,0.27,0.02,0.38,0.06c0.11,0.04,0.3,0.16,0.57,0.34c0.43,0.3,0.86,0.45,1.3,0.45c0.67,0,1.25,-0.25,1.76,-0.76c0.51,-0.51,0.76,-1.12,0.76,-1.84c0,-0.71,-0.22,-1.36,-0.67,-1.97c-0.45,-0.6,-1.07,-1.07,-1.86,-1.41c-0.62,-0.26,-1.47,-0.41,-2.55,-0.44l2.22,-4.52l4.16,0" fill="#000000" stroke="none" fill-opacity="1"/>
<path d="m36.22,4.41l6.2,0l0,0.33l-3.86,11.5l-0.95,0l3.45,-10.42l-3.19,0c-0.64,0,-1.09,0.07,-1.37,0.22c-0.48,0.26,-0.86,0.67,-1.16,1.22l-0.23,-0.09l1.11,-2.75m9.42,9.94c0.27,0,0.5,0.09,0.68,0.27c0.18,0.18,0.27,0.41,0.27,0.68c0,0.26,-0.09,0.48,-0.28,0.66c-0.19,0.18,-0.41,0.27,-0.67,0.27c-0.26,0,-0.48,-0.09,-0.67,-0.27c-0.19,-0.18,-0.28,-0.4,-0.28,-0.66c0,-0.27,0.09,-0.5,0.28,-0.68c0.19,-0.18,0.41,-0.27,0.67,-0.27m10.41,-9.94l-0.66,1.45l-3.5,0l-0.75,1.56c1.51,0.22,2.7,0.78,3.58,1.69c0.76,0.77,1.14,1.68,1.14,2.73c0,0.6,-0.12,1.17,-0.37,1.69c-0.24,0.52,-0.56,0.96,-0.94,1.33c-0.38,0.36,-0.8,0.66,-1.26,0.87c-0.66,0.31,-1.33,0.47,-2.02,0.47c-0.7,0,-1.2,-0.12,-1.52,-0.35c-0.31,-0.23,-0.47,-0.5,-0.47,-0.79c0,-0.16,0.07,-0.29,0.2,-0.41c0.13,-0.12,0.29,-0.18,0.49,-0.18c0.15,0,0.27,0.02,0.38,0.06c0.11,0.04,0.3,0.16,0.57,0.34c0.43,0.3,0.86,0.45,1.3,0.45c0.67,0,1.25,-0.25,1.76,-0.76c0.51,-0.51,0.76,-1.12,0.76,-1.84c0,-0.71,-0.22,-1.36,-0.67,-1.97c-0.45,-0.6,-1.07,-1.07,-1.86,-1.41c-0.62,-0.26,-1.47,-0.41,-2.55,-0.44l2.22,-4.52l4.16,0" fill="#000000" stroke="none" fill-opacity="1"/>
</g>
<g stroke-width="0.62" stroke-linecap="butt" fill="none">
<path d="M60.46,473.03l465.91,0"/>
<path d="M60.46,473.03l0,-3.75M83.76,473.03l0,-3.75M107.05,473.03l0,-3.75M130.35,473.03l0,-3.75M153.64,473.03l0,-3.75M176.94,473.03l0,-3.75M200.24,473.03l0,-3.75M223.53,473.03l0,-3.75M246.83,473.03l0,-3.75M270.12,473.03l0,-3.75M293.42,473.03l0,-3.75M316.71,473.03l0,-3.75M340.01,473.03l0,-3.75M363.31,473.03l0,-3.75M386.6,473.03l0,-3.75M409.9,473.03l0,-3.75M433.19,473.03l0,-3.75M456.49,473.03l0,-3.75M479.78,473.03l0,-3.75M503.08,473.03l0,-3.75M526.38,473.03l0,-3.75"/>
<path d="M60.46,473.03l0,-7.5M176.94,473.03l0,-7.5M293.42,473.03l0,-7.5M409.9,473.03l0,-7.5M526.38,473.03l0,-7.5"/>
<path d="M60.46,7.11l465.91,0"/>
<path d="M60.46,7.11l0,3.75M83.76,7.11l0,3.75M107.05,7.11l0,3.75M130.35,7.11l0,3.75M153.64,7.11l0,3.75M176.94,7.11l0,3.75M200.24,7.11l0,3.75M223.53,7.11l0,3.75M246.83,7.11l0,3.75M270.12,7.11l0,3.75M293.42,7.11l0,3.75M316.71,7.11l0,3.75M340.01,7.11l0,3.75M363.31,7.11l0,3.75M386.6,7.11l0,3.75M409.9,7.11l0,3.75M433.19,7.11l0,3.75M456.49,7.11l0,3.75M479.78,7.11l0,3.75M503.08,7.11l0,3.75M526.38,7.11l0,3.75"/>
<path d="M60.46,7.11l0,7.5M176.94,7.11l0,7.5M293.42,7.11l0,7.5M409.9,7.11l0,7.5M526.38,7.11l0,7.5"/>
</g>
<g stroke-width="1" fill="none">
<path d="m250.78,502.42l0,0.33c-0.3,0,-0.55,0.05,-0.73,0.16c-0.19,0.1,-0.36,0.31,-0.53,0.61c-0.11,0.2,-0.3,0.67,-0.55,1.42l-3.22,9.34l-0.34,0l-2.64,-7.41l-2.62,7.41l-0.31,0l-3.44,-9.62c-0.26,-0.72,-0.42,-1.14,-0.48,-1.27c-0.11,-0.22,-0.27,-0.38,-0.47,-0.48c-0.2,-0.1,-0.46,-0.16,-0.8,-0.16l0,-0.33l4.28,0l0,0.33l-0.2,0c-0.3,0,-0.53,0.07,-0.69,0.2c-0.16,0.14,-0.23,0.3,-0.23,0.5c0,0.2,0.12,0.66,0.37,1.37l2.28,6.5l1.92,-5.53l-0.34,-0.97l-0.28,-0.78c-0.11,-0.29,-0.24,-0.54,-0.39,-0.75c-0.07,-0.11,-0.17,-0.21,-0.28,-0.28c-0.15,-0.1,-0.29,-0.18,-0.42,-0.22c-0.11,-0.03,-0.29,-0.05,-0.52,-0.05l0,-0.33l4.52,0l0,0.33l-0.31,0c-0.32,0,-0.56,0.07,-0.7,0.2c-0.15,0.14,-0.22,0.32,-0.22,0.55c0,0.29,0.13,0.8,0.39,1.53l2.22,6.3l2.2,-6.39c0.25,-0.71,0.37,-1.2,0.37,-1.47c0,-0.12,-0.04,-0.24,-0.12,-0.36c-0.08,-0.11,-0.19,-0.2,-0.31,-0.25c-0.22,-0.07,-0.5,-0.11,-0.84,-0.11l0,-0.33l3.45,0m2.16,-0.56c0.24,0,0.45,0.09,0.62,0.26c0.17,0.17,0.26,0.38,0.26,0.62c0,0.24,-0.09,0.44,-0.26,0.61c-0.17,0.17,-0.38,0.25,-0.62,0.25c-0.24,0,-0.44,-0.08,-0.61,-0.25c-0.17,-0.17,-0.25,-0.37,-0.25,-0.61c0,-0.24,0.08,-0.45,0.25,-0.62c0.17,-0.17,0.37,-0.26,0.61,-0.26m0.72,4.09l0,6.3c0,0.49,0.03,0.82,0.1,0.98c0.07,0.16,0.17,0.28,0.31,0.36c0.14,0.08,0.4,0.12,0.77,0.12l0,0.31l-3.81,0l0,-0.31c0.39,0,0.64,-0.04,0.77,-0.11c0.13,-0.07,0.23,-0.2,0.31,-0.37c0.08,-0.17,0.12,-0.5,0.12,-0.98l0,-3.02c0,-0.85,-0.03,-1.41,-0.08,-1.66c-0.04,-0.18,-0.1,-0.3,-0.19,-0.37c-0.08,-0.07,-0.2,-0.11,-0.34,-0.11c-0.17,0,-0.36,0.04,-0.59,0.12l-0.11,-0.3l2.36,-0.97l0.37,0m3.58,1.66c0.92,-1.1,1.79,-1.66,2.62,-1.66c0.43,0,0.79,0.11,1.1,0.32c0.31,0.21,0.55,0.57,0.73,1.05c0.14,0.34,0.2,0.87,0.2,1.58l0,3.34c0,0.49,0.04,0.82,0.11,1c0.06,0.15,0.16,0.26,0.3,0.34c0.14,0.08,0.4,0.12,0.77,0.12l0,0.31l-3.87,0l0,-0.31l0.17,0c0.36,0,0.62,-0.05,0.77,-0.16c0.15,-0.11,0.24,-0.27,0.3,-0.49c0.02,-0.08,0.03,-0.35,0.03,-0.8l0,-3.2c0,-0.72,-0.09,-1.24,-0.27,-1.55c-0.18,-0.32,-0.49,-0.48,-0.93,-0.48c-0.68,0,-1.35,0.37,-2.03,1.11l0,4.12c0,0.53,0.03,0.86,0.09,0.98c0.08,0.17,0.19,0.29,0.33,0.36c0.14,0.07,0.42,0.11,0.86,0.11l0,0.31l-3.87,0l0,-0.31l0.17,0c0.4,0,0.66,-0.1,0.8,-0.3c0.14,-0.2,0.21,-0.59,0.21,-1.15l0,-2.91c0,-0.94,-0.02,-1.51,-0.06,-1.72c-0.04,-0.21,-0.11,-0.35,-0.2,-0.42c-0.09,-0.07,-0.21,-0.11,-0.37,-0.11c-0.16,0,-0.34,0.04,-0.56,0.12l-0.12,-0.3l2.36,-0.97l0.36,0l0,1.66m8.81,3.55c-0.48,-0.23,-0.85,-0.55,-1.1,-0.97c-0.26,-0.42,-0.38,-0.88,-0.38,-1.39c0,-0.78,0.29,-1.45,0.87,-2.01c0.58,-0.56,1.33,-0.84,2.23,-0.84c0.75,0,1.4,0.18,1.95,0.55l1.66,0c0.24,0,0.38,0.01,0.42,0.02c0.04,0.02,0.07,0.04,0.08,0.07c0.04,0.05,0.06,0.15,0.06,0.28c0,0.15,-0.02,0.24,-0.05,0.3c-0.02,0.03,-0.05,0.06,-0.09,0.08c-0.04,0.02,-0.18,0.03,-0.42,0.03l-1.02,0c0.31,0.41,0.47,0.93,0.47,1.56c0,0.73,-0.28,1.35,-0.84,1.87c-0.56,0.52,-1.3,0.78,-2.24,0.78c-0.39,0,-0.78,-0.06,-1.19,-0.17c-0.25,0.22,-0.42,0.41,-0.51,0.57c-0.09,0.16,-0.13,0.3,-0.13,0.41c0,0.09,0.05,0.18,0.14,0.27c0.09,0.09,0.28,0.15,0.55,0.2c0.16,0.02,0.56,0.04,1.2,0.06c1.17,0.03,1.93,0.07,2.28,0.12c0.53,0.07,0.95,0.27,1.27,0.59c0.31,0.32,0.47,0.71,0.47,1.18c0,0.65,-0.3,1.25,-0.91,1.81c-0.89,0.83,-2.04,1.25,-3.47,1.25c-1.1,0,-2.04,-0.25,-2.8,-0.75c-0.43,-0.28,-0.64,-0.58,-0.64,-0.89c0,-0.14,0.03,-0.27,0.09,-0.41c0.1,-0.21,0.31,-0.5,0.61,-0.87c0.03,-0.05,0.32,-0.36,0.86,-0.92c-0.29,-0.18,-0.5,-0.34,-0.62,-0.48c-0.12,-0.14,-0.19,-0.3,-0.19,-0.48c0,-0.2,0.08,-0.43,0.25,-0.7c0.17,-0.27,0.54,-0.65,1.12,-1.14m1.48,-4.78c-0.42,0,-0.77,0.17,-1.05,0.5c-0.29,0.33,-0.43,0.85,-0.43,1.55c0,0.9,0.19,1.59,0.58,2.09c0.3,0.37,0.68,0.56,1.12,0.56c0.44,0,0.8,-0.16,1.08,-0.48c0.28,-0.32,0.42,-0.83,0.42,-1.53c0,-0.91,-0.2,-1.61,-0.59,-2.12c-0.29,-0.37,-0.67,-0.56,-1.12,-0.56m-1.56,7.64c-0.27,0.29,-0.47,0.56,-0.61,0.81c-0.14,0.25,-0.2,0.48,-0.2,0.69c0,0.28,0.16,0.52,0.48,0.72c0.57,0.35,1.4,0.53,2.47,0.53c1.03,0,1.79,-0.18,2.27,-0.54c0.48,-0.36,0.73,-0.75,0.73,-1.16c0,-0.29,-0.15,-0.5,-0.44,-0.62c-0.29,-0.12,-0.87,-0.2,-1.75,-0.22c-1.28,-0.04,-2.27,-0.11,-2.95,-0.2m7.3,-4.87c0,1.16,0.28,2.07,0.84,2.73c0.57,0.66,1.24,0.98,2.02,0.98c0.51,0,0.96,-0.14,1.34,-0.42c0.38,-0.28,0.7,-0.77,0.95,-1.45l0.27,0.17c-0.11,0.78,-0.46,1.49,-1.04,2.13c-0.58,0.64,-1.3,0.96,-2.16,0.96c-0.94,0,-1.74,-0.36,-2.41,-1.09c-0.67,-0.73,-1,-1.71,-1,-2.95c0,-1.33,0.34,-2.37,1.02,-3.12c0.68,-0.75,1.54,-1.12,2.59,-1.12c0.87,0,1.59,0.29,2.16,0.87c0.56,0.58,0.84,1.35,0.84,2.32l-5.41,0m0,-0.5l3.62,0c-0.03,-0.5,-0.09,-0.85,-0.17,-1.06c-0.15,-0.31,-0.36,-0.56,-0.64,-0.74c-0.28,-0.18,-0.58,-0.27,-0.89,-0.27c-0.47,0,-0.89,0.18,-1.27,0.55c-0.37,0.36,-0.59,0.87,-0.66,1.53m12.22,4.5c-0.39,0.4,-0.76,0.68,-1.12,0.85c-0.36,0.17,-0.76,0.26,-1.17,0.26c-0.85,0,-1.6,-0.36,-2.24,-1.07c-0.64,-0.71,-0.96,-1.63,-0.96,-2.76c0,-1.11,0.35,-2.14,1.06,-3.07c0.71,-0.93,1.61,-1.4,2.72,-1.4c0.7,0,1.27,0.22,1.72,0.66l0,-1.45c0,-0.89,-0.02,-1.43,-0.06,-1.64c-0.04,-0.21,-0.11,-0.35,-0.2,-0.42c-0.09,-0.07,-0.21,-0.11,-0.34,-0.11c-0.15,0,-0.34,0.05,-0.59,0.14l-0.11,-0.3l2.33,-0.97l0.39,0l0,9.05c0,0.93,0.02,1.49,0.06,1.69c0.04,0.2,0.11,0.34,0.2,0.42c0.09,0.08,0.2,0.12,0.33,0.12c0.16,0,0.36,-0.05,0.62,-0.16l0.09,0.31l-2.33,0.95l-0.39,0l0,-1.11m0,-0.61l0,-4.03c-0.03,-0.39,-0.13,-0.74,-0.3,-1.05c-0.17,-0.32,-0.4,-0.56,-0.68,-0.72c-0.28,-0.16,-0.56,-0.24,-0.83,-0.24c-0.5,0,-0.95,0.22,-1.34,0.67c-0.52,0.59,-0.78,1.46,-0.78,2.59c0,1.16,0.25,2.04,0.76,2.65c0.51,0.61,1.07,0.91,1.68,0.91c0.51,0,1.01,-0.26,1.5,-0.78m8.03,-6.34l3.28,0l0,0.31c-0.3,0.02,-0.5,0.08,-0.59,0.16c-0.09,0.09,-0.14,0.21,-0.14,0.37c0,0.18,0.05,0.39,0.14,0.64l1.69,4.5l1.67,-3.66l-0.44,-1.16c-0.14,-0.34,-0.32,-0.58,-0.55,-0.7c-0.12,-0.08,-0.35,-0.14,-0.69,-0.16l0,-0.31l3.72,0l0,0.31c-0.41,0.02,-0.7,0.1,-0.87,0.23c-0.11,0.08,-0.17,0.22,-0.17,0.42c0,0.11,0.03,0.23,0.08,0.36l1.77,4.48l1.66,-4.33c0.11,-0.3,0.17,-0.55,0.17,-0.73c0,-0.1,-0.05,-0.2,-0.16,-0.29c-0.11,-0.09,-0.33,-0.14,-0.66,-0.15l0,-0.31l2.47,0l0,0.31c-0.49,0.07,-0.85,0.41,-1.09,1.02l-2.61,6.73l-0.34,0l-1.97,-5l-2.28,5l-0.31,0l-2.52,-6.58c-0.16,-0.42,-0.32,-0.7,-0.48,-0.84c-0.16,-0.15,-0.41,-0.26,-0.76,-0.33l0,-0.31m17.87,6.7c-0.8,0.61,-1.31,0.97,-1.52,1.08c-0.3,0.14,-0.63,0.2,-0.98,0.2c-0.54,0,-0.99,-0.18,-1.34,-0.55c-0.35,-0.37,-0.52,-0.86,-0.52,-1.46c0,-0.37,0.08,-0.7,0.25,-0.98c0.24,-0.39,0.65,-0.75,1.23,-1.09c0.58,-0.34,1.54,-0.76,2.88,-1.25l0,-0.31c0,-0.78,-0.12,-1.32,-0.37,-1.6c-0.25,-0.29,-0.61,-0.43,-1.08,-0.43c-0.36,0,-0.65,0.09,-0.86,0.28c-0.22,0.2,-0.33,0.42,-0.33,0.67l0.02,0.5c0,0.26,-0.07,0.46,-0.2,0.6c-0.13,0.14,-0.3,0.21,-0.52,0.21c-0.21,0,-0.38,-0.07,-0.52,-0.22c-0.14,-0.15,-0.2,-0.35,-0.2,-0.61c0,-0.49,0.25,-0.94,0.75,-1.35c0.5,-0.41,1.2,-0.62,2.11,-0.62c0.7,0,1.27,0.12,1.72,0.36c0.33,0.18,0.58,0.45,0.73,0.83c0.1,0.24,0.16,0.74,0.16,1.5l0,2.66c0,0.75,0.02,1.21,0.05,1.37c0.03,0.17,0.08,0.28,0.14,0.34c0.06,0.06,0.14,0.09,0.22,0.09c0.09,0,0.18,-0.02,0.25,-0.06c0.11,-0.07,0.34,-0.28,0.69,-0.62l0,0.48c-0.64,0.85,-1.24,1.28,-1.83,1.28c-0.28,0,-0.51,-0.1,-0.67,-0.29c-0.17,-0.19,-0.25,-0.52,-0.25,-0.99m0,-0.56l0,-2.98c-0.86,0.34,-1.42,0.59,-1.67,0.73c-0.45,0.25,-0.77,0.51,-0.96,0.78c-0.19,0.27,-0.29,0.57,-0.29,0.91c0,0.41,0.12,0.74,0.37,1.02c0.24,0.27,0.52,0.41,0.84,0.41c0.44,0,1.01,-0.29,1.72,-0.86m5.86,-6.37l0,1.77c0.65,-1.18,1.32,-1.77,2.02,-1.77c0.31,0,0.57,0.1,0.77,0.29c0.2,0.19,0.3,0.41,0.3,0.66c0,0.22,-0.07,0.41,-0.22,0.56c-0.15,0.16,-0.32,0.23,-0.53,0.23c-0.2,0,-0.42,-0.1,-0.67,-0.3c-0.25,-0.2,-0.43,-0.3,-0.55,-0.3c-0.1,0,-0.22,0.06,-0.34,0.17c-0.25,0.23,-0.51,0.61,-0.78,1.16l0,3.75c0,0.44,0.05,0.77,0.16,0.98c0.07,0.16,0.2,0.28,0.39,0.38c0.19,0.1,0.46,0.15,0.81,0.15l0,0.31l-4,0l0,-0.31c0.4,0,0.69,-0.06,0.87,-0.19c0.15,-0.08,0.25,-0.23,0.31,-0.44c0.02,-0.09,0.03,-0.37,0.03,-0.83l0,-3.03c0,-0.91,-0.02,-1.45,-0.05,-1.62c-0.04,-0.18,-0.1,-0.3,-0.2,-0.38c-0.1,-0.08,-0.22,-0.12,-0.37,-0.12c-0.18,0,-0.37,0.04,-0.59,0.12l-0.09,-0.3l2.37,-0.97l0.36,0m6,0l0,1.77c0.65,-1.18,1.32,-1.77,2.02,-1.77c0.31,0,0.57,0.1,0.77,0.29c0.2,0.19,0.3,0.41,0.3,0.66c0,0.22,-0.07,0.41,-0.22,0.56c-0.15,0.16,-0.32,0.23,-0.53,0.23c-0.2,0,-0.42,-0.1,-0.67,-0.3c-0.25,-0.2,-0.43,-0.3,-0.55,-0.3c-0.1,0,-0.22,0.06,-0.34,0.17c-0.25,0.23,-0.51,0.61,-0.78,1.16l0,3.75c0,0.44,0.05,0.77,0.16,0.98c0.07,0.16,0.2,0.28,0.39,0.38c0.19,0.1,0.46,0.15,0.81,0.15l0,0.31l-4,0l0,-0.31c0.4,0,0.69,-0.06,0.87,-0.19c0.15,-0.08,0.25,-0.23,0.31,-0.44c0.02,-0.09,0.03,-0.37,0.03,-0.83l0,-3.03c0,-0.91,-0.02,-1.45,-0.05,-1.62c-0.04,-0.18,-0.1,-0.3,-0.2,-0.38c-0.1,-0.08,-0.22,-0.12,-0.37,-0.12c-0.18,0,-0.37,0.04,-0.59,0.12l-0.09,-0.3l2.37,-0.97l0.36,0m5.69,-4.09c0.24,0,0.45,0.09,0.62,0.26c0.17,0.17,0.26,0.38,0.26,0.62c0,0.24,-0.09,0.44,-0.26,0.61c-0.17,0.17,-0.38,0.25,-0.62,0.25c-0.24,0,-0.44,-0.08,-0.61,-0.25c-0.17,-0.17,-0.25,-0.37,-0.25,-0.61c0,-0.24,0.08,-0.45,0.25,-0.62c0.17,-0.17,0.37,-0.26,0.61,-0.26m0.72,4.09l0,6.3c0,0.49,0.03,0.82,0.1,0.98c0.07,0.16,0.17,0.28,0.31,0.36c0.14,0.08,0.4,0.12,0.77,0.12l0,0.31l-3.81,0l0,-0.31c0.39,0,0.64,-0.04,0.77,-0.11c0.13,-0.07,0.23,-0.2,0.31,-0.37c0.08,-0.17,0.12,-0.5,0.12,-0.98l0,-3.02c0,-0.85,-0.03,-1.41,-0.08,-1.66c-0.04,-0.18,-0.1,-0.3,-0.19,-0.37c-0.08,-0.07,-0.2,-0.11,-0.34,-0.11c-0.17,0,-0.36,0.04,-0.59,0.12l-0.11,-0.3l2.36,-0.97l0.37,0m5.12,0c1.19,0,2.14,0.45,2.86,1.36c0.6,0.77,0.91,1.65,0.91,2.64c0,0.7,-0.17,1.41,-0.5,2.12c-0.33,0.72,-0.8,1.26,-1.39,1.62c-0.59,0.36,-1.25,0.55,-1.97,0.55c-1.18,0,-2.11,-0.47,-2.81,-1.41c-0.58,-0.79,-0.87,-1.68,-0.87,-2.67c0,-0.71,0.18,-1.42,0.53,-2.13c0.35,-0.71,0.82,-1.24,1.41,-1.58c0.58,-0.34,1.2,-0.51,1.84,-0.51m-0.27,0.56c-0.3,0,-0.6,0.09,-0.91,0.27c-0.3,0.18,-0.55,0.49,-0.74,0.95c-0.19,0.45,-0.29,1.03,-0.29,1.74c0,1.14,0.23,2.11,0.68,2.94c0.45,0.82,1.05,1.23,1.8,1.23c0.55,0,1.01,-0.23,1.36,-0.68c0.35,-0.45,0.53,-1.24,0.53,-2.35c0,-1.39,-0.3,-2.48,-0.89,-3.28c-0.41,-0.54,-0.92,-0.81,-1.55,-0.81m7.73,-0.56l0,1.77c0.65,-1.18,1.32,-1.77,2.02,-1.77c0.31,0,0.57,0.1,0.77,0.29c0.2,0.19,0.3,0.41,0.3,0.66c0,0.22,-0.07,0.41,-0.22,0.56c-0.15,0.16,-0.32,0.23,-0.53,0.23c-0.2,0,-0.42,-0.1,-0.67,-0.3c-0.25,-0.2,-0.43,-0.3,-0.55,-0.3c-0.1,0,-0.22,0.06,-0.34,0.17c-0.25,0.23,-0.51,0.61,-0.78,1.16l0,3.75c0,0.44,0.05,0.77,0.16,0.98c0.07,0.16,0.2,0.28,0.39,0.38c0.19,0.1,0.46,0.15,0.81,0.15l0,0.31l-4,0l0,-0.31c0.4,0,0.69,-0.06,0.87,-0.19c0.15,-0.08,0.25,-0.23,0.31,-0.44c0.02,-0.09,0.03,-0.37,0.03,-0.83l0,-3.03c0,-0.91,-0.02,-1.45,-0.05,-1.62c-0.04,-0.18,-0.1,-0.3,-0.2,-0.38c-0.1,-0.08,-0.22,-0.12,-0.37,-0.12c-0.18,0,-0.37,0.04,-0.59,0.12l-0.09,-0.3l2.37,-0.97l0.36,0m8.77,0l0,2.67l-0.28,0c-0.22,-0.83,-0.5,-1.4,-0.84,-1.7c-0.34,-0.3,-0.77,-0.45,-1.29,-0.45c-0.41,0,-0.73,0.1,-0.98,0.31c-0.24,0.21,-0.37,0.44,-0.37,0.7c0,0.31,0.09,0.58,0.28,0.81c0.18,0.24,0.54,0.49,1.08,0.75l1.23,0.61c1.16,0.56,1.73,1.3,1.73,2.22c0,0.72,-0.27,1.29,-0.8,1.73c-0.54,0.43,-1.14,0.65,-1.8,0.65c-0.48,0,-1.03,-0.08,-1.64,-0.25c-0.19,-0.06,-0.34,-0.09,-0.45,-0.09c-0.14,0,-0.24,0.08,-0.31,0.23l-0.28,0l0,-2.8l0.28,0c0.16,0.79,0.46,1.39,0.91,1.8c0.45,0.41,0.96,0.61,1.51,0.61c0.4,0,0.72,-0.11,0.97,-0.34c0.25,-0.23,0.37,-0.51,0.37,-0.83c0,-0.4,-0.14,-0.73,-0.41,-1c-0.28,-0.27,-0.83,-0.61,-1.66,-1.02c-0.83,-0.41,-1.37,-0.78,-1.63,-1.11c-0.25,-0.32,-0.37,-0.73,-0.37,-1.23c0,-0.65,0.22,-1.18,0.66,-1.62c0.44,-0.43,1.01,-0.65,1.72,-0.65c0.3,0,0.67,0.07,1.11,0.2c0.29,0.08,0.49,0.12,0.59,0.12c0.08,0,0.15,-0.02,0.2,-0.06c0.05,-0.04,0.11,-0.13,0.19,-0.27l0.28,0" fill="#000000" stroke="none" fill-opacity="1"/>
<path d="m56.58,486.3c0,-1.32,0.2,-2.46,0.6,-3.41c0.4,-0.95,0.93,-1.66,1.59,-2.13c0.52,-0.37,1.05,-0.56,1.59,-0.56c0.9,0,1.69,0.45,2.39,1.36c0.89,1.12,1.33,2.65,1.33,4.56c0,1.34,-0.19,2.49,-0.58,3.43c-0.39,0.94,-0.88,1.62,-1.48,2.05c-0.6,0.42,-1.18,0.63,-1.73,0.63c-1.1,0,-2.03,-0.65,-2.77,-1.95c-0.62,-1.1,-0.94,-2.43,-0.94,-3.97m1.69,0.2c0,1.59,0.19,2.9,0.58,3.91c0.33,0.85,0.82,1.28,1.45,1.28c0.31,0,0.63,-0.14,0.96,-0.41c0.33,-0.28,0.58,-0.74,0.76,-1.4c0.26,-0.98,0.39,-2.36,0.39,-4.14c0,-1.32,-0.14,-2.43,-0.41,-3.31c-0.21,-0.65,-0.47,-1.11,-0.8,-1.39c-0.24,-0.19,-0.52,-0.28,-0.84,-0.28c-0.4,0,-0.74,0.18,-1.05,0.53c-0.41,0.47,-0.68,1.21,-0.83,2.23c-0.15,1.02,-0.22,2.01,-0.22,2.99" fill="#000000" stroke="none" fill-opacity="1"/>
<path d="m180.03,480.42l-0.66,1.45l-3.5,0l-0.75,1.56c1.51,0.22,2.7,0.78,3.58,1.69c0.76,0.77,1.14,1.68,1.14,2.73c0,0.6,-0.12,1.17,-0.37,1.69c-0.24,0.52,-0.56,0.96,-0.94,1.33c-0.38,0.36,-0.8,0.66,-1.26,0.87c-0.66,0.31,-1.33,0.47,-2.02,0.47c-0.7,0,-1.2,-0.12,-1.52,-0.35c-0.31,-0.23,-0.47,-0.5,-0.47,-0.79c0,-0.16,0.07,-0.29,0.2,-0.41c0.13,-0.12,0.29,-0.18,0.49,-0.18c0.15,0,0.27,0.02,0.38,0.06c0.11,0.04,0.3,0.16,0.57,0.34c0.43,0.3,0.86,0.45,1.3,0.45c0.67,0,1.25,-0.25,1.76,-0.76c0.51,-0.51,0.76,-1.12,0.76,-1.84c0,-0.71,-0.22,-1.36,-0.67,-1.97c-0.45,-0.6,-1.07,-1.07,-1.86,-1.41c-0.62,-0.26,-1.47,-0.41,-2.55,-0.44l2.22,-4.52l4.16,0" fill="#000000" stroke="none" fill-opacity="1"/>
<path d="m286.45,481.56l2.83,-1.37l0.28,0l0,9.78c0,0.66,0.03,1.06,0.08,1.22c0.05,0.16,0.16,0.28,0.34,0.37c0.17,0.09,0.52,0.14,1.04,0.15l0,0.31l-4.36,0l0,-0.31c0.55,-0.01,0.91,-0.06,1.07,-0.14c0.16,-0.08,0.27,-0.2,0.34,-0.34c0.06,-0.14,0.09,-0.56,0.09,-1.26l0,-6.25c0,-0.84,-0.03,-1.39,-0.09,-1.62c-0.04,-0.18,-0.11,-0.31,-0.22,-0.4c-0.1,-0.09,-0.23,-0.13,-0.37,-0.13c-0.21,0,-0.51,0.09,-0.89,0.27l-0.12,-0.27m7.58,4.73c0,-1.32,0.2,-2.46,0.6,-3.41c0.4,-0.95,0.93,-1.66,1.59,-2.13c0.52,-0.37,1.05,-0.56,1.59,-0.56c0.9,0,1.69,0.45,2.39,1.36c0.89,1.12,1.33,2.65,1.33,4.56c0,1.34,-0.19,2.49,-0.58,3.43c-0.39,0.94,-0.88,1.62,-1.48,2.05c-0.6,0.42,-1.18,0.63,-1.73,0.63c-1.1,0,-2.03,-0.65,-2.77,-1.95c-0.62,-1.1,-0.94,-2.43,-0.94,-3.97m1.69,0.2c0,1.59,0.19,2.9,0.58,3.91c0.33,0.85,0.82,1.28,1.45,1.28c0.31,0,0.63,-0.14,0.96,-0.41c0.33,-0.28,0.58,-0.74,0.76,-1.4c0.26,-0.98,0.39,-2.36,0.39,-4.14c0,-1.32,-0.14,-2.43,-0.41,-3.31c-0.21,-0.65,-0.47,-1.11,-0.8,-1.39c-0.24,-0.19,-0.52,-0.28,-0.84,-0.28c-0.4,0,-0.74,0.18,-1.05,0.53c-0.41,0.47,-0.68,1.21,-0.83,2.23c-0.15,1.02,-0.22,2.01,-0.22,2.99" fill="#000000" stroke="none" fill-opacity="1"/>
<path d="m402.94,481.56l2.83,-1.37l0.28,0l0,9.78c0,0.66,0.03,1.06,0.08,1.22c0.05,0.16,0.16,0.28,0.34,0.37c0.17,0.09,0.52,0.14,1.04,0.15l0,0.31l-4.36,0l0,-0.31c0.55,-0.01,0.91,-0.06,1.07,-0.14c0.16,-0.08,0.27,-0.2,0.34,-0.34c0.06,-0.14,0.09,-0.56,0.09,-1.26l0,-6.25c0,-0.84,-0.03,-1.39,-0.09,-1.62c-0.04,-0.18,-0.11,-0.31,-0.22,-0.4c-0.1,-0.09,-0.23,-0.13,-0.37,-0.13c-0.21,0,-0.51,0.09,-0.89,0.27l-0.12,-0.27m14.55,-1.14l-0.66,1.45l-3.5,0l-0.75,1.56c1.51,0.22,2.7,0.78,3.58,1.69c0.76,0.77,1.14,1.68,1.14,2.73c0,0.6,-0.12,1.17,-0.37,1.69c-0.24,0.52,-0.56,0.96,-0.94,1.33c-0.38,0.36,-0.8,0.66,-1.26,0.87c-0.66,0.31,-1.33,0.47,-2.02,0.47c-0.7,0,-1.2,-0.12,-1.52,-0.35c-0.31,-0.23,-0.47,-0.5,-0.47,-0.79c0,-0.16,0.07,-0.29,0.2,-0.41c0.13,-0.12,0.29,-0.18,0.49,-0.18c0.15,0,0.27,0.02,0.38,0.06c0.11,0.04,0.3,0.16,0.57,0.34c0.43,0.3,0.86,0.45,1.3,0.45c0.67,0,1.25,-0.25,1.76,-0.76c0.51,-0.51,0.76,-1.12,0.76,-1.84c0,-0.71,-0.22,-1.36,-0.67,-1.97c-0.45,-0.6,-1.07,-1.07,-1.86,-1.41c-0.62,-0.26,-1.47,-0.41,-2.55,-0.44l2.22,-4.52l4.16,0" fill="#000000" stroke="none" fill-opacity="1"/>
<path d="m523.52,489.78l-0.81,2.23l-6.84,0l0,-0.31c2.01,-1.83,3.43,-3.33,4.25,-4.49c0.82,-1.16,1.23,-2.23,1.23,-3.2c0,-0.73,-0.23,-1.33,-0.68,-1.8c-0.45,-0.47,-0.99,-0.71,-1.62,-0.71c-0.57,0,-1.09,0.17,-1.54,0.5c-0.45,0.33,-0.78,0.82,-0.99,1.47l-0.33,0c0.15,-1.06,0.51,-1.87,1.1,-2.44c0.59,-0.56,1.33,-0.84,2.21,-0.84c0.94,0,1.72,0.3,2.35,0.91c0.63,0.6,0.95,1.32,0.95,2.14c0,0.58,-0.14,1.17,-0.41,1.75c-0.43,0.93,-1.11,1.91,-2.05,2.94c-1.43,1.55,-2.31,2.48,-2.66,2.8l3.02,0c0.61,0,1.05,-0.02,1.3,-0.06c0.25,-0.04,0.47,-0.13,0.67,-0.27c0.2,-0.14,0.37,-0.34,0.52,-0.6l0.33,0m1.59,-3.48c0,-1.32,0.2,-2.46,0.6,-3.41c0.4,-0.95,0.93,-1.66,1.59,-2.13c0.52,-0.37,1.05,-0.56,1.59,-0.56c0.9,0,1.69,0.45,2.39,1.36c0.89,1.12,1.33,2.65,1.33,4.56c0,1.34,-0.19,2.49,-0.58,3.43c-0.39,0.94,-0.88,1.62,-1.48,2.05c-0.6,0.42,-1.18,0.63,-1.73,0.63c-1.1,0,-2.03,-0.65,-2.77,-1.95c-0.62,-1.1,-0.94,-2.43,-0.94,-3.97m1.69,0.2c0,1.59,0.19,2.9,0.58,3.91c0.33,0.85,0.82,1.28,1.45,1.28c0.31,0,0.63,-0.14,0.96,-0.41c0.33,-0.28,0.58,-0.74,0.76,-1.4c0.26,-0.98,0.39,-2.36,0.39,-4.14c0,-1.32,-0.14,-2.43,-0.41,-3.31c-0.21,-0.65,-0.47,-1.11,-0.8,-1.39c-0.24,-0.19,-0.52,-0.28,-0.84,-0.28c-0.4,0,-0.74,0.18,-1.05,0.53c-0.41,0.47,-0.68,1.21,-0.83,2.23c-0.15,1.02,-0.22,2.01,-0.22,2.99" fill="#000000" stroke="none" fill-opacity="1"/>
</g>
</g>
</g>
<defs>
<clipPath id="c0"><path d="m0,0l533.49,0l0,533.49l-533.49,0l0,-533.49"/></clipPath>
<clipPath id="c1"><path d="m60.46,7.11l465.91,0l0,465.91l-465.91,0l0,-465.91"/></clipPath>
<clipPath id="c2"><path d="m356.81,363.03l35.57,0l0,20l-35.57,0l0,-20"/></clipPath>
<clipPath id="c3"><path d="m356.81,383.03l35.57,0l0,20l-35.57,0l0,-20"/></clipPath>
<clipPath id="c4"><path d="m356.81,403.03l35.57,0l0,20l-35.57,0l0,-20"/></clipPath>
</defs>
</svg>
