<?xml version="1.0" standalone="no"?>
<!DOCTYPE svg PUBLIC "-//W3C//DTD SVG 1.1//EN"
  "http://www.w3.org/Graphics/SVG/1.1/DTD/svg11.dtd">
<svg width="531.49px" height="531.49px" version="1.1"
    xmlns="http://www.w3.org/2000/svg"
    xmlns:xlink="http://www.w3.org/1999/xlink">
<desc>Veusz output document</desc>
<defs>
<clipPath id="c0">
<path d="m0,0l531.49,0l0,531.49l-531.49,0l0,-531.49"/>
</clipPath>
<clipPath id="c1">
<path d="m496.06,265.74c0,127.19,-103.11,230.31,-230.31,230.31c-127.19,0,-230.31,-103.11,-230.31,-230.31c0,-127.19,103.11,-230.31,230.31,-230.31c127.19,0,230.31,103.11,230.31,230.31"/>
</clipPath>
<clipPath id="c2">
<path d="m255.11,127.55c0,60.66,-49.17,109.84,-109.84,109.84c-60.66,0,-109.84,-49.17,-109.84,-109.84c0,-60.66,49.17,-109.84,109.84,-109.84c60.66,0,109.84,49.17,109.84,109.84"/>
</clipPath>
</defs>
<g stroke-linejoin="bevel" stroke-linecap="square" stroke="#000000" fill-rule="evenodd">
<g clip-path="url(#c0)">
<g fill="#ffffff" stroke-width="0.62">
<path d="m496.06,265.74c0,127.19,-103.11,230.31,-230.31,230.31c-127.19,0,-230.31,-103.11,-230.31,-230.31c0,-127.19,103.11,-230.31,230.31,-230.31c127.19,0,230.31,103.11,230.31,230.31"/>
</g>
<g fill="none" stroke="#808080" stroke-width="0.62">
<ellipse cx="265.74" cy="265.74" rx="38.38" ry="38.38"/>
<ellipse cx="265.74" cy="265.74" rx="76.77" ry="76.77"/>
<ellipse cx="265.74" cy="265.74" rx="115.15" ry="115.15"/>
<ellipse cx="265.74" cy="265.74" rx="153.54" ry="153.54"/>
<ellipse cx="265.74" cy="265.74" rx="191.92" ry="191.92"/>
<ellipse cx="265.74" cy="265.74" rx="230.31" ry="230.31"/>
</g>
<g fill="none" stroke-width="1">
<g stroke="none" fill="#000000" fill-opacity="1" font-family="Arial" font-size="17.5">
<text x="304.13" y="262.04" textLength="24.3">0.5</text>
<text x="342.51" y="262.04" textLength="9.7">1</text>
<text x="380.9" y="262.04" textLength="24.3">1.5</text>
<text x="419.29" y="262.04" textLength="9.7">2</text>
<text x="457.67" y="262.04" textLength="24.3">2.5</text>
<text x="496.06" y="262.04" textLength="9.7">3</text>
<text x="496.06" y="281.64" textLength="16.7">0°</text>
<text x="465.2" y="396.8" textLength="36.1">330°</text>
<text x="380.9" y="481.1" textLength="36.1">300°</text>
<text x="247.69" y="511.96" textLength="36.1">270°</text>
<text x="114.48" y="481.1" textLength="36.1">240°</text>
<text x="30.18" y="396.8" textLength="36.1">210°</text>
<text x="-0.66" y="273.69" textLength="36.1">180°</text>
<text x="30.18" y="146.89" textLength="36.1">150°</text>
<text x="114.48" y="62.58" textLength="36.1">120°</text>
<text x="252.54" y="31.73" textLength="26.4">90°</text>
<text x="380.9" y="62.58" textLength="26.4">60°</text>
<text x="465.2" y="146.89" textLength="26.4">30°</text>
</g>
</g>
<g fill="none" stroke="#808080" stroke-width="0.62">
<path d="M265.74,265.74l230.31,0M265.74,265.74l199.45,115.15M265.74,265.74l115.15,199.45M265.74,265.74l0,230.31M265.74,265.74l-115.15,199.45M265.74,265.74l-199.45,115.15M265.74,265.74l-230.31,0M265.74,265.74l-199.45,-115.15M265.74,265.74l-115.15,-199.45M265.74,265.74l0,-230.31M265.74,265.74l115.15,-199.45M265.74,265.74l199.45,-115.15"/>
</g>
</g>
<g clip-path="url(#c1)">
<g fill="none" stroke-width="0.62">
<polyline fill="none" points="421.57,265.74 459.72,195.14 425.06,132.06 369.82,85.48 300.94,66.12 229.28,58.96 173.34,105.69 140.44,160.61 120.9,213.02 51.38,265.74 116.41,320.1 115.46,391.84 164.23,441.57 230.56,465.3 297.37,445.12 365.37,438.31 421.38,396.34 460.39,336.59"/>
</g>
<g fill="#000000" stroke-linejoin="miter" stroke-width="0.62">
<g transform="translate(421.57,265.74)">
<path d="m-2.22,4.13l2.22,-2.22l2.22,2.22l1.9,-1.9l-2.22,-2.22l2.22,-2.22l-1.9,-1.9l-2.22,2.22l-2.22,-2.22l-1.9,1.9l2.22,2.22l-2.22,2.22l1.9,1.9" id="p0"/>
</g>
<use xlink:href="#p0" x="459.72" y="195.14"/>
<use xlink:href="#p0" x="425.06" y="132.06"/>
<use xlink:href="#p0" x="369.82" y="85.48"/>
<use xlink:href="#p0" x="300.94" y="66.12"/>
<use xlink:href="#p0" x="229.28" y="58.96"/>
<use xlink:href="#p0" x="173.34" y="105.69"/>
<use xlink:href="#p0" x="140.44" y="160.61"/>
<use xlink:href="#p0" x="120.9" y="213.02"/>
<use xlink:href="#p0" x="51.38" y="265.74"/>
<use xlink:href="#p0" x="116.41" y="320.1"/>
<use xlink:href="#p0" x="115.46" y="391.84"/>
<use xlink:href="#p0" x="164.23" y="441.57"/>
<use xlink:href="#p0" x="230.56" y="465.3"/>
<use xlink:href="#p0" x="297.37" y="445.12"/>
<use xlink:href="#p0" x="365.37" y="438.31"/>
<use xlink:href="#p0" x="421.38" y="396.34"/>
<use xlink:href="#p0" x="460.39" y="336.59"/>
</g>
<g fill="#ff0000" fill-opacity="0.2" stroke="none" stroke-width="1">
<path d="m428.13,174.29l-9.84,-22.39l-14.68,-19.66l-18.79,-15.79l-21.82,-11.1l-23.58,-5.98l-24,-0.88l-23.2,3.75l-21.43,7.59l-19.03,10.39l-16.42,12.07l-13.97,12.71l-12.02,12.52l-10.77,11.83l-10.3,11l-10.52,10.41l-11.2,10.35l-12.03,11.01l-12.63,12.45l-12.64,14.55l-11.75,17.07l-9.79,19.67l-6.72,21.95l-2.65,23.51l2.13,24.02l7.27,23.27l12.33,21.18l16.85,17.85l20.46,13.52l22.87,8.56l23.95,3.4l23.74,-1.51l22.42,-5.79l20.29,-9.13l17.73,-11.37l15.15,-12.51l12.92,-12.7l11.3,-12.21l10.44,-11.41l10.33,-10.65l10.82,-10.3l11.62,-10.58l12.38,-11.63l12.73,-13.42l12.32,-15.77l10.91,-18.38l-153.54,0l153.54,0l8.39,-20.87l4.8,-22.84l0.33,-23.91"/>
</g>
<g fill="none" stroke="#ff0000" stroke-width="1.25">
<polyline fill="none" points="419.29,265.74 427.68,244.86 432.49,222.02 432.82,198.1 428.13,174.29 418.29,151.9 403.6,132.24 384.81,116.44 362.98,105.34 339.4,99.36 315.39,98.47 292.18,102.23 270.74,109.82 251.7,120.21 235.28,132.29 221.31,145 209.29,157.52 198.51,169.36 188.2,180.36 177.68,190.78 166.48,201.13 154.44,212.14 141.81,224.59 129.17,239.15 117.41,256.22 107.62,275.9 100.89,297.85 98.23,321.36 100.37,345.38 107.64,368.65 119.97,389.84 136.83,407.69 157.29,421.22 180.16,429.79 204.12,433.19 227.87,431.67 250.29,425.88 270.59,416.75 288.32,405.38 303.47,392.86 316.39,380.16 327.7,367.94 338.14,356.53 348.48,345.87 359.3,335.57 370.93,324.98 383.31,313.34 396.04,299.91 408.37,284.13 419.29,265.74"/>
</g>
<g fill="#0000ff" fill-opacity="0.2" stroke="none" stroke-width="1">
<path d="m390.92,195.24l-14.34,-12.21l-16.06,-9.05l-17.05,-5.67l-17.28,-2.23l-16.77,1.06l-15.59,4.07l-13.85,6.65l-11.66,8.69l-9.2,10.11l-6.61,10.88l-4.07,11.02l-1.72,10.58l0.29,9.64l1.87,8.31l2.96,6.75l3.52,5.09l3.56,3.48l3.13,2.06l2.32,0.96l1.23,0.26l0,0.02l-1.23,0.26l-2.32,0.96l-3.13,2.06l-3.56,3.48l-3.52,5.09l-2.96,6.75l-1.87,8.31l-0.29,9.64l1.72,10.58l4.07,11.02l6.61,10.88l9.2,10.11l11.66,8.69l13.85,6.65l15.59,4.07l16.77,1.06l17.28,-2.23l17.05,-5.67l16.06,-9.05l14.34,-12.21l11.94,-14.98l8.97,-17.2l5.56,-18.75l1.88,-19.55l-153.54,0l153.54,0l-1.88,-19.55l-5.56,-18.75l-8.97,-17.2"/>
</g>
<g fill="none" stroke="#0000ff" stroke-width="1.25">
<polyline fill="none" points="419.29,265.74 417.4,246.19 411.84,227.43 402.86,210.23 390.92,195.24 376.58,183.03 360.51,173.97 343.45,168.3 326.17,166.06 309.4,167.13 293.8,171.2 279.95,177.86 268.28,186.55 259.08,196.66 252.46,207.55 248.39,218.58 246.66,229.16 246.95,238.8 248.83,247.12 251.8,253.87 255.33,258.96 258.89,262.44 262.03,264.51 264.35,265.47 265.59,265.73 265.59,265.75 264.35,266.01 262.03,266.98 258.89,269.04 255.33,272.52 251.8,277.61 248.83,284.37 246.95,292.69 246.66,302.33 248.39,312.91 252.46,323.93 259.08,334.82 268.28,344.93 279.95,353.63 293.8,360.28 309.4,364.36 326.17,365.43 343.45,363.19 360.51,357.52 376.58,348.46 390.92,336.24 402.86,321.26 411.84,304.05 417.4,285.3 419.29,265.74"/>
</g>
</g>
<g clip-path="url(#c0)">
<g fill="#ffffff" stroke-width="0.62">
<path d="m255.11,127.55c0,60.66,-49.17,109.84,-109.84,109.84c-60.66,0,-109.84,-49.17,-109.84,-109.84c0,-60.66,49.17,-109.84,109.84,-109.84c60.66,0,109.84,49.17,109.84,109.84"/>
</g>
<g fill="none" stroke="#808080" stroke-width="0.62">
<ellipse cx="145.27" cy="127.55" rx="54.92" ry="54.92"/>
<ellipse cx="145.27" cy="127.55" rx="109.84" ry="109.84"/>
</g>
<g fill="none" stroke-width="1">
<g stroke="none" fill="#000000" fill-opacity="1" font-family="Arial" font-size="17.5" font-weight="bold">
<text x="145.27" y="123.85" textLength="24.3">0.1</text>
<text x="200.19" y="123.85" textLength="9.7">1</text>
<text x="255.11" y="123.85" textLength="19.4">10</text>
<text x="255.11" y="143.45" textLength="16.7">0°</text>
<text x="240.4" y="198.38" textLength="36.1">330°</text>
<text x="200.19" y="238.58" textLength="36.1">300°</text>
<text x="127.22" y="253.3" textLength="36.1">270°</text>
<text x="54.25" y="238.58" textLength="36.1">240°</text>
<text x="14.04" y="198.38" textLength="36.1">210°</text>
<text x="-0.66" y="135.5" textLength="36.1">180°</text>
<text x="14.04" y="68.93" textLength="36.1">150°</text>
<text x="54.25" y="28.73" textLength="36.1">120°</text>
<text x="132.07" y="14.01" textLength="26.4">90°</text>
<text x="200.19" y="28.73" textLength="26.4">60°</text>
<text x="240.4" y="68.93" textLength="26.4">30°</text>
</g>
</g>
<g fill="none" stroke="#808080" stroke-width="0.62">
<path d="M145.27,127.55l109.84,0M145.27,127.55l95.12,54.92M145.27,127.55l54.92,95.12M145.27,127.55l0,109.84M145.27,127.55l-54.92,95.12M145.27,127.55l-95.12,54.92M145.27,127.55l-109.84,0M145.27,127.55l-95.12,-54.92M145.27,127.55l-54.92,-95.12M145.27,127.55l0,-109.84M145.27,127.55l54.92,-95.12M145.27,127.55l95.12,-54.92"/>
</g>
</g>
<g clip-path="url(#c2)">
<g fill="#00ff00" fill-opacity="0.2" stroke="none" stroke-width="1">
<path d="m251.44,100.01l-2.5,-6.49l-6.1,-5.01l-10.8,-2.23l-21.35,4.9l-65.39,36.38l32.25,-70.62l2.39,-20.06l-3.3,-10.1l-5.58,-5.39l-6.73,-1.72l-7.21,1.97l-7.09,6.77l-6.04,15.94l1.32,83.22l-40.06,-52.64l-21.06,-17.89l-11.67,-3.42l-8.13,1.55l-5.38,4.53l-2.46,6.75l1.36,8.78l8.1,11.44l36.32,22.07l42.99,18.81l-42,6.72l-44.43,12.8l-11.05,9.1l-3.68,8.19l0.58,7.19l3.97,5.78l7.36,3.62l11.95,-0.22l23.94,-11.25l53.35,-41.95l-21.95,79.4l1.69,17.43l5.11,8.51l6.46,3.84l6.94,0.12l6.76,-3.69l5.77,-8.74l2.86,-19.38l-13.66,-77.49l53.25,50.77l20.01,10.7l11.18,0.7l7.26,-3.23l4.15,-5.6l0.85,-7.29l-3.5,-8.72l-11.59,-10.51l-77.3,-25.68l-4.33,-1.12l85.01,-5.4l14.28,-7.26l5.74,-7.57"/>
</g>
<g fill="none" stroke="#00ff00" stroke-width="1.25">
<polyline fill="none" points="145.27,127.55 230.28,122.15 244.57,114.88 250.32,107.31 251.44,100.01 248.93,93.51 242.83,88.5 232.02,86.26 210.66,91.17 145.27,127.55 177.53,56.93 179.92,36.86 176.61,26.75 171.03,21.36 164.3,19.63 157.09,21.61 149.99,28.38 143.95,44.33 145.27,127.55 105.2,74.9 84.14,57.01 72.46,53.58 64.33,55.14 58.95,59.67 56.48,66.43 57.85,75.21 65.95,86.66 102.28,108.74 145.27,127.55 103.27,134.28 58.83,147.08 47.78,156.18 44.09,164.38 44.68,171.58 48.65,177.36 56.02,180.99 67.98,180.77 91.92,169.51 145.27,127.55 123.32,206.96 125.01,224.39 130.12,232.91 136.59,236.75 143.54,236.88 150.3,233.18 156.08,224.43 158.94,205.05 145.27,127.55 198.52,178.33 218.54,189.03 229.73,189.74 236.99,186.5 241.14,180.9 242,173.6 238.5,164.88 226.91,154.37 149.6,128.68 145.27,127.55"/>
</g>
<g fill="none" stroke="#0000ff" stroke-width="0.62">
<polyline fill="none" points="217.08,127.55 219.05,100.7 205.55,76.97 184.63,59.39 158.83,50.66 131.57,49.83 107.33,61.84 89.38,80.65 78.04,103.08 65.86,127.55 77.35,152.27 86.06,177.24 106.21,195.21 131.71,204.44 158.39,201.94 184.11,194.82 205.13,177.78 219.13,154.44"/>
</g>
<g fill="#0000ff" stroke="#0000ff" stroke-linejoin="miter" stroke-width="0.62">
<g transform="translate(217.08,127.55)">
<path d="m3.75,0c0,2.07,-1.67,3.75,-3.75,3.75c-2.07,0,-3.75,-1.67,-3.75,-3.75c0,-2.07,1.67,-3.75,3.75,-3.75c2.07,0,3.75,1.67,3.75,3.75" id="p1"/>
</g>
<use xlink:href="#p1" x="219.05" y="100.7"/>
<use xlink:href="#p1" x="205.55" y="76.97"/>
<use xlink:href="#p1" x="184.63" y="59.39"/>
<use xlink:href="#p1" x="158.83" y="50.66"/>
<use xlink:href="#p1" x="131.57" y="49.83"/>
<use xlink:href="#p1" x="107.33" y="61.84"/>
<use xlink:href="#p1" x="89.38" y="80.65"/>
<use xlink:href="#p1" x="78.04" y="103.08"/>
<use xlink:href="#p1" x="65.86" y="127.55"/>
<use xlink:href="#p1" x="77.35" y="152.27"/>
<use xlink:href="#p1" x="86.06" y="177.24"/>
<use xlink:href="#p1" x="106.21" y="195.21"/>
<use xlink:href="#p1" x="131.71" y="204.44"/>
<use xlink:href="#p1" x="158.39" y="201.94"/>
<use xlink:href="#p1" x="184.11" y="194.82"/>
<use xlink:href="#p1" x="205.13" y="177.78"/>
<use xlink:href="#p1" x="219.13" y="154.44"/>
</g>
</g>
</g>
</svg>
