<?xml version="1.0" standalone="no"?>
<!DOCTYPE svg PUBLIC "-//W3C//DTD SVG 1.1//EN" 
  "http://www.w3.org/Graphics/SVG/1.1/DTD/svg11.dtd">
<svg width="533.49px" height="533.49px" version="1.1"
     xmlns="http://www.w3.org/2000/svg"
     xmlns:xlink="http://www.w3.org/1999/xlink">
<desc>Veusz output document</desc>
<g stroke-linejoin="bevel" stroke-linecap="square" stroke="#000000" fill-rule="evenodd">
<g clip-path="url(#c0)">
<g stroke-width="0.62" fill="#ffffff">
<path d="m42.68,7.11l483.7,0l0,483.7l-483.7,0l0,-483.7"/>
</g>
<g stroke-width="0.62" stroke-dasharray="0.625,1.25" transform="translate(284.53, 60.32)" fill="#aaff7f">
<path d="m-120.92,-24.18l241.85,0l0,48.37l-241.85,0l0,-48.37"/>
</g>
<g stroke="#0000ff" stroke-width="0.62" transform="matrix(-0.0082 1 -1 -0.0082 238.81 103.85)" fill="#000000">
<path d="M0,0l96.74,0"/>
</g>
<g stroke-linejoin="miter" stroke="#0000ff" stroke-width="0.62" transform="matrix(-0.0082 1 -1 -0.0082 238.01 200.59)" fill="#000000">
<path d="m6.25,0c0,3.45,-2.8,6.25,-6.25,6.25c-3.45,0,-6.25,-2.8,-6.25,-6.25c0,-3.45,2.8,-6.25,6.25,-6.25c3.45,0,6.25,2.8,6.25,6.25"/>
</g>
<g stroke-linejoin="miter" stroke="#0000ff" stroke-width="0.62" transform="matrix(0.0082 -1 -1 -0.0082 238.81 103.85)" fill="#000000">
<path d="m0,0l11.25,6.25l-2.5,-6.25l2.5,-6.25l-11.25,6.25"/>
</g>
</g>
<g clip-path="url(#c1)">
<g stroke="none" stroke-width="1" fill="#008000">
<polygon points="72.29,328.37 82.16,327.43 92.04,326.22 101.91,324.74 111.78,323 121.65,320.98 131.52,318.7 141.39,316.15 151.26,313.33 161.14,310.24 171.01,306.88 180.88,303.25 190.75,299.36 200.62,295.2 210.49,290.76 220.36,286.06 230.24,281.09 240.11,275.86 249.98,270.35 259.85,264.57 269.72,258.53 279.59,252.22 289.46,245.64 299.33,238.79 309.21,231.67 319.08,224.28 328.95,216.63 338.82,208.7 348.69,200.51 358.56,192.05 368.43,183.32 378.31,174.32 388.18,165.06 398.05,155.52 407.92,145.72 417.79,135.64 427.66,125.3 437.53,114.69 447.41,103.81 457.28,92.67 467.15,81.25 477.02,69.56 486.89,57.61 496.76,45.39 506.63,32.9 516.5,20.14 526.38,7.11 526.38,490.81 42.68,490.81 42.68,329.58 52.55,329.44 62.42,329.04"/>
</g>
</g>
<g clip-path="url(#c0)">
<g stroke-width="1" fill="none">
<path d="m203.2,43.08l0,8.58l-0.67,0c-0.22,-1.65,-0.61,-2.96,-1.18,-3.93c-0.57,-0.97,-1.38,-1.75,-2.43,-2.33c-1.05,-0.58,-2.14,-0.87,-3.25,-0.87c-1.27,0,-2.32,0.39,-3.16,1.16c-0.83,0.78,-1.25,1.66,-1.25,2.65c0,0.76,0.27,1.45,0.8,2.08c0.75,0.91,2.55,2.12,5.39,3.66c2.32,1.24,3.91,2.19,4.76,2.86c0.85,0.67,1.5,1.45,1.96,2.36c0.46,0.91,0.69,1.85,0.69,2.84c0,1.87,-0.73,3.49,-2.19,4.85c-1.46,1.36,-3.34,2.04,-5.64,2.04c-0.72,0,-1.4,-0.05,-2.03,-0.16c-0.37,-0.06,-1.16,-0.29,-2.34,-0.67c-1.19,-0.39,-1.94,-0.58,-2.27,-0.58c-0.3,0,-0.54,0.09,-0.72,0.27c-0.18,0.18,-0.31,0.56,-0.39,1.13l-0.69,0l0,-8.52l0.69,0c0.31,1.78,0.74,3.11,1.27,4c0.54,0.89,1.36,1.62,2.46,2.21c1.1,0.59,2.32,0.88,3.64,0.88c1.52,0,2.72,-0.4,3.61,-1.21c0.89,-0.81,1.33,-1.76,1.33,-2.85c0,-0.61,-0.17,-1.23,-0.5,-1.85c-0.33,-0.62,-0.85,-1.2,-1.56,-1.74c-0.48,-0.36,-1.78,-1.14,-3.91,-2.34c-2.12,-1.19,-3.64,-2.14,-4.53,-2.85c-0.9,-0.71,-1.58,-1.49,-2.04,-2.34c-0.46,-0.85,-0.7,-1.79,-0.7,-2.81c0,-1.78,0.68,-3.32,2.05,-4.6c1.37,-1.29,3.11,-1.93,5.21,-1.93c1.32,0,2.72,0.32,4.2,0.97c0.68,0.3,1.16,0.45,1.44,0.45c0.32,0,0.58,-0.09,0.78,-0.28c0.2,-0.19,0.36,-0.57,0.48,-1.14l0.67,0m13.19,8.12c2.54,0,4.58,0.96,6.11,2.89c1.31,1.65,1.97,3.54,1.97,5.67c0,1.5,-0.36,3.02,-1.08,4.56c-0.72,1.54,-1.71,2.7,-2.98,3.48c-1.27,0.78,-2.67,1.17,-4.23,1.17c-2.52,0,-4.53,-1.01,-6.02,-3.03c-1.26,-1.69,-1.89,-3.59,-1.89,-5.7c0,-1.54,0.38,-3.07,1.14,-4.59c0.76,-1.52,1.76,-2.64,3.01,-3.37c1.24,-0.72,2.57,-1.09,3.96,-1.09m-0.56,1.19c-0.65,0,-1.3,0.19,-1.95,0.58c-0.66,0.39,-1.18,1.06,-1.59,2.02c-0.4,0.96,-0.6,2.2,-0.6,3.71c0,2.45,0.48,4.56,1.45,6.33c0.97,1.77,2.25,2.66,3.84,2.66c1.18,0,2.15,-0.49,2.92,-1.47c0.77,-0.98,1.16,-2.66,1.16,-5.03c0,-2.98,-0.64,-5.32,-1.92,-7.03c-0.86,-1.18,-1.97,-1.77,-3.31,-1.77m15.34,2.37c1.22,-1.22,1.94,-1.92,2.16,-2.09c0.55,-0.47,1.15,-0.83,1.78,-1.09c0.64,-0.26,1.26,-0.38,1.87,-0.38c1.05,0,1.96,0.3,2.72,0.91c0.76,0.61,1.27,1.49,1.52,2.65c1.26,-1.46,2.32,-2.42,3.19,-2.87c0.86,-0.46,1.76,-0.69,2.67,-0.69c0.9,0,1.69,0.23,2.37,0.69c0.69,0.46,1.23,1.2,1.64,2.23c0.27,0.71,0.41,1.82,0.41,3.34l0,7.2c0,1.05,0.08,1.78,0.23,2.17c0.11,0.26,0.34,0.49,0.67,0.68c0.33,0.19,0.87,0.29,1.61,0.29l0,0.66l-8.27,0l0,-0.66l0.34,0c0.72,0,1.28,-0.14,1.69,-0.42c0.28,-0.2,0.48,-0.51,0.59,-0.94c0.05,-0.21,0.08,-0.8,0.08,-1.78l0,-7.2c0,-1.37,-0.17,-2.34,-0.5,-2.89c-0.47,-0.78,-1.23,-1.17,-2.28,-1.17c-0.65,0,-1.3,0.16,-1.95,0.48c-0.66,0.32,-1.45,0.92,-2.37,1.8l-0.03,0.2l0.03,0.78l0,8c0,1.16,0.07,1.87,0.2,2.15c0.13,0.28,0.37,0.51,0.73,0.7c0.35,0.19,0.96,0.29,1.81,0.29l0,0.66l-8.48,0l0,-0.66c0.93,0,1.57,-0.11,1.91,-0.33c0.35,-0.22,0.59,-0.55,0.73,-1c0.06,-0.2,0.09,-0.8,0.09,-1.81l0,-7.2c0,-1.37,-0.2,-2.36,-0.61,-2.95c-0.53,-0.78,-1.28,-1.17,-2.25,-1.17c-0.66,0,-1.31,0.18,-1.95,0.53c-1.02,0.54,-1.8,1.15,-2.34,1.81l0,8.98c0,1.1,0.08,1.82,0.23,2.15c0.15,0.33,0.37,0.58,0.67,0.74c0.3,0.17,0.9,0.25,1.82,0.25l0,0.66l-8.28,0l0,-0.66c0.76,0,1.29,-0.08,1.6,-0.25c0.31,-0.17,0.54,-0.43,0.7,-0.79c0.16,-0.36,0.23,-1.06,0.23,-2.1l0,-6.41c0,-1.84,-0.05,-3.03,-0.16,-3.56c-0.08,-0.41,-0.22,-0.68,-0.41,-0.84c-0.19,-0.15,-0.44,-0.23,-0.75,-0.23c-0.34,0,-0.75,0.09,-1.22,0.27l-0.28,-0.66l5.05,-2.05l0.8,0l0,3.56m26.83,3.25c-0.01,2.49,0.59,4.44,1.81,5.86c1.23,1.42,2.67,2.12,4.31,2.12c1.09,0,2.05,-0.3,2.86,-0.91c0.81,-0.6,1.49,-1.64,2.05,-3.11l0.56,0.37c-0.25,1.67,-0.99,3.19,-2.23,4.56c-1.23,1.37,-2.78,2.06,-4.63,2.06c-2.02,0,-3.75,-0.78,-5.18,-2.35c-1.43,-1.57,-2.15,-3.68,-2.15,-6.34c0,-2.86,0.73,-5.1,2.2,-6.7c1.47,-1.6,3.32,-2.41,5.55,-2.41c1.87,0,3.42,0.62,4.62,1.86c1.21,1.24,1.81,2.9,1.81,4.97l-11.59,0m0,-1.06l7.77,0c-0.06,-1.07,-0.19,-1.83,-0.37,-2.27c-0.31,-0.69,-0.77,-1.23,-1.37,-1.62c-0.6,-0.39,-1.23,-0.59,-1.89,-0.59c-1.01,0,-1.92,0.39,-2.72,1.18c-0.8,0.79,-1.27,1.88,-1.41,3.29m35.03,-5.75l0,5.72l-0.61,0c-0.46,-1.8,-1.05,-3.03,-1.78,-3.67c-0.73,-0.65,-1.66,-0.97,-2.78,-0.97c-0.85,0,-1.54,0.23,-2.07,0.68c-0.53,0.45,-0.79,0.96,-0.79,1.51c0,0.68,0.2,1.26,0.59,1.75c0.37,0.5,1.15,1.03,2.31,1.59l2.67,1.3c2.48,1.21,3.72,2.8,3.72,4.78c0,1.53,-0.58,2.76,-1.73,3.7c-1.16,0.93,-2.45,1.4,-3.87,1.4c-1.02,0,-2.19,-0.18,-3.52,-0.55c-0.41,-0.12,-0.73,-0.19,-0.98,-0.19c-0.28,0,-0.5,0.16,-0.66,0.47l-0.61,0l0,-5.98l0.61,0c0.33,1.71,0.98,3,1.95,3.87c0.97,0.87,2.05,1.3,3.23,1.3c0.84,0,1.53,-0.25,2.06,-0.74c0.53,-0.49,0.8,-1.09,0.8,-1.79c0,-0.84,-0.29,-1.55,-0.88,-2.12c-0.59,-0.57,-1.77,-1.3,-3.54,-2.18c-1.77,-0.88,-2.93,-1.67,-3.48,-2.38c-0.55,-0.7,-0.83,-1.58,-0.83,-2.64c0,-1.37,0.47,-2.53,1.42,-3.45c0.95,-0.93,2.17,-1.39,3.67,-1.39c0.66,0,1.45,0.14,2.39,0.42c0.62,0.18,1.04,0.27,1.25,0.27c0.2,0,0.35,-0.04,0.46,-0.12c0.11,-0.08,0.24,-0.27,0.38,-0.56l0.61,0m9.08,-8.77l0,12.27c1.35,-1.49,2.43,-2.45,3.23,-2.87c0.8,-0.42,1.59,-0.63,2.38,-0.63c0.95,0,1.76,0.26,2.45,0.79c0.68,0.53,1.19,1.35,1.52,2.48c0.23,0.78,0.34,2.21,0.34,4.28l0,5.92c0,1.06,0.09,1.79,0.27,2.19c0.12,0.29,0.33,0.52,0.62,0.7c0.29,0.17,0.83,0.26,1.61,0.26l0,0.66l-8.25,0l0,-0.66l0.39,0c0.78,0,1.33,-0.12,1.63,-0.36c0.31,-0.24,0.52,-0.59,0.63,-1.05c0.04,-0.2,0.06,-0.78,0.06,-1.73l0,-5.92c0,-1.83,-0.09,-3.04,-0.28,-3.61c-0.19,-0.57,-0.49,-1,-0.91,-1.29c-0.42,-0.29,-0.92,-0.43,-1.5,-0.43c-0.6,0,-1.23,0.16,-1.87,0.48c-0.65,0.32,-1.42,0.96,-2.33,1.91l0,8.86c0,1.16,0.07,1.87,0.2,2.15c0.13,0.28,0.37,0.51,0.72,0.7c0.35,0.19,0.95,0.29,1.8,0.29l0,0.66l-8.31,0l0,-0.66c0.74,0,1.32,-0.11,1.75,-0.34c0.25,-0.12,0.45,-0.36,0.59,-0.7c0.15,-0.34,0.22,-1.04,0.22,-2.09l0,-15.17c0,-1.92,-0.05,-3.09,-0.14,-3.53c-0.09,-0.44,-0.23,-0.74,-0.42,-0.9c-0.19,-0.16,-0.44,-0.24,-0.77,-0.24c-0.25,0,-0.66,0.1,-1.23,0.3l-0.27,-0.64l5.02,-2.05l0.84,0m23.58,23.61c-1.72,1.33,-2.8,2.1,-3.23,2.31c-0.66,0.3,-1.36,0.45,-2.11,0.45c-1.16,0,-2.11,-0.4,-2.86,-1.19c-0.75,-0.79,-1.12,-1.83,-1.12,-3.12c0,-0.82,0.18,-1.53,0.55,-2.12c0.5,-0.83,1.37,-1.62,2.61,-2.35c1.24,-0.73,3.3,-1.62,6.17,-2.66l0,-0.67c0,-1.67,-0.27,-2.81,-0.8,-3.44c-0.53,-0.62,-1.3,-0.94,-2.31,-0.94c-0.77,0,-1.38,0.21,-1.83,0.62c-0.47,0.42,-0.7,0.9,-0.7,1.44l0.05,1.06c0,0.56,-0.14,0.99,-0.43,1.3c-0.29,0.3,-0.66,0.45,-1.13,0.45c-0.45,0,-0.82,-0.16,-1.1,-0.48c-0.29,-0.32,-0.43,-0.75,-0.43,-1.3c0,-1.04,0.54,-2,1.61,-2.88c1.07,-0.88,2.58,-1.32,4.52,-1.32c1.49,0,2.71,0.25,3.67,0.75c0.72,0.37,1.24,0.97,1.58,1.78c0.23,0.52,0.34,1.59,0.34,3.22l0,5.69c0,1.6,0.03,2.59,0.09,2.95c0.06,0.36,0.16,0.6,0.3,0.72c0.14,0.12,0.3,0.18,0.49,0.18c0.2,0,0.37,-0.04,0.52,-0.12c0.25,-0.16,0.74,-0.6,1.48,-1.33l0,1.02c-1.37,1.83,-2.68,2.75,-3.92,2.75c-0.6,0,-1.08,-0.21,-1.44,-0.62c-0.35,-0.42,-0.54,-1.12,-0.55,-2.12m0,-1.19l0,-6.39c-1.84,0.73,-3.03,1.25,-3.56,1.56c-0.97,0.53,-1.66,1.09,-2.08,1.68c-0.42,0.59,-0.62,1.23,-0.62,1.93c0,0.87,0.26,1.6,0.79,2.18c0.53,0.58,1.13,0.87,1.82,0.87c0.93,0,2.15,-0.61,3.66,-1.83m6.3,-11.5l5.16,-2.08l0.7,0l0,3.91c0.86,-1.47,1.73,-2.5,2.6,-3.09c0.87,-0.59,1.79,-0.89,2.76,-0.89c1.69,0,3.09,0.66,4.22,1.97c1.37,1.61,2.06,3.72,2.06,6.31c0,2.89,-0.83,5.28,-2.48,7.17c-1.37,1.55,-3.1,2.33,-5.17,2.33c-0.91,0,-1.69,-0.13,-2.34,-0.39c-0.49,-0.18,-1.04,-0.54,-1.64,-1.09l0,5.11c0,1.15,0.07,1.87,0.21,2.19c0.14,0.31,0.38,0.56,0.73,0.74c0.34,0.18,0.97,0.27,1.89,0.27l0,0.67l-8.78,0l0,-0.67l0.45,0c0.68,0.01,1.25,-0.12,1.72,-0.39c0.24,-0.14,0.42,-0.35,0.55,-0.65c0.12,-0.3,0.19,-1.05,0.19,-2.27l0,-15.86c0,-1.08,-0.05,-1.77,-0.15,-2.07c-0.1,-0.3,-0.26,-0.52,-0.47,-0.66c-0.21,-0.15,-0.5,-0.22,-0.87,-0.22c-0.29,0,-0.66,0.09,-1.11,0.27l-0.22,-0.59m5.86,2.92l0,6.25c0,1.35,0.05,2.24,0.16,2.67c0.18,0.71,0.6,1.33,1.26,1.87c0.66,0.54,1.5,0.8,2.52,0.8c1.22,0,2.2,-0.47,2.95,-1.42c0.99,-1.24,1.48,-2.99,1.48,-5.25c0,-2.56,-0.56,-4.54,-1.67,-5.92c-0.78,-0.95,-1.71,-1.42,-2.8,-1.42c-0.58,0,-1.16,0.15,-1.73,0.44c-0.44,0.22,-1.16,0.88,-2.17,1.98m17.16,1.73c-0.01,2.49,0.59,4.44,1.81,5.86c1.23,1.42,2.67,2.12,4.31,2.12c1.09,0,2.05,-0.3,2.86,-0.91c0.81,-0.6,1.49,-1.64,2.05,-3.11l0.56,0.37c-0.25,1.67,-0.99,3.19,-2.23,4.56c-1.23,1.37,-2.78,2.06,-4.63,2.06c-2.02,0,-3.75,-0.78,-5.18,-2.35c-1.43,-1.57,-2.15,-3.68,-2.15,-6.34c0,-2.86,0.73,-5.1,2.2,-6.7c1.47,-1.6,3.32,-2.41,5.55,-2.41c1.87,0,3.42,0.62,4.62,1.86c1.21,1.24,1.81,2.9,1.81,4.97l-11.59,0m0,-1.06l7.77,0c-0.06,-1.07,-0.19,-1.83,-0.37,-2.27c-0.31,-0.69,-0.77,-1.23,-1.37,-1.62c-0.6,-0.39,-1.23,-0.59,-1.89,-0.59c-1.01,0,-1.92,0.39,-2.72,1.18c-0.8,0.79,-1.27,1.88,-1.41,3.29m25.03,-5.75l0,5.72l-0.61,0c-0.46,-1.8,-1.05,-3.03,-1.78,-3.67c-0.73,-0.65,-1.66,-0.97,-2.78,-0.97c-0.85,0,-1.54,0.23,-2.07,0.68c-0.53,0.45,-0.79,0.96,-0.79,1.51c0,0.68,0.2,1.26,0.59,1.75c0.37,0.5,1.15,1.03,2.31,1.59l2.67,1.3c2.48,1.21,3.72,2.8,3.72,4.78c0,1.53,-0.58,2.76,-1.73,3.7c-1.16,0.93,-2.45,1.4,-3.87,1.4c-1.02,0,-2.19,-0.18,-3.52,-0.55c-0.41,-0.12,-0.73,-0.19,-0.98,-0.19c-0.28,0,-0.5,0.16,-0.66,0.47l-0.61,0l0,-5.98l0.61,0c0.33,1.71,0.98,3,1.95,3.87c0.97,0.87,2.05,1.3,3.23,1.3c0.84,0,1.53,-0.25,2.06,-0.74c0.53,-0.49,0.8,-1.09,0.8,-1.79c0,-0.84,-0.29,-1.55,-0.88,-2.12c-0.59,-0.57,-1.77,-1.3,-3.54,-2.18c-1.77,-0.88,-2.93,-1.67,-3.48,-2.38c-0.55,-0.7,-0.83,-1.58,-0.83,-2.64c0,-1.37,0.47,-2.53,1.42,-3.45c0.95,-0.93,2.17,-1.39,3.67,-1.39c0.66,0,1.45,0.14,2.39,0.42c0.62,0.18,1.04,0.27,1.25,0.27c0.2,0,0.35,-0.04,0.46,-0.12c0.11,-0.08,0.24,-0.27,0.38,-0.56l0.61,0" fill="#000000" stroke="none" fill-opacity="1"/>
<path d="m180.17,325.66l2.06,0l-1.25,5.66c-0.24,1.07,-0.41,1.73,-0.5,1.98c0.32,1.49,0.8,2.23,1.42,2.23c0.73,0,1.1,-0.5,1.12,-1.5l0.44,0c-0.02,0.94,-0.19,1.7,-0.52,2.28c-0.32,0.58,-0.74,0.87,-1.27,0.87c-0.43,0,-0.75,-0.17,-0.96,-0.52c-0.21,-0.35,-0.44,-1.07,-0.68,-2.15c-0.84,1.78,-2.23,2.67,-4.16,2.67c-1.31,0,-2.35,-0.51,-3.12,-1.53c-0.77,-1.02,-1.16,-2.48,-1.16,-4.39c0,-1.87,0.42,-3.33,1.27,-4.37c0.84,-1.04,1.86,-1.56,3.06,-1.56c0.83,0,1.52,0.3,2.05,0.89c0.54,0.59,1.01,1.56,1.43,2.91l0.75,-3.47m-1.08,4.8c-0.39,-1.31,-0.81,-2.34,-1.28,-3.08c-0.47,-0.74,-1.04,-1.11,-1.7,-1.11c-1.49,0,-2.23,1.74,-2.23,5.23c0,3.3,0.71,4.95,2.14,4.95c1.24,0,2.16,-1.46,2.75,-4.37l0.33,-1.62" fill="#000000" stroke="none" fill-opacity="1"/>
</g>
</g>
<g clip-path="url(#c1)">
<g stroke-width="0.62" fill="none">
<polyline fill="none" points="91.05,442.44 139.42,426.32 284.53,329.58 284.53,248.96"/>
</g>
<g stroke-linejoin="miter" stroke-width="0.62" transform="translate(91.05, 442.44)" fill="#ff0000">
<path d="m0,8.84l8.84,-8.84l-8.84,-8.84l-8.84,8.84l8.84,8.84m0,-4.42l4.42,-4.42l-4.42,-4.42l-4.42,4.42l4.42,4.42"/>
</g>
<g stroke-linejoin="miter" stroke-width="0.62" transform="translate(139.42, 426.32)" fill="#ff0000">
<path d="m0,8.84l8.84,-8.84l-8.84,-8.84l-8.84,8.84l8.84,8.84m0,-4.42l4.42,-4.42l-4.42,-4.42l-4.42,4.42l4.42,4.42"/>
</g>
<g stroke-linejoin="miter" stroke-width="0.62" transform="translate(284.53, 329.58)" fill="#ff0000">
<path d="m0,8.84l8.84,-8.84l-8.84,-8.84l-8.84,8.84l8.84,8.84m0,-4.42l4.42,-4.42l-4.42,-4.42l-4.42,4.42l4.42,4.42"/>
</g>
<g stroke-linejoin="miter" stroke-width="0.62" transform="translate(284.53, 248.96)" fill="#ff0000">
<path d="m0,8.84l8.84,-8.84l-8.84,-8.84l-8.84,8.84l8.84,8.84m0,-4.42l4.42,-4.42l-4.42,-4.42l-4.42,4.42l4.42,4.42"/>
</g>
</g>
<g clip-path="url(#c0)">
<g fill-opacity="0.5" stroke-width="0.62" transform="translate(407.2, 145.61)" fill="#0000ff">
<ellipse cx="0" cy="0" rx="24.18" ry="24.18"/>
</g>
<g stroke-width="0.62" transform="matrix(0.7071 -0.7071 0.7071 0.7071 123.22 406.4)" fill="#000000">
<path d="M0,0l159.93,0"/>
</g>
<g stroke-linejoin="miter" stroke-width="0.62" transform="matrix(0.7071 -0.7071 0.7071 0.7071 236.31 293.32)" fill="#000000">
<path d="m0,0l-11.25,6.25l2.5,-6.25l-2.5,-6.25l11.25,6.25"/>
</g>
<g stroke-linejoin="miter" stroke-width="0.62" transform="matrix(-0.7071 0.7071 0.7071 0.7071 123.22 406.4)" fill="#000000">
<path d="m0,0l-11.25,6.25l2.5,-6.25l-2.5,-6.25l11.25,6.25"/>
</g>
<g fill-opacity="0.5" stroke-width="0.62" transform="matrix(0.7071 0.7071 -0.7071 0.7071 91.05 442.44)" fill="#ffffff">
<path d="m-24.18,-24.18l48.37,0l0,48.37l-48.37,0l0,-48.37"/>
</g>
<g fill-opacity="0.5" stroke-width="0.62" transform="matrix(0.7071 0.7071 -0.7071 0.7071 284.53 248.96)" fill="#ffffff">
<path d="m-48.37,-48.37l96.74,0l0,96.74l-96.74,0l0,-96.74"/>
</g>
<g stroke-width="0.62" stroke-linecap="butt" fill="none">
<path d="M42.68,490.81l0,-483.7"/>
<path d="M42.68,490.81l3.75,0M42.68,474.69l3.75,0M42.68,458.56l3.75,0M42.68,442.44l3.75,0M42.68,426.32l3.75,0M42.68,410.19l3.75,0M42.68,394.07l3.75,0M42.68,377.95l3.75,0M42.68,361.82l3.75,0M42.68,345.7l3.75,0M42.68,329.58l3.75,0M42.68,313.45l3.75,0M42.68,297.33l3.75,0M42.68,281.21l3.75,0M42.68,265.08l3.75,0M42.68,248.96l3.75,0M42.68,232.84l3.75,0M42.68,216.72l3.75,0M42.68,200.59l3.75,0M42.68,184.47l3.75,0M42.68,168.35l3.75,0M42.68,152.22l3.75,0M42.68,136.1l3.75,0M42.68,119.98l3.75,0M42.68,103.85l3.75,0M42.68,87.73l3.75,0M42.68,71.61l3.75,0M42.68,55.48l3.75,0M42.68,39.36l3.75,0M42.68,23.24l3.75,0M42.68,7.11l3.75,0"/>
<path d="M42.68,490.81l7.5,0M42.68,410.19l7.5,0M42.68,329.58l7.5,0M42.68,248.96l7.5,0M42.68,168.35l7.5,0M42.68,87.73l7.5,0M42.68,7.11l7.5,0"/>
<path d="M526.38,490.81l0,-483.7"/>
<path d="M526.38,490.81l-3.75,0M526.38,474.69l-3.75,0M526.38,458.56l-3.75,0M526.38,442.44l-3.75,0M526.38,426.32l-3.75,0M526.38,410.19l-3.75,0M526.38,394.07l-3.75,0M526.38,377.95l-3.75,0M526.38,361.82l-3.75,0M526.38,345.7l-3.75,0M526.38,329.58l-3.75,0M526.38,313.45l-3.75,0M526.38,297.33l-3.75,0M526.38,281.21l-3.75,0M526.38,265.08l-3.75,0M526.38,248.96l-3.75,0M526.38,232.84l-3.75,0M526.38,216.72l-3.75,0M526.38,200.59l-3.75,0M526.38,184.47l-3.75,0M526.38,168.35l-3.75,0M526.38,152.22l-3.75,0M526.38,136.1l-3.75,0M526.38,119.98l-3.75,0M526.38,103.85l-3.75,0M526.38,87.73l-3.75,0M526.38,71.61l-3.75,0M526.38,55.48l-3.75,0M526.38,39.36l-3.75,0M526.38,23.24l-3.75,0M526.38,7.11l-3.75,0"/>
<path d="M526.38,490.81l-7.5,0M526.38,410.19l-7.5,0M526.38,329.58l-7.5,0M526.38,248.96l-7.5,0M526.38,168.35l-7.5,0M526.38,87.73l-7.5,0M526.38,7.11l-7.5,0"/>
</g>
<g stroke-width="1" fill="none">
<path d="m31.3,491.08c0,-1.32,0.2,-2.46,0.6,-3.41c0.4,-0.95,0.93,-1.66,1.59,-2.13c0.52,-0.37,1.05,-0.56,1.59,-0.56c0.9,0,1.69,0.45,2.39,1.36c0.89,1.12,1.33,2.65,1.33,4.56c0,1.34,-0.19,2.49,-0.58,3.43c-0.39,0.94,-0.88,1.62,-1.48,2.05c-0.6,0.42,-1.18,0.63,-1.73,0.63c-1.1,0,-2.03,-0.65,-2.77,-1.95c-0.62,-1.1,-0.94,-2.43,-0.94,-3.97m1.69,0.2c0,1.59,0.19,2.9,0.58,3.91c0.33,0.85,0.82,1.28,1.45,1.28c0.31,0,0.63,-0.14,0.96,-0.41c0.33,-0.28,0.58,-0.74,0.76,-1.4c0.26,-0.98,0.39,-2.36,0.39,-4.14c0,-1.32,-0.14,-2.43,-0.41,-3.31c-0.21,-0.65,-0.47,-1.11,-0.8,-1.39c-0.24,-0.19,-0.52,-0.28,-0.84,-0.28c-0.4,0,-0.74,0.18,-1.05,0.53c-0.41,0.47,-0.68,1.21,-0.83,2.23c-0.15,1.02,-0.22,2.01,-0.22,2.99" fill="#000000" stroke="none" fill-opacity="1"/>
<path d="m8.3,410.47c0,-1.32,0.2,-2.46,0.6,-3.41c0.4,-0.95,0.93,-1.66,1.59,-2.13c0.52,-0.37,1.05,-0.56,1.59,-0.56c0.9,0,1.69,0.45,2.39,1.36c0.89,1.12,1.33,2.65,1.33,4.56c0,1.34,-0.19,2.49,-0.58,3.43c-0.39,0.94,-0.88,1.62,-1.48,2.05c-0.6,0.42,-1.18,0.63,-1.73,0.63c-1.1,0,-2.03,-0.65,-2.77,-1.95c-0.62,-1.1,-0.94,-2.43,-0.94,-3.97m1.69,0.2c0,1.59,0.19,2.9,0.58,3.91c0.33,0.85,0.82,1.28,1.45,1.28c0.31,0,0.63,-0.14,0.96,-0.41c0.33,-0.28,0.58,-0.74,0.76,-1.4c0.26,-0.98,0.39,-2.36,0.39,-4.14c0,-1.32,-0.14,-2.43,-0.41,-3.31c-0.21,-0.65,-0.47,-1.11,-0.8,-1.39c-0.24,-0.19,-0.52,-0.28,-0.84,-0.28c-0.4,0,-0.74,0.18,-1.05,0.53c-0.41,0.47,-0.68,1.21,-0.83,2.23c-0.15,1.02,-0.22,2.01,-0.22,2.99m8.87,3.86c0.27,0,0.5,0.09,0.68,0.27c0.18,0.18,0.27,0.41,0.27,0.68c0,0.26,-0.09,0.48,-0.28,0.66c-0.19,0.18,-0.41,0.27,-0.67,0.27c-0.26,0,-0.48,-0.09,-0.67,-0.27c-0.19,-0.18,-0.28,-0.4,-0.28,-0.66c0,-0.27,0.09,-0.5,0.28,-0.68c0.19,-0.18,0.41,-0.27,0.67,-0.27m10.84,-0.58l-0.81,2.23l-6.84,0l0,-0.31c2.01,-1.83,3.43,-3.33,4.25,-4.49c0.82,-1.16,1.23,-2.23,1.23,-3.2c0,-0.73,-0.23,-1.33,-0.68,-1.8c-0.45,-0.47,-0.99,-0.71,-1.62,-0.71c-0.57,0,-1.09,0.17,-1.54,0.5c-0.45,0.33,-0.78,0.82,-0.99,1.47l-0.33,0c0.15,-1.06,0.51,-1.87,1.1,-2.44c0.59,-0.56,1.33,-0.84,2.21,-0.84c0.94,0,1.72,0.3,2.35,0.91c0.63,0.6,0.95,1.32,0.95,2.14c0,0.58,-0.14,1.17,-0.41,1.75c-0.43,0.93,-1.11,1.91,-2.05,2.94c-1.43,1.55,-2.31,2.48,-2.66,2.8l3.02,0c0.61,0,1.05,-0.02,1.3,-0.06c0.25,-0.04,0.47,-0.13,0.67,-0.27c0.2,-0.14,0.37,-0.34,0.52,-0.6l0.33,0m8.56,-9.36l-0.66,1.45l-3.5,0l-0.75,1.56c1.51,0.22,2.7,0.78,3.58,1.69c0.76,0.77,1.14,1.68,1.14,2.73c0,0.6,-0.12,1.17,-0.37,1.69c-0.24,0.52,-0.56,0.96,-0.94,1.33c-0.38,0.36,-0.8,0.66,-1.26,0.87c-0.66,0.31,-1.33,0.47,-2.02,0.47c-0.7,0,-1.2,-0.12,-1.52,-0.35c-0.31,-0.23,-0.47,-0.5,-0.47,-0.79c0,-0.16,0.07,-0.29,0.2,-0.41c0.13,-0.12,0.29,-0.18,0.49,-0.18c0.15,0,0.27,0.02,0.38,0.06c0.11,0.04,0.3,0.16,0.57,0.34c0.43,0.3,0.86,0.45,1.3,0.45c0.67,0,1.25,-0.25,1.76,-0.76c0.51,-0.51,0.76,-1.12,0.76,-1.84c0,-0.71,-0.22,-1.36,-0.67,-1.97c-0.45,-0.6,-1.07,-1.07,-1.86,-1.41c-0.62,-0.26,-1.47,-0.41,-2.55,-0.44l2.22,-4.52l4.16,0" fill="#000000" stroke="none" fill-opacity="1"/>
<path d="m17.3,329.84c0,-1.32,0.2,-2.46,0.6,-3.41c0.4,-0.95,0.93,-1.66,1.59,-2.13c0.52,-0.37,1.05,-0.56,1.59,-0.56c0.9,0,1.69,0.45,2.39,1.36c0.89,1.12,1.33,2.65,1.33,4.56c0,1.34,-0.19,2.49,-0.58,3.43c-0.39,0.94,-0.88,1.62,-1.48,2.05c-0.6,0.42,-1.18,0.63,-1.73,0.63c-1.1,0,-2.03,-0.65,-2.77,-1.95c-0.62,-1.1,-0.94,-2.43,-0.94,-3.97m1.69,0.2c0,1.59,0.19,2.9,0.58,3.91c0.33,0.85,0.82,1.28,1.45,1.28c0.31,0,0.63,-0.14,0.96,-0.41c0.33,-0.28,0.58,-0.74,0.76,-1.4c0.26,-0.98,0.39,-2.36,0.39,-4.14c0,-1.32,-0.14,-2.43,-0.41,-3.31c-0.21,-0.65,-0.47,-1.11,-0.8,-1.39c-0.24,-0.19,-0.52,-0.28,-0.84,-0.28c-0.4,0,-0.74,0.18,-1.05,0.53c-0.41,0.47,-0.68,1.21,-0.83,2.23c-0.15,1.02,-0.22,2.01,-0.22,2.99m8.87,3.86c0.27,0,0.5,0.09,0.68,0.27c0.18,0.18,0.27,0.41,0.27,0.68c0,0.26,-0.09,0.48,-0.28,0.66c-0.19,0.18,-0.41,0.27,-0.67,0.27c-0.26,0,-0.48,-0.09,-0.67,-0.27c-0.19,-0.18,-0.28,-0.4,-0.28,-0.66c0,-0.27,0.09,-0.5,0.28,-0.68c0.19,-0.18,0.41,-0.27,0.67,-0.27m10.41,-9.94l-0.66,1.45l-3.5,0l-0.75,1.56c1.51,0.22,2.7,0.78,3.58,1.69c0.76,0.77,1.14,1.68,1.14,2.73c0,0.6,-0.12,1.17,-0.37,1.69c-0.24,0.52,-0.56,0.96,-0.94,1.33c-0.38,0.36,-0.8,0.66,-1.26,0.87c-0.66,0.31,-1.33,0.47,-2.02,0.47c-0.7,0,-1.2,-0.12,-1.52,-0.35c-0.31,-0.23,-0.47,-0.5,-0.47,-0.79c0,-0.16,0.07,-0.29,0.2,-0.41c0.13,-0.12,0.29,-0.18,0.49,-0.18c0.15,0,0.27,0.02,0.38,0.06c0.11,0.04,0.3,0.16,0.57,0.34c0.43,0.3,0.86,0.45,1.3,0.45c0.67,0,1.25,-0.25,1.76,-0.76c0.51,-0.51,0.76,-1.12,0.76,-1.84c0,-0.71,-0.22,-1.36,-0.67,-1.97c-0.45,-0.6,-1.07,-1.07,-1.86,-1.41c-0.62,-0.26,-1.47,-0.41,-2.55,-0.44l2.22,-4.52l4.16,0" fill="#000000" stroke="none" fill-opacity="1"/>
<path d="m8.3,249.23c0,-1.32,0.2,-2.46,0.6,-3.41c0.4,-0.95,0.93,-1.66,1.59,-2.13c0.52,-0.37,1.05,-0.56,1.59,-0.56c0.9,0,1.69,0.45,2.39,1.36c0.89,1.12,1.33,2.65,1.33,4.56c0,1.34,-0.19,2.49,-0.58,3.43c-0.39,0.94,-0.88,1.62,-1.48,2.05c-0.6,0.42,-1.18,0.63,-1.73,0.63c-1.1,0,-2.03,-0.65,-2.77,-1.95c-0.62,-1.1,-0.94,-2.43,-0.94,-3.97m1.69,0.2c0,1.59,0.19,2.9,0.58,3.91c0.33,0.85,0.82,1.28,1.45,1.28c0.31,0,0.63,-0.14,0.96,-0.41c0.33,-0.28,0.58,-0.74,0.76,-1.4c0.26,-0.98,0.39,-2.36,0.39,-4.14c0,-1.32,-0.14,-2.43,-0.41,-3.31c-0.21,-0.65,-0.47,-1.11,-0.8,-1.39c-0.24,-0.19,-0.52,-0.28,-0.84,-0.28c-0.4,0,-0.74,0.18,-1.05,0.53c-0.41,0.47,-0.68,1.21,-0.83,2.23c-0.15,1.02,-0.22,2.01,-0.22,2.99m8.87,3.86c0.27,0,0.5,0.09,0.68,0.27c0.18,0.18,0.27,0.41,0.27,0.68c0,0.26,-0.09,0.48,-0.28,0.66c-0.19,0.18,-0.41,0.27,-0.67,0.27c-0.26,0,-0.48,-0.09,-0.67,-0.27c-0.19,-0.18,-0.28,-0.4,-0.28,-0.66c0,-0.27,0.09,-0.5,0.28,-0.68c0.19,-0.18,0.41,-0.27,0.67,-0.27m4.58,-9.94l6.2,0l0,0.33l-3.86,11.5l-0.95,0l3.45,-10.42l-3.19,0c-0.64,0,-1.09,0.07,-1.37,0.22c-0.48,0.26,-0.86,0.67,-1.16,1.22l-0.23,-0.09l1.11,-2.75m14.83,0l-0.66,1.45l-3.5,0l-0.75,1.56c1.51,0.22,2.7,0.78,3.58,1.69c0.76,0.77,1.14,1.68,1.14,2.73c0,0.6,-0.12,1.17,-0.37,1.69c-0.24,0.52,-0.56,0.96,-0.94,1.33c-0.38,0.36,-0.8,0.66,-1.26,0.87c-0.66,0.31,-1.33,0.47,-2.02,0.47c-0.7,0,-1.2,-0.12,-1.52,-0.35c-0.31,-0.23,-0.47,-0.5,-0.47,-0.79c0,-0.16,0.07,-0.29,0.2,-0.41c0.13,-0.12,0.29,-0.18,0.49,-0.18c0.15,0,0.27,0.02,0.38,0.06c0.11,0.04,0.3,0.16,0.57,0.34c0.43,0.3,0.86,0.45,1.3,0.45c0.67,0,1.25,-0.25,1.76,-0.76c0.51,-0.51,0.76,-1.12,0.76,-1.84c0,-0.71,-0.22,-1.36,-0.67,-1.97c-0.45,-0.6,-1.07,-1.07,-1.86,-1.41c-0.62,-0.26,-1.47,-0.41,-2.55,-0.44l2.22,-4.52l4.16,0" fill="#000000" stroke="none" fill-opacity="1"/>
<path d="m32.72,163.89l2.83,-1.37l0.28,0l0,9.78c0,0.66,0.03,1.06,0.08,1.22c0.05,0.16,0.16,0.28,0.34,0.37c0.17,0.09,0.52,0.14,1.04,0.15l0,0.31l-4.36,0l0,-0.31c0.55,-0.01,0.91,-0.06,1.07,-0.14c0.16,-0.08,0.27,-0.2,0.34,-0.34c0.06,-0.14,0.09,-0.56,0.09,-1.26l0,-6.25c0,-0.84,-0.03,-1.39,-0.09,-1.62c-0.04,-0.18,-0.11,-0.31,-0.22,-0.4c-0.1,-0.09,-0.23,-0.13,-0.37,-0.13c-0.21,0,-0.51,0.09,-0.89,0.27l-0.12,-0.27" fill="#000000" stroke="none" fill-opacity="1"/>
<path d="m9.72,83.27l2.83,-1.37l0.28,0l0,9.78c0,0.66,0.03,1.06,0.08,1.22c0.05,0.16,0.16,0.28,0.34,0.37c0.17,0.09,0.52,0.14,1.04,0.15l0,0.31l-4.36,0l0,-0.31c0.55,-0.01,0.91,-0.06,1.07,-0.14c0.16,-0.08,0.27,-0.2,0.34,-0.34c0.06,-0.14,0.09,-0.56,0.09,-1.26l0,-6.25c0,-0.84,-0.03,-1.39,-0.09,-1.62c-0.04,-0.18,-0.11,-0.31,-0.22,-0.4c-0.1,-0.09,-0.23,-0.13,-0.37,-0.13c-0.21,0,-0.51,0.09,-0.89,0.27l-0.12,-0.27m9.14,8.8c0.27,0,0.5,0.09,0.68,0.27c0.18,0.18,0.27,0.41,0.27,0.68c0,0.26,-0.09,0.48,-0.28,0.66c-0.19,0.18,-0.41,0.27,-0.67,0.27c-0.26,0,-0.48,-0.09,-0.67,-0.27c-0.19,-0.18,-0.28,-0.4,-0.28,-0.66c0,-0.27,0.09,-0.5,0.28,-0.68c0.19,-0.18,0.41,-0.27,0.67,-0.27m10.84,-0.58l-0.81,2.23l-6.84,0l0,-0.31c2.01,-1.83,3.43,-3.33,4.25,-4.49c0.82,-1.16,1.23,-2.23,1.23,-3.2c0,-0.73,-0.23,-1.33,-0.68,-1.8c-0.45,-0.47,-0.99,-0.71,-1.62,-0.71c-0.57,0,-1.09,0.17,-1.54,0.5c-0.45,0.33,-0.78,0.82,-0.99,1.47l-0.33,0c0.15,-1.06,0.51,-1.87,1.1,-2.44c0.59,-0.56,1.33,-0.84,2.21,-0.84c0.94,0,1.72,0.3,2.35,0.91c0.63,0.6,0.95,1.32,0.95,2.14c0,0.58,-0.14,1.17,-0.41,1.75c-0.43,0.93,-1.11,1.91,-2.05,2.94c-1.43,1.55,-2.31,2.48,-2.66,2.8l3.02,0c0.61,0,1.05,-0.02,1.3,-0.06c0.25,-0.04,0.47,-0.13,0.67,-0.27c0.2,-0.14,0.37,-0.34,0.52,-0.6l0.33,0m8.56,-9.36l-0.66,1.45l-3.5,0l-0.75,1.56c1.51,0.22,2.7,0.78,3.58,1.69c0.76,0.77,1.14,1.68,1.14,2.73c0,0.6,-0.12,1.17,-0.37,1.69c-0.24,0.52,-0.56,0.96,-0.94,1.33c-0.38,0.36,-0.8,0.66,-1.26,0.87c-0.66,0.31,-1.33,0.47,-2.02,0.47c-0.7,0,-1.2,-0.12,-1.52,-0.35c-0.31,-0.23,-0.47,-0.5,-0.47,-0.79c0,-0.16,0.07,-0.29,0.2,-0.41c0.13,-0.12,0.29,-0.18,0.49,-0.18c0.15,0,0.27,0.02,0.38,0.06c0.11,0.04,0.3,0.16,0.57,0.34c0.43,0.3,0.86,0.45,1.3,0.45c0.67,0,1.25,-0.25,1.76,-0.76c0.51,-0.51,0.76,-1.12,0.76,-1.84c0,-0.71,-0.22,-1.36,-0.67,-1.97c-0.45,-0.6,-1.07,-1.07,-1.86,-1.41c-0.62,-0.26,-1.47,-0.41,-2.55,-0.44l2.22,-4.52l4.16,0" fill="#000000" stroke="none" fill-opacity="1"/>
<path d="m18.72,5.55l2.83,-1.37l0.28,0l0,9.78c0,0.66,0.03,1.06,0.08,1.22c0.05,0.16,0.16,0.28,0.34,0.37c0.17,0.09,0.52,0.14,1.04,0.15l0,0.31l-4.36,0l0,-0.31c0.55,-0.01,0.91,-0.06,1.07,-0.14c0.16,-0.08,0.27,-0.2,0.34,-0.34c0.06,-0.14,0.09,-0.56,0.09,-1.26l0,-6.25c0,-0.84,-0.03,-1.39,-0.09,-1.62c-0.04,-0.18,-0.11,-0.31,-0.22,-0.4c-0.1,-0.09,-0.23,-0.13,-0.37,-0.13c-0.21,0,-0.51,0.09,-0.89,0.27l-0.12,-0.27m9.14,8.8c0.27,0,0.5,0.09,0.68,0.27c0.18,0.18,0.27,0.41,0.27,0.68c0,0.26,-0.09,0.48,-0.28,0.66c-0.19,0.18,-0.41,0.27,-0.67,0.27c-0.26,0,-0.48,-0.09,-0.67,-0.27c-0.19,-0.18,-0.28,-0.4,-0.28,-0.66c0,-0.27,0.09,-0.5,0.28,-0.68c0.19,-0.18,0.41,-0.27,0.67,-0.27m10.41,-9.94l-0.66,1.45l-3.5,0l-0.75,1.56c1.51,0.22,2.7,0.78,3.58,1.69c0.76,0.77,1.14,1.68,1.14,2.73c0,0.6,-0.12,1.17,-0.37,1.69c-0.24,0.52,-0.56,0.96,-0.94,1.33c-0.38,0.36,-0.8,0.66,-1.26,0.87c-0.66,0.31,-1.33,0.47,-2.02,0.47c-0.7,0,-1.2,-0.12,-1.52,-0.35c-0.31,-0.23,-0.47,-0.5,-0.47,-0.79c0,-0.16,0.07,-0.29,0.2,-0.41c0.13,-0.12,0.29,-0.18,0.49,-0.18c0.15,0,0.27,0.02,0.38,0.06c0.11,0.04,0.3,0.16,0.57,0.34c0.43,0.3,0.86,0.45,1.3,0.45c0.67,0,1.25,-0.25,1.76,-0.76c0.51,-0.51,0.76,-1.12,0.76,-1.84c0,-0.71,-0.22,-1.36,-0.67,-1.97c-0.45,-0.6,-1.07,-1.07,-1.86,-1.41c-0.62,-0.26,-1.47,-0.41,-2.55,-0.44l2.22,-4.52l4.16,0" fill="#000000" stroke="none" fill-opacity="1"/>
</g>
<g stroke-width="0.62" stroke-linecap="butt" fill="none">
<path d="M42.68,490.81l483.7,0"/>
<path d="M42.68,490.81l0,-3.75M66.86,490.81l0,-3.75M91.05,490.81l0,-3.75M115.23,490.81l0,-3.75M139.42,490.81l0,-3.75M163.6,490.81l0,-3.75M187.79,490.81l0,-3.75M211.97,490.81l0,-3.75M236.16,490.81l0,-3.75M260.34,490.81l0,-3.75M284.53,490.81l0,-3.75M308.71,490.81l0,-3.75M332.9,490.81l0,-3.75M357.08,490.81l0,-3.75M381.27,490.81l0,-3.75M405.45,490.81l0,-3.75M429.64,490.81l0,-3.75M453.82,490.81l0,-3.75M478.01,490.81l0,-3.75M502.19,490.81l0,-3.75M526.38,490.81l0,-3.75"/>
<path d="M42.68,490.81l0,-7.5M139.42,490.81l0,-7.5M236.16,490.81l0,-7.5M332.9,490.81l0,-7.5M429.64,490.81l0,-7.5M526.38,490.81l0,-7.5"/>
<path d="M42.68,7.11l483.7,0"/>
<path d="M42.68,7.11l0,3.75M66.86,7.11l0,3.75M91.05,7.11l0,3.75M115.23,7.11l0,3.75M139.42,7.11l0,3.75M163.6,7.11l0,3.75M187.79,7.11l0,3.75M211.97,7.11l0,3.75M236.16,7.11l0,3.75M260.34,7.11l0,3.75M284.53,7.11l0,3.75M308.71,7.11l0,3.75M332.9,7.11l0,3.75M357.08,7.11l0,3.75M381.27,7.11l0,3.75M405.45,7.11l0,3.75M429.64,7.11l0,3.75M453.82,7.11l0,3.75M478.01,7.11l0,3.75M502.19,7.11l0,3.75M526.38,7.11l0,3.75"/>
<path d="M42.68,7.11l0,7.5M139.42,7.11l0,7.5M236.16,7.11l0,7.5M332.9,7.11l0,7.5M429.64,7.11l0,7.5M526.38,7.11l0,7.5"/>
</g>
<g stroke-width="1" fill="none">
<path d="m38.8,504.08c0,-1.32,0.2,-2.46,0.6,-3.41c0.4,-0.95,0.93,-1.66,1.59,-2.13c0.52,-0.37,1.05,-0.56,1.59,-0.56c0.9,0,1.69,0.45,2.39,1.36c0.89,1.12,1.33,2.65,1.33,4.56c0,1.34,-0.19,2.49,-0.58,3.43c-0.39,0.94,-0.88,1.62,-1.48,2.05c-0.6,0.42,-1.18,0.63,-1.73,0.63c-1.1,0,-2.03,-0.65,-2.77,-1.95c-0.62,-1.1,-0.94,-2.43,-0.94,-3.97m1.69,0.2c0,1.59,0.19,2.9,0.58,3.91c0.33,0.85,0.82,1.28,1.45,1.28c0.31,0,0.63,-0.14,0.96,-0.41c0.33,-0.28,0.58,-0.74,0.76,-1.4c0.26,-0.98,0.39,-2.36,0.39,-4.14c0,-1.32,-0.14,-2.43,-0.41,-3.31c-0.21,-0.65,-0.47,-1.11,-0.8,-1.39c-0.24,-0.19,-0.52,-0.28,-0.84,-0.28c-0.4,0,-0.74,0.18,-1.05,0.53c-0.41,0.47,-0.68,1.21,-0.83,2.23c-0.15,1.02,-0.22,2.01,-0.22,2.99" fill="#000000" stroke="none" fill-opacity="1"/>
<path d="m128.53,504.08c0,-1.32,0.2,-2.46,0.6,-3.41c0.4,-0.95,0.93,-1.66,1.59,-2.13c0.52,-0.37,1.05,-0.56,1.59,-0.56c0.9,0,1.69,0.45,2.39,1.36c0.89,1.12,1.33,2.65,1.33,4.56c0,1.34,-0.19,2.49,-0.58,3.43c-0.39,0.94,-0.88,1.62,-1.48,2.05c-0.6,0.42,-1.18,0.63,-1.73,0.63c-1.1,0,-2.03,-0.65,-2.77,-1.95c-0.62,-1.1,-0.94,-2.43,-0.94,-3.97m1.69,0.2c0,1.59,0.19,2.9,0.58,3.91c0.33,0.85,0.82,1.28,1.45,1.28c0.31,0,0.63,-0.14,0.96,-0.41c0.33,-0.28,0.58,-0.74,0.76,-1.4c0.26,-0.98,0.39,-2.36,0.39,-4.14c0,-1.32,-0.14,-2.43,-0.41,-3.31c-0.21,-0.65,-0.47,-1.11,-0.8,-1.39c-0.24,-0.19,-0.52,-0.28,-0.84,-0.28c-0.4,0,-0.74,0.18,-1.05,0.53c-0.41,0.47,-0.68,1.21,-0.83,2.23c-0.15,1.02,-0.22,2.01,-0.22,2.99m8.87,3.86c0.27,0,0.5,0.09,0.68,0.27c0.18,0.18,0.27,0.41,0.27,0.68c0,0.26,-0.09,0.48,-0.28,0.66c-0.19,0.18,-0.41,0.27,-0.67,0.27c-0.26,0,-0.48,-0.09,-0.67,-0.27c-0.19,-0.18,-0.28,-0.4,-0.28,-0.66c0,-0.27,0.09,-0.5,0.28,-0.68c0.19,-0.18,0.41,-0.27,0.67,-0.27m10.84,-0.58l-0.81,2.23l-6.84,0l0,-0.31c2.01,-1.83,3.43,-3.33,4.25,-4.49c0.82,-1.16,1.23,-2.23,1.23,-3.2c0,-0.73,-0.23,-1.33,-0.68,-1.8c-0.45,-0.47,-0.99,-0.71,-1.62,-0.71c-0.57,0,-1.09,0.17,-1.54,0.5c-0.45,0.33,-0.78,0.82,-0.99,1.47l-0.33,0c0.15,-1.06,0.51,-1.87,1.1,-2.44c0.59,-0.56,1.33,-0.84,2.21,-0.84c0.94,0,1.72,0.3,2.35,0.91c0.63,0.6,0.95,1.32,0.95,2.14c0,0.58,-0.14,1.17,-0.41,1.75c-0.43,0.93,-1.11,1.91,-2.05,2.94c-1.43,1.55,-2.31,2.48,-2.66,2.8l3.02,0c0.61,0,1.05,-0.02,1.3,-0.06c0.25,-0.04,0.47,-0.13,0.67,-0.27c0.2,-0.14,0.37,-0.34,0.52,-0.6l0.33,0" fill="#000000" stroke="none" fill-opacity="1"/>
<path d="m225.28,504.08c0,-1.32,0.2,-2.46,0.6,-3.41c0.4,-0.95,0.93,-1.66,1.59,-2.13c0.52,-0.37,1.05,-0.56,1.59,-0.56c0.9,0,1.69,0.45,2.39,1.36c0.89,1.12,1.33,2.65,1.33,4.56c0,1.34,-0.19,2.49,-0.58,3.43c-0.39,0.94,-0.88,1.62,-1.48,2.05c-0.6,0.42,-1.18,0.63,-1.73,0.63c-1.1,0,-2.03,-0.65,-2.77,-1.95c-0.62,-1.1,-0.94,-2.43,-0.94,-3.97m1.69,0.2c0,1.59,0.19,2.9,0.58,3.91c0.33,0.85,0.82,1.28,1.45,1.28c0.31,0,0.63,-0.14,0.96,-0.41c0.33,-0.28,0.58,-0.74,0.76,-1.4c0.26,-0.98,0.39,-2.36,0.39,-4.14c0,-1.32,-0.14,-2.43,-0.41,-3.31c-0.21,-0.65,-0.47,-1.11,-0.8,-1.39c-0.24,-0.19,-0.52,-0.28,-0.84,-0.28c-0.4,0,-0.74,0.18,-1.05,0.53c-0.41,0.47,-0.68,1.21,-0.83,2.23c-0.15,1.02,-0.22,2.01,-0.22,2.99m8.87,3.86c0.27,0,0.5,0.09,0.68,0.27c0.18,0.18,0.27,0.41,0.27,0.68c0,0.26,-0.09,0.48,-0.28,0.66c-0.19,0.18,-0.41,0.27,-0.67,0.27c-0.26,0,-0.48,-0.09,-0.67,-0.27c-0.19,-0.18,-0.28,-0.4,-0.28,-0.66c0,-0.27,0.09,-0.5,0.28,-0.68c0.19,-0.18,0.41,-0.27,0.67,-0.27m10.95,-2.61l0,1.2l-1.55,0l0,3.06l-1.42,0l0,-3.06l-4.89,0l0,-1.09l5.36,-7.67l0.95,0l0,7.56l1.55,0m-2.97,0l0,-5.75l-4.06,5.75l4.06,0" fill="#000000" stroke="none" fill-opacity="1"/>
<path d="m322.02,504.08c0,-1.32,0.2,-2.46,0.6,-3.41c0.4,-0.95,0.93,-1.66,1.59,-2.13c0.52,-0.37,1.05,-0.56,1.59,-0.56c0.9,0,1.69,0.45,2.39,1.36c0.89,1.12,1.33,2.65,1.33,4.56c0,1.34,-0.19,2.49,-0.58,3.43c-0.39,0.94,-0.88,1.62,-1.48,2.05c-0.6,0.42,-1.18,0.63,-1.73,0.63c-1.1,0,-2.03,-0.65,-2.77,-1.95c-0.62,-1.1,-0.94,-2.43,-0.94,-3.97m1.69,0.2c0,1.59,0.19,2.9,0.58,3.91c0.33,0.85,0.82,1.28,1.45,1.28c0.31,0,0.63,-0.14,0.96,-0.41c0.33,-0.28,0.58,-0.74,0.76,-1.4c0.26,-0.98,0.39,-2.36,0.39,-4.14c0,-1.32,-0.14,-2.43,-0.41,-3.31c-0.21,-0.65,-0.47,-1.11,-0.8,-1.39c-0.24,-0.19,-0.52,-0.28,-0.84,-0.28c-0.4,0,-0.74,0.18,-1.05,0.53c-0.41,0.47,-0.68,1.21,-0.83,2.23c-0.15,1.02,-0.22,2.01,-0.22,2.99m8.87,3.86c0.27,0,0.5,0.09,0.68,0.27c0.18,0.18,0.27,0.41,0.27,0.68c0,0.26,-0.09,0.48,-0.28,0.66c-0.19,0.18,-0.41,0.27,-0.67,0.27c-0.26,0,-0.48,-0.09,-0.67,-0.27c-0.19,-0.18,-0.28,-0.4,-0.28,-0.66c0,-0.27,0.09,-0.5,0.28,-0.68c0.19,-0.18,0.41,-0.27,0.67,-0.27m10.66,-10.17l0,0.31c-0.75,0.07,-1.36,0.22,-1.84,0.45c-0.47,0.23,-0.95,0.57,-1.41,1.03c-0.47,0.46,-0.85,0.97,-1.16,1.54c-0.3,0.57,-0.56,1.24,-0.77,2.02c0.82,-0.56,1.65,-0.84,2.47,-0.84c0.79,0,1.48,0.32,2.06,0.95c0.58,0.64,0.87,1.46,0.87,2.47c0,0.97,-0.3,1.85,-0.89,2.64c-0.7,0.97,-1.63,1.45,-2.8,1.45c-0.79,0,-1.46,-0.26,-2.02,-0.78c-1.08,-1.02,-1.62,-2.34,-1.62,-3.97c0,-1.03,0.21,-2.02,0.62,-2.95c0.42,-0.94,1.01,-1.77,1.78,-2.49c0.77,-0.72,1.51,-1.21,2.22,-1.46c0.71,-0.25,1.36,-0.37,1.97,-0.37l0.5,0m-5.31,5.98c-0.1,0.77,-0.16,1.39,-0.16,1.86c0,0.55,0.1,1.15,0.3,1.79c0.2,0.64,0.5,1.15,0.9,1.52c0.29,0.26,0.65,0.39,1.06,0.39c0.5,0,0.94,-0.23,1.33,-0.7c0.39,-0.46,0.58,-1.13,0.58,-1.99c0,-0.98,-0.19,-1.83,-0.58,-2.54c-0.39,-0.71,-0.93,-1.07,-1.64,-1.07c-0.22,0,-0.45,0.05,-0.7,0.14c-0.25,0.09,-0.61,0.29,-1.09,0.59" fill="#000000" stroke="none" fill-opacity="1"/>
<path d="m418.75,504.08c0,-1.32,0.2,-2.46,0.6,-3.41c0.4,-0.95,0.93,-1.66,1.59,-2.13c0.52,-0.37,1.05,-0.56,1.59,-0.56c0.9,0,1.69,0.45,2.39,1.36c0.89,1.12,1.33,2.65,1.33,4.56c0,1.34,-0.19,2.49,-0.58,3.43c-0.39,0.94,-0.88,1.62,-1.48,2.05c-0.6,0.42,-1.18,0.63,-1.73,0.63c-1.1,0,-2.03,-0.65,-2.77,-1.95c-0.62,-1.1,-0.94,-2.43,-0.94,-3.97m1.69,0.2c0,1.59,0.19,2.9,0.58,3.91c0.33,0.85,0.82,1.28,1.45,1.28c0.31,0,0.63,-0.14,0.96,-0.41c0.33,-0.28,0.58,-0.74,0.76,-1.4c0.26,-0.98,0.39,-2.36,0.39,-4.14c0,-1.32,-0.14,-2.43,-0.41,-3.31c-0.21,-0.65,-0.47,-1.11,-0.8,-1.39c-0.24,-0.19,-0.52,-0.28,-0.84,-0.28c-0.4,0,-0.74,0.18,-1.05,0.53c-0.41,0.47,-0.68,1.21,-0.83,2.23c-0.15,1.02,-0.22,2.01,-0.22,2.99m8.87,3.86c0.27,0,0.5,0.09,0.68,0.27c0.18,0.18,0.27,0.41,0.27,0.68c0,0.26,-0.09,0.48,-0.28,0.66c-0.19,0.18,-0.41,0.27,-0.67,0.27c-0.26,0,-0.48,-0.09,-0.67,-0.27c-0.19,-0.18,-0.28,-0.4,-0.28,-0.66c0,-0.27,0.09,-0.5,0.28,-0.68c0.19,-0.18,0.41,-0.27,0.67,-0.27m6.17,-4.19c-0.92,-0.75,-1.51,-1.35,-1.77,-1.8c-0.27,-0.45,-0.4,-0.92,-0.4,-1.41c0,-0.75,0.29,-1.4,0.87,-1.95c0.58,-0.55,1.35,-0.82,2.31,-0.82c0.94,0,1.69,0.25,2.26,0.76c0.57,0.51,0.85,1.09,0.85,1.74c0,0.43,-0.15,0.87,-0.46,1.32c-0.31,0.45,-0.95,0.98,-1.93,1.59c1.01,0.78,1.68,1.39,2,1.83c0.43,0.58,0.64,1.2,0.64,1.84c0,0.81,-0.31,1.51,-0.93,2.09c-0.62,0.58,-1.43,0.87,-2.45,0.87c-1.09,0,-1.95,-0.34,-2.56,-1.03c-0.49,-0.55,-0.73,-1.16,-0.73,-1.81c0,-0.51,0.17,-1.02,0.52,-1.52c0.34,-0.51,0.94,-1.07,1.78,-1.68m1.34,-0.91c0.68,-0.61,1.11,-1.1,1.29,-1.45c0.18,-0.35,0.27,-0.76,0.27,-1.22c0,-0.59,-0.17,-1.06,-0.5,-1.4c-0.33,-0.34,-0.79,-0.51,-1.37,-0.51c-0.58,0,-1.06,0.17,-1.42,0.5c-0.36,0.33,-0.55,0.73,-0.55,1.19c0,0.29,0.08,0.59,0.23,0.88c0.15,0.3,0.37,0.58,0.65,0.85l1.41,1.16m-0.94,1.23c-0.48,0.41,-0.83,0.84,-1.06,1.31c-0.23,0.47,-0.34,0.97,-0.34,1.52c0,0.74,0.2,1.33,0.61,1.77c0.41,0.44,0.92,0.66,1.53,0.66c0.61,0,1.11,-0.17,1.48,-0.52c0.37,-0.35,0.55,-0.77,0.55,-1.27c0,-0.41,-0.1,-0.77,-0.31,-1.09c-0.41,-0.6,-1.22,-1.4,-2.45,-2.37" fill="#000000" stroke="none" fill-opacity="1"/>
<path d="m523.92,499.34l2.83,-1.37l0.28,0l0,9.78c0,0.66,0.03,1.06,0.08,1.22c0.05,0.16,0.16,0.28,0.34,0.37c0.17,0.09,0.52,0.14,1.04,0.15l0,0.31l-4.36,0l0,-0.31c0.55,-0.01,0.91,-0.06,1.07,-0.14c0.16,-0.08,0.27,-0.2,0.34,-0.34c0.06,-0.14,0.09,-0.56,0.09,-1.26l0,-6.25c0,-0.84,-0.03,-1.39,-0.09,-1.62c-0.04,-0.18,-0.11,-0.31,-0.22,-0.4c-0.1,-0.09,-0.23,-0.13,-0.37,-0.13c-0.21,0,-0.51,0.09,-0.89,0.27l-0.12,-0.27" fill="#000000" stroke="none" fill-opacity="1"/>
</g>
</g>
</g>
<defs>
<clipPath id="c0"><path d="m0,0l533.49,0l0,533.49l-533.49,0l0,-533.49"/></clipPath>
<clipPath id="c1"><path d="m42.68,7.11l483.7,0l0,483.7l-483.7,0l0,-483.7"/></clipPath>
</defs>
</svg>
