<?xml version="1.0" standalone="no"?>
<!DOCTYPE svg PUBLIC "-//W3C//DTD SVG 1.1//EN" 
  "http://www.w3.org/Graphics/SVG/1.1/DTD/svg11.dtd">
<svg width="533.49px" height="533.49px" version="1.1"
     xmlns="http://www.w3.org/2000/svg"
     xmlns:xlink="http://www.w3.org/1999/xlink">
<desc>Veusz output document</desc>
<g stroke-linejoin="bevel" stroke-linecap="square" stroke="#000000" fill-rule="evenodd">
<g clip-path="url(#c0)">
<g stroke-width="0.62" fill="#ffffff">
<path d="m60.46,7.11l465.91,0l0,465.91l-465.91,0l0,-465.91"/>
</g>
</g>
<g clip-path="url(#c1)">
<g stroke="#ff0000" stroke-width="0.62" fill="none">
<polyline fill="none" points="60.46,240.07 69.97,206.9 79.48,174.41 88.99,143.26 98.5,114.08 108,87.47 117.51,63.96 127.02,44.04 136.53,28.12 146.04,16.52 155.55,9.47 165.06,7.11 174.56,9.51 184.07,16.6 193.58,28.24 203.09,44.2 212.6,64.15 222.11,87.69 231.61,114.33 241.12,143.53 250.63,174.7 260.14,207.2 269.65,240.36 279.16,273.53 288.66,306.01 298.17,337.15 307.68,366.31 317.19,392.9 326.7,416.37 336.21,436.26 345.72,452.14 355.22,463.71 364.73,470.72 374.24,473.03 383.75,470.59 393.26,463.46 402.77,451.77 412.27,435.78 421.78,415.79 431.29,392.23 440.8,365.57 450.31,336.34 459.82,305.16 469.33,272.65 478.83,239.48 488.34,206.32 497.85,173.85 507.36,142.72 516.87,113.58 526.38,87.02"/>
</g>
<g stroke-width="0.62" fill="none">
<polyline fill="none" points="60.46,240.07 88.34,145.32 116.22,66.95 144.1,18.51 171.98,8.39 199.86,38.32 227.74,103.14 255.62,191.64 283.5,288.5 311.38,377 339.26,441.82 367.14,471.75 395.02,461.63 422.9,413.19 450.79,334.82 478.67,240.07"/>
</g>
<g stroke-linejoin="miter" stroke-width="0.62" transform="translate(60.46, 240.07)" fill="#00ffff">
<path d="m3.75,0c0,2.07,-1.68,3.75,-3.75,3.75c-2.07,0,-3.75,-1.68,-3.75,-3.75c0,-2.07,1.68,-3.75,3.75,-3.75c2.07,0,3.75,1.68,3.75,3.75"/>
</g>
<g stroke-linejoin="miter" stroke-width="0.62" transform="translate(88.34, 145.32)" fill="#00ffff">
<path d="m3.75,0c0,2.07,-1.68,3.75,-3.75,3.75c-2.07,0,-3.75,-1.68,-3.75,-3.75c0,-2.07,1.68,-3.75,3.75,-3.75c2.07,0,3.75,1.68,3.75,3.75"/>
</g>
<g stroke-linejoin="miter" stroke-width="0.62" transform="translate(116.22, 66.95)" fill="#00ffff">
<path d="m3.75,0c0,2.07,-1.68,3.75,-3.75,3.75c-2.07,0,-3.75,-1.68,-3.75,-3.75c0,-2.07,1.68,-3.75,3.75,-3.75c2.07,0,3.75,1.68,3.75,3.75"/>
</g>
<g stroke-linejoin="miter" stroke-width="0.62" transform="translate(144.1, 18.51)" fill="#00ffff">
<path d="m3.75,0c0,2.07,-1.68,3.75,-3.75,3.75c-2.07,0,-3.75,-1.68,-3.75,-3.75c0,-2.07,1.68,-3.75,3.75,-3.75c2.07,0,3.75,1.68,3.75,3.75"/>
</g>
<g stroke-linejoin="miter" stroke-width="0.62" transform="translate(171.98, 8.39)" fill="#00ffff">
<path d="m3.75,0c0,2.07,-1.68,3.75,-3.75,3.75c-2.07,0,-3.75,-1.68,-3.75,-3.75c0,-2.07,1.68,-3.75,3.75,-3.75c2.07,0,3.75,1.68,3.75,3.75"/>
</g>
<g stroke-linejoin="miter" stroke-width="0.62" transform="translate(199.86, 38.32)" fill="#00ffff">
<path d="m3.75,0c0,2.07,-1.68,3.75,-3.75,3.75c-2.07,0,-3.75,-1.68,-3.75,-3.75c0,-2.07,1.68,-3.75,3.75,-3.75c2.07,0,3.75,1.68,3.75,3.75"/>
</g>
<g stroke-linejoin="miter" stroke-width="0.62" transform="translate(227.74, 103.14)" fill="#00ffff">
<path d="m3.75,0c0,2.07,-1.68,3.75,-3.75,3.75c-2.07,0,-3.75,-1.68,-3.75,-3.75c0,-2.07,1.68,-3.75,3.75,-3.75c2.07,0,3.75,1.68,3.75,3.75"/>
</g>
<g stroke-linejoin="miter" stroke-width="0.62" transform="translate(255.62, 191.64)" fill="#00ffff">
<path d="m3.75,0c0,2.07,-1.68,3.75,-3.75,3.75c-2.07,0,-3.75,-1.68,-3.75,-3.75c0,-2.07,1.68,-3.75,3.75,-3.75c2.07,0,3.75,1.68,3.75,3.75"/>
</g>
<g stroke-linejoin="miter" stroke-width="0.62" transform="translate(283.5, 288.5)" fill="#00ffff">
<path d="m3.75,0c0,2.07,-1.68,3.75,-3.75,3.75c-2.07,0,-3.75,-1.68,-3.75,-3.75c0,-2.07,1.68,-3.75,3.75,-3.75c2.07,0,3.75,1.68,3.75,3.75"/>
</g>
<g stroke-linejoin="miter" stroke-width="0.62" transform="translate(311.38, 377)" fill="#00ffff">
<path d="m3.75,0c0,2.07,-1.68,3.75,-3.75,3.75c-2.07,0,-3.75,-1.68,-3.75,-3.75c0,-2.07,1.68,-3.75,3.75,-3.75c2.07,0,3.75,1.68,3.75,3.75"/>
</g>
<g stroke-linejoin="miter" stroke-width="0.62" transform="translate(339.26, 441.82)" fill="#00ffff">
<path d="m3.75,0c0,2.07,-1.68,3.75,-3.75,3.75c-2.07,0,-3.75,-1.68,-3.75,-3.75c0,-2.07,1.68,-3.75,3.75,-3.75c2.07,0,3.75,1.68,3.75,3.75"/>
</g>
<g stroke-linejoin="miter" stroke-width="0.62" transform="translate(367.14, 471.75)" fill="#00ffff">
<path d="m3.75,0c0,2.07,-1.68,3.75,-3.75,3.75c-2.07,0,-3.75,-1.68,-3.75,-3.75c0,-2.07,1.68,-3.75,3.75,-3.75c2.07,0,3.75,1.68,3.75,3.75"/>
</g>
<g stroke-linejoin="miter" stroke-width="0.62" transform="translate(395.02, 461.63)" fill="#00ffff">
<path d="m3.75,0c0,2.07,-1.68,3.75,-3.75,3.75c-2.07,0,-3.75,-1.68,-3.75,-3.75c0,-2.07,1.68,-3.75,3.75,-3.75c2.07,0,3.75,1.68,3.75,3.75"/>
</g>
<g stroke-linejoin="miter" stroke-width="0.62" transform="translate(422.9, 413.19)" fill="#00ffff">
<path d="m3.75,0c0,2.07,-1.68,3.75,-3.75,3.75c-2.07,0,-3.75,-1.68,-3.75,-3.75c0,-2.07,1.68,-3.75,3.75,-3.75c2.07,0,3.75,1.68,3.75,3.75"/>
</g>
<g stroke-linejoin="miter" stroke-width="0.62" transform="translate(450.79, 334.82)" fill="#00ffff">
<path d="m3.75,0c0,2.07,-1.68,3.75,-3.75,3.75c-2.07,0,-3.75,-1.68,-3.75,-3.75c0,-2.07,1.68,-3.75,3.75,-3.75c2.07,0,3.75,1.68,3.75,3.75"/>
</g>
<g stroke-linejoin="miter" stroke-width="0.62" transform="translate(478.67, 240.07)" fill="#00ffff">
<path d="m3.75,0c0,2.07,-1.68,3.75,-3.75,3.75c-2.07,0,-3.75,-1.68,-3.75,-3.75c0,-2.07,1.68,-3.75,3.75,-3.75c2.07,0,3.75,1.68,3.75,3.75"/>
</g>
</g>
<g clip-path="url(#c0)">
<g stroke-width="0.62" stroke-linecap="butt" fill="none">
<path d="M60.46,473.03l0,-465.91"/>
<path d="M60.46,473.03l3.75,0M60.46,449.73l3.75,0M60.46,426.44l3.75,0M60.46,403.14l3.75,0M60.46,379.84l3.75,0M60.46,356.55l3.75,0M60.46,333.25l3.75,0M60.46,309.96l3.75,0M60.46,286.66l3.75,0M60.46,263.37l3.75,0M60.46,240.07l3.75,0M60.46,216.77l3.75,0M60.46,193.48l3.75,0M60.46,170.18l3.75,0M60.46,146.89l3.75,0M60.46,123.59l3.75,0M60.46,100.3l3.75,0M60.46,77l3.75,0M60.46,53.7l3.75,0M60.46,30.41l3.75,0M60.46,7.11l3.75,0"/>
<path d="M60.46,473.03l7.5,0M60.46,356.55l7.5,0M60.46,240.07l7.5,0M60.46,123.59l7.5,0M60.46,7.11l7.5,0"/>
<path d="M526.38,473.03l0,-465.91"/>
<path d="M526.38,473.03l-3.75,0M526.38,449.73l-3.75,0M526.38,426.44l-3.75,0M526.38,403.14l-3.75,0M526.38,379.84l-3.75,0M526.38,356.55l-3.75,0M526.38,333.25l-3.75,0M526.38,309.96l-3.75,0M526.38,286.66l-3.75,0M526.38,263.37l-3.75,0M526.38,240.07l-3.75,0M526.38,216.77l-3.75,0M526.38,193.48l-3.75,0M526.38,170.18l-3.75,0M526.38,146.89l-3.75,0M526.38,123.59l-3.75,0M526.38,100.3l-3.75,0M526.38,77l-3.75,0M526.38,53.7l-3.75,0M526.38,30.41l-3.75,0M526.38,7.11l-3.75,0"/>
<path d="M526.38,473.03l-7.5,0M526.38,356.55l-7.5,0M526.38,240.07l-7.5,0M526.38,123.59l-7.5,0M526.38,7.11l-7.5,0"/>
</g>
<g stroke-width="1" transform="matrix(0 -1 1 0 16 256.57)" fill="none">
<path d="m5.61,-8.06l0,2.67l-0.28,0c-0.22,-0.83,-0.5,-1.4,-0.84,-1.7c-0.34,-0.3,-0.77,-0.45,-1.29,-0.45c-0.41,0,-0.73,0.1,-0.98,0.31c-0.24,0.21,-0.37,0.44,-0.37,0.7c0,0.31,0.09,0.58,0.28,0.81c0.18,0.24,0.54,0.49,1.08,0.75l1.23,0.61c1.16,0.56,1.73,1.3,1.73,2.22c0,0.72,-0.27,1.29,-0.8,1.73c-0.54,0.43,-1.14,0.65,-1.8,0.65c-0.48,0,-1.03,-0.08,-1.64,-0.25c-0.19,-0.06,-0.34,-0.09,-0.45,-0.09c-0.14,0,-0.24,0.08,-0.31,0.23l-0.28,0l0,-2.8l0.28,0c0.16,0.79,0.46,1.39,0.91,1.8c0.45,0.41,0.96,0.61,1.51,0.61c0.4,0,0.72,-0.11,0.97,-0.34c0.25,-0.23,0.37,-0.51,0.37,-0.83c0,-0.4,-0.14,-0.73,-0.41,-1c-0.28,-0.27,-0.83,-0.61,-1.66,-1.02c-0.83,-0.41,-1.37,-0.78,-1.63,-1.11c-0.25,-0.32,-0.37,-0.73,-0.37,-1.23c0,-0.65,0.22,-1.18,0.66,-1.62c0.44,-0.43,1.01,-0.65,1.72,-0.65c0.3,0,0.67,0.07,1.11,0.2c0.29,0.08,0.49,0.12,0.59,0.12c0.08,0,0.15,-0.02,0.2,-0.06c0.05,-0.04,0.11,-0.13,0.19,-0.27l0.28,0m3.92,-4.09c0.24,0,0.45,0.09,0.62,0.26c0.17,0.17,0.26,0.38,0.26,0.62c0,0.24,-0.09,0.44,-0.26,0.61c-0.17,0.17,-0.38,0.25,-0.62,0.25c-0.24,0,-0.44,-0.08,-0.61,-0.25c-0.17,-0.17,-0.25,-0.37,-0.25,-0.61c0,-0.24,0.08,-0.45,0.25,-0.62c0.17,-0.17,0.37,-0.26,0.61,-0.26m0.72,4.09l0,6.3c0,0.49,0.03,0.82,0.1,0.98c0.07,0.16,0.17,0.28,0.31,0.36c0.14,0.08,0.4,0.12,0.77,0.12l0,0.31l-3.81,0l0,-0.31c0.39,0,0.64,-0.04,0.77,-0.11c0.13,-0.07,0.23,-0.2,0.31,-0.37c0.08,-0.17,0.12,-0.5,0.12,-0.98l0,-3.02c0,-0.85,-0.03,-1.41,-0.08,-1.66c-0.04,-0.18,-0.1,-0.3,-0.19,-0.37c-0.08,-0.07,-0.2,-0.11,-0.34,-0.11c-0.17,0,-0.36,0.04,-0.59,0.12l-0.11,-0.3l2.36,-0.97l0.37,0m3.58,1.66c0.92,-1.1,1.79,-1.66,2.62,-1.66c0.43,0,0.79,0.11,1.1,0.32c0.31,0.21,0.55,0.57,0.73,1.05c0.14,0.34,0.2,0.87,0.2,1.58l0,3.34c0,0.49,0.04,0.82,0.11,1c0.06,0.15,0.16,0.26,0.3,0.34c0.14,0.08,0.4,0.12,0.77,0.12l0,0.31l-3.87,0l0,-0.31l0.17,0c0.36,0,0.62,-0.05,0.77,-0.16c0.15,-0.11,0.24,-0.27,0.3,-0.49c0.02,-0.08,0.03,-0.35,0.03,-0.8l0,-3.2c0,-0.72,-0.09,-1.24,-0.27,-1.55c-0.18,-0.32,-0.49,-0.48,-0.93,-0.48c-0.68,0,-1.35,0.37,-2.03,1.11l0,4.12c0,0.53,0.03,0.86,0.09,0.98c0.08,0.17,0.19,0.29,0.33,0.36c0.14,0.07,0.42,0.11,0.86,0.11l0,0.31l-3.87,0l0,-0.31l0.17,0c0.4,0,0.66,-0.1,0.8,-0.3c0.14,-0.2,0.21,-0.59,0.21,-1.15l0,-2.91c0,-0.94,-0.02,-1.51,-0.06,-1.72c-0.04,-0.21,-0.11,-0.35,-0.2,-0.42c-0.09,-0.07,-0.21,-0.11,-0.37,-0.11c-0.16,0,-0.34,0.04,-0.56,0.12l-0.12,-0.3l2.36,-0.97l0.36,0l0,1.66" fill="#000000" stroke="none" fill-opacity="1"/>
<path d="m28.03,-7.73c0.28,0.3,0.49,0.6,0.64,0.89c0.09,0.21,0.26,0.74,0.5,1.61l0.75,-1.12c0.2,-0.27,0.44,-0.53,0.73,-0.78c0.29,-0.25,0.54,-0.42,0.76,-0.5c0.14,-0.06,0.29,-0.09,0.45,-0.09c0.24,0,0.43,0.07,0.58,0.2c0.15,0.13,0.22,0.29,0.22,0.48c0,0.22,-0.04,0.37,-0.12,0.45c-0.17,0.14,-0.35,0.2,-0.55,0.2c-0.12,0,-0.26,-0.03,-0.39,-0.08c-0.27,-0.08,-0.45,-0.12,-0.53,-0.12c-0.14,0,-0.3,0.08,-0.48,0.23c-0.35,0.29,-0.78,0.86,-1.27,1.72l0.69,2.94c0.11,0.45,0.21,0.72,0.28,0.8c0.07,0.09,0.15,0.13,0.22,0.13c0.12,0,0.27,-0.06,0.42,-0.19c0.31,-0.27,0.58,-0.61,0.8,-1.03l0.31,0.16c-0.36,0.67,-0.82,1.22,-1.37,1.67c-0.31,0.25,-0.58,0.37,-0.8,0.37c-0.31,0,-0.56,-0.18,-0.75,-0.53c-0.12,-0.23,-0.37,-1.19,-0.75,-2.87c-0.89,1.54,-1.6,2.54,-2.14,2.98c-0.34,0.28,-0.68,0.42,-1,0.42c-0.23,0,-0.44,-0.08,-0.62,-0.25c-0.14,-0.12,-0.2,-0.29,-0.2,-0.5c0,-0.19,0.06,-0.34,0.19,-0.47c0.12,-0.12,0.28,-0.19,0.45,-0.19c0.19,0,0.38,0.09,0.58,0.27c0.16,0.14,0.27,0.2,0.34,0.2c0.07,0,0.16,-0.05,0.27,-0.14c0.27,-0.22,0.64,-0.68,1.1,-1.4c0.46,-0.71,0.76,-1.23,0.9,-1.55c-0.35,-1.39,-0.54,-2.12,-0.56,-2.2c-0.14,-0.36,-0.31,-0.62,-0.52,-0.78c-0.21,-0.16,-0.52,-0.23,-0.93,-0.23c-0.12,0,-0.28,0.01,-0.45,0.02l0,-0.3l2.28,-0.41" fill="#000000" stroke="none" fill-opacity="1"/>
</g>
<g stroke-width="1" fill="none">
<path d="m47.98,473.55l-9.22,0l0,-0.7l9.22,0l0,0.7m2.52,-4.98l2.83,-1.37l0.28,0l0,9.78c0,0.66,0.03,1.06,0.08,1.22c0.05,0.16,0.16,0.28,0.34,0.37c0.17,0.09,0.52,0.14,1.04,0.15l0,0.31l-4.36,0l0,-0.31c0.55,-0.01,0.91,-0.06,1.07,-0.14c0.16,-0.08,0.27,-0.2,0.34,-0.34c0.06,-0.14,0.09,-0.56,0.09,-1.26l0,-6.25c0,-0.84,-0.03,-1.39,-0.09,-1.62c-0.04,-0.18,-0.11,-0.31,-0.22,-0.4c-0.1,-0.09,-0.23,-0.13,-0.37,-0.13c-0.21,0,-0.51,0.09,-0.89,0.27l-0.12,-0.27" fill="#000000" stroke="none" fill-opacity="1"/>
<path d="m33.98,357.08l-9.22,0l0,-0.7l9.22,0l0,0.7m1.09,-0.25c0,-1.32,0.2,-2.46,0.6,-3.41c0.4,-0.95,0.93,-1.66,1.59,-2.13c0.52,-0.37,1.05,-0.56,1.59,-0.56c0.9,0,1.69,0.45,2.39,1.36c0.89,1.12,1.33,2.65,1.33,4.56c0,1.34,-0.19,2.49,-0.58,3.43c-0.39,0.94,-0.88,1.62,-1.48,2.05c-0.6,0.42,-1.18,0.63,-1.73,0.63c-1.1,0,-2.03,-0.65,-2.77,-1.95c-0.62,-1.1,-0.94,-2.43,-0.94,-3.97m1.69,0.2c0,1.59,0.19,2.9,0.58,3.91c0.33,0.85,0.82,1.28,1.45,1.28c0.31,0,0.63,-0.14,0.96,-0.41c0.33,-0.28,0.58,-0.74,0.76,-1.4c0.26,-0.98,0.39,-2.36,0.39,-4.14c0,-1.32,-0.14,-2.43,-0.41,-3.31c-0.21,-0.65,-0.47,-1.11,-0.8,-1.39c-0.24,-0.19,-0.52,-0.28,-0.84,-0.28c-0.4,0,-0.74,0.18,-1.05,0.53c-0.41,0.47,-0.68,1.21,-0.83,2.23c-0.15,1.02,-0.22,2.01,-0.22,2.99m8.87,3.86c0.27,0,0.5,0.09,0.68,0.27c0.18,0.18,0.27,0.41,0.27,0.68c0,0.26,-0.09,0.48,-0.28,0.66c-0.19,0.18,-0.41,0.27,-0.67,0.27c-0.26,0,-0.48,-0.09,-0.67,-0.27c-0.19,-0.18,-0.28,-0.4,-0.28,-0.66c0,-0.27,0.09,-0.5,0.28,-0.68c0.19,-0.18,0.41,-0.27,0.67,-0.27m10.41,-9.94l-0.66,1.45l-3.5,0l-0.75,1.56c1.51,0.22,2.7,0.78,3.58,1.69c0.76,0.77,1.14,1.68,1.14,2.73c0,0.6,-0.12,1.17,-0.37,1.69c-0.24,0.52,-0.56,0.96,-0.94,1.33c-0.38,0.36,-0.8,0.66,-1.26,0.87c-0.66,0.31,-1.33,0.47,-2.02,0.47c-0.7,0,-1.2,-0.12,-1.52,-0.35c-0.31,-0.23,-0.47,-0.5,-0.47,-0.79c0,-0.16,0.07,-0.29,0.2,-0.41c0.13,-0.12,0.29,-0.18,0.49,-0.18c0.15,0,0.27,0.02,0.38,0.06c0.11,0.04,0.3,0.16,0.57,0.34c0.43,0.3,0.86,0.45,1.3,0.45c0.67,0,1.25,-0.25,1.76,-0.76c0.51,-0.51,0.76,-1.12,0.76,-1.84c0,-0.71,-0.22,-1.36,-0.67,-1.97c-0.45,-0.6,-1.07,-1.07,-1.86,-1.41c-0.62,-0.26,-1.47,-0.41,-2.55,-0.44l2.22,-4.52l4.16,0" fill="#000000" stroke="none" fill-opacity="1"/>
<path d="m49.08,240.34c0,-1.32,0.2,-2.46,0.6,-3.41c0.4,-0.95,0.93,-1.66,1.59,-2.13c0.52,-0.37,1.05,-0.56,1.59,-0.56c0.9,0,1.69,0.45,2.39,1.36c0.89,1.12,1.33,2.65,1.33,4.56c0,1.34,-0.19,2.49,-0.58,3.43c-0.39,0.94,-0.88,1.62,-1.48,2.05c-0.6,0.42,-1.18,0.63,-1.73,0.63c-1.1,0,-2.03,-0.65,-2.77,-1.95c-0.62,-1.1,-0.94,-2.43,-0.94,-3.97m1.69,0.2c0,1.59,0.19,2.9,0.58,3.91c0.33,0.85,0.82,1.28,1.45,1.28c0.31,0,0.63,-0.14,0.96,-0.41c0.33,-0.28,0.58,-0.74,0.76,-1.4c0.26,-0.98,0.39,-2.36,0.39,-4.14c0,-1.32,-0.14,-2.43,-0.41,-3.31c-0.21,-0.65,-0.47,-1.11,-0.8,-1.39c-0.24,-0.19,-0.52,-0.28,-0.84,-0.28c-0.4,0,-0.74,0.18,-1.05,0.53c-0.41,0.47,-0.68,1.21,-0.83,2.23c-0.15,1.02,-0.22,2.01,-0.22,2.99" fill="#000000" stroke="none" fill-opacity="1"/>
<path d="m35.08,123.86c0,-1.32,0.2,-2.46,0.6,-3.41c0.4,-0.95,0.93,-1.66,1.59,-2.13c0.52,-0.37,1.05,-0.56,1.59,-0.56c0.9,0,1.69,0.45,2.39,1.36c0.89,1.12,1.33,2.65,1.33,4.56c0,1.34,-0.19,2.49,-0.58,3.43c-0.39,0.94,-0.88,1.62,-1.48,2.05c-0.6,0.42,-1.18,0.63,-1.73,0.63c-1.1,0,-2.03,-0.65,-2.77,-1.95c-0.62,-1.1,-0.94,-2.43,-0.94,-3.97m1.69,0.2c0,1.59,0.19,2.9,0.58,3.91c0.33,0.85,0.82,1.28,1.45,1.28c0.31,0,0.63,-0.14,0.96,-0.41c0.33,-0.28,0.58,-0.74,0.76,-1.4c0.26,-0.98,0.39,-2.36,0.39,-4.14c0,-1.32,-0.14,-2.43,-0.41,-3.31c-0.21,-0.65,-0.47,-1.11,-0.8,-1.39c-0.24,-0.19,-0.52,-0.28,-0.84,-0.28c-0.4,0,-0.74,0.18,-1.05,0.53c-0.41,0.47,-0.68,1.21,-0.83,2.23c-0.15,1.02,-0.22,2.01,-0.22,2.99m8.87,3.86c0.27,0,0.5,0.09,0.68,0.27c0.18,0.18,0.27,0.41,0.27,0.68c0,0.26,-0.09,0.48,-0.28,0.66c-0.19,0.18,-0.41,0.27,-0.67,0.27c-0.26,0,-0.48,-0.09,-0.67,-0.27c-0.19,-0.18,-0.28,-0.4,-0.28,-0.66c0,-0.27,0.09,-0.5,0.28,-0.68c0.19,-0.18,0.41,-0.27,0.67,-0.27m10.41,-9.94l-0.66,1.45l-3.5,0l-0.75,1.56c1.51,0.22,2.7,0.78,3.58,1.69c0.76,0.77,1.14,1.68,1.14,2.73c0,0.6,-0.12,1.17,-0.37,1.69c-0.24,0.52,-0.56,0.96,-0.94,1.33c-0.38,0.36,-0.8,0.66,-1.26,0.87c-0.66,0.31,-1.33,0.47,-2.02,0.47c-0.7,0,-1.2,-0.12,-1.52,-0.35c-0.31,-0.23,-0.47,-0.5,-0.47,-0.79c0,-0.16,0.07,-0.29,0.2,-0.41c0.13,-0.12,0.29,-0.18,0.49,-0.18c0.15,0,0.27,0.02,0.38,0.06c0.11,0.04,0.3,0.16,0.57,0.34c0.43,0.3,0.86,0.45,1.3,0.45c0.67,0,1.25,-0.25,1.76,-0.76c0.51,-0.51,0.76,-1.12,0.76,-1.84c0,-0.71,-0.22,-1.36,-0.67,-1.97c-0.45,-0.6,-1.07,-1.07,-1.86,-1.41c-0.62,-0.26,-1.47,-0.41,-2.55,-0.44l2.22,-4.52l4.16,0" fill="#000000" stroke="none" fill-opacity="1"/>
<path d="m50.5,5.55l2.83,-1.37l0.28,0l0,9.78c0,0.66,0.03,1.06,0.08,1.22c0.05,0.16,0.16,0.28,0.34,0.37c0.17,0.09,0.52,0.14,1.04,0.15l0,0.31l-4.36,0l0,-0.31c0.55,-0.01,0.91,-0.06,1.07,-0.14c0.16,-0.08,0.27,-0.2,0.34,-0.34c0.06,-0.14,0.09,-0.56,0.09,-1.26l0,-6.25c0,-0.84,-0.03,-1.39,-0.09,-1.62c-0.04,-0.18,-0.11,-0.31,-0.22,-0.4c-0.1,-0.09,-0.23,-0.13,-0.37,-0.13c-0.21,0,-0.51,0.09,-0.89,0.27l-0.12,-0.27" fill="#000000" stroke="none" fill-opacity="1"/>
</g>
<g stroke-width="0.62" stroke-linecap="butt" fill="none">
<path d="M60.46,473.03l465.91,0"/>
<path d="M60.46,473.03l0,-3.75M93.74,473.03l0,-3.75M127.02,473.03l0,-3.75M160.3,473.03l0,-3.75M193.58,473.03l0,-3.75M226.86,473.03l0,-3.75M260.14,473.03l0,-3.75M293.42,473.03l0,-3.75M326.7,473.03l0,-3.75M359.98,473.03l0,-3.75M393.26,473.03l0,-3.75M426.54,473.03l0,-3.75M459.82,473.03l0,-3.75M493.1,473.03l0,-3.75M526.38,473.03l0,-3.75"/>
<path d="M60.46,473.03l0,-7.5M127.02,473.03l0,-7.5M193.58,473.03l0,-7.5M260.14,473.03l0,-7.5M326.7,473.03l0,-7.5M393.26,473.03l0,-7.5M459.82,473.03l0,-7.5M526.38,473.03l0,-7.5"/>
<path d="M60.46,7.11l465.91,0"/>
<path d="M60.46,7.11l0,3.75M93.74,7.11l0,3.75M127.02,7.11l0,3.75M160.3,7.11l0,3.75M193.58,7.11l0,3.75M226.86,7.11l0,3.75M260.14,7.11l0,3.75M293.42,7.11l0,3.75M326.7,7.11l0,3.75M359.98,7.11l0,3.75M393.26,7.11l0,3.75M426.54,7.11l0,3.75M459.82,7.11l0,3.75M493.1,7.11l0,3.75M526.38,7.11l0,3.75"/>
<path d="M60.46,7.11l0,7.5M127.02,7.11l0,7.5M193.58,7.11l0,7.5M260.14,7.11l0,7.5M326.7,7.11l0,7.5M393.26,7.11l0,7.5M459.82,7.11l0,7.5M526.38,7.11l0,7.5"/>
</g>
<g stroke-width="1" fill="none">
<path d="m292.44,506.28c0.28,0.3,0.49,0.6,0.64,0.89c0.09,0.21,0.26,0.74,0.5,1.61l0.75,-1.12c0.2,-0.27,0.44,-0.53,0.73,-0.78c0.29,-0.25,0.54,-0.42,0.76,-0.5c0.14,-0.06,0.29,-0.09,0.45,-0.09c0.24,0,0.43,0.07,0.58,0.2c0.15,0.13,0.22,0.29,0.22,0.48c0,0.22,-0.04,0.37,-0.12,0.45c-0.17,0.14,-0.35,0.2,-0.55,0.2c-0.12,0,-0.26,-0.03,-0.39,-0.08c-0.27,-0.08,-0.45,-0.12,-0.53,-0.12c-0.14,0,-0.3,0.08,-0.48,0.23c-0.35,0.29,-0.78,0.86,-1.27,1.72l0.69,2.94c0.11,0.45,0.21,0.72,0.28,0.8c0.07,0.09,0.15,0.13,0.22,0.13c0.12,0,0.27,-0.06,0.42,-0.19c0.31,-0.27,0.58,-0.61,0.8,-1.03l0.31,0.16c-0.36,0.67,-0.82,1.22,-1.37,1.67c-0.31,0.25,-0.58,0.37,-0.8,0.37c-0.31,0,-0.56,-0.18,-0.75,-0.53c-0.12,-0.23,-0.37,-1.19,-0.75,-2.87c-0.89,1.54,-1.6,2.54,-2.14,2.98c-0.34,0.28,-0.68,0.42,-1,0.42c-0.23,0,-0.44,-0.08,-0.62,-0.25c-0.14,-0.12,-0.2,-0.29,-0.2,-0.5c0,-0.19,0.06,-0.34,0.19,-0.47c0.12,-0.12,0.28,-0.19,0.45,-0.19c0.19,0,0.38,0.09,0.58,0.27c0.16,0.14,0.27,0.2,0.34,0.2c0.07,0,0.16,-0.05,0.27,-0.14c0.27,-0.22,0.64,-0.68,1.1,-1.4c0.46,-0.71,0.76,-1.23,0.9,-1.55c-0.35,-1.39,-0.54,-2.12,-0.56,-2.2c-0.14,-0.36,-0.31,-0.62,-0.52,-0.78c-0.21,-0.16,-0.52,-0.23,-0.93,-0.23c-0.12,0,-0.28,0.01,-0.45,0.02l0,-0.3l2.28,-0.41" fill="#000000" stroke="none" fill-opacity="1"/>
<path d="m56.58,486.3c0,-1.32,0.2,-2.46,0.6,-3.41c0.4,-0.95,0.93,-1.66,1.59,-2.13c0.52,-0.37,1.05,-0.56,1.59,-0.56c0.9,0,1.69,0.45,2.39,1.36c0.89,1.12,1.33,2.65,1.33,4.56c0,1.34,-0.19,2.49,-0.58,3.43c-0.39,0.94,-0.88,1.62,-1.48,2.05c-0.6,0.42,-1.18,0.63,-1.73,0.63c-1.1,0,-2.03,-0.65,-2.77,-1.95c-0.62,-1.1,-0.94,-2.43,-0.94,-3.97m1.69,0.2c0,1.59,0.19,2.9,0.58,3.91c0.33,0.85,0.82,1.28,1.45,1.28c0.31,0,0.63,-0.14,0.96,-0.41c0.33,-0.28,0.58,-0.74,0.76,-1.4c0.26,-0.98,0.39,-2.36,0.39,-4.14c0,-1.32,-0.14,-2.43,-0.41,-3.31c-0.21,-0.65,-0.47,-1.11,-0.8,-1.39c-0.24,-0.19,-0.52,-0.28,-0.84,-0.28c-0.4,0,-0.74,0.18,-1.05,0.53c-0.41,0.47,-0.68,1.21,-0.83,2.23c-0.15,1.02,-0.22,2.01,-0.22,2.99" fill="#000000" stroke="none" fill-opacity="1"/>
<path d="m124.56,481.56l2.83,-1.37l0.28,0l0,9.78c0,0.66,0.03,1.06,0.08,1.22c0.05,0.16,0.16,0.28,0.34,0.37c0.17,0.09,0.52,0.14,1.04,0.15l0,0.31l-4.36,0l0,-0.31c0.55,-0.01,0.91,-0.06,1.07,-0.14c0.16,-0.08,0.27,-0.2,0.34,-0.34c0.06,-0.14,0.09,-0.56,0.09,-1.26l0,-6.25c0,-0.84,-0.03,-1.39,-0.09,-1.62c-0.04,-0.18,-0.11,-0.31,-0.22,-0.4c-0.1,-0.09,-0.23,-0.13,-0.37,-0.13c-0.21,0,-0.51,0.09,-0.89,0.27l-0.12,-0.27" fill="#000000" stroke="none" fill-opacity="1"/>
<path d="m197.11,489.78l-0.81,2.23l-6.84,0l0,-0.31c2.01,-1.83,3.43,-3.33,4.25,-4.49c0.82,-1.16,1.23,-2.23,1.23,-3.2c0,-0.73,-0.23,-1.33,-0.68,-1.8c-0.45,-0.47,-0.99,-0.71,-1.62,-0.71c-0.57,0,-1.09,0.17,-1.54,0.5c-0.45,0.33,-0.78,0.82,-0.99,1.47l-0.33,0c0.15,-1.06,0.51,-1.87,1.1,-2.44c0.59,-0.56,1.33,-0.84,2.21,-0.84c0.94,0,1.72,0.3,2.35,0.91c0.63,0.6,0.95,1.32,0.95,2.14c0,0.58,-0.14,1.17,-0.41,1.75c-0.43,0.93,-1.11,1.91,-2.05,2.94c-1.43,1.55,-2.31,2.48,-2.66,2.8l3.02,0c0.61,0,1.05,-0.02,1.3,-0.06c0.25,-0.04,0.47,-0.13,0.67,-0.27c0.2,-0.14,0.37,-0.34,0.52,-0.6l0.33,0" fill="#000000" stroke="none" fill-opacity="1"/>
<path d="m256.52,482.64c0.33,-0.78,0.75,-1.39,1.25,-1.81c0.5,-0.43,1.13,-0.64,1.89,-0.64c0.93,0,1.64,0.3,2.12,0.91c0.37,0.45,0.56,0.93,0.56,1.45c0,0.83,-0.53,1.7,-1.58,2.61c0.71,0.28,1.24,0.68,1.61,1.2c0.36,0.52,0.55,1.12,0.55,1.82c0,1.01,-0.32,1.88,-0.95,2.61c-0.83,0.96,-2.04,1.44,-3.62,1.44c-0.77,0,-1.3,-0.1,-1.59,-0.29c-0.29,-0.19,-0.43,-0.4,-0.43,-0.62c0,-0.17,0.07,-0.31,0.2,-0.44c0.14,-0.12,0.3,-0.19,0.48,-0.19c0.15,0,0.29,0.02,0.44,0.06c0.09,0.03,0.31,0.14,0.66,0.31c0.34,0.18,0.58,0.29,0.72,0.33c0.21,0.06,0.43,0.09,0.67,0.09c0.58,0,1.09,-0.23,1.52,-0.68c0.43,-0.45,0.64,-0.99,0.64,-1.6c0,-0.45,-0.1,-0.89,-0.3,-1.31c-0.15,-0.32,-0.31,-0.57,-0.48,-0.73c-0.25,-0.23,-0.59,-0.43,-1.02,-0.62c-0.43,-0.18,-0.86,-0.27,-1.3,-0.27l-0.28,0l0,-0.25c0.45,-0.06,0.9,-0.23,1.35,-0.49c0.45,-0.27,0.78,-0.59,0.99,-0.97c0.21,-0.38,0.31,-0.79,0.31,-1.24c0,-0.58,-0.18,-1.06,-0.55,-1.42c-0.37,-0.36,-0.83,-0.55,-1.37,-0.55c-0.89,0,-1.62,0.47,-2.22,1.42l-0.28,-0.12" fill="#000000" stroke="none" fill-opacity="1"/>
<path d="m330.33,487.75l0,1.2l-1.55,0l0,3.06l-1.42,0l0,-3.06l-4.89,0l0,-1.09l5.36,-7.67l0.95,0l0,7.56l1.55,0m-2.97,0l0,-5.75l-4.06,5.75l4.06,0" fill="#000000" stroke="none" fill-opacity="1"/>
<path d="m396.34,480.42l-0.66,1.45l-3.5,0l-0.75,1.56c1.51,0.22,2.7,0.78,3.58,1.69c0.76,0.77,1.14,1.68,1.14,2.73c0,0.6,-0.12,1.17,-0.37,1.69c-0.24,0.52,-0.56,0.96,-0.94,1.33c-0.38,0.36,-0.8,0.66,-1.26,0.87c-0.66,0.31,-1.33,0.47,-2.02,0.47c-0.7,0,-1.2,-0.12,-1.52,-0.35c-0.31,-0.23,-0.47,-0.5,-0.47,-0.79c0,-0.16,0.07,-0.29,0.2,-0.41c0.13,-0.12,0.29,-0.18,0.49,-0.18c0.15,0,0.27,0.02,0.38,0.06c0.11,0.04,0.3,0.16,0.57,0.34c0.43,0.3,0.86,0.45,1.3,0.45c0.67,0,1.25,-0.25,1.76,-0.76c0.51,-0.51,0.76,-1.12,0.76,-1.84c0,-0.71,-0.22,-1.36,-0.67,-1.97c-0.45,-0.6,-1.07,-1.07,-1.86,-1.41c-0.62,-0.26,-1.47,-0.41,-2.55,-0.44l2.22,-4.52l4.16,0" fill="#000000" stroke="none" fill-opacity="1"/>
<path d="m463.16,480.19l0,0.31c-0.75,0.07,-1.36,0.22,-1.84,0.45c-0.47,0.23,-0.95,0.57,-1.41,1.03c-0.47,0.46,-0.85,0.97,-1.16,1.54c-0.3,0.57,-0.56,1.24,-0.77,2.02c0.82,-0.56,1.65,-0.84,2.47,-0.84c0.79,0,1.48,0.32,2.06,0.95c0.58,0.64,0.87,1.46,0.87,2.47c0,0.97,-0.3,1.85,-0.89,2.64c-0.7,0.97,-1.63,1.45,-2.8,1.45c-0.79,0,-1.46,-0.26,-2.02,-0.78c-1.08,-1.02,-1.62,-2.34,-1.62,-3.97c0,-1.03,0.21,-2.02,0.62,-2.95c0.42,-0.94,1.01,-1.77,1.78,-2.49c0.77,-0.72,1.51,-1.21,2.22,-1.46c0.71,-0.25,1.36,-0.37,1.97,-0.37l0.5,0m-5.31,5.98c-0.1,0.77,-0.16,1.39,-0.16,1.86c0,0.55,0.1,1.15,0.3,1.79c0.2,0.64,0.5,1.15,0.9,1.52c0.29,0.26,0.65,0.39,1.06,0.39c0.5,0,0.94,-0.23,1.33,-0.7c0.39,-0.46,0.58,-1.13,0.58,-1.99c0,-0.98,-0.19,-1.83,-0.58,-2.54c-0.39,-0.71,-0.93,-1.07,-1.64,-1.07c-0.22,0,-0.45,0.05,-0.7,0.14c-0.25,0.09,-0.61,0.29,-1.09,0.59" fill="#000000" stroke="none" fill-opacity="1"/>
<path d="m523.64,480.42l6.2,0l0,0.33l-3.86,11.5l-0.95,0l3.45,-10.42l-3.19,0c-0.64,0,-1.09,0.07,-1.37,0.22c-0.48,0.26,-0.86,0.67,-1.16,1.22l-0.23,-0.09l1.11,-2.75" fill="#000000" stroke="none" fill-opacity="1"/>
</g>
</g>
</g>
<defs>
<clipPath id="c0"><path d="m0,0l533.49,0l0,533.49l-533.49,0l0,-533.49"/></clipPath>
<clipPath id="c1"><path d="m60.46,7.11l465.91,0l0,465.91l-465.91,0l0,-465.91"/></clipPath>
</defs>
</svg>
