<?xml version="1.0" standalone="no"?>
<!DOCTYPE svg PUBLIC "-//W3C//DTD SVG 1.1//EN" 
  "http://www.w3.org/Graphics/SVG/1.1/DTD/svg11.dtd">
<svg width="533.49px" height="533.49px" version="1.1"
     xmlns="http://www.w3.org/2000/svg"
     xmlns:xlink="http://www.w3.org/1999/xlink">
<desc>Veusz output document</desc>
<g stroke-linejoin="bevel" stroke-linecap="square" stroke="#000000" fill-rule="evenodd">
<g clip-path="url(#c0)">
<g stroke-width="0.62" fill="#ffffff">
<path d="m60.46,7.11l465.91,0l0,155.3l-465.91,0l0,-155.3"/>
</g>
</g>
<g clip-path="url(#c1)">
<g stroke-width="0.62" fill="none">
<polyline fill="none" points="60.46,127.09 83.76,62.62 107.05,152.57 130.35,21.38 153.64,100.27 176.94,121.94 200.24,127.53 223.53,121.82 246.83,107.93 270.12,120.24 293.42,146.44 316.71,122.48 340.01,97.61 363.31,136.2 386.6,130.04 409.9,98.43 433.19,132.22 456.49,91.12 479.78,111.53 503.08,92.61"/>
</g>
<g stroke-linejoin="miter" stroke-width="0.62" transform="translate(60.46, 127.09)" fill="#000000">
<path d="m3.75,0c0,2.07,-1.68,3.75,-3.75,3.75c-2.07,0,-3.75,-1.68,-3.75,-3.75c0,-2.07,1.68,-3.75,3.75,-3.75c2.07,0,3.75,1.68,3.75,3.75"/>
</g>
<g stroke-linejoin="miter" stroke-width="0.62" transform="translate(83.76, 62.62)" fill="#000000">
<path d="m3.75,0c0,2.07,-1.68,3.75,-3.75,3.75c-2.07,0,-3.75,-1.68,-3.75,-3.75c0,-2.07,1.68,-3.75,3.75,-3.75c2.07,0,3.75,1.68,3.75,3.75"/>
</g>
<g stroke-linejoin="miter" stroke-width="0.62" transform="translate(107.05, 152.57)" fill="#000000">
<path d="m3.75,0c0,2.07,-1.68,3.75,-3.75,3.75c-2.07,0,-3.75,-1.68,-3.75,-3.75c0,-2.07,1.68,-3.75,3.75,-3.75c2.07,0,3.75,1.68,3.75,3.75"/>
</g>
<g stroke-linejoin="miter" stroke-width="0.62" transform="translate(130.35, 21.38)" fill="#000000">
<path d="m3.75,0c0,2.07,-1.68,3.75,-3.75,3.75c-2.07,0,-3.75,-1.68,-3.75,-3.75c0,-2.07,1.68,-3.75,3.75,-3.75c2.07,0,3.75,1.68,3.75,3.75"/>
</g>
<g stroke-linejoin="miter" stroke-width="0.62" transform="translate(153.64, 100.27)" fill="#000000">
<path d="m3.75,0c0,2.07,-1.68,3.75,-3.75,3.75c-2.07,0,-3.75,-1.68,-3.75,-3.75c0,-2.07,1.68,-3.75,3.75,-3.75c2.07,0,3.75,1.68,3.75,3.75"/>
</g>
<g stroke-linejoin="miter" stroke-width="0.62" transform="translate(176.94, 121.94)" fill="#000000">
<path d="m3.75,0c0,2.07,-1.68,3.75,-3.75,3.75c-2.07,0,-3.75,-1.68,-3.75,-3.75c0,-2.07,1.68,-3.75,3.75,-3.75c2.07,0,3.75,1.68,3.75,3.75"/>
</g>
<g stroke-linejoin="miter" stroke-width="0.62" transform="translate(200.24, 127.53)" fill="#000000">
<path d="m3.75,0c0,2.07,-1.68,3.75,-3.75,3.75c-2.07,0,-3.75,-1.68,-3.75,-3.75c0,-2.07,1.68,-3.75,3.75,-3.75c2.07,0,3.75,1.68,3.75,3.75"/>
</g>
<g stroke-linejoin="miter" stroke-width="0.62" transform="translate(223.53, 121.82)" fill="#000000">
<path d="m3.75,0c0,2.07,-1.68,3.75,-3.75,3.75c-2.07,0,-3.75,-1.68,-3.75,-3.75c0,-2.07,1.68,-3.75,3.75,-3.75c2.07,0,3.75,1.68,3.75,3.75"/>
</g>
<g stroke-linejoin="miter" stroke-width="0.62" transform="translate(246.83, 107.93)" fill="#000000">
<path d="m3.75,0c0,2.07,-1.68,3.75,-3.75,3.75c-2.07,0,-3.75,-1.68,-3.75,-3.75c0,-2.07,1.68,-3.75,3.75,-3.75c2.07,0,3.75,1.68,3.75,3.75"/>
</g>
<g stroke-linejoin="miter" stroke-width="0.62" transform="translate(270.12, 120.24)" fill="#000000">
<path d="m3.75,0c0,2.07,-1.68,3.75,-3.75,3.75c-2.07,0,-3.75,-1.68,-3.75,-3.75c0,-2.07,1.68,-3.75,3.75,-3.75c2.07,0,3.75,1.68,3.75,3.75"/>
</g>
<g stroke-linejoin="miter" stroke-width="0.62" transform="translate(293.42, 146.44)" fill="#000000">
<path d="m3.75,0c0,2.07,-1.68,3.75,-3.75,3.75c-2.07,0,-3.75,-1.68,-3.75,-3.75c0,-2.07,1.68,-3.75,3.75,-3.75c2.07,0,3.75,1.68,3.75,3.75"/>
</g>
<g stroke-linejoin="miter" stroke-width="0.62" transform="translate(316.71, 122.48)" fill="#000000">
<path d="m3.75,0c0,2.07,-1.68,3.75,-3.75,3.75c-2.07,0,-3.75,-1.68,-3.75,-3.75c0,-2.07,1.68,-3.75,3.75,-3.75c2.07,0,3.75,1.68,3.75,3.75"/>
</g>
<g stroke-linejoin="miter" stroke-width="0.62" transform="translate(340.01, 97.61)" fill="#000000">
<path d="m3.75,0c0,2.07,-1.68,3.75,-3.75,3.75c-2.07,0,-3.75,-1.68,-3.75,-3.75c0,-2.07,1.68,-3.75,3.75,-3.75c2.07,0,3.75,1.68,3.75,3.75"/>
</g>
<g stroke-linejoin="miter" stroke-width="0.62" transform="translate(363.31, 136.2)" fill="#000000">
<path d="m3.75,0c0,2.07,-1.68,3.75,-3.75,3.75c-2.07,0,-3.75,-1.68,-3.75,-3.75c0,-2.07,1.68,-3.75,3.75,-3.75c2.07,0,3.75,1.68,3.75,3.75"/>
</g>
<g stroke-linejoin="miter" stroke-width="0.62" transform="translate(386.6, 130.04)" fill="#000000">
<path d="m3.75,0c0,2.07,-1.68,3.75,-3.75,3.75c-2.07,0,-3.75,-1.68,-3.75,-3.75c0,-2.07,1.68,-3.75,3.75,-3.75c2.07,0,3.75,1.68,3.75,3.75"/>
</g>
<g stroke-linejoin="miter" stroke-width="0.62" transform="translate(409.9, 98.43)" fill="#000000">
<path d="m3.75,0c0,2.07,-1.68,3.75,-3.75,3.75c-2.07,0,-3.75,-1.68,-3.75,-3.75c0,-2.07,1.68,-3.75,3.75,-3.75c2.07,0,3.75,1.68,3.75,3.75"/>
</g>
<g stroke-linejoin="miter" stroke-width="0.62" transform="translate(433.19, 132.22)" fill="#000000">
<path d="m3.75,0c0,2.07,-1.68,3.75,-3.75,3.75c-2.07,0,-3.75,-1.68,-3.75,-3.75c0,-2.07,1.68,-3.75,3.75,-3.75c2.07,0,3.75,1.68,3.75,3.75"/>
</g>
<g stroke-linejoin="miter" stroke-width="0.62" transform="translate(456.49, 91.12)" fill="#000000">
<path d="m3.75,0c0,2.07,-1.68,3.75,-3.75,3.75c-2.07,0,-3.75,-1.68,-3.75,-3.75c0,-2.07,1.68,-3.75,3.75,-3.75c2.07,0,3.75,1.68,3.75,3.75"/>
</g>
<g stroke-linejoin="miter" stroke-width="0.62" transform="translate(479.78, 111.53)" fill="#000000">
<path d="m3.75,0c0,2.07,-1.68,3.75,-3.75,3.75c-2.07,0,-3.75,-1.68,-3.75,-3.75c0,-2.07,1.68,-3.75,3.75,-3.75c2.07,0,3.75,1.68,3.75,3.75"/>
</g>
<g stroke-linejoin="miter" stroke-width="0.62" transform="translate(503.08, 92.61)" fill="#000000">
<path d="m3.75,0c0,2.07,-1.68,3.75,-3.75,3.75c-2.07,0,-3.75,-1.68,-3.75,-3.75c0,-2.07,1.68,-3.75,3.75,-3.75c2.07,0,3.75,1.68,3.75,3.75"/>
</g>
</g>
<g clip-path="url(#c0)">
<g stroke-width="0.62" stroke-linecap="butt" fill="none">
<path d="M60.46,162.42l0,-155.3"/>
<path d="M60.46,162.42l3.75,0M60.46,156.21l3.75,0M60.46,149.99l3.75,0M60.46,143.78l3.75,0M60.46,137.57l3.75,0M60.46,131.36l3.75,0M60.46,125.14l3.75,0M60.46,118.93l3.75,0M60.46,112.72l3.75,0M60.46,106.51l3.75,0M60.46,100.3l3.75,0M60.46,94.08l3.75,0M60.46,87.87l3.75,0M60.46,81.66l3.75,0M60.46,75.45l3.75,0M60.46,69.24l3.75,0M60.46,63.02l3.75,0M60.46,56.81l3.75,0M60.46,50.6l3.75,0M60.46,44.39l3.75,0M60.46,38.17l3.75,0M60.46,31.96l3.75,0M60.46,25.75l3.75,0M60.46,19.54l3.75,0M60.46,13.33l3.75,0M60.46,7.11l3.75,0"/>
<path d="M60.46,162.42l7.5,0M60.46,131.36l7.5,0M60.46,100.3l7.5,0M60.46,69.24l7.5,0M60.46,38.17l7.5,0M60.46,7.11l7.5,0"/>
<path d="M526.38,162.42l0,-155.3"/>
<path d="M526.38,162.42l-3.75,0M526.38,156.21l-3.75,0M526.38,149.99l-3.75,0M526.38,143.78l-3.75,0M526.38,137.57l-3.75,0M526.38,131.36l-3.75,0M526.38,125.14l-3.75,0M526.38,118.93l-3.75,0M526.38,112.72l-3.75,0M526.38,106.51l-3.75,0M526.38,100.3l-3.75,0M526.38,94.08l-3.75,0M526.38,87.87l-3.75,0M526.38,81.66l-3.75,0M526.38,75.45l-3.75,0M526.38,69.24l-3.75,0M526.38,63.02l-3.75,0M526.38,56.81l-3.75,0M526.38,50.6l-3.75,0M526.38,44.39l-3.75,0M526.38,38.17l-3.75,0M526.38,31.96l-3.75,0M526.38,25.75l-3.75,0M526.38,19.54l-3.75,0M526.38,13.33l-3.75,0M526.38,7.11l-3.75,0"/>
<path d="M526.38,162.42l-7.5,0M526.38,131.36l-7.5,0M526.38,100.3l-7.5,0M526.38,69.24l-7.5,0M526.38,38.17l-7.5,0M526.38,7.11l-7.5,0"/>
</g>
<g stroke-width="1" transform="matrix(0 -1 1 0 16 117.27)" fill="none">
<path d="m12.42,-11.59l0,0.33c-0.41,0.07,-0.71,0.2,-0.92,0.39c-0.3,0.28,-0.57,0.71,-0.81,1.28l-4.05,9.86l-0.31,0l-4.34,-9.98c-0.22,-0.52,-0.37,-0.84,-0.47,-0.95c-0.14,-0.17,-0.31,-0.3,-0.52,-0.41c-0.21,-0.1,-0.49,-0.17,-0.84,-0.19l0,-0.33l4.73,0l0,0.33c-0.54,0.05,-0.89,0.14,-1.05,0.27c-0.16,0.13,-0.23,0.29,-0.23,0.49c0,0.29,0.13,0.74,0.39,1.34l2.95,6.8l2.73,-6.72c0.26,-0.66,0.39,-1.11,0.39,-1.37c0,-0.17,-0.08,-0.33,-0.24,-0.48c-0.16,-0.15,-0.44,-0.26,-0.84,-0.32c-0.03,0,-0.08,-0.01,-0.14,-0.02l0,-0.33l3.56,0m2.56,10.47c-0.8,0.61,-1.31,0.97,-1.52,1.08c-0.3,0.14,-0.63,0.2,-0.98,0.2c-0.54,0,-0.99,-0.18,-1.34,-0.55c-0.35,-0.37,-0.52,-0.86,-0.52,-1.46c0,-0.37,0.08,-0.7,0.25,-0.98c0.24,-0.39,0.65,-0.75,1.23,-1.09c0.58,-0.34,1.54,-0.76,2.88,-1.25l0,-0.31c0,-0.78,-0.12,-1.32,-0.37,-1.6c-0.25,-0.29,-0.61,-0.43,-1.08,-0.43c-0.36,0,-0.65,0.09,-0.86,0.28c-0.22,0.2,-0.33,0.42,-0.33,0.67l0.02,0.5c0,0.26,-0.07,0.46,-0.2,0.6c-0.13,0.14,-0.3,0.21,-0.52,0.21c-0.21,0,-0.38,-0.07,-0.52,-0.22c-0.14,-0.15,-0.2,-0.35,-0.2,-0.61c0,-0.49,0.25,-0.94,0.75,-1.35c0.5,-0.41,1.2,-0.62,2.11,-0.62c0.7,0,1.27,0.12,1.72,0.36c0.33,0.18,0.58,0.45,0.73,0.83c0.1,0.24,0.16,0.74,0.16,1.5l0,2.66c0,0.75,0.02,1.21,0.05,1.37c0.03,0.17,0.08,0.28,0.14,0.34c0.06,0.06,0.14,0.09,0.22,0.09c0.09,0,0.18,-0.02,0.25,-0.06c0.11,-0.07,0.34,-0.28,0.69,-0.62l0,0.48c-0.64,0.85,-1.24,1.28,-1.83,1.28c-0.28,0,-0.51,-0.1,-0.67,-0.29c-0.17,-0.19,-0.25,-0.52,-0.25,-0.99m0,-0.56l0,-2.98c-0.86,0.34,-1.42,0.59,-1.67,0.73c-0.45,0.25,-0.77,0.51,-0.96,0.78c-0.19,0.27,-0.29,0.57,-0.29,0.91c0,0.41,0.12,0.74,0.37,1.02c0.24,0.27,0.52,0.41,0.84,0.41c0.44,0,1.01,-0.29,1.72,-0.86m6.25,-10.47l0,10.39c0,0.49,0.04,0.81,0.11,0.97c0.07,0.16,0.18,0.28,0.33,0.36c0.15,0.08,0.42,0.12,0.83,0.12l0,0.31l-3.83,0l0,-0.31c0.35,0,0.6,-0.04,0.73,-0.11c0.13,-0.07,0.23,-0.2,0.3,-0.37c0.07,-0.17,0.11,-0.5,0.11,-0.98l0,-7.11c0,-0.89,-0.02,-1.43,-0.05,-1.63c-0.04,-0.2,-0.1,-0.34,-0.19,-0.41c-0.09,-0.07,-0.2,-0.11,-0.34,-0.11c-0.15,0,-0.33,0.05,-0.56,0.14l-0.16,-0.3l2.34,-0.97l0.37,0m3.62,0l0,7.8l2,-1.81c0.42,-0.4,0.66,-0.64,0.73,-0.73c0.04,-0.07,0.06,-0.15,0.06,-0.22c0,-0.1,-0.05,-0.2,-0.14,-0.28c-0.09,-0.08,-0.25,-0.13,-0.47,-0.14l0,-0.28l3.41,0l0,0.28c-0.47,0.01,-0.86,0.08,-1.17,0.21c-0.31,0.13,-0.65,0.36,-1.02,0.7l-2.02,1.86l2.02,2.53c0.55,0.7,0.93,1.14,1.12,1.33c0.27,0.27,0.51,0.45,0.72,0.53c0.15,0.05,0.4,0.08,0.75,0.08l0,0.31l-3.81,0l0,-0.31c0.22,0,0.37,-0.03,0.45,-0.09c0.08,-0.06,0.12,-0.15,0.12,-0.25c0,-0.14,-0.11,-0.35,-0.34,-0.64l-2.41,-3.06l0,2.59c0,0.51,0.04,0.85,0.11,1.01c0.07,0.16,0.17,0.28,0.3,0.34c0.13,0.07,0.41,0.1,0.85,0.1l0,0.31l-3.98,0l0,-0.31c0.41,0,0.71,-0.05,0.91,-0.14c0.11,-0.06,0.2,-0.16,0.27,-0.3c0.08,-0.19,0.12,-0.51,0.12,-0.97l0,-7.12c0,-0.91,-0.02,-1.46,-0.05,-1.66c-0.04,-0.2,-0.1,-0.34,-0.2,-0.42c-0.09,-0.08,-0.21,-0.12,-0.36,-0.12c-0.11,0,-0.29,0.05,-0.53,0.16l-0.16,-0.3l2.33,-0.97l0.39,0m6.25,4.33l3.64,0l0,0.31l-0.17,0c-0.26,0,-0.46,0.06,-0.59,0.17c-0.13,0.11,-0.2,0.25,-0.2,0.41c0,0.23,0.09,0.54,0.28,0.94l1.91,3.94l1.75,-4.33c0.1,-0.23,0.16,-0.46,0.16,-0.69c0,-0.1,-0.02,-0.18,-0.06,-0.23c-0.04,-0.06,-0.11,-0.11,-0.21,-0.15c-0.1,-0.04,-0.27,-0.05,-0.52,-0.05l0,-0.31l2.55,0l0,0.31c-0.21,0.02,-0.37,0.07,-0.48,0.14c-0.11,0.07,-0.24,0.2,-0.37,0.39c-0.05,0.07,-0.15,0.29,-0.28,0.66l-3.19,7.81c-0.31,0.75,-0.72,1.32,-1.22,1.71c-0.5,0.39,-0.98,0.59,-1.44,0.59c-0.33,0,-0.61,-0.1,-0.83,-0.29c-0.22,-0.19,-0.33,-0.42,-0.33,-0.68c0,-0.23,0.08,-0.42,0.23,-0.56c0.16,-0.15,0.37,-0.22,0.66,-0.22c0.19,0,0.44,0.06,0.77,0.19c0.23,0.08,0.37,0.12,0.42,0.12c0.18,0,0.36,-0.09,0.56,-0.27c0.2,-0.18,0.4,-0.52,0.61,-1.03l0.56,-1.36l-2.81,-5.91c-0.08,-0.18,-0.22,-0.4,-0.42,-0.66c-0.14,-0.2,-0.25,-0.33,-0.34,-0.39c-0.14,-0.09,-0.34,-0.18,-0.62,-0.25l0,-0.31m11.73,-0.23l0,1.77c0.65,-1.18,1.32,-1.77,2.02,-1.77c0.31,0,0.57,0.1,0.77,0.29c0.2,0.19,0.3,0.41,0.3,0.66c0,0.22,-0.07,0.41,-0.22,0.56c-0.15,0.16,-0.32,0.23,-0.53,0.23c-0.2,0,-0.42,-0.1,-0.67,-0.3c-0.25,-0.2,-0.43,-0.3,-0.55,-0.3c-0.1,0,-0.22,0.06,-0.34,0.17c-0.25,0.23,-0.51,0.61,-0.78,1.16l0,3.75c0,0.44,0.05,0.77,0.16,0.98c0.07,0.16,0.2,0.28,0.39,0.38c0.19,0.1,0.46,0.15,0.81,0.15l0,0.31l-4,0l0,-0.31c0.4,0,0.69,-0.06,0.87,-0.19c0.15,-0.08,0.25,-0.23,0.31,-0.44c0.02,-0.09,0.03,-0.37,0.03,-0.83l0,-3.03c0,-0.91,-0.02,-1.45,-0.05,-1.62c-0.04,-0.18,-0.1,-0.3,-0.2,-0.38c-0.1,-0.08,-0.22,-0.12,-0.37,-0.12c-0.18,0,-0.37,0.04,-0.59,0.12l-0.09,-0.3l2.37,-0.97l0.36,0m5.69,-4.09c0.24,0,0.45,0.09,0.62,0.26c0.17,0.17,0.26,0.38,0.26,0.62c0,0.24,-0.09,0.44,-0.26,0.61c-0.17,0.17,-0.38,0.25,-0.62,0.25c-0.24,0,-0.44,-0.08,-0.61,-0.25c-0.17,-0.17,-0.25,-0.37,-0.25,-0.61c0,-0.24,0.08,-0.45,0.25,-0.62c0.17,-0.17,0.37,-0.26,0.61,-0.26m0.72,4.09l0,6.3c0,0.49,0.03,0.82,0.1,0.98c0.07,0.16,0.17,0.28,0.31,0.36c0.14,0.08,0.4,0.12,0.77,0.12l0,0.31l-3.81,0l0,-0.31c0.39,0,0.64,-0.04,0.77,-0.11c0.13,-0.07,0.23,-0.2,0.31,-0.37c0.08,-0.17,0.12,-0.5,0.12,-0.98l0,-3.02c0,-0.85,-0.03,-1.41,-0.08,-1.66c-0.04,-0.18,-0.1,-0.3,-0.19,-0.37c-0.08,-0.07,-0.2,-0.11,-0.34,-0.11c-0.17,0,-0.36,0.04,-0.59,0.12l-0.11,-0.3l2.36,-0.97l0.37,0m2.61,3.19c0,1.16,0.28,2.07,0.84,2.73c0.57,0.66,1.24,0.98,2.02,0.98c0.51,0,0.96,-0.14,1.34,-0.42c0.38,-0.28,0.7,-0.77,0.95,-1.45l0.27,0.17c-0.11,0.78,-0.46,1.49,-1.04,2.13c-0.58,0.64,-1.3,0.96,-2.16,0.96c-0.94,0,-1.74,-0.36,-2.41,-1.09c-0.67,-0.73,-1,-1.71,-1,-2.95c0,-1.33,0.34,-2.37,1.02,-3.12c0.68,-0.75,1.54,-1.12,2.59,-1.12c0.87,0,1.59,0.29,2.16,0.87c0.56,0.58,0.84,1.35,0.84,2.32l-5.41,0m0,-0.5l3.62,0c-0.03,-0.5,-0.09,-0.85,-0.17,-1.06c-0.15,-0.31,-0.36,-0.56,-0.64,-0.74c-0.28,-0.18,-0.58,-0.27,-0.89,-0.27c-0.47,0,-0.89,0.18,-1.27,0.55c-0.37,0.36,-0.59,0.87,-0.66,1.53m11.75,-2.69l0,2.67l-0.28,0c-0.22,-0.83,-0.5,-1.4,-0.84,-1.7c-0.34,-0.3,-0.77,-0.45,-1.29,-0.45c-0.41,0,-0.73,0.1,-0.98,0.31c-0.24,0.21,-0.37,0.44,-0.37,0.7c0,0.31,0.09,0.58,0.28,0.81c0.18,0.24,0.54,0.49,1.08,0.75l1.23,0.61c1.16,0.56,1.73,1.3,1.73,2.22c0,0.72,-0.27,1.29,-0.8,1.73c-0.54,0.43,-1.14,0.65,-1.8,0.65c-0.48,0,-1.03,-0.08,-1.64,-0.25c-0.19,-0.06,-0.34,-0.09,-0.45,-0.09c-0.14,0,-0.24,0.08,-0.31,0.23l-0.28,0l0,-2.8l0.28,0c0.16,0.79,0.46,1.39,0.91,1.8c0.45,0.41,0.96,0.61,1.51,0.61c0.4,0,0.72,-0.11,0.97,-0.34c0.25,-0.23,0.37,-0.51,0.37,-0.83c0,-0.4,-0.14,-0.73,-0.41,-1c-0.28,-0.27,-0.83,-0.61,-1.66,-1.02c-0.83,-0.41,-1.37,-0.78,-1.63,-1.11c-0.25,-0.32,-0.37,-0.73,-0.37,-1.23c0,-0.65,0.22,-1.18,0.66,-1.62c0.44,-0.43,1.01,-0.65,1.72,-0.65c0.3,0,0.67,0.07,1.11,0.2c0.29,0.08,0.49,0.12,0.59,0.12c0.08,0,0.15,-0.02,0.2,-0.06c0.05,-0.04,0.11,-0.13,0.19,-0.27l0.28,0" fill="#000000" stroke="none" fill-opacity="1"/>
</g>
<g stroke-width="1" fill="none">
<path d="m47.98,156.94l-9.22,0l0,-0.7l9.22,0l0,0.7m8.5,3.23l-0.81,2.23l-6.84,0l0,-0.31c2.01,-1.83,3.43,-3.33,4.25,-4.49c0.82,-1.16,1.23,-2.23,1.23,-3.2c0,-0.73,-0.23,-1.33,-0.68,-1.8c-0.45,-0.47,-0.99,-0.71,-1.62,-0.71c-0.57,0,-1.09,0.17,-1.54,0.5c-0.45,0.33,-0.78,0.82,-0.99,1.47l-0.33,0c0.15,-1.06,0.51,-1.87,1.1,-2.44c0.59,-0.56,1.33,-0.84,2.21,-0.84c0.94,0,1.72,0.3,2.35,0.91c0.63,0.6,0.95,1.32,0.95,2.14c0,0.58,-0.14,1.17,-0.41,1.75c-0.43,0.93,-1.11,1.91,-2.05,2.94c-1.43,1.55,-2.31,2.48,-2.66,2.8l3.02,0c0.61,0,1.05,-0.02,1.3,-0.06c0.25,-0.04,0.47,-0.13,0.67,-0.27c0.2,-0.14,0.37,-0.34,0.52,-0.6l0.33,0" fill="#000000" stroke="none" fill-opacity="1"/>
<path d="m47.98,131.87l-9.22,0l0,-0.7l9.22,0l0,0.7m2.52,-4.98l2.83,-1.37l0.28,0l0,9.78c0,0.66,0.03,1.06,0.08,1.22c0.05,0.16,0.16,0.28,0.34,0.37c0.17,0.09,0.52,0.14,1.04,0.15l0,0.31l-4.36,0l0,-0.31c0.55,-0.01,0.91,-0.06,1.07,-0.14c0.16,-0.08,0.27,-0.2,0.34,-0.34c0.06,-0.14,0.09,-0.56,0.09,-1.26l0,-6.25c0,-0.84,-0.03,-1.39,-0.09,-1.62c-0.04,-0.18,-0.11,-0.31,-0.22,-0.4c-0.1,-0.09,-0.23,-0.13,-0.37,-0.13c-0.21,0,-0.51,0.09,-0.89,0.27l-0.12,-0.27" fill="#000000" stroke="none" fill-opacity="1"/>
<path d="m49.08,100.56c0,-1.32,0.2,-2.46,0.6,-3.41c0.4,-0.95,0.93,-1.66,1.59,-2.13c0.52,-0.37,1.05,-0.56,1.59,-0.56c0.9,0,1.69,0.45,2.39,1.36c0.89,1.12,1.33,2.65,1.33,4.56c0,1.34,-0.19,2.49,-0.58,3.43c-0.39,0.94,-0.88,1.62,-1.48,2.05c-0.6,0.42,-1.18,0.63,-1.73,0.63c-1.1,0,-2.03,-0.65,-2.77,-1.95c-0.62,-1.1,-0.94,-2.43,-0.94,-3.97m1.69,0.2c0,1.59,0.19,2.9,0.58,3.91c0.33,0.85,0.82,1.28,1.45,1.28c0.31,0,0.63,-0.14,0.96,-0.41c0.33,-0.28,0.58,-0.74,0.76,-1.4c0.26,-0.98,0.39,-2.36,0.39,-4.14c0,-1.32,-0.14,-2.43,-0.41,-3.31c-0.21,-0.65,-0.47,-1.11,-0.8,-1.39c-0.24,-0.19,-0.52,-0.28,-0.84,-0.28c-0.4,0,-0.74,0.18,-1.05,0.53c-0.41,0.47,-0.68,1.21,-0.83,2.23c-0.15,1.02,-0.22,2.01,-0.22,2.99" fill="#000000" stroke="none" fill-opacity="1"/>
<path d="m50.5,64.78l2.83,-1.37l0.28,0l0,9.78c0,0.66,0.03,1.06,0.08,1.22c0.05,0.16,0.16,0.28,0.34,0.37c0.17,0.09,0.52,0.14,1.04,0.15l0,0.31l-4.36,0l0,-0.31c0.55,-0.01,0.91,-0.06,1.07,-0.14c0.16,-0.08,0.27,-0.2,0.34,-0.34c0.06,-0.14,0.09,-0.56,0.09,-1.26l0,-6.25c0,-0.84,-0.03,-1.39,-0.09,-1.62c-0.04,-0.18,-0.11,-0.31,-0.22,-0.4c-0.1,-0.09,-0.23,-0.13,-0.37,-0.13c-0.21,0,-0.51,0.09,-0.89,0.27l-0.12,-0.27" fill="#000000" stroke="none" fill-opacity="1"/>
<path d="m56.48,41.94l-0.81,2.23l-6.84,0l0,-0.31c2.01,-1.83,3.43,-3.33,4.25,-4.49c0.82,-1.16,1.23,-2.23,1.23,-3.2c0,-0.73,-0.23,-1.33,-0.68,-1.8c-0.45,-0.47,-0.99,-0.71,-1.62,-0.71c-0.57,0,-1.09,0.17,-1.54,0.5c-0.45,0.33,-0.78,0.82,-0.99,1.47l-0.33,0c0.15,-1.06,0.51,-1.87,1.1,-2.44c0.59,-0.56,1.33,-0.84,2.21,-0.84c0.94,0,1.72,0.3,2.35,0.91c0.63,0.6,0.95,1.32,0.95,2.14c0,0.58,-0.14,1.17,-0.41,1.75c-0.43,0.93,-1.11,1.91,-2.05,2.94c-1.43,1.55,-2.31,2.48,-2.66,2.8l3.02,0c0.61,0,1.05,-0.02,1.3,-0.06c0.25,-0.04,0.47,-0.13,0.67,-0.27c0.2,-0.14,0.37,-0.34,0.52,-0.6l0.33,0" fill="#000000" stroke="none" fill-opacity="1"/>
<path d="m49.34,6.62c0.33,-0.78,0.75,-1.39,1.25,-1.81c0.5,-0.43,1.13,-0.64,1.89,-0.64c0.93,0,1.64,0.3,2.12,0.91c0.37,0.45,0.56,0.93,0.56,1.45c0,0.83,-0.53,1.7,-1.58,2.61c0.71,0.28,1.24,0.68,1.61,1.2c0.36,0.52,0.55,1.12,0.55,1.82c0,1.01,-0.32,1.88,-0.95,2.61c-0.83,0.96,-2.04,1.44,-3.62,1.44c-0.77,0,-1.3,-0.1,-1.59,-0.29c-0.29,-0.19,-0.43,-0.4,-0.43,-0.62c0,-0.17,0.07,-0.31,0.2,-0.44c0.14,-0.12,0.3,-0.19,0.48,-0.19c0.15,0,0.29,0.02,0.44,0.06c0.09,0.03,0.31,0.14,0.66,0.31c0.34,0.18,0.58,0.29,0.72,0.33c0.21,0.06,0.43,0.09,0.67,0.09c0.58,0,1.09,-0.23,1.52,-0.68c0.43,-0.45,0.64,-0.99,0.64,-1.6c0,-0.45,-0.1,-0.89,-0.3,-1.31c-0.15,-0.32,-0.31,-0.57,-0.48,-0.73c-0.25,-0.23,-0.59,-0.43,-1.02,-0.62c-0.43,-0.18,-0.86,-0.27,-1.3,-0.27l-0.28,0l0,-0.25c0.45,-0.06,0.9,-0.23,1.35,-0.49c0.45,-0.27,0.78,-0.59,0.99,-0.97c0.21,-0.38,0.31,-0.79,0.31,-1.24c0,-0.58,-0.18,-1.06,-0.55,-1.42c-0.37,-0.36,-0.83,-0.55,-1.37,-0.55c-0.89,0,-1.62,0.47,-2.22,1.42l-0.28,-0.12" fill="#000000" stroke="none" fill-opacity="1"/>
</g>
<g stroke-width="0.62" stroke-linecap="butt" fill="none">
<path d="M60.46,162.42l465.91,0"/>
<path d="M60.46,162.42l0,-3.75M83.76,162.42l0,-3.75M107.05,162.42l0,-3.75M130.35,162.42l0,-3.75M153.64,162.42l0,-3.75M176.94,162.42l0,-3.75M200.24,162.42l0,-3.75M223.53,162.42l0,-3.75M246.83,162.42l0,-3.75M270.12,162.42l0,-3.75M293.42,162.42l0,-3.75M316.71,162.42l0,-3.75M340.01,162.42l0,-3.75M363.31,162.42l0,-3.75M386.6,162.42l0,-3.75M409.9,162.42l0,-3.75M433.19,162.42l0,-3.75M456.49,162.42l0,-3.75M479.78,162.42l0,-3.75M503.08,162.42l0,-3.75M526.38,162.42l0,-3.75"/>
<path d="M60.46,162.42l0,-7.5M176.94,162.42l0,-7.5M293.42,162.42l0,-7.5M409.9,162.42l0,-7.5M526.38,162.42l0,-7.5"/>
<path d="M60.46,7.11l465.91,0"/>
<path d="M60.46,7.11l0,3.75M83.76,7.11l0,3.75M107.05,7.11l0,3.75M130.35,7.11l0,3.75M153.64,7.11l0,3.75M176.94,7.11l0,3.75M200.24,7.11l0,3.75M223.53,7.11l0,3.75M246.83,7.11l0,3.75M270.12,7.11l0,3.75M293.42,7.11l0,3.75M316.71,7.11l0,3.75M340.01,7.11l0,3.75M363.31,7.11l0,3.75M386.6,7.11l0,3.75M409.9,7.11l0,3.75M433.19,7.11l0,3.75M456.49,7.11l0,3.75M479.78,7.11l0,3.75M503.08,7.11l0,3.75M526.38,7.11l0,3.75"/>
<path d="M60.46,7.11l0,7.5M176.94,7.11l0,7.5M293.42,7.11l0,7.5M409.9,7.11l0,7.5M526.38,7.11l0,7.5"/>
</g>
<g stroke-width="0.62" fill="#ffffff">
<path d="m60.46,162.42l465.91,0l0,155.3l-465.91,0l0,-155.3"/>
</g>
</g>
<g clip-path="url(#c2)">
<g stroke-width="0.62" stroke-dasharray="0.625,1.25" fill="none">
<polyline fill="none" points="60.46,272.8 83.76,235.22 107.05,266.78 130.35,310.98 153.64,264.11 176.94,246.2 200.24,250.69 223.53,239.67 246.83,273.45 270.12,245.02 293.42,269.19 316.71,253.58 340.01,290.91 363.31,212.98 386.6,200.84 409.9,273.22 433.19,201.28 456.49,176.26 479.78,249.44 503.08,199.24"/>
</g>
<g stroke-linejoin="miter" stroke-width="0.62" transform="translate(60.46, 272.8)" fill="#ff0000">
<path d="m0,5.3l5.3,-5.3l-5.3,-5.3l-5.3,5.3l5.3,5.3"/>
</g>
<g stroke-linejoin="miter" stroke-width="0.62" transform="translate(83.76, 235.22)" fill="#ff0000">
<path d="m0,5.3l5.3,-5.3l-5.3,-5.3l-5.3,5.3l5.3,5.3"/>
</g>
<g stroke-linejoin="miter" stroke-width="0.62" transform="translate(107.05, 266.78)" fill="#ff0000">
<path d="m0,5.3l5.3,-5.3l-5.3,-5.3l-5.3,5.3l5.3,5.3"/>
</g>
<g stroke-linejoin="miter" stroke-width="0.62" transform="translate(130.35, 310.98)" fill="#ff0000">
<path d="m0,5.3l5.3,-5.3l-5.3,-5.3l-5.3,5.3l5.3,5.3"/>
</g>
<g stroke-linejoin="miter" stroke-width="0.62" transform="translate(153.64, 264.11)" fill="#ff0000">
<path d="m0,5.3l5.3,-5.3l-5.3,-5.3l-5.3,5.3l5.3,5.3"/>
</g>
<g stroke-linejoin="miter" stroke-width="0.62" transform="translate(176.94, 246.2)" fill="#ff0000">
<path d="m0,5.3l5.3,-5.3l-5.3,-5.3l-5.3,5.3l5.3,5.3"/>
</g>
<g stroke-linejoin="miter" stroke-width="0.62" transform="translate(200.24, 250.69)" fill="#ff0000">
<path d="m0,5.3l5.3,-5.3l-5.3,-5.3l-5.3,5.3l5.3,5.3"/>
</g>
<g stroke-linejoin="miter" stroke-width="0.62" transform="translate(223.53, 239.67)" fill="#ff0000">
<path d="m0,5.3l5.3,-5.3l-5.3,-5.3l-5.3,5.3l5.3,5.3"/>
</g>
<g stroke-linejoin="miter" stroke-width="0.62" transform="translate(246.83, 273.45)" fill="#ff0000">
<path d="m0,5.3l5.3,-5.3l-5.3,-5.3l-5.3,5.3l5.3,5.3"/>
</g>
<g stroke-linejoin="miter" stroke-width="0.62" transform="translate(270.12, 245.02)" fill="#ff0000">
<path d="m0,5.3l5.3,-5.3l-5.3,-5.3l-5.3,5.3l5.3,5.3"/>
</g>
<g stroke-linejoin="miter" stroke-width="0.62" transform="translate(293.42, 269.19)" fill="#ff0000">
<path d="m0,5.3l5.3,-5.3l-5.3,-5.3l-5.3,5.3l5.3,5.3"/>
</g>
<g stroke-linejoin="miter" stroke-width="0.62" transform="translate(316.71, 253.58)" fill="#ff0000">
<path d="m0,5.3l5.3,-5.3l-5.3,-5.3l-5.3,5.3l5.3,5.3"/>
</g>
<g stroke-linejoin="miter" stroke-width="0.62" transform="translate(340.01, 290.91)" fill="#ff0000">
<path d="m0,5.3l5.3,-5.3l-5.3,-5.3l-5.3,5.3l5.3,5.3"/>
</g>
<g stroke-linejoin="miter" stroke-width="0.62" transform="translate(363.31, 212.98)" fill="#ff0000">
<path d="m0,5.3l5.3,-5.3l-5.3,-5.3l-5.3,5.3l5.3,5.3"/>
</g>
<g stroke-linejoin="miter" stroke-width="0.62" transform="translate(386.6, 200.84)" fill="#ff0000">
<path d="m0,5.3l5.3,-5.3l-5.3,-5.3l-5.3,5.3l5.3,5.3"/>
</g>
<g stroke-linejoin="miter" stroke-width="0.62" transform="translate(409.9, 273.22)" fill="#ff0000">
<path d="m0,5.3l5.3,-5.3l-5.3,-5.3l-5.3,5.3l5.3,5.3"/>
</g>
<g stroke-linejoin="miter" stroke-width="0.62" transform="translate(433.19, 201.28)" fill="#ff0000">
<path d="m0,5.3l5.3,-5.3l-5.3,-5.3l-5.3,5.3l5.3,5.3"/>
</g>
<g stroke-linejoin="miter" stroke-width="0.62" transform="translate(456.49, 176.26)" fill="#ff0000">
<path d="m0,5.3l5.3,-5.3l-5.3,-5.3l-5.3,5.3l5.3,5.3"/>
</g>
<g stroke-linejoin="miter" stroke-width="0.62" transform="translate(479.78, 249.44)" fill="#ff0000">
<path d="m0,5.3l5.3,-5.3l-5.3,-5.3l-5.3,5.3l5.3,5.3"/>
</g>
<g stroke-linejoin="miter" stroke-width="0.62" transform="translate(503.08, 199.24)" fill="#ff0000">
<path d="m0,5.3l5.3,-5.3l-5.3,-5.3l-5.3,5.3l5.3,5.3"/>
</g>
</g>
<g clip-path="url(#c0)">
<g stroke-width="0.62" stroke-linecap="butt" fill="none">
<path d="M60.46,317.72l0,-155.3"/>
<path d="M60.46,317.72l3.75,0M60.46,304.78l3.75,0M60.46,291.84l3.75,0M60.46,278.9l3.75,0M60.46,265.95l3.75,0M60.46,253.01l3.75,0M60.46,240.07l3.75,0M60.46,227.13l3.75,0M60.46,214.19l3.75,0M60.46,201.24l3.75,0M60.46,188.3l3.75,0M60.46,175.36l3.75,0M60.46,162.42l3.75,0"/>
<path d="M60.46,317.72l7.5,0M60.46,291.84l7.5,0M60.46,265.95l7.5,0M60.46,240.07l7.5,0M60.46,214.19l7.5,0M60.46,188.3l7.5,0M60.46,162.42l7.5,0"/>
<path d="M526.38,317.72l0,-155.3"/>
<path d="M526.38,317.72l-3.75,0M526.38,304.78l-3.75,0M526.38,291.84l-3.75,0M526.38,278.9l-3.75,0M526.38,265.95l-3.75,0M526.38,253.01l-3.75,0M526.38,240.07l-3.75,0M526.38,227.13l-3.75,0M526.38,214.19l-3.75,0M526.38,201.24l-3.75,0M526.38,188.3l-3.75,0M526.38,175.36l-3.75,0M526.38,162.42l-3.75,0"/>
<path d="M526.38,317.72l-7.5,0M526.38,291.84l-7.5,0M526.38,265.95l-7.5,0M526.38,240.07l-7.5,0M526.38,214.19l-7.5,0M526.38,188.3l-7.5,0M526.38,162.42l-7.5,0"/>
</g>
<g stroke-width="1" transform="matrix(0 -1 1 0 16 271.57)" fill="none">
<path d="m8.03,-11.86l0,4.02l-0.33,0c-0.1,-0.77,-0.29,-1.38,-0.55,-1.84c-0.26,-0.45,-0.64,-0.82,-1.12,-1.09c-0.49,-0.27,-1,-0.41,-1.53,-0.41c-0.59,0,-1.08,0.18,-1.47,0.55c-0.39,0.36,-0.58,0.78,-0.58,1.23c0,0.35,0.12,0.68,0.36,0.97c0.35,0.43,1.2,0.99,2.53,1.7c1.08,0.58,1.82,1.03,2.22,1.34c0.4,0.31,0.7,0.68,0.91,1.09c0.21,0.42,0.32,0.86,0.32,1.33c0,0.87,-0.34,1.63,-1.02,2.27c-0.68,0.64,-1.56,0.95,-2.63,0.95c-0.33,0,-0.65,-0.03,-0.94,-0.08c-0.18,-0.03,-0.54,-0.14,-1.1,-0.31c-0.56,-0.18,-0.91,-0.27,-1.05,-0.27c-0.15,0,-0.26,0.04,-0.34,0.12c-0.08,0.08,-0.15,0.26,-0.19,0.53l-0.31,0l0,-3.97l0.31,0c0.16,0.82,0.36,1.44,0.61,1.86c0.25,0.42,0.63,0.76,1.15,1.03c0.52,0.27,1.08,0.41,1.7,0.41c0.71,0,1.27,-0.19,1.68,-0.56c0.41,-0.37,0.62,-0.82,0.62,-1.33c0,-0.28,-0.08,-0.57,-0.23,-0.86c-0.16,-0.29,-0.4,-0.56,-0.72,-0.81c-0.23,-0.18,-0.84,-0.54,-1.83,-1.09c-0.99,-0.55,-1.69,-0.99,-2.11,-1.33c-0.42,-0.33,-0.73,-0.7,-0.95,-1.09c-0.22,-0.4,-0.33,-0.83,-0.33,-1.31c0,-0.83,0.32,-1.55,0.96,-2.16c0.64,-0.6,1.45,-0.91,2.43,-0.91c0.61,0,1.27,0.15,1.95,0.45c0.32,0.15,0.55,0.22,0.69,0.22c0.15,0,0.27,-0.04,0.36,-0.13c0.09,-0.09,0.17,-0.27,0.22,-0.54l0.33,0m2.08,4.03l3.28,0l0,0.31c-0.3,0.02,-0.5,0.08,-0.59,0.16c-0.09,0.09,-0.14,0.21,-0.14,0.37c0,0.18,0.05,0.39,0.14,0.64l1.69,4.5l1.67,-3.66l-0.44,-1.16c-0.14,-0.34,-0.32,-0.58,-0.55,-0.7c-0.12,-0.08,-0.35,-0.14,-0.69,-0.16l0,-0.31l3.72,0l0,0.31c-0.41,0.02,-0.7,0.1,-0.87,0.23c-0.11,0.08,-0.17,0.22,-0.17,0.42c0,0.11,0.03,0.23,0.08,0.36l1.77,4.48l1.66,-4.33c0.11,-0.3,0.17,-0.55,0.17,-0.73c0,-0.1,-0.05,-0.2,-0.16,-0.29c-0.11,-0.09,-0.33,-0.14,-0.66,-0.15l0,-0.31l2.47,0l0,0.31c-0.49,0.07,-0.85,0.41,-1.09,1.02l-2.61,6.73l-0.34,0l-1.97,-5l-2.28,5l-0.31,0l-2.52,-6.58c-0.16,-0.42,-0.32,-0.7,-0.48,-0.84c-0.16,-0.15,-0.41,-0.26,-0.76,-0.33l0,-0.31m15.42,-4.33c0.24,0,0.45,0.09,0.62,0.26c0.17,0.17,0.26,0.38,0.26,0.62c0,0.24,-0.09,0.44,-0.26,0.61c-0.17,0.17,-0.38,0.25,-0.62,0.25c-0.24,0,-0.44,-0.08,-0.61,-0.25c-0.17,-0.17,-0.25,-0.37,-0.25,-0.61c0,-0.24,0.08,-0.45,0.25,-0.62c0.17,-0.17,0.37,-0.26,0.61,-0.26m0.72,4.09l0,6.3c0,0.49,0.03,0.82,0.1,0.98c0.07,0.16,0.17,0.28,0.31,0.36c0.14,0.08,0.4,0.12,0.77,0.12l0,0.31l-3.81,0l0,-0.31c0.39,0,0.64,-0.04,0.77,-0.11c0.13,-0.07,0.23,-0.2,0.31,-0.37c0.08,-0.17,0.12,-0.5,0.12,-0.98l0,-3.02c0,-0.85,-0.03,-1.41,-0.08,-1.66c-0.04,-0.18,-0.1,-0.3,-0.19,-0.37c-0.08,-0.07,-0.2,-0.11,-0.34,-0.11c-0.17,0,-0.36,0.04,-0.59,0.12l-0.11,-0.3l2.36,-0.97l0.37,0m3.58,1.66c0.92,-1.1,1.79,-1.66,2.62,-1.66c0.43,0,0.79,0.11,1.1,0.32c0.31,0.21,0.55,0.57,0.73,1.05c0.14,0.34,0.2,0.87,0.2,1.58l0,3.34c0,0.49,0.04,0.82,0.11,1c0.06,0.15,0.16,0.26,0.3,0.34c0.14,0.08,0.4,0.12,0.77,0.12l0,0.31l-3.87,0l0,-0.31l0.17,0c0.36,0,0.62,-0.05,0.77,-0.16c0.15,-0.11,0.24,-0.27,0.3,-0.49c0.02,-0.08,0.03,-0.35,0.03,-0.8l0,-3.2c0,-0.72,-0.09,-1.24,-0.27,-1.55c-0.18,-0.32,-0.49,-0.48,-0.93,-0.48c-0.68,0,-1.35,0.37,-2.03,1.11l0,4.12c0,0.53,0.03,0.86,0.09,0.98c0.08,0.17,0.19,0.29,0.33,0.36c0.14,0.07,0.42,0.11,0.86,0.11l0,0.31l-3.87,0l0,-0.31l0.17,0c0.4,0,0.66,-0.1,0.8,-0.3c0.14,-0.2,0.21,-0.59,0.21,-1.15l0,-2.91c0,-0.94,-0.02,-1.51,-0.06,-1.72c-0.04,-0.21,-0.11,-0.35,-0.2,-0.42c-0.09,-0.07,-0.21,-0.11,-0.37,-0.11c-0.16,0,-0.34,0.04,-0.56,0.12l-0.12,-0.3l2.36,-0.97l0.36,0l0,1.66m12.25,5.53c-0.39,0.4,-0.76,0.68,-1.12,0.85c-0.36,0.17,-0.76,0.26,-1.17,0.26c-0.85,0,-1.6,-0.36,-2.24,-1.07c-0.64,-0.71,-0.96,-1.63,-0.96,-2.76c0,-1.11,0.35,-2.14,1.06,-3.07c0.71,-0.93,1.61,-1.4,2.72,-1.4c0.7,0,1.27,0.22,1.72,0.66l0,-1.45c0,-0.89,-0.02,-1.43,-0.06,-1.64c-0.04,-0.21,-0.11,-0.35,-0.2,-0.42c-0.09,-0.07,-0.21,-0.11,-0.34,-0.11c-0.15,0,-0.34,0.05,-0.59,0.14l-0.11,-0.3l2.33,-0.97l0.39,0l0,9.05c0,0.93,0.02,1.49,0.06,1.69c0.04,0.2,0.11,0.34,0.2,0.42c0.09,0.08,0.2,0.12,0.33,0.12c0.16,0,0.36,-0.05,0.62,-0.16l0.09,0.31l-2.33,0.95l-0.39,0l0,-1.11m0,-0.61l0,-4.03c-0.03,-0.39,-0.13,-0.74,-0.3,-1.05c-0.17,-0.32,-0.4,-0.56,-0.68,-0.72c-0.28,-0.16,-0.56,-0.24,-0.83,-0.24c-0.5,0,-0.95,0.22,-1.34,0.67c-0.52,0.59,-0.78,1.46,-0.78,2.59c0,1.16,0.25,2.04,0.76,2.65c0.51,0.61,1.07,0.91,1.68,0.91c0.51,0,1.01,-0.26,1.5,-0.78m7.3,-6.58c1.19,0,2.14,0.45,2.86,1.36c0.6,0.77,0.91,1.65,0.91,2.64c0,0.7,-0.17,1.41,-0.5,2.12c-0.33,0.72,-0.8,1.26,-1.39,1.62c-0.59,0.36,-1.25,0.55,-1.97,0.55c-1.18,0,-2.11,-0.47,-2.81,-1.41c-0.58,-0.79,-0.87,-1.68,-0.87,-2.67c0,-0.71,0.18,-1.42,0.53,-2.13c0.35,-0.71,0.82,-1.24,1.41,-1.58c0.58,-0.34,1.2,-0.51,1.84,-0.51m-0.27,0.56c-0.3,0,-0.6,0.09,-0.91,0.27c-0.3,0.18,-0.55,0.49,-0.74,0.95c-0.19,0.45,-0.29,1.03,-0.29,1.74c0,1.14,0.23,2.11,0.68,2.94c0.45,0.82,1.05,1.23,1.8,1.23c0.55,0,1.01,-0.23,1.36,-0.68c0.35,-0.45,0.53,-1.24,0.53,-2.35c0,-1.39,-0.3,-2.48,-0.89,-3.28c-0.41,-0.54,-0.92,-0.81,-1.55,-0.81m7.72,1.09c0.92,-1.1,1.79,-1.66,2.62,-1.66c0.43,0,0.79,0.11,1.1,0.32c0.31,0.21,0.55,0.57,0.73,1.05c0.14,0.34,0.2,0.87,0.2,1.58l0,3.34c0,0.49,0.04,0.82,0.11,1c0.06,0.15,0.16,0.26,0.3,0.34c0.14,0.08,0.4,0.12,0.77,0.12l0,0.31l-3.87,0l0,-0.31l0.17,0c0.36,0,0.62,-0.05,0.77,-0.16c0.15,-0.11,0.24,-0.27,0.3,-0.49c0.02,-0.08,0.03,-0.35,0.03,-0.8l0,-3.2c0,-0.72,-0.09,-1.24,-0.27,-1.55c-0.18,-0.32,-0.49,-0.48,-0.93,-0.48c-0.68,0,-1.35,0.37,-2.03,1.11l0,4.12c0,0.53,0.03,0.86,0.09,0.98c0.08,0.17,0.19,0.29,0.33,0.36c0.14,0.07,0.42,0.11,0.86,0.11l0,0.31l-3.87,0l0,-0.31l0.17,0c0.4,0,0.66,-0.1,0.8,-0.3c0.14,-0.2,0.21,-0.59,0.21,-1.15l0,-2.91c0,-0.94,-0.02,-1.51,-0.06,-1.72c-0.04,-0.21,-0.11,-0.35,-0.2,-0.42c-0.09,-0.07,-0.21,-0.11,-0.37,-0.11c-0.16,0,-0.34,0.04,-0.56,0.12l-0.12,-0.3l2.36,-0.97l0.36,0l0,1.66" fill="#000000" stroke="none" fill-opacity="1"/>
</g>
<g stroke-width="1" fill="none">
<path d="m47.98,312.25l-9.22,0l0,-0.7l9.22,0l0,0.7m2.52,-4.98l2.83,-1.37l0.28,0l0,9.78c0,0.66,0.03,1.06,0.08,1.22c0.05,0.16,0.16,0.28,0.34,0.37c0.17,0.09,0.52,0.14,1.04,0.15l0,0.31l-4.36,0l0,-0.31c0.55,-0.01,0.91,-0.06,1.07,-0.14c0.16,-0.08,0.27,-0.2,0.34,-0.34c0.06,-0.14,0.09,-0.56,0.09,-1.26l0,-6.25c0,-0.84,-0.03,-1.39,-0.09,-1.62c-0.04,-0.18,-0.11,-0.31,-0.22,-0.4c-0.1,-0.09,-0.23,-0.13,-0.37,-0.13c-0.21,0,-0.51,0.09,-0.89,0.27l-0.12,-0.27" fill="#000000" stroke="none" fill-opacity="1"/>
<path d="m49.08,292.11c0,-1.32,0.2,-2.46,0.6,-3.41c0.4,-0.95,0.93,-1.66,1.59,-2.13c0.52,-0.37,1.05,-0.56,1.59,-0.56c0.9,0,1.69,0.45,2.39,1.36c0.89,1.12,1.33,2.65,1.33,4.56c0,1.34,-0.19,2.49,-0.58,3.43c-0.39,0.94,-0.88,1.62,-1.48,2.05c-0.6,0.42,-1.18,0.63,-1.73,0.63c-1.1,0,-2.03,-0.65,-2.77,-1.95c-0.62,-1.1,-0.94,-2.43,-0.94,-3.97m1.69,0.2c0,1.59,0.19,2.9,0.58,3.91c0.33,0.85,0.82,1.28,1.45,1.28c0.31,0,0.63,-0.14,0.96,-0.41c0.33,-0.28,0.58,-0.74,0.76,-1.4c0.26,-0.98,0.39,-2.36,0.39,-4.14c0,-1.32,-0.14,-2.43,-0.41,-3.31c-0.21,-0.65,-0.47,-1.11,-0.8,-1.39c-0.24,-0.19,-0.52,-0.28,-0.84,-0.28c-0.4,0,-0.74,0.18,-1.05,0.53c-0.41,0.47,-0.68,1.21,-0.83,2.23c-0.15,1.02,-0.22,2.01,-0.22,2.99" fill="#000000" stroke="none" fill-opacity="1"/>
<path d="m50.5,261.5l2.83,-1.37l0.28,0l0,9.78c0,0.66,0.03,1.06,0.08,1.22c0.05,0.16,0.16,0.28,0.34,0.37c0.17,0.09,0.52,0.14,1.04,0.15l0,0.31l-4.36,0l0,-0.31c0.55,-0.01,0.91,-0.06,1.07,-0.14c0.16,-0.08,0.27,-0.2,0.34,-0.34c0.06,-0.14,0.09,-0.56,0.09,-1.26l0,-6.25c0,-0.84,-0.03,-1.39,-0.09,-1.62c-0.04,-0.18,-0.11,-0.31,-0.22,-0.4c-0.1,-0.09,-0.23,-0.13,-0.37,-0.13c-0.21,0,-0.51,0.09,-0.89,0.27l-0.12,-0.27" fill="#000000" stroke="none" fill-opacity="1"/>
<path d="m56.48,243.83l-0.81,2.23l-6.84,0l0,-0.31c2.01,-1.83,3.43,-3.33,4.25,-4.49c0.82,-1.16,1.23,-2.23,1.23,-3.2c0,-0.73,-0.23,-1.33,-0.68,-1.8c-0.45,-0.47,-0.99,-0.71,-1.62,-0.71c-0.57,0,-1.09,0.17,-1.54,0.5c-0.45,0.33,-0.78,0.82,-0.99,1.47l-0.33,0c0.15,-1.06,0.51,-1.87,1.1,-2.44c0.59,-0.56,1.33,-0.84,2.21,-0.84c0.94,0,1.72,0.3,2.35,0.91c0.63,0.6,0.95,1.32,0.95,2.14c0,0.58,-0.14,1.17,-0.41,1.75c-0.43,0.93,-1.11,1.91,-2.05,2.94c-1.43,1.55,-2.31,2.48,-2.66,2.8l3.02,0c0.61,0,1.05,-0.02,1.3,-0.06c0.25,-0.04,0.47,-0.13,0.67,-0.27c0.2,-0.14,0.37,-0.34,0.52,-0.6l0.33,0" fill="#000000" stroke="none" fill-opacity="1"/>
<path d="m49.34,210.8c0.33,-0.78,0.75,-1.39,1.25,-1.81c0.5,-0.43,1.13,-0.64,1.89,-0.64c0.93,0,1.64,0.3,2.12,0.91c0.37,0.45,0.56,0.93,0.56,1.45c0,0.83,-0.53,1.7,-1.58,2.61c0.71,0.28,1.24,0.68,1.61,1.2c0.36,0.52,0.55,1.12,0.55,1.82c0,1.01,-0.32,1.88,-0.95,2.61c-0.83,0.96,-2.04,1.44,-3.62,1.44c-0.77,0,-1.3,-0.1,-1.59,-0.29c-0.29,-0.19,-0.43,-0.4,-0.43,-0.62c0,-0.17,0.07,-0.31,0.2,-0.44c0.14,-0.12,0.3,-0.19,0.48,-0.19c0.15,0,0.29,0.02,0.44,0.06c0.09,0.03,0.31,0.14,0.66,0.31c0.34,0.18,0.58,0.29,0.72,0.33c0.21,0.06,0.43,0.09,0.67,0.09c0.58,0,1.09,-0.23,1.52,-0.68c0.43,-0.45,0.64,-0.99,0.64,-1.6c0,-0.45,-0.1,-0.89,-0.3,-1.31c-0.15,-0.32,-0.31,-0.57,-0.48,-0.73c-0.25,-0.23,-0.59,-0.43,-1.02,-0.62c-0.43,-0.18,-0.86,-0.27,-1.3,-0.27l-0.28,0l0,-0.25c0.45,-0.06,0.9,-0.23,1.35,-0.49c0.45,-0.27,0.78,-0.59,0.99,-0.97c0.21,-0.38,0.31,-0.79,0.31,-1.24c0,-0.58,-0.18,-1.06,-0.55,-1.42c-0.37,-0.36,-0.83,-0.55,-1.37,-0.55c-0.89,0,-1.62,0.47,-2.22,1.42l-0.28,-0.12" fill="#000000" stroke="none" fill-opacity="1"/>
<path d="m56.59,190.03l0,1.2l-1.55,0l0,3.06l-1.42,0l0,-3.06l-4.89,0l0,-1.09l5.36,-7.67l0.95,0l0,7.56l1.55,0m-2.97,0l0,-5.75l-4.06,5.75l4.06,0" fill="#000000" stroke="none" fill-opacity="1"/>
<path d="m56.05,166.81l-0.66,1.45l-3.5,0l-0.75,1.56c1.51,0.22,2.7,0.78,3.58,1.69c0.76,0.77,1.14,1.68,1.14,2.73c0,0.6,-0.12,1.17,-0.37,1.69c-0.24,0.52,-0.56,0.96,-0.94,1.33c-0.38,0.36,-0.8,0.66,-1.26,0.87c-0.66,0.31,-1.33,0.47,-2.02,0.47c-0.7,0,-1.2,-0.12,-1.52,-0.35c-0.31,-0.23,-0.47,-0.5,-0.47,-0.79c0,-0.16,0.07,-0.29,0.2,-0.41c0.13,-0.12,0.29,-0.18,0.49,-0.18c0.15,0,0.27,0.02,0.38,0.06c0.11,0.04,0.3,0.16,0.57,0.34c0.43,0.3,0.86,0.45,1.3,0.45c0.67,0,1.25,-0.25,1.76,-0.76c0.51,-0.51,0.76,-1.12,0.76,-1.84c0,-0.71,-0.22,-1.36,-0.67,-1.97c-0.45,-0.6,-1.07,-1.07,-1.86,-1.41c-0.62,-0.26,-1.47,-0.41,-2.55,-0.44l2.22,-4.52l4.16,0" fill="#000000" stroke="none" fill-opacity="1"/>
</g>
<g stroke-width="0.62" stroke-linecap="butt" fill="none">
<path d="M60.46,317.72l465.91,0"/>
<path d="M60.46,317.72l0,-3.75M83.76,317.72l0,-3.75M107.05,317.72l0,-3.75M130.35,317.72l0,-3.75M153.64,317.72l0,-3.75M176.94,317.72l0,-3.75M200.24,317.72l0,-3.75M223.53,317.72l0,-3.75M246.83,317.72l0,-3.75M270.12,317.72l0,-3.75M293.42,317.72l0,-3.75M316.71,317.72l0,-3.75M340.01,317.72l0,-3.75M363.31,317.72l0,-3.75M386.6,317.72l0,-3.75M409.9,317.72l0,-3.75M433.19,317.72l0,-3.75M456.49,317.72l0,-3.75M479.78,317.72l0,-3.75M503.08,317.72l0,-3.75M526.38,317.72l0,-3.75"/>
<path d="M60.46,317.72l0,-7.5M176.94,317.72l0,-7.5M293.42,317.72l0,-7.5M409.9,317.72l0,-7.5M526.38,317.72l0,-7.5"/>
<path d="M60.46,162.42l465.91,0"/>
<path d="M60.46,162.42l0,3.75M83.76,162.42l0,3.75M107.05,162.42l0,3.75M130.35,162.42l0,3.75M153.64,162.42l0,3.75M176.94,162.42l0,3.75M200.24,162.42l0,3.75M223.53,162.42l0,3.75M246.83,162.42l0,3.75M270.12,162.42l0,3.75M293.42,162.42l0,3.75M316.71,162.42l0,3.75M340.01,162.42l0,3.75M363.31,162.42l0,3.75M386.6,162.42l0,3.75M409.9,162.42l0,3.75M433.19,162.42l0,3.75M456.49,162.42l0,3.75M479.78,162.42l0,3.75M503.08,162.42l0,3.75M526.38,162.42l0,3.75"/>
<path d="M60.46,162.42l0,7.5M176.94,162.42l0,7.5M293.42,162.42l0,7.5M409.9,162.42l0,7.5M526.38,162.42l0,7.5"/>
</g>
<g stroke-width="0.62" fill="#ffffff">
<path d="m60.46,317.72l465.91,0l0,155.3l-465.91,0l0,-155.3"/>
</g>
</g>
<g clip-path="url(#c3)">
<g stroke-width="0.62" stroke-linecap="butt" fill="none">
<path d="M60.46,395.53l0,-7.45M83.76,411.06l0,-7.45M107.05,326.08l0,-7.45M130.35,342.87l0,-7.45M153.64,372.51l0,-7.45M176.94,383.94l0,-7.45M200.24,401.96l0,-7.45M223.53,421.7l0,-7.45M246.83,361.5l0,-7.45M270.12,469.92l0,-7.45M293.42,415.52l0,-7.45M316.71,426.47l0,-7.45M340.01,428.66l0,-7.45M363.31,382.8l0,-7.45M386.6,436.55l0,-7.45M409.9,419.34l0,-7.45M433.19,414.29l0,-7.45M456.49,427.61l0,-7.45M479.78,388.84l0,-7.45M503.08,424.4l0,-7.45"/>
</g>
<g stroke-width="0.62" stroke-dasharray="2.5,1.25" fill="none">
<polyline fill="none" points="60.46,391.8 83.76,407.33 107.05,322.35 130.35,339.15 153.64,368.78 176.94,380.21 200.24,398.23 223.53,417.97 246.83,357.78 270.12,466.19 293.42,411.79 316.71,422.75 340.01,424.93 363.31,379.08 386.6,432.82 409.9,415.62 433.19,410.56 456.49,423.88 479.78,385.12 503.08,420.67"/>
</g>
<g stroke-linejoin="miter" stroke-width="0.62" transform="translate(60.46, 391.8)" fill="#0000ff">
<path d="m-3.75,-3.75l7.5,0l0,7.5l-7.5,0l0,-7.5"/>
</g>
<g stroke-linejoin="miter" stroke-width="0.62" transform="translate(83.76, 407.33)" fill="#0000ff">
<path d="m-3.75,-3.75l7.5,0l0,7.5l-7.5,0l0,-7.5"/>
</g>
<g stroke-linejoin="miter" stroke-width="0.62" transform="translate(107.05, 322.35)" fill="#0000ff">
<path d="m-3.75,-3.75l7.5,0l0,7.5l-7.5,0l0,-7.5"/>
</g>
<g stroke-linejoin="miter" stroke-width="0.62" transform="translate(130.35, 339.15)" fill="#0000ff">
<path d="m-3.75,-3.75l7.5,0l0,7.5l-7.5,0l0,-7.5"/>
</g>
<g stroke-linejoin="miter" stroke-width="0.62" transform="translate(153.64, 368.78)" fill="#0000ff">
<path d="m-3.75,-3.75l7.5,0l0,7.5l-7.5,0l0,-7.5"/>
</g>
<g stroke-linejoin="miter" stroke-width="0.62" transform="translate(176.94, 380.21)" fill="#0000ff">
<path d="m-3.75,-3.75l7.5,0l0,7.5l-7.5,0l0,-7.5"/>
</g>
<g stroke-linejoin="miter" stroke-width="0.62" transform="translate(200.24, 398.23)" fill="#0000ff">
<path d="m-3.75,-3.75l7.5,0l0,7.5l-7.5,0l0,-7.5"/>
</g>
<g stroke-linejoin="miter" stroke-width="0.62" transform="translate(223.53, 417.97)" fill="#0000ff">
<path d="m-3.75,-3.75l7.5,0l0,7.5l-7.5,0l0,-7.5"/>
</g>
<g stroke-linejoin="miter" stroke-width="0.62" transform="translate(246.83, 357.78)" fill="#0000ff">
<path d="m-3.75,-3.75l7.5,0l0,7.5l-7.5,0l0,-7.5"/>
</g>
<g stroke-linejoin="miter" stroke-width="0.62" transform="translate(270.12, 466.19)" fill="#0000ff">
<path d="m-3.75,-3.75l7.5,0l0,7.5l-7.5,0l0,-7.5"/>
</g>
<g stroke-linejoin="miter" stroke-width="0.62" transform="translate(293.42, 411.79)" fill="#0000ff">
<path d="m-3.75,-3.75l7.5,0l0,7.5l-7.5,0l0,-7.5"/>
</g>
<g stroke-linejoin="miter" stroke-width="0.62" transform="translate(316.71, 422.75)" fill="#0000ff">
<path d="m-3.75,-3.75l7.5,0l0,7.5l-7.5,0l0,-7.5"/>
</g>
<g stroke-linejoin="miter" stroke-width="0.62" transform="translate(340.01, 424.93)" fill="#0000ff">
<path d="m-3.75,-3.75l7.5,0l0,7.5l-7.5,0l0,-7.5"/>
</g>
<g stroke-linejoin="miter" stroke-width="0.62" transform="translate(363.31, 379.08)" fill="#0000ff">
<path d="m-3.75,-3.75l7.5,0l0,7.5l-7.5,0l0,-7.5"/>
</g>
<g stroke-linejoin="miter" stroke-width="0.62" transform="translate(386.6, 432.82)" fill="#0000ff">
<path d="m-3.75,-3.75l7.5,0l0,7.5l-7.5,0l0,-7.5"/>
</g>
<g stroke-linejoin="miter" stroke-width="0.62" transform="translate(409.9, 415.62)" fill="#0000ff">
<path d="m-3.75,-3.75l7.5,0l0,7.5l-7.5,0l0,-7.5"/>
</g>
<g stroke-linejoin="miter" stroke-width="0.62" transform="translate(433.19, 410.56)" fill="#0000ff">
<path d="m-3.75,-3.75l7.5,0l0,7.5l-7.5,0l0,-7.5"/>
</g>
<g stroke-linejoin="miter" stroke-width="0.62" transform="translate(456.49, 423.88)" fill="#0000ff">
<path d="m-3.75,-3.75l7.5,0l0,7.5l-7.5,0l0,-7.5"/>
</g>
<g stroke-linejoin="miter" stroke-width="0.62" transform="translate(479.78, 385.12)" fill="#0000ff">
<path d="m-3.75,-3.75l7.5,0l0,7.5l-7.5,0l0,-7.5"/>
</g>
<g stroke-linejoin="miter" stroke-width="0.62" transform="translate(503.08, 420.67)" fill="#0000ff">
<path d="m-3.75,-3.75l7.5,0l0,7.5l-7.5,0l0,-7.5"/>
</g>
</g>
<g clip-path="url(#c0)">
<g stroke-width="0.62" stroke-linecap="butt" fill="none">
<path d="M60.46,473.03l0,-155.3"/>
<path d="M60.46,473.03l3.75,0M60.46,466.81l3.75,0M60.46,460.6l3.75,0M60.46,454.39l3.75,0M60.46,448.18l3.75,0M60.46,441.97l3.75,0M60.46,435.75l3.75,0M60.46,429.54l3.75,0M60.46,423.33l3.75,0M60.46,417.12l3.75,0M60.46,410.91l3.75,0M60.46,404.69l3.75,0M60.46,398.48l3.75,0M60.46,392.27l3.75,0M60.46,386.06l3.75,0M60.46,379.84l3.75,0M60.46,373.63l3.75,0M60.46,367.42l3.75,0M60.46,361.21l3.75,0M60.46,355l3.75,0M60.46,348.78l3.75,0M60.46,342.57l3.75,0M60.46,336.36l3.75,0M60.46,330.15l3.75,0M60.46,323.93l3.75,0M60.46,317.72l3.75,0"/>
<path d="M60.46,473.03l7.5,0M60.46,441.97l7.5,0M60.46,410.91l7.5,0M60.46,379.84l7.5,0M60.46,348.78l7.5,0M60.46,317.72l7.5,0"/>
<path d="M526.38,473.03l0,-155.3"/>
<path d="M526.38,473.03l-3.75,0M526.38,466.81l-3.75,0M526.38,460.6l-3.75,0M526.38,454.39l-3.75,0M526.38,448.18l-3.75,0M526.38,441.97l-3.75,0M526.38,435.75l-3.75,0M526.38,429.54l-3.75,0M526.38,423.33l-3.75,0M526.38,417.12l-3.75,0M526.38,410.91l-3.75,0M526.38,404.69l-3.75,0M526.38,398.48l-3.75,0M526.38,392.27l-3.75,0M526.38,386.06l-3.75,0M526.38,379.84l-3.75,0M526.38,373.63l-3.75,0M526.38,367.42l-3.75,0M526.38,361.21l-3.75,0M526.38,355l-3.75,0M526.38,348.78l-3.75,0M526.38,342.57l-3.75,0M526.38,336.36l-3.75,0M526.38,330.15l-3.75,0M526.38,323.93l-3.75,0M526.38,317.72l-3.75,0"/>
<path d="M526.38,473.03l-7.5,0M526.38,441.97l-7.5,0M526.38,410.91l-7.5,0M526.38,379.84l-7.5,0M526.38,348.78l-7.5,0M526.38,317.72l-7.5,0"/>
</g>
<g stroke-width="1" transform="matrix(0 -1 1 0 16 431.87)" fill="none">
<path d="m0.3,0l0,-0.31l0.44,0c0.49,0,0.84,-0.16,1.05,-0.47c0.12,-0.19,0.19,-0.61,0.19,-1.27l0,-7.48c0,-0.73,-0.08,-1.18,-0.25,-1.36c-0.22,-0.25,-0.55,-0.37,-0.98,-0.37l-0.44,0l0,-0.33l4.72,0c1.73,0,3.05,0.2,3.95,0.59c0.91,0.4,1.63,1.05,2.18,1.97c0.55,0.92,0.82,1.97,0.82,3.17c0,1.61,-0.49,2.96,-1.47,4.05c-1.09,1.21,-2.77,1.81,-5.02,1.81l-5.19,0m3.31,-0.84c0.72,0.17,1.32,0.25,1.81,0.25c1.32,0,2.42,-0.47,3.29,-1.4c0.87,-0.93,1.3,-2.19,1.3,-3.77c0,-1.6,-0.43,-2.87,-1.3,-3.79c-0.87,-0.92,-1.99,-1.38,-3.35,-1.38c-0.51,0,-1.09,0.08,-1.75,0.25l0,9.84m11.92,-11.31c0.24,0,0.45,0.09,0.62,0.26c0.17,0.17,0.26,0.38,0.26,0.62c0,0.24,-0.09,0.44,-0.26,0.61c-0.17,0.17,-0.38,0.25,-0.62,0.25c-0.24,0,-0.44,-0.08,-0.61,-0.25c-0.17,-0.17,-0.25,-0.37,-0.25,-0.61c0,-0.24,0.08,-0.45,0.25,-0.62c0.17,-0.17,0.37,-0.26,0.61,-0.26m0.72,4.09l0,6.3c0,0.49,0.03,0.82,0.1,0.98c0.07,0.16,0.17,0.28,0.31,0.36c0.14,0.08,0.4,0.12,0.77,0.12l0,0.31l-3.81,0l0,-0.31c0.39,0,0.64,-0.04,0.77,-0.11c0.13,-0.07,0.23,-0.2,0.31,-0.37c0.08,-0.17,0.12,-0.5,0.12,-0.98l0,-3.02c0,-0.85,-0.03,-1.41,-0.08,-1.66c-0.04,-0.18,-0.1,-0.3,-0.19,-0.37c-0.08,-0.07,-0.2,-0.11,-0.34,-0.11c-0.17,0,-0.36,0.04,-0.59,0.12l-0.11,-0.3l2.36,-0.97l0.37,0m6.36,0l0,2.67l-0.28,0c-0.22,-0.83,-0.5,-1.4,-0.84,-1.7c-0.34,-0.3,-0.77,-0.45,-1.29,-0.45c-0.41,0,-0.73,0.1,-0.98,0.31c-0.24,0.21,-0.37,0.44,-0.37,0.7c0,0.31,0.09,0.58,0.28,0.81c0.18,0.24,0.54,0.49,1.08,0.75l1.23,0.61c1.16,0.56,1.73,1.3,1.73,2.22c0,0.72,-0.27,1.29,-0.8,1.73c-0.54,0.43,-1.14,0.65,-1.8,0.65c-0.48,0,-1.03,-0.08,-1.64,-0.25c-0.19,-0.06,-0.34,-0.09,-0.45,-0.09c-0.14,0,-0.24,0.08,-0.31,0.23l-0.28,0l0,-2.8l0.28,0c0.16,0.79,0.46,1.39,0.91,1.8c0.45,0.41,0.96,0.61,1.51,0.61c0.4,0,0.72,-0.11,0.97,-0.34c0.25,-0.23,0.37,-0.51,0.37,-0.83c0,-0.4,-0.14,-0.73,-0.41,-1c-0.28,-0.27,-0.83,-0.61,-1.66,-1.02c-0.83,-0.41,-1.37,-0.78,-1.63,-1.11c-0.25,-0.32,-0.37,-0.73,-0.37,-1.23c0,-0.65,0.22,-1.18,0.66,-1.62c0.44,-0.43,1.01,-0.65,1.72,-0.65c0.3,0,0.67,0.07,1.11,0.2c0.29,0.08,0.49,0.12,0.59,0.12c0.08,0,0.15,-0.02,0.2,-0.06c0.05,-0.04,0.11,-0.13,0.19,-0.27l0.28,0m8.58,5.09c-0.21,1.03,-0.62,1.82,-1.23,2.37c-0.61,0.55,-1.3,0.83,-2.05,0.83c-0.89,0,-1.66,-0.37,-2.32,-1.12c-0.66,-0.74,-0.99,-1.75,-0.99,-3.02c0,-1.23,0.37,-2.23,1.1,-3c0.73,-0.77,1.61,-1.16,2.63,-1.16c0.77,0,1.4,0.2,1.9,0.61c0.49,0.41,0.74,0.83,0.74,1.28c0,0.21,-0.07,0.38,-0.21,0.52c-0.14,0.14,-0.34,0.2,-0.59,0.2c-0.33,0,-0.58,-0.11,-0.75,-0.33c-0.1,-0.11,-0.17,-0.34,-0.2,-0.68c-0.03,-0.34,-0.15,-0.6,-0.34,-0.77c-0.2,-0.17,-0.47,-0.25,-0.83,-0.25c-0.56,0,-1.02,0.21,-1.37,0.62c-0.46,0.56,-0.69,1.3,-0.69,2.22c0,0.94,0.23,1.76,0.69,2.48c0.46,0.71,1.08,1.07,1.86,1.07c0.55,0,1.05,-0.19,1.5,-0.58c0.31,-0.26,0.62,-0.73,0.92,-1.42l0.23,0.12m0.92,-4.86l3.28,0l0,0.31c-0.3,0.02,-0.5,0.08,-0.59,0.16c-0.09,0.09,-0.14,0.21,-0.14,0.37c0,0.18,0.05,0.39,0.14,0.64l1.69,4.5l1.67,-3.66l-0.44,-1.16c-0.14,-0.34,-0.32,-0.58,-0.55,-0.7c-0.12,-0.08,-0.35,-0.14,-0.69,-0.16l0,-0.31l3.72,0l0,0.31c-0.41,0.02,-0.7,0.1,-0.87,0.23c-0.11,0.08,-0.17,0.22,-0.17,0.42c0,0.11,0.03,0.23,0.08,0.36l1.77,4.48l1.66,-4.33c0.11,-0.3,0.17,-0.55,0.17,-0.73c0,-0.1,-0.05,-0.2,-0.16,-0.29c-0.11,-0.09,-0.33,-0.14,-0.66,-0.15l0,-0.31l2.47,0l0,0.31c-0.49,0.07,-0.85,0.41,-1.09,1.02l-2.61,6.73l-0.34,0l-1.97,-5l-2.28,5l-0.31,0l-2.52,-6.58c-0.16,-0.42,-0.32,-0.7,-0.48,-0.84c-0.16,-0.15,-0.41,-0.26,-0.76,-0.33l0,-0.31m17.27,-0.23c1.19,0,2.14,0.45,2.86,1.36c0.6,0.77,0.91,1.65,0.91,2.64c0,0.7,-0.17,1.41,-0.5,2.12c-0.33,0.72,-0.8,1.26,-1.39,1.62c-0.59,0.36,-1.25,0.55,-1.97,0.55c-1.18,0,-2.11,-0.47,-2.81,-1.41c-0.58,-0.79,-0.87,-1.68,-0.87,-2.67c0,-0.71,0.18,-1.42,0.53,-2.13c0.35,-0.71,0.82,-1.24,1.41,-1.58c0.58,-0.34,1.2,-0.51,1.84,-0.51m-0.27,0.56c-0.3,0,-0.6,0.09,-0.91,0.27c-0.3,0.18,-0.55,0.49,-0.74,0.95c-0.19,0.45,-0.29,1.03,-0.29,1.74c0,1.14,0.23,2.11,0.68,2.94c0.45,0.82,1.05,1.23,1.8,1.23c0.55,0,1.01,-0.23,1.36,-0.68c0.35,-0.45,0.53,-1.24,0.53,-2.35c0,-1.39,-0.3,-2.48,-0.89,-3.28c-0.41,-0.54,-0.92,-0.81,-1.55,-0.81m7.73,-0.56l0,1.77c0.65,-1.18,1.32,-1.77,2.02,-1.77c0.31,0,0.57,0.1,0.77,0.29c0.2,0.19,0.3,0.41,0.3,0.66c0,0.22,-0.07,0.41,-0.22,0.56c-0.15,0.16,-0.32,0.23,-0.53,0.23c-0.2,0,-0.42,-0.1,-0.67,-0.3c-0.25,-0.2,-0.43,-0.3,-0.55,-0.3c-0.1,0,-0.22,0.06,-0.34,0.17c-0.25,0.23,-0.51,0.61,-0.78,1.16l0,3.75c0,0.44,0.05,0.77,0.16,0.98c0.07,0.16,0.2,0.28,0.39,0.38c0.19,0.1,0.46,0.15,0.81,0.15l0,0.31l-4,0l0,-0.31c0.4,0,0.69,-0.06,0.87,-0.19c0.15,-0.08,0.25,-0.23,0.31,-0.44c0.02,-0.09,0.03,-0.37,0.03,-0.83l0,-3.03c0,-0.91,-0.02,-1.45,-0.05,-1.62c-0.04,-0.18,-0.1,-0.3,-0.2,-0.38c-0.1,-0.08,-0.22,-0.12,-0.37,-0.12c-0.18,0,-0.37,0.04,-0.59,0.12l-0.09,-0.3l2.37,-0.97l0.36,0m6.39,-4.09l0,10.39c0,0.49,0.04,0.81,0.11,0.97c0.07,0.16,0.18,0.28,0.33,0.36c0.15,0.08,0.42,0.12,0.83,0.12l0,0.31l-3.83,0l0,-0.31c0.35,0,0.6,-0.04,0.73,-0.11c0.13,-0.07,0.23,-0.2,0.3,-0.37c0.07,-0.17,0.11,-0.5,0.11,-0.98l0,-7.11c0,-0.89,-0.02,-1.43,-0.05,-1.63c-0.04,-0.2,-0.1,-0.34,-0.19,-0.41c-0.09,-0.07,-0.2,-0.11,-0.34,-0.11c-0.15,0,-0.33,0.05,-0.56,0.14l-0.16,-0.3l2.34,-0.97l0.37,0m6.84,11.28c-0.39,0.4,-0.76,0.68,-1.12,0.85c-0.36,0.17,-0.76,0.26,-1.17,0.26c-0.85,0,-1.6,-0.36,-2.24,-1.07c-0.64,-0.71,-0.96,-1.63,-0.96,-2.76c0,-1.11,0.35,-2.14,1.06,-3.07c0.71,-0.93,1.61,-1.4,2.72,-1.4c0.7,0,1.27,0.22,1.72,0.66l0,-1.45c0,-0.89,-0.02,-1.43,-0.06,-1.64c-0.04,-0.21,-0.11,-0.35,-0.2,-0.42c-0.09,-0.07,-0.21,-0.11,-0.34,-0.11c-0.15,0,-0.34,0.05,-0.59,0.14l-0.11,-0.3l2.33,-0.97l0.39,0l0,9.05c0,0.93,0.02,1.49,0.06,1.69c0.04,0.2,0.11,0.34,0.2,0.42c0.09,0.08,0.2,0.12,0.33,0.12c0.16,0,0.36,-0.05,0.62,-0.16l0.09,0.31l-2.33,0.95l-0.39,0l0,-1.11m0,-0.61l0,-4.03c-0.03,-0.39,-0.13,-0.74,-0.3,-1.05c-0.17,-0.32,-0.4,-0.56,-0.68,-0.72c-0.28,-0.16,-0.56,-0.24,-0.83,-0.24c-0.5,0,-0.95,0.22,-1.34,0.67c-0.52,0.59,-0.78,1.46,-0.78,2.59c0,1.16,0.25,2.04,0.76,2.65c0.51,0.61,1.07,0.91,1.68,0.91c0.51,0,1.01,-0.26,1.5,-0.78" fill="#000000" stroke="none" fill-opacity="1"/>
</g>
<g stroke-width="1" fill="none">
<path d="m47.98,473.55l-9.22,0l0,-0.7l9.22,0l0,0.7m8.06,-6.12l-0.66,1.45l-3.5,0l-0.75,1.56c1.51,0.22,2.7,0.78,3.58,1.69c0.76,0.77,1.14,1.68,1.14,2.73c0,0.6,-0.12,1.17,-0.37,1.69c-0.24,0.52,-0.56,0.96,-0.94,1.33c-0.38,0.36,-0.8,0.66,-1.26,0.87c-0.66,0.31,-1.33,0.47,-2.02,0.47c-0.7,0,-1.2,-0.12,-1.52,-0.35c-0.31,-0.23,-0.47,-0.5,-0.47,-0.79c0,-0.16,0.07,-0.29,0.2,-0.41c0.13,-0.12,0.29,-0.18,0.49,-0.18c0.15,0,0.27,0.02,0.38,0.06c0.11,0.04,0.3,0.16,0.57,0.34c0.43,0.3,0.86,0.45,1.3,0.45c0.67,0,1.25,-0.25,1.76,-0.76c0.51,-0.51,0.76,-1.12,0.76,-1.84c0,-0.71,-0.22,-1.36,-0.67,-1.97c-0.45,-0.6,-1.07,-1.07,-1.86,-1.41c-0.62,-0.26,-1.47,-0.41,-2.55,-0.44l2.22,-4.52l4.16,0" fill="#000000" stroke="none" fill-opacity="1"/>
<path d="m33.98,442.48l-9.22,0l0,-0.7l9.22,0l0,0.7m8.5,3.23l-0.81,2.23l-6.84,0l0,-0.31c2.01,-1.83,3.43,-3.33,4.25,-4.49c0.82,-1.16,1.23,-2.23,1.23,-3.2c0,-0.73,-0.23,-1.33,-0.68,-1.8c-0.45,-0.47,-0.99,-0.71,-1.62,-0.71c-0.57,0,-1.09,0.17,-1.54,0.5c-0.45,0.33,-0.78,0.82,-0.99,1.47l-0.33,0c0.15,-1.06,0.51,-1.87,1.1,-2.44c0.59,-0.56,1.33,-0.84,2.21,-0.84c0.94,0,1.72,0.3,2.35,0.91c0.63,0.6,0.95,1.32,0.95,2.14c0,0.58,-0.14,1.17,-0.41,1.75c-0.43,0.93,-1.11,1.91,-2.05,2.94c-1.43,1.55,-2.31,2.48,-2.66,2.8l3.02,0c0.61,0,1.05,-0.02,1.3,-0.06c0.25,-0.04,0.47,-0.13,0.67,-0.27c0.2,-0.14,0.37,-0.34,0.52,-0.6l0.33,0m3.16,0.58c0.27,0,0.5,0.09,0.68,0.27c0.18,0.18,0.27,0.41,0.27,0.68c0,0.26,-0.09,0.48,-0.28,0.66c-0.19,0.18,-0.41,0.27,-0.67,0.27c-0.26,0,-0.48,-0.09,-0.67,-0.27c-0.19,-0.18,-0.28,-0.4,-0.28,-0.66c0,-0.27,0.09,-0.5,0.28,-0.68c0.19,-0.18,0.41,-0.27,0.67,-0.27m10.41,-9.94l-0.66,1.45l-3.5,0l-0.75,1.56c1.51,0.22,2.7,0.78,3.58,1.69c0.76,0.77,1.14,1.68,1.14,2.73c0,0.6,-0.12,1.17,-0.37,1.69c-0.24,0.52,-0.56,0.96,-0.94,1.33c-0.38,0.36,-0.8,0.66,-1.26,0.87c-0.66,0.31,-1.33,0.47,-2.02,0.47c-0.7,0,-1.2,-0.12,-1.52,-0.35c-0.31,-0.23,-0.47,-0.5,-0.47,-0.79c0,-0.16,0.07,-0.29,0.2,-0.41c0.13,-0.12,0.29,-0.18,0.49,-0.18c0.15,0,0.27,0.02,0.38,0.06c0.11,0.04,0.3,0.16,0.57,0.34c0.43,0.3,0.86,0.45,1.3,0.45c0.67,0,1.25,-0.25,1.76,-0.76c0.51,-0.51,0.76,-1.12,0.76,-1.84c0,-0.71,-0.22,-1.36,-0.67,-1.97c-0.45,-0.6,-1.07,-1.07,-1.86,-1.41c-0.62,-0.26,-1.47,-0.41,-2.55,-0.44l2.22,-4.52l4.16,0" fill="#000000" stroke="none" fill-opacity="1"/>
<path d="m49.08,411.17c0,-1.32,0.2,-2.46,0.6,-3.41c0.4,-0.95,0.93,-1.66,1.59,-2.13c0.52,-0.37,1.05,-0.56,1.59,-0.56c0.9,0,1.69,0.45,2.39,1.36c0.89,1.12,1.33,2.65,1.33,4.56c0,1.34,-0.19,2.49,-0.58,3.43c-0.39,0.94,-0.88,1.62,-1.48,2.05c-0.6,0.42,-1.18,0.63,-1.73,0.63c-1.1,0,-2.03,-0.65,-2.77,-1.95c-0.62,-1.1,-0.94,-2.43,-0.94,-3.97m1.69,0.2c0,1.59,0.19,2.9,0.58,3.91c0.33,0.85,0.82,1.28,1.45,1.28c0.31,0,0.63,-0.14,0.96,-0.41c0.33,-0.28,0.58,-0.74,0.76,-1.4c0.26,-0.98,0.39,-2.36,0.39,-4.14c0,-1.32,-0.14,-2.43,-0.41,-3.31c-0.21,-0.65,-0.47,-1.11,-0.8,-1.39c-0.24,-0.19,-0.52,-0.28,-0.84,-0.28c-0.4,0,-0.74,0.18,-1.05,0.53c-0.41,0.47,-0.68,1.21,-0.83,2.23c-0.15,1.02,-0.22,2.01,-0.22,2.99" fill="#000000" stroke="none" fill-opacity="1"/>
<path d="m42.48,383.61l-0.81,2.23l-6.84,0l0,-0.31c2.01,-1.83,3.43,-3.33,4.25,-4.49c0.82,-1.16,1.23,-2.23,1.23,-3.2c0,-0.73,-0.23,-1.33,-0.68,-1.8c-0.45,-0.47,-0.99,-0.71,-1.62,-0.71c-0.57,0,-1.09,0.17,-1.54,0.5c-0.45,0.33,-0.78,0.82,-0.99,1.47l-0.33,0c0.15,-1.06,0.51,-1.87,1.1,-2.44c0.59,-0.56,1.33,-0.84,2.21,-0.84c0.94,0,1.72,0.3,2.35,0.91c0.63,0.6,0.95,1.32,0.95,2.14c0,0.58,-0.14,1.17,-0.41,1.75c-0.43,0.93,-1.11,1.91,-2.05,2.94c-1.43,1.55,-2.31,2.48,-2.66,2.8l3.02,0c0.61,0,1.05,-0.02,1.3,-0.06c0.25,-0.04,0.47,-0.13,0.67,-0.27c0.2,-0.14,0.37,-0.34,0.52,-0.6l0.33,0m3.16,0.58c0.27,0,0.5,0.09,0.68,0.27c0.18,0.18,0.27,0.41,0.27,0.68c0,0.26,-0.09,0.48,-0.28,0.66c-0.19,0.18,-0.41,0.27,-0.67,0.27c-0.26,0,-0.48,-0.09,-0.67,-0.27c-0.19,-0.18,-0.28,-0.4,-0.28,-0.66c0,-0.27,0.09,-0.5,0.28,-0.68c0.19,-0.18,0.41,-0.27,0.67,-0.27m10.41,-9.94l-0.66,1.45l-3.5,0l-0.75,1.56c1.51,0.22,2.7,0.78,3.58,1.69c0.76,0.77,1.14,1.68,1.14,2.73c0,0.6,-0.12,1.17,-0.37,1.69c-0.24,0.52,-0.56,0.96,-0.94,1.33c-0.38,0.36,-0.8,0.66,-1.26,0.87c-0.66,0.31,-1.33,0.47,-2.02,0.47c-0.7,0,-1.2,-0.12,-1.52,-0.35c-0.31,-0.23,-0.47,-0.5,-0.47,-0.79c0,-0.16,0.07,-0.29,0.2,-0.41c0.13,-0.12,0.29,-0.18,0.49,-0.18c0.15,0,0.27,0.02,0.38,0.06c0.11,0.04,0.3,0.16,0.57,0.34c0.43,0.3,0.86,0.45,1.3,0.45c0.67,0,1.25,-0.25,1.76,-0.76c0.51,-0.51,0.76,-1.12,0.76,-1.84c0,-0.71,-0.22,-1.36,-0.67,-1.97c-0.45,-0.6,-1.07,-1.07,-1.86,-1.41c-0.62,-0.26,-1.47,-0.41,-2.55,-0.44l2.22,-4.52l4.16,0" fill="#000000" stroke="none" fill-opacity="1"/>
<path d="m56.05,343.19l-0.66,1.45l-3.5,0l-0.75,1.56c1.51,0.22,2.7,0.78,3.58,1.69c0.76,0.77,1.14,1.68,1.14,2.73c0,0.6,-0.12,1.17,-0.37,1.69c-0.24,0.52,-0.56,0.96,-0.94,1.33c-0.38,0.36,-0.8,0.66,-1.26,0.87c-0.66,0.31,-1.33,0.47,-2.02,0.47c-0.7,0,-1.2,-0.12,-1.52,-0.35c-0.31,-0.23,-0.47,-0.5,-0.47,-0.79c0,-0.16,0.07,-0.29,0.2,-0.41c0.13,-0.12,0.29,-0.18,0.49,-0.18c0.15,0,0.27,0.02,0.38,0.06c0.11,0.04,0.3,0.16,0.57,0.34c0.43,0.3,0.86,0.45,1.3,0.45c0.67,0,1.25,-0.25,1.76,-0.76c0.51,-0.51,0.76,-1.12,0.76,-1.84c0,-0.71,-0.22,-1.36,-0.67,-1.97c-0.45,-0.6,-1.07,-1.07,-1.86,-1.41c-0.62,-0.26,-1.47,-0.41,-2.55,-0.44l2.22,-4.52l4.16,0" fill="#000000" stroke="none" fill-opacity="1"/>
<path d="m36.22,322.12l6.2,0l0,0.33l-3.86,11.5l-0.95,0l3.45,-10.42l-3.19,0c-0.64,0,-1.09,0.07,-1.37,0.22c-0.48,0.26,-0.86,0.67,-1.16,1.22l-0.23,-0.09l1.11,-2.75m9.42,9.94c0.27,0,0.5,0.09,0.68,0.27c0.18,0.18,0.27,0.41,0.27,0.68c0,0.26,-0.09,0.48,-0.28,0.66c-0.19,0.18,-0.41,0.27,-0.67,0.27c-0.26,0,-0.48,-0.09,-0.67,-0.27c-0.19,-0.18,-0.28,-0.4,-0.28,-0.66c0,-0.27,0.09,-0.5,0.28,-0.68c0.19,-0.18,0.41,-0.27,0.67,-0.27m10.41,-9.94l-0.66,1.45l-3.5,0l-0.75,1.56c1.51,0.22,2.7,0.78,3.58,1.69c0.76,0.77,1.14,1.68,1.14,2.73c0,0.6,-0.12,1.17,-0.37,1.69c-0.24,0.52,-0.56,0.96,-0.94,1.33c-0.38,0.36,-0.8,0.66,-1.26,0.87c-0.66,0.31,-1.33,0.47,-2.02,0.47c-0.7,0,-1.2,-0.12,-1.52,-0.35c-0.31,-0.23,-0.47,-0.5,-0.47,-0.79c0,-0.16,0.07,-0.29,0.2,-0.41c0.13,-0.12,0.29,-0.18,0.49,-0.18c0.15,0,0.27,0.02,0.38,0.06c0.11,0.04,0.3,0.16,0.57,0.34c0.43,0.3,0.86,0.45,1.3,0.45c0.67,0,1.25,-0.25,1.76,-0.76c0.51,-0.51,0.76,-1.12,0.76,-1.84c0,-0.71,-0.22,-1.36,-0.67,-1.97c-0.45,-0.6,-1.07,-1.07,-1.86,-1.41c-0.62,-0.26,-1.47,-0.41,-2.55,-0.44l2.22,-4.52l4.16,0" fill="#000000" stroke="none" fill-opacity="1"/>
</g>
<g stroke-width="0.62" stroke-linecap="butt" fill="none">
<path d="M60.46,473.03l465.91,0"/>
<path d="M60.46,473.03l0,-3.75M83.76,473.03l0,-3.75M107.05,473.03l0,-3.75M130.35,473.03l0,-3.75M153.64,473.03l0,-3.75M176.94,473.03l0,-3.75M200.24,473.03l0,-3.75M223.53,473.03l0,-3.75M246.83,473.03l0,-3.75M270.12,473.03l0,-3.75M293.42,473.03l0,-3.75M316.71,473.03l0,-3.75M340.01,473.03l0,-3.75M363.31,473.03l0,-3.75M386.6,473.03l0,-3.75M409.9,473.03l0,-3.75M433.19,473.03l0,-3.75M456.49,473.03l0,-3.75M479.78,473.03l0,-3.75M503.08,473.03l0,-3.75M526.38,473.03l0,-3.75"/>
<path d="M60.46,473.03l0,-7.5M176.94,473.03l0,-7.5M293.42,473.03l0,-7.5M409.9,473.03l0,-7.5M526.38,473.03l0,-7.5"/>
<path d="M60.46,317.72l465.91,0"/>
<path d="M60.46,317.72l0,3.75M83.76,317.72l0,3.75M107.05,317.72l0,3.75M130.35,317.72l0,3.75M153.64,317.72l0,3.75M176.94,317.72l0,3.75M200.24,317.72l0,3.75M223.53,317.72l0,3.75M246.83,317.72l0,3.75M270.12,317.72l0,3.75M293.42,317.72l0,3.75M316.71,317.72l0,3.75M340.01,317.72l0,3.75M363.31,317.72l0,3.75M386.6,317.72l0,3.75M409.9,317.72l0,3.75M433.19,317.72l0,3.75M456.49,317.72l0,3.75M479.78,317.72l0,3.75M503.08,317.72l0,3.75M526.38,317.72l0,3.75"/>
<path d="M60.46,317.72l0,7.5M176.94,317.72l0,7.5M293.42,317.72l0,7.5M409.9,317.72l0,7.5M526.38,317.72l0,7.5"/>
</g>
<g stroke-width="1" fill="none">
<path d="m255.53,502.42l0.12,2.72l-0.33,0c-0.06,-0.48,-0.15,-0.82,-0.25,-1.02c-0.18,-0.33,-0.41,-0.58,-0.7,-0.73c-0.29,-0.16,-0.68,-0.23,-1.16,-0.23l-1.64,0l0,8.84c0,0.72,0.08,1.17,0.23,1.34c0.22,0.24,0.55,0.36,1,0.36l0.41,0l0,0.31l-4.92,0l0,-0.31l0.42,0c0.49,0,0.83,-0.15,1.03,-0.45c0.12,-0.18,0.19,-0.59,0.19,-1.25l0,-8.84l-1.39,0c-0.54,0,-0.93,0.04,-1.16,0.12c-0.29,0.1,-0.54,0.31,-0.75,0.62c-0.21,0.31,-0.33,0.72,-0.37,1.24l-0.33,0l0.14,-2.72l9.45,0m3.72,3.53l0,1.77c0.65,-1.18,1.32,-1.77,2.02,-1.77c0.31,0,0.57,0.1,0.77,0.29c0.2,0.19,0.3,0.41,0.3,0.66c0,0.22,-0.07,0.41,-0.22,0.56c-0.15,0.16,-0.32,0.23,-0.53,0.23c-0.2,0,-0.42,-0.1,-0.67,-0.3c-0.25,-0.2,-0.43,-0.3,-0.55,-0.3c-0.1,0,-0.22,0.06,-0.34,0.17c-0.25,0.23,-0.51,0.61,-0.78,1.16l0,3.75c0,0.44,0.05,0.77,0.16,0.98c0.07,0.16,0.2,0.28,0.39,0.38c0.19,0.1,0.46,0.15,0.81,0.15l0,0.31l-4,0l0,-0.31c0.4,0,0.69,-0.06,0.87,-0.19c0.15,-0.08,0.25,-0.23,0.31,-0.44c0.02,-0.09,0.03,-0.37,0.03,-0.83l0,-3.03c0,-0.91,-0.02,-1.45,-0.05,-1.62c-0.04,-0.18,-0.1,-0.3,-0.2,-0.38c-0.1,-0.08,-0.22,-0.12,-0.37,-0.12c-0.18,0,-0.37,0.04,-0.59,0.12l-0.09,-0.3l2.37,-0.97l0.36,0m8.14,6.94c-0.8,0.61,-1.31,0.97,-1.52,1.08c-0.3,0.14,-0.63,0.2,-0.98,0.2c-0.54,0,-0.99,-0.18,-1.34,-0.55c-0.35,-0.37,-0.52,-0.86,-0.52,-1.46c0,-0.37,0.08,-0.7,0.25,-0.98c0.24,-0.39,0.65,-0.75,1.23,-1.09c0.58,-0.34,1.54,-0.76,2.88,-1.25l0,-0.31c0,-0.78,-0.12,-1.32,-0.37,-1.6c-0.25,-0.29,-0.61,-0.43,-1.08,-0.43c-0.36,0,-0.65,0.09,-0.86,0.28c-0.22,0.2,-0.33,0.42,-0.33,0.67l0.02,0.5c0,0.26,-0.07,0.46,-0.2,0.6c-0.13,0.14,-0.3,0.21,-0.52,0.21c-0.21,0,-0.38,-0.07,-0.52,-0.22c-0.14,-0.15,-0.2,-0.35,-0.2,-0.61c0,-0.49,0.25,-0.94,0.75,-1.35c0.5,-0.41,1.2,-0.62,2.11,-0.62c0.7,0,1.27,0.12,1.72,0.36c0.33,0.18,0.58,0.45,0.73,0.83c0.1,0.24,0.16,0.74,0.16,1.5l0,2.66c0,0.75,0.02,1.21,0.05,1.37c0.03,0.17,0.08,0.28,0.14,0.34c0.06,0.06,0.14,0.09,0.22,0.09c0.09,0,0.18,-0.02,0.25,-0.06c0.11,-0.07,0.34,-0.28,0.69,-0.62l0,0.48c-0.64,0.85,-1.24,1.28,-1.83,1.28c-0.28,0,-0.51,-0.1,-0.67,-0.29c-0.17,-0.19,-0.25,-0.52,-0.25,-0.99m0,-0.56l0,-2.98c-0.86,0.34,-1.42,0.59,-1.67,0.73c-0.45,0.25,-0.77,0.51,-0.96,0.78c-0.19,0.27,-0.29,0.57,-0.29,0.91c0,0.41,0.12,0.74,0.37,1.02c0.24,0.27,0.52,0.41,0.84,0.41c0.44,0,1.01,-0.29,1.72,-0.86m6.62,-5.53l0,5.16c0,0.73,0.08,1.19,0.23,1.37c0.21,0.25,0.49,0.37,0.84,0.37l0.72,0l0,0.31l-4.69,0l0,-0.31l0.36,0c0.23,0,0.44,-0.06,0.62,-0.17c0.19,-0.11,0.32,-0.27,0.39,-0.46c0.07,-0.19,0.11,-0.57,0.11,-1.12l0,-5.16l-1.53,0l0,-0.61l1.53,0l0,-0.52c0,-0.78,0.12,-1.44,0.37,-1.98c0.25,-0.54,0.63,-0.98,1.15,-1.31c0.52,-0.33,1.09,-0.5,1.73,-0.5c0.6,0,1.16,0.2,1.66,0.59c0.33,0.25,0.5,0.54,0.5,0.86c0,0.17,-0.08,0.33,-0.23,0.48c-0.15,0.15,-0.31,0.23,-0.48,0.23c-0.14,0,-0.28,-0.05,-0.42,-0.14c-0.15,-0.09,-0.32,-0.29,-0.53,-0.6c-0.21,-0.31,-0.4,-0.52,-0.58,-0.63c-0.18,-0.1,-0.37,-0.16,-0.59,-0.16c-0.26,0,-0.48,0.07,-0.66,0.21c-0.18,0.14,-0.31,0.36,-0.39,0.65c-0.08,0.29,-0.12,1.05,-0.12,2.27l0,0.56l2.02,0l0,0.61l-2.02,0m6,0l0,5.16c0,0.73,0.08,1.19,0.23,1.37c0.21,0.25,0.49,0.37,0.84,0.37l0.72,0l0,0.31l-4.69,0l0,-0.31l0.36,0c0.23,0,0.44,-0.06,0.62,-0.17c0.19,-0.11,0.32,-0.27,0.39,-0.46c0.07,-0.19,0.11,-0.57,0.11,-1.12l0,-5.16l-1.53,0l0,-0.61l1.53,0l0,-0.52c0,-0.78,0.12,-1.44,0.37,-1.98c0.25,-0.54,0.63,-0.98,1.15,-1.31c0.52,-0.33,1.09,-0.5,1.73,-0.5c0.6,0,1.16,0.2,1.66,0.59c0.33,0.25,0.5,0.54,0.5,0.86c0,0.17,-0.08,0.33,-0.23,0.48c-0.15,0.15,-0.31,0.23,-0.48,0.23c-0.14,0,-0.28,-0.05,-0.42,-0.14c-0.15,-0.09,-0.32,-0.29,-0.53,-0.6c-0.21,-0.31,-0.4,-0.52,-0.58,-0.63c-0.18,-0.1,-0.37,-0.16,-0.59,-0.16c-0.26,0,-0.48,0.07,-0.66,0.21c-0.18,0.14,-0.31,0.36,-0.39,0.65c-0.08,0.29,-0.12,1.05,-0.12,2.27l0,0.56l2.02,0l0,0.61l-2.02,0m4.92,-4.94c0.24,0,0.45,0.09,0.62,0.26c0.17,0.17,0.26,0.38,0.26,0.62c0,0.24,-0.09,0.44,-0.26,0.61c-0.17,0.17,-0.38,0.25,-0.62,0.25c-0.24,0,-0.44,-0.08,-0.61,-0.25c-0.17,-0.17,-0.25,-0.37,-0.25,-0.61c0,-0.24,0.08,-0.45,0.25,-0.62c0.17,-0.17,0.37,-0.26,0.61,-0.26m0.72,4.09l0,6.3c0,0.49,0.03,0.82,0.1,0.98c0.07,0.16,0.17,0.28,0.31,0.36c0.14,0.08,0.4,0.12,0.77,0.12l0,0.31l-3.81,0l0,-0.31c0.39,0,0.64,-0.04,0.77,-0.11c0.13,-0.07,0.23,-0.2,0.31,-0.37c0.08,-0.17,0.12,-0.5,0.12,-0.98l0,-3.02c0,-0.85,-0.03,-1.41,-0.08,-1.66c-0.04,-0.18,-0.1,-0.3,-0.19,-0.37c-0.08,-0.07,-0.2,-0.11,-0.34,-0.11c-0.17,0,-0.36,0.04,-0.59,0.12l-0.11,-0.3l2.36,-0.97l0.37,0m7.94,5.09c-0.21,1.03,-0.62,1.82,-1.23,2.37c-0.61,0.55,-1.3,0.83,-2.05,0.83c-0.89,0,-1.66,-0.37,-2.32,-1.12c-0.66,-0.74,-0.99,-1.75,-0.99,-3.02c0,-1.23,0.37,-2.23,1.1,-3c0.73,-0.77,1.61,-1.16,2.63,-1.16c0.77,0,1.4,0.2,1.9,0.61c0.49,0.41,0.74,0.83,0.74,1.28c0,0.21,-0.07,0.38,-0.21,0.52c-0.14,0.14,-0.34,0.2,-0.59,0.2c-0.33,0,-0.58,-0.11,-0.75,-0.33c-0.1,-0.11,-0.17,-0.34,-0.2,-0.68c-0.03,-0.34,-0.15,-0.6,-0.34,-0.77c-0.2,-0.17,-0.47,-0.25,-0.83,-0.25c-0.56,0,-1.02,0.21,-1.37,0.62c-0.46,0.56,-0.69,1.3,-0.69,2.22c0,0.94,0.23,1.76,0.69,2.48c0.46,0.71,1.08,1.07,1.86,1.07c0.55,0,1.05,-0.19,1.5,-0.58c0.31,-0.26,0.62,-0.73,0.92,-1.42l0.23,0.12m5.8,-4.08l2.41,-0.98l0.33,0l0,1.84c0.41,-0.7,0.81,-1.18,1.22,-1.46c0.41,-0.28,0.83,-0.41,1.28,-0.41c0.79,0,1.45,0.31,1.97,0.92c0.65,0.76,0.97,1.74,0.97,2.94c0,1.35,-0.39,2.47,-1.17,3.36c-0.64,0.72,-1.44,1.08,-2.41,1.08c-0.42,0,-0.78,-0.06,-1.09,-0.17c-0.23,-0.08,-0.48,-0.26,-0.77,-0.52l0,2.39c0,0.53,0.03,0.87,0.09,1.02c0.06,0.15,0.18,0.26,0.34,0.34c0.17,0.08,0.46,0.12,0.89,0.12l0,0.33l-4.11,0l0,-0.33l0.22,0c0.31,0.01,0.58,-0.05,0.8,-0.17c0.11,-0.06,0.2,-0.16,0.26,-0.3c0.06,-0.14,0.09,-0.5,0.09,-1.07l0,-7.39c0,-0.51,-0.02,-0.83,-0.07,-0.97c-0.05,-0.14,-0.12,-0.24,-0.22,-0.3c-0.1,-0.07,-0.23,-0.1,-0.4,-0.1c-0.14,0,-0.31,0.04,-0.53,0.11l-0.09,-0.27m2.73,1.36l0,2.92c0,0.64,0.03,1.05,0.08,1.25c0.07,0.32,0.27,0.61,0.58,0.86c0.31,0.25,0.7,0.37,1.17,0.37c0.57,0,1.04,-0.22,1.39,-0.66c0.46,-0.58,0.69,-1.4,0.69,-2.45c0,-1.2,-0.26,-2.12,-0.78,-2.77c-0.36,-0.44,-0.8,-0.66,-1.3,-0.66c-0.27,0,-0.54,0.07,-0.81,0.2c-0.21,0.1,-0.55,0.41,-1.02,0.92m10.66,-2.37c1.19,0,2.14,0.45,2.86,1.36c0.6,0.77,0.91,1.65,0.91,2.64c0,0.7,-0.17,1.41,-0.5,2.12c-0.33,0.72,-0.8,1.26,-1.39,1.62c-0.59,0.36,-1.25,0.55,-1.97,0.55c-1.18,0,-2.11,-0.47,-2.81,-1.41c-0.58,-0.79,-0.87,-1.68,-0.87,-2.67c0,-0.71,0.18,-1.42,0.53,-2.13c0.35,-0.71,0.82,-1.24,1.41,-1.58c0.58,-0.34,1.2,-0.51,1.84,-0.51m-0.27,0.56c-0.3,0,-0.6,0.09,-0.91,0.27c-0.3,0.18,-0.55,0.49,-0.74,0.95c-0.19,0.45,-0.29,1.03,-0.29,1.74c0,1.14,0.23,2.11,0.68,2.94c0.45,0.82,1.05,1.23,1.8,1.23c0.55,0,1.01,-0.23,1.36,-0.68c0.35,-0.45,0.53,-1.24,0.53,-2.35c0,-1.39,-0.3,-2.48,-0.89,-3.28c-0.41,-0.54,-0.92,-0.81,-1.55,-0.81m8.12,-4.66l0,10.39c0,0.49,0.04,0.81,0.11,0.97c0.07,0.16,0.18,0.28,0.33,0.36c0.15,0.08,0.42,0.12,0.83,0.12l0,0.31l-3.83,0l0,-0.31c0.35,0,0.6,-0.04,0.73,-0.11c0.13,-0.07,0.23,-0.2,0.3,-0.37c0.07,-0.17,0.11,-0.5,0.11,-0.98l0,-7.11c0,-0.89,-0.02,-1.43,-0.05,-1.63c-0.04,-0.2,-0.1,-0.34,-0.19,-0.41c-0.09,-0.07,-0.2,-0.11,-0.34,-0.11c-0.15,0,-0.33,0.05,-0.56,0.14l-0.16,-0.3l2.34,-0.97l0.37,0m3.3,0c0.24,0,0.45,0.09,0.62,0.26c0.17,0.17,0.26,0.38,0.26,0.62c0,0.24,-0.09,0.44,-0.26,0.61c-0.17,0.17,-0.38,0.25,-0.62,0.25c-0.24,0,-0.44,-0.08,-0.61,-0.25c-0.17,-0.17,-0.25,-0.37,-0.25,-0.61c0,-0.24,0.08,-0.45,0.25,-0.62c0.17,-0.17,0.37,-0.26,0.61,-0.26m0.72,4.09l0,6.3c0,0.49,0.03,0.82,0.1,0.98c0.07,0.16,0.17,0.28,0.31,0.36c0.14,0.08,0.4,0.12,0.77,0.12l0,0.31l-3.81,0l0,-0.31c0.39,0,0.64,-0.04,0.77,-0.11c0.13,-0.07,0.23,-0.2,0.31,-0.37c0.08,-0.17,0.12,-0.5,0.12,-0.98l0,-3.02c0,-0.85,-0.03,-1.41,-0.08,-1.66c-0.04,-0.18,-0.1,-0.3,-0.19,-0.37c-0.08,-0.07,-0.2,-0.11,-0.34,-0.11c-0.17,0,-0.36,0.04,-0.59,0.12l-0.11,-0.3l2.36,-0.97l0.37,0m7.94,5.09c-0.21,1.03,-0.62,1.82,-1.23,2.37c-0.61,0.55,-1.3,0.83,-2.05,0.83c-0.89,0,-1.66,-0.37,-2.32,-1.12c-0.66,-0.74,-0.99,-1.75,-0.99,-3.02c0,-1.23,0.37,-2.23,1.1,-3c0.73,-0.77,1.61,-1.16,2.63,-1.16c0.77,0,1.4,0.2,1.9,0.61c0.49,0.41,0.74,0.83,0.74,1.28c0,0.21,-0.07,0.38,-0.21,0.52c-0.14,0.14,-0.34,0.2,-0.59,0.2c-0.33,0,-0.58,-0.11,-0.75,-0.33c-0.1,-0.11,-0.17,-0.34,-0.2,-0.68c-0.03,-0.34,-0.15,-0.6,-0.34,-0.77c-0.2,-0.17,-0.47,-0.25,-0.83,-0.25c-0.56,0,-1.02,0.21,-1.37,0.62c-0.46,0.56,-0.69,1.3,-0.69,2.22c0,0.94,0.23,1.76,0.69,2.48c0.46,0.71,1.08,1.07,1.86,1.07c0.55,0,1.05,-0.19,1.5,-0.58c0.31,-0.26,0.62,-0.73,0.92,-1.42l0.23,0.12m2.67,-1.91c0,1.16,0.28,2.07,0.84,2.73c0.57,0.66,1.24,0.98,2.02,0.98c0.51,0,0.96,-0.14,1.34,-0.42c0.38,-0.28,0.7,-0.77,0.95,-1.45l0.27,0.17c-0.11,0.78,-0.46,1.49,-1.04,2.13c-0.58,0.64,-1.3,0.96,-2.16,0.96c-0.94,0,-1.74,-0.36,-2.41,-1.09c-0.67,-0.73,-1,-1.71,-1,-2.95c0,-1.33,0.34,-2.37,1.02,-3.12c0.68,-0.75,1.54,-1.12,2.59,-1.12c0.87,0,1.59,0.29,2.16,0.87c0.56,0.58,0.84,1.35,0.84,2.32l-5.41,0m0,-0.5l3.62,0c-0.03,-0.5,-0.09,-0.85,-0.17,-1.06c-0.15,-0.31,-0.36,-0.56,-0.64,-0.74c-0.28,-0.18,-0.58,-0.27,-0.89,-0.27c-0.47,0,-0.89,0.18,-1.27,0.55c-0.37,0.36,-0.59,0.87,-0.66,1.53" fill="#000000" stroke="none" fill-opacity="1"/>
<path d="m56.58,486.3c0,-1.32,0.2,-2.46,0.6,-3.41c0.4,-0.95,0.93,-1.66,1.59,-2.13c0.52,-0.37,1.05,-0.56,1.59,-0.56c0.9,0,1.69,0.45,2.39,1.36c0.89,1.12,1.33,2.65,1.33,4.56c0,1.34,-0.19,2.49,-0.58,3.43c-0.39,0.94,-0.88,1.62,-1.48,2.05c-0.6,0.42,-1.18,0.63,-1.73,0.63c-1.1,0,-2.03,-0.65,-2.77,-1.95c-0.62,-1.1,-0.94,-2.43,-0.94,-3.97m1.69,0.2c0,1.59,0.19,2.9,0.58,3.91c0.33,0.85,0.82,1.28,1.45,1.28c0.31,0,0.63,-0.14,0.96,-0.41c0.33,-0.28,0.58,-0.74,0.76,-1.4c0.26,-0.98,0.39,-2.36,0.39,-4.14c0,-1.32,-0.14,-2.43,-0.41,-3.31c-0.21,-0.65,-0.47,-1.11,-0.8,-1.39c-0.24,-0.19,-0.52,-0.28,-0.84,-0.28c-0.4,0,-0.74,0.18,-1.05,0.53c-0.41,0.47,-0.68,1.21,-0.83,2.23c-0.15,1.02,-0.22,2.01,-0.22,2.99" fill="#000000" stroke="none" fill-opacity="1"/>
<path d="m180.03,480.42l-0.66,1.45l-3.5,0l-0.75,1.56c1.51,0.22,2.7,0.78,3.58,1.69c0.76,0.77,1.14,1.68,1.14,2.73c0,0.6,-0.12,1.17,-0.37,1.69c-0.24,0.52,-0.56,0.96,-0.94,1.33c-0.38,0.36,-0.8,0.66,-1.26,0.87c-0.66,0.31,-1.33,0.47,-2.02,0.47c-0.7,0,-1.2,-0.12,-1.52,-0.35c-0.31,-0.23,-0.47,-0.5,-0.47,-0.79c0,-0.16,0.07,-0.29,0.2,-0.41c0.13,-0.12,0.29,-0.18,0.49,-0.18c0.15,0,0.27,0.02,0.38,0.06c0.11,0.04,0.3,0.16,0.57,0.34c0.43,0.3,0.86,0.45,1.3,0.45c0.67,0,1.25,-0.25,1.76,-0.76c0.51,-0.51,0.76,-1.12,0.76,-1.84c0,-0.71,-0.22,-1.36,-0.67,-1.97c-0.45,-0.6,-1.07,-1.07,-1.86,-1.41c-0.62,-0.26,-1.47,-0.41,-2.55,-0.44l2.22,-4.52l4.16,0" fill="#000000" stroke="none" fill-opacity="1"/>
<path d="m286.45,481.56l2.83,-1.37l0.28,0l0,9.78c0,0.66,0.03,1.06,0.08,1.22c0.05,0.16,0.16,0.28,0.34,0.37c0.17,0.09,0.52,0.14,1.04,0.15l0,0.31l-4.36,0l0,-0.31c0.55,-0.01,0.91,-0.06,1.07,-0.14c0.16,-0.08,0.27,-0.2,0.34,-0.34c0.06,-0.14,0.09,-0.56,0.09,-1.26l0,-6.25c0,-0.84,-0.03,-1.39,-0.09,-1.62c-0.04,-0.18,-0.11,-0.31,-0.22,-0.4c-0.1,-0.09,-0.23,-0.13,-0.37,-0.13c-0.21,0,-0.51,0.09,-0.89,0.27l-0.12,-0.27m7.58,4.73c0,-1.32,0.2,-2.46,0.6,-3.41c0.4,-0.95,0.93,-1.66,1.59,-2.13c0.52,-0.37,1.05,-0.56,1.59,-0.56c0.9,0,1.69,0.45,2.39,1.36c0.89,1.12,1.33,2.65,1.33,4.56c0,1.34,-0.19,2.49,-0.58,3.43c-0.39,0.94,-0.88,1.62,-1.48,2.05c-0.6,0.42,-1.18,0.63,-1.73,0.63c-1.1,0,-2.03,-0.65,-2.77,-1.95c-0.62,-1.1,-0.94,-2.43,-0.94,-3.97m1.69,0.2c0,1.59,0.19,2.9,0.58,3.91c0.33,0.85,0.82,1.28,1.45,1.28c0.31,0,0.63,-0.14,0.96,-0.41c0.33,-0.28,0.58,-0.74,0.76,-1.4c0.26,-0.98,0.39,-2.36,0.39,-4.14c0,-1.32,-0.14,-2.43,-0.41,-3.31c-0.21,-0.65,-0.47,-1.11,-0.8,-1.39c-0.24,-0.19,-0.52,-0.28,-0.84,-0.28c-0.4,0,-0.74,0.18,-1.05,0.53c-0.41,0.47,-0.68,1.21,-0.83,2.23c-0.15,1.02,-0.22,2.01,-0.22,2.99" fill="#000000" stroke="none" fill-opacity="1"/>
<path d="m402.94,481.56l2.83,-1.37l0.28,0l0,9.78c0,0.66,0.03,1.06,0.08,1.22c0.05,0.16,0.16,0.28,0.34,0.37c0.17,0.09,0.52,0.14,1.04,0.15l0,0.31l-4.36,0l0,-0.31c0.55,-0.01,0.91,-0.06,1.07,-0.14c0.16,-0.08,0.27,-0.2,0.34,-0.34c0.06,-0.14,0.09,-0.56,0.09,-1.26l0,-6.25c0,-0.84,-0.03,-1.39,-0.09,-1.62c-0.04,-0.18,-0.11,-0.31,-0.22,-0.4c-0.1,-0.09,-0.23,-0.13,-0.37,-0.13c-0.21,0,-0.51,0.09,-0.89,0.27l-0.12,-0.27m14.55,-1.14l-0.66,1.45l-3.5,0l-0.75,1.56c1.51,0.22,2.7,0.78,3.58,1.69c0.76,0.77,1.14,1.68,1.14,2.73c0,0.6,-0.12,1.17,-0.37,1.69c-0.24,0.52,-0.56,0.96,-0.94,1.33c-0.38,0.36,-0.8,0.66,-1.26,0.87c-0.66,0.31,-1.33,0.47,-2.02,0.47c-0.7,0,-1.2,-0.12,-1.52,-0.35c-0.31,-0.23,-0.47,-0.5,-0.47,-0.79c0,-0.16,0.07,-0.29,0.2,-0.41c0.13,-0.12,0.29,-0.18,0.49,-0.18c0.15,0,0.27,0.02,0.38,0.06c0.11,0.04,0.3,0.16,0.57,0.34c0.43,0.3,0.86,0.45,1.3,0.45c0.67,0,1.25,-0.25,1.76,-0.76c0.51,-0.51,0.76,-1.12,0.76,-1.84c0,-0.71,-0.22,-1.36,-0.67,-1.97c-0.45,-0.6,-1.07,-1.07,-1.86,-1.41c-0.62,-0.26,-1.47,-0.41,-2.55,-0.44l2.22,-4.52l4.16,0" fill="#000000" stroke="none" fill-opacity="1"/>
<path d="m523.52,489.78l-0.81,2.23l-6.84,0l0,-0.31c2.01,-1.83,3.43,-3.33,4.25,-4.49c0.82,-1.16,1.23,-2.23,1.23,-3.2c0,-0.73,-0.23,-1.33,-0.68,-1.8c-0.45,-0.47,-0.99,-0.71,-1.62,-0.71c-0.57,0,-1.09,0.17,-1.54,0.5c-0.45,0.33,-0.78,0.82,-0.99,1.47l-0.33,0c0.15,-1.06,0.51,-1.87,1.1,-2.44c0.59,-0.56,1.33,-0.84,2.21,-0.84c0.94,0,1.72,0.3,2.35,0.91c0.63,0.6,0.95,1.32,0.95,2.14c0,0.58,-0.14,1.17,-0.41,1.75c-0.43,0.93,-1.11,1.91,-2.05,2.94c-1.43,1.55,-2.31,2.48,-2.66,2.8l3.02,0c0.61,0,1.05,-0.02,1.3,-0.06c0.25,-0.04,0.47,-0.13,0.67,-0.27c0.2,-0.14,0.37,-0.34,0.52,-0.6l0.33,0m1.59,-3.48c0,-1.32,0.2,-2.46,0.6,-3.41c0.4,-0.95,0.93,-1.66,1.59,-2.13c0.52,-0.37,1.05,-0.56,1.59,-0.56c0.9,0,1.69,0.45,2.39,1.36c0.89,1.12,1.33,2.65,1.33,4.56c0,1.34,-0.19,2.49,-0.58,3.43c-0.39,0.94,-0.88,1.62,-1.48,2.05c-0.6,0.42,-1.18,0.63,-1.73,0.63c-1.1,0,-2.03,-0.65,-2.77,-1.95c-0.62,-1.1,-0.94,-2.43,-0.94,-3.97m1.69,0.2c0,1.59,0.19,2.9,0.58,3.91c0.33,0.85,0.82,1.28,1.45,1.28c0.31,0,0.63,-0.14,0.96,-0.41c0.33,-0.28,0.58,-0.74,0.76,-1.4c0.26,-0.98,0.39,-2.36,0.39,-4.14c0,-1.32,-0.14,-2.43,-0.41,-3.31c-0.21,-0.65,-0.47,-1.11,-0.8,-1.39c-0.24,-0.19,-0.52,-0.28,-0.84,-0.28c-0.4,0,-0.74,0.18,-1.05,0.53c-0.41,0.47,-0.68,1.21,-0.83,2.23c-0.15,1.02,-0.22,2.01,-0.22,2.99" fill="#000000" stroke="none" fill-opacity="1"/>
</g>
</g>
</g>
<defs>
<clipPath id="c0"><path d="m0,0l533.49,0l0,533.49l-533.49,0l0,-533.49"/></clipPath>
<clipPath id="c1"><path d="m60.46,7.11l465.91,0l0,155.3l-465.91,0l0,-155.3"/></clipPath>
<clipPath id="c2"><path d="m60.46,162.42l465.91,0l0,155.3l-465.91,0l0,-155.3"/></clipPath>
<clipPath id="c3"><path d="m60.46,317.72l465.91,0l0,155.3l-465.91,0l0,-155.3"/></clipPath>
</defs>
</svg>
